<svg xmlns="http://www.w3.org/2000/svg" width="1280" height="879" fill="none"><path fill="#FFEDF0" stroke="#fff" stroke-width="3" d="M-42.5 2.134V1.5h1351v870.628c-.57-.164-1.27-.362-2.09-.593-2.64-.742-6.54-1.82-11.6-3.165-10.12-2.691-24.87-6.452-43.43-10.737-37.11-8.569-89.41-19.232-150.23-27.612-121.585-16.754-277.317-24.401-413.533 12.186-135.702 36.448-302.516 41.052-443.444 30.027-70.454-5.511-134.396-14.925-184.7-26.201-25.153-5.638-46.875-11.737-64.285-18.037-17.037-6.165-29.833-12.484-37.688-18.681V2.134Z"/></svg>