<svg xmlns="http://www.w3.org/2000/svg" width="1280" height="788" fill="none"><path fill="#F1F5FD" stroke="#fff" stroke-width="3" d="M1312.47 8.455c3.02-2.18 5.31-3.941 6.89-5.19l-22.33 541.02C973.534 688.377 695.156 712.443 451.316 690.56c-168.135-15.089-276.996-8.272-351.45 10.97-72.41 18.713-112.244 49.169-142.366 82.536V202.175l.334-.211c.68-.429 1.7-1.066 3.049-1.893a553.037 553.037 0 0 1 11.96-7.112c10.505-6.081 25.97-14.662 45.792-24.646 39.647-19.969 96.72-45.548 166.408-67.977 139.389-44.863 329.159-77.1 530.872-26.733 202.341 50.522 353.795 32.477 454.715 1.747 50.45-15.362 88.26-33.89 113.47-48.59 12.61-7.35 22.06-13.744 28.37-18.305Z"/></svg>