<svg width="1280" height="788" viewBox="0 0 1280 788" fill="none" xmlns="http://www.w3.org/2000/svg">
  <path d="M1312.47 8.45459C1315.49 6.27539 1317.78 4.51398 1319.36 3.26569L1297.03 544.285C973.534 688.377 695.156 712.443 451.316 690.56C283.181 675.471 174.32 682.288 99.8654 701.53C27.4555 720.243 -12.3776 750.699 -42.4998 784.066L-42.4999 202.175C-42.3996 202.111 -42.2884 202.041 -42.1664 201.964C-41.4851 201.535 -40.4656 200.898 -39.1173 200.071C-36.4206 198.417 -32.4086 196 -27.1565 192.959C-16.652 186.878 -1.18761 178.297 18.6351 168.313C58.2819 148.344 115.355 122.765 185.043 100.336C324.432 55.4727 514.202 23.2366 715.915 73.6025C918.256 124.125 1069.71 106.08 1170.63 75.3504C1221.08 59.9878 1258.89 41.4595 1284.1 26.7594C1296.71 19.4094 1306.16 13.0164 1312.47 8.45459Z" fill="#F1F5FD" stroke="white" stroke-width="3" />
</svg>
