<svg xmlns="http://www.w3.org/2000/svg" width="1440" height="708"><path fill="#BBC4EF" d="M-854 535.599A2664.531 2664.531 0 0 1-77.336 351.656v-90.168h25.961v49.772h35.336v-98.824h11.538V176.37h53.364v32.46h24.519v124.072h20.913v-53.38h25.96v62.757h19.471v-230.83l38.581-38.592v178.533h36.418v95.217h42.547V161.221h33.172v28.132h20.913v136.334h38.941V246.34h56.25v79.348h41.104V252.11h51.2v68.528h67.066V196.566l24.519-24.525h16.586v-38.953h20.913v39.674h20.913l18.389 18.394v118.496h28.485v-55.378h32.451v-54.822l33.172-33.182v68.528h31.73V156.17h56.249v44.724h31.73v56.986h57.691V122.419h47.595v111.657h27.403V27.05S1015.908 0 1040.787 0c24.88 0 26.682 26.69 26.682 26.69v218.207h70.31v-29.215h45.122v18.394h26.992v-31.739h13.702l29.206-29.214h27.043v29.214h50.48V177.09l14.061-14.066v19.837h11.178v75.02h31.009V44.363h9.375v73.577h19.47v80.79h32.452v-31.739h20.191v87.283c140.802.36 349.348 18.791 581.237 108.923C2182.866 415.134 2310.283 478.13 2394 535.6V708H-854V535.599Z" opacity=".25"/></svg>