<svg xmlns="http://www.w3.org/2000/svg" width="375" height="236"><path fill="#BBC4EF" d="M-401 178.533a890.18 890.18 0 0 1 259.207-61.314V87.163h8.664v16.59h11.793V70.812h3.851V58.79h17.81v10.82h8.183v41.357h6.98V93.174h8.664v20.919h6.498V37.149l12.876-12.864v59.511h12.154v31.74h14.2V53.74h11.071v9.378h6.98v45.444H.927V82.113H19.7v26.45h13.718V84.036h17.088v22.842H72.89V65.522l8.183-8.175h5.535V44.363h6.98v13.224h6.98l6.137 6.132v39.498h9.506V84.758h10.83V66.484l11.072-11.06v22.842h10.59V52.057h18.772v14.908h10.59V85.96h19.254V40.806h15.884v37.22h9.146V9.015S223.07 0 231.373 0c8.304 0 8.905 8.897 8.905 8.897v72.735h23.466v-9.738h15.06v6.131h9.008v-10.58h4.573l9.747-9.737h9.025v9.738h16.847V59.03l4.694-4.689v6.613h3.73V85.96h10.35V14.788h3.128v24.525h6.498v26.93h10.83v-10.58h6.74v29.095c46.991.12 116.592 6.264 193.983 36.308 44.578 17.312 87.103 38.31 115.043 57.467V236H-401v-57.467Z" opacity=".25"/></svg>