<svg xmlns="http://www.w3.org/2000/svg" width="1280" height="375" fill="none"><path fill="#F1F5FD" d="M451.182 305.054c244.278 21.922 523.191-2.233 847.308-146.777V149H-44v252c60.522-68.622 159.059-126.111 495.182-95.946Z"/><path stroke="#fff" stroke-width="3" d="M1298.49 158.277C974.373 302.821 695.46 326.976 451.182 305.054 115.059 274.889 16.522 332.378-44 401"/><path fill="#91A0D8" fill-opacity=".27" d="M-4.868 186.751c-17.243-11.767-16.5-55.945 4.764-75.248 16.81-15.338 31.68-1.486 56.719-15.359 30.752-17.073 25.369-47.481 53.79-66.061 26.524-17.3 63.215-18.311 68.887-7.535 5.92 11.23-26.544 26.651-50.717 76.156-16.974 34.703-8.518 42.465-24.75 59.352-19.985 20.871-48.18 24.959-84.273 30.202-14.603 2.147-19.903 1.569-24.42-1.507Z"/><path fill="#9289FF" fill-opacity=".4" d="M83.21 2.147a78.238 78.238 0 0 0-45.549 26.93c-19.834 24.743-6.087 41.63-21.325 75.076-18.115 39.755-53.104 50.003-49.005 58.415 4.555 9.362 52.898 7.114 74.409-20.764 17.515-22.681.766-41.033 16.335-73.447 19.503-40.641 64.782-51.24 60.662-62.23-2.816-7.464-24.803-5.938-35.528-3.98Z"/><path fill="#fff" d="M10.243 171.541a1.237 1.237 0 0 1-1.195-.887 1.259 1.259 0 0 1 .845-1.548c45.771-13.228 73.8-32.729 83.258-57.946A90.874 90.874 0 0 0 97.13 95.6c1.525-7.965 3.112-16.219 8.965-25.98 10.613-17.643 29.223-30.438 55.334-38.032a1.237 1.237 0 0 1 1.525.846 1.239 1.239 0 0 1-.845 1.528c-25.493 7.408-43.629 19.83-53.892 36.917-5.646 9.39-7.11 17.066-8.655 25.197a92.41 92.41 0 0 1-4.122 15.951c-9.748 26.001-38.311 45.997-84.887 59.473l-.309.041Z"/><path fill="#9289FF" fill-opacity=".4" d="M49.564 148.711c-45.44 16.124-72.293 25.728-71.549 35.95 1.115 13.799 53.373 32.679 87.123 14.17 20.51-11.25 20.552-28.793 55.026-54.541 17.37-12.978 28.731-16.988 27.781-19.559-2.004-5.409-54.819 8.494-98.38 23.98Z"/><path fill="#fff" d="M21.563 193.524a109.838 109.838 0 0 1-28.637-4.127 1.28 1.28 0 0 1-.89-1.527 1.243 1.243 0 0 1 1.532-.867c22.984 6.191 41.95 5.386 56.382-2.538 7.455-4.128 12.217-9.143 17.725-15.024a128.964 128.964 0 0 1 23.294-20.534 132.042 132.042 0 0 1 33.42-16.303 1.218 1.218 0 0 1 1.552.785 1.237 1.237 0 0 1-.786 1.547 130.675 130.675 0 0 0-32.799 15.994 126.983 126.983 0 0 0-22.88 20.183c-5.653 6.025-10.54 11.226-18.325 15.518a60.79 60.79 0 0 1-29.589 6.893Zm-40.94-34.983a.64.64 0 0 1-.599-.452.616.616 0 0 1 .413-.761c18.027-5.183 31.717-13.964 40.72-26.097 9.003-12.134 10.325-23.198 12.039-35.208.839-7.607 2.395-15.12 4.646-22.436 8.26-24.843 30.25-46.025 65.271-62.992a.641.641 0 0 1 .826.288.616.616 0 0 1-.289.823C68.96 28.508 47.195 49.464 39.018 73.977a119.967 119.967 0 0 0-4.604 22.21c-1.693 12.175-3.304 23.692-12.266 35.763-8.961 12.072-23.065 21.306-41.298 26.57l-.227.021Z"/><path fill="#fff" d="M75.616 27.526a.63.63 0 0 1-.272 0 .616.616 0 0 1-.314-.369.637.637 0 0 1 .043-.488l6.74-13.763a.639.639 0 0 1 .855-.3.696.696 0 0 1 .271.879l-6.76 13.763a.62.62 0 0 1-.563.278ZM63.599 37.541a.599.599 0 0 1-.594-.53.611.611 0 0 1 .436-.672l13.83-3.77a.538.538 0 0 1 .448.05.57.57 0 0 1 .263.377.634.634 0 0 1-.415.754l-13.83 3.77-.138.021Zm-7.93 7h-.178a.663.663 0 0 1-.404-.298.606.606 0 0 1-.063-.483l6.667-23.733A.637.637 0 0 1 62 19.63a.697.697 0 0 1 .514-.067.65.65 0 0 1 .467.781l-6.667 23.754a.687.687 0 0 1-.644.443Zm-7.042 12a.581.581 0 0 1-.559-.338.554.554 0 0 1-.034-.457.585.585 0 0 1 .324-.337l12.754-5.815a.653.653 0 0 1 .827.277.585.585 0 0 1-.29.794l-12.774 5.816-.248.06Zm-7.184 10.98c-.271-.008-.498-.235-.534-.536L38.003 43.23c-.032-.335.18-.637.478-.68a.49.49 0 0 1 .412.106.615.615 0 0 1 .214.409l2.888 23.775a.674.674 0 0 1-.108.462.542.542 0 0 1-.37.238l-.074-.02Zm-4.83 12.02a.6.6 0 0 1-.496-.267.613.613 0 0 1 .144-.862l12.764-8.764a.627.627 0 0 1 .867.165c.194.283.12.669-.165.862l-12.763 8.743a.56.56 0 0 1-.352.123ZM33.41 96.54a.6.6 0 0 1-.558-.407l-4.767-12.62a.68.68 0 0 1 .024-.7.58.58 0 0 1 .606-.26.62.62 0 0 1 .467.49l4.767 12.62a.662.662 0 0 1 .008.49.6.6 0 0 1-.327.344.43.43 0 0 1-.22.043Zm-.822 7a.596.596 0 0 1-.496-.254.603.603 0 0 1 .179-.823l13.89-8.87a.6.6 0 0 1 .745.219.582.582 0 0 1-.111.76l-13.89 8.87a.477.477 0 0 1-.317.098Zm-4.202 17.001a.641.641 0 0 1-.623-.489l-2.722-13.68a.604.604 0 0 1 .148-.658.632.632 0 0 1 .675-.126c.23.095.38.315.382.56l2.742 13.659a.612.612 0 0 1-.477.714l-.125.02Zm-4.771 8.998a.65.65 0 0 1-.55-.333.63.63 0 0 1 .264-.832l14.786-7.76a.577.577 0 0 1 .465-.043.594.594 0 0 1 .351.313c.152.3.044.668-.244.833l-14.725 7.76a.702.702 0 0 1-.347.062Z"/></svg>