<svg xmlns="http://www.w3.org/2000/svg" width="1280" height="203" fill="none"><path fill="#FFEDF0" d="M-44 87.5h1354v108.624S959.864 92.637 688.006 165.655C416.148 238.674 19.998 184.041-44 132.035V87.501Z"/><path stroke="#fff" stroke-width="3" d="M1310 196.124S959.864 92.637 688.006 165.655C416.148 238.674 19.998 184.041-44 132.035"/><path fill="#FAC9CF" d="M1296.19 176.441c-12.97 9.734-45.25-1.91-54.15-22.279-7.08-16.189 6.83-23.663 2.88-45.533-4.86-26.875-28.6-30.512-35.13-56.018-6.1-23.822 2.33-51.064 11.69-52.549 9.75-1.551 12.98 26.166 43.33 56.302 21.26 21.128 29.08 16.84 37.43 32.955 10.34 19.902 6.31 41.655 1.15 69.489-2.08 11.319-3.82 15.089-7.2 17.633Z" opacity=".62"/><path stroke="#fff" stroke-linecap="round" stroke-linejoin="round" stroke-width="1.5" d="M1287.1 161.102c2.17-46.618-10.25-66.728-22.16-76.52-9.11-7.465-18.02-8.925-27.19-19.777-13.03-15.389-14.54-35.424-13.9-49.529" opacity=".62"/><path fill="#FAC9CF" d="M1203.09 109.355c-41.81-22.872-66.72-36.45-73.76-29.094-9.51 9.934 10.86 60.973 46.84 73.668 21.84 7.715 34.91-3.845 76.67 4.621 21.06 4.27 31.52 10.009 32.8 7.607 2.7-5.097-42.4-34.866-82.55-56.802Z" opacity=".62"/><path stroke="#fff" stroke-linecap="round" stroke-linejoin="round" stroke-width="1.5" d="M1138.2 93.682c13.4 26.924 28.51 36.558 39.56 40.462 16.39 5.797 28.27.567 53.32 6.848a129.306 129.306 0 0 1 33.67 13.754" opacity=".62"/><path fill="#E2A3AE" d="M1148.32 55.422c.22 3.336 1.81 22.362 16.78 37.409 17.35 17.441 31.62 8.341 56.12 23.03 29.11 17.432 33.93 45.233 40.8 42.831 7.62-2.67 10.15-40.037-9.48-59.03-15.99-15.472-31.62-4.212-55.28-19.034-29.68-18.592-33.88-54.325-42.74-52.14-6 1.485-6.73 18.517-6.2 26.934Z" opacity=".62"/><path stroke="#fff" stroke-linecap="round" stroke-linejoin="round" stroke-width="1.15" d="M1259.8 148.057c-1.67-9.693-5.6-23.564-16.75-33.948-13.53-12.587-27.72-10.844-43.29-18.067-13.32-6.18-30.26-20.152-42.79-55.593m10.32 22.821-9.64-6.322m15.97 16.79-1.68-11.435m5.72 17.532-17.36-6.797m26.47 13.92-3.53-10.359m11.03 16.424-18.64.4m28 4.596-5.67-10.61m18.22 14.247-9.83 2.727m15.71-1.176-5.95-11.936m17.96 16.373-10.91.876m18.14 3.87-4.61-12.211" opacity=".62"/></svg>