<svg xmlns="http://www.w3.org/2000/svg" width="375" height="220"><g fill="none" fill-rule="evenodd" transform="translate(-174 20)"><path fill="#4E15CC" fill-rule="nonzero" d="M625.201 119.109a192.793 192.793 0 0 0-66.24-15.73V80.94h-5.206v8.158h-8.382V68.326h-5.02V49.388h-2.417v54.918h-8V85.018h-2.881v-5.099l-3.615 3.605v6.49h-13.02v-7.5h-6.972l-7.535 7.51h-3.533v8.164h-6.962v-4.739h-11.635v7.52H455.65V44.86s-.465-6.86-6.884-6.86c-6.42 0-6.972 6.953-6.972 6.953v53.235h-7.07V69.474h-12.266v34.832h-14.89V89.653h-8.18v-11.5H384.88v20.22h-8.186v-17.62l-8.552 8.53v14.096h-8.372v14.241h-7.344V87.15l-4.741-4.728h-5.397V72.22h-5.392v10.018h-4.276l-6.327 6.294v31.932h-17.296v-17.64h-13.205v18.917H285.19v-20.4h-14.502v20.4h-10.045V86.687h-5.392v-7.21h-8.557v47.666h-10.975v-24.505h-9.389V56.732l-9.937 9.925v59.353h-5.02V109.87h-6.713v13.726h-5.392V91.693h-6.327v-8.344H179.21v9.271h-2.98v25.412h-9.136v-12.799h-6.714v23.177c-23.003 4.81-55.59 4.043-84.977 15.936C39.839 158.736 22.249 185.358 0 200.485l3.32.515H722c-32.645-22.58-57.213-64.57-96.799-81.891Z" opacity=".34"/><path fill="#4A23E8" fill-rule="nonzero" d="M333 34.533s5.657-.533 9.771-.533c2.807.086 5.583.625 8.229 1.6l-5.194 5.835-8.692.565L333 34.533Z"/><path fill="#2B0FD3" fill-rule="nonzero" d="M333 34.533s5.657-.533 9.771-.533c2.807.086 5.583.625 8.229 1.6l-5.194 5.835-8.692.565L333 34.533zM169.29 176h372.423c1.635 0 1.753 2.87.118 3.055-43.84 4.914-134.791 13.935-204.461 12.856-67.241-1.032-134.488-8.53-168.219-12.856-1.62-.211-1.49-3.055.14-3.055z" opacity=".46"/><path fill="#FFF" fill-rule="nonzero" d="m346 31.478 1 5.739L345.5 42l-9.5-2.391L338 31z"/><path fill="#FFF" fill-rule="nonzero" d="m348.821 38.483-1.045-2.207s-7.835-1.104-14.104 1.103c-6.268 2.207-2.612 4.966-2.612 4.966L345.687 44l7.313-.552-4.179-4.965Z"/><path fill="#BBC4EF" fill-rule="nonzero" d="m352.737 40.4-3.948-4.4s-2.894 2.847-6.578 2.847a14.05 14.05 0 0 1-6.843-2.07l-4.736 4.658L328 102l30-1.553-5.263-41.93V40.4Z"/><path fill="#2B0FD3" fill-rule="nonzero" d="M346.406 95.342a9.895 9.895 0 0 1-.916-2.85 13.377 13.377 0 0 1 .294-3.892c.49-2.86.809-5.817.181-8.64-.22-.992-.554-1.952-.745-2.948-1.064-5.422 2.118-10.951 1.377-16.43-.308-2.295-1.299-4.492-1.26-6.813.035-2.13.942-4.154 1.079-6.274s-.46-4.108-.49-6.162a6.74 6.74 0 0 1 1.02-3.784c.455-.323.72-.549.72-.549l3.432 4.108v17.97L356 100.666l-6.069.334a26.265 26.265 0 0 1-3.525-5.658Z" opacity=".46"/><path fill="#62BCF9" fill-rule="nonzero" d="m372 182-9.941-4.872-.51-5.128-2.549.513.51 7.692zM334 172v8h-11l7.93-3.5-.511-4.5z"/><path fill="#FFF" fill-rule="nonzero" d="M330.543 176H334v-4h-4zM362.564 172l-2.564.471.256 3.529H363z"/><path fill="#F9879A" fill-rule="nonzero" d="m325.251 99 33.405.18L364 174h-5.791s-11.583-53.078-12.11-55.655c-.526-2.576-2.105-12.883-2.105-12.883s-.527-1.546-1.58-1.546c-1.13.075-2.029.956-2.105 2.061 0 1.031-5.265 68.023-5.265 68.023h-5.791s-4.739-44.833-4.212-52.048c.526-7.214.21-22.952.21-22.952Z"/><path fill="#2B0FD3" fill-rule="nonzero" d="M357.917 99.052 359 114a7.87 7.87 0 0 1-1.656-1.003c-2.382-1.945-2.745-5.405-4.753-7.71-.991-1.139-2.366-1.975-3.119-3.271-.487-.842-.676-1.824-1.19-2.65A3.02 3.02 0 0 0 348 99l9.917.052zM348 125a4.88 4.88 0 0 1 2.649 1.53c.697.802 1.045 1.86.96 2.93-.114 1.097-.393 2.297-.114 3.394.398 1.53 1.638 1.704 1.43 3.388-.18 1.419-.499 2.792-.04 4.2.422 1.27 1.403 2.286 1.812 3.572.597 1.868-.14 3.894-.06 5.854.14 3.541 2.917 6.674 2.584 10.206-.115 1.24-.613 2.505-.244 3.69.166.45.38.882.637 1.285a11.306 11.306 0 0 1 1.1 7.951h-.736c-.414 0-2.49-11.85-2.63-12.62l-5.093-24.566c-.746-3.6-1.498-7.204-2.255-10.814z" opacity=".46"/><path fill="#FFF" fill-rule="nonzero" d="M366.747 106.608a12.95 12.95 0 0 1 .102 4.521c-.41 2.15-.41 3.871-2.063 3.871-1.652 0-1.652-3.01-1.652-3.01a1.413 1.413 0 0 1-.826.428c-.41 0-.41-3.871 0-4.3.41-.427 1.596-2.032 1.419-2.112-.178-.079 3.02.602 3.02.602Z"/><path fill="#2B0FD3" fill-rule="nonzero" d="M362.005 110a4.225 4.225 0 0 1 .3-1.787c.425-.452 1.63-2.123 1.45-2.206-.182-.083 3.105.607 3.105.607s.073.325.14.843a.794.794 0 0 1-.388.078 3.697 3.697 0 0 1-.414-.089 2.85 2.85 0 0 0-.611-.044 1.318 1.318 0 0 0-.549.077c-.118.063-.23.137-.336.221a1.933 1.933 0 0 1-.626.292 3.16 3.16 0 0 0-.461.122c-.787.347-.911 1.505-1.61 1.886Z" opacity=".46"/><path fill="#4A23E8" fill-rule="nonzero" d="M360.704 92.438s-2.074.51-2.074 1.022v4.087c0 .511 1.037 3.066 1.037 4.088 0 1.022-3.63 1.022-3.63 1.022-1.037-4.599-7.26-16.861-7.26-24.015V53.095L348 37s14 8.175 14 8.686c0 .511 4.667 14.818 4.667 19.927 0 5.11.518 15.329 1.555 20.949 1.037 5.62 1.037 11.752 0 13.796-1.037 2.043-1.037 6.642-1.037 6.642l-4.666-1.022-6.223-45.985"/><path fill="#2B0FD3" fill-rule="nonzero" d="M361.01 92.999c.918-.047 1.975-1.423 1.99-2.643 0-1.097-.68-1.686-.887-3.512-.19-1.666.872-1.867.738-3.388-.15-1.655-1.274-1.769-1.392-3.383-.103-1.463.788-1.898.742-3.388-.041-1.179-.613-1.24-1.263-2.88-.856-2.157-.763-4.231-.65-6.771.052-1.169.124-1.112.119-1.635 0-3.537-2.933-7.665-4.526-7.386-3.273.58-2.005 19.847 1.732 30 .624 1.665 1.907 5.058 3.397 4.986Z" opacity=".46"/><path fill="#4A23E8" fill-rule="nonzero" d="M334.538 37s1.039 23.226 0 28.903c-1.038 5.678-6.23 33.549-6.75 34.065-.519.516-2.596 1.032-2.596 1.032s.52-5.161 0-5.677c-.519-.517-3.115-3.097-3.115-3.613s1.038-12.387 1.038-12.387L320 42.677s6.75-4.129 14.538-5.677Z"/><path fill="#3817C6" fill-rule="nonzero" d="M331.237 84h-.047a.237.237 0 0 1-.15-.11.27.27 0 0 1-.035-.19c0-.118 2.121-11.555 3.056-17.592.935-6.037.176-23.665.166-23.838-.005-.141.096-.262.228-.27a.228.228 0 0 1 .17.068c.047.045.074.11.077.177 0 .178.773 17.872-.171 23.944-.945 6.073-3.042 17.495-3.061 17.607a.247.247 0 0 1-.233.204Z"/><path fill="#2B0FD3" fill-rule="nonzero" d="M322.842 79.188 322 68.938c.113-.09.22-.175.339-.26 1.156-.832 2.455-1.439 3.683-2.156a22.399 22.399 0 0 0 2.425-1.64c.616-.48 1.243-1.17 2.085-.754.981.485 1.14 2.8 1.403 3.739.053.142.074.296.061.448-.051.353-.406.527-.668.786-.755.68-.786 1.845-.816 2.868-.031 1.023-.221 2.22-1.1 2.716-.38.21-.837.253-1.222.47-.509.332-.868.86-.997 1.465-.164.59-.205 1.208-.354 1.803-.055.29-.175.562-.35.797a1.803 1.803 0 0 1-1.063.564c-.863.18-1.808.042-2.65.216.03-.506.066-.812.066-.812Z" opacity=".46"/><path fill="#FFF" fill-rule="nonzero" d="M334.5 56s-3.5 1.5-4 3a7.885 7.885 0 0 0-.5 2l5-3-.5-2Z"/><path fill="#FCCDD3" fill-rule="nonzero" d="m339.376 50.818-5.11-.81a.72.72 0 0 0-.546.14.76.76 0 0 0-.291.495l-1.429 9.3L337.14 61l2.827-9.204a.78.78 0 0 0-.079-.628.74.74 0 0 0-.512-.35Z"/><path fill="#2B0FD3" fill-rule="nonzero" d="M337.367 56c-.4 0-.791.141-1.136.409-.15.145-.314.265-.486.357-.403.169-.83-.098-1.252-.143-.585.005-1.153.255-1.626.714-.261.184-.49.438-.675.746a1.516 1.516 0 0 0-.146 1.117c.203.464.57.755.971.772 1.118.116 2.24-.129 3.272-.714.534-.26 1.34-.649 1.607-1.382.218-.643.116-1.876-.53-1.876Z" opacity=".46"/><path fill="#FFF" fill-rule="nonzero" d="M329.24 61.629s.809-2.222 1.213-2.683c.405-.46.81-1.782 1.614-1.782a22.182 22.182 0 0 0 4.847-.895c1.215-.45 2.424-.45 2 .895-.426 1.344-2.824 1.338-2.824 1.338s1.999-.444 1.999.444a3.091 3.091 0 0 1-.87 1.822c-.73.889-1.544 1.855-2.583 2.277-.5.2-1 .256-1.5.439a5.46 5.46 0 0 0-1.453.933A20.747 20.747 0 0 1 329.999 66L328 64.89l1.24-3.261Z"/><path fill="#2B0FD3" fill-rule="nonzero" d="M328 65.547c.814-1.223 2.239-2.048 3.855-2.232a2.72 2.72 0 0 0 1.404-.339c.158-.14.29-.301.39-.477.386-.534.948-1.078 1.653-1.078.16.02.324.02.484 0 .309-.076.457-.362.628-.591.362-.465.942-.769 1.586-.83-.114.58-.45 1.111-.953 1.507-.804.763-1.701 1.593-2.847 1.956-.55.171-1.1.219-1.652.376a6.424 6.424 0 0 0-1.602.802c-.59.482-1.209.936-1.856 1.359l-1.09-.453Z" opacity=".46"/><path fill="#4A23E8" fill-rule="nonzero" d="M331 67.385s-3.104-1.04-3.104-2.08c0-1.038-1.034-2.597-1.034-2.597l-1.552 1.039s1.552-2.598 1.552-3.638V58.55c0-1.039.517-3.637 0-4.157-.518-.52-.518-2.598-.518-3.118S320.137 44 320.137 44c-1.283 7.972-2.84 15.969-3.678 24.003a83.072 83.072 0 0 0-.45 8.314c0 1.04-.166 1.804.941 2.199.706.166 1.427.26 2.152.28 3.621.52 5.69 0 7.242-1.04a6.407 6.407 0 0 0 2.587-5.196c0-2.058 0-4.136 2.069-5.175Z"/><path fill="#2B0FD3" fill-rule="nonzero" d="m336.739 30 8.953.5.308 1.63c-1.104 1.72-3.126 2.805-5.344 2.87-1.812-.033-3.515-.777-4.656-2.035l.739-2.965Z" opacity=".46"/><path fill="#FCCDD3" fill-rule="nonzero" d="M344 17.981s-10-3.004-10 1.502c0 4.507.556 11.517.556 11.517l6.666-5.508L344 17.981Z"/><circle cx="348" cy="26" r="2" fill="#FFF" fill-rule="nonzero"/><circle cx="348" cy="26" r="2" fill="#2B0FD3" fill-rule="nonzero" opacity=".46"/><ellipse cx="342" cy="27.5" fill="#FFF" fill-rule="nonzero" rx="6" ry="7.5"/><circle cx="335" cy="26" r="2" fill="#FFF" fill-rule="nonzero"/><path fill="#2B0FD3" fill-rule="nonzero" d="M360.67 92.423c-.332.09-.66.197-.982.322L357 62l4 33-.33-2.577Z" opacity=".19"/><path fill="#3817C6" fill-rule="nonzero" d="M326.803 65c-.119 0-.237-.016-.351-.048-.586-.192-1.01-.657-1.106-1.213a2.873 2.873 0 0 1 .14-1.468c.13-.416.293-.844.451-1.25.439-1.135.848-2.206.585-3.294a6.159 6.159 0 0 0-.35-1.018 3.527 3.527 0 0 1-.404-1.99c.044-.22.108-.438.193-.649.04-.1.076-.195.105-.295.358-1.185-.014-2.452-.977-3.32a.248.248 0 0 1-.08-.255.28.28 0 0 1 .205-.19.316.316 0 0 1 .284.065c1.115 1.007 1.548 2.474 1.135 3.847-.035.106-.076.211-.117.317a3.78 3.78 0 0 0-.175.56c-.038.594.09 1.187.374 1.725.16.358.287.727.38 1.103.27 1.225-.193 2.417-.637 3.568-.152.401-.316.813-.439 1.219a2.543 2.543 0 0 0-.129 1.224c.062.363.328.67.702.813a.78.78 0 0 0 .585-.074.482.482 0 0 0 .24-.295c.03-.143.18-.24.34-.217.158.027.264.163.24.306a.991.991 0 0 1-.515.655 1.412 1.412 0 0 1-.679.174Z"/><path fill="#2B0FD3" fill-rule="nonzero" d="M346.398 24.995c-3.148.099-6.07-1.223-8.303-3.2-.296-.27-.732-.614-1.095-.982 1.116-1.312 2.913-.642 4.934-.642 3.072 0 5.59-1.147 6.066 4.659-.529.092-1.064.148-1.602.165Z" opacity=".46"/><path fill="#FCCDD3" fill-rule="nonzero" d="M355 18.168c-.064.17-6.194-3.491-6.688-3.788A8.12 8.12 0 0 0 344.24 13c-1.5.062-2.944.63-4.125 1.624-.85.697-1.636 1.48-2.345 2.34-.43.503-.935.817-.718 1.443.258.71 1.128 1.475 1.623 1.99 2.157 2.222 4.982 3.713 8.024 3.597 3.575-.09 6.793-2.349 8.301-5.826Z"/><path fill="#2B0FD3" fill-rule="nonzero" d="M338.974 20.678c.765-.036 1.5.162 2.289.108 1.269-.094 2.428-.899 3.692-.773.622.086 1.22.277 1.764.562 1.659.755 3.447 1.492 5.281 1.389-1.653 1.275-3.748 1.994-5.926 2.031-3.058.094-5.9-1.155-8.074-3.024.286-.181.625-.283.974-.293Z" opacity=".46"/><path fill="#F9879A" fill-rule="nonzero" d="M366.85 71c.184 4.523.542 9.917 1.15 14-2.214-.069-4-3.25-4-7.162 0-3.212 1.2-5.93 2.85-6.838zm-50.839 4.396c0-1.8.073-3.6.22-5.396a9.503 9.503 0 0 1 3.893 2.089c1.994 1.75 3.016 4.005 2.86 5.87a17.52 17.52 0 0 1-3.775-.151c-.75-.02-1.495-.11-2.224-.273-1.145-.384-.98-1.108-.974-2.14z"/><path fill="#3817C6" fill-rule="nonzero" d="M337.715 22a.242.242 0 0 1-.158-.06c-1.054-.933-1.919-2.122-2.535-3.485-.057-.159.001-.342.133-.42.133-.077.294-.023.37.124a10.054 10.054 0 0 0 2.354 3.242c.062.05.104.128.117.214a.371.371 0 0 1-.049.247.262.262 0 0 1-.232.138zm10.01 17c-.147 0-.266-.15-.266-.333v-2.576c-.239.266-.567.62-.965 1.005a11.737 11.737 0 0 1-2.122 1.551c-.133.071-.287-.002-.35-.166a.412.412 0 0 1-.004-.256.31.31 0 0 1 .142-.184 11.67 11.67 0 0 0 2.02-1.477c.478-.457.933-.948 1.364-1.471.078-.093.191-.118.29-.067.099.052.164.172.166.306v3.328c0 .092-.03.179-.081.243a.244.244 0 0 1-.195.097zm-12.94 134.18h-3.57c-.119 0-.215-.08-.215-.18 0-.1.096-.18.215-.18h3.57c.119 0 .215.08.215.18-.002.098-.097.177-.215.18z"/><path fill="#4A23E8" fill-rule="nonzero" d="m294 169.667-1.059 10.133L276 183l11.118-6.4 2.647-9.6zM305 168v10.133L319 184l-8.296-8-.519-8z"/><path fill="#F9879A" fill-rule="nonzero" d="m294 170.352-4.769-.352-1.891 7.07-2.913 1.726L284 180l6.166-2.131h3.068zM305 175.533l3.355 1.313L313 179l-.815-1.486-1.508-1.475-.516-8.039-5.161 2.073zM311.278 104s1.05-1.034 1.575-4.137c.525-3.103-.525-25.34-.525-25.34s-.525-3.62-1.05-5.69c-.526-2.068-3.676-10.342-3.676-10.342s-1.05-2.586-5.252-3.103c-4.2-.517-9.977-.517-12.603 0-2.625.517-6.301.517-9.977 5.171-3.676 4.655-13.653 19.135-13.653 19.135s-1.05 1.034 3.15 3.62c4.201 2.586 16.28 10.86 16.28 10.86l1.575-4.654-11.028-10.86 7.352-7.24s3.15-3.103 3.15-5.172c0-2.069 3.151 1.551 3.151 1.551l15.754 8.275 2.1 23.789 3.677 4.137Z"/><path fill="#2B0FD3" fill-rule="nonzero" d="M286 88.636 279 82v.235a3.946 3.946 0 0 0 1.346 2.552c.366.291.797.51 1.152.802.824.694 1.126 1.771 1.616 2.71.555.983 1.245 1.89 2.051 2.701l.835-2.364zm22.953-8.711c-.424-2.207-1.783-4.265-1.604-6.502.138-1.73 1.185-3.496.51-5.12-.214-.511-.582-.931-.75-1.453-.256-.789 0-1.644-.041-2.473-.077-1.756-1.426-3.159-2.687-4.377L302 63.466c1.635 2.693 1.446 6.077 1.119 9.215l-.169 1.536 2.1 1.12L306.582 93c.159-.072.312-.154.46-.246a7.762 7.762 0 0 0 2.514-3c.284-.446.438-.964.444-1.495a4.2 4.2 0 0 0-.363-1.162c-.858-2.247-.224-4.802-.684-7.172z" opacity=".46"/><path fill="#FCCDD3" fill-rule="nonzero" d="m298.1 80.73-9.286 2.063s-2.063 1.032-3.61 6.188c-1.549 5.157-5.676 17.016-5.16 27.33.516 10.312 4.127 55.689 4.127 55.689l10.834-.516s1.29-48.728 1.29-51.822c0-3.094 1.031-18.048 1.031-18.048s2.58 8.766 2.064 13.407.516 25.267 1.031 30.423c.516 5.157 2.58 25.267 2.58 25.267l8.77-.516s.516-54.142 0-60.33c-.516-6.188-5.159-26.814-6.19-28.876-1.033-2.063-7.481-.258-7.481-.258Z"/><path fill="#FFF" fill-rule="nonzero" d="M285.125 56.092s2.083 7.129 1.823 8.792a8.814 8.814 0 0 1-1.167 3.06L282 72.306s3.427 10.926 6.922 10.69c3.495-.235 15.995-1.799 15.995-1.799l1.317-1.229s.766-7.662.766-11.846c0-4.185-1.688-12.668-1.688-12.668S303.354 54 302.834 54a1.815 1.815 0 0 0-1.041.523l.328 2.83a6.012 6.012 0 0 1-1.28 4.447 5.962 5.962 0 0 1-4.054 2.205 5.96 5.96 0 0 1-6.046-3.53c-1.172-2.657-2.605-5.654-3.125-5.58-.886.19-1.757.447-2.605.768l.115.43Z"/><path fill="#4A23E8" fill-rule="nonzero" d="M286.026 36.329c-3.402 1.377-3.935 6.597-3.985 7.193-.359 4.018 1.674 5.384 4.483 13.358 1.763 5.015 2.645 7.522 2.49 9.762-.283 4.007-2.206 6.622-.996 10.79.125.436.752 2.568 1.495 2.568.926-.036 1.46-3.463 2.49-10.276.752-4.999.737-6.298.498-7.706-.578-3.38-2.814-4.044-2.49-6.165.343-2.282 2.704-2.266 4.483-5.138 1.564-2.533 2.191-6.525.498-9.762-1.694-3.237-5.798-5.908-8.966-4.624Z"/><path fill="#2B0FD3" fill-rule="nonzero" d="m287.652 46.078-.599 2.033a.742.742 0 0 0-.037.429c.057.122.131.237.22.341.115.267.186.55.208.838a2.436 2.436 0 0 0 1.603 1.552c.302.077.583.216.823.409.164.216.312.442.444.678.338.392.835.624 1.363.636a3.246 3.246 0 0 0 2.838-1.33c.61-.917.647-2.085.096-3.036a4.897 4.897 0 0 0-1.961-1.635 16.263 16.263 0 0 0-2.267-.993" opacity=".46"/><path fill="#F9879A" fill-rule="nonzero" d="m297 54.937-.353-4.408-4.106-.529-.541 5a42.787 42.787 0 0 1 5-.063Z"/><path fill="#2B0FD3" fill-rule="nonzero" d="M292 53.904A4.832 4.832 0 0 0 295.012 55a4.692 4.692 0 0 0 1.988-.45l-.35-4.095-3.238-.39-.96-.065-.452 3.904Z" opacity=".46"/><path fill="#F9879A" fill-rule="nonzero" d="M289 46.265c0 4.268 2.573 7.735 5.74 7.735 3.165 0 5.26-5.063 5.26-9.336 0-9.335-2.09-6.134-5.26-6.134-3.172 0-5.74-2.134-5.74 7.735Z"/><circle cx="289" cy="46" r="2" fill="#F9879A" fill-rule="nonzero"/><path fill="#F2B6C1" fill-rule="nonzero" d="M284 168h11v4h-11zM302.314 167.413l10.298-.647.26 4.118-10.298.647z"/><path fill="#4A23E8" fill-rule="nonzero" d="M287.167 47.998c.04-.047-1.203-.866-1.024-1.546.297-1.16 4.222-.113 8.189-1.546 3.07-1.118 6.935-4.009 6.653-6.699-.327-3.06-5.404-5.616-9.724-5.152-5.118.546-9.79 5.359-9.212 9.275.506 3.452 5.04 5.75 5.118 5.668Z"/><path fill="#2B0FD3" fill-rule="nonzero" d="M295.791 80.927c-1.49-.154-3.052.259-4.479-.22-.538-.176-1.023-.473-1.561-.622a6.638 6.638 0 0 1-1.68-.44 4.112 4.112 0 0 1-1.249-1.585A6.787 6.787 0 0 0 283 75c1.335 3.379 3.65 8.156 5.992 7.996 1.868-.126 6.234-.627 10.008-1.1a11.074 11.074 0 0 0-3.209-.97zm-12.81-10.029S285.715 68.072 286 66a5.892 5.892 0 0 0-2.226 1.821c-.757 1.047-1.195 2.313-2.094 3.218-.397.398-.864.707-1.296 1.047A7.437 7.437 0 0 0 278 76l4.98-5.102z" opacity=".46"/><path fill="#2B0FD3" fill-rule="nonzero" d="M283.96 71.72c.085-.323.137-.656.156-.992.097-.69.378-1.331.808-1.84.274-.27.521-.57.737-.899.138-.283.226-.593.259-.912.05-.357.078-.716.08-1.077a9.037 9.037 0 0 1-.759 1.81L282 71.949s.116.407.321 1.052c.692-.223 1.393-.56 1.639-1.28zm12.248 30.017c-.214 1.188-.141 2.428-.248 3.642-.313 3.424-2.092 6.611-1.809 10.04.189 2.248 1.247 4.267 1.534 6.498.373 2.95-.634 5.858-1.178 8.781-1.205 6.436-.129 13.042 1.821 19.302.292-13.584.613-28.966.613-30.66 0-3.099.858-18.078.858-18.078s.077.32.201.868V99c-.977.346-1.573 1.544-1.792 2.737z" opacity=".46"/><path fill="#6534FF" fill-rule="nonzero" d="M296.222 65c-.123 0-.222-.15-.222-.333 0-.184.1-.333.222-.333 2.068 0 3.355-3.139 3.368-3.172.03-.076.078-.13.135-.152.057-.022.117-.008.167.038s.087.12.102.207a.48.48 0 0 1-.027.253c-.057.14-1.429 3.492-3.745 3.492zm-11.896 27.999h-.098a.316.316 0 0 1-.193-.12.184.184 0 0 1-.017-.187l2.31-5.51c.055-.135.246-.212.428-.171.181.04.284.182.23.316l-2.318 5.511c-.05.106-.191.172-.342.16z"/><path fill="#F9879A" fill-rule="nonzero" d="M229.508 50s-9.38 7.395-9.933 12.333c-.554 4.939-2.392 24.924 5.693 22.457C233.354 82.323 240 74.646 240 74.646L229.508 50Z"/><path fill="#2B0FD3" fill-rule="nonzero" d="M230.905 62.693 228.11 61l-2.955 4.461c-.786 1.189-1.594 2.465-1.594 3.875 0 1.07.457 2.115.404 3.185-.059 1.163-.723 2.238-.771 3.4-.048 1.071.372 2.337-.404 3.088a2.652 2.652 0 0 0-.505.515c-.35.607.394 1.291.399 1.991.005.7-.856 1.245-1.621 1.44-.346.088-.712.165-1.063.279.978 1.461 2.38 2.156 4.363 1.543 5.15-1.543 9.72-5.063 12.452-7.528.49-3.21 0-6.49-1.408-9.436a12.003 12.003 0 0 0-4.502-5.12Z" opacity=".46"/><path fill="#52D2BC" fill-rule="nonzero" d="m245.732 84-15.898 3.729L226 176.223l3.238 1.777 16.494-76.363s2.95-2.066 3.244 0c.293 2.066 7.658 74.586 7.658 74.586h2.653S264 127.981 264 122.652c0-5.33-3.762-38.358-3.762-38.358L245.732 84Z"/><path fill="#889BE5" fill-rule="nonzero" d="M234 91.236c-.511-1.119-1.32-2.45-1.68-2.527-.575-.114-2.98-1.709-2.98-1.709L228 89.724s1.948 3.33 3.005 5.276c.587-1.567 1.639-2.889 2.995-3.764Z"/><path fill="#2B0FD3" fill-rule="nonzero" d="M232 92.919c-.533-.119-1.17 0-1.472-.473a5.618 5.618 0 0 0-.28-.55c-.243-.292-.713-.23-1.006-.472a1.859 1.859 0 0 1-.398-.63c-.18-.329-.44-.603-.754-.794l-.09.18s1.806 3.041 2.786 4.82A6.6 6.6 0 0 1 232 92.919Z" opacity=".46"/><path fill="#889BE5" fill-rule="nonzero" d="M256 91.528c.442-1.138 1.173-2.518 1.536-2.615.577-.16 2.918-1.913 2.918-1.913L262 89.564s-1.745 3.43-2.7 5.436a7.585 7.585 0 0 0-3.3-3.472Z"/><path fill="#2B0FD3" fill-rule="nonzero" d="M259 89.353a6.647 6.647 0 0 1-.337-1.353c-.603.385-1.249.716-1.927.988-.41.093-1.236 1.422-1.736 2.518.302.151.594.316.876.494l1.012-.622a.85.85 0 0 0 .455-.494 2.189 2.189 0 0 0-.085-.563c-.056-.815 1.102-.894 1.742-.968Z" opacity=".46"/><path fill="#889BE5" fill-rule="nonzero" d="M241 33h10v13h-10z"/><path fill="#FCCDD3" fill-rule="nonzero" d="M250.803 40s-1.904 2.464-4.625 2.464c-2.72 0-4.895-2.464-4.895-2.464l-6.053 3.233-.796.421-6.478 3.46s-.27 1.093-1.904 7.108c-2.552 9.459.337 36.44.358 36.778.035-.046-.046.041 1.02-1.026 1.067-1.068 4.084-1.289 4.084-1.289a50.77 50.77 0 0 0 14.123 1.099c6.508-.406 9.739-1.992 13.363-3.408-2.016-14.37 1.531-29.126-2.225-43.502A22.405 22.405 0 0 1 250.803 40Z"/><path fill="#F9879A" fill-rule="nonzero" d="M232.171 62S234 54.228 234 52.08V44l-4 1.871a28.896 28.896 0 0 1 1.577 5.137s.572 2.696.606 10.992h-.012Z"/><path fill="#6534FF" fill-rule="nonzero" d="M231.24 88a.244.244 0 0 1-.174-.085.274.274 0 0 1-.066-.19l.5-17.47a.277.277 0 0 1 .255-.255c.066.001.13.03.175.081.046.05.071.119.07.189l-.5 17.47a.262.262 0 0 1-.26.26Z"/><path fill="#2B0FD3" fill-rule="nonzero" d="m251 36.213-.168.987s-2.892 3.234-6.36 1.033C241.006 36.033 241 33 241 33l10 3.213Z" opacity=".46"/><path fill="#F9879A" fill-rule="nonzero" d="M245 31.249s-9.244 3.101-9.923 1.05c-1.044-3.15 8.878-6.299 8.878-6.299L245 31.249Z"/><path fill="#2B0FD3" fill-rule="nonzero" d="M237.854 30.204c.28-.315.706-.482 1.142-.446.434 0 .863.097 1.293.068a3.463 3.463 0 0 0 1.307-.402 2.9 2.9 0 0 0 1.153-.883 1.2 1.2 0 0 0 .093-1.328.876.876 0 0 0-.196-.213c-2.414.829-7.6 2.85-7.646 4.959l.14.029a.654.654 0 0 0 .703-.325c.051-.126.036-.266.082-.392.109-.296.486-.408.812-.451.334.006.658-.105.91-.31.057-.093.108-.204.207-.306Z" opacity=".46"/><path fill="#889BE5" fill-rule="nonzero" d="M248.137 20c-3.513 0-6.416 3.127-6.939 7.212a1.885 1.885 0 0 0-1.195 1.855c-.05.88.54 1.67 1.402 1.875.87 3.503 3.555 6.058 6.727 6.058 3.886 0 5.868-3.766 5.868-8.464S252.023 20 248.137 20Z"/><path fill="#2B0FD3" fill-rule="nonzero" d="M241.16 27.528c-.734.311-1.2 1.09-1.157 1.935 0 .181.022.362.065.537.435-.443.758-.998.936-1.612.063-.498.244-.97.526-1.37.536-.538 1.412-.323 2.143-.49.827-.193 1.443-.902 2.059-1.52.616-.618 1.407-1.204 2.238-1.048.686.13 1.302.747 2.003.58.43-.17.793-.495 1.027-.918a7.52 7.52 0 0 0-1.998-3.482 4.744 4.744 0 0 0-1.127-.14c-3.4.01-6.21 3.272-6.716 7.528zM249 102v.041c.205 1.454 3.912 37.676 6.086 58.959.96-8.394 1.508-16.244 1.595-17.492.42-6.005.656-13.028-.82-21.632-1.405-8.281-4.513-18.669-6.861-19.876z" opacity=".46"/><path fill="#FCCDD3" fill-rule="nonzero" d="M251 40a37.795 37.795 0 0 0 4.023 1.621 11.487 11.487 0 0 1 3.61 2.012c1.21 1.082 2.448 2.144 3.674 3.206 1.227 1.063 1.125 2.407 1.522 3.756.435 1.84.706 3.714.809 5.598a80.8 80.8 0 0 1 .267 11.555c-.337 7.696-1.532 15.3-2.731 22.894a.433.433 0 0 1-.15.318c-.156.098-.36 0-.51-.118l-2.806-2.016a2.106 2.106 0 0 1-.562-.513 1.613 1.613 0 0 1-.21-1.027c.536-6.157.086-12.35.568-18.502.283-3.45.254-6.918-.085-10.364 0 .108.225.056.23-.051.005-.108-.086-.2-.177-.272"/><path fill="#2B0FD3" fill-rule="nonzero" d="M259.87 64.188c-.29-1.945 1.049-1.52.175-3.378a5.936 5.936 0 0 0-1.637-1.81c.31 3.185.31 6.384 0 9.569-.453 4.795-.233 9.62-.408 14.431.264-.359.481-.738.647-1.133.473-1.164-.064-1.934.337-3.383.252-.9.692-1.722 1.016-2.586 1.061-2.86 1.424-7.298.362-10.2a7.816 7.816 0 0 1-.492-1.51Z" opacity=".46"/><path fill="#52D2BC" fill-rule="nonzero" d="M252.949 25.5s1.033-5.5-6.2-5.5c-7.232 0-7.749 8-7.749 8s5.166-3 13.949-2.5Z"/><path fill="#FFF" fill-rule="nonzero" d="M251 23.7s-.064-1.763-2.32-1.695a1.578 1.578 0 0 0-1.349.579A1.49 1.49 0 0 0 247.08 24l3.92-.3Z"/><path fill="#2B0FD3" fill-rule="nonzero" d="M251 23.7s-.064-1.763-2.32-1.695a1.578 1.578 0 0 0-1.349.579A1.49 1.49 0 0 0 247.08 24l3.92-.3Z" opacity=".46"/><path fill="#6534FF" fill-rule="nonzero" d="M229.252 97a.252.252 0 0 1-.105-.027c-.126-.062-.181-.223-.125-.36.969-2.332 2.575-4.28 4.6-5.575a.243.243 0 0 1 .344.093.293.293 0 0 1-.09.376c-1.936 1.237-3.473 3.1-4.4 5.33a.246.246 0 0 1-.224.163zm30.499-2a.255.255 0 0 1-.225-.124c-1.012-1.862-3.005-3.15-5.309-3.434-.136-.016-.233-.128-.215-.25.02-.121.147-.206.285-.19 2.466.31 4.598 1.689 5.689 3.678.058.11.007.242-.115.298a.326.326 0 0 1-.11.022z"/><path fill="#52D2BC" fill-rule="nonzero" d="M225.282 163a.32.32 0 0 1-.206-.087.238.238 0 0 1-.075-.187l2.399-44.48a.224.224 0 0 1 .09-.185.306.306 0 0 1 .222-.059c.08.003.154.033.208.083.054.05.083.117.08.186l-2.4 44.48c-.01.144-.15.255-.318.249Z"/><path fill="#2B0FD3" fill-rule="nonzero" d="M246.174 88.554c-1.32 0-2.7.217-3.913-.356-1.535-.718-2.425-2.577-3.954-3.3-1.269-.602-2.9-.401-3.857-1.486-.68-.78-.782-2.01-1.468-2.783A2.265 2.265 0 0 0 232 80v8.437c.082.111.164.223.24.34a47.283 47.283 0 0 0 13.913 1.112 34.664 34.664 0 0 0 3.847-.461 9.74 9.74 0 0 0-3.826-.874Z" opacity=".46"/><path fill="#F9879A" fill-rule="nonzero" d="m224.02 180.341.805-2.957a.523.523 0 0 1 .633-.369l12.078 2.958c.289.034.495.29.46.573a.524.524 0 0 1-.585.45h-12.883a.526.526 0 0 1-.422-.202.503.503 0 0 1-.085-.453zm31.988-1.945.438-2.396h2.742l8.361 1.904a.553.553 0 0 1-.123 1.096h-10.908a.516.516 0 0 1-.51-.604z"/><path fill="#6534FF" fill-rule="nonzero" d="M248.56 53h-.044a.315.315 0 0 1-.204-.102.248.248 0 0 1-.062-.2c.62-4.294-1.24-10.282-1.24-10.342-.044-.152.059-.307.23-.347.17-.04.346.052.39.204.074.247 1.86 6.147 1.24 10.55-.022.137-.155.238-.31.237Z"/><path fill="#2B0FD3" fill-rule="nonzero" d="M335 29a1 1 0 1 1 0-2 1 1 0 0 1 0 2Zm0-1.45a.45.45 0 1 0-.01.9.45.45 0 0 0 .01-.9Z"/><path fill="#4A23E8" fill-rule="nonzero" d="m332 38.142 1.484-3.615L336 33l-.649 7zM348 33l.667 9L352 39.502l-.889-3.793z"/><path fill="#F9879A" fill-rule="nonzero" d="M408.72 44.159c-2.448-4.15-8.305-10.275-14.21-7.431-5.476 2.641-7.435 11.276-6.112 17.34a15.765 15.765 0 0 0 4.06 7.426c3.803 4.267 11.583 9.026 16.237 4.958 4.773-4.155 4.017-15.522.026-22.293Z"/><path fill="#2B0FD3" fill-rule="nonzero" d="M391.404 55.365c.263.47.664.854.943 1.314.97 1.592.332 3.7 1.102 5.393.599 1.177 1.682 2.061 2.989 2.441 1.292.373 2.642.534 3.99.475 2.367 0 5.013-.343 6.49-2.118a2.463 2.463 0 0 0 .643-1.804c-.048-.369-.217-.718-.259-1.087-.11-.925.559-1.743 1.08-2.527.523-.783.918-1.86.312-2.593-.406-.505-1.133-.637-1.582-1.107-.885-.96-.063-2.593-.743-3.694a3.184 3.184 0 0 0-.775-.784l-2.13-1.738a6.012 6.012 0 0 0-2.635-1.451c-1.676-.298-3.41.303-5.14.07-1.207-.166-2.108-.191-2.91.82-1.307 1.678-2.398 6.575-1.375 8.39Z" opacity=".46"/><path fill="#4A23E8" fill-rule="nonzero" d="M381 123v23.638L384.474 175h4.046s.582-18.908 0-21.862c-.581-2.953 3.48-28.93 3.48-28.93L381 123zm16.74 0-1.74 1.776s2.898 25.998 3.475 28.362c.576 2.365 4.47 21.862 4.47 21.862h4.047s.167-17.137-1.012-22.455c-1.178-5.319.577-25.41.577-25.41L397.74 123z"/><path fill="#62BCF9" fill-rule="nonzero" d="M381.694 158a.29.29 0 0 1-.293-.254L380 146.878v-8.622a.3.3 0 0 1 .3-.256.3.3 0 0 1 .301.256v8.57l1.397 10.834a.278.278 0 0 1-.061.214.295.295 0 0 1-.2.106l-.043.02zm14.685-33a.38.38 0 0 1-.261-.652l2.243-2.239a.375.375 0 0 1 .626.168.373.373 0 0 1-.097.361l-2.243 2.238a.38.38 0 0 1-.268.124zm11.312 27.985a.304.304 0 0 1-.302-.216 19.434 19.434 0 0 1-.389-3.52c.02-.143.153-.249.31-.249.158 0 .29.106.311.248a18.42 18.42 0 0 0 .373 3.417c.033.152-.072.3-.238.335l-.065-.015z"/><path fill="#2B0FD3" fill-rule="nonzero" d="M381 123v4.3c.207 1.14.288 2.403 1.163 3.094.607.515 1.452.562 2.11.99 1.142.742 1.405 2.315 1.44 3.697.036 1.382 0 2.892.82 3.985.723.965 1.942 1.351 2.999 1.908l.045.026c1.037-7.935 2.423-16.793 2.423-16.793L381 123zm19.568 1.624a24.87 24.87 0 0 0-3.724-.624l-.844.847.324 1.129a6.342 6.342 0 0 1 4.347 4.273 8.51 8.51 0 0 0 .613 1.951c.388.679 1.055 1.14 1.585 1.709 1.992 2.134 1.913 5.56 3.267 8.091.187-6.224.746-13.053.864-14.425a12.12 12.12 0 0 0-.981-.653l-5.451-2.298z" opacity=".46"/><path fill="#4A23E8" fill-rule="nonzero" d="M382.078 70s-1.451 10.717-1.245 14.427c.206 3.711-.347 12.247-.347 12.247s-1.145 6.98.08 10.628c1.226 3.649 4.125.281 4.125.281L391 82.757 382.078 70Z"/><path fill="#2B0FD3" fill-rule="nonzero" d="M381 76.985c.466-.118.905.362.959.83-.003.478-.087.951-.25 1.401-.2.85-.124 1.74.218 2.546.158.302.273.625.34.958.066.666-.416 1.247-.633 1.88a4.91 4.91 0 0 0-.184 1.689l.048 9.394c-.014.199.02.398.098.58.113.175.27.318.455.416L384.072 98c2.168-3.914 4.552-8.276 5.418-12.649.4-2.337.566-4.708.494-7.078 0-1.315-.13-2.79-1.15-3.642-1.018-.853-2.47-.725-3.694-.299-1.225.426-2.341 1.124-3.604 1.401" opacity=".46"/><path fill="#FCCDD3" fill-rule="nonzero" d="M397.113 56.065s-4.252-.703-10.226 2.527c-5.745 3.102-9.923 20.16-9.923 20.16h7.834A171.453 171.453 0 0 1 375 124.467c.71 1.132 1.849 2.502 3.53 2.874 2.163.475 3.275-1.143 5.745-1.034 2.57.114 2.711 1.933 5.745 3.101 3.808 1.463 4.852-.915 10.446 0 3.734.61 4.261 1.83 7.311 1.551a41.858 41.858 0 0 0 5.223-1.034l-1.045-5.169s-5.139-21.193-5.222-27.396c-.094-6.502-.794-8.994-1.045-19.642-.068-2.833 1.374-5.304 1.995-8.653 1.045-5.547 3.421-7.206 5.317-9.956-2.611-3.101-10.508-3.044-10.508-3.044h-5.38Z"/><path fill="#4A23E8" fill-rule="nonzero" d="M387.904 76.816c-1.343-.164-2.6-.558-3.904-.816.246.792.358 1.463.567 2.227h.305l-.134.553c.037.126.08.248.134.384a.546.546 0 0 0-.204-.117L384.492 82c1.07-.295 1.497-.816 2.262-1.519.362-.373.746-.73 1.15-1.069 1.358-1.012 3.315-1.026 5.096-.984-1.674-.033-3.305-1.392-5.096-1.612Z" opacity=".46"/><path fill="#2B0FD3" fill-rule="nonzero" d="m384.978 78.853-.046.204a.36.36 0 0 1 .136.09 3.84 3.84 0 0 1-.09-.294Z" opacity=".46"/><path fill="#4A23E8" fill-rule="nonzero" d="M403.808 80.291c-.186.821-.715 1.54-.81 2.376a4.74 4.74 0 0 0 .247 1.76 722.15 722.15 0 0 1 1.87 6.91c.212.935.55 1.832 1.001 2.663.095-4.935-.758-7.988-.954-17.228-.062-2.812 1.255-5.264 1.822-8.588.095-.555-.272-1.093-.153-1.622-.276-.046-.062-.118-.267-.318-.324-.313-.4-.877-.767-1.128-.63-.437-1.407.446-1.431 1.246-.024.8.315 1.6.195 2.396-.219 1.457-1.816 2.201-2.355 3.56-1.035 2.576 2.203 5.25 1.602 7.973Z" opacity=".46"/><path fill="#2B0FD3" fill-rule="nonzero" d="M377.295 117.994a.23.23 0 0 1-.102 0 .286.286 0 0 1-.174-.373 94.183 94.183 0 0 0 4.73-17.827c.128-.726.245-1.411.368-2.045.123-.634.138-.762.235-1.534.138-1.089.42-3.354 1.3-9.673l.045-.317c.558-4.018.772-5.526.465-7.786a16.562 16.562 0 0 0-.915-3.635 8.04 8.04 0 0 1-.624-3.067c.036-2.858 1.678-5.772 4.879-8.65a.291.291 0 0 1 .414 0 .296.296 0 0 1 0 .413c-3.068 2.766-4.653 5.532-4.684 8.221.004.98.204 1.95.588 2.853.456 1.21.772 2.47.94 3.753.318 2.336.103 3.865-.465 7.944l-.046.317c-.88 6.314-1.16 8.58-1.293 9.663-.103.813-.118.94-.24 1.595-.123.654-.246 1.334-.374 2.045a94.183 94.183 0 0 1-4.755 17.935.286.286 0 0 1-.292.168zm33.38 5.006a.303.303 0 0 1-.298-.23 166.76 166.76 0 0 1-3.73-20.39c-.943-7.907-1.87-17.071-1.599-25.093a.312.312 0 0 1 .32-.287c.08.003.157.037.212.095a.294.294 0 0 1 .08.213c-.266 7.98.656 17.118 1.6 25.004.819 6.84 2.065 13.626 3.73 20.317a.287.287 0 0 1-.034.227.298.298 0 0 1-.19.134l-.09.01z"/><path fill="#F9879A" fill-rule="nonzero" d="m375 179 9-4h4v3.429zM408 175v2.857L397 179l7-4z"/><path fill="#4A23E8" fill-rule="nonzero" d="m414.66 62 7.857 13.271s1.6 4.772-1.026 6.757a39.319 39.319 0 0 0-4.103 3.91 293.595 293.595 0 0 0-5.432 5.655c-1.19 1.265-3.43 3.407-4.457 3.407-1.2 0-1.63-.72-2.826-.7-1.313 0-2.477.573-3.816.4-.826-.106-2.051-.507-1.83-1.568.2-.91 1.43-1.427 2.2-1.752a21.654 21.654 0 0 1 3.708-1.066c.204-.043.404-.1.6-.173a.261.261 0 0 0 .159-.121c.046-.112-.067-.229-.175-.285a2.179 2.179 0 0 0-.902-.167 9.871 9.871 0 0 0-3.273.355c-.338.112-.374-.117-.246-.365a2.001 2.001 0 0 1 1.026-.833c.939-.427 1.99-.802 3.026-.559a5.298 5.298 0 0 1 2.78 2.23c.58-.732 1.226-1.397 1.806-2.128.489-.62.972-1.242 1.451-1.868.98-1.27 1.954-2.539 3.031-3.747.231-.259.472-.508.724-.751 2.83-2.64 1.815-3.737 1.959-4.387.143-.65-5.54-10.184-5.54-10.184L414.66 62Z"/><path fill="#2B0FD3" fill-rule="nonzero" d="M417.34 75.145c-.069-.242.056-.526-.095-.747-.151-.221-.375-.184-.573-.258-.642-.231-.762-1.052-.97-1.715A3.688 3.688 0 0 0 413 70c1.653 2.914 3.724 6.67 3.65 7.08-.135.616.72 1.632-1.376 3.92l1.304-.526c.625-.263 1.33-.605 1.512-1.268.03-.18.081-.357.151-.526.115-.151.265-.271.438-.347.647-.358 1.398-.879 1.315-1.62a32.126 32.126 0 0 1-2.133-1.053.953.953 0 0 1-.522-.515Z" opacity=".46"/><path fill="#FCCDD3" fill-rule="nonzero" d="M401 56s9.105.134 11.5 3.081c2.395 2.948 6.5 9.757 6.5 9.757L410 75l-6.725-8.119L401 56Z"/><path fill="#4A23E8" fill-rule="nonzero" d="M395.667 59.975C398.212 60.367 403 56 403 56h-8.381c-.887.103-1.764.293-2.619.568.063.727.529 2.919 3.667 3.407Z"/><path fill="#4A23E8" fill-rule="nonzero" d="m395 56.937.353-4.408 4.106-.529.541 5a42.787 42.787 0 0 0-5-.063Z"/><path fill="#2B0FD3" fill-rule="nonzero" d="M400 54.904A4.832 4.832 0 0 1 396.988 56a4.692 4.692 0 0 1-1.988-.45l.35-4.095 3.238-.39.96-.065.452 3.904Z" opacity=".46"/><path fill="#4A23E8" fill-rule="nonzero" d="M402 47.265c0 4.268-2.573 7.735-5.74 7.735-3.165 0-5.26-5.063-5.26-9.336 0-9.335 2.09-6.134 5.26-6.134 3.172 0 5.74-2.134 5.74 7.735Z"/><path fill="#F9879A" fill-rule="nonzero" d="M390.669 37.689a2.848 2.848 0 0 0-1.538 1.53c-.466 1.305.374 2.983 1.538 3.569 1.82.918 3.286-1.407 6.664-1.02.702.077 2.445.276 3.588 1.53 2.092 2.29.282 6.032 1.538 6.629.877.418 2.666-1.02 3.588-2.55 1.835-3.105.949-8.036-2.05-10.198-2-1.443-4.378-1.25-7.177-1.02-2.12.174-4.198.691-6.151 1.53Z"/><path fill="#6534FF" fill-rule="nonzero" d="M400.727 44a.269.269 0 0 1-.193-.084c-1.104-1.136-2.784-1.318-3.5-1.396a7.68 7.68 0 0 0-3.914.688c-1.046.408-1.957.762-2.977.27a.24.24 0 0 1-.115-.329.27.27 0 0 1 .35-.108c.811.384 1.533.103 2.543-.285a8.24 8.24 0 0 1 4.186-.723c.711.078 2.616.28 3.83 1.554a.239.239 0 0 1 .04.263.267.267 0 0 1-.234.15h-.016Z"/><path fill="#2B0FD3" fill-rule="nonzero" d="M401.636 49.923c.803.31 2.199-.351 3.364-1.341l-2.422-1.661A15.705 15.705 0 0 0 401.03 46c.144 1.8-.428 3.524.605 3.923Z" opacity=".46"/><circle cx="402" cy="46" r="2" fill="#4A23E8" fill-rule="nonzero"/><path fill="#2B0FD3" fill-rule="nonzero" d="M413 73.005c-.065-.802-.23-1.56-.853-1.839-.32-.14-.684-.1-.999-.228-1.352-.558-.803-3.26-2.08-3.985-.555-.317-1.303-.133-1.767-.602-.34-.34-.42-.952-.804-1.226-.659-.473-1.472.485-1.497 1.355.026.603.094 1.203.205 1.794L410.33 75l2.67-1.995Z" opacity=".46"/><path fill="#2B0FD3" fill-rule="nonzero" d="M395.45 59.999a3.773 3.773 0 0 1-1.261-.183.28.28 0 0 1-.168-.368.302.302 0 0 1 .385-.161s1.882.667 4.55-.988a29.886 29.886 0 0 0 3.315-2.22.291.291 0 0 1 .201-.079c.15 0 3.754-.04 6.345.989a.278.278 0 0 1 .067.487.308.308 0 0 1-.294.037c-2.234-.885-5.378-.944-6.004-.944a35.472 35.472 0 0 1-3.31 2.209 7.23 7.23 0 0 1-3.826 1.22Z"/><path fill="#2B0FD3" fill-rule="nonzero" d="M406.49 93.833a2.501 2.501 0 0 1-.594-.43c-.486-.375-1.082-.496-1.646-.33-.52.153-1.042.552-1.563.398a5.29 5.29 0 0 0-.75-.313 1.248 1.248 0 0 0-.921.46c-.344.332-.677.682-1.016 1.032 1.307.147 2.464-.473 3.755-.497 1.292-.025 1.651.847 2.87.847.506-.096.981-.35 1.375-.737a1.112 1.112 0 0 0-.365-.319c-.349-.172-.77.03-1.145-.11Z" opacity=".46"/><path fill="#4A23E8" fill-rule="nonzero" d="M460.594 28.47c4.771 4.229 7.359 11.737 13.654 12.77 3.956.645 7.881-1.72 11.878-1.379 3.564.305 6.58 2.7 9.146 5.164a91.524 91.524 0 0 1 12.483 15.388c2.324 3.527 4.808 7.42 8.825 8.727 4.824 1.549 10.2-1.183 15.09.16 3.373.919 5.966 3.676 7.747 6.682a25.786 25.786 0 0 1 3.45 10.327c.516 4.59-.052 9.811 3.042 13.225 2.215 2.442 5.836 3.335 7.813 5.974 2.738 3.656.801 9.455-3.196 11.67-3.997 2.215-9.146 1.369-13.025-1.033-2.205-1.373-4.131-3.206-6.486-4.275-6.425-2.902-13.748.578-20.11 3.614-6.363 3.037-14.46 5.526-19.986 1.167-4.132-3.248-5.645-9.589-10.598-11.319-2.928-1.032-6.15-.036-9.244-.258-4.808-.346-9.017-3.666-11.578-7.745-2.562-4.08-3.729-8.872-4.68-13.597-.903-4.518-1.92-9.527-5.628-12.269-1.364-1.007-2.985-1.606-4.374-2.582-5.335-3.702-5.81-11.246-5.96-17.737a10.239 10.239 0 0 0-.553-3.677 15.352 15.352 0 0 0-1.596-2.581c-3.584-5.309-4.322-16.302 2.216-19.52 5.872-2.819 17.011-1.027 21.67 3.104Z"/><path fill="#2B0FD3" fill-rule="nonzero" d="M457.029 31.435c-1.603-.791-3.573-.408-5.155.393-1.583.801-2.971 1.985-4.508 2.899a4.839 4.839 0 0 0-1.71 1.342 4.083 4.083 0 0 0-.51 1.776c-.276 2.312-.352 5.104 1.557 6.441 1.419 1.02 3.507.781 4.757 1.99.462.487.81 1.069 1.021 1.705 1.256 3.359 1.159 7.176 2.828 10.35.633 1.195 1.495 2.262 2.113 3.466 1.399 2.746 1.399 5.956 1.588 9.034a66.5 66.5 0 0 0 2.659 14.99c.868 2.888 2.128 5.956 4.778 7.4 2.649 1.445 6.232.756 8.754-1.046 2.521-1.802 4.246-4.491 5.793-7.176 2.338-4.083 4.44-8.32 5.574-12.872a9.696 9.696 0 0 0 .301-4.45c-.347-1.531-1.322-2.879-2.297-4.13-2.098-2.694-4.461-5.384-7.656-6.634-2.17-.858-4.594-.975-6.713-1.94a9.254 9.254 0 0 1-4.905-5.476c-.674-2.082-.684-4.542-2.25-6.068-1.129-1.098-2.839-1.445-3.921-2.593-1.49-1.582-1.271-4.083-.96-6.216m72.788 78.19c.366.166.721.353 1.045.55-1.719-2.324-3.526-4.528-6.085-5.719-7.313-3.4-16.318 3.328-23.788.28-2.612-1.07-4.644-3.213-7.067-4.68a15.47 15.47 0 0 0-9.235-2.193c-2.267.182-4.57.92-6.195 2.511a8.32 8.32 0 0 0-1.63 2.298 8.007 8.007 0 0 1 1.661.38c5.01 1.742 6.55 8.127 10.719 11.398 5.604 4.389 13.784 1.882 20.214-1.175 6.43-3.058 13.858-6.573 20.361-3.65z" opacity=".46"/><path fill="#F9879A" fill-rule="nonzero" d="M466.552 50.534c-1.744-1.153-10.47-5.238-11.632-5.238-1.163 0-3.778-.296-3.778-.296s-5.805 1.164-7.564 1.746a27.45 27.45 0 0 0-4.424 2.124c-1.795.985-3.023 2.553-4.384 4.054l-3.92 4.253-6.627 7.148-.448.48s-1.743 1.164 0 4.084c1.172 1.935 6.453 8.75 9.838 13.111.754-1.236 1.458-2.527 2.309-3.666l-5.45-8.577s-.58-1.746.582-2.91c1.162-1.164 8.156-7.577 8.156-7.577h23.85L484 73.254v-8.169s-15.7-13.387-17.448-14.55Z"/><path fill="#2B0FD3" fill-rule="nonzero" d="M471.456 61.44c-.93-.295-1.967.06-2.95.03a19.942 19.942 0 0 1-2.4-.428 3.684 3.684 0 0 0-1.106 0L471.82 65a5.21 5.21 0 0 0 .491-.15c.437-.103.726-.464.684-.857.064-1.07-.438-2.219-1.54-2.553Z" opacity=".46"/><path fill="#FCCDD3" fill-rule="nonzero" d="M492.605 13s-24.882 30.903-27.437 66.79c-2.556 35.888-.12 97.332-.12 97.332l22.97.878s15.732-54.847 14.954-96.17C502.195 40.51 492.605 13 492.605 13Z"/><path fill="#2B0FD3" fill-rule="nonzero" d="M470 101.294c0-3.32-1.098-6.511-2.163-9.626-.989-2.89-1.976-5.779-2.961-8.668-1.18 20.937-.951 49.123-.561 69 .401-.516.722-1.1.95-1.726a26.783 26.783 0 0 0 1.968-10.246c-.038-6.885-2.704-13.678-1.81-20.492.84-6.26 4.615-11.91 4.577-18.242Z" opacity=".46"/><path fill="#BBC4EF" fill-rule="nonzero" d="M500.12 56s-3.073.46-3.119 1.613c-.045 1.152 1.003.616 1.003.616s-1.043.536-.556 1.133a.655.655 0 0 0 1.002.04s-1.038.536-.551 1.133a.655.655 0 0 0 1.002.04s-1.037.536-.551 1.132c.486.597 2.546.097 2.546.097s2.055-.506 2.1-1.649c.046-1.142-.355-4.044-.862-4.074L500.12 56zm-68.948 114.026c-.196 2.967-.344 5.002-.344 5.002L426 178l7.24-.593L435 170c-1.28.083-2.554.068-3.828.026z"/><path fill="#F9879A" fill-rule="nonzero" d="M464.959 97.034c-.588-7.023-5.294-19.907-5.294-19.907s2.943-11.708 2.943-12.313c0-.298-5.397-7.034-10.933-6.808-5.34.215-10.825 7.393-10.825 7.393s1.769 9.368 1.769 10.559c0 1.19-7.645 12.313-8.248 18.737-.603 6.423-.593 39.809-.593 39.809s-3.525 11.123-2.938 13.462c.418 1.673-.36 14.695-.84 22 1.242.042 2.485.057 3.732-.025l8.887-37.782 7.056-31.025 1.18.585v68.053c1.17-.041 2.377.05 3.568.087 1.876-6.911 5.252-19.615 5.252-21.308v-19.317s5.871-25.176 5.284-32.2Z"/><path fill="#2B0FD3" fill-rule="nonzero" d="M448 111c-1.194 1.925-2.706 3.77-3.714 5.776-1.847 3.647-2 7.828-2.654 11.836-.334 2.103-.806 4.18-1.3 6.248-1.331 5.629-2.807 11.491-2.186 17.14l4.86-19.852L448 111Z" opacity=".46"/><path fill="#4A23E8" fill-rule="nonzero" d="M444.565 68.121c-.509-1.228-1.502-2.19-1.976-3.439a6.056 6.056 0 0 1-.352-1.682c-.886 1.01-1.416 1.736-1.416 1.736s1.752 9.73 1.752 10.969c0 .79-3.179 5.944-5.573 11.295 1.666-1.132 2.72-3.146 4.203-4.598.876-.865 1.916-1.533 2.833-2.355a5.528 5.528 0 0 0 1.915-3.124c.224-1.416-.382-2.815-.637-4.23-.285-1.522-.163-3.146-.749-4.572Z" opacity=".46"/><path fill="#BBC4EF" fill-rule="nonzero" d="M436.029 86.335a6.08 6.08 0 0 1 2.373.573c1.187.573 3.565-1.72 3.565-1.72s.297-2.583-.89-3.157c-1.186-.573-2.378.574-2.378.574l-.594.568L435.358 79c-.87 1.121-1.588 2.393-2.358 3.61a668.966 668.966 0 0 0 3.029 3.725Z"/><path fill="#2B0FD3" fill-rule="nonzero" d="M441.708 69.066a17.054 17.054 0 0 0 6.722-.802 6.261 6.261 0 0 1 1.814-.434c.498.02.99.111 1.465.271a49.432 49.432 0 0 0 8.075 1.795c1.85.2 3.807.184 5.47-.716.172-.077.324-.196.446-.347.162-.267.242-.582.228-.9a14.753 14.753 0 0 0-.071-3.508c-.172-1.172-.758-2.228-1.637-2.95a5.479 5.479 0 0 0-1.993-.83c-7.915-1.891-16.198.432-22.227 6.236" opacity=".13"/><path fill="#BBC4EF" fill-rule="nonzero" d="M451 170.01V178h7l-4.689-3.496s.511-1.786 1.207-4.417c-1.181-.026-2.378-.117-3.518-.077Z"/><path fill="#4A23E8" fill-rule="nonzero" d="M442 60.083a3.775 3.775 0 0 0-.356-.802c-.565-.95-1.76-1.584-2.74-1.132-.453.213-.804.614-1.257.838a8.408 8.408 0 0 1-1.517.375 3.172 3.172 0 0 0-1.881 1.488c-.654 1.153-.61 2.701-1.502 3.661-.653.706-1.696.95-2.257 1.737a3.225 3.225 0 0 0-.488 1.838 4.902 4.902 0 0 0 .332 1.914 2.851 2.851 0 0 1 .663-2.381c1.111-1.163 7.8-7.536 7.8-7.536H442Z" opacity=".46"/><path fill="#F9879A" fill-rule="nonzero" d="M438.6 54.967s-2.911 8.314 4.087 10.673a8.871 8.871 0 0 0 5.261.364 10.956 10.956 0 0 1 7.851.52c1.2.506 2.528.612 3.79.301 5.246-1.19 6.411-8.896 6.411-8.896L462.506 52l-23.905 2.967Z"/><path fill="#2B0FD3" fill-rule="nonzero" d="m444.645 37.078-.592 2.032a.744.744 0 0 0-.037.429c.06.122.134.237.224.341.116.267.186.55.208.838a2.422 2.422 0 0 0 1.599 1.551c.3.078.58.217.82.409.163.215.31.44.437.677.338.391.833.623 1.36.636a3.196 3.196 0 0 0 2.85-1.329c.611-.916.648-2.085.097-3.035a4.832 4.832 0 0 0-1.95-1.634 16.234 16.234 0 0 0-2.266-.993" opacity=".46"/><path fill="#F9879A" fill-rule="nonzero" d="m454 44.937-.357-4.408-4.107-.529-.536 5a42.77 42.77 0 0 1 5-.063Z"/><path fill="#2B0FD3" fill-rule="nonzero" d="M449 44.904A4.838 4.838 0 0 0 452.013 46a4.702 4.702 0 0 0 1.987-.45l-.355-4.095-3.23-.39-.96-.065-.455 3.904Z" opacity=".46"/><path fill="#BBC4EF" fill-rule="nonzero" d="M446 37.265c0 4.268 2.568 7.735 5.74 7.735 3.17 0 5.26-5.063 5.26-9.336 0-9.335-2.095-6.134-5.26-6.134-3.167 0-5.74-2.134-5.74 7.735Z"/><circle cx="445" cy="36" r="2" fill="#4A23E8" fill-rule="nonzero"/><path fill="#4A23E8" fill-rule="nonzero" d="M444.166 37.998c.04-.047-1.198-.866-1.024-1.546.302-1.16 4.228-.113 8.19-1.546 3.07-1.118 6.94-4.009 6.653-6.699-.322-3.06-5.4-5.616-9.725-5.152-5.087.546-9.786 5.359-9.212 9.275.506 3.452 5.041 5.75 5.118 5.668Z"/><path fill="#FFF" fill-rule="nonzero" d="m434 110.8 12.883 1.2.117-1.8-12.98-1.2c-.005.594-.015 1.2-.02 1.8zm1-3.01 13.674 1.21.326-1.736v-.054L435.025 106c-.01.569-.015 1.18-.025 1.79zM461.436 78H454v2h8c-.223-.747-.396-1.413-.564-2zm-1.78-1.18s.065-.307.169-.82H452v2h8l-.344-1.18z"/><path fill="#4A23E8" fill-rule="nonzero" d="m441 86.81-.04-.04c-.473-.563-1.033-.83-1.597-.759-.204.056-.4.192-.605.232a3.305 3.305 0 0 1-.74-.08c-.356-.022-.71.142-1.018.47l.135.312c.689.047 1.365.357 1.985.91.5.456 1.258-.239 1.88-1.045Z" opacity=".46"/><path fill="#FFF" fill-rule="nonzero" d="m475 176.943 1.432.057L497 33.477C494.434 20.48 491.827 13 491.827 13a134.44 134.44 0 0 0-10.263 15.634L475 176.944Z"/><path fill="#2B0FD3" fill-rule="nonzero" d="M502.999 59.694a18.152 18.152 0 0 0-.06-1.694 9.665 9.665 0 0 0-1.35 1.925c-.1.191-.222.36-.36.5-.2.15-.417.251-.642.302-.586.218-1.129.618-1.587 1.168.698.301 2.048-.141 2.048-.141s1.909-.597 1.95-2.06Z" opacity=".46"/><path fill="#FFF" d="M475.561 84.533a.822.822 0 0 0-.359-.29 17.844 17.844 0 0 1-1.362-2.492 3.301 3.301 0 0 0-1.256-1.16 11.556 11.556 0 0 1-1.425-.941 2.377 2.377 0 0 1-.903-2.035c.002-.384.03-.768.085-1.15a3.855 3.855 0 0 0-.597-2.792 7.964 7.964 0 0 1-.528-1.017 2.463 2.463 0 0 1 .175-2.34c.263-.421.552-.827.865-1.216.47-.583.732-1.296.75-2.034 0-.458.058-.916.084-1.379.045-.951.637-1.8 1.536-2.197.364-.178.734-.35 1.114-.509a3.736 3.736 0 0 0 1.916-1.607 6.956 6.956 0 0 1 1.056-1.455 2.534 2.534 0 0 1 1.958-.712c.389.002.777.029 1.161.082a4.353 4.353 0 0 0 2.956-.6c.306-.172.624-.323.95-.453a2.725 2.725 0 0 1 2.545.173c.42.24.824.507 1.208.798.605.454 1.345.71 2.112.728.48 0 .955.056 1.43.086 1.003.032 1.898.615 2.302 1.5.19.372.385.743.528 1.13.312.73.87 1.34 1.583 1.73.453.248.887.526 1.299.833a2.44 2.44 0 0 1 1.013 2.188c-.01.352-.038.703-.084 1.053a3.85 3.85 0 0 0 .601 2.823c.17.276.32.563.45.86a2.59 2.59 0 0 1-.275 2.761l-.924 1.292a2.68 2.68 0 0 0-.528 1.435c-.032.508-.074 1.068-.1 1.602-.027.964-.618 1.831-1.526 2.238-.406.203-.818.386-1.235.56a3.431 3.431 0 0 0-1.636 1.307c-.301.473-.613.94-.919 1.409a1.458 1.458 0 0 0-.374.381 1.34 1.34 0 0 0-.375.28 3.27 3.27 0 0 1-1.985.33c-.49-.045-.992-.066-1.488-.101a2.518 2.518 0 0 0-1.009.132c-1.013.35-1.89 1.017-2.956 1.236a1.75 1.75 0 0 0-.527-.046 4.14 4.14 0 0 1-2.112-1.017 4.241 4.241 0 0 0-2.602-.946 7.38 7.38 0 0 1-2.26-.275.913.913 0 0 0-.406-.213"/><path fill="#F9879A" d="m492.292 83.488 1.216 3.593c.461 1.35.912 2.71 1.379 4.06.206.417.126.92-.198 1.252a1.003 1.003 0 0 1-1.216.138c-1.044-.456-2.098-.893-3.137-1.36-.253-.113-.364-.051-.506.185-.563 1.027-1.145 2.094-1.723 3.136a.953.953 0 0 1-1.06.483.906.906 0 0 1-.764-.683l-1.986-5.897c-.03-.093-.071-.18-.127-.319l-.907 1.812c-.664 1.35-1.328 2.695-1.997 4.045-.18.373-.566.599-.975.572a1.016 1.016 0 0 1-.894-.695c-.43-1.114-.872-2.223-1.297-3.337-.076-.205-.173-.241-.38-.185-1.156.329-2.316.642-3.476.95a.94.94 0 0 1-1.014-.318 1.006 1.006 0 0 1-.106-1.124c1.074-2.16 2.147-4.324 3.217-6.493.051-.103.122-.2.183-.303.14.062.26.164.344.293-.506 1.088-1.059 2.181-1.596 3.264-.537 1.083-1.11 2.233-1.662 3.347a.617.617 0 0 0 0 .728c.178.21.406.165.644.103 1.21-.339 2.422-.662 3.628-1.027.309-.087.45 0 .567.288.441 1.201.917 2.392 1.378 3.593a.57.57 0 0 0 .507.436.542.542 0 0 0 .507-.354c.983-1.981 1.956-3.968 2.949-5.944a.763.763 0 0 0 0-.831c-.091.046-.107.123-.142.19l-2.908 5.851c-.066.128-.097.318-.284.308-.188-.01-.223-.205-.284-.35-.507-1.195-1.013-2.386-1.474-3.592-.087-.216-.178-.272-.396-.21-.638.18-1.277.333-1.915.513l-1.95.487c-.107.026-.214.052-.29-.05a.244.244 0 0 1 0-.278l.107-.231a525.423 525.423 0 0 0 2.99-6.031c.703.21 1.435.303 2.168.277a3.953 3.953 0 0 1 2.498.955 3.898 3.898 0 0 0 2.027 1.026l2.782 8.213c.086.262.192.513.506.513s.456-.18.588-.416c.583-1.067 1.16-2.13 1.758-3.187.279-.513.157-.513.796-.262l3.339 1.437a.557.557 0 0 0 .679-.061.586.586 0 0 0 .081-.683l-2.533-7.453c.097-.148.218-.278.36-.385"/><path fill="#F9879A" d="m490.514 85 2.075 6.141c.117.355.24.704.352 1.075.037.123.112.263 0 .381s-.25.032-.373 0c-1.27-.505-2.539-1.01-3.798-1.531-.25-.102-.357-.054-.49.177-.672 1.171-1.36 2.337-2.043 3.503-.074.124-.122.269-.314.253-.192-.016-.214-.183-.256-.312a601.736 601.736 0 0 1-2.614-7.742 2.006 2.006 0 0 1-.053-.258c1.067-.242 1.963-.935 2.987-1.306a2.442 2.442 0 0 1 1.018-.14c.501.038 1.008.06 1.504.108a3.18 3.18 0 0 0 2.005-.349"/><path fill="#6534FF" d="M474.201 70.887c.058-.857.122-1.714.164-2.577 0-.245.073-.332.332-.305.748.07 1.5.109 2.249.164.609.038 1.077.574 1.053 1.206 0 .491-.047.982-.1 1.474-.058.614-.575 1.07-1.17 1.031-.526 0-1.016-.054-1.516-.109-.258-.033-.327.06-.337.311 0 .503-.053 1.005-.1 1.507 0 .213-.116.404-.37.41a.37.37 0 0 1-.394-.3.792.792 0 0 1 0-.274c.058-.846.11-1.692.168-2.538m.817-1.004c0 .289-.032.573-.058.857 0 .163 0 .256.2.267.527.027 1.053.071 1.58.104a.39.39 0 0 0 .329-.094.421.421 0 0 0 .14-.321c.042-.42.074-.84.084-1.267a.43.43 0 0 0-.1-.355.398.398 0 0 0-.332-.136 33.96 33.96 0 0 1-1.485-.109c-.205 0-.28.066-.284.268-.006.201-.032.545-.048.786m7.827 1.486c-.252-.604-.5-1.22-.763-1.82a1.052 1.052 0 0 0-.6-.549h-.567c-.281.058-.525.227-.674.467-.348.55-.68 1.133-1.01 1.704-.269.434-.31.967-.113 1.435.225.55.466 1.133.702 1.699.159.394.535.663.966.692.431.03.841-.186 1.054-.555.31-.55.63-1.06.932-1.594a1.576 1.576 0 0 0 .073-1.479zm-2.02 2.837c-.135 0-.186-.126-.236-.236-.23-.55-.466-1.1-.696-1.65v-.077a.943.943 0 0 1-.045-.412c0-.06.028-.12.045-.181a.544.544 0 0 1 .05-.116c.32-.55.646-1.1.988-1.649a.297.297 0 0 1 .236-.17.3.3 0 0 1 .219.203c.258.583.505 1.182.746 1.776l.034.12v.182c-.006.14-.04.28-.101.407a.453.453 0 0 0-.04.071l-.92 1.518c-.062.104-.129.203-.264.203l-.016.011z"/><path fill="#6534FF" d="M475.561 84.533a.822.822 0 0 0-.359-.29 17.844 17.844 0 0 1-1.362-2.492 3.301 3.301 0 0 0-1.256-1.16 11.556 11.556 0 0 1-1.425-.941 2.377 2.377 0 0 1-.903-2.035c.002-.384.03-.768.085-1.15a3.855 3.855 0 0 0-.597-2.792 7.964 7.964 0 0 1-.528-1.017 2.463 2.463 0 0 1 .175-2.34c.263-.421.552-.827.865-1.216.47-.583.732-1.296.75-2.034 0-.458.058-.916.084-1.379.045-.951.637-1.8 1.536-2.197.364-.178.734-.35 1.114-.509a3.736 3.736 0 0 0 1.916-1.607 6.956 6.956 0 0 1 1.056-1.455 2.534 2.534 0 0 1 1.958-.712c.389.002.777.029 1.161.082a4.353 4.353 0 0 0 2.956-.6c.306-.172.624-.323.95-.453a2.725 2.725 0 0 1 2.545.173c.42.24.824.507 1.208.798.605.454 1.345.71 2.112.728.48 0 .955.056 1.43.086 1.003.032 1.898.615 2.302 1.5.19.372.385.743.528 1.13.312.73.87 1.34 1.583 1.73.453.248.887.526 1.299.833a2.44 2.44 0 0 1 1.013 2.188c-.01.352-.038.703-.084 1.053a3.85 3.85 0 0 0 .601 2.823c.17.276.32.563.45.86a2.59 2.59 0 0 1-.275 2.761l-.924 1.292a2.68 2.68 0 0 0-.528 1.435c-.032.508-.074 1.068-.1 1.602-.027.964-.618 1.831-1.526 2.238-.406.203-.818.386-1.235.56a3.431 3.431 0 0 0-1.636 1.307c-.301.473-.613.94-.919 1.409a1.458 1.458 0 0 0-.374.381 1.34 1.34 0 0 0-.375.28 3.27 3.27 0 0 1-1.985.33c-.49-.045-.992-.066-1.488-.101a2.518 2.518 0 0 0-1.009.132c-1.013.35-1.89 1.017-2.956 1.236a1.75 1.75 0 0 0-.527-.046 4.14 4.14 0 0 1-2.112-1.017 4.241 4.241 0 0 0-2.602-.946 7.38 7.38 0 0 1-2.26-.275.913.913 0 0 0-.406-.213m4.466-24.624c-.528-.036-.898-.077-1.267-.082a2.007 2.007 0 0 0-1.668.707c-.326.405-.624.83-.892 1.272a4.107 4.107 0 0 1-2.043 1.714c-.385.158-.76.346-1.14.509a2.034 2.034 0 0 0-1.251 1.826c-.037.544-.08 1.088-.106 1.633A3.144 3.144 0 0 1 471 69.1c-.285.397-.564.794-.86 1.18a2.138 2.138 0 0 0-.185 2.544c.116.208.206.427.338.625a4.21 4.21 0 0 1 .655 3.052 9.531 9.531 0 0 0-.085 1.018c-.09.696.217 1.384.803 1.8.23.19.478.36.739.509a4.912 4.912 0 0 1 2.48 2.686c.104.248.22.49.349.727a2.116 2.116 0 0 0 1.874 1.185l1.763.107c.61.04 1.197.242 1.694.585.412.27.824.544 1.23.824.723.56 1.73.63 2.528.173.333-.168.67-.32 1.003-.509a3.972 3.972 0 0 1 2.423-.508c.475.056.95.07 1.425.101a2.14 2.14 0 0 0 2.048-.94c.233-.336.475-.672.692-1.018a4.094 4.094 0 0 1 2.037-1.724c.396-.158.787-.341 1.172-.509a1.951 1.951 0 0 0 1.177-1.455c.111-.646.111-1.297.159-1.948a3.344 3.344 0 0 1 .649-1.79c.29-.392.57-.789.855-1.18.531-.662.61-1.562.2-2.3-.184-.35-.369-.706-.564-1.052a3.667 3.667 0 0 1-.528-2.37c.058-.464.084-.937.11-1.405a1.922 1.922 0 0 0-.786-1.775 12.381 12.381 0 0 0-1.298-.834 4.078 4.078 0 0 1-1.721-1.902c-.18-.402-.38-.794-.58-1.186a1.99 1.99 0 0 0-1.516-1.129c-.274-.04-.527-.05-.828-.07a16.019 16.019 0 0 1-1.784-.154 4.267 4.267 0 0 1-1.88-1.017 2.86 2.86 0 0 0-3.652-.244 4.25 4.25 0 0 1-3.167.697"/><path fill="#6534FF" d="M490.214 71.88c.057-.863.125-1.72.162-2.576 0-.267.1-.321.34-.3.744.071 1.492.115 2.235.17.294.015.569.151.765.379.197.227.298.526.282.832 0 .48-.052.96-.094 1.44-.05.625-.571 1.094-1.172 1.053-.524 0-1.047-.06-1.57-.11-.205 0-.278.044-.284.257 0 .491-.057.982-.099 1.473 0 .262-.089.546-.419.496-.33-.049-.377-.229-.356-.512.063-.868.115-1.735.173-2.603m.811-.982c0 .29-.031.573-.057.857 0 .18.047.245.214.25.524.028 1.006.072 1.513.11a.402.402 0 0 0 .341-.096.439.439 0 0 0 .146-.335c.042-.42.073-.84.084-1.266a.442.442 0 0 0-.113-.35.404.404 0 0 0-.332-.13c-.482-.027-.963-.06-1.445-.103-.215 0-.298.054-.303.278-.006.223-.032.545-.048.785m-2.001 3.635c-.393-1.74-.791-3.486-1.19-5.226-.062-.27-.267-.334-.517-.296-.25.038-.268.205-.33.366l-1.235 3.141c-.228.571-.461 1.137-.672 1.714-.09.237-.05.463.24.539.105.044.227.04.33-.011a.357.357 0 0 0 .193-.253c.085-.248.199-.485.284-.728a.27.27 0 0 1 .126-.175.298.298 0 0 1 .222-.035c.417.036.832.063 1.246.08.199 0 .301.065.33.27.041.245.096.488.165.728.05.183.136.339.37.35a.405.405 0 0 0 .35-.12.357.357 0 0 0 .088-.344zm-1.235-1.535-1.28-.08a.097.097 0 0 1-.076-.046.087.087 0 0 1-.004-.084l.78-1.816a.1.1 0 0 1 .056-.048.102.102 0 0 1 .069 0 .09.09 0 0 1 .034.053l.495 1.897a.087.087 0 0 1-.008.08.097.097 0 0 1-.072.044h.006z"/><path fill="#6534FF" fill-rule="nonzero" d="M271.02 31a.689.689 0 0 1-.457-.179l-2.31-2.062a.77.77 0 0 1-.253-.58v-4.39c0-.14.084-.264.208-.309a8.355 8.355 0 0 1 5.584 0 .325.325 0 0 1 .208.31v4.389a.77.77 0 0 1-.254.58l-2.294 2.062a.69.69 0 0 1-.432.179Z"/><path fill="#F9879A" fill-rule="nonzero" d="M270.99 28.874 270 28l.974 2L272 28.059z"/><path fill="#6535FF" fill-rule="nonzero" d="m270.98 30-.98-2 .99.87 1.01-.818L270.958 30h.021Zm-.938-1.963.937 1.918.99-1.866-.969.744-.958-.796Z"/><path fill="#F9879A" fill-rule="nonzero" d="M270 27.483h.005L271 28l.99-.485h.01-.005l.005-.005-.963-1.51L270 27.478l.005.005z"/><path fill="#6535FF" fill-rule="nonzero" d="m270.99 28-.99-.519L271.042 26l.958 1.514-.984.467-.026.019Zm-.98-.533.98.514.979-.467-.943-1.49-1.016 1.443Z"/><path fill="#FCCDD3" fill-rule="nonzero" d="M273.632 24.469a7.62 7.62 0 0 0-5.264 0 .582.582 0 0 0-.368.558v4.062c0 .292.12.569.325.756l2.1 1.924a.852.852 0 0 0 1.168 0l2.086-1.909c.205-.187.323-.464.321-.756v-4.082a.582.582 0 0 0-.368-.553Zm.11 4.62a.712.712 0 0 1-.235.521l-2.096 1.919a.602.602 0 0 1-.832 0l-2.081-1.908a.708.708 0 0 1-.23-.522v-4.077c0-.13.075-.245.187-.287a7.342 7.342 0 0 1 5.08 0c.115.04.192.156.192.287l.015 4.067Z"/><path fill="#BBC4EF" fill-rule="nonzero" d="M275 29.12v-4.104c.002-.255-.201-.483-.502-.563a13.435 13.435 0 0 0-2.932-.453c.32.366.543.782.651 1.222.124.531.19 1.07.196 1.611.033.292.02.586-.04.875-.175.69-.833 1.237-1.146 1.901a2.636 2.636 0 0 0-.15 1.701c.05.234.12.464.209.69.163-.036.314-.101.443-.19l2.84-1.927c.277-.19.435-.47.43-.764Z" opacity=".44"/><path fill="#070707" fill-rule="nonzero" d="m268.896 29-1.664-.518a.213.213 0 0 1-.166-.075.274.274 0 0 1-.066-.187v-.958c.006-.144.11-.259.238-.262l1.664.518a.1.1 0 0 1 .09.069.122.122 0 0 1-.02.121l-.58.217a.13.13 0 0 0 0 .157l.58.728a.122.122 0 0 1 .02.124c-.017.042-.055.068-.096.066zm4.208-.498 1.664-.502c.128 0 .232.118.232.264v.964c0 .07-.025.139-.07.189a.218.218 0 0 1-.168.075l-1.658.508c-.04.003-.079-.024-.095-.066a.124.124 0 0 1 .02-.126l.58-.732a.131.131 0 0 0 0-.159l-.58-.224a.124.124 0 0 1-.02-.125c.016-.043.054-.07.095-.066z" opacity=".18"/><path fill="#52D2BC" fill-rule="nonzero" d="M268.895 29h-1.663a.213.213 0 0 1-.166-.075.274.274 0 0 1-.066-.187v-1.476c.006-.144.11-.259.238-.262h1.657a.1.1 0 0 1 .091.069.122.122 0 0 1-.021.121l-.58.728a.13.13 0 0 0 0 .157l.58.728c.032.031.044.082.028.127-.016.045-.055.073-.098.07zm4.21-2h1.663c.128.007.23.124.232.269v1.469a.28.28 0 0 1-.07.187.218.218 0 0 1-.168.075h-1.658c-.04.002-.079-.024-.095-.066a.122.122 0 0 1 .02-.124l.58-.728a.13.13 0 0 0 0-.157l-.58-.735a.122.122 0 0 1-.02-.124c.016-.042.054-.068.095-.066z"/><path fill="#6535FF" fill-rule="nonzero" d="M268.888 29h-1.598a.244.244 0 0 1-.2-.104.408.408 0 0 1-.09-.257v-1.562c.003-.044.032-.077.067-.077a.054.054 0 0 1 .047.02c.013.015.02.035.02.057v1.555c0 .052.015.102.044.139a.145.145 0 0 0 .112.062h1.598v-.041l-.557-.771a.095.095 0 0 1-.02-.06c0-.021.007-.042.02-.058a.056.056 0 0 1 .044-.024c.017 0 .033.009.045.024l.557.778c.03.066.03.148 0 .215a.176.176 0 0 1-.09.104zm6.06 0h-1.77a.174.174 0 0 1-.16-.12.192.192 0 0 1 .03-.208l.617-.743a.043.043 0 0 0 0-.053l-.617-.75a.08.08 0 0 1-.014-.074.072.072 0 0 1 .053-.05.067.067 0 0 1 .066.024l.617.743a.206.206 0 0 1 0 .267l-.617.743v.04c0 .007 0 0 0 0h1.771c.04 0 .074.036.074.08a.089.089 0 0 1-.05.101z"/><path fill="#BBC4EF" fill-rule="nonzero" d="M270.935 30.992a.041.041 0 0 1-.034 0l-1.884-1.882a.07.07 0 0 1-.017-.046.07.07 0 0 1 .017-.046.056.056 0 0 1 .082 0l1.884 1.882a.07.07 0 0 1 .017.046.07.07 0 0 1-.017.046.042.042 0 0 1-.048 0Z"/><path fill="#3E1EC4" fill-rule="nonzero" d="M378 37.688v-4.376a1.113 1.113 0 0 0-.593-.974l-3.846-2.188c-.354-.2-.79-.2-1.143 0l-3.846 2.188c-.354.201-.571.572-.572.974v4.376c0 .402.218.773.572.974l3.846 2.188c.354.2.789.2 1.143 0l3.846-2.188c.363-.194.59-.567.593-.974Z" opacity=".32"/><path fill="#F9879A" fill-rule="nonzero" d="M378 37.695v-4.39c-.002-.401-.22-.77-.574-.972l-3.87-2.18a1.143 1.143 0 0 0-1.144 0l-3.843 2.18a1.12 1.12 0 0 0-.569.972v4.39c.005.393.221.755.569.951l3.843 2.2c.353.205.791.205 1.144 0l3.87-2.184c.354-.199.573-.567.574-.967Z"/><path fill="#FFF" fill-rule="nonzero" d="M368.638 38h-.037a1.244 1.244 0 0 1-.601-1.073v-4.463c-.002-.441.227-.85.6-1.073l3.802-2.226c.371-.22.83-.22 1.201 0l3.796 2.231c.378.22.608.63.6 1.073a.08.08 0 0 1-.073.08.08.08 0 0 1-.079-.08 1.076 1.076 0 0 0-.527-.922l-3.8-2.232a1.038 1.038 0 0 0-1.055 0l-3.796 2.232c-.324.19-.524.541-.527.922v4.463c.003.381.203.733.527.923.036.023.047.07.027.107a.084.084 0 0 1-.058.038Z"/><path fill="#FFF" fill-rule="nonzero" d="M376.534 36.313 377 35.5l-.466-.813v-.937l-.813-.471-.471-.808h-.937L373.5 32l-.813.471h-.937l-.466.808-.813.471v.937L370 35.5l.471.813v.937l.813.471.466.813h.937l.813.466.813-.466h.937l.471-.813.813-.471z"/><path fill="#6535FF" fill-rule="nonzero" d="M372.481 38h-.84a.083.083 0 0 1-.064-.034l-.408-.714-.715-.413a.068.068 0 0 1-.034-.058v-.84l-.413-.715a.083.083 0 0 1 0-.068l.413-.714v-.801a.083.083 0 0 1 .034-.063l.715-.408.408-.714a.083.083 0 0 1 .063-.034h.822l.714-.413a.058.058 0 0 1 .068 0l.715.413h.821c.024 0 .047.013.059.034l.413.714.714.408c.033.02.044.063.025.097a.068.068 0 0 1-.098 0l-.729-.418a.058.058 0 0 1 0-.024l-.403-.695h-.856l-.695-.383-.695.398H371.68l-.413.704a.058.058 0 0 1 0 .025l-.695.398v.801a.092.092 0 0 1 0 .034l-.398.695.398.69a.116.116 0 0 1 0 .039v.796l.695.403.399.695h.802c.037 0 .068.03.068.068a.073.073 0 0 1-.054.097Z"/><circle cx="372.5" cy="35.5" r="1.5" fill="#62BCF9" fill-rule="nonzero"/><path fill="#6535FF" fill-rule="nonzero" d="M371.487 36.996a.055.055 0 0 1-.042 0c-.335-.382-.499-.984-.43-1.58.07-.595.363-1.093.768-1.307.406-.213.862-.11 1.197.272.013.017.02.041.02.066a.112.112 0 0 1-.02.065c-.012.02-.03.031-.049.031-.019 0-.037-.011-.05-.031-.458-.522-1.134-.427-1.509.212-.374.64-.306 1.58.153 2.102.027.038.027.099 0 .137a.082.082 0 0 1-.038.033Z"/><path fill="#6534FF" fill-rule="nonzero" d="m377.453 32.328-3.685-2.186a1.002 1.002 0 0 0-.409-.142 2.379 2.379 0 0 0-.168.527 4.283 4.283 0 0 0 .179 1.88c.208.601.378 1.216.51 1.839.138.86.042 1.742-.275 2.55-.42 1.053-1.206 1.927-1.498 3.018a3.249 3.249 0 0 0-.107.621l.695.411a1.04 1.04 0 0 0 1.089 0l3.684-2.191c.325-.2.527-.558.532-.948v-4.404a1.14 1.14 0 0 0-.547-.975Z" opacity=".32"/><path fill="#FFF" fill-rule="nonzero" d="M373.085 40a.106.106 0 0 1-.075-.033c-.022-.035-.006-.077.035-.096l3.842-1.868c.038-.01.08.003.1.032.021.028.016.064-.013.088l-3.848 1.858-.04.019zM201.002 59a.684.684 0 0 1-.459-.18l-2.286-2.057a.778.778 0 0 1-.257-.581v-4.389c0-.14.084-.263.207-.307a8.259 8.259 0 0 1 5.586 0 .321.321 0 0 1 .207.307v4.389a.774.774 0 0 1-.252.581l-2.291 2.057a.66.66 0 0 1-.455.18z"/><path fill="#52D2BC" fill-rule="nonzero" d="M200.987 55.874 200 55l.972 2L202 55.058z"/><path fill="#6535FF" fill-rule="nonzero" d="M201.013 57 200 55l.982.866 1.013-.815-1.013 1.942.03.007Zm-.932-1.957.932 1.914.987-1.863-.987.78-.932-.83Z"/><path fill="#52D2BC" fill-rule="nonzero" d="M200 55.482h.005l.992.518.998-.486H202h-.005l.005-.005-.962-1.509L200 55.477z"/><path fill="#6535FF" fill-rule="nonzero" d="m201 56-1-.518L201.03 54l.97 1.514-1 .486Zm-.99-.536.99.513.995-.482-.954-1.486-1.03 1.455Z"/><path fill="#6535FF" fill-rule="nonzero" d="M203.63 52.463a7.71 7.71 0 0 0-5.26 0 .59.59 0 0 0-.37.56v4.08a1.01 1.01 0 0 0 .327.76l2.086 1.911a.876.876 0 0 0 1.174 0l2.086-1.912c.207-.187.327-.466.327-.76v-4.079a.59.59 0 0 0-.37-.56Zm.108 4.634a.736.736 0 0 1-.234.54l-2.085 1.913a.605.605 0 0 1-.838 0l-2.085-1.912a.72.72 0 0 1-.234-.54v-4.08a.294.294 0 0 1 .192-.285 7.37 7.37 0 0 1 5.092 0 .3.3 0 0 1 .192.285v4.08Z"/><path fill="#BBC4EF" fill-rule="nonzero" d="M204 57.121v-4.105c0-.256-.2-.483-.499-.564A13.706 13.706 0 0 0 200.58 52c.313.367.528.783.631 1.221.126.533.191 1.074.196 1.617.033.29.018.58-.044.867-.17.693-.82 1.242-1.136 1.899a2.683 2.683 0 0 0-.152 1.703c.053.235.124.466.215.693.162-.04.312-.107.442-.195l2.815-1.924c.282-.186.449-.464.454-.76Z" opacity=".44"/><path fill="#070707" fill-rule="nonzero" d="m198.893 57-1.661-.522a.213.213 0 0 1-.166-.075.273.273 0 0 1-.066-.186v-.95c.003-.146.108-.264.237-.267l1.661.522c.04-.002.077.023.094.064a.119.119 0 0 1-.02.121l-.599.217a.126.126 0 0 0 0 .152l.593.733a.126.126 0 0 1 .018.122.102.102 0 0 1-.091.069zm4.206-1.492 1.67-.508c.128.003.231.123.231.27v.958c0 .071-.025.14-.07.189a.218.218 0 0 1-.168.075L203.1 57a.103.103 0 0 1-.09-.07.128.128 0 0 1 .017-.123l.6-.733a.128.128 0 0 0 0-.154l-.566-.219a.126.126 0 0 1-.028-.11.111.111 0 0 1 .067-.083z" opacity=".18"/><path fill="#FCCDD3" fill-rule="nonzero" d="M198.893 57h-1.661a.213.213 0 0 1-.166-.075.276.276 0 0 1-.066-.188V55.27c.003-.147.108-.265.237-.269h1.661c.04-.002.077.023.094.064a.12.12 0 0 1-.02.122l-.599.73a.127.127 0 0 0 0 .155l.593.737a.128.128 0 0 1 .018.122.103.103 0 0 1-.091.07zm4.206-2h1.67c.128.003.231.123.231.27v1.467c0 .07-.025.139-.07.188a.218.218 0 0 1-.168.075H203.1a.103.103 0 0 1-.09-.07.127.127 0 0 1 .017-.122l.6-.731a.127.127 0 0 0 0-.154l-.566-.73a.126.126 0 0 1-.028-.11.111.111 0 0 1 .067-.083z"/><path fill="#6535FF" fill-rule="nonzero" d="M198.813 56.99h-1.536a.243.243 0 0 1-.198-.102.397.397 0 0 1-.079-.257v-1.55c0-.045.028-.081.063-.081s.063.036.063.081v1.57a.223.223 0 0 0 .041.143c.03.034.07.054.11.054h1.536a.021.021 0 0 0 .026 0v-.04l-.522-.78a.1.1 0 0 1-.013-.079c.007-.028.025-.048.047-.054.022-.006.045.004.06.026l.549.778a.242.242 0 0 1 .026.216c-.039.072-.109.102-.173.075zm6.112.01h-1.748a.173.173 0 0 1-.16-.118.204.204 0 0 1 .029-.208l.63-.744a.042.042 0 0 0 0-.052l-.624-.744a.082.082 0 0 1-.021-.056c0-.02.007-.04.02-.055a.068.068 0 0 1 .051-.023c.02 0 .038.008.051.023l.624.744a.21.21 0 0 1 0 .267l-.63.738a.071.071 0 0 0 0 .045c.01.005.02.005.03 0h1.748c.039 0 .07.035.07.078a.085.085 0 0 1-.01.074.069.069 0 0 1-.06.03z"/><path fill="#BBC4EF" fill-rule="nonzero" d="M199.946 59h-.038l-1.887-1.878a.078.078 0 0 1-.007-.097c.02-.03.058-.033.082-.009l1.887 1.877c.011.013.017.03.017.047a.074.074 0 0 1-.017.048.042.042 0 0 1-.037.011Z"/><path fill="#3E1EC4" fill-rule="nonzero" d="M428 22.338c0-.394-.335-.714-.747-.714h-.038.038a.7.7 0 0 0 .36-.89.755.755 0 0 0-.89-.436.697.697 0 0 0 .19-.619.724.724 0 0 0-.503-.55.771.771 0 0 0-.757.177h-.027v-.035a.704.704 0 0 0-.413-.893.762.762 0 0 0-.958.336c0-.394-.335-.714-.747-.714-.413 0-.747.32-.747.714a.082.082 0 0 0 0 .035v-.035a.739.739 0 0 0-.52-.421.772.772 0 0 0-.736.228.684.684 0 0 0-.127.724.783.783 0 0 0-.752-.162l-.095.04a.718.718 0 0 0-.405.525.694.694 0 0 0 .209.62h.032-.037a.759.759 0 0 0-.934.395.7.7 0 0 0 .35.916c-.412 0-.746.32-.746.713 0 .395.334.714.747.714h.042-.037a.707.707 0 0 0-.443.798c.07.332.374.573.73.574a.849.849 0 0 0 .27-.05.693.693 0 0 0-.196.618.718.718 0 0 0 .407.515l.096.036a.777.777 0 0 0 .757-.172l.026-.03v.035a.707.707 0 0 0 .202.81l-.911 1.888a.122.122 0 0 0 .017.135.136.136 0 0 0 .136.042l.98-.263a.13.13 0 0 1 .154.065l.445.922a.133.133 0 0 0 .119.071c.05 0 .097-.028.12-.071l.852-1.726.858 1.726a.133.133 0 0 0 .12.071c.05 0 .096-.028.118-.071l.44-.922a.135.135 0 0 1 .154-.065l.985.263a.136.136 0 0 0 .136-.042.122.122 0 0 0 .018-.135l-.912-1.828h.027a.444.444 0 0 0 .069-.07c.18-.2.23-.478.132-.724a.772.772 0 0 0 .747.162.407.407 0 0 0 .095-.041.718.718 0 0 0 .405-.524.694.694 0 0 0-.209-.62h.032c.09.038.188.057.286.056.098-.001.195-.02.286-.056a.7.7 0 0 0 .403-.385.707.707 0 0 0-.387-.926c.397-.03.699-.354.683-.734Z" opacity=".32"/><path fill="#F9879A" fill-rule="nonzero" d="m426.799 29.082-1.219-.317c-.078-.017-.158.017-.191.08l-.553 1.074a.168.168 0 0 1-.149.081.168.168 0 0 1-.148-.081l-1.522-2.816a.123.123 0 0 1-.007-.11.148.148 0 0 1 .086-.08l2.155-.9c.082-.033.178-.002.217.07l1.522 2.809a.13.13 0 0 1-.031.145.18.18 0 0 1-.16.045Z"/><path fill="#F9879A" fill-rule="nonzero" d="m420.187 29.082 1.218-.3c.079-.016.16.018.197.08l.56 1.057c.027.05.085.081.148.081.063 0 .12-.032.148-.081l1.527-2.816c.038-.071.002-.156-.079-.19l-2.159-.9c-.082-.033-.179-.002-.217.07l-1.52 2.809a.13.13 0 0 0 .027.139.177.177 0 0 0 .15.051Z"/><path fill="#6534FF" fill-rule="nonzero" d="m423.914 27.139-.313-.139a.95.95 0 0 1-.342.783c-.182.15-.422.24-.615.384a2.312 2.312 0 0 0-.433.463c-.074.085-.134.18-.177.283a.808.808 0 0 0-.034.175l.404.837a.144.144 0 0 0 .129.075c.054 0 .104-.03.128-.075l1.321-2.6a.126.126 0 0 0 .01-.107.137.137 0 0 0-.078-.08zm1.383-1.06c-.034-.054-.11-.086-.189-.078a1.792 1.792 0 0 0 0 .28 4.8 4.8 0 0 1-.073 1.117.99.99 0 0 0 0 .525c.117.335.581.514.945.72.136.079.262.167.377.263l.414.09a.216.216 0 0 0 .187-.047c.046-.042.055-.1.024-.15l-1.685-2.72zM424.115 25c-.282 0-.551.103-.738.282a1.067 1.067 0 0 0-.443-.092c-.127 0-.253.02-.371.06a1.06 1.06 0 0 0-.7-.25c-.504.092-.863.469-.863.905 0 .436.36.813.863.905.376-.135.81-.06 1.093.19.295-.286.783-.365 1.181-.19.504-.092.863-.469.863-.905 0-.436-.36-.813-.863-.905h-.022z" opacity=".32"/><path fill="#FFF" fill-rule="nonzero" d="M428 22.526a.746.746 0 0 0-.748-.744h-.043.037a.743.743 0 0 0 .36-.93.749.749 0 0 0-.89-.454.742.742 0 0 0-.212-1.183l-.096-.037a.761.761 0 0 0-.764.185v-.032a.743.743 0 0 0-.404-.95.75.75 0 0 0-.97.364.746.746 0 0 0-.749-.745.746.746 0 0 0-.748.745v.037-.037a.753.753 0 0 0-1.183-.275.747.747 0 0 0-.207.83.75.75 0 0 0-.749-.17.399.399 0 0 0-.095.043.745.745 0 0 0-.196 1.193l.026.027h-.032a.75.75 0 0 0-.955.402.743.743 0 0 0 .366.966.746.746 0 0 0-.748.744c0 .412.335.745.748.745h.037-.037a.743.743 0 0 0-.403.972c.118.278.392.46.695.46a.66.66 0 0 0 .265-.053.748.748 0 0 0 .314 1.22.761.761 0 0 0 .758-.18l.027-.032v.037a.737.737 0 0 0 .239.877.756.756 0 0 0 1.135-.296c0 .412.335.745.749.745a.746.746 0 0 0 .748-.745v-.042.037a.747.747 0 0 0 1.183.275.731.731 0 0 0 .202-.83c.201.19.49.254.753.17l.096-.038a.75.75 0 0 0 .196-1.198h-.032.037a.746.746 0 0 0 .287.052.698.698 0 0 0 .287-.058.715.715 0 0 0 .403-.401.749.749 0 0 0-.393-.967.746.746 0 0 0 .706-.729Z"/><path fill="#62BCF9" fill-rule="nonzero" d="M420.676 26a.82.82 0 0 1-.522-.533.837.837 0 0 1 .055-.64.806.806 0 0 1-.875-.485.833.833 0 0 1 .253-.982.822.822 0 0 1-.587-.792c0-.368.24-.691.587-.792a.833.833 0 0 1-.235-.964.807.807 0 0 1 .847-.493.826.826 0 0 1-.073-.647.81.81 0 0 1 .415-.494.4.4 0 0 1 .11-.047.822.822 0 0 1 .632.053.807.807 0 0 1 .27-.697.804.804 0 0 1 1.172.11.811.811 0 0 1 .778-.597c.361 0 .679.244.778.597a.805.805 0 0 1 1.375.206c.054.13.074.272.057.412a.812.812 0 0 1 .648-.063l.109.042c.23.12.393.343.44.602a.928.928 0 0 1-.082.528.808.808 0 0 1 .824.528.85.85 0 0 1-.243.966c.348.101.589.424.591.792a.084.084 0 0 1-.083.085.084.084 0 0 1-.078-.085.66.66 0 0 0-.653-.66h-.037a.072.072 0 0 1-.053-.018.074.074 0 0 1-.024-.05.08.08 0 0 1 .051-.09h.032a.67.67 0 0 0 .315-.845.65.65 0 0 0-.803-.385.072.072 0 0 1-.093-.032.08.08 0 0 1 0-.1.668.668 0 0 0-.187-1.051l-.078-.037a.65.65 0 0 0-.664.164.087.087 0 0 1-.109 0 .085.085 0 0 1-.03-.1v-.032a.67.67 0 0 0-.34-.874.648.648 0 0 0-.859.346.078.078 0 0 1-.15-.032.664.664 0 0 0-.654-.644.654.654 0 0 0-.648.66v.037a.084.084 0 0 1-.068.084.078.078 0 0 1-.088-.058v-.026a.652.652 0 0 0-.456-.398.64.64 0 0 0-.581.155l-.063.058a.685.685 0 0 0-.114.676.08.08 0 0 1 0 .1.087.087 0 0 1-.103 0 .635.635 0 0 0-.654-.148.226.226 0 0 0-.083.032.678.678 0 0 0-.171 1.056.091.091 0 0 1 0 .11.071.071 0 0 1-.099.032h-.03a.648.648 0 0 0-.86.346.67.67 0 0 0 .34.874.08.08 0 0 1 .047.09.089.089 0 0 1-.078.069.66.66 0 0 0-.595.662.66.66 0 0 0 .595.663h.031a.083.083 0 0 1 .089.063.09.09 0 0 1-.052.095h-.031a.668.668 0 0 0-.162 1.135.641.641 0 0 0 .644.095.087.087 0 0 1 .099.032.08.08 0 0 1 0 .1.673.673 0 0 0 .186 1.056l.083.032c.02.006.037.02.047.04a.08.08 0 0 1 .005.06.078.078 0 0 1-.057.048Z"/><circle cx="423.5" cy="22.5" r="3.5" fill="#BBC4EF" fill-rule="nonzero" opacity=".32"/><path fill="#BBC4EF" fill-rule="nonzero" d="M420.054 22c-.041-.018-.063-.076-.05-.129.318-1.263 1.09-2.254 2.073-2.666.984-.412 2.063-.195 2.901.583a.117.117 0 0 1 0 .136c-.03.037-.08.037-.11 0-1.381-1.275-3.307-.877-4.306.89a4.611 4.611 0 0 0-.432 1.096c-.003.05-.036.09-.076.09Z"/><path fill="#6534FF" fill-rule="nonzero" d="M428 22.571c0-.41-.275-.741-.615-.741h-.035.03c.281-.172.409-.571.297-.926-.113-.354-.428-.55-.733-.452a.846.846 0 0 0 .161-.643.74.74 0 0 0-.335-.535l-.079-.037c-.221-.085-.463-.014-.628.184v-.032a.915.915 0 0 0 .04-.389 1.613 1.613 0 0 0-.262.526c-.04.21-.069.422-.083.636a3.26 3.26 0 0 1-.388 1.231c-.336.595-.873 1.052-1.069 1.725a5.582 5.582 0 0 0-.11 1.773A9.562 9.562 0 0 1 424 26.89c.095.072.206.11.318.11.34-.003.613-.333.615-.742v-.042.037c.077.22.236.383.429.438a.541.541 0 0 0 .544-.164.457.457 0 0 0 .061-.074.85.85 0 0 0 .105-.752.549.549 0 0 0 .62.168l.078-.037a.75.75 0 0 0 .333-.547.848.848 0 0 0-.172-.647h-.026.03a.52.52 0 0 0 .472-.005.662.662 0 0 0 .331-.4c.128-.371-.016-.798-.323-.957.316-.02.568-.324.585-.705zM313.775 7.166l-.573-.988-.041-1.144a1.575 1.575 0 0 0-.847-1.343l-.796-.423-.449-.777a1.597 1.597 0 0 0-1.379-.793h-1.131l-1.033-.515a1.61 1.61 0 0 0-1.59.057l-.765.478h-.899c-.551.01-1.059.301-1.342.773l-.574.994-.976.602a1.59 1.59 0 0 0-.749 1.406l.036.896-.454.777a1.592 1.592 0 0 0 0 1.591l.573.989.042 1.143c.025.565.347 1.076.847 1.344l.795.422.46.762c.285.49.81.793 1.379.793h.95v2.575a.216.216 0 0 0 .356.164l1.348-1.122a.217.217 0 0 1 .284 0l1.281 1.102a.212.212 0 0 0 .356-.165v-2.575h.837a1.597 1.597 0 0 0 1.364-.772l.573-.994.97-.607c.485-.298.771-.834.75-1.4l-.037-.897.434-.736c.3-.498.3-1.12 0-1.617z" opacity=".32"/><path fill="#62BCF9" fill-rule="nonzero" d="m308.602 16.934-1.406-1.317a.226.226 0 0 0-.313 0l-1.49 1.317a.225.225 0 0 1-.255.037.26.26 0 0 1-.138-.233v-3.48c0-.07.026-.136.072-.185a.23.23 0 0 1 .173-.073h3.516c.132 0 .239.115.239.257v3.487a.259.259 0 0 1-.142.234.226.226 0 0 1-.256-.044Z"/><circle cx="307" cy="13" r="2" fill="#6534FF" fill-rule="nonzero" opacity=".32"/><path fill="#BBC4EF" fill-rule="nonzero" d="m313.785 6.208-.573-.994-.04-1.149a1.59 1.59 0 0 0-.826-1.36l-.795-.425-.448-.782a1.593 1.593 0 0 0-1.378-.797h-1.145l-1.032-.517a1.595 1.595 0 0 0-1.594.062l-.758.476h-.903c-.568 0-1.092.304-1.377.797l-.573.999-.97.585c-.48.302-.763.839-.742 1.408l.03.9-.448.797a1.609 1.609 0 0 0 0 1.6l.572.988.042 1.149c.02.57.343 1.085.846 1.35l.794.425.449.782c.285.492.81.796 1.377.797h1.145l1.032.517a1.6 1.6 0 0 0 1.589-.057l.758-.481h.903c.568 0 1.093-.304 1.377-.797l.573-.994.97-.61c.473-.304.753-.835.737-1.398l-.03-.9.448-.782a1.609 1.609 0 0 0-.01-1.589Z"/><path fill="#6534FF" fill-rule="nonzero" d="M307.62 14c-.292 0-.58-.067-.836-.197l-1.024-.507h-1.153a1.813 1.813 0 0 1-1.555-.845l-.45-.735-.788-.395a1.7 1.7 0 0 1-.955-1.433l-.043-1.093-.579-.942a1.634 1.634 0 0 1 0-1.696l.45-.73-.031-.87a1.677 1.677 0 0 1 .836-1.52l.981-.577.595-.906c.32-.525.914-.847 1.555-.846h.89l.772-.45a1.888 1.888 0 0 1 1.79-.061l1.025.506h1.152a1.83 1.83 0 0 1 1.555.846l.445.729.794.4c.565.284.928.829.954 1.433a.128.128 0 0 1-.039.096.143.143 0 0 1-.1.04.136.136 0 0 1-.14-.126 1.433 1.433 0 0 0-.804-1.21l-.826-.415a.1.1 0 0 1-.053-.051l-.472-.765a1.525 1.525 0 0 0-1.308-.714h-1.19a.153.153 0 0 1-.065 0L307.931.46a1.589 1.589 0 0 0-1.512.056l-.794.466a.13.13 0 0 1-.075 0h-.932c-.541 0-1.042.272-1.314.714l-.595.977a.198.198 0 0 1-.048.045l-1.008.598a1.422 1.422 0 0 0-.73 1.24l.038.881a.11.11 0 0 1 0 .071l-.466.765a1.369 1.369 0 0 0 0 1.428l.595.977a.12.12 0 0 1 0 .06l.043 1.125c.02.51.326.972.804 1.21l.826.41c.021.013.04.03.053.051l.467.765c.272.441.772.713 1.313.714h1.19a.108.108 0 0 1 .065 0l1.072.506c.477.24 1.054.22 1.512-.05a.146.146 0 0 1 .105-.018.14.14 0 0 1 .088.058.132.132 0 0 1-.043.187 1.862 1.862 0 0 1-.965.304Z"/><path fill="#6534FF" fill-rule="nonzero" d="m313.157 5.366-.043-1.084c-.017-.534-.35-1.02-.875-1.275l-.84-.4-.476-.738c-.302-.465-.857-.751-1.459-.752h-1.213L308 1c.038.453.05.908.033 1.363a2.14 2.14 0 0 0 .546 1.558c.23.185.473.358.727.517.688.522 1.043 1.313.95 2.115-.093.703-.546 1.353-.546 2.061s.41 1.465.432 2.198c.014.46-.13.912-.416 1.294-.235.313-.546.577-.77.894h.546c.602 0 1.157-.287 1.46-.752l.606-.938 1.027-.576c.49-.299.77-.804.737-1.334l-.033-.85.476-.737c.3-.467.3-1.042 0-1.509l-.618-.938Z" opacity=".32"/><ellipse cx="307" cy="12" fill="#6534FF" fill-rule="nonzero" opacity=".32" rx="5" ry="1"/><path fill="#62BCF9" fill-rule="nonzero" d="M313.695 8.23a.756.756 0 0 1-.544.231h-11.297a.756.756 0 0 1-.544-.23.752.752 0 0 0-.572-.23.746.746 0 0 0-.552.268l-.036.053a.66.66 0 0 0-.127.592l.677 2.383c.122.413.518.7.97.703h11.66c.452-.003.848-.29.97-.703l.677-2.383a.673.673 0 0 0-.122-.592l-.04-.053a.746.746 0 0 0-.55-.266.753.753 0 0 0-.57.227Z"/><path fill="#6534FF" fill-rule="nonzero" d="M312.85 12h-11.99c-.53 0-.996-.306-1.135-.747l-.696-2.248a.681.681 0 0 1 .152-.657l.042-.045a.934.934 0 0 1 .669-.302c.264-.01.52.083.696.252a.11.11 0 0 1 0 .171.158.158 0 0 1-.193 0 .657.657 0 0 0-.482-.175.664.664 0 0 0-.46.207l-.042.05a.469.469 0 0 0-.105.45l.696 2.22c.105.339.462.574.869.572h11.99c.407.002.764-.233.868-.571.02-.062.095-.1.168-.086.073.02.116.085.1.149-.135.449-.607.762-1.146.76zm-7.003-4.905h-3.743c-.06-.009-.104-.049-.104-.095s.044-.086.104-.095h3.743a.15.15 0 0 1 .131.041.078.078 0 0 1 0 .108.15.15 0 0 1-.131.041z"/><path fill="#6534FF" fill-rule="nonzero" d="M310.826 12.095h-2.652c-.058.008-.117-.009-.15-.041-.032-.033-.032-.075 0-.108.033-.032.092-.049.15-.041h2.652c.058-.008.117.009.15.041.032.033.032.075 0 .108-.033.032-.092.049-.15.041zm-3.94 1h-.772c-.066-.009-.114-.049-.114-.095s.048-.086.114-.095h.772c.066.009.114.049.114.095s-.048.086-.114.095zM308.998 16c-.051 0-.093-.094-.093-.21v-1.614c.009-.102.049-.176.095-.176s.086.074.095.176v1.614c-.002.117-.045.21-.097.21zm-5.845-12a.16.16 0 0 1-.132-.081.172.172 0 0 1-.016-.125.16.16 0 0 1 .073-.099l2.694-1.675a.15.15 0 0 1 .207.062c.02.038.026.083.016.125a.16.16 0 0 1-.073.098l-2.694 1.676a.109.109 0 0 1-.075.018z"/><path fill="#3E1EC4" fill-rule="nonzero" d="M538 49.204v-6.366a1.637 1.637 0 0 0-.796-1.419l-5.388-3.202a1.583 1.583 0 0 0-1.601 0l-5.41 3.165c-.495.291-.802.83-.805 1.414v6.366a1.642 1.642 0 0 0 .796 1.419l5.388 3.202c.496.29 1.105.29 1.601 0l5.41-3.165c.497-.29.804-.83.805-1.414Z" opacity=".32"/><path fill="#52D2BC" fill-rule="nonzero" d="M538 49.223v-6.377a1.667 1.667 0 0 0-.796-1.421l-5.367-3.207a1.57 1.57 0 0 0-1.596 0l-5.414 3.17c-.497.29-.802.83-.801 1.416l-.026 6.35c.002.584.304 1.124.796 1.421l5.388 3.207a1.58 1.58 0 0 0 1.601 0l5.414-3.17c.489-.286.793-.814.801-1.39Z"/><path fill="#FFF" fill-rule="nonzero" d="M524.89 48.997a.1.1 0 0 1-.05 0 1.635 1.635 0 0 1-.84-1.42v-5.975a1.641 1.641 0 0 1 .85-1.415l5.324-2.97a1.74 1.74 0 0 1 1.683 0l5.304 3.004c.519.298.838.84.839 1.426a.116.116 0 0 1-.112.104.11.11 0 0 1-.107-.11c.002-.508-.275-.98-.727-1.236L531.75 37.4a1.51 1.51 0 0 0-1.47 0l-5.324 2.97a1.42 1.42 0 0 0-.737 1.232v5.974c0 .51.279.982.732 1.238.05.03.068.092.04.143a.119.119 0 0 1-.101.04Z"/><path fill="#FFF" fill-rule="nonzero" d="m535.328 47.174.672-1.158-.667-1.163.005-1.34-1.158-.672-.667-1.163-1.339-.006-1.158-.672-1.163.667-1.34-.005-.672 1.158-1.163.667-.006 1.339-.672 1.158.667 1.163-.005 1.34 1.158.672.661 1.163 1.345.006 1.158.672 1.163-.667 1.34.005.672-1.158 1.163-.667z"/><path fill="#6535FF" fill-rule="nonzero" d="M530.1 51h-1.378a.117.117 0 0 1-.1-.062l-.682-1.188-1.183-.692a.106.106 0 0 1-.061-.1v-1.374l-.681-1.188a.123.123 0 0 1 0-.117l.692-1.183v-1.373a.112.112 0 0 1 .056-.1l1.188-.681.693-1.183a.106.106 0 0 1 .1-.062h1.367l1.19-.68a.123.123 0 0 1 .122 0l1.183.686h1.367a.106.106 0 0 1 .1.061l.682 1.189 1.188.686a.117.117 0 0 1 .04.162.117.117 0 0 1-.162.045l-1.211-.703a.1.1 0 0 1-.04-.045l-.664-1.155h-1.333a.128.128 0 0 1-.062 0l-1.15-.67-1.155.664h-1.395l-.67 1.155-.044.045-1.167.647v1.34a.112.112 0 0 1 0 .06l-.67 1.15.665 1.161a.106.106 0 0 1 0 .056v1.334l1.15.67a.167.167 0 0 1 .044.044l.664 1.155h1.334a.123.123 0 0 1 .08.212.123.123 0 0 1-.097.033Z"/><circle cx="531" cy="45" r="2" fill="#FCCDD3" fill-rule="nonzero"/><path fill="#6535FF" fill-rule="nonzero" d="M529.965 47.995a.166.166 0 0 1-.085 0c-.667-.513-.99-1.318-.847-2.113.143-.794.73-1.458 1.541-1.74.81-.281 1.72-.14 2.388.374.05.05.05.13 0 .18a.141.141 0 0 1-.097.038.141.141 0 0 1-.097-.038 2.286 2.286 0 0 0-1.573-.446c-.863.08-1.59.635-1.843 1.407-.254.773.016 1.611.684 2.127.05.05.05.13 0 .18a.168.168 0 0 1-.071.03Z"/><path fill="#6534FF" fill-rule="nonzero" d="m538.18 41.413-5.464-3.207a1.607 1.607 0 0 0-.61-.206 3.124 3.124 0 0 0-.251.777c-.128.92-.04 1.857.257 2.737.296.876.54 1.768.73 2.673a6.83 6.83 0 0 1-.43 3.699c-.63 1.521-1.803 2.8-2.244 4.39a5.204 5.204 0 0 0-.168.899l1.05.607c.505.29 1.125.29 1.63 0l5.506-3.17c.504-.29.815-.831.814-1.416v-6.377a1.66 1.66 0 0 0-.82-1.406Z" opacity=".32"/><path fill="#FFF" fill-rule="nonzero" d="M532.116 53c-.051.007-.099-.036-.112-.102-.014-.066.01-.135.057-.164l4.78-3.713a.083.083 0 0 1 .08-.017c.027.009.05.031.065.063a.18.18 0 0 1 .01.107.14.14 0 0 1-.05.085l-4.78 3.72a.079.079 0 0 1-.05.02Z"/><path fill="#3E1EC4" fill-rule="nonzero" d="M220 42.714v-4.38c-.004-.4-.242-.769-.627-.973l-4.254-2.21a1.398 1.398 0 0 0-1.265 0l-4.216 2.161c-.39.201-.633.571-.638.974v4.38c0 .4.24.771.627.973l4.254 2.21c.391.201.874.201 1.265 0l4.27-2.186c.365-.205.585-.564.584-.949Z" opacity=".32"/><path fill="#52D2BC" fill-rule="nonzero" d="M220 41.7v-4.372c-.003-.4-.242-.77-.63-.971l-4.232-2.206a1.375 1.375 0 0 0-1.254 0l-4.254 2.177c-.388.2-.627.57-.63.971v4.373c-.003.4.236.772.624.971l4.233 2.206c.39.201.87.201 1.259 0l4.25-2.181c.387-.199.63-.567.634-.967Z"/><path fill="#FFF" fill-rule="nonzero" d="M208.699 43.996a.057.057 0 0 1-.043 0A1.378 1.378 0 0 1 208 42.81v-4.966c0-.504.269-.967.699-1.203l4.16-2.46c.41-.241.91-.241 1.319 0l4.16 2.504c.41.245.662.697.662 1.186a.09.09 0 0 1-.025.063.084.084 0 0 1-.06.026.087.087 0 0 1-.086-.089 1.2 1.2 0 0 0-.57-1.031l-4.167-2.505a1.12 1.12 0 0 0-1.152 0l-4.177 2.471a1.209 1.209 0 0 0-.598 1.016v4.965c-.003.426.215.82.571 1.032.04.026.053.079.032.122a.086.086 0 0 1-.07.055Z"/><path fill="#FFF" fill-rule="nonzero" d="m217.526 40.319.474-.809-.469-.814.005-.939-.809-.469-.47-.814-.938-.005-.809-.469-.814.464h-.939l-.469.809-.814.465-.005.938-.469.809.464.814-.005.939.814.469.465.819h.938l.809.474.814-.469.939.005.474-.809.814-.47z"/><path fill="#6535FF" fill-rule="nonzero" d="M212.896 43h-.977a.084.084 0 0 1-.073-.042l-.476-.83-.836-.486a.084.084 0 0 1-.042-.073v-.956l-.48-.835a.073.073 0 0 1 0-.079l.48-.83v-.961c0-.029.016-.056.042-.068l.831-.48.48-.826a.084.084 0 0 1 .074-.041h.956l.837-.48a.078.078 0 0 1 .083 0l.826.485h.962c.029 0 .055.015.068.042l.48.835.826.48a.084.084 0 0 1 .032.116.084.084 0 0 1-.115 0l-.847-.491-.031-.032-.46-.81h-.936a.058.058 0 0 1-.042 0l-.804-.47-.816.466H211.966l-.47.81a.089.089 0 0 1-.032.03l-.81.465v.95a.057.057 0 0 1 0 .043l-.465.81.46.809a.057.057 0 0 1 0 .041v.93l.805.47a.047.047 0 0 1 .031.031l.465.81h.93a.084.084 0 0 1 .084.083c.001.041-.028.076-.068.084Z"/><circle cx="213.5" cy="39.5" r="1.5" fill="#FCCDD3" fill-rule="nonzero"/><path fill="#6535FF" fill-rule="nonzero" d="M212.755 40.996a.116.116 0 0 1-.064 0c-.514-.375-.77-.98-.67-1.582.102-.602.546-1.105 1.159-1.313a1.89 1.89 0 0 1 1.79.311.087.087 0 0 1 0 .132.108.108 0 0 1-.142 0 1.657 1.657 0 0 0-1.16-.336c-.42.037-.806.229-1.073.533-.27.302-.399.693-.36 1.085.04.391.246.752.571 1.002.02.018.031.043.031.069 0 .026-.01.05-.03.069a.117.117 0 0 1-.052.03Z"/><path fill="#6534FF" fill-rule="nonzero" d="m218.488 36.345-3.659-2.204a1.027 1.027 0 0 0-.408-.141c-.077.17-.134.35-.169.534a4.272 4.272 0 0 0 .174 1.879c.19.603.347 1.217.47 1.84a4.87 4.87 0 0 1-.287 2.548c-.422 1.043-1.206 1.941-1.501 3.014a3.46 3.46 0 0 0-.108.617l.69.417c.336.201.751.201 1.088 0l3.673-2.18c.337-.199.546-.568.549-.97V37.33a1.142 1.142 0 0 0-.512-.985Z" opacity=".32"/><path fill="#FFF" fill-rule="nonzero" d="M214.093 45c-.029-.002-.055-.022-.07-.053a.125.125 0 0 1 0-.146l3.852-2.773c.03-.037.08-.037.112 0 .025.05.013.115-.027.146l-3.851 2.78-.016.046Z"/><path fill="#3E1EC4" fill-rule="nonzero" d="M338 47.212v-2.406a.611.611 0 0 0-.284-.51l-1.925-1.212a.527.527 0 0 0-.572 0l-1.93 1.196a.616.616 0 0 0-.289.51v2.407a.622.622 0 0 0 .284.51l1.925 1.211a.54.54 0 0 0 .572 0l1.935-1.195a.643.643 0 0 0 .284-.511Z" opacity=".32"/><path fill="#52D2BC" fill-rule="nonzero" d="M338 47.21v-2.394a.617.617 0 0 0-.283-.507l-1.89-1.228a.54.54 0 0 0-.57 0l-1.927 1.187a.617.617 0 0 0-.283.507L333 47.21c.006.21.113.402.283.507l1.918 1.202a.54.54 0 0 0 .57 0l1.942-1.202a.637.637 0 0 0 .287-.507Z"/><path fill="#FFF" fill-rule="nonzero" d="M333.298 46.984a.7.7 0 0 1-.298-.59v-2.488a.704.704 0 0 1 .302-.584l1.903-1.231a.54.54 0 0 1 .6 0l1.893 1.247a.704.704 0 0 1 .302.59.045.045 0 0 1-.012.031.034.034 0 0 1-.03.01c-.02 0-.037-.019-.037-.042a.615.615 0 0 0-.26-.526l-1.894-1.247a.477.477 0 0 0-.525 0l-1.898 1.231a.608.608 0 0 0-.265.526v2.479a.626.626 0 0 0 .26.526.048.048 0 0 1 .023.042.048.048 0 0 1-.022.042l-.042-.016Z"/><path fill="#FFF" fill-rule="nonzero" d="m337.732 45.47.268-.465-.268-.464.005-.536-.465-.267-.268-.465h-.536l-.46-.273-.47.268h-.537l-.268.459-.465.268v.535l-.268.465.263.464v.536l.465.267.262.465.537.005.465.268.465-.268h.536l.268-.459.465-.268z"/><path fill="#6535FF" fill-rule="nonzero" d="M335.632 46.995h-.571a.046.046 0 0 1-.04 0l-.274-.474-.474-.28a.046.046 0 0 1 0-.04v-.573l-.269-.474a.063.063 0 0 1 0-.046l.274-.475v-.572a.069.069 0 0 1 0-.04l.474-.269.275-.474a.04.04 0 0 1 .04 0h.57l.475-.27a.034.034 0 0 1 .045 0l.474.275h.571a.046.046 0 0 1 .04 0l.274.475.469.28a.04.04 0 0 1 0 .063.046.046 0 0 1-.063 0l-.485-.286-.263-.457h-.571l-.463-.27-.462.27h-.572l-.268.463-.462.263v.532l-.263.458.263.463v.532l.456.269.269.463h.53a.04.04 0 0 1 .047.046.078.078 0 0 1-.046.148Z"/><circle cx="336" cy="45" r="1" fill="#FCCDD3" fill-rule="nonzero"/><path fill="#6535FF" fill-rule="nonzero" d="M335.22 45.993c-.124-.192-.203-.468-.218-.768-.013-.296.036-.59.136-.822.104-.23.252-.373.412-.399.16-.025.317.066.441.253a.103.103 0 0 1 0 .085c-.014.023-.035.023-.05 0-.165-.258-.398-.303-.59-.114-.19.188-.3.574-.279.974.014.261.082.501.19.669a.091.091 0 0 1 .01.046.091.091 0 0 1-.01.046c-.003.015-.01.027-.017.033-.008.006-.017.005-.024-.003Z"/><path fill="#6534FF" fill-rule="nonzero" d="m337.632 44.28-2.413-1.204a.862.862 0 0 0-.272-.076c-.052.092-.09.19-.114.29-.057.34-.018.688.114 1.015.132.332.241.671.326 1.015.092.47.025.951-.193 1.39-.278.569-.809 1.051-1.002 1.645-.04.11-.067.225-.078.34l.465.223a.858.858 0 0 0 .73 0l2.437-1.202c.225-.112.364-.314.368-.533v-2.37c.001-.222-.14-.425-.368-.534Z" opacity=".32"/><path fill="#FFF" fill-rule="nonzero" d="M335.046 47.997a.06.06 0 0 1-.036 0 .037.037 0 0 1 0-.05l1.912-.936a.053.053 0 0 1 .051-.008c.017.007.028.022.027.038-.001.016-.014.03-.032.034l-1.922.918v.004zm64.07 25a.851.851 0 0 0 .542-.145l2.712-1.885a.766.766 0 0 0 .325-.566L403 66.03a.316.316 0 0 0-.212-.322c-.979-.388-2.018-.62-3.075-.685a10.322 10.322 0 0 0-3.146.28.331.331 0 0 0-.255.296l-.309 4.372a.736.736 0 0 0 .244.603l2.408 2.212c.124.12.287.194.461.213z"/><path fill="#52D2BC" fill-rule="nonzero" d="m398.975 69.899 1.025-.76L398.935 71 398 69z"/><path fill="#6535FF" fill-rule="nonzero" d="M398.944 71 398 69l.985.889 1.015-.75-1.086 1.854.03.007Zm-.914-1.951.914 1.91 1.046-1.778-1.015.694-.945-.826Z"/><path fill="#52D2BC" fill-rule="nonzero" d="M399.995 68.544h-.005l-1.025.456-.96-.541H398l.005-.005H398L399.07 67l.93 1.539-.005.005z"/><path fill="#6535FF" fill-rule="nonzero" d="m399.947 69-.947-.544L400.073 67l.927 1.546-1.003.45-.05.004Zm-.947-.566.947.544 1.003-.45-.912-1.524-1.038 1.43Z"/><path fill="#6535FF" fill-rule="nonzero" d="m396.285 65.824-.283 4.061a.986.986 0 0 0 .314.782l2.202 2.058c.36.332.913.368 1.315.085l2.47-1.753a.995.995 0 0 0 .417-.731L403 66.26a.58.58 0 0 0-.377-.58 9.538 9.538 0 0 0-5.883-.387.59.59 0 0 0-.454.531Zm.294 0c.01-.13.103-.24.232-.275a9.317 9.317 0 0 1 2.883-.266c.968.066 1.92.28 2.82.636a.305.305 0 0 1 .19.306l-.278 4.061a.697.697 0 0 1-.299.5l-2.47 1.753a.7.7 0 0 1-.48.136.727.727 0 0 1-.453-.196l-2.207-2.058a.695.695 0 0 1-.221-.556l.283-4.04Z"/><path fill="#BBC4EF" fill-rule="nonzero" d="m396.003 69.921.352-4.093c.02-.255.248-.471.563-.534a14.294 14.294 0 0 1 3.038-.293c-.358.349-.62.753-.768 1.186a7.651 7.651 0 0 0-.339 1.6c-.044.288-.044.58 0 .868.122.701.742 1.287 1.005 1.958.195.56.195 1.15 0 1.71-.073.23-.165.457-.275.677a1.327 1.327 0 0 1-.442-.217l-2.744-2.064c-.273-.207-.416-.5-.39-.798Z" opacity=".44"/><path fill="#070707" fill-rule="nonzero" d="m401.095 71 1.614-.416c.124.008.23-.108.242-.262l.048-1.02a.33.33 0 0 0-.054-.205.214.214 0 0 0-.155-.097l-1.614.423c-.039-.005-.076.02-.095.062a.146.146 0 0 0 .009.132l.57.282a.144.144 0 0 1 0 .161l-.624.725a.14.14 0 0 0-.03.133c.013.049.048.081.09.082zm-4.177-2.403-1.619-.596a.221.221 0 0 0-.17.06.258.258 0 0 0-.079.172l-.05.908a.257.257 0 0 0 .057.18c.04.05.098.08.16.082l1.618.597a.104.104 0 0 0 .096-.06.121.121 0 0 0-.007-.12l-.553-.733a.114.114 0 0 1 0-.143l.602-.167a.114.114 0 0 0 .022-.108.102.102 0 0 0-.077-.072z" opacity=".18"/><path fill="#FCCDD3" fill-rule="nonzero" d="m401.085 69.886 1.61.114c.123.007.23-.096.24-.234l.065-1.382c.003-.14-.09-.257-.215-.27L401.176 68a.095.095 0 0 0-.095.06.118.118 0 0 0 .015.12l.536.73a.124.124 0 0 1 0 .15l-.611.652a.118.118 0 0 0-.014.108.099.099 0 0 0 .078.066zm-4.17-1.778-1.6-.107a.205.205 0 0 0-.161.06.257.257 0 0 0-.073.172l-.08 1.39a.264.264 0 0 0 .054.181c.04.05.095.08.154.083l1.6.113a.095.095 0 0 0 .09-.058.118.118 0 0 0-.01-.115l-.534-.734a.11.11 0 0 1 0-.143l.608-.65a.115.115 0 0 0 .033-.114.1.1 0 0 0-.08-.078z"/><path fill="#6535FF" fill-rule="nonzero" d="m402.653 71-1.508-.127c-.061 0-.115-.05-.136-.126a.255.255 0 0 1 .04-.22l.573-.727a.054.054 0 0 1 .043-.023c.016 0 .031.008.043.023a.108.108 0 0 1 0 .12l-.573.727a.051.051 0 0 0 0 .04l1.508.126c.041.01.083-.01.11-.053a.229.229 0 0 0 .05-.133l.076-1.553a.09.09 0 0 1 .021-.055.051.051 0 0 1 .044-.019c.016.002.031.012.042.028.01.017.015.038.014.059l-.076 1.546a.424.424 0 0 1-.09.254.247.247 0 0 1-.181.113zm-5.88-1-1.68-.124c-.03.01-.062-.003-.08-.032a.096.096 0 0 1 0-.098c.018-.029.05-.042.08-.032l1.68.123c.01.006.023.006.034 0v-.039l-.56-.8a.219.219 0 0 1 0-.266l.638-.71a.06.06 0 0 1 .095 0c.027.031.027.08 0 .111l-.638.716a.035.035 0 0 0-.011.026c0 .01.004.02.01.026l.56.793a.23.23 0 0 1 0 .215.156.156 0 0 1-.128.091z"/><path fill="#BBC4EF" fill-rule="nonzero" d="M399.089 73c-.037.004-.072-.015-.084-.047-.013-.03 0-.065.031-.083l2.83-1.85a.084.084 0 0 1 .056-.02c.021 0 .042.007.056.02a.076.076 0 0 1 0 .107l-2.823 1.843a.075.075 0 0 1-.066.03Z"/><path fill="#4A23E8" fill-rule="nonzero" d="m198.218 164.996-2.2-5.246a.956.956 0 0 0-.398-.455 1.017 1.017 0 0 0-.719-.295.994.994 0 0 0-.917.595l-2.206 5.225a9.94 9.94 0 0 0-.097 7.47l2.308 5.94c.219.412.63.7 1.106.77a.976.976 0 0 0 .923-.616l2.313-5.939a9.94 9.94 0 0 0-.113-7.45zm-7.95 5.016a5.235 5.235 0 0 0-.205-3.615l-1.144-2.595c-.214-.492-.656-.803-1.138-.802a.558.558 0 0 0-.504.356l-1.34 3.052a5.235 5.235 0 0 0-.205 3.615l.467 1.592a.717.717 0 0 1-.024.494l-.751 1.778c-.648 1.489-.548 3.257.261 4.64l1.279 2.186c.105.178.28.285.467.287h1.138a.555.555 0 0 0 .467-.287l1.279-2.187c.809-1.382.909-3.15.261-4.639l-.112-.26a5.278 5.278 0 0 1-.196-3.615z"/><circle cx="204.5" cy="100.5" r="2.5" fill="#52D2BC" fill-rule="nonzero"/><circle cx="200.5" cy="94.5" r="1.5" fill="#52D2BC" fill-rule="nonzero"/><circle cx="208.5" cy="93.5" r="3.5" fill="#62BCF9" fill-rule="nonzero"/><circle cx="512.5" cy="142.5" r="2.5" fill="#52D2BC" fill-rule="nonzero"/><circle cx="509.5" cy="136.5" r="1.5" fill="#52D2BC" fill-rule="nonzero"/><circle cx="516.5" cy="134.5" r="3.5" fill="#62BCF9" fill-rule="nonzero"/><path fill="#FFF" fill-rule="nonzero" d="M193.31 142.997a.27.27 0 0 1-.25-.093.255.255 0 0 1-.042-.257.266.266 0 0 1 .207-.165c.75-.231 1.477-.514 2.226-.807a.265.265 0 0 1 .204-.006.255.255 0 0 1 .145.14c.028.062.03.134.003.197a.26.26 0 0 1-.14.142 25.26 25.26 0 0 1-2.274.828l-.08.02Zm4.405-1.836a.265.265 0 0 1-.238-.134.259.259 0 0 1 .111-.355 25.636 25.636 0 0 0 2.026-1.193.273.273 0 0 1 .351.083.258.258 0 0 1-.05.35c-.67.436-1.367.843-2.074 1.218a.285.285 0 0 1-.126.03Zm3.978-2.597a.264.264 0 0 1-.252-.17.253.253 0 0 1 .083-.288 31.767 31.767 0 0 0 1.762-1.543.267.267 0 0 1 .453.183.254.254 0 0 1-.078.182c-.57.55-1.177 1.08-1.8 1.58a.268.268 0 0 1-.168.056Zm3.398-3.281a.262.262 0 0 1-.17-.062.258.258 0 0 1-.036-.365c.501-.586.981-1.209 1.424-1.846a.273.273 0 0 1 .37-.072.252.252 0 0 1 .069.36c-.451.654-.935 1.286-1.452 1.892a.267.267 0 0 1-.205.093Zm2.68-3.868a.258.258 0 0 1-.127-.03.259.259 0 0 1-.13-.153.251.251 0 0 1 .02-.197c.374-.674.717-1.378 1.023-2.083a.268.268 0 0 1 .455-.06c.058.073.071.17.036.256a21.76 21.76 0 0 1-1.056 2.134.259.259 0 0 1-.21.133h-.011Zm1.841-4.304h-.074a.263.263 0 0 1-.16-.125.251.251 0 0 1-.02-.199c.228-.73.428-1.486.581-2.242a.257.257 0 0 1 .115-.165.27.27 0 0 1 .202-.036c.07.013.13.052.17.11a.247.247 0 0 1 .036.194 23.516 23.516 0 0 1-.591 2.288.268.268 0 0 1-.259.185v-.01Zm.955-4.572a.264.264 0 0 1-.237-.288 25.96 25.96 0 0 0 .147-2.309.26.26 0 0 1 .264-.252c.07 0 .138.028.187.078.049.05.075.116.072.184 0 .787-.058 1.58-.148 2.356a.25.25 0 0 1-.092.174.263.263 0 0 1-.193.057Zm.08-4.664a.266.266 0 0 1-.265-.242 25.343 25.343 0 0 0-.28-2.299.258.258 0 0 1 .082-.269.275.275 0 0 1 .284-.044c.095.04.158.13.162.231.127.761.222 1.543.285 2.345a.27.27 0 0 1-.248.278h-.02Z"/><path fill="#BBC4EF" fill-rule="nonzero" d="M389.177 45c-.102-.02-.177-.125-.177-.25 0-.124.075-.23.177-.249h6.63l4.969-.498a.171.171 0 0 1 .155.052.256.256 0 0 1 .068.176c.009.137-.075.258-.188.27l-4.97.499h-6.664Z"/><circle cx="397.5" cy="45.5" r="2.5" fill="#BBC4EF" fill-rule="nonzero"/><circle cx="391" cy="46" r="2" fill="#BBC4EF" fill-rule="nonzero"/><path fill="#6535FF" fill-rule="nonzero" d="M398.774 46a.237.237 0 0 1-.161-.065l-1.564-1.57a.226.226 0 0 1 .317-.316l1.564 1.57a.215.215 0 0 1 0 .316.215.215 0 0 1-.156.065zm-1.974 0a.205.205 0 0 1-.147-.059l-.609-.61a.205.205 0 0 1 .288-.287l.609.61a.205.205 0 0 1 0 .287.205.205 0 0 1-.141.059zm-5.024 0a.226.226 0 0 1-.156-.065l-1.571-1.57a.226.226 0 0 1 .317-.316l1.571 1.57a.226.226 0 0 1-.161.381zm.968 0a.267.267 0 0 1-.183-.074l-.506-.509a.259.259 0 0 1 .02-.342.255.255 0 0 1 .34-.02l.506.51a.246.246 0 0 1 0 .361.243.243 0 0 1-.177.074z"/><path fill="#3E1EC4" fill-rule="nonzero" d="M255 53.334c0-.216-.149-.392-.334-.395a.386.386 0 0 0 .205-.309.423.423 0 0 0-.127-.36.296.296 0 0 0-.33-.053.447.447 0 0 0 .085-.34.4.4 0 0 0-.18-.287h-.041a.305.305 0 0 0-.343.095 1.566 1.566 0 0 1-.952-.685c-.185 0-.334.175-.334.39a.354.354 0 0 0-.235-.233.3.3 0 0 0-.298.09.228.228 0 0 0-.031.037.466.466 0 0 0-.059.4.296.296 0 0 0-.338-.089h-.041a.39.39 0 0 0-.181.288.432.432 0 0 0 .095.34c-.167-.074-.354.02-.424.211-.07.192.001.414.162.505-.17.023-.299.192-.299.392s.129.37.3.393c-.152.068-.24.254-.208.44.033.187.176.319.338.313a.29.29 0 0 0 .118 0 .435.435 0 0 0-.087.34c.02.124.089.228.186.282h.04a.31.31 0 0 0 .344-.1.445.445 0 0 0 .04.384l.05.063-.41 1.001a.078.078 0 0 0 .007.072c.015.02.038.03.06.023l.451-.142c.027-.006.055.008.068.037l.203.526c.01.023.03.037.052.037a.058.058 0 0 0 .052-.037l.383-.948.388.948c.01.023.03.037.052.037a.058.058 0 0 0 .052-.037l.199-.526c.015-.028.044-.043.072-.037l.451.142a.054.054 0 0 0 .06-.023.078.078 0 0 0 .008-.072l-.406-1a.13.13 0 0 0 .036-.038c.079-.11.1-.261.054-.395.092.098.22.13.338.085h.046a.396.396 0 0 0 .18-.291.438.438 0 0 0-.095-.342c.04.021.083.032.127.032.135-.002.257-.097.311-.242a.45.45 0 0 0 .009-.308.368.368 0 0 0-.185-.22c.18-.01.319-.185.316-.394Z" opacity=".32"/><path fill="#F9879A" fill-rule="nonzero" d="m255.918 57.524-.626-.148c-.038-.011-.08.006-.094.038l-.282.548a.084.084 0 0 1-.072.038.084.084 0 0 1-.072-.038l-.765-1.413c-.018-.035-.001-.076.038-.093l1.084-.45c.04-.015.087 0 .106.033l.765 1.408a.066.066 0 0 1-.022.054.087.087 0 0 1-.06.023Z"/><path fill="#F9879A" fill-rule="nonzero" d="m253.075 57.52.627-.148c.04-.012.083.005.1.038l.276.546a.082.082 0 0 0 .076.044.082.082 0 0 0 .075-.044l.765-1.409a.063.063 0 0 0 0-.054.077.077 0 0 0-.044-.038l-1.078-.448c-.042-.017-.091-.002-.113.033L253 57.443a.065.065 0 0 0 .02.052.086.086 0 0 0 .055.024Z"/><path fill="#6534FF" fill-rule="nonzero" d="M253.937 56.094 253.78 56a.768.768 0 0 1-.167.525c-.092.101-.211.155-.308.256-.084.088-.156.19-.217.303a.818.818 0 0 0-.086.189.973.973 0 0 0 0 .12l.205.553c.011.033.037.054.065.054.029 0 .054-.021.065-.054l.66-1.737a.106.106 0 0 0-.008-.075.07.07 0 0 0-.052-.04zm1.202-1.043a.082.082 0 0 0-.09-.05 1.712 1.712 0 0 0 0 .184c.013.25.002.502-.034.75a.983.983 0 0 0 0 .347c.062.227.296.34.475.482.067.053.129.112.186.177l.213.056a.088.088 0 0 0 .09-.03.094.094 0 0 0 .013-.097l-.853-1.82z" opacity=".32"/><path fill="#6534FF" fill-rule="nonzero" d="M255.513 55a.49.49 0 0 0-.336.14.503.503 0 0 0-.203-.044.424.424 0 0 0-.165.031.492.492 0 0 0-.322-.127c-.269 0-.487.202-.487.452s.218.452.487.452c.057 0 .113-.01.165-.031.086.079.201.124.322.127a.49.49 0 0 0 .336-.14c.063.03.132.045.203.044.269 0 .487-.203.487-.452 0-.25-.218-.452-.487-.452Z" opacity=".32"/><path fill="#FFF" fill-rule="nonzero" d="M256 53.99a.338.338 0 0 0-.336-.336.34.34 0 0 0 .18-.454.332.332 0 0 0-.448-.186.339.339 0 0 0-.095-.536h-.045a.338.338 0 0 0-.34.086.337.337 0 0 0-.181-.426.33.33 0 0 0-.43.163.338.338 0 0 0-.333-.301c-.171 0-.315.13-.334.301a.324.324 0 0 0-.524-.123l-.037.032a.34.34 0 0 0-.053.34.346.346 0 0 0-.337-.076h-.044a.348.348 0 0 0-.085.545.33.33 0 0 0-.422.182.338.338 0 0 0 .161.434.339.339 0 0 0-.297.339c0 .172.128.318.297.338a.344.344 0 0 0-.18.454h.001a.34.34 0 0 0 .31.208c.041 0 .082-.01.12-.027a.339.339 0 0 0 .095.536h.044a.329.329 0 0 0 .337-.082.34.34 0 0 0 .04.331c.019.025.042.046.067.064.058.046.129.07.202.068.131 0 .25-.079.305-.2 0 .186.148.336.331.336.184 0 .332-.15.332-.336a.336.336 0 0 0 .53.123l.03-.032a.348.348 0 0 0 .059-.345.324.324 0 0 0 .336.077h.04a.338.338 0 0 0 .085-.54.315.315 0 0 0 .256 0c.08-.034.145-.1.18-.181a.34.34 0 0 0-.176-.454.342.342 0 0 0 .359-.323Z"/><path fill="#62BCF9" fill-rule="nonzero" d="M252.732 54.997h-.049a.43.43 0 0 1-.197-.302c-.013-.09 0-.18.035-.262-.156.014-.303-.09-.363-.256a.44.44 0 0 1 .11-.503c-.158-.05-.266-.215-.268-.402.003-.181.107-.34.258-.392a.458.458 0 0 1-.105-.477c.062-.17.214-.273.373-.252a.5.5 0 0 1-.04-.266.42.42 0 0 1 .193-.312h.048a.333.333 0 0 1 .285.025.449.449 0 0 1 .083-.306l.035-.046a.33.33 0 0 1 .325-.085c.077.02.147.07.197.14.046-.177.188-.3.35-.301.157.002.295.12.342.292a.34.34 0 0 1 .332-.145.376.376 0 0 1 .281.25c.021.066.03.136.027.206a.315.315 0 0 1 .284-.03h.049c.104.058.178.17.197.302a.5.5 0 0 1-.035.266c.156-.016.303.086.363.251a.446.446 0 0 1-.105.503c.154.053.26.213.263.397 0 .023-.015.043-.035.046-.022 0-.04-.02-.04-.046a.351.351 0 0 0-.089-.238.264.264 0 0 0-.213-.088.05.05 0 0 1-.04-.036.047.047 0 0 1 .023-.045c.137-.073.202-.256.148-.42-.054-.162-.209-.249-.354-.198a.035.035 0 0 1-.044 0 .045.045 0 0 1 0-.05.388.388 0 0 0 .074-.287.34.34 0 0 0-.157-.241h-.04a.268.268 0 0 0-.293.085.035.035 0 0 1-.048 0 .045.045 0 0 1 0-.05.371.371 0 0 0 0-.255.308.308 0 0 0-.158-.177c-.145-.068-.311.007-.377.17h-.04c-.015-.004-.026-.02-.026-.04-.007-.178-.133-.319-.289-.321a.27.27 0 0 0-.207.095.358.358 0 0 0-.086.236.05.05 0 0 1-.031.046c-.018 0-.034-.012-.04-.03a.308.308 0 0 0-.201-.197.27.27 0 0 0-.258.076.376.376 0 0 0-.079.367.05.05 0 0 1 0 .05.032.032 0 0 1-.044 0 .275.275 0 0 0-.298-.106h-.035a.326.326 0 0 0-.158.247.369.369 0 0 0 .083.286.045.045 0 0 1 0 .056.032.032 0 0 1-.043 0c-.148-.073-.319.006-.382.176-.062.169.006.365.154.437a.032.032 0 0 1 .02.017.04.04 0 0 1 .002.028c-.004.018-.019.03-.035.03-.156.008-.279.154-.28.332a.36.36 0 0 0 .082.238.272.272 0 0 0 .206.099c.018 0 .033.015.035.035.001.02-.01.039-.026.045-.146.074-.214.268-.153.438.06.166.226.247.372.18a.028.028 0 0 1 .04 0c.01.015.01.036 0 .05a.382.382 0 0 0-.075.287.34.34 0 0 0 .158.242h.04c.01.014.01.035 0 .05.02.01.03.037.021.06-.008.024-.032.035-.052.026Z"/><circle cx="254" cy="54" r="2" fill="#BBC4EF" fill-rule="nonzero" opacity=".32"/><path fill="#BBC4EF" fill-rule="nonzero" d="M253.033 53c-.013-.003-.023-.015-.029-.03a.08.08 0 0 1 0-.052c.193-.842.654-1.503 1.243-1.78.588-.276 1.234-.134 1.738.381a.08.08 0 0 1 .015.05.08.08 0 0 1-.015.048c-.019.02-.045.02-.063 0-.827-.85-1.98-.588-2.58.59-.113.225-.201.473-.263.736-.003.033-.023.057-.046.057Z"/><path fill="#6534FF" fill-rule="nonzero" d="M257 53.756c-.004-.204-.208-.368-.459-.368a.42.42 0 0 0 .254-.206.306.306 0 0 0-.01-.292.424.424 0 0 0-.251-.207.555.555 0 0 0-.36.003.326.326 0 0 0 .12-.32.388.388 0 0 0-.247-.267h-.062a.54.54 0 0 0-.464.095.274.274 0 0 0 .03-.194.767.767 0 0 0-.189.274c-.029.104-.05.21-.06.318a1.34 1.34 0 0 1-.288.612c-.303.26-.568.55-.788.86a1.97 1.97 0 0 0-.085.886c.005.335-.042.67-.141.995.14.07.315.074.458.008.144-.065.233-.188.232-.322.073.137.24.225.422.224a.51.51 0 0 0 .3-.09l.042-.034a.325.325 0 0 0 .08-.378c.12.096.298.13.458.084h.055a.384.384 0 0 0 .245-.271.329.329 0 0 0-.13-.32.52.52 0 0 0 .349 0 .425.425 0 0 0 .244-.2.306.306 0 0 0 .012-.29.418.418 0 0 0-.25-.207.526.526 0 0 0 .347-.11.344.344 0 0 0 .136-.283Z" opacity=".32"/><path fill="#3E1EC4" fill-rule="nonzero" d="m304.995 66.525-.243-1.59a.433.433 0 0 0-.265-.32l-1.573-.587a.468.468 0 0 0-.427.056l-1.322.993a.419.419 0 0 0-.162.381l.238 1.59a.433.433 0 0 0 .27.325l1.56.595c.15.059.322.036.45-.06l1.321-.994a.418.418 0 0 0 .153-.39Z" opacity=".32"/><path fill="#52D2BC" fill-rule="nonzero" d="m304.995 66.536-.244-1.589a.407.407 0 0 0-.266-.32l-1.567-.6a.47.47 0 0 0-.428.06l-1.325.993a.418.418 0 0 0-.162.381l.239 1.589a.433.433 0 0 0 .27.321l1.568.595a.47.47 0 0 0 .45-.055l1.325-.994a.416.416 0 0 0 .14-.381Z"/><path fill="#FFF" fill-rule="nonzero" d="M301.557 66.989a.492.492 0 0 1-.296-.401l-.254-1.838a.535.535 0 0 1 .179-.496l1.409-1.144a.45.45 0 0 1 .47-.074l1.634.688c.163.065.28.22.301.401a.034.034 0 0 1-.028.035.029.029 0 0 1-.028-.025.447.447 0 0 0-.263-.351l-1.63-.689a.4.4 0 0 0-.418.064l-1.382 1.145a.473.473 0 0 0-.16.416l.254 1.833a.433.433 0 0 0 .259.352.03.03 0 0 1 0 .04.035.035 0 0 1-.003.046.03.03 0 0 1-.044-.002Z"/><path fill="#FFF" fill-rule="nonzero" d="m303.854 65.659.146-.376-.25-.318-.058-.402-.375-.156-.251-.318-.407.057-.376-.146-.318.25-.402.058-.151.375-.318.251.057.402-.151.381.25.318.058.402.375.151.256.318.402-.057.376.151.318-.25.402-.058.151-.375.323-.256z"/><path fill="#6535FF" fill-rule="nonzero" d="m302.024 67-.277-.32-.405-.148a.034.034 0 0 1 0-.027l-.064-.404-.271-.314a.03.03 0 0 1 0-.037l.161-.378-.063-.4a.035.035 0 0 1 0-.031l.347-.25.162-.378.433-.059.347-.25a.05.05 0 0 1 .04 0l.406.155.44-.059h.028l.272.32.41.148a.035.035 0 0 1 0 .048.037.037 0 0 1-.046 0l-.422-.154-.266-.314-.422.058-.4-.143-.335.245-.422.058-.162.362-.335.245.058.388-.162.367.266.309.058.388.399.15.266.308.422-.059c.02 0 .038.014.04.032.004.02-.008.038-.028.043l-.446.058-.029.043Z"/><circle cx="302.5" cy="64.5" r="1" fill="#FCCDD3" fill-rule="nonzero"/><path fill="#6535FF" fill-rule="nonzero" d="M302.31 66c-.302-.154-.4-.485-.22-.74a.668.668 0 0 1 .396-.246.753.753 0 0 1 .483.065c.017.003.03.015.03.03.002.014-.008.027-.024.032a.043.043 0 0 1-.044-.011c-.267-.135-.614-.063-.775.162-.16.225-.074.517.193.652a.029.029 0 0 1 0 .042.042.042 0 0 1-.039.014Z"/><path fill="#6534FF" fill-rule="nonzero" d="m304.297 64.625-2.029-.6a.776.776 0 0 0-.216-.025.614.614 0 0 0-.052.201c.006.234.084.464.227.673.144.207.272.42.385.638.128.305.14.629.035.938a9.026 9.026 0 0 0-.542 1.174.77.77 0 0 0 0 .231l.385.111a.76.76 0 0 0 .583-.055l1.713-.994c.154-.093.233-.236.21-.381l-.315-1.59c-.033-.152-.183-.277-.384-.32Z" opacity=".32"/><path fill="#FFF" fill-rule="nonzero" d="M303.054 66.998a.1.1 0 0 1-.042 0c-.016-.012-.016-.028 0-.04l1.906-.95c.02-.01.05-.01.07 0 .016.011.016.028 0 .04l-1.906.95h-.028Z"/></g></svg>