<svg xmlns="http://www.w3.org/2000/svg" width="756" height="521" fill="none"><path fill="#FCCDD3" d="M326.474 243.925s8.932-.925 15.428-.925a37.983 37.983 0 0 1 12.993 2.774l-8.202 10.114-13.723.98-6.496-12.943ZM67.044 492.633H656.96c2.59 0 2.778 5.087.188 5.417-69.443 8.711-213.51 24.705-323.868 22.793-106.509-1.83-213.027-15.126-266.458-22.793-2.565-.376-2.361-5.417.22-5.417Z"/><path fill="#FFDCE0" d="M20.949 491.425c5.572.407 11.116 1.13 16.607 2.165 10.527 1.747 20.98 4.589 31.617 5.032 19.113.812 38.226 1.735 57.339 2.461 38.742 1.55 70.738-8.6 109.488-7.493 38.488 1.132 80.512-.902 119 0 38.263.935 83.725 3.974 122 2.202 76.636-3.567 149.028-2.066 225.811 0a3.475 3.475 0 0 1 2.997 1.846 56.991 56.991 0 0 0 13.512-21.209c6.878-19.045 10.256-54.316-6.228-66.261-11.706-8.489-30.549-3.113-45.129 14.406 14.113-90.743 1.572-122.347-12.455-134.453-22.737-19.622-51.591 10.137-77.029-10.555-27.38-22.28-10.933-70.579-28.793-129.655a211.92 211.92 0 0 0-17.933-41.767c-27.859-49.493-89.902-105.26-146.995-95.528-55.583 9.497-50.583 57.095-110.489 87.457-74.302 37.56-108.745-2.46-143.175 39.368-36.015 43.698-18.72 112.137-59.918 137.332-19.396 11.859-27.417-.726-43.582 12.487-34.037 27.754-31.838 110.808-18.67 165.123a286.196 286.196 0 0 0 12.025 37.042Z"/><path fill="#4A23E8" d="M319 101.467S334.714 100 346.143 100A73.13 73.13 0 0 1 369 104.4l-14.429 16.045L330.429 122 319 101.467Z"/><path fill="#fff" d="M355.091 92.435 358 109.652 353.636 124 326 116.826 331.818 91l23.273 1.435Z"/><path fill="#fff" d="m363.553 113.517-2.862-5.793s-21.462-2.896-38.633 2.897c-17.17 5.793-7.154 13.034-7.154 13.034L354.968 128 375 126.552l-11.447-13.035Z"/><path fill="#D5DCF3" d="M371.614 120.2 360.825 108s-7.913 7.894-17.983 7.894a38.013 38.013 0 0 1-18.702-5.741l-12.947 12.918L304 291l82-4.306-14.386-116.259V120.2Z"/><path fill="#2B0FD3" d="M357.091 272.175a26.928 26.928 0 0 1-2.667-7.97c-.27-3.651.019-7.322.856-10.885 1.426-7.999 2.353-16.27.527-24.168-.641-2.772-1.611-5.457-2.167-8.243-3.095-15.164 6.16-30.63 4.007-45.953-.898-6.419-3.779-12.565-3.665-19.056.1-5.959 2.738-11.617 3.137-17.548.4-5.931-1.34-11.488-1.426-17.232a18.297 18.297 0 0 1 2.967-10.583c1.326-.905 2.096-1.537 2.096-1.537l9.983 11.488v50.261L385 287.067l-17.655.933a73.095 73.095 0 0 1-10.254-15.825Z" opacity=".3"/><path fill="#62BCF9" d="m430 512-28.294-13.641L400.255 484 393 485.436l1.451 21.538L430 512ZM321 484v23h-31l22.349-10.062L310.907 484H321Z"/><path fill="#fff" d="M312.357 496H321v-12h-10l1.357 12ZM399.838 484 393 485.412l.684 10.588H401l-1.162-12Z"/><path fill="#F9879A" d="m298.69 280 91.649.503L405 489h-15.889s-31.777-147.911-33.222-155.091c-1.444-7.181-5.777-35.901-5.777-35.901s-1.445-4.308-4.334-4.308c-3.1.208-5.568 2.662-5.777 5.744 0 2.872-14.445 189.556-14.445 189.556h-15.889s-12.999-124.935-11.555-145.039c1.444-20.105.578-63.961.578-63.961Z"/><path fill="#2B0FD3" d="M389.146 281.143 392 322a20.589 20.589 0 0 1-4.367-2.743c-6.28-5.314-7.236-14.771-12.531-21.071-2.611-3.115-6.236-5.4-8.22-8.943-1.285-2.3-1.784-4.986-3.14-7.243a8.242 8.242 0 0 0-.742-1l26.146.143ZM360 354a14.317 14.317 0 0 1 7.706 4.306 10.977 10.977 0 0 1 2.795 8.238c-.333 3.086-1.144 6.459-.333 9.545 1.159 4.305 4.765 4.793 4.157 9.53-.522 3.99-1.449 7.85-.116 11.812 1.231 3.574 4.084 6.43 5.272 10.047 1.738 5.253-.406 10.951-.174 16.462.406 9.961 8.488 18.773 7.517 28.705-.333 3.488-1.781 7.047-.709 10.377a18.573 18.573 0 0 0 1.854 3.617A30.875 30.875 0 0 1 391.17 489h-2.144c-1.202 0-7.242-33.327-7.648-35.494l-14.817-69.093A13902.081 13902.081 0 0 0 360 354Z" opacity=".2"/><path fill="#fff" d="M412.292 302.623c.836 3.967.933 8.053.284 12.054-1.149 5.732-1.149 10.323-5.775 10.323s-4.626-8.027-4.626-8.027a4.035 4.035 0 0 1-2.313 1.141c-1.149 0-1.149-10.323 0-11.464s4.47-5.422 3.973-5.633c-.496-.211 8.457 1.606 8.457 1.606Z"/><path fill="#2B0FD3" d="M399.014 311a9.555 9.555 0 0 1 .841-4.467c1.188-1.131 4.565-5.309 4.058-5.516-.507-.207 8.696 1.517 8.696 1.517s.203.813.391 2.11a2.477 2.477 0 0 1-1.087.193c-.39-.054-.777-.128-1.159-.221a8.826 8.826 0 0 0-1.711-.11 4.098 4.098 0 0 0-1.536.193c-.33.157-.645.342-.942.551a5.732 5.732 0 0 1-1.754.731 9.732 9.732 0 0 0-1.289.303c-2.203.869-2.551 3.765-4.508 4.716Z" opacity=".46"/><path fill="#8076FA" d="M396.086 264.018s-5.728 1.438-5.728 2.876v11.504c0 1.438 2.864 8.628 2.864 11.503 0 2.876-10.024 2.876-10.024 2.876-2.865-12.941-20.05-47.452-20.05-67.584v-71.897L361 108s38.667 23.007 38.667 24.445c0 1.438 12.889 41.701 12.889 56.081 0 14.379 1.432 43.138 4.296 58.956 2.864 15.817 2.864 33.073 0 38.825-2.864 5.751-2.864 18.693-2.864 18.693l-12.889-2.876-17.185-129.416"/><path fill="#2B0FD3" d="M397.473 265.997c2.549-.129 5.484-3.942 5.527-7.325 0-3.039-1.89-4.673-2.463-9.733-.53-4.616 2.42-5.175 2.048-9.39-.416-4.587-3.537-4.902-3.866-9.374-.287-4.057 2.19-5.261 2.062-9.39-.115-3.268-1.705-3.44-3.509-7.984-2.377-5.978-2.119-11.726-1.804-18.764.143-3.24.344-3.082.329-4.53 0-9.805-8.147-21.244-12.572-20.47-9.093 1.606-5.57 55.002 4.811 83.141 1.733 4.616 5.298 14.02 9.437 13.819Z" opacity=".2"/><path fill="#8076FA" d="M323.708 110s2.907 64.597 0 80.387c-2.908 15.79-17.446 93.307-18.9 94.742-1.454 1.436-7.27 2.871-7.27 2.871s1.454-14.355 0-15.79c-1.453-1.436-8.723-8.613-8.723-10.049 0-1.435 2.908-34.451 2.908-34.451L283 125.79s18.9-11.484 40.708-15.79Z"/><path fill="#fff" d="M314.712 240h-.142a.71.71 0 0 1-.452-.307c-.104-.158-.141-.351-.104-.537 0-.33 6.364-32.463 9.169-49.425 2.805-16.961.527-66.485.498-66.972a.728.728 0 0 1 .684-.758.708.708 0 0 1 .74.687c0 .501 2.321 50.211-.512 67.272-2.834 17.062-9.126 49.153-9.183 49.467a.728.728 0 0 1-.698.573Z"/><path fill="#2B0FD3" d="M292.359 227.767 290 199.577c.316-.246.618-.478.949-.71 3.236-2.291 6.875-3.959 10.313-5.931a62.734 62.734 0 0 0 6.789-4.51c1.726-1.319 3.48-3.219 5.839-2.073 2.747 1.334 3.193 7.7 3.927 10.281.15.392.209.813.172 1.232-.144.972-1.136 1.45-1.869 2.161-2.115 1.87-2.201 5.075-2.287 7.888-.087 2.813-.619 6.105-3.078 7.468-1.065.58-2.345.696-3.424 1.291a6.41 6.41 0 0 0-2.79 4.031c-.46 1.624-.575 3.321-.992 4.959a5.294 5.294 0 0 1-.978 2.19 5.077 5.077 0 0 1-2.978 1.551c-2.416.494-5.062.116-7.421.595.086-1.392.187-2.233.187-2.233Z" opacity=".3"/><path fill="#fff" d="M323.6 162s-9.8 4.2-11.2 8.4a22.08 22.08 0 0 0-1.4 5.6l14-8.4-1.4-5.6Z"/><path fill="#FCCDD3" d="m337.283 148.23-14.05-2.206a1.99 1.99 0 0 0-1.503.377 2.07 2.07 0 0 0-.801 1.353L317 173.116 331.134 176l7.774-25.103a2.11 2.11 0 0 0-.215-1.713 2.033 2.033 0 0 0-1.41-.954Z"/><path fill="#2B0FD3" d="M332.1 164a6.772 6.772 0 0 0-3.408.92c-.451.326-.94.596-1.456.803-1.209.38-2.49-.219-3.757-.321a8.372 8.372 0 0 0-4.879 1.606 6.481 6.481 0 0 0-2.024 1.679 2.679 2.679 0 0 0-.437 2.512 3.494 3.494 0 0 0 2.913 1.738c3.353.261 6.719-.29 9.815-1.607 1.602-.584 4.02-1.46 4.821-3.11.655-1.446.349-4.22-1.588-4.22Z" opacity=".46"/><path fill="#fff" d="M307.605 179.635s2.355-5.776 3.532-6.974c1.178-1.199 2.355-4.636 4.696-4.636a71.447 71.447 0 0 0 14.1-2.325c3.532-1.169 7.05-1.169 5.815 2.325-1.236 3.495-8.214 3.48-8.214 3.48s5.815-1.155 5.815 1.156a7.725 7.725 0 0 1-2.529 4.736c-2.123 2.311-4.492 4.823-7.516 5.921-1.453.52-2.907.664-4.361 1.14a16.261 16.261 0 0 0-4.23 2.426 57.958 57.958 0 0 1-4.898 4.116L304 188.112l3.605-8.477Z"/><path fill="#2B0FD3" d="M307 189.641a13.631 13.631 0 0 1 10.022-6.697 6.329 6.329 0 0 0 3.651-1.016c.41-.421.753-.904 1.016-1.43 1.003-1.603 2.463-3.234 4.296-3.234.418.057.842.057 1.26 0 .801-.229 1.188-1.088 1.632-1.774A5.725 5.725 0 0 1 333 173a7.903 7.903 0 0 1-2.477 4.521c-2.09 2.29-4.424 4.779-7.402 5.867-1.432.515-2.863.658-4.295 1.13a15.955 15.955 0 0 0-4.166 2.404 57.544 57.544 0 0 1-4.825 4.078L307 189.641Z" opacity=".46"/><path fill="#8076FA" d="M314 190.808s-8.691-2.88-8.691-5.76c0-2.881-2.896-7.201-2.896-7.201l-4.346 2.88s4.346-7.201 4.346-10.081v-4.321c0-2.88 1.448-10.081 0-11.521-1.449-1.44-1.449-7.201-1.449-8.641 0-1.441-17.381-20.163-17.381-20.163-3.592 22.092-7.952 44.257-10.298 66.522a227.7 227.7 0 0 0-1.26 23.043c0 2.881-.464 4.998 2.636 6.092 1.976.463 3.995.723 6.025.778 10.139 1.44 15.933 0 20.278-2.88a17.696 17.696 0 0 0 7.242-14.402c0-5.703 0-11.464 5.794-14.345Z"/><path fill="#2B0FD3" d="m331.921 91 23.279 1.4.8 4.564c-2.871 4.815-8.129 7.855-13.895 8.036-4.71-.092-9.138-2.177-12.105-5.698L331.921 91Z" opacity=".46"/><path fill="#FCCDD3" d="M349 54.803s-26-8.584-26 4.292S324.444 92 324.444 92l17.334-15.737L349 54.803Z"/><path fill="#fff" d="M361.5 82c2.485 0 4.5-2.462 4.5-5.5s-2.015-5.5-4.5-5.5-4.5 2.462-4.5 5.5 2.015 5.5 4.5 5.5Z"/><path fill="#2B0FD3" d="M361.5 82c2.485 0 4.5-2.462 4.5-5.5s-2.015-5.5-4.5-5.5-4.5 2.462-4.5 5.5 2.015 5.5 4.5 5.5Z" opacity=".46"/><path fill="#fff" d="M342.5 103c9.665 0 17.5-9.402 17.5-21s-7.835-21-17.5-21S325 70.402 325 82s7.835 21 17.5 21Z"/><path fill="#fff" d="M324.5 83c2.485 0 4.5-2.462 4.5-5.5s-2.015-5.5-4.5-5.5-4.5 2.462-4.5 5.5 2.015 5.5 4.5 5.5Z"/><path fill="#2B0FD3" d="M396.012 263.739c-.998.251-1.982.554-2.948.907L385 178l12 93-.988-7.261Z" opacity=".19"/><path fill="#fff" d="M301.207 184a2.594 2.594 0 0 1-.819-.13c-1.367-.527-2.355-1.798-2.58-3.318a9.13 9.13 0 0 1 .328-4.01c.3-1.14.682-2.308 1.051-3.419 1.024-3.101 1.979-6.03 1.365-9.001a18.927 18.927 0 0 0-.819-2.784 11.052 11.052 0 0 1-.942-5.439c.103-.603.254-1.197.45-1.774.096-.274.178-.534.246-.808.837-3.237-.033-6.701-2.279-9.073a.752.752 0 0 1-.187-.697.709.709 0 0 1 .478-.52.661.661 0 0 1 .664.178c2.6 2.752 3.61 6.763 2.648 10.516-.082.289-.177.577-.273.866a11.557 11.557 0 0 0-.409 1.529 10.149 10.149 0 0 0 .873 4.717c.374.977.67 1.986.888 3.015.627 3.346-.451 6.607-1.488 9.751-.355 1.097-.737 2.222-1.024 3.333a8.07 8.07 0 0 0-.3 3.346c.143.991.764 1.832 1.638 2.222.461.144.959.07 1.365-.202a1.3 1.3 0 0 0 .559-.808c.07-.391.42-.653.792-.591.37.073.618.443.56.836a2.682 2.682 0 0 1-1.202 1.789 2.925 2.925 0 0 1-1.583.476Z"/><path fill="#2B0FD3" d="M355.485 75.984c-8.872.298-17.109-3.667-23.398-9.6-.837-.807-2.063-1.84-3.087-2.945 3.145-3.936 8.208-1.926 13.906-1.926 8.655 0 15.752-3.44 17.094 13.976-1.49.278-2.999.444-4.515.495Z" opacity=".46"/><path fill="#FCCDD3" d="M379 57.094c-.186.463-17.893-9.521-19.322-10.332A24.394 24.394 0 0 0 347.916 43a20.443 20.443 0 0 0-11.919 4.428 48.28 48.28 0 0 0-6.774 6.381c-1.243 1.375-2.701 2.229-2.072 3.936.743 1.94 3.259 4.023 4.688 5.427 6.231 6.063 14.391 10.129 23.18 9.81 10.328-.245 19.623-6.404 23.981-15.888Z"/><path fill="#2B0FD3" d="M334.784 62.205c2.184-.117 4.282.526 6.538.35 3.626-.306 6.938-2.92 10.55-2.512a14.07 14.07 0 0 1 5.039 1.826c4.739 2.454 9.85 4.849 15.089 4.513-4.723 4.146-10.709 6.48-16.931 6.602-8.736.306-16.859-3.754-23.069-9.83a5.033 5.033 0 0 1 2.784-.95Z" opacity=".46"/><path fill="#F9879A" d="M412.836 203c.507 12.278 1.492 26.918 3.164 38-6.09-.187-11-8.819-11-19.44 0-8.718 3.299-16.096 7.836-18.56Zm-140.805 12.513c0-5.176.198-10.347.595-15.513a25.378 25.378 0 0 1 10.567 6.005c5.414 5.03 8.186 11.514 7.765 16.879-3.421.246-6.859.1-10.247-.436a29.9 29.9 0 0 1-6.039-.785c-3.106-1.105-2.656-3.184-2.641-6.15Z"/><path fill="#3817C6" d="M333.241 66a.72.72 0 0 1-.423-.133 23.897 23.897 0 0 1-6.76-7.843.734.734 0 0 1 .356-.944.763.763 0 0 1 .987.279 23.254 23.254 0 0 0 6.277 7.294.732.732 0 0 1 .182 1.036.73.73 0 0 1-.619.31Zm28.001 49a.74.74 0 0 1-.73-.749v-5.796a50.518 50.518 0 0 1-2.654 2.261 32.8 32.8 0 0 1-5.834 3.49.737.737 0 0 1-.963-.374.77.77 0 0 1-.01-.576.74.74 0 0 1 .39-.413 32.596 32.596 0 0 0 5.556-3.325 42.445 42.445 0 0 0 3.749-3.31.73.73 0 0 1 .798-.149c.271.117.45.387.456.689v7.488c0 .205-.08.402-.223.546a.737.737 0 0 1-.535.218Zm-35.939 375h-11.606c-.385 0-.697-.224-.697-.5s.312-.5.697-.5h11.606c.385 0 .697.224.697.5-.007.274-.315.495-.697.5Z"/><path fill="#F9879A" d="M157.021 144s-25.904 20.705-27.434 34.533c-1.53 13.828-6.605 69.786 15.726 62.879C167.644 234.506 186 213.009 186 213.009L157.021 144Z"/><path fill="#2B0FD3" d="M162.509 179.726 154.945 175l-7.996 12.454c-2.128 3.318-4.314 6.881-4.314 10.817 0 2.987 1.237 5.903 1.093 8.891-.158 3.247-1.956 6.249-2.085 9.495-.13 2.988 1.006 6.522-1.093 8.619a7.264 7.264 0 0 0-1.366 1.436c-.95 1.695 1.064 3.606 1.078 5.559.015 1.954-2.315 3.477-4.386 4.022-.935.245-1.927.46-2.876.776 2.646 4.08 6.442 6.019 11.806 4.309 13.935-4.309 26.302-14.134 33.694-21.015a46.468 46.468 0 0 0-3.811-26.344 33.205 33.205 0 0 0-12.18-14.293Z" opacity=".46"/><path fill="#52D2BC" d="m201.043 240-44.347 10.393L146 497.048l9.033 4.952 46.01-212.842s8.23-5.758 9.047 0c.818 5.758 21.364 207.89 21.364 207.89h7.398S252 362.586 252 347.731c0-14.856-10.495-106.91-10.495-106.91L201.043 240Z"/><path fill="#889BE5" d="M169 261.648c-1.534-3.076-3.959-6.735-5.041-6.949-1.724-.313-8.941-4.699-8.941-4.699L151 257.49s5.844 9.156 9.015 14.51c1.762-4.31 4.916-7.944 8.985-10.352Z"/><path fill="#2B0FD3" d="M164 265.756c-1.731-.355-3.8 0-4.783-1.419a16.286 16.286 0 0 0-.91-1.646c-.792-.88-2.318-.696-3.272-1.419a5.547 5.547 0 0 1-1.291-1.888 6.629 6.629 0 0 0-2.451-2.384l-.293.539s5.869 9.125 9.053 14.461a19.513 19.513 0 0 1 3.947-6.244Z" opacity=".46"/><path fill="#889BE5" d="M231 260.453c1.254-3.131 3.324-6.925 4.352-7.193 1.634-.437 8.268-5.26 8.268-5.26l4.38 7.051s-4.944 9.435-7.648 14.949a21.142 21.142 0 0 0-9.352-9.547Z"/><path fill="#2B0FD3" d="M241 254.059a23.298 23.298 0 0 1-.843-4.059 27.542 27.542 0 0 1-4.817 2.963c-1.025.281-3.09 4.267-4.34 7.556a24.46 24.46 0 0 1 2.191 1.481l2.528-1.867a2.435 2.435 0 0 0 1.138-1.481 7.802 7.802 0 0 0-.211-1.689c-.14-2.444 2.753-2.682 4.354-2.904Z" opacity=".46"/><path fill="#889BE5" d="M217 97h-26v36h26V97Z"/><path fill="#FCCDD3" d="M217.855 116s-5.376 6.908-13.058 6.908c-7.681 0-13.82-6.908-13.82-6.908l-17.093 9.066-2.248 1.18-18.289 9.699s-.764 3.066-5.375 19.932c-7.206 26.522.951 102.173 1.009 103.123.1-.13-.13.115 2.882-2.878 3.012-2.993 11.529-3.612 11.529-3.612a144.31 144.31 0 0 0 39.878 3.079c18.375-1.136 27.498-5.583 37.73-9.555-5.693-40.294 4.324-81.667-6.284-121.975A63.473 63.473 0 0 1 217.855 116Z"/><path fill="#F9879A" d="M165.429 178S170 155.978 170 149.892V127l-10 5.302a90.056 90.056 0 0 1 3.943 14.553s1.428 7.641 1.514 31.145h-.028Z"/><path fill="#fff" d="M163.72 252a.768.768 0 0 1-.521-.231.706.706 0 0 1-.198-.519l1.499-47.558a.798.798 0 0 1 .765-.692.765.765 0 0 1 .526.221.706.706 0 0 1 .209.514l-1.5 47.559c-.016.4-.363.714-.78.706Z"/><path fill="#2B0FD3" d="m218 106.104-.437 2.795s-7.52 9.163-16.534 2.928C192.014 105.591 192 97 192 97l26 9.104Z" opacity=".46"/><path fill="#F9879A" d="M202 92.246s-25.883 8.419-27.784 2.85C171.291 86.547 199.075 78 199.075 78L202 92.246Z"/><path fill="#2B0FD3" d="M181.847 88.612a3.63 3.63 0 0 1 3.142-1.337c1.194 0 2.374.29 3.554.203a8.958 8.958 0 0 0 3.597-1.207 8.094 8.094 0 0 0 3.17-2.647 3.867 3.867 0 0 0 .256-3.984 2.557 2.557 0 0 0-.54-.64c-6.639 2.487-20.898 8.55-21.026 14.877l.384.087a1.75 1.75 0 0 0 1.933-.974c.142-.378.1-.8.228-1.178.298-.887 1.336-1.222 2.232-1.353a3.647 3.647 0 0 0 2.502-.93c.156-.277.298-.611.568-.917Z" opacity=".46"/><path fill="#889BE5" d="M209.668 64c-9.788 0-17.874 8.645-19.33 19.94-2.111.823-3.451 2.888-3.33 5.127-.138 2.434 1.507 4.616 3.906 5.184 2.422 9.685 9.903 16.749 18.74 16.749C220.479 111 226 100.589 226 87.6c0-12.99-5.506-23.6-16.332-23.6Z"/><path fill="#2B0FD3" d="M190.373 83.326a5.308 5.308 0 0 0-3.365 5.223c0 .49.064.977.189 1.451a10.147 10.147 0 0 0 2.724-4.353 7.864 7.864 0 0 1 1.53-3.7c1.559-1.45 4.108-.87 6.235-1.32 2.404-.522 4.196-2.437 5.988-4.105 1.792-1.669 4.094-3.25 6.512-2.83 1.996.349 3.788 2.017 5.828 1.568A5.822 5.822 0 0 0 219 72.779a20.013 20.013 0 0 0-5.813-9.402 14.81 14.81 0 0 0-3.278-.377c-9.892.029-18.065 8.836-19.536 20.326ZM210 289v.115c.564 4.066 10.759 105.364 16.738 164.885 2.637-23.475 4.145-45.427 4.385-48.918 1.156-16.795 1.805-36.434-2.256-60.498C225.003 321.425 216.458 292.376 210 289Z" opacity=".26"/><path fill="#FCCDD3" d="M218 116a100.834 100.834 0 0 0 10.919 4.546 30.927 30.927 0 0 1 9.799 5.64c3.286 3.035 6.644 6.013 9.974 8.991 3.329 2.978 3.053 6.748 4.129 10.531a91.945 91.945 0 0 1 2.195 15.696 233.922 233.922 0 0 1 .727 32.399c-.916 21.58-4.158 42.901-7.415 64.193a1.23 1.23 0 0 1-.407.892c-.421.274-.974 0-1.381-.331l-7.618-5.654a5.777 5.777 0 0 1-1.527-1.438 4.646 4.646 0 0 1-.567-2.878c1.454-17.264.233-34.628 1.541-51.878.766-9.676.688-19.399-.233-29.061 0 .302.611.158.626-.144.014-.302-.233-.561-.48-.762"/><path fill="#2B0FD3" d="M242.364 184.483c-.679-5.429 2.447-4.245.408-9.429a15.922 15.922 0 0 0-3.821-5.054c.725 8.891.725 17.822 0 26.713-1.057 13.386-.543 26.858-.951 40.287a16.376 16.376 0 0 0 1.51-3.162c1.103-3.249-.151-5.401.785-9.444.589-2.512 1.616-4.808 2.372-7.22 2.476-7.985 3.322-20.374.845-28.475a24.95 24.95 0 0 1-1.148-4.216Z" opacity=".25"/><path fill="#52D2BC" d="M223.858 74.813S226.736 59 206.588 59C186.439 59 185 82 185 82s14.392-8.625 38.858-7.188Z"/><path fill="#2B0FD3" d="M219 71.251s-.16-4.41-5.8-4.24a3.943 3.943 0 0 0-3.372 1.449 3.723 3.723 0 0 0-.629 3.54l9.801-.749Z" opacity=".46"/><path fill="#fff" d="M158.705 275a.725.725 0 0 1-.294-.073.74.74 0 0 1-.35-.96c2.712-6.218 7.211-11.411 12.879-14.865a.699.699 0 0 1 .966.247.76.76 0 0 1-.252 1.004c-5.422 3.298-9.727 8.263-12.319 14.211a.685.685 0 0 1-.63.436Zm83.59-3a.706.706 0 0 1-.638-.404c-2.868-6.049-8.513-10.237-15.042-11.16a.72.72 0 0 1-.609-.809.725.725 0 0 1 .807-.621c6.987 1.009 13.027 5.488 16.119 11.955a.742.742 0 0 1-.326.967.817.817 0 0 1-.311.072Z"/><path fill="#2B0FD3" d="M204.159 252.24c-3.739 0-7.652.564-11.087-.926-4.347-1.867-6.869-6.7-11.202-8.581-3.595-1.562-8.218-1.042-10.928-3.863-1.928-2.026-2.217-5.224-4.159-7.235A6.515 6.515 0 0 0 164 230v21.936c.232.289.464.579.681.883a145.669 145.669 0 0 0 39.42 2.894A106.84 106.84 0 0 0 215 254.512a29.663 29.663 0 0 0-10.841-2.272Z" opacity=".25"/><path fill="#F9879A" d="m143.058 507.189 2.242-8.134c.199-.748.985-1.2 1.761-1.013l33.648 8.133c.803.094 1.377.799 1.28 1.576-.096.778-.826 1.332-1.63 1.239H144.47a1.476 1.476 0 0 1-1.175-.557 1.37 1.37 0 0 1-.237-1.244Zm86.966-3.801 1.239-6.388h7.77l23.689 5.078c.808.145 1.36.847 1.268 1.612-.092.765-.796 1.335-1.617 1.309h-30.906a1.5 1.5 0 0 1-1.126-.487 1.306 1.306 0 0 1-.317-1.124Z"/><path fill="#fff" d="M208.899 153h-.108a.774.774 0 0 1-.512-.268.676.676 0 0 1-.154-.529c1.549-11.321-3.099-27.106-3.099-27.266-.111-.4.145-.809.573-.913.428-.104.865.136.976.537.186.652 4.648 16.205 3.099 27.816-.055.36-.386.627-.775.623Z"/><path fill="#2B0FD3" d="M324 86a3 3 0 1 1 3-3 3.014 3.014 0 0 1-3 3Zm0-4.348a1.347 1.347 0 1 0-.029 2.695 1.347 1.347 0 0 0 .029-2.695Z"/><path fill="#4A23E8" d="m315 111.691 4.082-10.327L326 97l-1.785 20-9.215-5.309ZM359 98l2.167 24L372 115.339l-2.889-10.114L359 98Z"/><path fill="#F9879A" d="M528.982 128.202c-6.735-11.801-22.842-29.22-39.078-21.132-15.06 7.511-20.448 32.066-16.809 49.312a45.302 45.302 0 0 0 11.163 21.118c10.461 12.133 31.856 25.667 44.652 14.097 13.126-11.815 11.048-44.141.072-63.395Z"/><path fill="#2B0FD3" d="M481.099 159.615c.717 1.336 1.808 2.428 2.568 3.735 2.641 4.525.904 10.516 3 15.328a13.373 13.373 0 0 0 8.136 6.938 32.512 32.512 0 0 0 10.863 1.35c6.443 0 13.647-.976 17.665-6.018a7.188 7.188 0 0 0 1.75-5.129c-.129-1.048-.588-2.04-.703-3.088-.301-2.629 1.521-4.956 2.942-7.183 1.421-2.226 2.497-5.286.847-7.369-1.105-1.437-3.086-1.81-4.305-3.146-2.411-2.729-.173-7.369-2.024-10.501a8.858 8.858 0 0 0-2.109-2.226l-5.798-4.942a16.178 16.178 0 0 0-7.175-4.123c-4.563-.847-9.284.862-13.991.201-3.286-.474-5.74-.545-7.921 2.328-3.559 4.769-6.529 18.688-3.745 23.845Z" opacity=".46"/><path fill="#ACA6EC" d="M452 349v65.913L461.792 494h11.402s1.639-52.725 0-60.96c-1.639-8.236 9.806-80.671 9.806-80.671L452 349Zm47.93 0-4.93 4.953s8.211 72.493 9.845 79.087c1.633 6.594 12.668 60.96 12.668 60.96h11.464s.473-47.786-2.866-62.616c-3.339-14.83 1.634-70.851 1.634-70.851L499.93 349Z"/><path fill="#fff" d="M455.236 447c-.376.002-.692-.31-.732-.723L451 415.301v-24.572c.05-.417.371-.729.752-.729.38 0 .702.312.751.729v24.428l3.491 30.875a.872.872 0 0 1-.153.608.715.715 0 0 1-.501.302l-.104.058Zm39.649-92a.882.882 0 0 1-.61-1.522l5.233-5.223a.875.875 0 0 1 1.462.391.871.871 0 0 1-.226.843l-5.233 5.222a.886.886 0 0 1-.626.289Zm31.189 77.956c-.432.003-.809-.267-.907-.65A58.244 58.244 0 0 1 524 421.744c.062-.426.46-.744.932-.744.471 0 .87.318.931.744.052 3.44.426 6.87 1.118 10.252.101.455-.215.901-.713 1.004l-.194-.044Z"/><path fill="#2B0FD3" d="M452 350v11.945c.584 3.165.812 6.674 3.278 8.594 1.711 1.432 4.091 1.561 5.944 2.749 3.221 2.063 3.962 6.431 4.062 10.27.099 3.838 0 8.035 2.309 11.071 2.038 2.678 5.473 3.753 8.452 5.299l.128.072c2.922-22.042 6.827-46.649 6.827-46.649L452 350Zm56.288 3.802A72.88 72.88 0 0 0 497.455 352L495 354.446l.942 3.262a18.39 18.39 0 0 1 12.646 12.345 24.491 24.491 0 0 0 1.784 5.637c1.128 1.96 3.069 3.29 4.61 4.935 5.795 6.166 5.567 16.065 9.506 23.375.542-17.982 2.169-37.709 2.512-41.672-.913-.658-1.827-1.287-2.855-1.888l-15.857-6.638Z" opacity=".25"/><path fill="#ACA6EC" d="M453.857 200s-4.091 29.677-3.51 39.953c.58 10.277-.977 33.914-.977 33.914s-3.228 19.328.226 29.431c3.454 10.104 11.623.779 11.623.779L479 235.326 453.857 200Z"/><path fill="#2B0FD3" d="M454 221.083c1.243-.317 2.413.981 2.557 2.25a11.518 11.518 0 0 1-.664 3.794 11.267 11.267 0 0 0 .578 6.894c.422.82.729 1.693.91 2.597.173 1.803-1.112 3.375-1.69 5.091a13.48 13.48 0 0 0-.492 4.573l.13 25.444a3.429 3.429 0 0 0 .26 1.572c.301.473.719.86 1.214 1.125l5.39 3.577c5.779-10.602 12.137-22.415 14.448-34.257a97.754 97.754 0 0 0 1.315-19.169c0-3.563-.347-7.558-3.063-9.866s-6.589-1.962-9.854-.808c-3.265 1.154-6.242 3.044-9.609 3.794" opacity=".25"/><path fill="#FCCDD3" d="M496.101 161.18s-11.747-1.959-28.256 7.044c-15.874 8.643-27.419 56.177-27.419 56.177h21.647A481.28 481.28 0 0 1 435 351.794c1.963 3.155 5.109 6.972 9.755 8.009 5.975 1.325 9.049-3.183 15.875-2.881 7.1.317 7.489 5.387 15.874 8.643 10.52 4.076 13.406-2.55 28.862 0 10.318 1.699 11.775 5.099 20.203 4.321A114.853 114.853 0 0 0 540 367.005l-2.886-14.404s-14.2-59.058-14.431-76.344c-.26-18.121-2.194-25.064-2.886-54.737-.188-7.893 3.795-14.779 5.512-24.113 2.886-15.456 9.453-20.079 14.691-27.743-7.215-8.642-29.035-8.484-29.035-8.484h-14.864Z"/><path fill="#4A23E8" d="M470.41 219.447c-3.579-.492-6.93-1.674-10.41-2.447.656 2.377.955 4.387 1.512 6.68h.812l-.356 1.659c.1.38.214.745.356 1.153a1.419 1.419 0 0 0-.542-.351l-.47 8.859c2.852-.886 3.993-2.447 6.032-4.556.966-1.12 1.99-2.19 3.066-3.206 3.622-3.038 8.841-3.08 13.59-2.954-4.463-.098-8.813-4.176-13.59-4.837Z" opacity=".25"/><path fill="#2B0FD3" d="m462.44 226.09-.13.57a.996.996 0 0 1 .38.25c-.1-.29-.18-.55-.25-.82Z" opacity=".46"/><path fill="#4A23E8" d="M516.424 230.711c-.558 2.292-2.146 4.298-2.432 6.634a12.39 12.39 0 0 0 .744 4.915 1911.212 1911.212 0 0 1 5.608 19.303 27.905 27.905 0 0 0 3.004 7.437c.286-13.785-2.275-22.312-2.861-48.12-.186-7.853 3.763-14.702 5.465-23.988.286-1.548-.816-3.052-.458-4.528-.83-.129-.186-.33-.801-.889-.973-.874-1.202-2.45-2.303-3.152-1.889-1.218-4.221 1.246-4.292 3.482-.072 2.235.944 4.471.586 6.692-.658 4.07-5.45 6.147-7.067 9.945-3.105 7.193 6.61 14.659 4.807 22.269Z" opacity=".25"/><path fill="#fff" d="M441.832 334.984a.666.666 0 0 1-.288 0 .806.806 0 0 1-.49-1.052 265.383 265.383 0 0 0 13.329-50.24c.361-2.046.692-3.977 1.038-5.763.346-1.787.389-2.147.663-4.323.389-3.069 1.182-9.451 3.66-27.259l.13-.894c1.571-11.324 2.176-15.575 1.311-21.943a46.695 46.695 0 0 0-2.579-10.244 22.652 22.652 0 0 1-1.758-8.645c.1-8.054 4.726-16.266 13.747-24.378a.825.825 0 0 1 1.167 0 .835.835 0 0 1 0 1.167c-8.646 7.795-13.113 15.59-13.2 23.168a20.728 20.728 0 0 0 1.658 8.04 47.547 47.547 0 0 1 2.651 10.575c.894 6.585.288 10.893-1.311 22.39l-.13.893c-2.478 17.794-3.271 24.177-3.646 27.231-.288 2.291-.331 2.651-.677 4.495a783.706 783.706 0 0 0-1.052 5.764 265.43 265.43 0 0 1-13.402 50.542.807.807 0 0 1-.821.476ZM535.135 348a.813.813 0 0 1-.796-.634 475.136 475.136 0 0 1-9.948-56.296c-2.515-21.829-4.987-47.131-4.263-69.277a.844.844 0 0 1 .853-.793.807.807 0 0 1 .565.261.827.827 0 0 1 .216.589c-.71 22.031 1.748 47.261 4.264 69.033a472.206 472.206 0 0 0 9.948 56.094.817.817 0 0 1-.09.626.794.794 0 0 1-.507.368l-.242.029Z"/><path fill="#F9879A" d="m437 504 25.615-10H474v8.571L437 504ZM529 494v7.143L497 504l20.364-10H529Z"/><path fill="#ACA6EC" d="m544.716 178 21.936 37.4s4.467 13.45-2.864 19.044a110.163 110.163 0 0 0-11.454 11.017A820.273 820.273 0 0 0 537.17 261.4c-3.322 3.562-9.579 9.6-12.443 9.6-3.35 0-4.553-2.032-7.889-1.974-3.666 0-6.916 1.616-10.653 1.13-2.306-.301-5.728-1.431-5.112-4.421.558-2.561 3.995-4.021 6.143-4.936a59.999 59.999 0 0 1 10.352-3.005c.57-.12 1.13-.283 1.675-.486a.73.73 0 0 0 .444-.344c.129-.315-.186-.644-.487-.801a6.033 6.033 0 0 0-2.52-.472 27.307 27.307 0 0 0-9.135 1.001c-.945.315-1.045-.329-.687-1.03a5.595 5.595 0 0 1 2.863-2.346c2.621-1.202 5.556-2.261 8.448-1.574a14.814 14.814 0 0 1 7.761 6.281c1.618-2.06 3.422-3.935 5.04-5.995a433.25 433.25 0 0 0 4.052-5.265c2.735-3.577 5.456-7.154 8.463-10.559a39.846 39.846 0 0 1 2.019-2.118c7.903-7.44 5.068-10.53 5.469-12.362.401-1.831-15.464-28.701-15.464-28.701L544.716 178Z"/><path fill="#2B0FD3" d="M552.777 217.032c-.184-.66.156-1.435-.254-2.038-.411-.602-1.02-.502-1.557-.703-1.742-.631-2.067-2.869-2.633-4.677-1.132-3.355-3.914-5.864-7.333-6.614 4.487 7.948 10.107 18.192 9.909 19.311-.368 1.679 1.953 4.448-3.737 10.689l3.539-1.435c1.698-.717 3.609-1.65 4.105-3.457.083-.493.221-.974.41-1.435a3.02 3.02 0 0 1 1.19-.947c1.755-.976 3.793-2.396 3.567-4.419-1.968-.875-3.893-1.851-5.79-2.869a2.596 2.596 0 0 1-1.416-1.406Z" opacity=".25"/><path fill="#FCCDD3" d="M507 161s26.303.372 33.222 8.595c6.919 8.222 18.778 27.216 18.778 27.216L533 214l-19.428-22.647L507 161Z"/><path fill="#ACA6EC" d="M493 170.938c6.943.979 20-9.938 20-9.938h-22.857c-2.42.257-4.81.732-7.143 1.42.171 1.817 1.443 7.297 10 8.518Z"/><path fill="#ACA6EC" d="m489 163.822 1.058-12.341L502.377 150 504 164c-4.994-.332-10-.391-15-.178Z"/><path fill="#2B0FD3" d="M504 156.931a15.132 15.132 0 0 1-9.035 3.069 14.918 14.918 0 0 1-5.965-1.259l1.052-11.468 9.712-1.089 2.882-.184L504 156.931Z" opacity=".25"/><path fill="#ACA6EC" d="M512 136.212c0 11.469-7.719 20.788-17.217 20.788-9.499 0-15.783-13.606-15.783-25.089 0-25.09 6.27-16.488 15.783-16.488 9.512 0 17.217-5.734 17.217 20.789Z"/><path fill="#F9879A" d="M478.636 110.705a7.923 7.923 0 0 0-4.272 4.261c-1.296 3.637 1.04 8.31 4.272 9.943 5.055 2.557 9.127-3.92 18.511-2.841 1.951.214 6.792.768 9.967 4.262 5.81 6.378.784 16.804 4.272 18.466 2.435 1.164 7.404-2.841 9.968-7.103 5.097-8.65 2.634-22.386-5.696-28.408-5.553-4.02-12.16-3.481-19.935-2.841a54.502 54.502 0 0 0-17.087 4.261Z"/><path fill="#3817C6" d="M507.256 127a.705.705 0 0 1-.528-.251c-3.011-3.408-7.591-3.954-9.546-4.19a19.283 19.283 0 0 0-10.673 2.065c-2.854 1.225-5.337 2.287-8.119.812a.75.75 0 0 1-.314-.989.703.703 0 0 1 .956-.324c2.212 1.151 4.181.31 6.935-.856a20.686 20.686 0 0 1 11.415-2.169c1.94.236 7.134.841 10.445 4.663.18.219.224.526.111.79a.727.727 0 0 1-.639.449h-.043Z"/><path fill="#2B0FD3" d="M511.431 144.789c1.807.849 4.947-.966 7.569-3.689l-5.451-4.567a34.614 34.614 0 0 0-3.48-2.533c.326 4.948-.963 9.691 1.362 10.789Z" opacity=".46"/><path fill="#ACA6EC" d="M512.5 140c2.485 0 4.5-2.462 4.5-5.5s-2.015-5.5-4.5-5.5-4.5 2.462-4.5 5.5 2.015 5.5 4.5 5.5Z"/><path fill="#2B0FD3" d="M541 208.813c-.187-2.086-.66-4.057-2.453-4.781-.919-.362-1.966-.261-2.87-.594-3.888-1.449-2.31-8.476-5.983-10.359-1.593-.826-3.745-.348-5.079-1.565-.976-.884-1.206-2.478-2.311-3.188-1.894-1.231-4.232 1.261-4.304 3.521.075 1.568.272 3.128.588 4.665L533.324 214l7.676-5.187Z" opacity=".25"/><path fill="#fff" d="M493.061 171.996a9.93 9.93 0 0 1-3.533-.548.86.86 0 0 1-.47-1.105.826.826 0 0 1 1.078-.482s5.27 2.002 12.741-2.965a83.607 83.607 0 0 0 9.281-6.658.785.785 0 0 1 .565-.237c.42 0 10.511-.119 17.765 2.965a.86.86 0 0 1 .186 1.461.814.814 0 0 1-.823.111c-6.255-2.654-15.058-2.832-16.81-2.832a99.142 99.142 0 0 1-9.266 6.628 19.323 19.323 0 0 1-10.714 3.662Z"/><path fill="#2B0FD3" d="M523.846 269.084a6.893 6.893 0 0 1-1.632-1.075c-1.335-.94-2.976-1.241-4.526-.829-1.433.384-2.865 1.382-4.297.998-.67-.311-1.36-.572-2.063-.783a3.564 3.564 0 0 0-2.535 1.152c-.945.828-1.862 1.703-2.793 2.578 3.595.369 6.775-1.182 10.327-1.243 3.552-.062 4.54 2.118 7.892 2.118a7.638 7.638 0 0 0 3.781-1.842 2.995 2.995 0 0 0-1.003-.798c-.959-.43-2.119.077-3.151-.276Z" opacity=".25"/><path fill="#3E1EC4" d="M333 136.934v-6.817a1.714 1.714 0 0 0-.851-1.448l-5.776-3.43a1.66 1.66 0 0 0-1.717 0l-5.79 3.387a1.726 1.726 0 0 0-.866 1.447v6.817c.019.6.341 1.148.851 1.447l5.776 3.431a1.706 1.706 0 0 0 1.717 0l5.805-3.387c.502-.308.821-.851.851-1.447Z" opacity=".32"/><path fill="#52D2BC" d="M333 135.927v-6.782a1.728 1.728 0 0 0-.848-1.437l-5.669-3.477a1.7 1.7 0 0 0-1.711 0l-5.782 3.362a1.73 1.73 0 0 0-.849 1.437l-.141 6.897c.019.596.34 1.139.848 1.437l5.754 3.405a1.7 1.7 0 0 0 1.711 0l5.825-3.405c.506-.302.829-.842.862-1.437Z"/><path fill="#fff" d="M318.893 136.956a1.924 1.924 0 0 1-.893-1.65v-6.969a1.937 1.937 0 0 1 .907-1.635l5.707-3.447a1.716 1.716 0 0 1 1.8 0l5.679 3.491c.559.341.904.969.907 1.65a.12.12 0 0 1-.037.089.11.11 0 0 1-.089.029c-.061 0-.111-.053-.111-.118a1.687 1.687 0 0 0-.782-1.473l-5.679-3.492a1.518 1.518 0 0 0-1.576 0l-5.693 3.448a1.669 1.669 0 0 0-.796 1.473v6.939a1.715 1.715 0 0 0 .782 1.473.137.137 0 0 1 0 .236l-.126-.044Z"/><path fill="#fff" d="m330.263 133.792.737-1.277-.737-1.277.015-1.473-1.279-.736-.738-1.278h-1.474l-1.264-.751-1.295.736h-1.474l-.738 1.263-1.279.736v1.473l-.737 1.277.722 1.277v1.473l1.279.736.723 1.278 1.474.015 1.279.736 1.279-.736h1.475l.738-1.263 1.279-.736.015-1.473Z"/><path fill="#6535FF" d="M324.08 136.988h-1.428a.11.11 0 0 1-.1 0l-.685-1.186-1.185-.701a.11.11 0 0 1 0-.1v-1.43l-.671-1.187a.15.15 0 0 1 0-.114l.685-1.187v-1.43a.17.17 0 0 1 0-.1l1.185-.672.685-1.187a.1.1 0 0 1 .1 0h1.428l1.185-.672a.086.086 0 0 1 .114 0l1.185.686h1.428a.117.117 0 0 1 .1 0l.685 1.187 1.171.701a.1.1 0 0 1 0 .157.114.114 0 0 1-.157 0l-1.214-.715-.656-1.144h-1.428l-1.157-.672-1.156.672h-1.428l-.671 1.158-1.156.658v1.33l-.657 1.144.657 1.158v1.33l1.142.672.671 1.158h1.328a.102.102 0 0 1 .086.028.103.103 0 0 1 .028.087.194.194 0 0 1-.114.371Z"/><path fill="#FCCDD3" d="M326 134a2 2 0 1 0 .001-3.999A2 2 0 0 0 326 134Z"/><path fill="#6535FF" d="M324.662 133.987c-.374-.384-.61-.937-.656-1.536a2.712 2.712 0 0 1 .408-1.644c.311-.46.755-.747 1.236-.799.477-.05.951.132 1.323.507a.146.146 0 0 1 0 .169.095.095 0 0 1-.148 0c-.498-.516-1.197-.607-1.77-.229-.572.378-.904 1.148-.838 1.95.04.521.244 1.002.568 1.336a.139.139 0 0 1 .034.092.141.141 0 0 1-.034.093.101.101 0 0 1-.05.066.071.071 0 0 1-.073-.005Z"/><path fill="#6534FF" d="m332.08 127.624-6.033-3.408a1.942 1.942 0 0 0-.679-.216 3.344 3.344 0 0 0-.287.82 5.976 5.976 0 0 0 .287 2.876c.33.943.602 1.903.814 2.876a6.884 6.884 0 0 1-.482 3.941c-.694 1.611-2.021 2.977-2.504 4.66a4.181 4.181 0 0 0-.196.963l1.161.633c.566.308 1.26.308 1.825 0l6.094-3.408c.562-.316.91-.889.92-1.51v-6.717a1.713 1.713 0 0 0-.92-1.51Z" opacity=".32"/><path fill="#fff" d="M326.138 139.992a.178.178 0 0 1-.107 0 .112.112 0 0 1 0-.154l5.735-2.805a.16.16 0 0 1 .153-.023c.052.02.084.065.081.112-.004.048-.042.089-.097.103l-5.765 2.754v.013Zm177.318 69.002a2.29 2.29 0 0 0 1.472-.4l7.361-5.184c.515-.369.837-.937.884-1.556l.824-12.024a.87.87 0 0 0-.574-.886 27.03 27.03 0 0 0-8.348-1.885 27.69 27.69 0 0 0-8.538.771.907.907 0 0 0-.692.814l-.839 12.024a2.04 2.04 0 0 0 .662 1.657l6.537 6.083c.336.328.777.535 1.251.586Z"/><path fill="#52D2BC" d="m502.925 199.798 3.075-1.519-3.194 3.721-2.806-4 2.925 1.798Z"/><path fill="#6535FF" d="M502.833 202 500 198l2.954 1.778 3.046-1.5-3.259 3.708.092.014Zm-2.742-3.903 2.742 3.82 3.136-3.556-3.045 1.389-2.833-1.653Z"/><path fill="#52D2BC" d="M505.985 197.631h-.015L502.894 199l-2.879-1.624H500l.015-.014H500l3.211-4.362 2.789 4.617-.015.014Z"/><path fill="#6535FF" d="M503.842 199 501 197.369l3.218-4.369 2.782 4.638-3.008 1.349-.15.013ZM501 197.301l2.842 1.632 3.008-1.349-2.737-4.571-3.113 4.288Z"/><path fill="#6535FF" d="m494.815 189.37-.81 11.675a2.842 2.842 0 0 0 .899 2.246l6.29 5.917a2.999 2.999 0 0 0 3.757.245l7.056-5.039a2.862 2.862 0 0 0 1.193-2.102l.796-11.69a1.669 1.669 0 0 0-1.076-1.67 27.093 27.093 0 0 0-16.808-1.108 1.695 1.695 0 0 0-1.297 1.526Zm.84 0a.899.899 0 0 1 .663-.792 26.457 26.457 0 0 1 8.235-.763c2.768.189 5.488.806 8.058 1.828a.877.877 0 0 1 .545.879l-.795 11.675a2.009 2.009 0 0 1-.855 1.44l-7.056 5.039a1.99 1.99 0 0 1-1.37.388 2.07 2.07 0 0 1-1.297-.561l-6.305-5.917c-.442-.415-.674-1-.633-1.598l.81-11.618Z"/><path fill="#BBC4EF" d="m494.007 201.149.791-11.767a1.694 1.694 0 0 1 1.267-1.538 25.438 25.438 0 0 1 6.836-.842 9.297 9.297 0 0 0-1.727 3.41 27.313 27.313 0 0 0-.763 4.6c-.1.828-.1 1.666 0 2.495.274 2.017 1.669 3.7 2.26 5.63a9.35 9.35 0 0 1 0 4.919c-.163.661-.37 1.311-.619 1.944a2.79 2.79 0 0 1-.993-.624l-6.174-5.934a2.915 2.915 0 0 1-.878-2.293Z" opacity=".44"/><path fill="#070707" d="m510.238 201 4.034-.832a.578.578 0 0 0 .605-.524l.121-2.04a.566.566 0 0 0-.524-.604l-4.034.846a.242.242 0 0 0-.216.389l1.426.564a.241.241 0 0 1 0 .322l-1.56 1.449a.243.243 0 0 0 .148.43Zm-12.443-4.506-4.047-1.492a.55.55 0 0 0-.423.151.641.641 0 0 0-.199.431l-.124 2.267a.64.64 0 0 0 .141.452.552.552 0 0 0 .397.205l4.048 1.492a.258.258 0 0 0 .238-.15.304.304 0 0 0-.017-.298l-1.382-1.835a.286.286 0 0 1 0-.358l1.506-.418a.284.284 0 0 0 .054-.268.254.254 0 0 0-.192-.179Z" opacity=".18"/><path fill="#FCCDD3" d="m510.213 199.715 4.023.284c.308.018.575-.24.603-.583l.161-3.457c.008-.347-.227-.642-.537-.674l-4.022-.284a.238.238 0 0 0-.238.148.294.294 0 0 0 .036.301l1.341 1.826a.309.309 0 0 1 0 .374l-1.528 1.631a.295.295 0 0 0-.034.269.25.25 0 0 0 .195.165Zm-12.424-5.445-4.001-.268a.508.508 0 0 0-.403.152.64.64 0 0 0-.183.43l-.2 3.476a.658.658 0 0 0 .136.451.522.522 0 0 0 .384.205l4 .284a.237.237 0 0 0 .223-.145.296.296 0 0 0-.023-.288l-1.333-1.835a.273.273 0 0 1 0-.358l1.52-1.626a.29.29 0 0 0 .082-.284.25.25 0 0 0-.202-.194Z"/><path fill="#6535FF" d="m514.959 201-4.525-.253a.439.439 0 0 1-.407-.254.382.382 0 0 1 .121-.44l1.719-1.453a.194.194 0 0 1 .128-.047c.048 0 .094.017.128.047a.159.159 0 0 1 0 .24l-1.719 1.453a.073.073 0 0 0 0 .08l4.525.254a.39.39 0 0 0 .331-.107.38.38 0 0 0 .151-.267l.226-3.106a.154.154 0 0 1 .064-.109.192.192 0 0 1 .132-.037.186.186 0 0 1 .124.056.147.147 0 0 1 .042.117l-.226 3.093a.703.703 0 0 1-.271.506.846.846 0 0 1-.543.227Zm-17.526-1-4.201-.247a.19.19 0 0 1-.199-.065.16.16 0 0 1 0-.195.19.19 0 0 1 .199-.065l4.201.247a.102.102 0 0 0 .084 0v-.078l-1.401-1.6a.37.37 0 0 1 0-.533l1.597-1.418a.178.178 0 0 1 .238 0 .15.15 0 0 1 0 .221l-1.596 1.431a.063.063 0 0 0-.029.052c0 .02.011.039.029.052l1.4 1.587a.382.382 0 0 1 0 .429.399.399 0 0 1-.322.182Z"/><path fill="#BBC4EF" d="M504.208 207.999a.187.187 0 0 1-.197-.115.173.173 0 0 1 .074-.209l6.604-4.623a.191.191 0 0 1 .261 0 .2.2 0 0 1 0 .265l-6.589 4.608a.172.172 0 0 1-.153.074Z"/><path fill="#C4CAE8" d="M476.515 131c-.296-.038-.515-.25-.515-.499 0-.248.219-.46.515-.498h19.336l14.495-.997a.648.648 0 0 1 .452.105.439.439 0 0 1 .2.351c.025.275-.22.515-.551.541l-14.494.997h-19.438Z"/><path fill="#C4CAE8" d="M497 139a7 7 0 1 0 0-14 7 7 0 0 0 0 14ZM480.5 139a6.5 6.5 0 1 0 0-13 6.5 6.5 0 0 0 0 13Z"/><path fill="#fff" d="M500.436 134a.592.592 0 0 1-.403-.161l-3.911-3.924a.566.566 0 0 1 .793-.793l3.91 3.924a.536.536 0 0 1 0 .793.536.536 0 0 1-.389.161Zm-3.037 0a.615.615 0 0 1-.439-.176l-1.827-1.828a.614.614 0 0 1 .862-.863l1.828 1.828a.614.614 0 0 1 0 .863.612.612 0 0 1-.424.176Zm-15.959 1a.563.563 0 0 1-.39-.161l-3.928-3.924a.566.566 0 0 1 .794-.793l3.928 3.924a.564.564 0 0 1-.404.954Zm3.048-1a.537.537 0 0 1-.366-.147l-1.011-1.018a.516.516 0 0 1 .039-.684.51.51 0 0 1 .68-.04l1.012 1.018a.491.491 0 0 1 0 .724.49.49 0 0 1-.354.147Z"/><path fill="#3E1EC4" d="M235 164.723c0-.576-.484-1.046-1.085-1.053.358-.141.612-.454.664-.822a1.018 1.018 0 0 0-.41-.962 1.126 1.126 0 0 0-1.076-.141c.236-.245.338-.581.278-.909a1.072 1.072 0 0 0-.586-.763h-.132a1.135 1.135 0 0 0-1.114.253 5.169 5.169 0 0 1-3.095-1.826c-.6 0-1.085.465-1.085 1.04a1.073 1.073 0 0 0-.763-.62 1.118 1.118 0 0 0-1.071.339 1.058 1.058 0 0 0-.19 1.067 1.107 1.107 0 0 0-1.1-.239h-.132c-.315.15-.534.436-.589.768-.056.331.06.668.31.904-.544-.195-1.151.054-1.379.566-.228.511.005 1.104.528 1.345-.555.061-.973.511-.973 1.046s.418.985.973 1.047c-.494.182-.778.68-.673 1.176.105.497.57.849 1.099.833.126.021.255.021.381 0a1.01 1.01 0 0 0-.282.908c.064.328.289.607.605.749h.132c.394.116.823.013 1.114-.266-.149.34-.099.73.132 1.025l.162.169-1.335 2.669a.174.174 0 0 0 .027.192.196.196 0 0 0 .193.061l1.467-.38a.21.21 0 0 1 .22.099l.66 1.405a.192.192 0 0 0 .168.097.194.194 0 0 0 .169-.097l1.247-2.529 1.261 2.529a.194.194 0 0 0 .169.097c.07 0 .135-.038.168-.097l.646-1.405a.239.239 0 0 1 .234-.099l1.467.38a.196.196 0 0 0 .193-.061.176.176 0 0 0 .027-.192l-1.32-2.669a.398.398 0 0 0 .117-.099c.257-.293.325-.698.176-1.053.298.259.718.345 1.1.224h.147c.314-.152.533-.441.588-.774a1.025 1.025 0 0 0-.309-.911c.129.056.269.085.41.084a1.117 1.117 0 0 0 1.012-.646.999.999 0 0 0 .029-.82 1.06 1.06 0 0 0-.601-.585c.582-.03 1.036-.495 1.027-1.054Z" opacity=".32"/><path fill="#F9879A" d="m233.796 173.309-1.567-.369c-.095-.028-.198.014-.235.096l-.704 1.369a.212.212 0 0 1-.181.095.212.212 0 0 1-.18-.095l-1.911-3.533c-.045-.087-.003-.19.094-.233l2.71-1.123c.1-.04.217-.003.266.082l1.911 3.52a.166.166 0 0 1-.053.135.216.216 0 0 1-.15.056Z"/><path fill="#F9879A" d="m225.189 173.299 1.567-.369c.099-.029.208.012.251.096l.689 1.365a.207.207 0 0 0 .188.109.205.205 0 0 0 .188-.109l1.912-3.523a.156.156 0 0 0 .001-.135.196.196 0 0 0-.11-.097l-2.696-1.119c-.104-.041-.227-.005-.282.082l-1.896 3.508a.161.161 0 0 0 .048.13.218.218 0 0 0 .14.062Z"/><path fill="#6534FF" d="m229.811 170.689-.47-.189c.026.394-.158.779-.503 1.051-.276.202-.632.309-.924.511-.25.176-.468.38-.649.606a1.474 1.474 0 0 0-.259.377 1.233 1.233 0 0 0 0 .243l.616 1.104a.215.215 0 0 0 .194.108.216.216 0 0 0 .195-.108l1.978-3.474a.149.149 0 0 0-.023-.15.216.216 0 0 0-.155-.079Zm2.467-1.087a.163.163 0 0 0-.178-.1 3.227 3.227 0 0 0 0 .368 7.847 7.847 0 0 1-.069 1.501 1.973 1.973 0 0 0 0 .694c.124.453.591.679.949.962.133.107.257.226.371.354l.427.113a.175.175 0 0 0 .181-.06.19.19 0 0 0 .025-.194l-1.706-3.638Z" opacity=".32"/><path fill="#fff" d="M236 164.966a1.1 1.1 0 0 0-1.093-1.092c.277-.11.496-.331.606-.61.11-.279.102-.592-.023-.865a1.099 1.099 0 0 0-.601-.616 1.083 1.083 0 0 0-.856.011 1.098 1.098 0 0 0-.306-1.74h-.145a1.101 1.101 0 0 0-1.108.28 1.096 1.096 0 0 0-.586-1.387 1.073 1.073 0 0 0-1.395.532 1.097 1.097 0 0 0-1.085-.979c-.555 0-1.021.421-1.085.979a1.068 1.068 0 0 0-.75-.652 1.055 1.055 0 0 0-.955.253l-.116.104a1.1 1.1 0 0 0-.175 1.106 1.13 1.13 0 0 0-1.093-.251h-.146a1.128 1.128 0 0 0-.276 1.77 1.074 1.074 0 0 0-1.37.594 1.097 1.097 0 0 0 .525 1.412 1.102 1.102 0 0 0-.967 1.099c0 .562.416 1.034.967 1.099a1.116 1.116 0 0 0-.583 1.475c.173.408.567.674 1.005.678a.951.951 0 0 0 .393-.088 1.099 1.099 0 0 0 .306 1.74h.146c.385.126.806.024 1.093-.265-.148.357-.098.767.131 1.077.062.08.135.149.218.206.187.149.419.227.656.221.427-.001.814-.255.991-.649 0 .603.482 1.092 1.078 1.092.595 0 1.078-.489 1.078-1.092a1.09 1.09 0 0 0 1.005.664c.262.004.516-.091.714-.265l.102-.104c.259-.311.332-.74.189-1.121.288.287.711.384 1.093.251h.131a1.1 1.1 0 0 0 .277-1.755 1.021 1.021 0 0 0 .83 0 1.1 1.1 0 0 0 .583-.59c.126-.271.136-.582.029-.861a1.089 1.089 0 0 0-.597-.614 1.112 1.112 0 0 0 1.165-1.047Z"/><path fill="#62BCF9" d="M225.378 169.49h-.157a1.189 1.189 0 0 1-.64-.829 1.13 1.13 0 0 1 .113-.719 1.185 1.185 0 0 1-1.181-.705 1.084 1.084 0 0 1 .356-1.382 1.168 1.168 0 0 1-.869-1.106c.009-.499.349-.935.84-1.079a1.127 1.127 0 0 1-.342-1.313c.2-.466.694-.748 1.211-.691a1.176 1.176 0 0 1-.128-.733c.053-.367.287-.686.626-.857h.157c.306-.096.638-.071.925.069-.032-.305.065-.61.271-.843l.114-.125a1.211 1.211 0 0 1 1.053-.235c.253.054.48.191.641.387.15-.489.613-.826 1.139-.829.51.007.957.33 1.111.802a1.2 1.2 0 0 1 1.08-.397c.407.059.753.319.913.687.069.181.098.374.086.567.282-.153.618-.183.925-.083h.157c.34.158.58.468.64.829.042.25.002.506-.113.733a1.17 1.17 0 0 1 1.181.691 1.1 1.1 0 0 1-.341 1.383c.499.144.845.586.854 1.092a.126.126 0 0 1-.114.124.126.126 0 0 1-.128-.124.89.89 0 0 0-.291-.656.944.944 0 0 0-.692-.243.157.157 0 0 1-.128-.096.125.125 0 0 1 .072-.125.902.902 0 0 0 .481-1.153.948.948 0 0 0-1.151-.547.13.13 0 0 1-.142 0 .109.109 0 0 1 0-.138.95.95 0 0 0 .242-.788.943.943 0 0 0-.513-.664h-.128a.975.975 0 0 0-.954.235.129.129 0 0 1-.156 0 .106.106 0 0 1 0-.138.874.874 0 0 0 .002-.7.914.914 0 0 0-.515-.489.966.966 0 0 0-1.225.47h-.128a.111.111 0 0 1-.085-.111.942.942 0 0 0-.94-.885.958.958 0 0 0-.674.263.9.9 0 0 0-.28.65.138.138 0 0 1-.1.124.127.127 0 0 1-.128-.083.948.948 0 0 0-.655-.539.99.99 0 0 0-.84.208.233.233 0 0 0-.085.083.905.905 0 0 0-.171.926.12.12 0 0 1 0 .138.117.117 0 0 1-.142 0 .988.988 0 0 0-.969-.29h-.114a.902.902 0 0 0-.512.677.91.91 0 0 0 .27.788.107.107 0 0 1 0 .152.114.114 0 0 1-.142 0 .956.956 0 0 0-1.239.484.908.908 0 0 0 .499 1.203c.027.006.05.023.063.047a.094.094 0 0 1 .008.077.114.114 0 0 1-.114.083.939.939 0 0 0-.911.913.896.896 0 0 0 .27.654.953.953 0 0 0 .669.272.112.112 0 0 1 .114.097.124.124 0 0 1-.085.124.917.917 0 0 0-.499 1.203.951.951 0 0 0 1.211.497.102.102 0 0 1 .128 0 .11.11 0 0 1 0 .139.935.935 0 0 0-.242.788.942.942 0 0 0 .512.663h.129a.109.109 0 0 1 0 .138.127.127 0 0 1 .071.166.132.132 0 0 1-.171.069Z"/><path fill="#BBC4EF" d="M229 169.5a5 5 0 1 0-.001-10.001A5 5 0 0 0 229 169.5Z" opacity=".32"/><path fill="#BBC4EF" d="M225.087 163.5a.109.109 0 0 1-.076-.061.124.124 0 0 1 0-.103c.513-1.684 1.743-3.006 3.313-3.559 1.57-.552 3.291-.27 4.635.761a.137.137 0 0 1 .041.099.137.137 0 0 1-.041.098.13.13 0 0 1-.168 0c-2.205-1.703-5.278-1.177-6.88 1.178a5.881 5.881 0 0 0-.702 1.472c-.007.066-.06.116-.122.115Z"/><path fill="#6534FF" d="M235.999 164.768c-.008-.612-.484-1.104-1.069-1.104.27-.112.485-.335.593-.618.108-.282.1-.599-.023-.875a1.093 1.093 0 0 0-.588-.623 1.026 1.026 0 0 0-.837.011c.235-.254.339-.611.279-.96a1.099 1.099 0 0 0-.579-.801h-.142a1.053 1.053 0 0 0-1.084.284c.08-.182.105-.385.072-.582-.198.24-.349.519-.442.821a7.284 7.284 0 0 0-.143.955 4.582 4.582 0 0 1-.67 1.835 13.683 13.683 0 0 0-1.839 2.582 7.523 7.523 0 0 0-.199 2.657 12.272 12.272 0 0 1-.328 2.984c.326.212.735.222 1.07.026.334-.195.541-.565.541-.966.17.409.557.673.983.672.257.003.506-.092.699-.269l.1-.105c.254-.314.325-.748.185-1.134.281.29.696.389 1.069.254h.128a1.1 1.1 0 0 0 .573-.815 1.14 1.14 0 0 0-.302-.961.972.972 0 0 0 .813 0c.257-.113.462-.328.57-.597.123-.274.133-.589.028-.871a1.08 1.08 0 0 0-.584-.621c.302.013.596-.107.81-.331.214-.224.328-.532.316-.848ZM449.929 111.395V97.51a3.551 3.551 0 0 0-1.794-3.087l-12.108-6.945a3.6 3.6 0 0 0-3.58 0l-12.105 6.945a3.552 3.552 0 0 0-1.793 3.087v13.902a3.551 3.551 0 0 0 1.793 3.09l12.108 6.941a3.599 3.599 0 0 0 3.581 0l12.108-6.941a3.55 3.55 0 0 0 1.79-3.107Z" opacity=".32"/><path fill="#FCCDD3" d="M450.659 109.954V96.071a3.554 3.554 0 0 0-1.793-3.088l-12.106-6.96a3.6 3.6 0 0 0-3.58 0l-12.105 6.947a3.55 3.55 0 0 0-1.796 3.088v13.896a3.55 3.55 0 0 0 1.796 3.088l12.105 6.946a3.602 3.602 0 0 0 3.58 0l12.106-6.946a3.554 3.554 0 0 0 1.793-3.088Z"/><path stroke="#6535FF" stroke-linecap="round" stroke-linejoin="round" d="M450.659 95.394a3.576 3.576 0 0 0-1.793-3.105l-12.102-6.99a3.58 3.58 0 0 0-3.578 0l-12.112 6.99a3.574 3.574 0 0 0-1.795 3.105v13.964a3.575 3.575 0 0 0 1.795 3.105"/><path fill="#fff" d="m444.813 105.537 1.467-2.531-1.467-2.532V97.55l-2.54-1.462-1.467-2.532h-2.931l-2.539-1.462-2.541 1.462h-2.934l-1.467 2.532-2.54 1.462v2.924l-1.467 2.532 1.467 2.531v2.925l2.54 1.462 1.467 2.531h2.934l2.541 1.462 2.539-1.462h2.931l1.467-2.531 2.54-1.462v-2.925Z"/><path stroke="#6535FF" stroke-linecap="round" stroke-linejoin="round" d="m444.091 96.822-2.541-1.46-1.467-2.532h-2.935l-2.541-1.463-2.54 1.463h-2.935l-1.467 2.532-2.54 1.46v2.925l-1.468 2.533 1.468 2.534v2.925l2.54 1.463 1.467 2.533h2.935"/><path fill="#62BCF9" d="M434.969 106.643a4.007 4.007 0 0 0 4.014-4.001c0-2.209-1.797-4-4.014-4a4.007 4.007 0 0 0-4.014 4 4.007 4.007 0 0 0 4.014 4.001Z"/><path stroke="#6535FF" stroke-linecap="round" stroke-linejoin="round" stroke-width="1.51" d="M433.137 106.643c-1.702-1.446-1.943-4.02-.538-5.768a3.984 3.984 0 0 1 5.654-.596"/><path fill="#6534FF" d="m448.873 92.965-12.058-6.968a3.564 3.564 0 0 0-1.345-.45 7.009 7.009 0 0 0-.551 1.693c-.366 1.985.026 4.031.587 5.97.56 1.94 1.296 3.838 1.62 5.829a14.907 14.907 0 0 1-.92 8.094c-1.371 3.329-3.938 6.126-4.898 9.597a11.142 11.142 0 0 0-.353 1.943l2.269 1.314a3.564 3.564 0 0 0 3.565 0l12.058-6.954a3.562 3.562 0 0 0 1.812-3.076v-13.9a3.56 3.56 0 0 0-1.786-3.092Z" opacity=".32"/><path stroke="#6535FF" stroke-linecap="round" stroke-linejoin="round" d="m437.523 118.282 10.946-6.547"/><path fill="#3E1EC4" d="M582.82 57.791c-.001-1.496-1.195-2.707-2.667-2.71h-.141l.13-.046c1.311-.594 1.924-2.134 1.389-3.486-.535-1.352-2.028-2.032-3.378-1.538a2.75 2.75 0 0 0 .689-2.348 2.713 2.713 0 0 0-1.449-1.959 2.664 2.664 0 0 0-3.067.528c-.031.032-.06.068-.088.1.018-.043.039-.082.057-.125.532-1.367-.105-2.915-1.437-3.49a2.65 2.65 0 0 0-3.471 1.369c-.019-1.495-1.226-2.691-2.698-2.672-1.471.019-2.649 1.245-2.63 2.74v.143l-.05-.136a2.69 2.69 0 0 0-1.868-1.604 2.65 2.65 0 0 0-2.63.872 2.755 2.755 0 0 0-.462 2.756 2.635 2.635 0 0 0-2.682-.614 1.712 1.712 0 0 0-.354.144 2.715 2.715 0 0 0-1.447 1.99c-.14.86.136 1.737.741 2.356.033.034.069.066.106.097l-.127-.061a2.654 2.654 0 0 0-3.41 1.466c-.563 1.341.02 2.894 1.318 3.515-1.436.068-2.561 1.28-2.543 2.74.018 1.46 1.173 2.644 2.61 2.675h.141c-.046.018-.088.029-.13.05-1.181.504-1.843 1.789-1.577 3.062.266 1.272 1.384 2.173 2.665 2.146.329 0 .655-.064.961-.187a2.75 2.75 0 0 0-.689 2.348c.149.85.687 1.576 1.449 1.959a2.664 2.664 0 0 0 3.067-.524l.091-.108c-.017.043-.042.086-.06.13a2.757 2.757 0 0 0 .332 2.659c.112.156.243.299.389.423l-3.247 6.962a.48.48 0 0 0 .064.51.462.462 0 0 0 .484.15l3.505-.99a.467.467 0 0 1 .551.258l1.586 3.485a.47.47 0 0 0 .424.272.47.47 0 0 0 .424-.272l3.035-6.553 3.06 6.557a.47.47 0 0 0 .424.271.47.47 0 0 0 .424-.271l1.587-3.485a.467.467 0 0 1 .551-.258l3.505.99a.463.463 0 0 0 .484-.15.48.48 0 0 0 .064-.51l-3.241-6.945.082-.06c.094-.08.18-.17.258-.266a2.763 2.763 0 0 0 .459-2.749c.715.69 1.745.926 2.682.614.121-.038.24-.086.353-.144a2.717 2.717 0 0 0 1.447-1.991 2.747 2.747 0 0 0-.74-2.359l-.106-.096.127.06c.323.136.668.205 1.018.205a2.668 2.668 0 0 0 2.473-1.68c.548-1.358-.07-2.913-1.392-3.505 1.436-.053 2.575-1.25 2.575-2.71Z" opacity=".32"/><path fill="#FCCDD3" d="m578.217 79.207-3.425-1.013a.448.448 0 0 0-.539.264l-1.555 3.563a.457.457 0 0 1-.413.278.455.455 0 0 1-.413-.278l-4.286-9.602a.51.51 0 0 1-.02-.372.474.474 0 0 1 .234-.277l6.069-3.052a.434.434 0 0 1 .35-.019.464.464 0 0 1 .258.25l4.276 9.58a.509.509 0 0 1-.06.523.44.44 0 0 1-.476.155Z"/><path fill="#FCCDD3" d="m559.28 79.207 3.424-1.012a.448.448 0 0 1 .539.264l1.551 3.563a.46.46 0 0 0 .415.277.46.46 0 0 0 .415-.277l4.284-9.603a.502.502 0 0 0-.217-.65l-6.065-3.052a.45.45 0 0 0-.611.231l-4.275 9.58a.51.51 0 0 0 .061.527.44.44 0 0 0 .479.152Z"/><path fill="#6534FF" d="m569.708 72.36-1.028-.482a3.389 3.389 0 0 1-1.097 2.73c-.593.534-1.371.835-1.974 1.334a7.693 7.693 0 0 0-1.398 1.618 4.068 4.068 0 0 0-.569.981 2.468 2.468 0 0 0-.123.613l1.316 2.883a.454.454 0 0 0 .822 0l4.25-9.068a.465.465 0 0 0-.199-.61Zm4.309-3.42a.512.512 0 0 0-.528-.264 5.76 5.76 0 0 0 0 .965 21.408 21.408 0 0 1-.207 3.886 4.318 4.318 0 0 0-.031 1.814c.345 1.176 1.653 1.789 2.679 2.518.379.273.733.576 1.056.907l1.171.309a.52.52 0 0 0 .523-.153.46.46 0 0 0 .07-.515l-4.733-9.466Z" opacity=".32"/><path fill="#6534FF" d="M572.666 65.464c-.98.005-1.911.419-2.558 1.136a3.42 3.42 0 0 0-2.837-.124 3.454 3.454 0 0 0-2.441-1.012c-2.056 0-3.724 1.624-3.724 3.626 0 2.003 1.668 3.627 3.724 3.627.44 0 .875-.085 1.281-.249a3.43 3.43 0 0 0 2.527 1.012 3.421 3.421 0 0 0 2.471-1.136c.48.243 1.012.37 1.553.373 2.057 0 3.725-1.624 3.725-3.627 0-2.002-1.668-3.626-3.725-3.626h.004Z" opacity=".32"/><path fill="#fff" d="M584.429 57.451a2.671 2.671 0 0 0-2.668-2.668h-.141l.134-.045a2.668 2.668 0 0 0-1.993-4.947 2.675 2.675 0 0 0-.759-4.24 1.967 1.967 0 0 0-.354-.138 2.678 2.678 0 0 0-2.71.657l-.092.099a2.666 2.666 0 1 0-4.848-2.212 2.667 2.667 0 0 0-5.331.067v.141c0-.046-.029-.088-.046-.134a2.68 2.68 0 0 0-4.502-.72 2.682 2.682 0 0 0-.459 2.713 2.68 2.68 0 0 0-2.686-.604c-.122.036-.24.083-.353.141a2.675 2.675 0 0 0-.707 4.28c.036.034.071.063.106.094l-.127-.06a2.667 2.667 0 0 0-2.092 4.905 2.668 2.668 0 0 0 .071 5.332h.138l-.131.05a2.672 2.672 0 0 0-1.435 3.487 2.664 2.664 0 0 0 3.424 1.46 2.67 2.67 0 0 0 .764 4.24 2.69 2.69 0 0 0 3.067-.516c.035-.035.063-.07.095-.106-.021.042-.042.085-.06.127a2.674 2.674 0 0 0 .332 2.622 2.672 2.672 0 0 0 4.572-.537 2.668 2.668 0 0 0 5.332-.07v-.139c0 .043.028.089.046.131a2.667 2.667 0 0 0 2.473 1.64c.65-.001 1.277-.236 1.767-.661.095-.078.181-.166.258-.262a2.667 2.667 0 0 0 .459-2.706c.716.68 1.748.912 2.686.604.121-.038.239-.085.353-.141a2.676 2.676 0 0 0 .707-4.283l-.103-.096.128.06a2.624 2.624 0 0 0 2.042 0 2.668 2.668 0 0 0 .046-4.901 2.668 2.668 0 0 0 2.597-2.664Z"/><path stroke="#5CBEFF" stroke-linecap="round" stroke-linejoin="round" d="M583.625 56.632a2.671 2.671 0 0 0-2.672-2.664h-.142c.046-.018.092-.028.135-.05a2.66 2.66 0 0 0 1.479-3.464 2.673 2.673 0 0 0-3.475-1.475 2.665 2.665 0 0 0-.761-4.234 2.696 2.696 0 0 0-3.069.515c-.032.032-.06.067-.092.102a2.23 2.23 0 0 0 .057-.123 2.66 2.66 0 0 0-1.447-3.404 2.674 2.674 0 0 0-3.465 1.315 2.67 2.67 0 0 0-2.705-2.538 2.668 2.668 0 0 0-2.636 2.609v.14c0-.045-.028-.09-.046-.133a2.688 2.688 0 0 0-4.247-.98 2.026 2.026 0 0 0-.262.26 2.664 2.664 0 0 0-.46 2.706 2.696 2.696 0 0 0-2.69-.603c-.121.037-.24.085-.354.141a2.67 2.67 0 0 0-.707 4.276l.106.096-.128-.06a2.674 2.674 0 0 0-3.489 1.443 2.66 2.66 0 0 0 1.447 3.479 2.668 2.668 0 0 0-2.547 2.694 2.668 2.668 0 0 0 2.615 2.63h.138l-.131.046a2.668 2.668 0 0 0-1.437 3.486 2.679 2.679 0 0 0 3.436 1.454 2.667 2.667 0 0 0 1.119 4.375"/><path fill="#BBC4EF" d="M568.746 69.472c6.884 0 12.465-5.563 12.465-12.425 0-6.863-5.581-12.426-12.465-12.426-6.885 0-12.466 5.563-12.466 12.425 0 6.863 5.581 12.426 12.466 12.426Z" opacity=".32"/><path stroke="#BBC4EF" stroke-linecap="round" stroke-linejoin="round" stroke-width="1.66" d="M557.085 53.439c1.181-3.52 4.044-6.285 7.702-7.44 3.658-1.154 7.671-.558 10.795 1.603"/><path fill="#6534FF" d="M584.429 57.406c-.002-1.472-1.21-2.664-2.701-2.666h-.143l.135-.046a2.654 2.654 0 0 0 1.423-3.44c-.546-1.337-2.07-2.004-3.441-1.505a2.649 2.649 0 0 0 .701-2.312 2.677 2.677 0 0 0-1.47-1.927 1.984 1.984 0 0 0-.358-.138 2.737 2.737 0 0 0-2.744.657l-.093.1a2.584 2.584 0 0 0 .229-1.508 5.468 5.468 0 0 0-1.138 1.977 15.408 15.408 0 0 0-.358 2.3 10.489 10.489 0 0 1-1.724 4.411c-1.471 2.151-3.753 3.786-4.691 6.21-.78 2.006-.512 4.238-.479 6.382a27.959 27.959 0 0 1-.841 7.188c.421.256.907.392 1.402.392 1.491-.002 2.7-1.195 2.702-2.667v-.138c0 .043.028.089.046.13a2.703 2.703 0 0 0 2.505 1.64c.657-.001 1.292-.236 1.789-.66.096-.079.183-.166.261-.262a2.64 2.64 0 0 0 .465-2.706c.725.68 1.77.912 2.72.604.122-.037.242-.084.357-.14a2.681 2.681 0 0 0 1.466-1.96 2.654 2.654 0 0 0-.75-2.322l-.104-.095.129.06a2.69 2.69 0 0 0 2.068 0 2.654 2.654 0 0 0 .047-4.899c1.445-.059 2.587-1.231 2.59-2.66ZM280.275 29.595l-1.63-2.825-.133-3.265a4.541 4.541 0 0 0-2.41-3.842l-2.27-1.199-1.282-2.203a4.52 4.52 0 0 0-3.926-2.27h-3.248l-2.886-1.528a4.534 4.534 0 0 0-4.53.167l-2.173 1.362h-2.565c-1.621-.001-3.12.864-3.93 2.269l-1.626 2.811-2.768 1.732a4.547 4.547 0 0 0-2.128 3.997l.097 2.56-1.283 2.203a4.542 4.542 0 0 0 0 4.538l1.631 2.825.119 3.296a4.543 4.543 0 0 0 2.41 3.842l2.265 1.199 1.283 2.203a4.534 4.534 0 0 0 3.93 2.27h2.706v7.336a.623.623 0 0 0 1.018.476l3.847-3.208a.621.621 0 0 1 .802 0l3.64 3.16a.622.622 0 0 0 1.027-.472v-7.275h2.379a4.523 4.523 0 0 0 3.927-2.27l1.635-2.828 2.767-1.732a4.537 4.537 0 0 0 2.12-4.01l-.093-2.56 1.282-2.203a4.536 4.536 0 0 0-.004-4.556Z" opacity=".32"/><path fill="#62BCF9" d="m266.931 56.5-3.519-3.26a.57.57 0 0 0-.774 0l-3.715 3.31a.569.569 0 0 1-.637.087.646.646 0 0 1-.346-.578v-8.64a.669.669 0 0 1 .164-.468.582.582 0 0 1 .428-.2h8.791c.329.002.595.288.595.64v8.64a.64.64 0 0 1-.353.57.567.567 0 0 1-.634-.101Z"/><path fill="#6534FF" d="M263.428 50.729c3.031 0 5.488-2.45 5.488-5.47 0-3.022-2.457-5.47-5.488-5.47-3.032 0-5.489 2.448-5.489 5.47 0 3.02 2.457 5.47 5.489 5.47Z" opacity=".32"/><path fill="#BBC4EF" d="m282.272 27.614-1.631-2.817-.119-3.257a4.532 4.532 0 0 0-2.411-3.833l-2.266-1.196-1.283-2.198a4.537 4.537 0 0 0-3.931-2.264h-3.266l-2.883-1.577a4.556 4.556 0 0 0-4.536.167l-2.173 1.37h-2.565a4.533 4.533 0 0 0-3.927 2.265l-1.636 2.817-2.768 1.732a4.515 4.515 0 0 0-2.12 4l.106 2.554-1.283 2.198a4.517 4.517 0 0 0 0 4.527l1.631 2.818.093 3.275a4.521 4.521 0 0 0 2.406 3.833l2.27 1.195 1.283 2.198a4.542 4.542 0 0 0 3.927 2.264h3.266l2.888 1.52a4.537 4.537 0 0 0 4.531-.162l2.173-1.358h2.565c1.622 0 3.12-.864 3.932-2.264l1.631-2.822 2.768-1.727a4.533 4.533 0 0 0 2.124-4l-.061-2.541 1.282-2.198a4.517 4.517 0 0 0-.017-4.519Z"/><path stroke="#6534FF" stroke-linecap="round" stroke-linejoin="round" d="M279.893 20.499a4.527 4.527 0 0 0-2.434-3.835l-2.287-1.2-1.295-2.199a4.594 4.594 0 0 0-3.969-2.26h-3.297l-2.91-1.526a4.635 4.635 0 0 0-4.579.163l-2.193 1.363h-2.59a4.589 4.589 0 0 0-3.964 2.242l-1.651 2.824-2.79 1.732a4.497 4.497 0 0 0-2.144 3.997l.093 2.56-1.295 2.198a4.474 4.474 0 0 0 0 4.525l1.647 2.84.12 3.255a4.517 4.517 0 0 0 2.429 3.834l2.292 1.196 1.294 2.199a4.586 4.586 0 0 0 3.965 2.265h3.297l2.914 1.525a4.616 4.616 0 0 0 4.601-.15"/><path fill="#6534FF" d="m280.662 24.956-.117-3.237a4.506 4.506 0 0 0-2.376-3.81l-2.232-1.188-1.264-2.185a4.464 4.464 0 0 0-3.874-2.25h-3.218l-.661-.35c.103 1.347.131 2.697.083 4.046.026 1.66.317 3.434 1.446 4.645.612.56 1.259 1.08 1.937 1.555a7.257 7.257 0 0 1 2.519 6.309c-.247 2.101-1.42 4.037-1.485 6.151-.069 2.228 1.09 4.334 1.151 6.554a6.719 6.719 0 0 1-1.103 3.88c-.617.934-1.468 1.712-2.041 2.669h1.372a4.473 4.473 0 0 0 3.874-2.25l1.607-2.805 2.728-1.717a4.517 4.517 0 0 0 2.093-3.976l-.078-2.542 1.264-2.185a4.524 4.524 0 0 0 0-4.5l-1.625-2.814Z" opacity=".32"/><path fill="#6534FF" d="M262.93 44.76c7.715 0 13.969-.89 13.969-1.989 0-1.099-6.254-1.99-13.969-1.99s-13.97.891-13.97 1.99 6.255 1.99 13.97 1.99Z" opacity=".32"/><path fill="#62BCF9" d="M282.049 30.532a2.187 2.187 0 0 1-1.592.688h-33.064a2.175 2.175 0 0 1-1.588-.688 2.16 2.16 0 0 0-1.67-.69 2.148 2.148 0 0 0-1.612.81l-.116.15a2 2 0 0 0-.361 1.772l1.976 7.096c.344 1.242 1.511 2.106 2.844 2.107h34.121c1.333-.001 2.498-.866 2.841-2.107l1.98-7.096a1.997 1.997 0 0 0-.362-1.771l-.115-.151a2.155 2.155 0 0 0-1.612-.807 2.164 2.164 0 0 0-1.67.687Z"/><path stroke="#6534FF" stroke-linecap="round" stroke-linejoin="round" d="M244.812 30.53a2.165 2.165 0 0 0-1.674-.688 2.15 2.15 0 0 0-1.612.812l-.116.146a1.998 1.998 0 0 0-.362 1.772l1.978 7.101c.347 1.24 1.515 2.103 2.848 2.103h34.164c1.333 0 2.501-.862 2.848-2.103m-35.923-8.838h11.975m11.974 10.941h-6.985m-4.989 1.99h1.995m6.985 7.957v2.984m-16.963-36.803 6.985-3.979"/><path fill="#fff" d="M125.561 97.604a2.63 2.63 0 0 1-1.669-.603l-8.332-6.927a2.532 2.532 0 0 1-.923-1.96l.052-14.705c.003-.47.311-.886.765-1.033a32.728 32.728 0 0 1 20.39.068c.455.15.76.57.758 1.043l-.051 14.702a2.536 2.536 0 0 1-.936 1.955l-8.368 6.87a2.638 2.638 0 0 1-1.686.59Z"/><path fill="#52D2BC" stroke="#6535FF" stroke-linecap="round" stroke-linejoin="round" stroke-width=".32" d="m126.941 87.173-3.518-2.16 3.459 4.927 3.68-4.774-3.621 2.007Z"/><path fill="#52D2BC" stroke="#6535FF" stroke-linecap="round" stroke-linejoin="round" stroke-width=".32" d="M123.428 84.11h.02l3.535 1.998 3.556-1.85.018.002-.01-.005.015-.01-3.405-5.8-3.734 5.653.017.007-.012.005Z"/><path fill="#6535FF" d="M136.828 73.534a32.129 32.129 0 0 0-20.168-.068 2.06 2.06 0 0 0-1.425 1.941l-.049 14.204a3.458 3.458 0 0 0 1.251 2.67l7.982 6.693a3.519 3.519 0 0 0 4.497.014l8.029-6.637a3.45 3.45 0 0 0 1.256-2.65l.049-14.204a2.055 2.055 0 0 0-1.422-1.963Zm.357 16.157a2.452 2.452 0 0 1-.896 1.888l-8.029 6.638a2.51 2.51 0 0 1-3.204 0l-7.983-6.703a2.457 2.457 0 0 1-.881-1.903l.049-14.204c.001-.456.297-.86.735-1.002a31.135 31.135 0 0 1 19.533.065c.439.143.735.55.735 1.008l-.059 14.213Z"/><path fill="#BBC4EF" d="m138.2 89.226.05-14.314a2.073 2.073 0 0 0-1.429-1.972 32.7 32.7 0 0 0-8.395-1.611 11.309 11.309 0 0 1 1.838 4.277c.407 1.847.477 3.744.546 5.625a12.451 12.451 0 0 1-.139 3.043c-.511 2.413-2.389 4.319-3.294 6.62-.745 1.876-.799 3.962-.457 5.948.145.813.344 1.616.596 2.404a3.56 3.56 0 0 0 1.275-.668l8.137-6.689a3.469 3.469 0 0 0 1.272-2.663Z" opacity=".44"/><path fill="#070707" d="m119.223 87.75-5.471-1.431c-.421 0-.762-.32-.762-.716l.025-2.61c0-.396.341-.716.762-.716l5.474 1.432a.33.33 0 0 1 .301.187.295.295 0 0 1-.062.335l-1.96.57a.295.295 0 0 0 0 .42l1.947 2.012c.088.092.11.225.055.337a.334.334 0 0 1-.309.18Zm14.99-4.098 5.472-1.375c.204 0 .4.078.543.216a.703.703 0 0 1 .218.52l-.025 2.639c0 .4-.341.724-.761.724l-5.475 1.375a.331.331 0 0 1-.302-.19.303.303 0 0 1 .063-.339l1.977-2.004a.3.3 0 0 0 0-.425l-1.949-.618a.303.303 0 0 1-.058-.334.331.331 0 0 1 .297-.189Z" opacity=".18"/><path fill="#FCCDD3" d="m119.218 86.656-5.467-.038c-.421 0-.761-.32-.761-.715l.03-4.006c0-.395.341-.715.761-.715l5.47.038a.33.33 0 0 1 .301.188.295.295 0 0 1-.062.334l-1.966 1.967a.293.293 0 0 0 0 .42l1.943 2.01a.295.295 0 0 1 .055.335.33.33 0 0 1-.304.182Zm15-5.474 5.467.036c.205 0 .401.077.544.214a.691.691 0 0 1 .217.514l-.03 3.996c0 .395-.341.714-.761.714l-5.47-.038a.332.332 0 0 1-.302-.187.296.296 0 0 1 .063-.334l1.977-1.977a.294.294 0 0 0 0-.419l-1.951-2.007a.296.296 0 0 1-.052-.33.332.332 0 0 1 .298-.182Z"/><path stroke="#6535FF" stroke-linecap="round" stroke-linejoin="round" d="m117.162 84.594 1.787 2.075a.33.33 0 0 1 .053.35.299.299 0 0 1-.286.184l-5.027-.04a.684.684 0 0 1-.499-.22.764.764 0 0 1-.2-.53l.028-4.136m26.33 4.926-5.181-.037a.312.312 0 0 1-.285-.186.303.303 0 0 1 .059-.332l1.876-1.963c.11-.119.11-.3 0-.419l-1.842-1.99"/><path stroke="#BBC4EF" stroke-linecap="round" stroke-linejoin="round" d="m117.932 91.035 7.139 6.022"/><path fill="#E2A3AE" d="M583.537 477.507c19.428 14.643 67.837-2.858 81.194-33.474 10.616-24.334-10.253-35.58-4.319-68.439 7.286-40.394 42.876-45.86 52.665-84.211 9.138-35.806-3.505-76.739-17.526-78.983-14.596-2.332-19.441 39.329-64.958 84.625-31.909 31.756-43.639 25.312-56.195 49.521-15.51 29.926-9.463 62.609-1.727 104.458 3.18 17.025 5.783 22.679 10.866 26.503Z" opacity=".62"/><path fill="#FCCDD3" d="M755.151 311.217c.739 5.014 4.457 33.436-12.706 60.29-19.904 31.142-43.689 22.341-74.922 51.665-37.13 34.865-35.377 77.24-46.181 75.886-12.03-1.492-27.54-55.564-4.869-89.715 18.514-27.819 45.066-16.298 74.972-45.546 37.555-36.734 32.385-90.568 46.068-90.166 9.288.275 15.798 25.049 17.638 37.586Z" opacity=".62"/><path stroke="#fff" stroke-linecap="round" stroke-linejoin="round" stroke-width="2.3" d="M597.157 454.464c-3.242-70.069 15.372-100.296 33.224-115.014 13.657-11.221 27.014-13.415 40.784-29.725 19.517-23.131 21.807-53.257 20.844-74.42" opacity=".62"/><path fill="#FCCDD3" d="M605.344 403.865c-.876 56.128-1.402 89.564-13.019 92.498-15.773 3.961-56.183-46.6-48.321-90.818 4.769-26.855 24.198-33.524 39.771-81.24 7.849-24.058 8.049-38.112 11.266-38.037 6.773.163 11.091 63.688 10.303 117.597Z" opacity=".62"/><path stroke="#fff" stroke-linecap="round" stroke-linejoin="round" stroke-width="2.3" d="M583.674 479.475c-19.791-29.399-20.893-50.486-18.477-64.089 3.581-20.159 15.836-29.286 23.948-58.623a152.622 152.622 0 0 0 5.445-42.475" opacity=".62"/><path stroke="#fff" stroke-linecap="round" stroke-linejoin="round" stroke-width="1.15" d="M621.192 482.747c-.676-14.768.726-36.357 13.77-55.162 15.811-22.792 37.18-24.711 57.697-40.282 17.526-13.314 37.969-39.24 45.067-95.281m-7.887 36.759 12.118-12.349M723.88 346.17l-1.164-17.326m-2.817 27.568 23.297-15.508m-34.375 28.86 1.89-16.335m-10.966 27.644 27.453-5.341m-39.584 15.646 4.945-17.389m-22.182 26.717 15.297.89m-23.409 3.259 4.932-19.42m-21.131 29.763 16.274-2.181m-25.362 11.446 2.891-19.407" opacity=".62"/><path stroke="#fff" stroke-linecap="round" stroke-linejoin="round" stroke-width="1.63" d="M668.496 367.168c7.236-40.388 42.581-45.853 52.303-84.198 9.088-35.8-3.469-76.726-17.405-78.97"/></svg>