<svg width="756" height="521" viewBox="0 0 756 521" fill="none" xmlns="http://www.w3.org/2000/svg">
    <path d="M326.474 243.925C326.474 243.925 335.406 243 341.902 243C346.334 243.148 350.717 244.084 354.895 245.774L346.693 255.888L332.97 256.868L326.474 243.925ZM67.0437 492.633H656.961C659.551 492.633 659.739 497.72 657.149 498.05C587.706 506.761 443.639 522.755 333.281 520.843C226.772 519.013 120.254 505.717 66.8231 498.05C64.2578 497.674 64.462 492.633 67.0437 492.633Z" fill="#FCCDD3" />
    <path d="M20.9489 491.425C26.5209 491.832 32.0655 492.555 37.556 493.59C48.0828 495.337 58.536 498.179 69.1734 498.622C88.2863 499.434 107.399 500.357 126.512 501.083C165.254 502.633 197.25 492.483 236 493.59C274.488 494.722 316.512 492.688 355 493.59C393.263 494.525 438.725 497.564 477 495.792C553.636 492.225 626.028 493.726 702.811 495.792C704.07 495.818 705.216 496.524 705.808 497.638C711.834 491.665 716.45 484.418 719.32 476.429C726.198 457.384 729.576 422.113 713.092 410.168C701.386 401.679 682.543 407.055 667.963 424.574C682.076 333.831 669.535 302.227 655.508 290.121C632.771 270.499 603.917 300.258 578.479 279.566C551.099 257.286 567.546 208.987 549.686 149.911C545.222 135.384 539.21 121.381 531.753 108.144C503.894 58.6513 441.851 2.88452 384.758 12.6157C329.175 22.1132 334.175 69.7112 274.269 100.073C199.967 137.633 165.524 97.613 131.094 139.441C95.079 183.139 112.374 251.578 71.1755 276.773C51.7801 288.632 43.7591 276.047 27.5942 289.26C-6.44305 317.014 -4.24433 400.068 8.92344 454.383C12.0865 466.99 16.1043 479.366 20.9489 491.425Z" fill="#FFDCE0" />
    <path d="M319 101.467C319 101.467 334.714 100 346.143 100C353.939 100.235 361.651 101.72 369 104.4L354.571 120.445L330.429 122L319 101.467Z" fill="#4A23E8" />
    <path d="M355.091 92.435L358 109.652L353.636 124L326 116.826L331.818 91L355.091 92.435Z" fill="white" />
    <path d="M363.553 113.517L360.691 107.724C360.691 107.724 339.229 104.828 322.058 110.621C304.888 116.414 314.904 123.655 314.904 123.655L354.968 128L375 126.552L363.553 113.517Z" fill="white" />
    <path d="M371.614 120.2L360.825 108C360.825 108 352.912 115.894 342.842 115.894C336.212 115.644 329.764 113.665 324.14 110.153L311.193 123.071L304 291L386 286.694L371.614 170.435V120.2Z" fill="#D5DCF3" />
    <path opacity="0.3" d="M357.091 272.175C355.791 269.676 354.891 266.987 354.424 264.205C354.154 260.554 354.443 256.883 355.28 253.32C356.706 245.321 357.633 237.05 355.807 229.152C355.166 226.38 354.196 223.695 353.64 220.909C350.545 205.745 359.8 190.279 357.647 174.956C356.749 168.537 353.868 162.391 353.982 155.9C354.082 149.941 356.72 144.283 357.119 138.352C357.519 132.421 355.779 126.864 355.693 121.12C355.575 117.369 356.611 113.672 358.66 110.537C359.986 109.632 360.756 109 360.756 109L370.739 120.488V170.749L385 287.067L367.345 288C363.261 283.194 359.814 277.875 357.091 272.175Z" fill="#2B0FD3" />
    <path d="M430 512L401.706 498.359L400.255 484L393 485.436L394.451 506.974L430 512Z" fill="#62BCF9" />
    <path d="M321 484V507H290L312.349 496.938L310.907 484H321Z" fill="#62BCF9" />
    <path d="M312.357 496H321V484H311L312.357 496Z" fill="white" />
    <path d="M399.838 484L393 485.412L393.684 496H401L399.838 484Z" fill="white" />
    <path d="M298.69 280L390.339 280.503L405 489H389.111C389.111 489 357.334 341.089 355.889 333.909C354.445 326.728 350.112 298.008 350.112 298.008C350.112 298.008 348.667 293.7 345.778 293.7C342.678 293.908 340.21 296.362 340.001 299.444C340.001 302.316 325.556 489 325.556 489H309.667C309.667 489 296.668 364.065 298.112 343.961C299.556 323.856 298.69 280 298.69 280Z" fill="#F9879A" />
    <path opacity="0.2" d="M389.146 281.143L392 322C390.435 321.272 388.968 320.351 387.633 319.257C381.353 313.943 380.397 304.486 375.102 298.186C372.491 295.071 368.866 292.786 366.882 289.243C365.597 286.943 365.098 284.257 363.742 282C363.52 281.648 363.272 281.314 363 281L389.146 281.143ZM360 354C362.964 354.591 365.662 356.099 367.706 358.306C369.735 360.557 370.745 363.535 370.501 366.544C370.168 369.63 369.357 373.003 370.168 376.089C371.327 380.394 374.933 380.882 374.325 385.619C373.803 389.609 372.876 393.469 374.209 397.431C375.44 401.005 378.293 403.861 379.481 407.478C381.219 412.731 379.075 418.429 379.307 423.94C379.713 433.901 387.795 442.713 386.824 452.645C386.491 456.133 385.043 459.692 386.115 463.022C386.598 464.291 387.22 465.503 387.969 466.639C391.824 473.432 392.966 481.412 391.17 489H389.026C387.824 489 381.784 455.673 381.378 453.506L366.561 384.413C364.389 374.29 362.202 364.152 360 354Z" fill="#2B0FD3" />
    <path d="M412.292 302.623C413.128 306.59 413.225 310.676 412.576 314.677C411.427 320.409 411.427 325 406.801 325C402.175 325 402.175 316.973 402.175 316.973C401.552 317.595 400.739 317.996 399.862 318.114C398.713 318.114 398.713 307.791 399.862 306.65C401.011 305.509 404.332 301.228 403.835 301.017C403.339 300.806 412.292 302.623 412.292 302.623Z" fill="white" />
    <path opacity="0.46" d="M399.014 311C398.93 309.469 399.218 307.941 399.855 306.533C401.043 305.402 404.42 301.224 403.913 301.017C403.406 300.81 412.609 302.534 412.609 302.534C412.609 302.534 412.812 303.347 413 304.644C412.659 304.789 412.286 304.855 411.913 304.837C411.523 304.783 411.136 304.709 410.754 304.616C410.189 304.524 409.616 304.487 409.043 304.506C408.523 304.472 408.001 304.538 407.507 304.699C407.177 304.856 406.862 305.041 406.565 305.25C406.029 305.588 405.436 305.835 404.811 305.981C404.374 306.053 403.943 306.154 403.522 306.284C401.319 307.153 400.971 310.049 399.014 311Z" fill="#2B0FD3" />
    <path d="M396.086 264.018C396.086 264.018 390.358 265.456 390.358 266.894V278.398C390.358 279.836 393.222 287.026 393.222 289.901C393.222 292.777 383.198 292.777 383.198 292.777C380.333 279.836 363.148 245.325 363.148 225.193V153.296L361 108C361 108 399.667 131.007 399.667 132.445C399.667 133.883 412.556 174.146 412.556 188.526C412.556 202.905 413.988 231.664 416.852 247.482C419.716 263.299 419.716 280.555 416.852 286.307C413.988 292.058 413.988 305 413.988 305L401.099 302.124L383.914 172.708" fill="#8076FA" />
    <path opacity="0.2" d="M397.473 265.997C400.022 265.868 402.957 262.055 403 258.672C403 255.633 401.11 253.999 400.537 248.939C400.007 244.323 402.957 243.764 402.585 239.549C402.169 234.962 399.048 234.647 398.719 230.175C398.432 226.118 400.909 224.914 400.781 220.785C400.666 217.517 399.076 217.345 397.272 212.801C394.895 206.823 395.153 201.075 395.468 194.037C395.611 190.797 395.812 190.955 395.797 189.507C395.797 179.702 387.65 168.263 383.225 169.037C374.132 170.643 377.655 224.039 388.036 252.178C389.769 256.794 393.334 266.198 397.473 265.997Z" fill="#2B0FD3" />
    <path d="M323.708 110C323.708 110 326.615 174.597 323.708 190.387C320.8 206.177 306.262 283.694 304.808 285.129C303.354 286.565 297.538 288 297.538 288C297.538 288 298.992 273.645 297.538 272.21C296.085 270.774 288.815 263.597 288.815 262.161C288.815 260.726 291.723 227.71 291.723 227.71L283 125.79C283 125.79 301.9 114.306 323.708 110Z" fill="#8076FA" />
    <path d="M314.712 240H314.57C314.385 239.962 314.222 239.852 314.118 239.693C314.014 239.535 313.977 239.342 314.014 239.156C314.014 238.826 320.378 206.693 323.183 189.731C325.988 172.77 323.71 123.246 323.681 122.759C323.665 122.361 323.969 122.024 324.365 122.001C324.554 121.993 324.738 122.061 324.877 122.19C325.016 122.319 325.098 122.498 325.105 122.688C325.105 123.189 327.426 172.899 324.593 189.96C321.759 207.022 315.467 239.113 315.41 239.427C315.337 239.758 315.048 239.995 314.712 240Z" fill="white" />
    <path opacity="0.3" d="M292.359 227.767L290 199.577C290.316 199.331 290.618 199.099 290.949 198.867C294.185 196.576 297.824 194.908 301.262 192.936C303.619 191.582 305.887 190.076 308.051 188.426C309.777 187.107 311.531 185.207 313.89 186.353C316.637 187.687 317.083 194.053 317.817 196.634C317.967 197.026 318.026 197.447 317.989 197.866C317.845 198.838 316.853 199.316 316.12 200.027C314.005 201.897 313.919 205.102 313.833 207.915C313.746 210.728 313.214 214.02 310.755 215.383C309.69 215.963 308.41 216.079 307.331 216.674C305.907 217.59 304.903 219.041 304.541 220.705C304.081 222.329 303.966 224.026 303.549 225.664C303.394 226.46 303.06 227.21 302.571 227.854C301.78 228.695 300.731 229.242 299.593 229.405C297.177 229.899 294.531 229.521 292.172 230C292.258 228.608 292.359 227.767 292.359 227.767Z" fill="#2B0FD3" />
    <path d="M323.6 162C323.6 162 313.8 166.2 312.4 170.4C311.69 172.197 311.22 174.08 311 176L325 167.6L323.6 162Z" fill="white" />
    <path d="M337.283 148.23L323.233 146.024C322.703 145.941 322.162 146.077 321.73 146.401C321.297 146.726 321.009 147.213 320.929 147.754L317 173.116L331.134 176L338.908 150.897C339.084 150.321 339.005 149.696 338.693 149.184C338.381 148.672 337.866 148.324 337.283 148.23Z" fill="#FCCDD3" />
    <path opacity="0.46" d="M332.1 164C330.903 164 329.728 164.317 328.692 164.92C328.241 165.246 327.752 165.516 327.236 165.723C326.027 166.103 324.746 165.504 323.479 165.402C321.725 165.413 320.019 165.974 318.6 167.008C317.818 167.423 317.129 167.995 316.576 168.687C316.016 169.396 315.851 170.342 316.139 171.199C316.746 172.243 317.847 172.9 319.052 172.937C322.405 173.198 325.771 172.647 328.867 171.33C330.469 170.746 332.887 169.87 333.688 168.22C334.343 166.774 334.037 164 332.1 164Z" fill="#2B0FD3" />
    <path d="M307.605 179.635C307.605 179.635 309.96 173.859 311.137 172.661C312.315 171.462 313.492 168.025 315.833 168.025C320.6 167.723 325.324 166.944 329.933 165.7C333.465 164.531 336.983 164.531 335.748 168.025C334.512 171.52 327.534 171.505 327.534 171.505C327.534 171.505 333.349 170.35 333.349 172.661C333.101 174.488 332.204 176.168 330.82 177.397C328.697 179.708 326.328 182.22 323.304 183.318C321.851 183.838 320.397 183.982 318.943 184.458C317.418 185.05 315.992 185.868 314.713 186.884C313.158 188.345 311.522 189.719 309.815 191L304 188.112L307.605 179.635Z" fill="white" />
    <path opacity="0.46" d="M307 189.641C309.118 185.973 312.822 183.498 317.022 182.944C318.314 182.986 319.588 182.632 320.673 181.928C321.083 181.507 321.426 181.024 321.689 180.498C322.692 178.895 324.152 177.264 325.985 177.264C326.403 177.321 326.827 177.321 327.245 177.264C328.046 177.035 328.433 176.176 328.877 175.49C329.818 174.094 331.326 173.184 333 173C332.703 174.741 331.831 176.333 330.523 177.521C328.433 179.811 326.099 182.3 323.121 183.388C321.689 183.903 320.258 184.046 318.826 184.518C317.324 185.104 315.919 185.915 314.66 186.922C313.127 188.369 311.517 189.73 309.835 191L307 189.641Z" fill="#2B0FD3" />
    <path d="M314 190.808C314 190.808 305.309 187.928 305.309 185.048C305.309 182.167 302.413 177.847 302.413 177.847L298.067 180.727C298.067 180.727 302.413 173.526 302.413 170.646V166.325C302.413 163.445 303.861 156.244 302.413 154.804C300.964 153.364 300.964 147.603 300.964 146.163C300.964 144.722 283.583 126 283.583 126C279.991 148.092 275.631 170.257 273.285 192.522C272.476 200.177 272.055 207.868 272.025 215.565C272.025 218.446 271.561 220.563 274.661 221.657C276.637 222.12 278.656 222.38 280.686 222.435C290.825 223.875 296.619 222.435 300.964 219.555C305.558 216.184 308.25 210.829 308.206 205.153C308.206 199.45 308.206 193.689 314 190.808Z" fill="#8076FA" />
    <path opacity="0.46" d="M331.921 91L355.2 92.4L356 96.964C353.129 101.779 347.871 104.819 342.105 105C337.395 104.908 332.967 102.823 330 99.302L331.921 91Z" fill="#2B0FD3" />
    <path d="M349 54.8029C349 54.8029 323 46.219 323 59.0949C323 71.9708 324.444 92 324.444 92L341.778 76.2628L349 54.8029Z" fill="#FCCDD3" />
    <path d="M361.5 82C363.985 82 366 79.5376 366 76.5C366 73.4624 363.985 71 361.5 71C359.015 71 357 73.4624 357 76.5C357 79.5376 359.015 82 361.5 82Z" fill="white" />
    <path opacity="0.46" d="M361.5 82C363.985 82 366 79.5376 366 76.5C366 73.4624 363.985 71 361.5 71C359.015 71 357 73.4624 357 76.5C357 79.5376 359.015 82 361.5 82Z" fill="#2B0FD3" />
    <path d="M342.5 103C352.165 103 360 93.598 360 82C360 70.402 352.165 61 342.5 61C332.835 61 325 70.402 325 82C325 93.598 332.835 103 342.5 103Z" fill="white" />
    <path d="M324.5 83C326.985 83 329 80.5376 329 77.5C329 74.4624 326.985 72 324.5 72C322.015 72 320 74.4624 320 77.5C320 80.5376 322.015 83 324.5 83Z" fill="white" />
    <path opacity="0.19" d="M396.012 263.739C395.014 263.99 394.03 264.293 393.064 264.646L385 178L397 271L396.012 263.739Z" fill="#2B0FD3" />
    <path d="M301.207 184C300.929 184.001 300.653 183.957 300.388 183.87C299.021 183.343 298.033 182.072 297.808 180.552C297.618 179.207 297.73 177.833 298.136 176.542C298.436 175.402 298.818 174.234 299.187 173.123C300.211 170.022 301.166 167.093 300.552 164.122C300.35 163.172 300.076 162.241 299.733 161.338C298.966 159.646 298.641 157.768 298.791 155.899C298.894 155.296 299.045 154.702 299.241 154.125C299.337 153.851 299.419 153.591 299.487 153.317C300.324 150.08 299.454 146.616 297.208 144.244C297.032 144.063 296.961 143.798 297.021 143.547C297.081 143.296 297.263 143.098 297.499 143.027C297.734 142.957 297.988 143.025 298.163 143.205C300.763 145.957 301.773 149.968 300.811 153.721C300.729 154.01 300.634 154.298 300.538 154.587C300.367 155.085 300.231 155.596 300.129 156.116C300.04 157.741 300.34 159.363 301.002 160.833C301.376 161.81 301.672 162.819 301.89 163.848C302.517 167.194 301.439 170.455 300.402 173.599C300.047 174.696 299.665 175.821 299.378 176.932C299.045 178.01 298.942 179.153 299.078 180.278C299.221 181.269 299.842 182.11 300.716 182.5C301.177 182.644 301.675 182.57 302.081 182.298C302.362 182.118 302.563 181.827 302.64 181.49C302.71 181.099 303.06 180.837 303.432 180.899C303.802 180.972 304.05 181.342 303.992 181.735C303.851 182.485 303.414 183.136 302.79 183.524C302.314 183.833 301.766 183.998 301.207 184Z" fill="white" />
    <path opacity="0.46" d="M355.485 75.9843C346.613 76.2817 338.376 72.3171 332.087 66.3843C331.25 65.5772 330.024 64.5436 329 63.4391C332.145 59.5028 337.208 61.5134 342.906 61.5134C351.561 61.5134 358.658 58.0727 360 75.4888C358.51 75.7673 357.001 75.9329 355.485 75.9843Z" fill="#2B0FD3" />
    <path d="M379 57.0941C378.814 57.5572 361.107 47.5726 359.678 46.7623C356.137 44.5176 352.089 43.2228 347.916 43C343.582 43.1682 339.411 44.7178 335.997 47.4279C333.542 49.3291 331.273 51.4662 329.223 53.8093C327.98 55.184 326.522 56.0378 327.151 57.7453C327.894 59.6843 330.41 61.768 331.839 63.1717C338.07 69.2347 346.23 73.3009 355.019 72.9826C365.347 72.7366 374.642 66.578 379 57.0941Z" fill="#FCCDD3" />
    <path opacity="0.46" d="M334.784 62.2049C336.968 62.0881 339.066 62.7307 341.322 62.5554C344.948 62.2487 348.26 59.6344 351.872 60.0433C353.649 60.3218 355.358 60.9412 356.911 61.869C361.65 64.3227 366.761 66.718 372 66.3821C367.277 70.5283 361.291 72.8626 355.069 72.9837C346.333 73.2905 338.21 69.2301 332 63.1543C332.817 62.5662 333.785 62.2362 334.784 62.2049Z" fill="#2B0FD3" />
    <path d="M412.836 203C413.343 215.278 414.328 229.918 416 241C409.91 240.813 405 232.181 405 221.56C405 212.842 408.299 205.464 412.836 203ZM272.031 215.513C272.031 210.337 272.229 205.166 272.626 200C276.581 201.115 280.207 203.176 283.193 206.005C288.607 211.035 291.379 217.519 290.958 222.884C287.537 223.13 284.099 222.984 280.711 222.448C278.676 222.393 276.653 222.129 274.672 221.663C271.566 220.558 272.016 218.479 272.031 215.513Z" fill="#F9879A" />
    <path d="M333.241 65.9997C333.089 66.0008 332.941 65.9541 332.818 65.8666C330.009 63.7669 327.702 61.0903 326.058 58.0244C325.906 57.6666 326.062 57.2546 326.414 57.0797C326.767 56.9049 327.197 57.0265 327.401 57.3585C328.954 60.1916 331.091 62.6761 333.678 64.6532C333.843 64.7665 333.955 64.9396 333.989 65.1341C334.023 65.3286 333.976 65.5284 333.86 65.689C333.721 65.8892 333.488 66.0063 333.241 65.9997ZM361.242 115C360.839 115 360.512 114.665 360.512 114.251V108.455C359.856 109.054 358.952 109.848 357.858 110.716C356.034 112.081 354.08 113.251 352.024 114.206C351.657 114.366 351.233 114.201 351.061 113.832C350.983 113.649 350.98 113.442 351.051 113.256C351.122 113.071 351.262 112.922 351.441 112.843C353.394 111.924 355.256 110.811 356.997 109.518C358.309 108.491 359.56 107.386 360.746 106.208C360.96 106.001 361.272 105.943 361.544 106.059C361.815 106.176 361.994 106.446 362 106.748V114.236C362 114.441 361.92 114.638 361.777 114.782C361.634 114.925 361.441 115.004 361.242 115ZM325.303 490H313.697C313.312 490 313 489.776 313 489.5C313 489.224 313.312 489 313.697 489H325.303C325.688 489 326 489.224 326 489.5C325.993 489.774 325.685 489.995 325.303 490Z" fill="#3817C6" />
    <path d="M157.021 144C157.021 144 131.117 164.705 129.587 178.533C128.057 192.361 122.982 248.319 145.313 241.412C167.644 234.506 186 213.009 186 213.009L157.021 144Z" fill="#F9879A" />
    <path opacity="0.46" d="M162.509 179.726L154.945 175L146.949 187.454C144.821 190.772 142.635 194.335 142.635 198.271C142.635 201.258 143.872 204.174 143.728 207.162C143.57 210.409 141.772 213.411 141.643 216.657C141.513 219.645 142.649 223.179 140.55 225.276C140.031 225.69 139.571 226.174 139.184 226.712C138.234 228.407 140.248 230.318 140.262 232.271C140.277 234.225 137.947 235.748 135.876 236.293C134.941 236.538 133.949 236.753 133 237.069C135.646 241.149 139.442 243.088 144.806 241.378C158.741 237.069 171.108 227.244 178.5 220.363C179.826 211.398 178.501 202.242 174.689 194.019C172.09 188.183 167.861 183.221 162.509 179.726Z" fill="#2B0FD3" />
    <path d="M201.043 240L156.696 250.393L146 497.048L155.033 502L201.043 289.158C201.043 289.158 209.273 283.4 210.09 289.158C210.908 294.916 231.454 497.048 231.454 497.048H238.852C238.852 497.048 252 362.586 252 347.731C252 332.875 241.505 240.821 241.505 240.821L201.043 240Z" fill="#52D2BC" />
    <path d="M169 261.648C167.466 258.572 165.041 254.913 163.959 254.699C162.235 254.386 155.018 250 155.018 250L151 257.49C151 257.49 156.844 266.646 160.015 272C161.777 267.69 164.931 264.056 169 261.648Z" fill="#889BE5" />
    <path opacity="0.46" d="M164 265.756C162.269 265.401 160.2 265.756 159.217 264.337C158.946 263.772 158.642 263.222 158.307 262.691C157.515 261.811 155.989 261.995 155.035 261.272C154.475 260.735 154.036 260.092 153.744 259.384C153.157 258.396 152.312 257.574 151.293 257L151 257.539C151 257.539 156.869 266.664 160.053 272C160.952 269.698 162.291 267.579 164 265.756Z" fill="#2B0FD3" />
    <path d="M231 260.453C232.254 257.322 234.324 253.528 235.352 253.26C236.986 252.823 243.62 248 243.62 248L248 255.051C248 255.051 243.056 264.486 240.352 270C238.348 265.889 235.066 262.539 231 260.453Z" fill="#889BE5" />
    <path opacity="0.46" d="M241 254.059C240.6 252.737 240.317 251.378 240.157 250C238.649 251.155 237.036 252.148 235.34 252.963C234.315 253.244 232.25 257.23 231 260.519C231.754 260.971 232.486 261.466 233.191 262L235.719 260.133C236.272 259.821 236.682 259.287 236.857 258.652C236.848 258.082 236.778 257.516 236.646 256.963C236.506 254.519 239.399 254.281 241 254.059Z" fill="#2B0FD3" />
    <path d="M217 97H191V133H217V97Z" fill="#889BE5" />
    <path d="M217.855 116C217.855 116 212.479 122.908 204.797 122.908C197.116 122.908 190.977 116 190.977 116L173.884 125.066L171.636 126.246L153.347 135.945C153.347 135.945 152.583 139.011 147.972 155.877C140.766 182.399 148.923 258.05 148.981 259C149.081 258.87 148.851 259.115 151.863 256.122C154.875 253.129 163.392 252.51 163.392 252.51C176.477 255.382 189.899 256.419 203.27 255.589C221.645 254.453 230.768 250.006 241 246.034C235.307 205.74 245.324 164.367 234.716 124.059C228.728 122.219 223.046 119.503 217.855 116Z" fill="#FCCDD3" />
    <path d="M165.429 178C165.429 178 170 155.978 170 149.892V127L160 132.302C161.719 137.035 163.038 141.903 163.943 146.855C163.943 146.855 165.371 154.496 165.457 178H165.429Z" fill="#F9879A" />
    <path d="M163.72 252C163.522 251.992 163.334 251.909 163.199 251.769C163.064 251.628 162.993 251.442 163.001 251.25L164.5 203.692C164.544 203.312 164.868 203.019 165.265 203C165.464 203.004 165.653 203.083 165.791 203.221C165.929 203.359 166.004 203.544 166 203.735L164.5 251.294C164.484 251.694 164.137 252.008 163.72 252Z" fill="white" />
    <path opacity="0.46" d="M218 106.104L217.563 108.899C217.563 108.899 210.043 118.062 201.029 111.827C192.014 105.591 192 97 192 97L218 106.104Z" fill="#2B0FD3" />
    <path d="M202 92.246C202 92.246 176.117 100.665 174.216 95.0952C171.291 86.5476 199.075 78 199.075 78L202 92.246Z" fill="#F9879A" />
    <path opacity="0.46" d="M181.847 88.6124C182.617 87.6664 183.791 87.1664 184.989 87.2745C186.183 87.2745 187.363 87.5653 188.543 87.4781C189.812 87.3381 191.037 86.9269 192.14 86.2711C193.402 85.6825 194.494 84.7709 195.31 83.6244C196.127 82.4532 196.226 80.9103 195.566 79.6399C195.422 79.3976 195.239 79.1814 195.026 79C188.387 81.4867 174.128 87.5508 174 93.8767L174.384 93.9639C175.17 94.1269 175.965 93.7265 176.317 92.9896C176.459 92.6115 176.417 92.1898 176.545 91.8117C176.843 90.9246 177.881 90.5901 178.777 90.4593C179.695 90.4777 180.587 90.1459 181.279 89.5285C181.435 89.2522 181.577 88.9178 181.847 88.6124Z" fill="#2B0FD3" />
    <path d="M209.668 64C199.88 64 191.794 72.6451 190.338 83.9394C188.227 84.7631 186.887 86.8279 187.008 89.0667C186.87 91.5006 188.515 93.6831 190.914 94.2509C193.336 103.936 200.817 111 209.654 111C220.479 111 226 100.589 226 87.5997C226 74.6106 220.494 64 209.668 64Z" fill="#889BE5" />
    <path opacity="0.26" d="M190.373 83.3262C188.24 84.1653 186.885 86.2686 187.008 88.5492C187.008 89.0389 187.072 89.5265 187.197 90C188.464 88.8052 189.402 87.3066 189.921 85.6475C190.103 84.3037 190.63 83.0294 191.451 81.9479C193.01 80.497 195.559 81.0774 197.686 80.6276C200.09 80.1053 201.882 78.1902 203.674 76.5218C205.466 74.8533 207.768 73.2719 210.186 73.6926C212.182 74.0408 213.974 75.7093 216.014 75.2595C217.265 74.7976 218.319 73.9218 219 72.7786C217.985 69.1642 215.971 65.9065 213.187 63.3772C212.112 63.1298 211.013 63.0033 209.909 63C200.017 63.029 191.844 71.8356 190.373 83.3262ZM210 289V289.115C210.564 293.181 220.759 394.479 226.738 454C229.375 430.525 230.883 408.573 231.123 405.082C232.279 388.287 232.928 368.648 228.867 344.584C225.003 321.425 216.458 292.376 210 289Z" fill="#2B0FD3" />
    <path d="M218 116C221.546 117.727 225.192 119.245 228.919 120.546C232.509 121.811 235.832 123.723 238.718 126.186C242.004 129.221 245.362 132.199 248.692 135.177C252.021 138.155 251.745 141.925 252.821 145.708C254.003 150.869 254.738 156.12 255.016 161.404C256.007 172.175 256.25 183 255.743 193.803C254.827 215.383 251.585 236.704 248.328 257.996C248.322 258.336 248.175 258.659 247.921 258.888C247.5 259.162 246.947 258.888 246.54 258.557L238.922 252.903C238.328 252.52 237.811 252.032 237.395 251.465C236.9 250.59 236.701 249.582 236.828 248.587C238.282 231.323 237.061 213.959 238.369 196.709C239.135 187.033 239.057 177.31 238.136 167.648C238.136 167.95 238.747 167.806 238.762 167.504C238.776 167.202 238.529 166.943 238.282 166.742" fill="#FCCDD3" />
    <path opacity="0.25" d="M242.364 184.483C241.685 179.054 244.811 180.238 242.772 175.054C241.86 173.144 240.562 171.427 238.951 170C239.676 178.891 239.676 187.822 238.951 196.713C237.894 210.099 238.408 223.571 238 237C238.617 235.999 239.123 234.939 239.51 233.838C240.613 230.589 239.359 228.437 240.295 224.394C240.884 221.882 241.911 219.586 242.667 217.174C245.143 209.189 245.989 196.8 243.512 188.699C243.006 187.327 242.622 185.917 242.364 184.483Z" fill="#2B0FD3" />
    <path d="M223.858 74.8125C223.858 74.8125 226.736 59 206.588 59C186.439 59 185 82 185 82C185 82 199.392 73.375 223.858 74.8125Z" fill="#52D2BC" />
    <path opacity="0.46" d="M219 71.251C219 71.251 218.84 66.8417 213.2 67.0113C211.898 66.9133 210.632 67.4571 209.828 68.46C209.023 69.463 208.787 70.7918 209.199 72L219 71.251Z" fill="#2B0FD3" />
    <path d="M158.705 275C158.604 274.997 158.504 274.972 158.411 274.927C158.06 274.762 157.904 274.333 158.061 273.967C160.773 267.749 165.272 262.556 170.94 259.102C171.273 258.899 171.701 259.009 171.906 259.349C172.098 259.699 171.986 260.145 171.654 260.353C166.232 263.651 161.927 268.616 159.335 274.564C159.229 274.827 158.981 274.999 158.705 275ZM242.295 272C242.024 272.001 241.776 271.844 241.657 271.596C238.789 265.547 233.144 261.359 226.615 260.436C226.228 260.383 225.956 260.022 226.006 259.627C226.064 259.231 226.423 258.955 226.813 259.006C233.8 260.015 239.84 264.494 242.932 270.961C243.097 271.32 242.953 271.747 242.606 271.928C242.508 271.972 242.402 271.997 242.295 272Z" fill="white" />
    <path opacity="0.25" d="M204.159 252.24C200.42 252.24 196.507 252.804 193.072 251.314C188.725 249.447 186.203 244.614 181.87 242.733C178.275 241.171 173.652 241.691 170.942 238.87C169.014 236.844 168.725 233.646 166.783 231.635C166.007 230.865 165.05 230.303 164 230V251.936C164.232 252.225 164.464 252.515 164.681 252.819C177.628 255.57 190.891 256.544 204.101 255.713C207.753 255.499 211.39 255.099 215 254.512C211.562 253.081 207.884 252.31 204.159 252.24Z" fill="#2B0FD3" />
    <path d="M143.058 507.189L145.3 499.055C145.499 498.307 146.285 497.855 147.061 498.042L180.709 506.175C181.512 506.269 182.086 506.974 181.989 507.751C181.893 508.529 181.163 509.083 180.359 508.99H144.47C144.009 508.994 143.574 508.788 143.295 508.433C143.017 508.078 142.929 507.616 143.058 507.189ZM230.024 503.388L231.263 497H239.033L262.722 502.078C263.53 502.223 264.082 502.925 263.99 503.69C263.898 504.455 263.194 505.025 262.373 504.999H231.467C231.033 505.002 230.62 504.823 230.341 504.512C230.062 504.2 229.946 503.788 230.024 503.388Z" fill="#F9879A" />
    <path d="M208.899 153H208.791C208.589 152.978 208.404 152.882 208.279 152.732C208.154 152.582 208.098 152.391 208.125 152.203C209.674 140.882 205.026 125.097 205.026 124.937C204.915 124.537 205.171 124.128 205.599 124.024C206.027 123.92 206.464 124.16 206.575 124.561C206.761 125.213 211.223 140.766 209.674 152.377C209.619 152.737 209.288 153.004 208.899 153Z" fill="white" />
    <path d="M324 86C322.343 86 321 84.6569 321 83C321 81.3431 322.343 80 324 80C325.657 80 327 81.3431 327 83C326.992 84.6536 325.654 85.9921 324 86ZM324 81.6522C323.454 81.6463 322.958 81.9709 322.745 82.4741C322.531 82.9772 322.643 83.5593 323.027 83.9478C323.412 84.3363 323.992 84.4543 324.498 84.2466C325.003 84.0388 325.333 83.5465 325.333 83C325.333 82.2612 324.739 81.6601 324 81.6522Z" fill="#2B0FD3" />
    <path d="M315 111.691L319.082 101.364L326 97L324.215 117L315 111.691Z" fill="#4A23E8" />
    <path d="M359 98L361.167 122L372 115.339L369.111 105.225L359 98Z" fill="#4A23E8" />
    <path d="M528.982 128.202C522.247 116.401 506.14 98.9816 489.904 107.07C474.844 114.581 469.456 139.136 473.095 156.382C474.866 164.305 478.722 171.6 484.258 177.5C494.719 189.633 516.114 203.167 528.91 191.597C542.036 179.782 539.958 147.456 528.982 128.202Z" fill="#F9879A" />
    <path opacity="0.46" d="M481.099 159.615C481.816 160.951 482.907 162.043 483.667 163.35C486.308 167.875 484.571 173.866 486.667 178.678C488.297 182.022 491.245 184.536 494.803 185.616C498.322 186.677 501.995 187.133 505.666 186.966C512.109 186.966 519.313 185.99 523.331 180.948C524.561 179.533 525.189 177.692 525.081 175.819C524.952 174.771 524.493 173.779 524.378 172.731C524.077 170.102 525.899 167.775 527.32 165.548C528.741 163.322 529.817 160.262 528.167 158.179C527.062 156.742 525.081 156.369 523.862 155.033C521.451 152.304 523.689 147.664 521.838 144.532C521.27 143.673 520.556 142.92 519.729 142.306L513.931 137.364C511.937 135.391 509.465 133.97 506.756 133.241C502.193 132.394 497.472 134.103 492.765 133.442C489.479 132.968 487.025 132.897 484.844 135.77C481.285 140.539 478.315 154.458 481.099 159.615Z" fill="#2B0FD3" />
    <path d="M452 349V414.913L461.792 494H473.194C473.194 494 474.833 441.275 473.194 433.04C471.555 424.804 483 352.369 483 352.369L452 349ZM499.93 349L495 353.953C495 353.953 503.211 426.446 504.845 433.04C506.478 439.634 517.513 494 517.513 494H528.977C528.977 494 529.45 446.214 526.111 431.384C522.772 416.554 527.745 360.533 527.745 360.533L499.93 349Z" fill="#ACA6EC" />
    <path d="M455.236 447C454.86 447.002 454.544 446.69 454.504 446.277L451 415.301V390.729C451.05 390.312 451.371 390 451.752 390C452.132 390 452.454 390.312 452.503 390.729V415.157L455.994 446.032C456.02 446.249 455.964 446.468 455.841 446.64C455.718 446.811 455.537 446.921 455.34 446.942L455.236 447ZM494.885 355C494.523 355 494.198 354.78 494.063 354.445C493.929 354.11 494.013 353.727 494.275 353.478L499.508 348.255C499.729 348.035 500.051 347.949 500.352 348.03C500.654 348.11 500.889 348.345 500.97 348.646C501.051 348.947 500.965 349.268 500.744 349.489L495.511 354.711C495.35 354.888 495.124 354.992 494.885 355ZM526.074 432.956C525.642 432.959 525.265 432.689 525.167 432.306C524.456 428.821 524.066 425.288 524 421.744C524.062 421.318 524.46 421 524.932 421C525.403 421 525.802 421.318 525.863 421.744C525.915 425.184 526.289 428.614 526.981 431.996C527.082 432.451 526.766 432.897 526.268 433L526.074 432.956Z" fill="white" />
    <path opacity="0.25" d="M452 350V361.945C452.584 365.11 452.812 368.619 455.278 370.539C456.989 371.971 459.369 372.1 461.222 373.288C464.443 375.351 465.184 379.719 465.284 383.558C465.383 387.396 465.284 391.593 467.593 394.629C469.631 397.307 473.066 398.382 476.045 399.928L476.173 400C479.095 377.958 483 353.351 483 353.351L452 350ZM508.288 353.802C504.727 352.93 501.106 352.327 497.455 352L495 354.446L495.942 357.708C501.983 359.39 506.751 364.045 508.588 370.053C508.953 371.998 509.552 373.89 510.372 375.69C511.5 377.65 513.441 378.98 514.982 380.625C520.777 386.791 520.549 396.69 524.488 404C525.03 386.018 526.657 366.291 527 362.328C526.087 361.67 525.173 361.041 524.145 360.44L508.288 353.802Z" fill="#2B0FD3" />
    <path d="M453.857 200C453.857 200 449.766 229.677 450.347 239.953C450.927 250.23 449.37 273.867 449.37 273.867C449.37 273.867 446.142 293.195 449.596 303.298C453.05 313.402 461.219 304.077 461.219 304.077L479 235.326L453.857 200Z" fill="#ACA6EC" />
    <path opacity="0.25" d="M454 221.083C455.243 220.766 456.413 222.064 456.557 223.333C456.55 224.626 456.326 225.908 455.893 227.127C455.358 229.429 455.56 231.84 456.471 234.021C456.893 234.841 457.2 235.714 457.381 236.618C457.554 238.421 456.269 239.993 455.691 241.709C455.266 243.194 455.1 244.741 455.199 246.282L455.329 271.726C455.291 272.263 455.38 272.801 455.589 273.298C455.89 273.771 456.308 274.158 456.803 274.423L462.193 278C467.972 267.398 474.33 255.585 476.641 243.743C477.708 237.412 478.148 230.991 477.956 224.574C477.956 221.011 477.609 217.016 474.893 214.708C472.177 212.4 468.304 212.746 465.039 213.9C461.774 215.054 458.797 216.944 455.43 217.694" fill="#2B0FD3" />
    <path d="M496.101 161.18C496.101 161.18 484.354 159.221 467.845 168.224C451.971 176.867 440.426 224.401 440.426 224.401H462.073C458.863 267.892 449.756 310.748 435 351.794C436.963 354.949 440.109 358.766 444.755 359.803C450.73 361.128 453.804 356.62 460.63 356.922C467.73 357.239 468.119 362.309 476.504 365.565C487.024 369.641 489.91 363.015 505.366 365.565C515.684 367.264 517.141 370.664 525.569 369.886C530.436 369.235 535.256 368.273 540 367.005L537.114 352.601C537.114 352.601 522.914 293.543 522.683 276.257C522.423 258.136 520.489 251.193 519.797 221.52C519.609 213.627 523.592 206.741 525.309 197.407C528.195 181.951 534.762 177.328 540 169.664C532.785 161.022 510.965 161.18 510.965 161.18H496.101Z" fill="#FCCDD3" />
    <path opacity="0.25" d="M470.41 219.447C466.831 218.955 463.48 217.773 460 217C460.656 219.377 460.955 221.387 461.512 223.68H462.324L461.968 225.339C462.068 225.719 462.182 226.084 462.324 226.492C462.174 226.336 461.988 226.215 461.782 226.141L461.312 235C464.164 234.114 465.305 232.553 467.344 230.444C468.31 229.324 469.334 228.254 470.41 227.238C474.032 224.2 479.251 224.158 484 224.284C479.537 224.186 475.187 220.108 470.41 219.447Z" fill="#4A23E8" />
    <path opacity="0.46" d="M462.44 226.09L462.31 226.66C462.454 226.713 462.584 226.798 462.69 226.91C462.59 226.62 462.51 226.36 462.44 226.09Z" fill="#2B0FD3" />
    <path opacity="0.25" d="M516.424 230.711C515.866 233.003 514.278 235.009 513.992 237.345C513.905 239.017 514.159 240.689 514.736 242.26C516.643 248.699 518.513 255.133 520.344 261.563C520.982 264.174 521.994 266.679 523.348 269C523.634 255.215 521.073 246.688 520.487 220.88C520.301 213.027 524.25 206.178 525.952 196.892C526.238 195.344 525.136 193.84 525.494 192.364C524.664 192.235 525.308 192.034 524.693 191.475C523.72 190.601 523.491 189.025 522.39 188.323C520.501 187.105 518.169 189.569 518.098 191.805C518.026 194.04 519.042 196.276 518.684 198.497C518.026 202.567 513.234 204.644 511.617 208.442C508.512 215.635 518.227 223.101 516.424 230.711Z" fill="#4A23E8" />
    <path d="M441.832 334.984C441.737 335.005 441.638 335.005 441.544 334.984C441.337 334.912 441.168 334.76 441.075 334.562C440.983 334.364 440.975 334.136 441.054 333.932C447.13 317.662 451.595 300.834 454.383 283.692C454.744 281.646 455.075 279.715 455.421 277.929C455.767 276.142 455.81 275.782 456.084 273.606C456.473 270.537 457.266 264.155 459.744 246.347L459.874 245.453C461.445 234.129 462.05 229.878 461.185 223.51C460.716 220.009 459.85 216.572 458.606 213.266C457.459 210.528 456.862 207.59 456.848 204.621C456.948 196.567 461.574 188.355 470.595 180.243C470.749 180.088 470.96 180 471.179 180C471.398 180 471.608 180.088 471.762 180.243C472.079 180.568 472.079 181.086 471.762 181.41C463.116 189.205 458.649 197 458.562 204.578C458.573 207.342 459.137 210.075 460.22 212.618C461.506 216.03 462.396 219.578 462.871 223.193C463.765 229.778 463.159 234.086 461.56 245.583L461.43 246.476C458.952 264.27 458.159 270.653 457.784 273.707C457.496 275.998 457.453 276.358 457.107 278.202C456.761 280.047 456.415 281.963 456.055 283.966C453.262 301.213 448.773 318.143 442.653 334.508C442.511 334.828 442.18 335.02 441.832 334.984ZM535.135 348C534.756 348.003 534.426 347.74 534.339 347.366C529.897 328.823 526.575 310.023 524.391 291.07C521.876 269.241 519.404 243.939 520.128 221.793C520.159 221.34 520.534 220.991 520.981 221C521.196 221.008 521.399 221.101 521.546 221.261C521.692 221.42 521.77 221.632 521.762 221.85C521.052 243.881 523.51 269.111 526.026 290.883C528.211 309.769 531.533 328.502 535.974 346.977C536.029 347.189 535.997 347.415 535.884 347.603C535.771 347.791 535.588 347.924 535.377 347.971L535.135 348Z" fill="white" />
    <path d="M437 504L462.615 494H474V502.571L437 504Z" fill="#F9879A" />
    <path d="M529 494V501.143L497 504L517.364 494H529Z" fill="#F9879A" />
    <path d="M544.716 178L566.652 215.4C566.652 215.4 571.119 228.85 563.788 234.444C559.71 237.836 555.881 241.518 552.334 245.461C547.207 250.707 542.153 256.02 537.17 261.4C533.848 264.962 527.591 271 524.727 271C521.377 271 520.174 268.968 516.838 269.026C513.172 269.026 509.922 270.642 506.185 270.156C503.879 269.855 500.457 268.725 501.073 265.735C501.631 263.174 505.068 261.714 507.216 260.799C510.569 259.489 514.034 258.483 517.568 257.794C518.138 257.674 518.698 257.511 519.243 257.308C519.431 257.257 519.591 257.133 519.687 256.964C519.816 256.649 519.501 256.32 519.2 256.163C518.404 255.827 517.544 255.666 516.68 255.691C513.6 255.506 510.511 255.845 507.545 256.692C506.6 257.007 506.5 256.363 506.858 255.662C507.518 254.578 508.528 253.751 509.721 253.316C512.342 252.114 515.277 251.055 518.169 251.742C521.406 252.875 524.148 255.095 525.93 258.023C527.548 255.963 529.352 254.088 530.97 252.028C532.335 250.282 533.686 248.527 535.022 246.763C537.757 243.186 540.478 239.609 543.485 236.204C544.129 235.474 544.802 234.773 545.504 234.086C553.407 226.646 550.572 223.556 550.973 221.724C551.374 219.893 535.509 193.023 535.509 193.023L544.716 178Z" fill="#ACA6EC" />
    <path opacity="0.25" d="M552.777 217.032C552.593 216.372 552.933 215.597 552.523 214.994C552.112 214.392 551.503 214.492 550.966 214.291C549.224 213.66 548.899 211.422 548.333 209.614C547.201 206.259 544.419 203.75 541 203C545.487 210.948 551.107 221.192 550.909 222.311C550.541 223.99 552.862 226.759 547.172 233L550.711 231.565C552.409 230.848 554.32 229.915 554.816 228.108C554.899 227.615 555.037 227.134 555.226 226.673C555.537 226.26 555.946 225.934 556.416 225.726C558.171 224.75 560.209 223.33 559.983 221.307C558.015 220.432 556.09 219.456 554.193 218.438C553.555 218.179 553.045 217.673 552.777 217.032Z" fill="#2B0FD3" />
    <path d="M507 161C507 161 533.303 161.372 540.222 169.595C547.141 177.817 559 196.811 559 196.811L533 214L513.572 191.353L507 161Z" fill="#FCCDD3" />
    <path d="M493 170.938C499.943 171.917 513 161 513 161H490.143C487.723 161.257 485.333 161.732 483 162.42C483.171 164.237 484.443 169.717 493 170.938Z" fill="#ACA6EC" />
    <path d="M489 163.822L490.058 151.481L502.377 150L504 164C499.006 163.668 494 163.609 489 163.822Z" fill="#ACA6EC" />
    <path opacity="0.25" d="M504 156.931C501.412 158.897 498.238 159.975 494.965 160C492.909 159.995 490.877 159.566 489 158.741L490.052 147.273L499.764 146.184L502.646 146L504 156.931Z" fill="#2B0FD3" />
    <path d="M512 136.212C512 147.681 504.281 157 494.783 157C485.284 157 479 143.394 479 131.911C479 106.821 485.27 115.423 494.783 115.423C504.295 115.423 512 109.689 512 136.212Z" fill="#ACA6EC" />
    <path d="M478.636 110.705C476.704 111.508 475.169 113.039 474.364 114.966C473.068 118.603 475.404 123.276 478.636 124.909C483.691 127.466 487.763 120.989 497.147 122.068C499.098 122.282 503.939 122.836 507.114 126.33C512.924 132.708 507.898 143.134 511.386 144.796C513.821 145.96 518.79 141.955 521.354 137.693C526.451 129.043 523.988 115.307 515.658 109.285C510.105 105.265 503.498 105.804 495.723 106.444C489.833 106.929 484.062 108.368 478.636 110.705Z" fill="#F9879A" />
    <path d="M507.256 127C507.054 126.998 506.862 126.906 506.728 126.749C503.717 123.341 499.137 122.795 497.182 122.559C493.508 122.208 489.812 122.923 486.509 124.624C483.655 125.849 481.172 126.911 478.39 125.436C478.04 125.252 477.9 124.81 478.076 124.447C478.254 124.086 478.681 123.941 479.032 124.123C481.244 125.274 483.213 124.433 485.967 123.267C489.504 121.465 493.456 120.714 497.382 121.098C499.322 121.334 504.516 121.939 507.827 125.761C508.007 125.98 508.051 126.287 507.938 126.551C507.826 126.815 507.577 126.99 507.299 127H507.256Z" fill="#3817C6" />
    <path opacity="0.46" d="M511.431 144.789C513.238 145.638 516.378 143.823 519 141.1L513.549 136.533C512.444 135.618 511.281 134.772 510.069 134C510.395 138.948 509.106 143.691 511.431 144.789Z" fill="#2B0FD3" />
    <path d="M512.5 140C514.985 140 517 137.538 517 134.5C517 131.462 514.985 129 512.5 129C510.015 129 508 131.462 508 134.5C508 137.538 510.015 140 512.5 140Z" fill="#ACA6EC" />
    <path opacity="0.25" d="M541 208.813C540.813 206.727 540.34 204.756 538.547 204.032C537.628 203.67 536.581 203.771 535.677 203.438C531.789 201.989 533.367 194.962 529.694 193.079C528.101 192.253 525.949 192.731 524.615 191.514C523.639 190.63 523.409 189.036 522.304 188.326C520.41 187.095 518.072 189.587 518 191.847C518.075 193.415 518.272 194.975 518.588 196.512L533.324 214L541 208.813Z" fill="#2B0FD3" />
    <path d="M493.061 171.996C491.861 172.029 490.665 171.843 489.528 171.448C489.101 171.276 488.89 170.781 489.058 170.343C489.226 169.905 489.709 169.689 490.136 169.861C490.136 169.861 495.406 171.863 502.877 166.896C506.114 164.894 509.215 162.67 512.158 160.238C512.308 160.085 512.511 160 512.723 160.001C513.143 160.001 523.234 159.882 530.488 162.966C530.762 163.083 530.954 163.34 530.993 163.642C531.031 163.943 530.91 164.243 530.674 164.427C530.439 164.612 530.125 164.654 529.851 164.538C523.596 161.884 514.793 161.706 513.041 161.706C510.078 164.094 506.984 166.307 503.775 168.334C500.631 170.603 496.906 171.877 493.061 171.996Z" fill="white" />
    <path opacity="0.25" d="M523.846 269.084C523.258 268.808 522.709 268.446 522.214 268.009C520.879 267.069 519.238 266.768 517.688 267.18C516.255 267.564 514.823 268.562 513.391 268.178C512.721 267.867 512.031 267.606 511.328 267.395C510.376 267.413 509.467 267.826 508.793 268.547C507.848 269.375 506.931 270.25 506 271.125C509.595 271.494 512.775 269.943 516.327 269.882C519.879 269.82 520.867 272 524.219 272C525.61 271.76 526.916 271.124 528 270.158C527.722 269.819 527.381 269.547 526.997 269.36C526.038 268.93 524.878 269.437 523.846 269.084Z" fill="#2B0FD3" />
    <path opacity="0.32" d="M333 136.934V130.117C332.986 129.515 332.663 128.965 332.149 128.669L326.373 125.239C325.843 124.92 325.185 124.92 324.656 125.239L318.866 128.626C318.348 128.92 318.02 129.469 318 130.073V136.89C318.019 137.49 318.341 138.038 318.851 138.337L324.627 141.768C325.159 142.077 325.812 142.077 326.344 141.768L332.149 138.381C332.651 138.073 332.97 137.53 333 136.934Z" fill="#3E1EC4" />
    <path d="M333 135.927V129.145C332.981 128.549 332.66 128.006 332.152 127.708L326.483 124.231C325.952 123.923 325.302 123.923 324.772 124.231L318.99 127.593C318.481 127.891 318.161 128.434 318.141 129.03L318 135.927C318.019 136.523 318.34 137.066 318.848 137.364L324.602 140.769C325.132 141.077 325.783 141.077 326.313 140.769L332.138 137.364C332.644 137.062 332.967 136.522 333 135.927Z" fill="#52D2BC" />
    <path d="M318.893 136.956C318.338 136.614 317.997 135.985 318 135.306V128.337C318.008 127.661 318.353 127.04 318.907 126.702L324.614 123.255C325.171 122.915 325.857 122.915 326.414 123.255L332.093 126.746C332.652 127.087 332.997 127.715 333 128.396C333 128.43 332.987 128.463 332.963 128.485C332.938 128.508 332.906 128.518 332.874 128.514C332.813 128.514 332.763 128.461 332.763 128.396C332.775 127.792 332.476 127.228 331.981 126.923L326.302 123.431C325.814 123.137 325.214 123.137 324.726 123.431L319.033 126.879C318.53 127.177 318.225 127.744 318.237 128.352V135.291C318.231 135.894 318.528 136.455 319.019 136.764C319.06 136.787 319.087 136.833 319.087 136.882C319.087 136.932 319.06 136.977 319.019 137L318.893 136.956Z" fill="white" />
    <path d="M330.263 133.792L331 132.515L330.263 131.238L330.278 129.765L328.999 129.029L328.261 127.751H326.787L325.523 127L324.228 127.736H322.754L322.016 128.999L320.737 129.735V131.208L320 132.485L320.722 133.762V135.235L322.001 135.971L322.724 137.249L324.198 137.264L325.477 138L326.756 137.264H328.231L328.969 136.001L330.248 135.265L330.263 133.792Z" fill="white" />
    <path d="M324.08 136.988H322.652C322.621 137.004 322.584 137.004 322.552 136.988L321.867 135.802L320.682 135.101C320.666 135.069 320.666 135.032 320.682 135.001V133.571L320.011 132.384C319.996 132.347 319.996 132.306 320.011 132.27L320.696 131.083V129.653C320.686 129.62 320.686 129.585 320.696 129.553L321.881 128.881L322.566 127.694C322.597 127.676 322.635 127.676 322.666 127.694H324.094L325.279 127.022C325.312 126.993 325.361 126.993 325.393 127.022L326.578 127.708H328.006C328.037 127.693 328.074 127.693 328.106 127.708L328.791 128.895L329.962 129.596C329.986 129.615 330 129.644 330 129.674C330 129.705 329.986 129.734 329.962 129.753C329.918 129.795 329.849 129.795 329.805 129.753L328.591 129.038L327.935 127.894H326.507L325.35 127.222L324.194 127.894H322.766L322.095 129.052L320.939 129.71V131.04L320.282 132.184L320.939 133.342V134.672L322.081 135.344L322.752 136.502H324.08C324.111 136.497 324.143 136.508 324.166 136.53C324.188 136.553 324.199 136.585 324.194 136.617C324.296 136.648 324.354 136.757 324.322 136.86C324.291 136.962 324.182 137.02 324.08 136.988Z" fill="#6535FF" />
    <path d="M326 134C327.105 134 328 133.105 328 132C328 130.895 327.105 130 326 130C324.895 130 324 130.895 324 132C324 133.105 324.895 134 326 134Z" fill="#FCCDD3" />
    <path d="M324.662 133.987C324.288 133.603 324.052 133.05 324.006 132.451C323.967 131.858 324.113 131.269 324.414 130.807C324.725 130.347 325.169 130.06 325.65 130.008C326.127 129.958 326.601 130.14 326.973 130.515C327.009 130.562 327.009 130.637 326.973 130.684C326.931 130.731 326.867 130.731 326.825 130.684C326.327 130.168 325.628 130.077 325.055 130.455C324.483 130.833 324.151 131.603 324.217 132.405C324.257 132.926 324.461 133.407 324.785 133.741C324.806 133.764 324.819 133.798 324.819 133.833C324.819 133.869 324.806 133.902 324.785 133.926C324.777 133.956 324.759 133.98 324.735 133.992C324.711 134.004 324.684 134.002 324.662 133.987Z" fill="#6535FF" />
    <path opacity="0.32" d="M332.08 127.624L326.047 124.216C325.837 124.103 325.607 124.03 325.368 124C325.237 124.261 325.14 124.536 325.081 124.82C324.94 125.787 325.038 126.772 325.368 127.696C325.698 128.639 325.97 129.599 326.182 130.572C326.412 131.903 326.245 133.269 325.7 134.513C325.006 136.124 323.679 137.49 323.196 139.173C323.093 139.486 323.027 139.809 323 140.136L324.161 140.769C324.727 141.077 325.421 141.077 325.986 140.769L332.08 137.361C332.642 137.045 332.99 136.472 333 135.851V129.134C333.003 128.509 332.651 127.932 332.08 127.624Z" fill="#6534FF" />
    <path d="M326.138 139.992C326.103 140.003 326.065 140.003 326.031 139.992C325.99 139.946 325.99 139.884 326.031 139.838L331.766 137.033C331.806 137 331.868 136.991 331.919 137.01C331.971 137.03 332.003 137.075 332 137.122C331.996 137.17 331.958 137.211 331.903 137.225L326.138 139.979V139.992ZM503.456 208.994C503.98 209.032 504.501 208.891 504.928 208.594L512.289 203.41C512.804 203.041 513.126 202.473 513.173 201.854L513.997 189.83C514.03 189.443 513.796 189.083 513.423 188.944C510.765 187.878 507.945 187.241 505.075 187.059C502.205 186.871 499.322 187.132 496.537 187.83C496.149 187.928 495.87 188.257 495.845 188.644L495.006 200.668C494.959 201.289 495.202 201.897 495.668 202.325L502.205 208.408C502.541 208.736 502.982 208.943 503.456 208.994Z" fill="white" />
    <path d="M502.925 199.798L506 198.279L502.806 202L500 198L502.925 199.798Z" fill="#52D2BC" />
    <path d="M502.833 202L500 198L502.954 199.778L506 198.278L502.741 201.986L502.833 202ZM500.091 198.097L502.833 201.917L505.969 198.361L502.924 199.75L500.091 198.097Z" fill="#6535FF" />
    <path d="M505.985 197.631H505.97L502.894 199L500.015 197.376H500L500.015 197.362H500L503.211 193L506 197.617L505.985 197.631Z" fill="#52D2BC" />
    <path d="M503.842 199L501 197.369L504.218 193L507 197.638L503.992 198.987L503.842 199ZM501 197.301L503.842 198.933L506.85 197.584L504.113 193.013L501 197.301Z" fill="#6535FF" />
    <path d="M494.815 189.37L494.005 201.045C493.954 201.887 494.282 202.707 494.904 203.291L501.194 209.208C502.223 210.163 503.801 210.266 504.951 209.453L512.007 204.414C512.699 203.917 513.135 203.15 513.2 202.312L513.996 190.622C514.048 189.896 513.613 189.22 512.92 188.952C507.59 186.807 501.689 186.418 496.112 187.844C495.386 188.024 494.863 188.64 494.815 189.37ZM495.655 189.37C495.684 188.996 495.949 188.68 496.318 188.578C499.003 187.894 501.784 187.636 504.553 187.815C507.321 188.004 510.041 188.621 512.611 189.643C512.967 189.791 513.187 190.145 513.156 190.522L512.361 202.197C512.301 202.775 511.99 203.3 511.506 203.637L504.45 208.676C504.059 208.969 503.57 209.108 503.08 209.064C502.593 209.034 502.133 208.835 501.783 208.503L495.478 202.586C495.036 202.171 494.804 201.586 494.845 200.988L495.655 189.37Z" fill="#6535FF" />
    <path opacity="0.44" d="M494.007 201.149L494.798 189.382C494.845 188.646 495.356 188.025 496.065 187.844C498.296 187.255 500.595 186.971 502.901 187.002C502.096 188.005 501.508 189.167 501.174 190.412C500.789 191.92 500.534 193.459 500.411 195.012C500.311 195.84 500.311 196.678 500.411 197.507C500.685 199.524 502.08 201.207 502.671 203.137C503.11 204.747 503.11 206.446 502.671 208.056C502.508 208.717 502.301 209.367 502.052 210C501.681 209.865 501.342 209.652 501.059 209.376L494.885 203.442C494.27 202.846 493.948 202.007 494.007 201.149Z" fill="#BBC4EF" />
    <path opacity="0.18" d="M510.238 201L514.272 200.168C514.582 200.183 514.849 199.953 514.877 199.644L514.998 197.604C515.009 197.454 514.96 197.307 514.862 197.193C514.764 197.08 514.624 197.01 514.474 197L510.44 197.846C510.343 197.836 510.25 197.884 510.203 197.969C510.156 198.054 510.165 198.159 510.224 198.235L511.65 198.799C511.732 198.89 511.732 199.029 511.65 199.121L510.09 200.57C510.011 200.634 509.98 200.741 510.013 200.837C510.046 200.933 510.136 200.998 510.238 201ZM497.795 196.494L493.748 195.002C493.594 194.989 493.441 195.044 493.325 195.153C493.208 195.262 493.136 195.417 493.126 195.584L493.002 197.851C492.99 198.016 493.041 198.179 493.143 198.303C493.244 198.426 493.387 198.5 493.54 198.508L497.588 200C497.687 200.003 497.78 199.945 497.826 199.85C497.873 199.755 497.866 199.64 497.809 199.552L496.427 197.717C496.343 197.615 496.343 197.461 496.427 197.359L497.933 196.941C497.995 196.869 498.016 196.767 497.987 196.673C497.958 196.58 497.885 196.511 497.795 196.494Z" fill="#070707" />
    <path d="M510.213 199.715L514.236 199.999C514.544 200.017 514.811 199.759 514.839 199.416L515 195.959C515.008 195.612 514.773 195.317 514.463 195.285L510.441 195.001C510.342 194.991 510.247 195.05 510.203 195.149C510.158 195.248 510.173 195.368 510.239 195.45L511.58 197.276C511.664 197.383 511.664 197.543 511.58 197.65L510.052 199.281C509.998 199.357 509.985 199.46 510.018 199.55C510.052 199.64 510.126 199.703 510.213 199.715ZM497.789 194.27L493.788 194.002C493.641 193.989 493.496 194.044 493.385 194.154C493.275 194.264 493.208 194.418 493.202 194.584L493.002 198.06C492.991 198.225 493.04 198.387 493.138 198.511C493.236 198.635 493.374 198.709 493.522 198.716L497.522 199C497.615 199.004 497.702 198.948 497.745 198.855C497.788 198.762 497.779 198.65 497.722 198.567L496.389 196.732C496.3 196.633 496.3 196.473 496.389 196.374L497.909 194.748C497.985 194.68 498.017 194.569 497.991 194.464C497.965 194.36 497.885 194.283 497.789 194.27Z" fill="#FCCDD3" />
    <path d="M514.959 201L510.434 200.747C510.252 200.745 510.09 200.645 510.027 200.493C509.965 200.339 510.012 200.166 510.148 200.053L511.867 198.6C511.901 198.57 511.947 198.553 511.995 198.553C512.043 198.553 512.089 198.57 512.123 198.6C512.196 198.667 512.196 198.773 512.123 198.84L510.404 200.293C510.388 200.318 510.388 200.349 510.404 200.373L514.929 200.627C515.053 200.644 515.178 200.604 515.26 200.52C515.348 200.452 515.402 200.356 515.411 200.253L515.637 197.147C515.641 197.105 515.664 197.065 515.701 197.038C515.738 197.01 515.785 196.997 515.833 197.001C515.881 197.004 515.926 197.024 515.957 197.057C515.988 197.089 516.003 197.131 515.999 197.174L515.773 200.267C515.762 200.461 515.664 200.643 515.502 200.773C515.361 200.908 515.166 200.99 514.959 201ZM497.433 200L493.232 199.753C493.158 199.773 493.078 199.747 493.033 199.688C492.989 199.629 492.989 199.551 493.033 199.493C493.078 199.434 493.158 199.408 493.232 199.428L497.433 199.675C497.459 199.687 497.49 199.687 497.517 199.675C497.517 199.675 497.517 199.675 497.517 199.597L496.116 197.997C495.965 197.847 495.965 197.614 496.116 197.464L497.713 196.046C497.778 195.985 497.885 195.985 497.951 196.046C498.016 196.107 498.016 196.206 497.951 196.267L496.355 197.698C496.337 197.71 496.326 197.729 496.326 197.75C496.326 197.77 496.337 197.789 496.355 197.802L497.755 199.389C497.843 199.52 497.843 199.687 497.755 199.818C497.688 199.926 497.566 199.994 497.433 200Z" fill="#6535FF" />
    <path d="M504.208 207.999C504.122 208.009 504.041 207.961 504.011 207.884C503.982 207.806 504.012 207.719 504.085 207.675L510.689 203.052C510.723 203.019 510.77 203 510.819 203C510.868 203 510.915 203.019 510.95 203.052C511.017 203.129 511.017 203.24 510.95 203.317L504.361 207.925C504.328 207.974 504.269 208.003 504.208 207.999Z" fill="#BBC4EF" />
    <path d="M476.515 131C476.219 130.962 476 130.75 476 130.501C476 130.253 476.219 130.041 476.515 130.003H495.851L510.346 129.006C510.508 128.985 510.673 129.023 510.798 129.111C510.923 129.198 510.996 129.326 510.998 129.462C511.023 129.737 510.778 129.977 510.447 130.003L495.953 131H476.515Z" fill="#C4CAE8" />
    <path d="M497 139C500.866 139 504 135.866 504 132C504 128.134 500.866 125 497 125C493.134 125 490 128.134 490 132C490 135.866 493.134 139 497 139Z" fill="#C4CAE8" />
    <path d="M480.5 139C484.09 139 487 136.09 487 132.5C487 128.91 484.09 126 480.5 126C476.91 126 474 128.91 474 132.5C474 136.09 476.91 139 480.5 139Z" fill="#C4CAE8" />
    <path d="M500.436 134C500.286 133.999 500.142 133.942 500.033 133.839L496.122 129.915C495.944 129.69 495.963 129.368 496.165 129.165C496.368 128.963 496.69 128.944 496.915 129.122L500.825 133.046C500.937 133.148 501 133.292 501 133.442C501 133.593 500.937 133.737 500.825 133.839C500.723 133.943 500.582 134.002 500.436 134ZM497.399 134C497.235 134.002 497.077 133.939 496.96 133.824L495.133 131.996C494.939 131.751 494.959 131.401 495.18 131.18C495.4 130.959 495.751 130.939 495.995 131.133L497.823 132.961C498.059 133.201 498.059 133.585 497.823 133.824C497.71 133.936 497.558 133.998 497.399 134ZM481.44 135C481.294 134.999 481.154 134.941 481.05 134.839L477.122 130.915C476.944 130.69 476.963 130.368 477.165 130.165C477.368 129.963 477.691 129.944 477.916 130.122L481.844 134.046C481.999 134.209 482.043 134.448 481.955 134.655C481.868 134.863 481.665 134.998 481.44 135ZM484.488 134C484.352 133.999 484.221 133.947 484.122 133.853L483.111 132.835C482.949 132.63 482.966 132.336 483.15 132.151C483.334 131.966 483.626 131.949 483.83 132.111L484.842 133.129C484.943 133.222 485 133.353 485 133.491C485 133.629 484.943 133.76 484.842 133.853C484.749 133.948 484.621 134.001 484.488 134Z" fill="white" />
    <path opacity="0.32" d="M235 164.723C235 164.147 234.516 163.677 233.915 163.67C234.273 163.529 234.527 163.216 234.579 162.848C234.632 162.48 234.475 162.113 234.169 161.886C233.862 161.658 233.452 161.605 233.093 161.745C233.329 161.5 233.431 161.164 233.371 160.836C233.311 160.508 233.094 160.226 232.785 160.073H232.653C232.262 159.951 231.831 160.049 231.539 160.326C230.309 160.099 229.208 159.45 228.444 158.5C227.844 158.5 227.359 158.965 227.359 159.54C227.225 159.226 226.94 158.995 226.596 158.92C226.252 158.844 225.89 158.934 225.628 159.16C225.59 159.189 225.556 159.222 225.525 159.259C225.27 159.557 225.197 159.963 225.335 160.326C225.045 160.053 224.619 159.961 224.235 160.087H224.103C223.788 160.237 223.569 160.523 223.514 160.855C223.458 161.186 223.574 161.523 223.824 161.759C223.28 161.564 222.673 161.813 222.445 162.325C222.217 162.836 222.45 163.429 222.973 163.67C222.418 163.731 222 164.181 222 164.716C222 165.251 222.418 165.701 222.973 165.763C222.479 165.945 222.195 166.443 222.3 166.939C222.405 167.436 222.87 167.788 223.399 167.772C223.525 167.793 223.654 167.793 223.78 167.772C223.539 168.014 223.434 168.351 223.498 168.68C223.562 169.008 223.787 169.287 224.103 169.429H224.235C224.629 169.545 225.058 169.442 225.349 169.163C225.2 169.503 225.25 169.893 225.481 170.188L225.643 170.357L224.308 173.026C224.277 173.09 224.288 173.165 224.335 173.218C224.382 173.272 224.457 173.296 224.528 173.279L225.995 172.899C226.082 172.883 226.171 172.922 226.215 172.998L226.875 174.403C226.908 174.462 226.972 174.5 227.043 174.5C227.114 174.5 227.179 174.462 227.212 174.403L228.459 171.874L229.72 174.403C229.753 174.462 229.818 174.5 229.889 174.5C229.959 174.5 230.024 174.462 230.057 174.403L230.703 172.998C230.754 172.923 230.846 172.885 230.937 172.899L232.404 173.279C232.475 173.296 232.55 173.272 232.597 173.218C232.644 173.165 232.654 173.09 232.624 173.026L231.304 170.357C231.349 170.332 231.389 170.298 231.421 170.258C231.678 169.965 231.746 169.56 231.597 169.205C231.895 169.464 232.315 169.55 232.697 169.429H232.844C233.158 169.277 233.377 168.988 233.432 168.655C233.488 168.321 233.372 167.982 233.123 167.744C233.252 167.8 233.392 167.829 233.533 167.828C233.974 167.823 234.371 167.57 234.545 167.182C234.672 166.924 234.682 166.627 234.574 166.362C234.466 166.096 234.249 165.885 233.973 165.777C234.555 165.747 235.009 165.282 235 164.723Z" fill="#3E1EC4" />
    <path d="M233.796 173.309L232.229 172.94C232.134 172.912 232.031 172.954 231.994 173.036L231.29 174.405C231.254 174.463 231.185 174.5 231.109 174.5C231.034 174.5 230.965 174.463 230.929 174.405L229.018 170.872C228.973 170.785 229.015 170.682 229.112 170.639L231.822 169.516C231.922 169.476 232.039 169.513 232.088 169.598L233.999 173.118C234.004 173.167 233.984 173.216 233.946 173.253C233.907 173.289 233.853 173.31 233.796 173.309Z" fill="#F9879A" />
    <path d="M225.189 173.299L226.756 172.93C226.855 172.901 226.964 172.942 227.007 173.026L227.696 174.391C227.728 174.457 227.802 174.5 227.884 174.5C227.967 174.5 228.041 174.457 228.072 174.391L229.984 170.868C230.005 170.825 230.005 170.776 229.985 170.733C229.964 170.689 229.924 170.654 229.875 170.636L227.179 169.517C227.075 169.476 226.952 169.512 226.897 169.599L225.001 173.107C224.996 173.155 225.014 173.201 225.049 173.237C225.084 173.273 225.135 173.295 225.189 173.299Z" fill="#F9879A" />
    <path opacity="0.32" d="M229.811 170.689L229.341 170.5C229.367 170.894 229.183 171.279 228.838 171.551C228.562 171.753 228.206 171.86 227.914 172.062C227.664 172.238 227.446 172.442 227.265 172.668C227.157 172.783 227.07 172.91 227.006 173.045C226.998 173.126 226.998 173.207 227.006 173.288L227.622 174.392C227.655 174.457 227.731 174.5 227.816 174.5C227.902 174.5 227.978 174.457 228.011 174.392L229.989 170.918C230.009 170.867 230.001 170.812 229.966 170.768C229.932 170.723 229.874 170.694 229.811 170.689ZM232.278 169.602C232.248 169.53 232.174 169.489 232.1 169.502C232.093 169.625 232.093 169.748 232.1 169.87C232.125 170.372 232.102 170.874 232.031 171.371C231.99 171.6 231.99 171.835 232.031 172.065C232.155 172.518 232.622 172.744 232.98 173.027C233.113 173.134 233.237 173.253 233.351 173.381L233.778 173.494C233.844 173.512 233.915 173.488 233.959 173.434C234.003 173.379 234.012 173.304 233.984 173.24L232.278 169.602Z" fill="#6534FF" />
    <path d="M236 164.966C235.992 164.361 235.505 163.874 234.907 163.874C235.184 163.764 235.403 163.543 235.513 163.264C235.623 162.985 235.615 162.672 235.49 162.399C235.381 162.12 235.164 161.897 234.889 161.783C234.614 161.669 234.305 161.673 234.033 161.794C234.273 161.543 234.38 161.19 234.319 160.845C234.258 160.501 234.038 160.206 233.727 160.054H233.582C233.19 159.933 232.764 160.041 232.474 160.334C232.677 159.788 232.418 159.176 231.888 158.947C231.357 158.718 230.743 158.953 230.493 159.479C230.429 158.921 229.963 158.5 229.408 158.5C228.853 158.5 228.387 158.921 228.323 159.479C228.194 159.15 227.914 158.907 227.573 158.827C227.233 158.748 226.876 158.842 226.618 159.08L226.502 159.184C226.247 159.492 226.179 159.917 226.327 160.29C226.031 160.018 225.616 159.923 225.234 160.039H225.088C224.781 160.204 224.568 160.506 224.514 160.854C224.459 161.202 224.57 161.556 224.812 161.809C224.272 161.605 223.668 161.866 223.442 162.403C223.216 162.94 223.447 163.562 223.967 163.815C223.416 163.88 223 164.352 223 164.914C223 165.476 223.416 165.948 223.967 166.013C223.693 166.127 223.477 166.348 223.367 166.626C223.257 166.904 223.263 167.215 223.384 167.488C223.557 167.896 223.951 168.162 224.389 168.166C224.525 168.165 224.659 168.135 224.782 168.078C224.542 168.33 224.436 168.683 224.497 169.027C224.557 169.372 224.777 169.666 225.088 169.818H225.234C225.619 169.944 226.04 169.842 226.327 169.553C226.179 169.91 226.229 170.32 226.458 170.63C226.52 170.71 226.593 170.779 226.676 170.836C226.863 170.985 227.095 171.063 227.332 171.057C227.759 171.056 228.146 170.802 228.323 170.408C228.323 171.011 228.805 171.5 229.401 171.5C229.996 171.5 230.479 171.011 230.479 170.408C230.653 170.813 231.048 171.074 231.484 171.072C231.746 171.076 232 170.981 232.198 170.807L232.3 170.703C232.559 170.392 232.632 169.963 232.489 169.582C232.777 169.869 233.2 169.966 233.582 169.833H233.713C234.025 169.676 234.243 169.376 234.298 169.028C234.353 168.679 234.238 168.326 233.99 168.078C234.118 168.135 234.257 168.165 234.398 168.166C234.543 168.167 234.687 168.137 234.82 168.078C235.083 167.966 235.292 167.754 235.403 167.488C235.529 167.217 235.539 166.906 235.432 166.627C235.324 166.348 235.108 166.126 234.835 166.013C235.441 166.047 235.961 165.579 236 164.966Z" fill="white" />
    <path d="M225.378 169.49H225.221C224.888 169.324 224.652 169.018 224.581 168.661C224.538 168.416 224.578 168.164 224.694 167.942C224.185 167.98 223.708 167.695 223.513 167.237C223.269 166.753 223.419 166.17 223.869 165.855C223.359 165.714 223.005 165.263 223 164.749C223.009 164.25 223.349 163.814 223.84 163.67C223.444 163.351 223.306 162.82 223.498 162.357C223.698 161.891 224.192 161.609 224.709 161.666C224.588 161.441 224.543 161.184 224.581 160.933C224.634 160.566 224.868 160.247 225.207 160.076H225.364C225.67 159.98 226.002 160.005 226.289 160.145C226.257 159.84 226.354 159.535 226.56 159.302L226.674 159.177C226.965 158.939 227.358 158.851 227.727 158.942C227.98 158.996 228.207 159.133 228.368 159.329C228.518 158.84 228.981 158.503 229.507 158.5C230.017 158.507 230.464 158.83 230.618 159.302C230.882 158.996 231.291 158.846 231.698 158.905C232.105 158.964 232.451 159.224 232.611 159.592C232.68 159.773 232.709 159.966 232.697 160.159C232.979 160.006 233.315 159.976 233.622 160.076H233.779C234.119 160.234 234.359 160.544 234.419 160.905C234.461 161.155 234.421 161.411 234.306 161.638C234.813 161.594 235.291 161.873 235.487 162.329C235.728 162.81 235.585 163.389 235.146 163.712C235.645 163.856 235.991 164.298 236 164.804C236 164.868 235.951 164.921 235.886 164.928C235.815 164.928 235.758 164.873 235.758 164.804C235.758 164.556 235.653 164.318 235.467 164.148C235.281 163.978 235.031 163.89 234.775 163.905C234.718 163.899 234.668 163.861 234.647 163.809C234.642 163.757 234.67 163.707 234.719 163.684C235.166 163.482 235.376 162.979 235.2 162.531C235.024 162.084 234.521 161.845 234.049 161.984C234.006 162.012 233.95 162.012 233.907 161.984C233.874 161.943 233.874 161.886 233.907 161.846C234.104 161.631 234.193 161.342 234.149 161.058C234.093 160.771 233.904 160.526 233.636 160.394H233.508C233.17 160.295 232.803 160.385 232.554 160.629C232.508 160.664 232.444 160.664 232.398 160.629C232.364 160.589 232.364 160.531 232.398 160.491C232.496 160.267 232.497 160.015 232.4 159.791C232.303 159.567 232.118 159.391 231.885 159.302C231.413 159.116 230.874 159.323 230.66 159.772C230.66 159.772 230.589 159.772 230.532 159.772C230.481 159.759 230.445 159.713 230.447 159.661C230.424 159.171 230.012 158.783 229.507 158.776C229.255 158.773 229.013 158.867 228.833 159.039C228.654 159.21 228.553 159.445 228.553 159.689C228.55 159.747 228.51 159.796 228.453 159.813C228.396 159.816 228.344 159.783 228.325 159.73C228.207 159.46 227.964 159.26 227.67 159.191C227.372 159.128 227.061 159.205 226.83 159.399C226.795 159.419 226.766 159.447 226.745 159.482C226.519 159.737 226.453 160.092 226.574 160.408C226.603 160.45 226.603 160.504 226.574 160.546C226.532 160.578 226.473 160.578 226.432 160.546C226.191 160.28 225.817 160.168 225.463 160.256H225.349C225.074 160.385 224.882 160.639 224.837 160.933C224.794 161.222 224.894 161.515 225.107 161.721C225.149 161.764 225.149 161.831 225.107 161.873C225.066 161.906 225.007 161.906 224.965 161.873C224.485 161.675 223.931 161.891 223.726 162.357C223.522 162.823 223.745 163.361 224.225 163.56C224.252 163.566 224.275 163.583 224.288 163.607C224.302 163.63 224.304 163.658 224.296 163.684C224.282 163.734 224.235 163.769 224.182 163.767C223.677 163.789 223.278 164.189 223.271 164.68C223.267 164.924 223.364 165.16 223.541 165.334C223.717 165.508 223.959 165.606 224.21 165.606C224.268 165.605 224.317 165.647 224.324 165.703C224.327 165.758 224.293 165.809 224.239 165.827C223.763 166.029 223.542 166.564 223.74 167.03C223.937 167.487 224.475 167.708 224.951 167.527C224.988 167.497 225.042 167.497 225.079 167.527C225.112 167.568 225.112 167.625 225.079 167.666C224.88 167.879 224.791 168.169 224.837 168.454C224.892 168.74 225.082 168.985 225.349 169.117H225.478C225.511 169.158 225.511 169.215 225.478 169.255C225.544 169.282 225.576 169.356 225.549 169.421C225.521 169.486 225.445 169.517 225.378 169.49Z" fill="#62BCF9" />
    <path opacity="0.32" d="M229 169.5C231.761 169.5 234 167.261 234 164.5C234 161.739 231.761 159.5 229 159.5C226.239 159.5 224 161.739 224 164.5C224 167.261 226.239 169.5 229 169.5Z" fill="#BBC4EF" />
    <path d="M225.087 163.5C225.054 163.493 225.026 163.471 225.011 163.439C224.996 163.406 224.996 163.369 225.011 163.336C225.524 161.652 226.754 160.33 228.324 159.777C229.894 159.225 231.615 159.507 232.959 160.538C232.985 160.563 233 160.599 233 160.637C233 160.674 232.985 160.71 232.959 160.735C232.909 160.776 232.84 160.776 232.791 160.735C230.586 159.032 227.513 159.558 225.911 161.913C225.612 162.364 225.375 162.861 225.209 163.385C225.202 163.451 225.149 163.501 225.087 163.5Z" fill="#BBC4EF" />
    <path opacity="0.32" d="M235.999 164.768C235.991 164.156 235.515 163.664 234.93 163.664C235.2 163.552 235.415 163.329 235.523 163.046C235.631 162.764 235.623 162.447 235.5 162.171C235.393 161.888 235.181 161.663 234.912 161.548C234.643 161.432 234.341 161.437 234.075 161.559C234.31 161.305 234.414 160.948 234.354 160.599C234.295 160.25 234.08 159.953 233.775 159.798H233.633C233.249 159.676 232.833 159.785 232.549 160.082C232.629 159.9 232.654 159.697 232.621 159.5C232.423 159.74 232.272 160.019 232.179 160.321C232.11 160.635 232.063 160.954 232.036 161.276C231.946 161.932 231.717 162.559 231.366 163.111C230.658 163.893 230.041 164.76 229.527 165.693C229.303 166.558 229.236 167.459 229.328 168.35C229.341 169.355 229.231 170.358 229 171.334C229.326 171.546 229.735 171.556 230.07 171.36C230.404 171.165 230.611 170.795 230.611 170.394C230.781 170.803 231.168 171.067 231.594 171.066C231.851 171.069 232.1 170.974 232.293 170.797L232.393 170.692C232.647 170.378 232.718 169.944 232.578 169.558C232.859 169.848 233.274 169.947 233.647 169.812H233.775C234.081 169.653 234.294 169.35 234.348 168.997C234.401 168.645 234.289 168.287 234.046 168.036C234.172 168.094 234.308 168.125 234.445 168.126C234.588 168.126 234.728 168.096 234.859 168.036C235.116 167.923 235.321 167.708 235.429 167.439C235.552 167.165 235.562 166.85 235.457 166.568C235.352 166.286 235.141 166.061 234.873 165.947C235.175 165.96 235.469 165.84 235.683 165.616C235.897 165.392 236.011 165.084 235.999 164.768Z" fill="#6534FF" />
    <path opacity="0.32" d="M449.929 111.395V97.5101C449.931 96.2362 449.247 95.0585 448.135 94.4227L436.027 87.4784C434.92 86.8431 433.555 86.8431 432.447 87.4784L420.342 94.4227C419.231 95.0585 418.547 96.2362 418.549 97.5101V111.412C418.546 112.687 419.23 113.866 420.342 114.502L432.45 121.443C433.558 122.079 434.923 122.079 436.031 121.443L448.139 114.502C449.255 113.862 449.939 112.676 449.929 111.395Z" fill="#6534FF" />
    <path d="M450.659 109.954V96.0709C450.661 94.7966 449.977 93.6186 448.866 92.9826L436.76 86.0234C435.653 85.388 434.288 85.388 433.18 86.0234L421.075 92.9696C419.962 93.6048 419.277 94.783 419.279 96.0579V109.954C419.277 111.229 419.962 112.407 421.075 113.042L433.18 119.988C434.288 120.623 435.653 120.623 436.76 119.988L448.866 113.042C449.977 112.406 450.661 111.228 450.659 109.954Z" fill="#FCCDD3" />
    <path d="M450.659 95.3941C450.661 94.1129 449.977 92.9285 448.866 92.2891L436.764 85.299C435.657 84.6601 434.293 84.6601 433.186 85.299L421.074 92.2891C419.962 92.9277 419.277 94.1122 419.279 95.3941V109.358C419.277 110.64 419.962 111.824 421.074 112.463" stroke="#6535FF" stroke-linecap="round" stroke-linejoin="round" />
    <path d="M444.813 105.537L446.28 103.006L444.813 100.474V97.5498L442.273 96.0876L440.806 93.5564H437.875L435.336 92.0942L432.795 93.5564H429.861L428.394 96.0876L425.854 97.5498V100.474L424.387 103.006L425.854 105.537V108.462L428.394 109.924L429.861 112.455H432.795L435.336 113.917L437.875 112.455H440.806L442.273 109.924L444.813 108.462V105.537Z" fill="white" />
    <path d="M444.091 96.8223L441.55 95.3625L440.083 92.8297H437.148L434.607 91.3667L432.067 92.8297H429.132L427.665 95.3625L425.125 96.8223V99.7475L423.657 102.28L425.125 104.814V107.739L427.665 109.202L429.132 111.735H432.067" stroke="#6535FF" stroke-linecap="round" stroke-linejoin="round" />
    <path d="M434.969 106.643C437.186 106.643 438.983 104.852 438.983 102.642C438.983 100.433 437.186 98.6416 434.969 98.6416C432.752 98.6416 430.955 100.433 430.955 102.642C430.955 104.852 432.752 106.643 434.969 106.643Z" fill="#62BCF9" />
    <path d="M433.137 106.643C431.435 105.197 431.194 102.623 432.599 100.875C434.003 99.1282 436.527 98.862 438.253 100.279" stroke="#6535FF" stroke-width="1.51" stroke-linecap="round" stroke-linejoin="round" />
    <path opacity="0.32" d="M448.873 92.9647L436.815 85.9969C436.402 85.7584 435.944 85.6054 435.47 85.5469C435.215 86.0856 435.03 86.6547 434.919 87.2402C434.553 89.225 434.945 91.2713 435.506 93.2108C436.066 95.1502 436.802 97.0476 437.126 99.0388C437.577 101.77 437.258 104.573 436.206 107.133C434.835 110.462 432.268 113.259 431.308 116.73C431.133 117.366 431.015 118.016 430.955 118.673L433.224 119.987C434.327 120.624 435.686 120.624 436.789 119.987L448.847 113.033C449.959 112.405 450.65 111.232 450.659 109.957V96.0568C450.661 94.781 449.98 93.6015 448.873 92.9647Z" fill="#6534FF" />
    <path d="M437.523 118.282L448.469 111.735" stroke="#6535FF" stroke-linecap="round" stroke-linejoin="round" />
    <path opacity="0.32" d="M582.82 57.791C582.819 56.2954 581.625 55.0835 580.153 55.0815H580.012L580.142 55.0348C581.453 54.4414 582.066 52.9014 581.531 51.5493C580.996 50.1972 579.503 49.5174 578.153 50.0106C578.736 49.3834 578.992 48.5122 578.842 47.6628C578.693 46.8134 578.155 46.0866 577.393 45.7041C577.279 45.6471 577.161 45.5991 577.04 45.5606C576.083 45.253 575.037 45.5117 574.326 46.2317C574.295 46.264 574.266 46.2999 574.238 46.3322C574.256 46.2891 574.277 46.2496 574.295 46.2066C574.827 44.8402 574.19 43.2921 572.858 42.7168C571.527 42.1415 569.987 42.7487 569.387 44.0856C569.368 42.5912 568.161 41.395 566.689 41.4138C565.218 41.4326 564.04 42.6594 564.059 44.1538C564.059 44.2004 564.059 44.2507 564.059 44.2973L564.009 44.161C563.677 43.3518 562.982 42.7547 562.141 42.5569C561.301 42.3591 560.418 42.5848 559.769 43.1633C559.676 43.2436 559.589 43.3325 559.511 43.4289C558.869 44.1909 558.691 45.2498 559.049 46.185C558.336 45.4916 557.304 45.2555 556.367 45.5713C556.244 45.6057 556.126 45.6538 556.013 45.7149C555.245 46.1036 554.706 46.8437 554.566 47.7044C554.426 48.5651 554.702 49.4417 555.307 50.0609C555.34 50.095 555.376 50.1274 555.413 50.1577L555.286 50.0967C553.946 49.5747 552.439 50.2228 551.876 51.5635C551.313 52.9042 551.896 54.4571 553.194 55.0779C551.758 55.1461 550.633 56.3583 550.651 57.8186C550.669 59.2788 551.824 60.4618 553.261 60.4933H553.402C553.356 60.5113 553.314 60.522 553.272 60.5436C552.091 61.047 551.429 62.332 551.695 63.6045C551.961 64.8771 553.079 65.778 554.36 65.7508C554.689 65.7504 555.015 65.6871 555.321 65.5642C554.738 66.1915 554.482 67.0627 554.632 67.912C554.781 68.7614 555.319 69.4882 556.081 69.8707C556.194 69.9293 556.312 69.9774 556.434 70.0142C557.39 70.3227 558.436 70.0654 559.148 69.3467L559.239 69.2391C559.222 69.2821 559.197 69.3252 559.179 69.3683C558.822 70.2524 558.949 71.2619 559.511 72.0275C559.623 72.1845 559.754 72.3268 559.9 72.451L556.653 79.4131C556.574 79.5811 556.599 79.7805 556.717 79.9228C556.835 80.0652 557.024 80.1241 557.201 80.0735L560.706 79.083C560.927 79.0208 561.16 79.1301 561.257 79.3414L562.843 82.826C562.921 82.9919 563.086 83.0975 563.267 83.0975C563.448 83.0975 563.613 82.9919 563.691 82.826L566.726 76.273L569.786 82.8296C569.864 82.9955 570.029 83.1011 570.21 83.1011C570.391 83.1011 570.556 82.9955 570.634 82.8296L572.221 79.345C572.318 79.1337 572.551 79.0244 572.772 79.0866L576.277 80.0771C576.453 80.1277 576.642 80.0688 576.761 79.9264C576.879 79.7841 576.904 79.5846 576.825 79.4167L573.584 72.4725L573.666 72.4115C573.76 72.3312 573.846 72.2423 573.924 72.1459C574.561 71.3844 574.737 70.3296 574.383 69.397C575.098 70.0874 576.128 70.3232 577.065 70.0106C577.186 69.973 577.305 69.925 577.418 69.8671C578.187 69.4776 578.725 68.7369 578.865 67.8757C579.005 67.0145 578.73 66.1374 578.125 65.5175L578.019 65.4207L578.146 65.4817C578.469 65.6166 578.814 65.686 579.164 65.6862C580.247 65.6887 581.225 65.0249 581.637 64.0067C582.185 62.6479 581.567 61.093 580.245 60.5005C581.681 60.4484 582.82 59.251 582.82 57.791Z" fill="#3E1EC4" />
    <path d="M578.217 79.2069L574.792 78.1943C574.575 78.1292 574.347 78.2413 574.253 78.4585L572.698 82.0209C572.622 82.191 572.461 82.2995 572.285 82.2995C572.108 82.2995 571.947 82.191 571.872 82.0209L567.586 72.4195C567.533 72.3034 567.525 72.1694 567.566 72.0474C567.606 71.9255 567.69 71.8256 567.8 71.7701L573.869 68.7177C573.979 68.6625 574.104 68.6559 574.219 68.6992C574.333 68.7426 574.426 68.8324 574.477 68.9488L578.753 78.5282C578.832 78.7002 578.809 78.9057 578.693 79.0525C578.577 79.1994 578.39 79.2599 578.217 79.2069Z" fill="#FCCDD3" />
    <path d="M559.28 79.2075L562.704 78.1948C562.92 78.1296 563.149 78.2418 563.243 78.459L564.794 82.0219C564.871 82.1915 565.032 82.2995 565.209 82.2995C565.386 82.2995 565.547 82.1915 565.624 82.0219L569.908 72.4192C570.017 72.176 569.919 71.8854 569.691 71.7697L563.626 68.7168C563.397 68.6037 563.125 68.7066 563.015 68.948L558.74 78.5287C558.66 78.7014 558.684 78.9083 558.801 79.0555C558.918 79.2028 559.106 79.2625 559.28 79.2075Z" fill="#FCCDD3" />
    <path opacity="0.32" d="M569.708 72.3593L568.68 71.8776C568.748 72.9098 568.344 73.9166 567.583 74.6081C566.99 75.1418 566.212 75.4432 565.609 75.9422C565.071 76.4129 564.6 76.9576 564.211 77.5604C563.977 77.8586 563.785 78.1888 563.642 78.5411C563.575 78.7394 563.534 78.9455 563.519 79.1544L564.835 82.0374C564.91 82.1976 565.07 82.2995 565.246 82.2995C565.421 82.2995 565.581 82.1976 565.657 82.0374L569.907 72.9691C570.014 72.745 569.926 72.4748 569.708 72.3593ZM574.017 68.9409C573.921 68.7528 573.707 68.6456 573.489 68.676C573.462 68.9972 573.462 69.3199 573.489 69.6411C573.538 70.9397 573.469 72.2398 573.282 73.527C573.143 74.1236 573.133 74.7407 573.251 75.3412C573.596 76.5167 574.904 77.1299 575.93 77.8592C576.309 78.1315 576.663 78.435 576.986 78.7663L578.157 79.0747C578.348 79.1259 578.553 79.0663 578.68 78.9224C578.808 78.7784 578.835 78.5768 578.75 78.4071L574.017 68.9409Z" fill="#6534FF" />
    <path opacity="0.32" d="M572.666 65.4639C571.686 65.4695 570.755 65.883 570.108 66.6002C569.229 66.1498 568.189 66.1042 567.271 66.4758C566.631 65.8315 565.751 65.4665 564.83 65.4639C562.774 65.4639 561.106 67.0875 561.106 69.0903C561.106 71.0931 562.774 72.7168 564.83 72.7168C565.27 72.7164 565.705 72.6319 566.111 72.4681C566.77 73.1361 567.687 73.5033 568.638 73.4796C569.589 73.456 570.486 73.0437 571.109 72.3438C571.589 72.5866 572.121 72.7145 572.662 72.7168C574.719 72.7168 576.387 71.0931 576.387 69.0903C576.387 67.0875 574.719 65.4639 572.662 65.4639H572.666Z" fill="#6534FF" />
    <path d="M584.429 57.4513C584.427 55.9787 583.234 54.7854 581.761 54.7835H581.62L581.754 54.7376C583.076 54.1591 583.698 52.6348 583.159 51.2968C582.62 49.9587 581.115 49.2915 579.761 49.7906C580.346 49.1736 580.603 48.3153 580.453 47.4785C580.303 46.6416 579.764 45.9259 579.002 45.5504C578.889 45.4932 578.77 45.447 578.648 45.4126C577.693 45.107 576.647 45.3606 575.938 46.0698L575.846 46.1687C575.867 46.1285 575.886 46.0872 575.903 46.0451C576.276 45.169 576.153 44.1604 575.581 43.3993C575.009 42.6381 574.074 42.2401 573.129 42.3551C572.184 42.4701 571.371 43.0806 570.998 43.9568C570.931 42.5204 569.738 41.3957 568.3 41.4138C566.862 41.4319 565.698 42.5863 565.667 44.0239C565.667 44.0734 565.667 44.1193 565.667 44.1652C565.667 44.1193 565.638 44.0769 565.621 44.031C565.289 43.2343 564.593 42.6463 563.753 42.4515C562.912 42.2568 562.029 42.479 561.381 43.0486C561.286 43.1286 561.199 43.216 561.119 43.3101C560.478 44.0612 560.302 45.1037 560.66 46.0239C559.944 45.3427 558.912 45.1105 557.974 45.4196C557.852 45.4556 557.734 45.5029 557.621 45.561C556.852 45.9437 556.314 46.6724 556.174 47.5198C556.034 48.3673 556.309 49.2305 556.914 49.8401C556.95 49.8754 556.985 49.9037 557.02 49.9355L556.893 49.8754C555.553 49.3614 554.047 49.9995 553.484 51.3196C552.921 52.6397 553.503 54.1687 554.801 54.78C553.365 54.8478 552.241 56.0421 552.26 57.4802C552.279 58.9182 553.434 60.0824 554.872 60.1121H555.01L554.879 60.1615C553.522 60.7305 552.88 62.2899 553.444 63.6491C554 64.9843 555.52 65.632 556.868 65.1085C556.282 65.7253 556.025 66.5845 556.176 67.422C556.326 68.2595 556.867 68.975 557.632 69.3487C557.745 69.4066 557.863 69.454 557.985 69.4901C558.941 69.7946 559.988 69.5412 560.699 68.8328C560.734 68.7975 560.762 68.7622 560.794 68.7268C560.773 68.7692 560.752 68.8116 560.734 68.854C560.375 69.7255 560.501 70.7215 561.066 71.4759C561.213 71.6757 561.389 71.8521 561.589 71.9989C562.241 72.4886 563.081 72.6537 563.87 72.4472C564.659 72.2407 565.31 71.6852 565.638 70.9388C565.706 72.3754 566.9 73.4997 568.338 73.4807C569.776 73.4616 570.94 72.306 570.97 70.8682C570.97 70.8222 570.97 70.7763 570.97 70.7303C570.97 70.7727 570.998 70.8187 571.016 70.8611C571.432 71.858 572.409 72.5054 573.489 72.5006C574.139 72.4997 574.766 72.2651 575.256 71.8399C575.351 71.7617 575.437 71.6741 575.514 71.5784C576.155 70.8302 576.332 69.7895 575.973 68.8717C576.689 69.5514 577.721 69.7835 578.659 69.4759C578.78 69.4384 578.898 69.3911 579.012 69.3346C579.781 68.951 580.32 68.2217 580.459 67.3738C580.599 66.5258 580.324 65.6623 579.719 65.052L579.616 64.9565L579.744 65.0166C580.396 65.2923 581.133 65.2923 581.786 65.0166C582.439 64.7448 582.957 64.2232 583.224 63.5679C583.772 62.23 583.155 60.699 581.832 60.1156C583.276 60.0773 584.427 58.8962 584.429 57.4513Z" fill="white" />
    <path d="M583.625 56.632C583.623 55.1616 582.428 53.97 580.953 53.9681H580.811C580.857 53.9504 580.903 53.9399 580.946 53.9187C582.314 53.3692 582.976 51.8179 582.425 50.4538C581.874 49.0898 580.318 48.4295 578.95 48.979C579.535 48.3629 579.793 47.5059 579.642 46.6703C579.492 45.8346 578.953 45.1199 578.189 44.745C578.075 44.6867 577.957 44.6394 577.835 44.6038C576.878 44.3004 575.831 44.5534 575.12 45.2601C575.088 45.2919 575.06 45.3272 575.028 45.3624C575.049 45.3201 575.067 45.2813 575.085 45.2389C575.6 43.901 574.961 42.3967 573.638 41.8345C572.316 41.2722 570.785 41.8536 570.173 43.1502C570.105 41.7157 568.908 40.593 567.468 40.6121C566.028 40.6311 564.862 41.7849 564.832 43.2207C564.832 43.2666 564.832 43.3125 564.832 43.3619C564.832 43.316 564.804 43.2701 564.786 43.2278C564.454 42.4323 563.757 41.8452 562.915 41.6507C562.073 41.4562 561.188 41.6781 560.539 42.2469C560.444 42.3258 560.356 42.4132 560.277 42.508C559.635 43.2565 559.458 44.2966 559.817 45.2142C559.1 44.5355 558.067 44.3038 557.127 44.6109C557.006 44.6484 556.887 44.6956 556.773 44.752C556.003 45.135 555.464 45.8632 555.324 46.71C555.184 47.5567 555.46 48.419 556.066 49.0284L556.172 49.1237L556.044 49.0637C554.681 48.5015 553.119 49.1476 552.555 50.5068C551.991 51.866 552.639 53.4235 554.002 53.9857C552.564 54.0528 551.437 55.2445 551.455 56.6803C551.473 58.116 552.63 59.2791 554.07 59.31H554.208L554.077 59.3559C552.717 59.9254 552.075 61.4837 552.64 62.8419C553.058 63.8361 554.036 64.4819 555.117 64.479C555.446 64.4783 555.771 64.416 556.076 64.2956C555.491 64.9121 555.234 65.7695 555.385 66.6052C555.536 67.4409 556.076 68.1553 556.841 68.5296C556.955 68.5863 557.073 68.6335 557.195 68.6707" stroke="#5CBEFF" stroke-linecap="round" stroke-linejoin="round" />
    <path opacity="0.32" d="M568.746 69.4723C575.63 69.4723 581.211 63.9091 581.211 57.0465C581.211 50.1839 575.63 44.6206 568.746 44.6206C561.861 44.6206 556.28 50.1839 556.28 57.0465C556.28 63.9091 561.861 69.4723 568.746 69.4723Z" fill="#BBC4EF" />
    <path d="M557.085 53.4387C558.266 49.919 561.129 47.154 564.787 45.9997C568.445 44.8454 572.458 45.441 575.582 47.6022" stroke="#BBC4EF" stroke-width="1.66" stroke-linecap="round" stroke-linejoin="round" />
    <path opacity="0.32" d="M584.429 57.4062C584.427 55.9343 583.219 54.7415 581.728 54.7395H581.585L581.72 54.6936C583.059 54.1153 583.689 52.5917 583.143 51.2542C582.597 49.9167 581.073 49.2497 579.702 49.7487C580.295 49.132 580.555 48.274 580.403 47.4375C580.251 46.601 579.706 45.8855 578.933 45.5102C578.819 45.453 578.699 45.4069 578.575 45.3724C577.608 45.067 576.549 45.3205 575.831 46.0294L575.738 46.1283C575.759 46.0881 575.778 46.0468 575.795 46.0047C575.978 45.567 576.038 45.0885 575.967 44.6201C575.452 45.1937 575.064 45.8675 574.829 46.5981C574.652 47.3547 574.532 48.1233 574.471 48.8975C574.241 50.4776 573.652 51.9859 572.747 53.309C571.276 55.4601 568.994 57.0954 568.056 59.5184C567.276 61.5246 567.544 63.7569 567.577 65.9009C567.609 68.3225 567.327 70.7381 566.736 73.0887C567.157 73.3451 567.643 73.4808 568.138 73.4807C569.629 73.4788 570.838 72.286 570.84 70.814C570.84 70.7681 570.84 70.7222 570.84 70.6763C570.84 70.7186 570.868 70.7646 570.886 70.8069C571.308 71.8035 572.297 72.4506 573.391 72.4458C574.048 72.4449 574.683 72.2104 575.18 71.7853C575.276 71.7072 575.363 71.6196 575.441 71.5239C576.09 70.7761 576.269 69.7358 575.906 68.8184C576.631 69.4978 577.676 69.7298 578.626 69.4224C578.748 69.3848 578.868 69.3376 578.983 69.2811C579.762 68.8977 580.307 68.1687 580.449 67.3211C580.591 66.4735 580.312 65.6103 579.699 65.0002L579.595 64.9048L579.724 64.9649C580.385 65.2404 581.131 65.2404 581.792 64.9649C582.454 64.6932 582.978 64.1718 583.248 63.5167C583.803 62.1794 583.178 60.649 581.839 60.0659C583.284 60.0072 584.426 58.8346 584.429 57.4062Z" fill="#6534FF" />
    <path opacity="0.32" d="M280.275 29.5946L278.645 26.7701L278.512 23.505C278.452 21.8861 277.533 20.422 276.102 19.6626L273.832 18.4641L272.55 16.2609C271.743 14.8553 270.245 13.9895 268.624 13.9916H265.376L262.49 12.4626C261.058 11.7055 259.331 11.7693 257.96 12.63L255.787 13.9916H253.222C251.601 13.9907 250.102 14.856 249.292 16.2609L247.666 19.0722L244.898 20.8039C243.529 21.6631 242.718 23.1847 242.77 24.8005L242.867 27.3606L241.584 29.5638C240.774 30.968 240.774 32.6981 241.584 34.1024L243.215 36.9269L243.334 40.2229C243.395 41.8418 244.313 43.3058 245.744 44.0652L248.009 45.2638L249.292 47.467C250.102 48.8719 251.601 49.7372 253.222 49.7363H255.928V57.0729C255.929 57.3133 256.069 57.5316 256.286 57.6334C256.504 57.7352 256.761 57.7022 256.946 57.5488L260.793 54.3409C261.025 54.1453 261.364 54.1453 261.595 54.3409L265.235 57.5003C265.419 57.6589 265.679 57.6955 265.9 57.5941C266.121 57.4927 266.262 57.2718 266.262 57.0288V49.7539H268.641C270.262 49.7559 271.76 48.8901 272.568 47.4846L274.203 44.6557L276.97 42.924C278.342 42.0621 279.15 40.5335 279.09 38.9142L278.997 36.354L280.279 34.1508C281.096 32.7413 281.094 31.0026 280.275 29.5946Z" fill="#6534FF" />
    <path d="M266.931 56.4997L263.412 53.2393C263.189 53.0375 262.862 53.0375 262.638 53.2393L258.923 56.5497C258.745 56.708 258.497 56.742 258.286 56.6369C258.076 56.5319 257.941 56.3066 257.94 56.0586V47.4189C257.934 47.2458 257.992 47.077 258.104 46.9511C258.215 46.8251 258.37 46.7528 258.532 46.7505H267.323C267.652 46.753 267.918 47.0393 267.918 47.3916V56.0313C267.914 56.2788 267.776 56.5013 267.565 56.6017C267.353 56.7022 267.106 56.6624 266.931 56.4997Z" fill="#62BCF9" />
    <path opacity="0.32" d="M263.428 50.7286C266.459 50.7286 268.916 48.2795 268.916 45.2584C268.916 42.2372 266.459 39.7881 263.428 39.7881C260.396 39.7881 257.939 42.2372 257.939 45.2584C257.939 48.2795 260.396 50.7286 263.428 50.7286Z" fill="#6534FF" />
    <path d="M282.272 27.6145L280.641 24.7969L280.522 21.5397C280.461 19.9247 279.542 18.4642 278.111 17.7067L275.845 16.5111L274.562 14.3132C273.752 12.9118 272.253 12.0486 270.631 12.0495H267.365L264.482 10.4715C263.048 9.71634 261.32 9.77999 259.946 10.6385L257.773 12.0099H255.208C253.587 12.0097 252.09 12.8729 251.281 14.2737L249.645 17.0913L246.877 18.8232C245.504 19.6823 244.695 21.2076 244.757 22.8232L244.863 25.3771L243.58 27.5749C242.769 28.9757 242.769 30.7016 243.58 32.1024L245.211 34.92L245.304 38.1948C245.362 39.8094 246.279 41.2705 247.71 42.0278L249.98 43.2234L251.263 45.4212C252.073 46.8207 253.57 47.6834 255.19 47.685H258.456L261.344 49.2059C262.774 49.9643 264.502 49.9023 265.875 49.0432L268.048 47.685H270.613C272.235 47.6841 273.733 46.8214 274.545 45.4212L276.176 42.5992L278.944 40.8717C280.316 40.0112 281.125 38.4873 281.068 36.8717L281.007 34.331L282.289 32.1332C283.091 30.7315 283.085 29.0099 282.272 27.6145Z" fill="#BBC4EF" />
    <path d="M279.893 20.4987C279.832 18.8828 278.904 17.4214 277.459 16.6642L275.172 15.4638L273.877 13.2651C273.057 11.8655 271.544 11.004 269.908 11.0049H266.611L263.701 9.47904C262.255 8.72231 260.51 8.78431 259.122 9.64174L256.929 11.0049H254.339C252.708 11.001 251.198 11.8553 250.375 13.2475L248.724 16.0706L245.934 17.8031C244.546 18.6594 243.728 20.1844 243.79 21.8003L243.883 24.3595L242.588 26.5582C241.769 27.9579 241.769 29.6833 242.588 31.083L244.235 33.9237L244.355 37.1777C244.413 38.7929 245.339 40.2545 246.784 41.0121L249.076 42.2082L250.37 44.4069C251.187 45.8082 252.699 46.6717 254.335 46.6715H257.632L260.546 48.1973C261.995 48.9703 263.753 48.9132 265.147 48.0478" stroke="#6534FF" stroke-linecap="round" stroke-linejoin="round" />
    <path opacity="0.32" d="M280.662 24.9562L280.545 21.7188C280.485 20.1136 279.58 18.6619 278.169 17.909L275.937 16.7206L274.673 14.5361C273.875 13.1431 272.397 12.2852 270.799 12.286H267.581L266.92 11.9365C267.023 13.2825 267.051 14.6332 267.003 15.9822C267.029 17.6425 267.32 19.4163 268.449 20.6265C269.061 21.1866 269.708 21.7061 270.386 22.1819C272.217 23.7328 273.161 26.0973 272.905 28.4908C272.658 30.5923 271.485 32.5277 271.42 34.6423C271.351 36.8705 272.51 38.9764 272.571 41.1959C272.609 42.5725 272.224 43.9273 271.468 45.0756C270.851 46.0105 270 46.7882 269.427 47.745H270.799C272.397 47.7441 273.873 46.8867 274.673 45.495L276.28 42.6901L279.008 40.973C280.36 40.1177 281.157 38.6031 281.101 36.9972L281.023 34.4545L282.287 32.27C283.086 30.8776 283.086 29.1622 282.287 27.7699L280.662 24.9562Z" fill="#6534FF" />
    <path opacity="0.32" d="M262.93 44.7605C270.645 44.7605 276.899 43.8698 276.899 42.7711C276.899 41.6724 270.645 40.7817 262.93 40.7817C255.215 40.7817 248.96 41.6724 248.96 42.7711C248.96 43.8698 255.215 44.7605 262.93 44.7605Z" fill="#6534FF" />
    <path d="M282.049 30.5316C281.643 30.9676 281.064 31.2176 280.457 31.2196H247.393C246.786 31.2175 246.209 30.9674 245.805 30.5316C245.384 30.072 244.77 29.819 244.135 29.8423C243.499 29.8656 242.907 30.1628 242.523 30.652L242.407 30.8025C242.01 31.3077 241.877 31.9616 242.046 32.5742L244.022 39.6698C244.366 40.9119 245.533 41.776 246.866 41.777H280.987C282.32 41.7756 283.485 40.9113 283.828 39.6698L285.808 32.5742C285.977 31.9616 285.844 31.3077 285.446 30.8025L285.331 30.652C284.945 30.1642 284.354 29.8681 283.719 29.8448C283.084 29.8215 282.471 30.0734 282.049 30.5316Z" fill="#62BCF9" />
    <path d="M244.812 30.5291C244.389 30.0699 243.775 29.8176 243.138 29.8418C242.501 29.8659 241.91 30.164 241.526 30.6538L241.41 30.8001C241.012 31.3056 240.879 31.9593 241.048 32.5721L243.026 39.6731C243.373 40.9137 244.541 41.7759 245.874 41.7764H280.038C281.371 41.7759 282.539 40.9137 282.886 39.6731M246.963 30.8349H258.938M270.912 41.7764H263.927M258.938 43.7657H260.933M267.918 51.7232V54.7072M250.955 17.904L257.94 13.9253" stroke="#6534FF" stroke-linecap="round" stroke-linejoin="round" />
    <path d="M125.561 97.6037C124.95 97.6017 124.359 97.3884 123.892 97.0012L115.56 90.0736C114.972 89.5869 114.634 88.8691 114.637 88.1136L114.689 73.4092C114.692 72.939 115 72.5233 115.454 72.376C122.079 70.2267 129.234 70.2505 135.844 72.4437C136.299 72.5947 136.604 73.0148 136.602 73.4866L136.551 88.1886C136.549 88.9443 136.206 89.6603 135.615 90.1438L127.247 97.0133C126.773 97.3993 126.176 97.6085 125.561 97.6037Z" fill="white" />
    <path d="M126.941 87.173L123.423 85.0137L126.882 89.9397L130.562 85.1664L126.941 87.173Z" fill="#52D2BC" stroke="#6535FF" stroke-width="0.32" stroke-linecap="round" stroke-linejoin="round" />
    <path d="M123.428 84.1098H123.448L126.983 86.1079L130.539 84.2572L130.557 84.2596L130.547 84.2547L130.562 84.245L127.157 78.4448L123.423 84.0977L123.44 84.105L123.428 84.1098Z" fill="#52D2BC" stroke="#6535FF" stroke-width="0.32" stroke-linecap="round" stroke-linejoin="round" />
    <path d="M136.828 73.5337C130.29 71.3469 123.212 71.3231 116.66 73.4657C115.814 73.7427 115.241 74.524 115.235 75.4072L115.186 89.6113C115.183 90.6411 115.641 91.6193 116.437 92.2808L124.419 98.974C125.716 100.061 127.613 100.067 128.916 98.9885L136.945 92.3512C137.739 91.6955 138.198 90.7252 138.201 89.7011L138.25 75.497C138.256 74.6059 137.681 73.8128 136.828 73.5337ZM137.185 89.6914C137.184 90.4213 136.855 91.113 136.289 91.5795L128.26 98.2168C127.333 98.9869 125.983 98.9869 125.056 98.2168L117.073 91.5139C116.509 91.041 116.186 90.3438 116.192 89.6113L116.241 75.4072C116.242 74.9508 116.538 74.5465 116.976 74.4049C123.322 72.3309 130.177 72.3539 136.509 74.4704C136.948 74.6132 137.244 75.0197 137.244 75.4775L137.185 89.6914Z" fill="#6535FF" />
    <path opacity="0.44" d="M138.2 89.226L138.25 74.9115C138.254 74.0195 137.678 73.225 136.821 72.9403C134.107 72.0384 131.284 71.4964 128.426 71.3286C129.33 72.6149 129.956 74.071 130.264 75.6061C130.671 77.4526 130.741 79.3504 130.81 81.2311C130.888 82.2471 130.842 83.2686 130.671 84.2735C130.16 86.6874 128.282 88.5926 127.377 90.894C126.632 92.7698 126.578 94.8559 126.92 96.8418C127.065 97.6551 127.264 98.4582 127.516 99.2459C127.983 99.1119 128.417 98.8847 128.791 98.5782L136.928 91.8893C137.73 91.2302 138.195 90.2554 138.2 89.226Z" fill="#BBC4EF" />
    <path opacity="0.18" d="M119.223 87.7507L113.752 86.319C113.331 86.319 112.99 85.9985 112.99 85.6032L113.015 82.9927C113.015 82.5974 113.356 82.2769 113.777 82.2769L119.251 83.7086C119.382 83.7093 119.501 83.783 119.552 83.8964C119.604 84.0098 119.58 84.1412 119.49 84.2311L117.53 84.8014C117.413 84.9197 117.413 85.1031 117.53 85.2214L119.477 87.2329C119.565 87.3251 119.587 87.4578 119.532 87.5705C119.476 87.6831 119.355 87.754 119.223 87.7507ZM134.213 83.652L139.685 82.2769C139.889 82.2768 140.085 82.3547 140.228 82.4931C140.371 82.6314 140.45 82.8186 140.446 83.0127L140.421 85.652C140.421 86.0517 140.08 86.3757 139.66 86.3757L134.185 87.7508C134.053 87.7501 133.935 87.6755 133.883 87.5609C133.832 87.4463 133.856 87.3134 133.946 87.2225L135.923 85.2177C136.04 85.0981 136.04 84.9127 135.923 84.7931L133.974 84.1755C133.888 84.0843 133.865 83.9535 133.916 83.8409C133.968 83.7282 134.083 83.6544 134.213 83.652Z" fill="#070707" />
    <path d="M119.218 86.6561L113.751 86.6179C113.33 86.6179 112.99 86.2977 112.99 85.9027L113.02 81.8974C113.02 81.5024 113.361 81.1821 113.781 81.1821L119.251 81.2203C119.382 81.221 119.501 81.2947 119.552 81.408C119.604 81.5212 119.58 81.6526 119.49 81.7424L117.524 83.7093C117.406 83.8275 117.406 84.0108 117.524 84.1289L119.467 86.1387C119.555 86.2302 119.576 86.3616 119.522 86.4737C119.469 86.5859 119.349 86.6574 119.218 86.6561ZM134.218 81.1821L139.685 81.2178C139.89 81.2178 140.086 81.2949 140.229 81.4319C140.372 81.5688 140.45 81.754 140.446 81.9458L140.416 85.9424C140.416 86.3366 140.075 86.6561 139.655 86.6561L134.185 86.618C134.053 86.6173 133.935 86.5438 133.883 86.4308C133.832 86.3177 133.856 86.1867 133.946 86.0971L135.923 84.1201C136.04 84.0022 136.04 83.8193 135.923 83.7014L133.972 81.6936C133.888 81.6025 133.868 81.474 133.92 81.3642C133.973 81.2544 134.089 81.1834 134.218 81.1821Z" fill="#FCCDD3" />
    <path d="M117.162 84.5935L118.949 86.6689C119.032 86.7632 119.054 86.9015 119.002 87.0188C118.951 87.136 118.838 87.2089 118.716 87.2031L113.689 87.1637C113.502 87.1637 113.322 87.0842 113.19 86.9431C113.059 86.8019 112.987 86.6108 112.99 86.4128L113.018 82.2769M139.348 87.2034L134.167 87.1656C134.043 87.1649 133.931 87.0919 133.882 86.9796C133.833 86.8674 133.856 86.7372 133.941 86.6482L135.817 84.6846C135.927 84.5663 135.927 84.3847 135.817 84.2664L133.975 82.2769" stroke="#6535FF" stroke-linecap="round" stroke-linejoin="round" />
    <path d="M117.932 91.0352L125.071 97.0565" stroke="#BBC4EF" stroke-linecap="round" stroke-linejoin="round" />
    <path opacity="0.62" d="M583.537 477.507C602.965 492.15 651.374 474.649 664.731 444.033C675.347 419.699 654.478 408.453 660.412 375.594C667.698 335.2 703.288 329.734 713.077 291.383C722.215 255.577 709.572 214.644 695.551 212.4C680.955 210.068 676.11 251.729 630.593 297.025C598.684 328.781 586.954 322.337 574.398 346.546C558.888 376.472 564.935 409.155 572.671 451.004C575.851 468.029 578.454 473.683 583.537 477.507Z" fill="#E2A3AE" />
    <path opacity="0.62" d="M755.151 311.217C755.89 316.231 759.608 344.653 742.445 371.507C722.541 402.649 698.756 393.848 667.523 423.172C630.393 458.037 632.146 500.412 621.342 499.058C609.312 497.566 593.802 443.494 616.473 409.343C634.987 381.524 661.539 393.045 691.445 363.797C729 327.063 723.83 273.229 737.513 273.631C746.801 273.906 753.311 298.68 755.151 311.217Z" fill="#FCCDD3" />
    <path opacity="0.62" d="M597.157 454.464C593.915 384.395 612.529 354.168 630.381 339.45C644.038 328.229 657.395 326.035 671.165 309.725C690.682 286.594 692.972 256.468 692.009 235.305" stroke="white" stroke-width="2.3" stroke-linecap="round" stroke-linejoin="round" />
    <path opacity="0.62" d="M605.344 403.865C604.468 459.993 603.942 493.429 592.325 496.363C576.552 500.324 536.142 449.763 544.004 405.545C548.773 378.69 568.202 372.021 583.775 324.305C591.624 300.247 591.824 286.193 595.041 286.268C601.814 286.431 606.132 349.956 605.344 403.865Z" fill="#FCCDD3" />
    <path opacity="0.62" d="M583.674 479.475C563.883 450.076 562.781 428.989 565.197 415.386C568.778 395.227 581.033 386.1 589.145 356.763C592.947 342.932 594.78 328.633 594.59 314.288" stroke="white" stroke-width="2.3" stroke-linecap="round" stroke-linejoin="round" />
    <path opacity="0.62" d="M621.192 482.747C620.516 467.979 621.918 446.39 634.962 427.585C650.773 404.793 672.142 402.874 692.659 387.303C710.185 373.989 730.628 348.063 737.726 292.022M729.839 328.781L741.957 316.432M723.88 346.17L722.716 328.844M719.899 356.412L743.196 340.904M708.821 369.764L710.711 353.429M699.745 381.073L727.198 375.732M687.614 391.378L692.559 373.989M670.377 400.706L685.674 401.596M662.265 404.855L667.197 385.435M646.066 415.198L662.34 413.017M636.978 424.463L639.869 405.056" stroke="white" stroke-width="1.15" stroke-linecap="round" stroke-linejoin="round" />
    <path d="M668.496 367.168C675.732 326.78 711.077 321.315 720.799 282.97C729.887 247.17 717.33 206.244 703.394 204" stroke="white" stroke-width="1.63" stroke-linecap="round" stroke-linejoin="round" />
</svg>