<svg width="24" height="24" viewBox="0 0 24 24" fill="none" xmlns="http://www.w3.org/2000/svg">
<path fill-rule="evenodd" clip-rule="evenodd" d="M12 24C18.6274 24 24 18.6274 24 12C24 5.37258 18.6274 0 12 0C5.37258 0 0 5.37258 0 12C0 18.6274 5.37258 24 12 24ZM5 11.3694C5 7.29799 8.4587 4 12.5636 4C16.6719 4 20 7.42522 20 11.4967C20 15.5681 16.6719 18.9933 12.5636 18.9933L5.00335 19L5 11.3694ZM10.6786 15.3806C11.231 15.6417 11.8504 15.7857 12.5 15.7857C14.8672 15.7857 16.7857 13.8672 16.7857 11.5C16.7857 9.13281 14.8672 7.21429 12.5 7.21429C10.1328 7.21429 8.21429 9.13281 8.21429 11.5C8.21429 12.24 8.40179 12.9364 8.72991 13.5424L7.96317 16.0536L10.6786 15.3806Z" fill="#C4CAE8"/>
</svg>
