<?xml version="1.0"?>
<svg xmlns="http://www.w3.org/2000/svg" width="102.9" height="103.8" overflow="visible">
  <path d="M51.9 0C23.7 0 0 22.8 0 51v52.8l51.9-.1c28.2 0 51-23.7 51-51.9S80 0 51.9 0z"/>
  <path d="M52.4 19.7c-11.1 0-21.5 5.9-27.1 15.4s-5.9 21.4-.6 31.2L19 84.7l20.5-4.6c11.8 5.3 25.6 2.9 34.9-6s12.3-22.6 7.4-34.6-16.5-19.8-29.4-19.8z" fill="#fff9ae"/>
  <path d="M77.1 70.9c-9 11.3-24.5 15.1-37.7 9.2l-20.5 4.7 20.9-2.5C53.6 90.5 71.4 86.9 81 74s8.1-30.9-3.6-41.9c8.8 11.5 8.7 27.5-.3 38.8z" fill="#00aeef"/>
  <path d="M75.3 64.9C67.6 77.1 52.5 82.5 38.8 78l-19.9 6.8 20.5-4.7c14.6 6.6 31.9 1.2 40.1-12.6s4.8-31.5-7.9-41.3c9.9 10.6 11.5 26.5 3.7 38.7z" fill="#00a94f"/>
  <path d="M26.5 67.1c-5.7-13.8-1-29.7 11.3-38.2s28.9-7.1 39.7 3.2C67.5 19 49 15.8 35.1 24.7S16.7 51.9 24.6 66.4l-5.7 18.4 7.6-17.7z" fill="#f15d22"/>
  <path d="M24.6 66.4c-7.1-13.1-4.1-29.4 7.3-39.1s27.9-10.1 39.8-1c-11.4-12-30-13.2-42.8-2.8s-15.5 28.8-6.2 42.4l-3.8 18.9 5.7-18.4z" fill="#d0232b"/>
</svg>
