<svg xmlns="http://www.w3.org/2000/svg" width="396" height="324"><g fill="none" fill-rule="evenodd"><path fill="#BBC4EF" fill-rule="nonzero" d="M84.397 150.977c25.762-16.725 41.54-5.425 61.462-21.662 24.27-19.793 11.148-45 31.257-68.699 26.35-31.087 92.356-39.149 123.45-12.68 32.448 27.624 6.373 75.41 47.682 115.722 18.83 18.381 31.332 15.369 40.795 33.293 16.293 30.837 2.626 84.161-27.021 97.755-36.766 16.874-65.798-42.23-127.154-36.462-56.812 5.35-68.305 59.43-112.853 54.43-40.87-4.587-83.069-55.893-76.295-103.042 3.49-24.312 19.853-46.436 38.677-58.655Z"/><path fill="#6535FF" d="M262.31 67.94a38.906 38.906 0 0 0-2.345-3.95 18.976 18.976 0 0 1-3.703-13.234c.1-1.681.113-3.367.038-5.05a11.755 11.755 0 0 0-5.388-10.093 51.482 51.482 0 0 0-6.288-3.573 16.754 16.754 0 0 1-7.79-7.734c-.88-1.777-1.886-3.492-2.904-5.206-2.515-4.199-6.124-6.458-11.097-6.414-2.2 0-4.401-.044-6.608.05a16.77 16.77 0 0 1-10.016-2.816 60.585 60.585 0 0 0-5.81-3.423c-3.935-1.946-7.864-2.046-11.781 0a37.547 37.547 0 0 0-4.22 2.434c-4.042 2.816-8.443 4.3-13.422 3.786a41.636 41.636 0 0 0-5.376 0 11.554 11.554 0 0 0-8.802 3.999 33.956 33.956 0 0 0-4.477 7.283 17.563 17.563 0 0 1-8.305 8.235c-1.698.826-3.339 1.777-4.96 2.747-4.207 2.503-6.414 6.17-6.35 11.113 0 2.19-.07 4.38.056 6.577a16.157 16.157 0 0 1-2.804 9.818 58.819 58.819 0 0 0-3.578 6.063 12.2 12.2 0 0 0-.044 11.189 36.331 36.331 0 0 0 2.76 4.768 18.97 18.97 0 0 1 3.66 13.097 43.483 43.483 0 0 0 0 5.506 11.553 11.553 0 0 0 4.822 9.305c2.137 1.608 4.54 2.76 6.878 4.023 2.339 1.264 4.684 2.754 6.174 5.138 2.364 3.792 4.156 7.947 7.098 11.388-.264.495-.56.976-.773 1.49l-13.348 31.675a4.664 4.664 0 0 0 .88 5.256 4.529 4.529 0 0 0 5.062 1.176c5.47-1.846 10.94-3.692 16.384-5.631.994-.35 1.446-.207 1.886.738 2.408 5.119 4.886 10.212 7.3 15.324.912 1.934 2.276 3.023 4.527 2.998a4.558 4.558 0 0 0 4.501-3.048c2.767-6.564 5.508-13.14 8.274-19.717 1.214-2.89 2.452-5.763 3.773-8.841.308.625.534 1.032.71 1.451 3.814 9.061 7.629 18.12 11.443 27.176.73 1.715 1.943 2.816 3.91 2.966 2.22.163 3.943-.625 4.917-2.634 2.452-5.1 4.892-10.206 7.256-15.35.528-1.15 1.05-1.476 2.307-1.026 5.143 1.877 10.33 3.58 15.486 5.394 2.162.757 4.2.682 5.796-1.057 1.597-1.74 1.478-3.842.554-5.989-2.685-6.22-5.294-12.465-7.941-18.703a8058.123 8058.123 0 0 0-6.998-16.438c1.258-2.328 2.553-4.644 3.773-6.996 1.597-3.06 4.086-5.156 7.117-6.727a88.007 88.007 0 0 0 5.495-3.054c4.18-2.534 6.381-6.2 6.287-11.144-.044-2.553 0-5.1-.044-7.653a13.093 13.093 0 0 1 1.848-6.996c1.258-2.146 2.572-4.292 3.836-6.445 2.546-4.33 2.791-8.748.364-13.222Zm-90.423 67.773c4.615-.288 8.557 1.177 12.31 3.68-3.772-2.503-7.695-3.968-12.31-3.68l-1.314.07 1.314-.07Zm41.377.1Zm6.394-.05h-3.477c1.157-.018 2.32-.012 3.477 0ZM194.27 152.94c-4.137 9.643-8.174 19.33-12.223 29.003-.446 1.058-1.194 1.834-2.408 1.846-1.213.013-2.018-.826-2.514-1.908-2.603-5.476-5.257-10.932-7.784-16.451-.629-1.427-1.358-1.696-2.81-1.183-5.659 2.028-11.393 3.942-17.09 5.926-1.112.388-2.193.67-3.143-.27-.95-.938-.842-2.227-.346-3.416 2.295-5.444 4.615-10.881 6.916-16.332 2.22-5.3 4.401-10.637 6.608-15.93a4.24 4.24 0 0 1 1.943.888c-4.137 9.811-8.27 19.615-12.398 29.41-.164.375-.29.763-.447 1.138-.255.4-.23.916.063 1.29.409.462.905.312 1.415.15 3.062-.983 6.136-1.946 9.198-2.929 3.062-.982 6.042-1.908 9.028-2.947 1.044-.363 1.503-.132 1.987.85 2.704 5.495 5.476 10.951 8.236 16.42.334.657.51 1.584 1.472 1.565.962-.019.987-.914 1.257-1.546 4.028-9.524 8.054-19.047 12.078-28.571.09-.374.314-.703.629-.926a3.56 3.56 0 0 1 .333 3.923Zm52.222 13.529c.49 1.151.76 2.227-.183 3.253-.943 1.027-2.018.92-3.225.501-5.495-1.927-11.009-3.804-16.517-5.694-3.143-1.076-2.558-.926-3.734 1.495-2.515 5.181-4.955 10.4-7.413 15.606-.547 1.164-1.257 2.197-2.678 2.16-1.421-.038-2.031-1.108-2.515-2.31a27913.82 27913.82 0 0 0-15.982-38.014 8.44 8.44 0 0 1 2.383.05c.078.393.186.78.32 1.158 4.753 11.305 9.513 22.61 14.279 33.915.245.57.358 1.32 1.257 1.327.9.006 1.063-.676 1.358-1.252 2.754-5.469 5.533-10.919 8.224-16.413.534-1.089 1.012-1.339 2.194-.951 5.91 1.965 11.851 3.83 17.787 5.732.572.181 1.175.544 1.703-.038.529-.582.139-1.176-.081-1.72-.629-1.559-1.295-3.098-1.943-4.65l-11.355-27.032c.452-.576 1-1.07 1.622-1.458.258-.357.497-.732.767-1.089-.27.357-.503.732-.767 1.09 4.837 11.442 9.67 22.887 14.499 34.334Z" opacity=".68"/><path fill="#FFF" d="M171.479 129.669a3.728 3.728 0 0 0-1.76-1.256c-2.936-3.454-4.728-7.623-7.098-11.435-1.484-2.386-3.772-3.843-6.174-5.149-2.401-1.306-4.74-2.43-6.871-4.043a11.606 11.606 0 0 1-4.822-9.332 43.778 43.778 0 0 1 0-5.525 19.06 19.06 0 0 0-3.659-13.15 35.976 35.976 0 0 1-2.753-4.778 12.263 12.263 0 0 1 .037-11.227 60.026 60.026 0 0 1 3.577-6.085 16.193 16.193 0 0 0 2.804-9.852c-.125-2.198 0-4.396-.056-6.606-.057-4.954 2.15-8.628 6.35-11.146 1.628-.973 3.268-1.927 4.966-2.756a17.643 17.643 0 0 0 8.311-8.29 33.411 33.411 0 0 1 4.476-7.302 11.498 11.498 0 0 1 8.802-4.019 40.39 40.39 0 0 1 5.375 0c5.03.515 9.373-.973 13.422-3.767a37.43 37.43 0 0 1 4.244-2.455c3.923-2.048 7.845-1.94 11.78 0a60.69 60.69 0 0 1 5.816 3.44 16.68 16.68 0 0 0 10.015 2.82c2.2-.094 4.4 0 6.607-.05 4.973-.044 8.607 2.229 11.09 6.442 1.012 1.715 2.025 3.441 2.911 5.225a16.826 16.826 0 0 0 7.783 7.761 52.227 52.227 0 0 1 6.255 3.58 11.801 11.801 0 0 1 5.388 10.134c.08 1.686.07 3.376-.031 5.061a19.073 19.073 0 0 0 3.696 13.287 38.507 38.507 0 0 1 2.345 3.956c2.433 4.49 2.188 8.923-.358 13.28-1.258 2.167-2.553 4.315-3.835 6.469a13.137 13.137 0 0 0-1.817 7.026c.031 2.556 0 5.118.044 7.673.082 4.967-2.119 8.647-6.287 11.19a95.881 95.881 0 0 1-5.5 3.065 15.872 15.872 0 0 0-7.117 6.75c-1.226 2.355-2.515 4.684-3.772 7.02a7.248 7.248 0 0 0-1.61 1.94 6.108 6.108 0 0 0-1.622 1.463c-2.74 1.84-5.802 2.318-9.034 2.204-2.3-.075-4.602 0-6.915 0a11.265 11.265 0 0 0-4.608.93c-4.552 1.997-8.368 5.406-13.203 6.838a8.182 8.182 0 0 0-2.382-.044c-3.867-.082-7.004-2.047-10.059-4.082-3.772-2.511-7.695-3.974-12.316-3.692-3.489.22-7.028.308-10.486-.596a4.284 4.284 0 0 0-1.943-.898"/><path fill="#FCCDD3" d="M244.533 126c2.305 5.499 4.613 10.997 6.924 16.496 2.619 6.276 5.2 12.553 7.857 18.761.914 2.147 1.082 4.212-.542 6.007-1.623 1.795-3.595 1.82-5.735 1.055-5.102-1.814-10.234-3.553-15.323-5.405-1.244-.458-1.76-.125-2.283 1.03-2.345 5.153-4.759 10.275-7.179 15.39-.97 2.047-2.668 2.806-4.864 2.643-1.948-.144-3.154-1.255-3.87-2.975-3.782-9.08-7.558-18.165-11.328-27.254-.174-.42-.392-.823-.703-1.463-1.3 3.095-2.526 5.976-3.733 8.87-2.73 6.596-5.443 13.18-8.187 19.784a4.511 4.511 0 0 1-4.454 3.057c-2.22 0-3.57-1.067-4.473-3.007-2.395-5.134-4.846-10.237-7.222-15.372-.442-.954-.89-1.098-1.867-.747-5.38 1.934-10.793 3.766-16.205 5.65a4.446 4.446 0 0 1-5.027-1.174 4.727 4.727 0 0 1-.877-5.273A9651.3 9651.3 0 0 0 168.65 130.3c.218-.515.51-.998.765-1.494a3.69 3.69 0 0 1 1.742 1.255c-2.177 5.33-4.354 10.67-6.538 15.987-2.258 5.467-4.554 10.916-6.843 16.377-.498 1.192-.666 2.41.342 3.433 1.008 1.023 1.99.628 3.11.27 5.6-1.996 11.292-3.91 16.91-5.944 1.43-.521 2.133-.245 2.78 1.186 2.488 5.53 5.126 11.003 7.695 16.502.51 1.086 1.245 1.933 2.489 1.914a2.599 2.599 0 0 0 2.376-1.883c4.025-9.697 8.007-19.414 12.1-29.087a3.636 3.636 0 0 0-.36-3.916 1.55 1.55 0 0 0-.623.929c-3.981 9.553-7.965 19.104-11.95 28.653-.268.628-.349 1.538-1.245 1.557-.895.019-1.12-.916-1.45-1.575-2.73-5.48-5.48-10.954-8.149-16.47-.479-.986-.933-1.219-1.965-.855-2.962 1.049-5.954 1.99-8.934 2.963-2.98.973-6.071 1.946-9.101 2.938-.51.163-.995.307-1.406-.15a1.15 1.15 0 0 1-.062-1.294c.155-.383.286-.766.442-1.142 4.085-9.842 8.174-19.676 12.267-29.502 3.422.904 6.924.816 10.377.597 4.572-.283 8.473 1.186 12.187 3.69 3.01 2.034 6.115 3.999 9.953 4.08a43382.498 43382.498 0 0 1 15.795 38.145c.498 1.205 1.077 2.272 2.489 2.31 1.412.037 2.109-.992 2.656-2.16 2.432-5.228 4.846-10.457 7.335-15.654 1.157-2.429.584-2.586 3.695-1.506 5.45 1.883 10.899 3.766 16.342 5.712 1.195.426 2.265.514 3.185-.503.921-1.016.672-2.102.187-3.264-4.79-11.474-9.56-22.956-14.308-34.447.414-.734.95-1.39 1.586-1.94"/><path fill="#FCCDD3" d="m241.47 129.019 11.251 27.42c.623 1.567 1.309 3.128 1.926 4.715.218.552.623 1.162.087 1.74-.536.577-1.128.228-1.695.037-5.878-1.904-11.774-3.808-17.633-5.807-1.165-.4-1.645-.14-2.169.958-2.668 5.58-5.423 11.108-8.159 16.649-.287.59-.474 1.269-1.34 1.269-.866 0-1.022-.762-1.246-1.34a9799.046 9799.046 0 0 1-14.168-34.407 9.013 9.013 0 0 1-.324-1.174c4.806-1.447 8.589-4.893 13.09-6.912a10.984 10.984 0 0 1 4.568-.94c2.281 0 4.562-.056 6.856 0 3.204.115 6.233-.374 8.957-2.227"/><path fill="#6534FF" d="M161 70.103c0-3.867.043-7.74 0-11.607 0-1.12.23-1.518 1.406-1.493 3.427.082 6.86 0 10.292 0a5.015 5.015 0 0 1 3.655 1.414 5.234 5.234 0 0 1 1.587 3.649c.08 2.215.08 4.43 0 6.65-.08 2.77-2.288 4.98-5 5.007-2.318.057-4.641.082-6.965 0-1.17-.045-1.45.38-1.412 1.506.074 2.265.055 4.537 0 6.803-.031.962-.39 1.842-1.562 1.95a1.679 1.679 0 0 1-1.858-1.216 3.618 3.618 0 0 1-.081-1.221V70.096m3.42-4.759v3.86c0 .741.155 1.14 1.004 1.121 2.36-.038 4.733 0 7.1 0a1.836 1.836 0 0 0 1.46-.53 1.92 1.92 0 0 0 .56-1.476 79.355 79.355 0 0 0 0-5.696 1.922 1.922 0 0 0-.56-1.565 1.834 1.834 0 0 0-1.553-.51c-2.267 0-4.535.037-6.815 0-.936 0-1.24.367-1.24 1.265.05 1.177 0 2.367 0 3.55m37.742 1.911c-1.303-2.64-2.606-5.292-4.013-7.9a4.617 4.617 0 0 0-2.866-2.285l-.15-.038h-.117l-.215-.044h-1.668l-.215.044h-.117l-.15.038a4.617 4.617 0 0 0-2.866 2.285c-1.387 2.608-2.69 5.26-3.993 7.9a6.948 6.948 0 0 0-.052 6.413c1.192 2.475 2.462 4.905 3.687 7.368.925 1.86 2.306 3.013 4.56 2.95 2.254.063 3.635-1.09 4.56-2.95 1.224-2.463 2.494-4.893 3.686-7.368a6.948 6.948 0 0 0-.071-6.413zm-8.195 13.23c-.6 0-.866-.506-1.114-.981-1.205-2.349-2.43-4.69-3.64-7.04a7.354 7.354 0 0 1-.15-.328 4.32 4.32 0 0 1-.326-1.836c.039-.272.071-.55.13-.817.05-.168.11-.333.182-.493 1.303-2.583 2.56-5.16 3.909-7.698.286-.531.651-.81 1.022-.822.372-.013.736.29 1.023.822 1.361 2.532 2.645 5.115 3.908 7.698.074.17.135.346.183.525.058.266.09.544.13.817a4.32 4.32 0 0 1-.326 1.835 7.354 7.354 0 0 1-.15.33c-1.211 2.348-2.436 4.69-3.64 7.039-.248.474-.515.955-1.115.98l-.026-.031z"/><path fill="#6534FF" d="M171.479 129.669a3.728 3.728 0 0 0-1.76-1.256c-2.936-3.454-4.728-7.623-7.098-11.435-1.484-2.386-3.772-3.843-6.174-5.149-2.401-1.306-4.74-2.43-6.871-4.043a11.606 11.606 0 0 1-4.822-9.332 43.778 43.778 0 0 1 0-5.525 19.06 19.06 0 0 0-3.659-13.15 35.976 35.976 0 0 1-2.753-4.778 12.263 12.263 0 0 1 .037-11.227 60.026 60.026 0 0 1 3.577-6.085 16.193 16.193 0 0 0 2.804-9.852c-.125-2.198 0-4.396-.056-6.606-.057-4.954 2.15-8.628 6.35-11.146 1.628-.973 3.268-1.927 4.966-2.756a17.643 17.643 0 0 0 8.311-8.29 33.411 33.411 0 0 1 4.476-7.302 11.498 11.498 0 0 1 8.802-4.019 40.39 40.39 0 0 1 5.375 0c5.03.515 9.373-.973 13.422-3.767a37.43 37.43 0 0 1 4.244-2.455c3.923-2.048 7.845-1.94 11.78 0a60.69 60.69 0 0 1 5.816 3.44 16.68 16.68 0 0 0 10.015 2.82c2.2-.094 4.4 0 6.607-.05 4.973-.044 8.607 2.229 11.09 6.442 1.012 1.715 2.025 3.441 2.911 5.225a16.826 16.826 0 0 0 7.783 7.761 52.227 52.227 0 0 1 6.255 3.58 11.801 11.801 0 0 1 5.388 10.134c.08 1.686.07 3.376-.031 5.061a19.073 19.073 0 0 0 3.696 13.287 38.507 38.507 0 0 1 2.345 3.956c2.433 4.49 2.188 8.923-.358 13.28-1.258 2.167-2.553 4.315-3.835 6.469a13.137 13.137 0 0 0-1.817 7.026c.031 2.556 0 5.118.044 7.673.082 4.967-2.119 8.647-6.287 11.19a95.881 95.881 0 0 1-5.5 3.065 15.872 15.872 0 0 0-7.117 6.75c-1.226 2.355-2.515 4.684-3.772 7.02a7.248 7.248 0 0 0-1.61 1.94 6.108 6.108 0 0 0-1.622 1.463c-2.74 1.84-5.802 2.318-9.034 2.204-2.3-.075-4.602 0-6.915 0a11.265 11.265 0 0 0-4.608.93c-4.552 1.997-8.368 5.406-13.203 6.838a8.182 8.182 0 0 0-2.382-.044c-3.867-.082-7.004-2.047-10.059-4.082-3.772-2.511-7.695-3.974-12.316-3.692-3.489.22-7.028.308-10.486-.596a4.284 4.284 0 0 0-1.943-.898M183.663 10.48c-2.484 0-4.18-.069-5.866 0-3.068.157-5.626 1.3-7.45 3.912a51.061 51.061 0 0 0-3.696 6.361 19.477 19.477 0 0 1-8.865 8.835c-1.735.873-3.4 1.884-5.092 2.832-3.54 2.003-5.199 5.074-5.167 9.105 0 2.612 0 5.225.044 7.83.05 2.831-.7 5.62-2.163 8.044-1.17 1.978-2.339 3.963-3.558 5.915-2.515 4.038-2.635 8.063-.038 12.113.629.948 1.1 1.972 1.76 2.882a20.704 20.704 0 0 1 4.017 14.311c-.138 1.626-.062 3.278-.05 4.917.032 3.491 1.257 6.398 4.281 8.345a28.298 28.298 0 0 0 3.565 2.097c5.614 2.512 9.82 6.38 12.322 12.05a35.09 35.09 0 0 0 1.886 3.353c2 3.467 5.067 5.068 9.022 5.068 2.71 0 5.425 0 8.14-.038 2.819.005 5.581.785 7.985 2.254a295.216 295.216 0 0 1 5.922 3.554c3.904 2.43 7.796 2.462 11.706.032 1.477-.917 3.005-1.758 4.457-2.707a17.901 17.901 0 0 1 11.015-3.14c2.194.126 4.4.051 6.607.057 4.017 0 7.123-1.6 9.129-5.142.961-1.696 1.967-3.36 2.835-5.093a19.226 19.226 0 0 1 8.801-8.866c1.786-.886 3.515-1.884 5.23-2.914 2.78-1.658 4.647-3.943 4.961-7.31.296-3.139.094-6.234.082-9.355-.03-3.101.82-6.147 2.452-8.785 1.194-1.965 2.363-3.95 3.552-5.921 2.2-3.649 2.313-7.335.15-11.04-.949-1.632-1.885-3.265-2.935-4.853a18.132 18.132 0 0 1-3.188-11.152c.132-2.248.082-4.503.05-6.757-.05-3.422-1.257-6.28-4.205-8.238a63.517 63.517 0 0 0-6.268-3.53 19.188 19.188 0 0 1-8.55-8.527c-.962-1.884-2.006-3.68-3.068-5.488-1.647-2.813-4.03-4.603-7.35-4.91-1.257-.113-2.558-.07-3.84-.094-2.76-.05-5.54.226-8.286-.145-3.395-.465-6.287-2.179-8.972-4.144-5.702-4.207-11.209-4.264-16.911 0-4.495 3.347-9.524 5.168-14.46 4.32"/><path fill="#6534FF" d="M235.046 70.051c0-3.869.046-7.737-.033-11.606 0-1.196.374-1.469 1.54-1.443 3.632.07 7.263 0 10.894 0a5.473 5.473 0 0 1 3.85 1.444 5.105 5.105 0 0 1 1.649 3.659 97.772 97.772 0 0 1 0 6.503c-.036 2.828-2.414 5.105-5.342 5.115-2.51.051-5.02.045-7.524 0-.977 0-1.311.285-1.311 1.267.059 2.216.052 4.432 0 6.654-.033 1.184-.275 2.375-1.888 2.356-1.416 0-1.887-.893-1.88-2.172V70.064m3.61-4.648c0 1.267.033 2.571 0 3.856 0 .817.309 1.077 1.128 1.064h7.347a2.01 2.01 0 0 0 1.647-.508c.439-.406.658-.985.595-1.569.059-1.9.079-3.799 0-5.698-.06-1.317-.826-2.039-2.294-2.014-2.34.038-4.686.045-7.026 0-1.05 0-1.436.342-1.383 1.349.059 1.178 0 2.368 0 3.552m-10.728 16.25c-2.188-7.809-4.414-15.612-6.627-23.415-.342-1.202-1.244-1.443-2.276-1.196-.845.209-1.07 1.02-1.287 1.772-1.417 4.881-2.839 9.76-4.265 14.638-.777 2.658-1.591 5.31-2.325 7.98-.298 1.101-.068 2.126 1.181 2.443 1.095.278 1.866-.165 2.14-1.367.273-1.203.702-2.253.988-3.399.036-.331.205-.633.468-.832.263-.199.596-.278.918-.218 1.774.042 3.546.042 5.316 0 .833 0 1.293.202 1.467 1.12.247 1.104.556 2.192.926 3.26.255.828.672 1.518 1.68 1.499a1.66 1.66 0 0 0 1.46-.67c.344-.463.433-1.07.236-1.615zm-5.688-6.613h-5.434a.42.42 0 0 1-.34-.179.437.437 0 0 1-.058-.384l2.76-8.474a.44.44 0 0 1 .218-.253.446.446 0 0 1 .273 0h.087v.044a.455.455 0 0 1 .175.235l2.667 8.467a.43.43 0 0 1-.05.355.416.416 0 0 1-.298.19z"/><path fill="#62BCF9" fill-rule="nonzero" d="M273.403 314.564c12.834 9.578 44.8-1.873 53.62-21.91 7.008-15.928-6.77-23.283-2.856-44.793 4.819-26.436 28.31-30.014 34.784-55.114 6.04-23.433-2.31-50.219-11.55-51.686-9.645-1.524-12.847 25.743-42.907 55.383-21.075 20.785-28.82 16.57-37.118 32.417-10.242 19.581-6.253 40.972-1.138 68.364 2.082 11.133 3.812 14.835 7.165 17.339Z"/><path fill="#52D2BC" fill-rule="nonzero" d="M143.644 197.021c2.463 2.627 3.75 5.987 4.875 9.385 1.55 4.594 2.082 9.619.625 14.308-4.706 15.187-28.026 21.813-44.94 18.415-17.262-3.468-18.694-15.542-34.244-16.25-14.914-.684-17.764 10.225-33.177 9.75-11.713-.379-26.789-7.182-33.17-21.667-6.382-14.485-3.681-33.5 3.206-35.754 7.038-2.303 11.557 15.188 27.827 18.415 15 2.993 19.288-10.302 36.382-8.663 17.564 1.677 23.445 16.7 36.383 12.998 4.263-1.221 6.932-4.474 10.588-6.714 4.507-2.76 10.12-2.399 15-.86.597.185 1.184.396 1.763.632a25.31 25.31 0 0 1 8.682 5.822l.2.183Z"/><path fill="#3E1EC4" fill-rule="nonzero" d="M162 225.544v-27.088a6.946 6.946 0 0 0-3.428-6.016l-23.147-13.512a6.772 6.772 0 0 0-6.844 0l-23.146 13.531a6.945 6.945 0 0 0-3.435 6.016v27.088a6.945 6.945 0 0 0 3.435 6.015l23.127 13.494a6.772 6.772 0 0 0 6.845 0l23.146-13.525a6.945 6.945 0 0 0 3.447-6.003Z" opacity=".32"/><path fill="#F9879A" fill-rule="nonzero" d="M163 223.527v-27.054a6.944 6.944 0 0 0-3.436-6.015l-23.128-13.53a6.779 6.779 0 0 0-6.848 0l-23.158 13.53a6.944 6.944 0 0 0-3.43 6.015v27.054a6.944 6.944 0 0 0 3.43 6.015l23.158 13.53a6.779 6.779 0 0 0 6.848 0l23.159-13.53a6.945 6.945 0 0 0 3.405-6.015Z"/><path stroke="#FFF" stroke-linecap="round" stroke-linejoin="round" stroke-width="1.51" d="M162 195.25a6.857 6.857 0 0 0-3.435-5.951l-23.146-13.38a6.835 6.835 0 0 0-6.844 0l-23.147 13.38A6.857 6.857 0 0 0 102 195.25v26.798a6.857 6.857 0 0 0 3.428 5.952"/><path fill="#FFF" fill-rule="nonzero" d="m152.186 214.87 2.814-4.873-2.814-4.873v-5.629l-4.873-2.808-2.815-4.879h-5.628L133.997 189l-4.873 2.808h-5.629l-2.808 4.879-4.873 2.808v5.629L113 209.997l2.814 4.873v5.628l4.873 2.815 2.808 4.873h5.629l4.873 2.814 4.873-2.814h5.628l2.815-4.873 4.873-2.815z"/><path stroke="#6535FF" stroke-linecap="round" stroke-linejoin="round" stroke-width="1.51" d="m151 198.452-4.85-2.801-2.801-4.85h-5.595l-4.85-2.801-4.85 2.801h-5.602l-2.801 4.85-4.85 2.801v5.595l-2.801 4.85 2.801 4.85v5.602l4.85 2.801 2.801 4.85h5.602"/><circle cx="134" cy="209" r="8" fill="#62BCF9" fill-rule="nonzero"/><path stroke="#6535FF" stroke-linecap="round" stroke-linejoin="round" stroke-width="1.51" d="M129.954 216a7.843 7.843 0 0 1-2.852-7.384 7.884 7.884 0 0 1 5.047-6.117 7.97 7.97 0 0 1 7.851 1.325"/><path fill="#6534FF" fill-rule="nonzero" d="m161.48 190.423-23.86-13.546a7.154 7.154 0 0 0-2.666-.877 13.535 13.535 0 0 0-1.086 3.298c-.732 3.866.051 7.852 1.163 11.63 1.11 3.777 2.569 7.473 3.211 11.352a28.574 28.574 0 0 1-1.818 15.766c-2.742 6.47-7.797 11.92-9.724 18.68a20.895 20.895 0 0 0-.7 3.784l4.496 2.56a7.178 7.178 0 0 0 7.065 0l23.894-13.546c2.195-1.239 3.548-3.536 3.545-6.023v-27.055c.008-2.481-1.334-4.778-3.52-6.023Z" opacity=".32"/><path stroke="#FFF" stroke-linecap="round" stroke-linejoin="round" stroke-width="1.51" d="m137 240 22-13"/><path stroke="#6534FF" stroke-linecap="round" stroke-linejoin="round" stroke-width="2.29" d="M116 307c-40.862-4.624-83.053-56.343-76.28-103.872C43.21 178.62 59.57 156.317 78.39 144M306 37c32.664 27.69 6.416 75.592 48 116"/><path fill="#62BCF9" fill-rule="nonzero" d="M100 303h50v7h-50zM100 317h33v7h-33zM60 141h33v7H60zM60 129h33v7H60z"/><path fill="#6534FF" fill-rule="nonzero" d="M361 267h33v7h-33z"/><path fill="#62BCF9" fill-rule="nonzero" d="M60 116h33v7H60z"/><path fill="#3E1EC4" fill-rule="nonzero" d="M383 154.92a6.133 6.133 0 0 0-6.102-6.146h-.319a2.87 2.87 0 0 0 .3-.106 6.121 6.121 0 0 0-4.526-11.367 6.14 6.14 0 0 0-1.713-9.697 4.607 4.607 0 0 0-.794-.325 6.151 6.151 0 0 0-6.252 1.488c-.075.075-.137.15-.212.231a6.125 6.125 0 1 0-11.122-5.12 6.12 6.12 0 0 0-12.235.112v.325c-.038-.1-.069-.206-.113-.306a6.146 6.146 0 0 0-9.684-2.289 4.539 4.539 0 0 0-.625.626 6.146 6.146 0 0 0-1.081 6.252 6.145 6.145 0 0 0-6.152-1.407c-.273.08-.536.187-.788.319a6.146 6.146 0 0 0-1.632 9.822l.238.22a4.11 4.11 0 0 0-.288-.145 6.125 6.125 0 1 0-4.839 11.254 6.121 6.121 0 0 0 .12 12.242h.318l-.306.107a6.127 6.127 0 0 0 2.438 11.673 6.214 6.214 0 0 0 2.207-.413 6.14 6.14 0 0 0 1.682 9.729c.254.13.52.24.794.325a6.164 6.164 0 0 0 6.251-1.488l.22-.244c-.05.1-.1.194-.145.294a6.153 6.153 0 0 0 .744 6.014c.256.354.554.675.888.957l-7.502 15.706a1.075 1.075 0 0 0 1.25 1.5l8.046-2.213a1.069 1.069 0 0 1 1.25.588l3.614 7.884a1.075 1.075 0 0 0 1.945 0l7.07-14.793 6.959 14.855a1.075 1.075 0 0 0 1.944 0l3.67-7.865c.225-.467.75-.708 1.25-.575l8.034 2.27a1.075 1.075 0 0 0 1.25-1.495l-7.377-15.712.175-.138c.228-.187.438-.397.625-.625a6.14 6.14 0 0 0 1.076-6.208 6.139 6.139 0 0 0 6.151 1.406c.27-.086.531-.194.782-.325a6.14 6.14 0 0 0 1.638-9.816c-.081-.081-.163-.144-.238-.219.094.044.188.1.288.138 1.5.63 3.19.63 4.689 0a6.083 6.083 0 0 0 3.313-3.314 6.127 6.127 0 0 0-3.15-7.896 6.12 6.12 0 0 0 5.976-6.09Z" opacity=".32"/><path fill="#FCCDD3" fill-rule="nonzero" d="m370.659 204.23-7.922-2.255a1.05 1.05 0 0 0-1.233.573l-3.625 7.838a1.06 1.06 0 0 1-.958.614 1.06 1.06 0 0 1-.959-.614l-9.863-21.185a1.083 1.083 0 0 1 .511-1.426l14.062-6.674c.254-.12.545-.134.81-.037.263.097.478.297.595.554l9.82 21.13c.179.377.121.825-.146 1.145-.267.32-.694.451-1.092.337Z"/><path fill="#FCCDD3" fill-rule="nonzero" d="m327.335 204.148 7.909-2.204a1.059 1.059 0 0 1 1.23.585l3.55 7.858c.176.374.548.613.956.613.41 0 .781-.239.956-.613l9.961-21.101c.25-.533.028-1.171-.497-1.426l-13.931-6.756a1.05 1.05 0 0 0-1.408.504l-9.96 21.052c-.176.378-.118.825.147 1.144.265.32.69.454 1.087.344Z"/><path fill="#6534FF" fill-rule="nonzero" d="M351.365 188.121 348.863 187c.155 2.38-.856 4.697-2.744 6.289-1.474 1.232-3.367 1.91-4.912 3.08a18.37 18.37 0 0 0-3.471 3.695 9.284 9.284 0 0 0-1.422 2.254 5.34 5.34 0 0 0-.314 1.423l3.242 6.652c.186.37.583.607 1.018.607.436 0 .833-.236 1.019-.607l10.617-20.874c.258-.524.022-1.146-.531-1.398zm11.336-6.495c-.177-.428-.597-.679-1.03-.617a15.429 15.429 0 0 0 0 2.127 52.644 52.644 0 0 1-.426 8.57c-.179 1.332-.409 2.713-.075 4.013.662 2.59 3.212 3.952 5.221 5.549a15.987 15.987 0 0 1 2.06 2.01l2.303.684a.946.946 0 0 0 1.015-.338c.248-.316.301-.757.136-1.13l-9.204-20.868z" opacity=".32"/><path fill="#6534FF" fill-rule="nonzero" d="M358.975 172.063a7.806 7.806 0 0 0-5.856 2.675 7.487 7.487 0 0 0-6.469-.316 7.79 7.79 0 0 0-5.569-2.422c-4.443 0-8.062 3.817-8.08 8.554-.02 4.738 3.574 8.592 8.024 8.61a7.57 7.57 0 0 0 2.925-.586 7.696 7.696 0 0 0 5.768 2.42 7.702 7.702 0 0 0 5.657-2.672 7.52 7.52 0 0 0 3.544.896c4.45 0 8.068-3.785 8.081-8.548.012-4.763-3.575-8.592-8.025-8.61Z" opacity=".32"/><path fill="#F9879A" fill-rule="nonzero" d="M387 153.111c.007-3.394-2.73-6.152-6.117-6.166h-.32l.301-.107a6.152 6.152 0 0 0 3.237-7.905 6.133 6.133 0 0 0-7.775-3.51 6.18 6.18 0 0 0-1.717-9.784 4.59 4.59 0 0 0-.796-.32 6.147 6.147 0 0 0-6.268 1.494c-.075.07-.138.15-.207.226.044-.094.088-.182.126-.282a6.155 6.155 0 0 0-3.219-8.079 6.135 6.135 0 0 0-8.063 3.225 6.141 6.141 0 0 0-6.188-5.903 6.142 6.142 0 0 0-6.078 6.016v.326c-.037-.1-.069-.207-.113-.307a6.146 6.146 0 0 0-9.709-2.298 4.555 4.555 0 0 0-.626.627 6.175 6.175 0 0 0-1.084 6.242 6.165 6.165 0 0 0-6.167-1.413 6.165 6.165 0 0 0-4.122 4.837 6.174 6.174 0 0 0 1.696 5.348c.075.082.163.15.238.22l-.288-.138a6.136 6.136 0 0 0-8.067 3.221 6.156 6.156 0 0 0 3.216 8.082 6.142 6.142 0 0 0-5.89 6.202 6.142 6.142 0 0 0 6.009 6.086h.32l-.301.107a6.158 6.158 0 0 0-3.329 8.031 6.136 6.136 0 0 0 5.641 3.8 5.944 5.944 0 0 0 2.207-.415 6.18 6.18 0 0 0 1.717 9.783c.255.131.521.238.796.32a6.16 6.16 0 0 0 6.267-1.494c.076-.076.145-.157.22-.239a3.142 3.142 0 0 0-.138.295 6.17 6.17 0 0 0 .74 6.04c.337.464.743.872 1.203 1.213a6.14 6.14 0 0 0 5.24 1.058 6.152 6.152 0 0 0 4.086-3.45 6.141 6.141 0 0 0 6.19 5.9 6.142 6.142 0 0 0 6.076-6.02v-.326c.037.1.069.207.113.307a6.136 6.136 0 0 0 5.64 3.8 6.26 6.26 0 0 0 4.068-1.508c.228-.19.437-.4.627-.628a6.182 6.182 0 0 0 1.078-6.241 6.153 6.153 0 0 0 6.167 1.412c.271-.081.533-.188.784-.32a6.18 6.18 0 0 0 1.642-9.865c-.075-.075-.163-.144-.238-.213l.288.138a6.138 6.138 0 0 0 8.023-3.322 6.158 6.158 0 0 0-3.172-7.968A6.148 6.148 0 0 0 387 153.11Z"/><path stroke="#6535FF" stroke-linecap="round" stroke-linejoin="round" stroke-width="2.15" d="M385 153.33c.007-3.414-2.743-6.19-6.148-6.208h-.328c.108-.037.208-.069.31-.113a6.187 6.187 0 0 0 3.283-7.966 6.162 6.162 0 0 0-7.85-3.514 6.205 6.205 0 0 0-1.72-9.832 5.196 5.196 0 0 0-.8-.328 6.2 6.2 0 0 0-6.3 1.503c-.075.075-.144.158-.214.233.044-.094.095-.19.133-.284 1.346-3.138-.1-6.777-3.232-8.127a6.165 6.165 0 0 0-8.107 3.24c-.134-3.338-2.889-5.966-6.221-5.934-3.333.033-6.037 2.714-6.106 6.054v.322a2.903 2.903 0 0 0-.107-.303 6.19 6.19 0 0 0-4.292-3.66 6.175 6.175 0 0 0-5.472 1.349c-.229.19-.44.402-.63.631a6.219 6.219 0 0 0-1.09 6.283 6.187 6.187 0 0 0-6.204-1.42 5.032 5.032 0 0 0-.788.321 6.217 6.217 0 0 0-1.644 9.92l.24.221a6.157 6.157 0 0 0-6.423.589 6.192 6.192 0 0 0 1.258 10.639 6.177 6.177 0 0 0-5.547 6.261 6.175 6.175 0 0 0 5.767 6.058h.328c-.108.038-.208.07-.31.114-3.146 1.306-4.642 4.92-3.344 8.076h0a6.192 6.192 0 0 0 5.67 3.82 6.248 6.248 0 0 0 2.223-.416 6.205 6.205 0 0 0 1.732 9.813c.254.134.52.244.794.328"/><circle cx="349.5" cy="154.5" r="28.5" fill="#BBC4EF" fill-rule="nonzero" opacity=".32"/><path stroke="#BBC4EF" stroke-linecap="round" stroke-linejoin="round" stroke-width="2.15" d="M323 144c2.724-8.383 9.246-14.946 17.549-17.66A27.067 27.067 0 0 1 365 130.27"/><path fill="#6534FF" fill-rule="nonzero" d="M387 153.773c.007-3.42-2.774-6.199-6.216-6.213h-.324l.305-.107c3.078-1.34 4.533-4.863 3.29-7.964-1.244-3.102-4.738-4.667-7.9-3.538a6.192 6.192 0 0 0 1.632-5.366 6.224 6.224 0 0 0-3.377-4.49 4.686 4.686 0 0 0-.81-.324 6.283 6.283 0 0 0-6.368 1.506c-.076.07-.14.152-.21.228.045-.095.09-.184.128-.285.427-1.017.57-2.13.414-3.22a12.823 12.823 0 0 0-2.65 4.587c-.528 1.727-.592 3.555-.853 5.34a24.402 24.402 0 0 1-4.006 10.249c-3.407 4.985-8.693 8.762-10.884 14.386-1.815 4.657-1.21 9.838-1.159 14.83A64.69 64.69 0 0 1 346 190.075a6.257 6.257 0 0 0 6.3.145 6.175 6.175 0 0 0 3.195-5.396v-.329c.039.102.07.21.115.31a6.235 6.235 0 0 0 5.732 3.828 6.393 6.393 0 0 0 4.133-1.518c.23-.192.444-.404.637-.633a6.187 6.187 0 0 0 1.095-6.289 6.29 6.29 0 0 0 6.266 1.424c.275-.083.542-.19.796-.323a6.223 6.223 0 0 0 3.39-4.546 6.193 6.193 0 0 0-1.721-5.393c-.076-.076-.166-.146-.242-.215l.293.139c3.181 1.31 6.83-.188 8.152-3.347 1.29-3.101-.139-6.66-3.223-8.028 3.358-.085 6.045-2.794 6.082-6.13Z" opacity=".1"/><path fill="#6534FF" fill-rule="nonzero" d="M240.494 301a8.536 8.536 0 0 1-5.417-1.944l-27.051-22.374a8.222 8.222 0 0 1-3.026-6.348v-47.682c0-1.53.997-2.888 2.472-3.369a105.878 105.878 0 0 1 66.056 0 3.554 3.554 0 0 1 2.472 3.369v47.682a8.24 8.24 0 0 1-3.007 6.354l-27.051 22.374a8.537 8.537 0 0 1-5.448 1.938Z"/><path fill="#FCCDD3" fill-rule="nonzero" stroke="#6535FF" stroke-linecap="round" stroke-linejoin="round" stroke-width=".41" d="M245.362 266.995 234 260l11.2 16 11.8-15.576z"/><path fill="#FCCDD3" fill-rule="nonzero" stroke="#6535FF" stroke-linecap="round" stroke-linejoin="round" stroke-width=".41" d="M234.019 256.265h.063L245.487 263l11.437-6.316.063.007-.038-.019.051-.026L245.962 237 234 256.22l.057.032z"/><path fill="#FCCDD3" fill-rule="nonzero" d="M277.378 221.354a103.646 103.646 0 0 0-65.763 0A6.766 6.766 0 0 0 207 227.78v46.822c0 3.376 1.49 6.578 4.068 8.75l26.1 21.974a11.381 11.381 0 0 0 14.658 0l26.106-21.975a11.457 11.457 0 0 0 4.068-8.75v-46.84a6.772 6.772 0 0 0-4.622-6.407Zm1.348 53.248a8.133 8.133 0 0 1-2.903 6.237l-26.1 21.974a8.12 8.12 0 0 1-10.452 0l-26.1-21.974a8.145 8.145 0 0 1-2.903-6.237v-46.84c0-1.503.959-2.837 2.38-3.315a100.41 100.41 0 0 1 63.685 0 3.49 3.49 0 0 1 2.386 3.314l.007 46.84Z"/><path fill="#BBC4EF" fill-rule="nonzero" d="M281 274.213v-46.651c0-2.904-1.818-5.483-4.512-6.4A99.203 99.203 0 0 0 250.101 216a37.42 37.42 0 0 1 5.82 13.92c1.298 6.01 1.538 12.197 1.777 18.346.13 3.313.252 6.664-.4 9.908-1.579 7.878-7.461 14.102-10.276 21.609-2.3 6.124-2.46 12.926-1.371 19.39a63.053 63.053 0 0 0 1.9 7.827 10.987 10.987 0 0 0 3.994-2.188l25.484-21.885c2.515-2.164 3.968-5.353 3.971-8.714Z" opacity=".44"/><path fill="#070707" fill-rule="nonzero" d="m219.88 269-17.441-4.66a2.49 2.49 0 0 1-1.73-.704 2.339 2.339 0 0 1-.709-1.684l.051-8.582c.01-1.312 1.11-2.37 2.464-2.37l17.441 4.666c.417.006.792.248.957.62.166.37.09.801-.19 1.1l-6.276 1.936a.998.998 0 0 0 0 1.386l6.224 6.584c.282.3.354.735.182 1.105-.172.371-.554.608-.973.603zm49.242-13.436L286.556 251c1.353.01 2.444 1.085 2.444 2.407l-.057 8.641a2.367 2.367 0 0 1-.725 1.693 2.48 2.48 0 0 1-1.739.695L269.052 269c-.418 0-.797-.243-.964-.617a1.01 1.01 0 0 1 .192-1.11l6.279-6.584c.37-.395.37-1.001 0-1.397l-6.215-2.001a1.01 1.01 0 0 1-.19-1.113c.168-.375.549-.616.968-.614z" opacity=".18"/><path fill="#52D2BC" fill-rule="nonzero" d="m219.878 265-17.44-.062a2.49 2.49 0 0 1-1.73-.705 2.339 2.339 0 0 1-.708-1.683l.051-13.18c.007-1.313 1.11-2.373 2.464-2.37l17.44.068c.416.003.792.244.958.615a.997.997 0 0 1-.193 1.1l-6.275 6.54a.998.998 0 0 0 0 1.385l6.224 6.609a.996.996 0 0 1 .157 1.086c-.17.36-.54.593-.948.597zm49.244-18 17.434.068c1.354.007 2.448 1.075 2.444 2.389l-.057 13.173a2.34 2.34 0 0 1-.725 1.68 2.49 2.49 0 0 1-1.739.69l-17.427-.068c-.418 0-.797-.24-.964-.612a.997.997 0 0 1 .192-1.102l6.279-6.547c.369-.39.369-.99 0-1.38l-6.222-6.59a.997.997 0 0 1-.176-1.097c.17-.367.546-.604.961-.604z"/><path stroke="#6535FF" stroke-linecap="round" stroke-linejoin="round" stroke-width="2.23" d="m213.484 258.51 6.243 6.736c.28.308.352.75.182 1.13-.17.378-.55.623-.97.624l-17.493-.07a2.473 2.473 0 0 1-1.735-.72 2.417 2.417 0 0 1-.711-1.724l.051-13.486M285 267l-16.976-.065c-.409 0-.778-.253-.94-.643a1.098 1.098 0 0 1 .194-1.153l6.084-6.817c.36-.41.36-1.037 0-1.447L267.303 250"/><path stroke="#BBC4EF" stroke-linecap="round" stroke-linejoin="round" stroke-width="2.23" d="m217 279 23 20"/><circle cx="140.5" cy="252.5" r="13.5" fill="#F9879A" fill-rule="nonzero"/><circle cx="76" cy="212" r="7" fill="#4020C6" fill-rule="nonzero" opacity=".54"/><circle cx="91" cy="264" r="20" fill="#62BCF9" fill-rule="nonzero"/><path fill="#F9879A" fill-rule="nonzero" d="m39 180.877.118-16.564c.01-1.286 1.018-2.32 2.253-2.313l12.408.09a2.198 2.198 0 0 1 1.578.698c.417.44.648 1.036.643 1.654l-.118 16.565a1 1 0 0 1-.582.913.93.93 0 0 1-1.036-.194l-6.135-5.98a.93.93 0 0 0-1.3 0l-6.223 5.89a.93.93 0 0 1-1.044.172 1.002 1.002 0 0 1-.562-.93Z"/><path fill="#6534FF" fill-rule="nonzero" d="m292 79.877.118-16.564c.01-1.286 1.018-2.32 2.253-2.313l12.408.09a2.198 2.198 0 0 1 1.578.698c.417.44.648 1.036.643 1.654l-.118 16.565a1 1 0 0 1-.582.913.93.93 0 0 1-1.036-.194l-6.135-5.98a.93.93 0 0 0-1.3 0l-6.223 5.89a.93.93 0 0 1-1.044.172 1.002 1.002 0 0 1-.562-.93Z"/><path fill="#F9879A" fill-rule="nonzero" d="m304 94.497.055-7.454c.001-.28.115-.546.315-.742.2-.196.47-.304.75-.3l5.839.041c.279.003.546.117.74.316.196.198.304.466.3.745l-.053 7.453a.453.453 0 0 1-.758.324l-2.89-2.69a.453.453 0 0 0-.602 0l-2.925 2.648a.453.453 0 0 1-.77-.341Z"/><path fill="#62BCF9" fill-rule="nonzero" d="M389 222h-8l-4 7 4 7h8l4-7zM357.997 233h-3.994L352 236.5l2.003 3.5h3.994l2.003-3.5z"/><path stroke="#FFF" stroke-dasharray="9" stroke-linecap="round" stroke-linejoin="round" stroke-width="3" d="M255 211c4.666-1.488 21.073-7.34 31.986-24.595 12.907-20.413 8.442-41.457 7.526-45.405"/></g></svg>