<svg xmlns="http://www.w3.org/2000/svg" width="581" height="360" viewBox="0 0 581 360">
  <g fill="none" fill-rule="evenodd">
    <path fill="#BBC4EF" fill-rule="nonzero" d="M67.2452222,325.732327 C71.0342356,326.008666 74.8045517,326.499307 78.538058,327.201895 C85.6963126,328.38757 92.8044511,330.316379 100.03788,330.616973 C113.034664,331.168061 126.031449,331.794297 139.028233,332.286937 C165.372615,333.339015 191.719781,334.240795 218.069731,334.992279 C244.24149,335.760463 270.41325,336.450715 296.585009,337.063035 C322.603636,337.697622 348.597204,338.616102 374.624184,337.413728 C426.736612,334.992279 478.698691,327.293743 530.911351,328.696514 C531.767495,328.714154 532.547147,329.193284 532.949407,329.948987 C537.046872,325.895019 540.186057,320.976749 542.137365,315.553894 C546.814871,302.628369 549.111861,278.68943 537.902552,270.581753 C529.942439,264.820376 517.129414,268.469248 507.214772,280.359394 C516.812012,218.771108 508.283916,197.320415 498.745145,189.10419 C483.284317,175.786225 463.663851,195.984444 446.365431,181.940043 C427.747287,166.818516 438.931538,134.037115 426.786728,93.9412699 C423.75113,84.0819699 419.662599,74.5779989 414.591802,65.5936245 C395.647903,32.0022908 353.45847,-5.84745199 314.63517,0.757257162 C276.839252,7.20331969 280.238796,39.5087807 239.502731,60.1161413 C188.977314,85.6081476 165.556374,58.4461769 142.143786,86.8355715 C117.653701,116.494139 129.414288,162.944198 101.399368,180.044634 C88.2104721,188.093862 82.756166,179.551994 71.7640271,188.519703 C48.6187254,207.356901 50.1138567,263.726549 59.0679395,300.591013 C61.2188062,309.147534 63.9509058,317.547461 67.2452222,325.732327 L67.2452222,325.732327 Z"/>
    <path stroke="#FFF" stroke-dasharray="4.45" stroke-linecap="round" stroke-linejoin="round" stroke-width="1.48" d="M276,178 C284.673053,175.219934 292.116551,169.507691 297.06144,161.837158 C305.562846,148.430965 302.623264,134.589071 302.021986,132"/>
    <path stroke="#6534FF" stroke-linecap="round" stroke-linejoin="round" stroke-width="1.63" d="M240 60C189.660861 85.7596875 166.32627 58.3125 143 87M427 94C424.012924 83.9138113 419.989745 74.1911288 415 65M218 335C244.07907 335.766212 270.158139 336.454692 296.237209 337.06544 322.163688 337.698398 348.065198 338.61452 374 337.415233"/>
    <g opacity=".62" transform="translate(424 80)">
      <path fill="#E2A3AE" fill-rule="nonzero" d="M27.2452632,177.709125 C40.2239766,187.491125 72.5620468,175.799625 81.4849123,155.347875 C88.5763743,139.092 74.6359649,131.579625 78.5998246,109.62875 C83.4668421,82.6445 107.241637,78.993 113.78117,53.373875 C119.885848,29.454875 111.439649,2.1105 102.073567,0.611375 C92.322807,-0.946375 89.0864912,26.88375 58.6801754,57.142625 C37.3639766,78.3565 29.5282456,74.05175 21.1405848,90.223875 C10.7793567,110.215 14.8184795,132.048625 19.9865497,160.004375 C22.1106433,171.377625 23.8500585,175.15475 27.2452632,177.709125 Z"/>
      <path fill="#6534FF" fill-rule="nonzero" d="M70.3877778,134.544375 C69.4260819,132.936375 66.3737427,132.969875 64.6761404,133.472375 C62.4538147,134.263065 60.4040155,135.4743 58.6383626,137.040125 C43.1676023,149.69475 28.9512281,182.382375 40.6839181,196.938125 C42.6574854,199.392 45.701462,201.963125 49.2973684,199.6265 C56.0459649,195.263125 58.8223392,181.260125 60.5199415,174.3005 C62.5431609,166.07649 64.1148931,157.74763 65.2280702,149.351375 C66.9005848,145.163875 69.325731,140.976375 70.5550292,136.7135 C70.8112349,135.999728 70.7503651,135.210293 70.3877778,134.544375 L70.3877778,134.544375 Z" opacity=".61"/>
      <path fill="#FCCDD3" fill-rule="nonzero" d="M141.887778,66.623125 C142.38117,69.973125 144.864854,88.95925 133.399766,106.8985 C120.103275,127.702 104.214386,121.82275 83.3497661,141.411875 C58.5463743,164.70275 59.7171345,193.01025 52.5002339,192.10575 C44.4638012,191.109125 34.1025731,154.98775 49.247193,132.17425 C61.6154386,113.590125 79.3524561,121.28675 99.3306433,101.747875 C124.418363,77.209125 120.96462,41.246875 130.104912,41.514875 C136.309942,41.699125 140.65848,58.248125 141.887778,66.623125 Z"/>
      <path stroke="#FFF" stroke-linecap="round" stroke-linejoin="round" stroke-width="2.3" d="M36.3437427,162.315875 C34.1778363,115.508 46.6129825,95.315875 58.5380117,85.483625 C67.6615789,77.988 76.5844444,76.522375 85.7832749,65.6265 C98.8205263,50.174625 100.350877,30.0495 99.7069591,15.9125"/>
      <path fill="#FCCDD3" fill-rule="nonzero" d="M41.8128655,128.514375 C41.2274854,166.00925 40.8762573,188.345375 33.1157895,190.305125 C22.5789474,192.951625 -4.4154386,159.17525 0.83625731,129.636625 C4.02239766,111.697375 17.0011111,107.241875 27.404152,75.366625 C32.6474854,59.295 32.7812865,49.906625 34.9304678,49.956875 C39.4546199,50.06575 42.3397076,92.501875 41.8128655,128.514375 Z"/>
      <path stroke="#FFF" stroke-linecap="round" stroke-linejoin="round" stroke-width="2.3" d="M27.3372515,179.024 C14.1160234,159.384625 13.380117,145.297875 14.9940936,136.211 C17.3857895,122.744 25.5727485,116.647 30.9916959,97.0495 C33.5315104,87.8099005 34.7561672,78.2574803 34.6294152,68.675"/>
      <path stroke="#FFF" stroke-linecap="round" stroke-linejoin="round" stroke-width="1.15" d="M52.399883 181.209875C51.9483041 171.344125 52.8849123 156.922375 61.5987135 144.359875 72.1606433 129.134125 86.4355556 127.85275 100.141813 117.451 111.849415 108.55675 125.505497 91.23725 130.247076 53.801M124.978655 78.3565L133.073626 70.107125M120.99807 89.972625L120.220351 78.398375M118.338772 96.815L133.90152 86.455125M110.937895 105.734375L112.200643 94.82175M104.875029 113.288625L123.214152 109.720875M96.7716959 120.172875L100.074912 108.55675M85.2564327 126.403875L95.4754971 126.9985M79.8374854 129.176L83.1323392 116.203125M69.0163158 136.085375L79.8876608 134.628125M62.9450877 142.2745L64.8768421 129.31"/>
    </g>
    <path stroke="#6534FF" stroke-linecap="round" stroke-linejoin="round" stroke-width="1.63" d="M508,184 C512.833591,157.020051 536.445101,153.369133 542.93972,127.754091 C549.010776,103.838903 540.622586,76.4988861 531.312525,75"/>
    <g opacity=".62" transform="translate(8 107)">
      <path fill="#FCCDD3" fill-rule="nonzero" d="M169.268349,176.704378 C156.302936,186.438341 124.018807,174.794286 115.119174,154.42553 C108.039541,138.235622 121.956697,130.762074 117.99945,108.891935 C113.14055,82.0171889 89.4054128,78.3805069 82.876789,52.8736866 C76.773945,29.0517512 85.206055,1.81 94.5648624,0.325299539 C104.307706,-1.22612903 107.538624,26.4910599 137.89422,56.6271429 C159.149817,77.7549309 166.972477,73.4676498 175.321101,89.5824885 C185.665046,109.484147 181.632661,131.237512 176.473211,159.071475 C174.394404,170.39023 172.649541,174.160369 169.268349,176.704378 Z"/>
      <path stroke="#FFF" stroke-linecap="round" stroke-linejoin="round" stroke-width="2.3" d="M160.185046,161.365253 C162.347339,114.747327 149.932936,94.6371429 138.01945,84.8447926 C128.911101,77.3795853 120.003119,75.9199078 110.827982,65.0682488 C97.8041284,49.6790783 96.2930275,29.6439631 96.9275229,15.5393088"/>
      <path fill="#FCCDD3" fill-rule="nonzero" d="M76.172844,109.617604 C34.3629358,86.7465438 9.4506422,73.1673733 2.41275229,80.5241475 C-7.09633028,90.4582949 13.2743119,141.496959 49.2568807,154.191982 C71.0885321,161.907419 84.1624771,150.346774 125.922294,158.812903 C146.977523,163.083502 157.438349,168.82212 158.724037,166.419908 C161.420642,161.323548 116.321376,131.55447 76.172844,109.617604 Z"/>
      <path stroke="#FFF" stroke-linecap="round" stroke-linejoin="round" stroke-width="2.93" d="M11.2789908,93.9448387 C24.6785321,120.869631 39.7895413,130.503502 50.8431193,134.407097 C67.2314679,140.204101 79.1115596,134.974286 104.16578,141.255069 C115.979288,144.231288 127.31208,148.861928 137.827431,155.009401"/>
      <path fill="#6534FF" fill-rule="nonzero" d="M106.737156,94.3201843 C107.329908,92.5518894 110.318716,91.9429954 112.080275,92.0764516 C114.412421,92.367955 116.666162,93.107188 118.717431,94.2534562 C136.483303,103.303456 157.254679,132.13 148.881009,148.770323 C147.470092,151.581244 145.074037,154.717465 141.041651,153.199401 C133.52789,150.388479 127.875872,137.351475 124.753486,130.920553 C121.054158,123.340414 117.773787,115.563248 114.927156,107.624101 C112.422569,103.91235 109.166606,100.367419 107.062752,96.4471429 C106.657333,95.8163293 106.538986,95.0432275 106.737156,94.3201843 L106.737156,94.3201843 Z" opacity=".61"/>
      <path fill="#E2A3AE" fill-rule="nonzero" d="M21.3975229,55.6846083 C21.6229358,59.0210138 23.2091743,78.0468664 38.1782569,93.0940553 C55.5350459,110.535115 69.802844,101.435069 94.2977064,116.123594 C123.409358,133.556313 128.234862,161.356912 135.097431,158.9547 C142.719725,156.285576 145.249358,118.917834 125.621743,99.9253456 C109.634128,84.452765 93.997156,95.7131336 70.337156,80.8911521 C40.6577982,62.2990323 36.466789,26.566129 27.6005505,28.7514747 C21.6062385,30.2361751 20.8715596,47.2685253 21.3975229,55.6846083 Z"/>
      <path stroke="#FFF" stroke-linecap="round" stroke-linejoin="round" stroke-width="1.15" d="M132.885046 148.319908C131.215321 138.62765 127.283119 124.756544 116.129358 114.371982 102.604587 101.785392 88.4119266 103.528664 72.8417431 96.3053456 59.5256881 90.1246544 42.5779817 76.1534562 30.0550459 40.7124885M40.373945 63.5335023L30.7312844 57.2110138M46.7022018 74.0014747L45.0241284 62.5659447M50.7429358 80.0987558L33.3777982 73.3008295M59.8512844 87.2219816L56.3198165 76.8624424M67.3566972 93.2858986L48.7142202 93.6862673M76.7155046 98.2821659L71.046789 87.6723963M89.2634862 101.918848L79.4288073 104.646359M95.1409174 103.470276L89.1883486 91.5342857M107.154587 107.907696L96.2429358 108.783502M114.384495 112.653733L109.767706 100.442488"/>
    </g>
    <path fill="#BBC4EF" fill-rule="nonzero" d="M515.657503,259.919948 L515.657503,259.919948 L510.403105,255.205253 L504.839625,255.205253 L509.283726,238.545556 L512.625156,231.881677 L413.058906,210.77384 L377.464327,208 L344.116859,210.77384 L350.515697,214.938764 L312.105963,214.938764 L306.525776,208.274885 C306.525776,208.274885 269.811818,217.704274 258.133521,222.144083 C246.455224,226.583893 235.887953,230.473932 235.887953,230.473932 C230.931612,230.198966 225.961907,230.665044 221.143895,231.856687 C221.143895,231.856687 189.993417,239.070336 178.87481,244.618015 C168.616621,249.724213 151.308015,262.377253 148.626518,264.326438 L148,264.326438 L151.34143,269.599232 L154.398838,274.597141 L153.56348,281.535905 L152.452455,288.199784 L152.74483,288.316402 L152.74483,288.474669 L162.201076,292.356379 L199.541552,292.356379 C199.650149,292.531306 199.767099,292.706233 199.884049,292.87283 L199.691917,292.356379 L199.942524,292.356379 C204.788513,299.629067 212.963732,304 221.720291,304 C230.476851,304 238.65207,299.629067 243.498059,292.356379 L427.995097,292.356379 L428.354301,292.87283 L428.354301,292.87283 C433.405041,300.057873 441.742321,304.226621 450.537798,303.964865 C459.333275,303.703109 467.406396,299.045983 472.018432,291.573373 L502.091299,278.428872 L512.65857,272.881192 L512.65857,268.449713 L516,260.119864 L515.657503,259.919948 Z"/>
    <path fill="#6535FF" fill-rule="nonzero" d="M221.727998,233.044727 C221.727998,233.044727 190.637466,240.312697 179.540256,245.902152 C168.443046,251.491607 149,266.044333 149,266.044333 L155.111386,276.115423 L153.443887,290.08906 L162.881935,294 L470.435572,294 L502.118065,280.026363 L512.665001,274.436908 L512.665001,269.972058 L516,261.579483 L510.455564,256.543938 L504.861102,256.543938 L509.296651,239.758788 L512.631651,233.044727 L413.257008,211.794727 L377.730928,209 L344.447635,211.794727 L350.834159,215.991015 L312.498342,215.991015 L306.928893,209.276955 C306.928893,209.276955 270.285588,218.77735 258.629765,223.250592 C246.973942,227.723835 236.427007,231.643167 236.427007,231.643167 C231.485331,231.370554 226.530929,231.84296 221.727998,233.044727 L221.727998,233.044727 Z" opacity=".54"/>
    <polygon fill="#4020C6" fill-rule="nonzero" points="209.486 260 164 265.472 180.097 292 211 291.729" opacity=".54"/>
    <path stroke="#FFF" stroke-linecap="round" stroke-linejoin="round" stroke-width="2.19" d="M313,215.624279 L307.448093,209 C307.448093,209 270.920202,218.373355 259.301091,222.786781 C247.68198,227.200207 237.168264,231.06713 237.168264,231.06713 C232.237042,230.793798 227.292524,231.257107 222.498929,232.441668 C222.498929,232.441668 191.506323,239.61245 180.444065,245.127163 C169.381807,250.641875 150,265 150,265"/>
    <polyline stroke="#FFF" stroke-linecap="round" stroke-linejoin="round" stroke-width="2.19" points="508.678 239 512 232.28 413 211"/>
    <path fill="#4020C6" fill-rule="nonzero" d="M244,240.999706 C244,240.999706 264.02454,229.638529 276.78184,225.646765 C289.539141,221.655 312.892761,216 312.892761,216 L367.334479,216 L414,228.495588 L353.450798,231.907353 L263.999509,245 L244,240.999706 Z" opacity=".54"/>
    <polygon fill="#4020C6" fill-rule="nonzero" points="263.761 284 256 253.314 263.761 243.829 353.586 231 360.814 231 368 238.81 362.454 243.829 351.362 275.637 353.586 281.21" opacity=".54"/>
    <polygon fill="#4020C6" fill-rule="nonzero" points="250.401 285.033 224.867 283.927 224 293 470.484 293 502.129 279.254 512.674 273.764 512.674 269.364 516 261.116 515.7 260.844 505.18 263.593 495.743 259.193 474.653 270.734 434.13 256.444 400.269 246 380.287 274.037 353.094 281.178 263.172 283.927" opacity=".54"/>
    <polyline stroke="#FFF" stroke-linecap="round" stroke-linejoin="round" stroke-width="2.19" points="471 293 502.286 279.204 512.712 273.694 512.712 269.278 516 261"/>
    <polyline stroke="#FFF" stroke-linecap="round" stroke-linejoin="round" stroke-width="2.19" points="353 281 263.906 283.852 250.626 285 245 285"/>
    <polyline stroke="#FFF" stroke-linecap="round" stroke-linejoin="round" stroke-width="2.19" points="395 244.1 386.267 243 374.266 266.682 353 281 379.722 273.845"/>
    <polygon fill="#4020C6" fill-rule="nonzero" points="148 265 163.262 266.127 174 284.037 162.133 293 152.524 289.082 154.782 275.645" opacity=".54"/>
    <circle cx="223" cy="278" r="26" fill="#FFF" fill-rule="nonzero"/>
    <circle cx="450" cy="278" r="26" fill="#FFF" fill-rule="nonzero"/>
    <path fill="#6534FF" fill-rule="nonzero" d="M426.859952 283.422779C426.856489 272.043251 434.193969 261.977484 444.984062 258.559602 455.774154 255.14172 467.521152 259.162265 474 268.490642 470.334616 259.150163 461.659935 252.759449 451.701315 252.063004 441.742694 251.366558 432.27237 256.488321 427.35739 265.228741 422.44241 273.969161 422.957444 284.772794 428.681309 293 427.478236 289.951988 426.860216 286.702259 426.859952 283.422779L426.859952 283.422779zM198.849779 283.416364C198.846315 272.029215 206.185379 261.956705 216.9778 258.536534 227.770221 255.116362 239.519754 259.139601 246 268.474226 242.326087 259.138729 233.652321 252.755567 223.698847 252.062454 213.745373 251.36934 204.280714 256.489427 199.364226 265.226728 194.447738 273.964029 194.952977 284.76611 200.663249 293 199.462748 289.949392 198.847407 286.697505 198.849779 283.416364L198.849779 283.416364z" opacity=".18"/>
    <circle cx="222" cy="279" r="13" fill="#BBC4EF" fill-rule="nonzero"/>
    <circle cx="450" cy="279" r="13" fill="#BBC4EF" fill-rule="nonzero"/>
    <path stroke="#FFF" stroke-linecap="round" stroke-linejoin="round" stroke-width="2.19" d="M264,245 L353,232"/>
    <polyline stroke="#FFF" stroke-linecap="round" stroke-linejoin="round" stroke-width="2.19" points="511 261.452 504.252 263.492 495.004 259 479 268"/>
    <polyline stroke="#FFF" stroke-linecap="round" stroke-linejoin="round" stroke-width="2.19" points="148 265 163.262 265.562 174 284"/>
    <path stroke="#FFF" stroke-linecap="round" stroke-linejoin="round" stroke-width="2.19" d="M287 228L293 235M294 224L303 233M281 233L283 235M285 238L286 239M392 228.83L492 228.17M255 243L222 232"/>
    <path fill="#91A0D8" fill-rule="nonzero" d="M97.2157912,329.367211 C67.5121399,307.239683 57.2669186,304.514618 58.2573177,296.741894 C58.8149374,292.432098 62.5934349,288.466081 66.4801273,287.677908 C75.7183041,285.808094 86.3047554,301.722474 86.4545637,301.563163 C86.6043719,301.403851 51.266265,267.646584 57.8078929,256.109077 C59.7886912,252.620994 65.2983065,251.65674 69.2182896,252.101135 C89.192726,254.381805 97.9731553,297.37914 103.049991,296.054339 C107.119783,294.981082 100.461637,267.613044 106.77023,265.114369 C111.131315,263.378712 122.583325,273.222486 123.881664,284.743223 C125.454651,298.712325 110.831699,303.877372 110.515437,323.405607 C110.448855,327.053002 110.873312,332.050352 108.185086,333.568004 C105.122339,335.295276 99.9789216,331.421491 97.2157912,329.367211 Z"/>
    <path stroke="#7863CE" stroke-linecap="round" stroke-linejoin="round" stroke-width="2.19" d="M67 296.010838L100 316C95.9797781 305.390812 73.437238 265 73.437238 265M111.074493 277C111.074493 277 113.511463 282.52183 112.90222 287.577963 112.292978 292.634096 106.655455 300.051975 106.249293 303.727651 105.843131 307.403326 103 321 103 321"/>
    <path fill="#BBC4EF" fill-rule="nonzero" d="M1.13686838e-13,329 L581,329 C581,329 394.544962,349.618363 263.03553,347.898037 C131.526099,346.177711 1.13686838e-13,329 1.13686838e-13,329 Z"/>
    <ellipse cx="219.5" cy="352.5" fill="#BBC4EF" fill-rule="nonzero" rx="50.5" ry="7.5"/>
    <ellipse cx="360.5" cy="345.5" fill="#BBC4EF" fill-rule="nonzero" rx="50.5" ry="7.5"/>
    <path stroke="#7863CE" stroke-linecap="round" stroke-linejoin="round" stroke-width="1.63" d="M440,305.5 L484,305.5"/>
    <path fill="#FFF" fill-rule="nonzero" d="M305.21736,95 C305.21736,95 308.902564,101.585787 310.128206,106.115076 C311.353847,110.644365 337.45669,138.294677 347.551667,141.150461 C357.646643,144.006244 347.402602,151 347.402602,151 C347.402602,151 332.247715,145.263455 321.639295,131.234315 C311.030874,117.205174 306.484408,110.644365 306.484408,110.644365 C306.484408,110.644365 304,105.290812 304,102.410051 C304,99.5292893 305.656272,101.577461 305.656272,101.577461 C304.651315,99.5293943 304.493518,97.1646728 305.21736,95 L305.21736,95 Z"/>
    <path stroke="#6534FF" stroke-linecap="round" stroke-linejoin="round" stroke-width="1.63" d="M305,95 C305,95 308.832395,101.440415 310.106989,105.869726 C310.873468,108.515914 320.846307,119.206514 331,128"/>
    <path fill="#FFF" fill-rule="nonzero" d="M382.359964,249.228651 C382.359964,249.228651 382.359964,254.987245 385.21668,263.633458 C388.073396,272.27967 397.882004,300.248795 399.921336,313.430316 C401.960668,326.611837 404,341 404,341 L396.247236,341 C396.247236,341 376.646532,278.853788 368.068128,262.393529 C359.489724,245.933271 361.124492,234 361.124492,234 L382.359964,249.228651 Z"/>
    <path fill="#FFF" fill-rule="nonzero" d="M351.795359,252.605624 C351.795359,252.605624 347.24189,302.210162 342.688421,315.850365 C338.134952,329.490568 334,339.821016 334,339.821016 L340.620945,344 C340.620945,344 371.256418,272.079689 372.913747,252.647414 C374.571076,233.21514 351.795359,252.605624 351.795359,252.605624 Z"/>
    <path fill="#6534FF" fill-rule="nonzero" d="M383,257.797519 C382.209211,254.725462 381.745947,251.573871 381.618407,248.398527 L360.592036,233 C360.592036,233 359.929852,238.048697 361.728376,246.067712 C358.448203,247.919031 355.349121,250.091612 352.474156,252.555288 C352.474156,252.555288 352.310654,254.456964 352,257.603985 C355.270042,256.888753 358.482859,256.510101 360.175105,257.132774 C363.232595,258.268731 375.519778,258.049954 383,257.797519 Z" opacity=".18"/>
    <path stroke="#6534FF" stroke-linecap="round" stroke-linejoin="round" stroke-width="1.63" d="M373 257C373 257 358.041002 308.490871 351 321M392 328C392 328 375.78368 278.214151 373.277136 273.249797 372.032233 270.903444 370.937698 268.482074 370 266"/>
    <path fill="#F9879A" fill-rule="nonzero" d="M356.539825,123.056053 C361.397983,123.156481 364.722421,127.123378 365.559749,128.437308 C366.47169,129.876772 366.140075,130.621611 366.388786,132.487894 C366.490098,133.215593 366.63405,133.93659 366.819885,134.647091 C368.428217,141.283692 369.232383,144.606178 370.509101,145.4096 C373.941314,147.552059 381.684521,143.459627 381.991265,139.609896 C382.11562,138.053266 380.913517,137.77709 378.30205,132.579953 C377.937273,131.851852 377.240882,130.295221 375.814938,127.198699 C375.020649,125.188106 374.061148,123.248108 372.94647,121.398995 C372.131862,119.935067 371.015076,118.664986 369.671773,117.674799 C367.963091,116.554973 365.963543,115.972431 363.926546,116.001003 C356.896311,115.94242 351.490989,122.955625 352.038153,123.867844 C352.295155,124.3114 353.663066,122.99747 356.539825,123.056053 Z"/>
    <rect width="10" height="17" x="360" y="132" fill="#FFF" fill-rule="nonzero"/>
    <path fill="#52D2BB" fill-rule="nonzero" d="M344.868012,138 L335,157.83967 L351.443915,161.96806 C351.443915,161.96806 349.390504,166.514302 351.443915,168.99635 C353.497326,171.478398 358.019818,177.645912 358.019818,180.153031 C358.019818,182.208869 347.362033,230.729982 343.654255,251.004219 C343.369262,252.44087 343.853497,253.92263 344.93049,254.9095 C346.007483,255.896369 347.519927,256.244205 348.91664,255.826245 C353.622027,254.514186 359.582738,253.202127 362.134954,254.154833 C365.327301,255.324821 378.562242,255.049038 386.069246,254.781612 C387.443709,254.733168 388.739191,254.123798 389.656881,253.094057 C390.57457,252.064316 391.035224,250.703125 390.932588,249.32445 L386.775886,204.555658 C386.775886,204.555658 395.413514,181.414947 390.475351,166.94887 C385.537188,152.482792 369.508944,142.972453 369.508944,142.972453 C369.508944,142.972453 365.809479,145.479572 362.110013,145.045005 C358.410548,144.610438 344.868012,138 344.868012,138 Z"/>
    <path fill="#41B59F" fill-rule="nonzero" d="M390.986823,249.312997 L386.904256,204.511466 C388.083549,201.137037 389.075832,197.697082 389.876365,194.208033 C387.973889,191.548544 385.965266,189.758824 384.07912,190.026446 C379.286186,190.737316 376.689673,204.544918 376.003801,211.126737 C374.917839,221.497075 377.636828,223.244979 375.187288,229.325007 C372.068207,237.186392 366.49142,236.96895 363.478485,245.039414 C362.480468,247.902589 361.980266,250.922811 362.000596,253.962922 C362.228296,254.001614 362.452308,254.060375 362.670137,254.138549 C365.805548,255.309393 378.804443,255.033409 386.177559,254.765787 C387.531741,254.726104 388.811267,254.121305 389.71941,253.091643 C390.627553,252.061982 391.085418,250.696911 390.986823,249.312997 L390.986823,249.312997 Z"/>
    <path fill="#6535FF" fill-rule="nonzero" d="M359.703449,221.311705 L370.908687,221.320535 C372.028576,221.321417 372.936205,222.229047 372.937086,223.348936 L372.94072,227.963805 C372.941602,229.084943 372.033456,229.99452 370.912319,229.995403 C370.911253,229.995404 370.910187,229.995404 370.909121,229.995403 L359.703883,229.986573 C358.583994,229.98569 357.676365,229.078061 357.675484,227.958172 L357.67185,223.343302 C357.670968,222.222165 358.579114,221.312587 359.700251,221.311705 C359.701317,221.311704 359.702383,221.311704 359.703449,221.311705 Z" transform="rotate(30 365.306 225.654)"/>
    <path fill="#FFF" fill-rule="nonzero" d="M377.785956,193 C377.785956,193 375.387029,200.415912 374.252053,206.290963 C373.117077,212.166013 369.282234,224.418748 368.009686,225.605294 C366.737137,226.79184 364.974485,227.451032 365.00028,229.173171 C365.026075,230.895311 366.71994,232.123056 368.009686,232.526812 C369.299431,232.930567 371.83593,233.350802 372.257247,232.526812 C372.678564,231.702821 373.976908,226.009049 373.976908,226.009049 C373.976908,226.009049 384.974136,200.465352 384.999931,196.946913 C385.025726,193.428475 377.785956,193 377.785956,193 Z"/>
    <path fill="#52D2BB" fill-rule="nonzero" d="M372,159 C372,159 378.600614,176.542268 377.357262,182.249485 C376.11391,187.956701 373.643895,196.525773 373.643895,196.525773 L391.801841,199 C391.801841,199 393.253809,171.461856 388.29709,162.901031"/>
    <path stroke="#6534FF" stroke-linecap="round" stroke-linejoin="round" stroke-width="1.63" d="M375.095645,170 C375.095645,170 378.05521,176.210101 376.806376,182.001732 C375.557543,187.793362 373,196.489177 373,196.489177 L384,199"/>
    <polygon fill="#41B59F" fill-rule="nonzero" points="358 149 348 161.327 351.367 162"/>
    <ellipse cx="362" cy="131" fill="#FFF" fill-rule="nonzero" rx="8" ry="11"/>
    <path fill="#F9879A" fill-rule="nonzero" d="M351.045036,126.87909 C351.680743,129.312095 353.873525,131.006333 356.378536,130.999982 C358.638212,130.783093 358.829287,128.363946 361.720343,127.287843 C365.184626,126.003192 367.793222,128.38063 368.707061,127.287843 C369.919976,125.853038 367.269841,119.429786 362.542799,118.21187 C357.034839,116.785408 350.388733,122.883327 351.045036,126.87909 Z"/>
    <ellipse cx="369.5" cy="128.5" fill="#FFF" fill-rule="nonzero" rx="2.5" ry="3.5"/>
    <path fill="#F9879A" fill-rule="nonzero" d="M373.002396,126 C374.549545,127.021702 376.212114,127.858714 377.95582,128.493774 C381.714742,129.840413 383.635969,129.449721 384.56317,130.987549 C385.458192,132.837646 384.944637,135.057996 383.326902,136.332539 C381.155081,137.920242 378.081118,136.216163 377.546515,135.91691 C372.935571,133.315072 372.98569,126.565256 373.002396,126 Z"/>
    <circle cx="371.5" cy="132.5" r="1.5" stroke="#6534FF" stroke-linecap="round" stroke-linejoin="round" stroke-width="1.63"/>
    <path fill="#41B59F" fill-rule="nonzero" d="M365.878948,178.514313 C365.368756,177.45847 364.019774,178.23557 360.751087,176.824965 C356.090182,174.839981 353.876468,171.14031 352,170 C354.222361,172.660723 358.606552,178.581886 358.606552,180.98076 C358.606552,181.428437 358.105008,184.013139 357.274865,188 C361.823355,183.303613 366.847448,180.56687 365.878948,178.514313 Z"/>
    <path stroke="#6534FF" stroke-linecap="round" stroke-linejoin="round" stroke-width="1.63" d="M370 143C370 143 366 145.361689 362 144.952329M346.751551 236C345.685677 241.700208 344.759844 246.864427 344.075195 250.914127 343.808485 252.376685 344.261657 253.885167 345.269561 254.889834 346.277465 255.8945 347.692886 256.248609 349 255.823112M335 158L351.429758 162.255431C351.429758 162.255431 349.378115 166.941573 351.429758 169.5 353.481401 172.058427 358 178.41573 358 181"/>
    <path fill="#F9879A" fill-rule="nonzero" d="M340.431212 344.004825L334.622709 341.109744C334.4107 341.002595 334.167688 340.972732 333.935864 341.025339L318.808318 344.401527C318.308117 344.509653 317.964489 344.968201 318.00293 345.476262 318.041371 345.984323 318.450122 346.386468 318.96095 346.4188L339.896999 347.997168C340.182081 348.018334 340.463109 347.920153 340.672367 347.72628 340.881624 347.532408 341.000135 347.260426 340.999343 346.975871L340.999343 344.950158C341.013719 344.551125 340.791232 344.180921 340.431212 344.004825L340.431212 344.004825zM403.164518 341L396.361149 341C396.255547 341.000302 396.150655 341.018914 396.050378 341.055145L385.475758 344.593635C385.158922 344.692371 384.958367 345.0332 385.00734 345.389679 385.056312 345.746158 385.339578 346.0074 385.66894 345.99984L404.928355 345.99984C405.29264 346.001687 405.632598 345.79998 405.829934 345.464907 406.02727 345.129834 406.054695 344.707733 405.902665 344.345481L405.062742 342.341869C404.722666 341.528369 403.982026 341.004805 403.164518 341z"/>
    <path stroke="#7863CE" stroke-linecap="round" stroke-linejoin="round" stroke-width="1.63" d="M249 305.5L165 305.5M255 313.5L213 313.5"/>
    <path fill="#FFF" fill-rule="nonzero" d="M302.62372,92.0651789 C302.62372,92.0651789 297.286808,95.4816006 296.871807,97.5570769 C296.456806,99.6325531 294,108.583578 294,108.583578 L297.137407,112 C297.137407,112 300.158615,108.583578 300.980317,108.165067 C301.802018,107.746555 303.030421,102.246116 302.64032,101.400551 C302.25022,100.554987 300.581916,102.254657 300.581916,102.673169 C300.581916,103.09168 298.531811,102.246116 300.175215,98.0268349 C301.818618,93.807554 302.66522,93.3805012 302.66522,93.3805012 C302.66522,93.3805012 303.445422,91.6466672 302.62372,92.0651789 Z"/>
    <path fill="#6535FF" fill-rule="nonzero" d="M202.51442 158C202.51442 158 188.652394 169.205872 187.844737 176.670861 187.037081 184.13585 184.309179 214.415189 196.259201 210.682694 208.209223 206.9502 218 195.333334 218 195.333334L202.51442 158zM225.634018 211L201.749016 216.593582 196 349.336787 200.860079 352 225.609095 237.440109C225.609095 237.440109 230.020551 234.334419 230.469174 237.440109 230.917796 240.545799 241.95059 349.311741 241.95059 349.311741L245.930039 349.311741C245.930039 349.311741 253 276.937474 253 268.947836 253 260.958198 250.441189 211.400734 250.441189 211.400734L225.634018 211z"/>
    <path fill="#FFF" fill-rule="nonzero" d="M201.648197,217 L205.726722,223.038289 C205.726722,223.038289 208.591597,229.076578 205.726722,229.940437 C202.861848,230.804296 197,221.999913 197,221.127327 C197,220.254742 201.648197,217 201.648197,217 Z"/>
    <rect width="14" height="20" x="221" y="133" fill="#FFF" fill-rule="nonzero"/>
    <path fill="#F9879A" fill-rule="nonzero" d="M295.273209,106.475021 L294.011448,105 C294.011448,105 270.455792,130.284871 266.319556,134.433367 L253.100312,147.691791 C245.655087,150.206031 235.736477,143.132636 235.736477,143.132636 C235.736477,143.132636 232.845289,146.862092 228.717409,146.862092 C224.589529,146.862092 221.272184,143.132636 221.272184,143.132636 L212.080548,148.027023 L210.868923,148.672345 L201.025517,153.910344 C201.025517,153.910344 200.616071,155.586504 198.134329,164.688052 C194.683288,177.376582 196.346138,212.969836 196.797364,221.350635 C196.812776,221.630555 196.996171,221.873025 197.260789,221.963335 C197.525407,222.053646 197.818192,221.97369 198.000633,221.761294 C198.485283,221.1914 199.103629,220.504174 199.788824,219.816949 C201.46003,218.140789 206.398446,216.917192 206.398446,216.917192 C221.583309,220.245896 237.413733,218.944187 251.855264,213.179356 C253.091956,209.692943 255.197677,204.295709 255.197677,197.431834 C255.197677,196.484804 255.264525,194.917594 255.364797,192.973249 C255.623834,188.950465 254.529194,175.172432 261.849079,165.433943 L261.849079,165.433943 C270.631269,157.388376 284.886661,143.560057 288.254142,135.673725 C288.638519,134.768599 290.70246,129.932878 294.220349,121.828645 L299,110.807894 L295.273209,106.475021 Z"/>
    <path fill="#6535FF" fill-rule="nonzero" d="M206.239264,177 C206.239264,177 209,164.909666 209,161.570912 L209,149 L203,151.917194 C204.028673,154.513289 204.816737,157.184186 205.355828,159.901536 C205.355828,159.901536 206.184049,164.117133 206.276074,177 L206.239264,177 Z"/>
    <path stroke="#6534FF" stroke-linecap="round" stroke-linejoin="round" stroke-width="1.63" d="M202,218 L207,188"/>
    <path fill="#D3637B" fill-rule="nonzero" d="M293,123.941365 C292.321326,122.941453 291.273267,122.249426 290.084406,122.016216 C285.336154,121.493438 285.086246,133.708177 272.78244,144.586929 C263.460871,152.884985 259.520654,152.727322 255.480475,161.821991 C253.914384,165.340367 254.647448,166.211663 253.414568,173.314799 C250.998791,186.973399 245.68408,190.948168 243.534871,199.578147 C242.682883,202.179417 242.170528,204.879099 242.010432,207.610665 C241.931059,210.447928 242.305036,213.279719 243.118357,216 L251.356992,213.120575 C251.356992,213.120575 254.689099,204.913797 254.689099,197.528527 C254.689099,196.590847 254.755741,195.03911 254.855705,193.113961 C255.113943,189.130894 254.022678,175.48889 261.319992,165.846548 L261.319992,165.846548 C270.075104,157.880415 284.28654,144.188622 287.643638,136.380151 C287.976849,135.533749 289.842829,131.193866 293,123.941365 Z"/>
    <path fill="#6534FF" fill-rule="nonzero" d="M235,137.81642 L234.745763,139.302248 C234.745763,139.302248 230.362361,144.152057 225.207481,140.846507 C220.052601,137.540958 220,133 220,133 L235,137.81642 Z" opacity=".18"/>
    <ellipse cx="230.5" cy="128" fill="#FFF" fill-rule="nonzero" rx="10.5" ry="13"/>
    <path fill="#6535FF" fill-rule="nonzero" d="M230.479412,110.608179 C227.271734,110.064016 226.050157,109.839441 225.385354,110.608179 C224.936611,111.135067 224.969851,111.860618 225.044642,113.078506 C225.131799,114.81164 225.597888,116.501322 226.407489,118.01916 C228.850643,121.854212 237.493091,122.130613 242.69518,118.01916 C244.847482,116.291658 247.864029,112.724368 246.767103,110.245404 C246.002578,108.517903 243.351674,107.654152 241.340642,108.129215 C239.13848,108.682015 239.229891,110.539079 236.928008,111.307817 C236.296444,111.523755 235.880942,111.523755 230.479412,110.608179 Z"/>
    <path fill="#6535FF" fill-rule="nonzero" d="M221.459745,113.063426 C218.975259,113.634 217.793403,116.260322 217.232668,117.518942 C213.781992,125.272044 218.552551,135.198364 219.691274,134.996985 C220.622957,134.837559 220.234756,127.806067 220.752357,127.806067 C221.123305,127.806067 220.933517,131.355376 222.865896,132.261583 C223.402429,132.551346 224.0547,132.551346 224.591234,132.261583 C225.453902,131.506411 223.788952,129.501009 224.591234,127.462044 C224.924651,126.804766 225.408659,126.230652 226.006011,125.783883 C228.594017,123.073654 228.852818,116.646299 225.652316,114.129058 C224.467589,113.222935 222.948775,112.836896 221.459745,113.063426 L221.459745,113.063426 Z"/>
    <ellipse cx="220.5" cy="128" fill="#FFF" fill-rule="nonzero" rx="2.5" ry="3"/>
    <path fill="#4B28DD" fill-rule="nonzero" d="M231.000795,236 C230.999735,236.019689 230.999735,236.039422 231.000795,236.059111 C231.307728,238.279977 236.874011,293.531432 240.125848,326 C241.569265,313.198349 242.39052,301.2158 242.523248,299.315819 C243.153706,290.162132 243.502118,279.446238 241.295514,266.323701 C239.188456,253.682492 234.509792,237.807093 231.000795,236 Z"/>
    <path stroke="#7863CE" stroke-linecap="round" stroke-linejoin="round" stroke-width="1.63" d="M445 313.5L428 313.5M421 305.5L411 305.5"/>
    <path fill="#F9879A" fill-rule="nonzero" d="M194.028748 355.010912L195.242571 350.555862C195.365719 350.156025 195.788215 349.921714 196.201745 350.023916L214.409085 354.478966C214.791425 354.576257 215.041455 354.93531 214.994304 355.319365 214.947152 355.703419 214.617338 355.994215 214.222343 356L194.792692 356C194.544515 355.998413 194.311223 355.883835 194.161517 355.690008 194.01181 355.496181 193.962737 355.245177 194.028748 355.010912L194.028748 355.010912zM242.014573 352.978646L242.668688 349 246.767259 349 259.261691 352.164624C259.718979 352.222715 260.047054 352.679301 259.994465 353.184438 259.941877 353.689574 259.528541 354.051977 259.071252 353.993886L242.776327 353.993886C242.544886 353.995973 242.324869 353.882954 242.177173 353.68611 242.029477 353.489266 241.969768 353.229477 242.014573 352.978646z"/>
    <path stroke="#6534FF" stroke-linecap="round" stroke-linejoin="round" stroke-width="1.63" d="M455 133C455 133 448.347107 170.526615 439 180M87.0628684 132C87.0628684 132 84.2649402 178.575 116 192M27 152.272466C27 152.272466 28.6670753 133.832518 34.8352537 135.058534 41.0034322 136.28455 47.5883795 166.843836 61 170M8 200C8 200 15.1963394 238.049231 43 254M244 148.177126C249.314934 149.763292 252.550473 148.69489 254.07259 147.971664 255.403403 147.338842 256.260113 146.582742 259.836673 143.098109 262.282042 140.706532 264.369754 138.635477 266 137"/>
    <circle cx="424" cy="129" r="9" fill="#F9879A" fill-rule="nonzero"/>
    <circle cx="409.5" cy="107.5" r="4.5" fill="#F9879A" fill-rule="nonzero"/>
    <ellipse cx="435" cy="103.5" fill="#62BCF9" fill-rule="nonzero" rx="13" ry="13.5"/>
    <path fill="#F9879A" fill-rule="nonzero" d="M473.000702,251.271245 L473.073976,240.4988 C473.082921,239.664973 473.734093,238.995288 474.531319,239.000025 L482.558917,239.059635 C482.943271,239.061888 483.311027,239.223752 483.581279,239.509619 C483.851532,239.795487 484.002142,240.181939 483.999977,240.583958 L483.918561,251.356402 C483.917187,251.613761 483.770156,251.845812 483.544088,251.947416 C483.31802,252.049019 483.055879,252.000864 482.876439,251.824769 L478.903348,247.933064 C478.670181,247.720015 478.322356,247.720015 478.08919,247.933064 L474.059107,251.756643 C473.879012,251.947462 473.605072,252.002364 473.370296,251.894693 C473.135521,251.787021 472.988533,251.539076 473.000702,251.271245 L473.000702,251.271245 Z"/>
    <path fill="#52D2BB" fill-rule="nonzero" d="M110.001858,92.2712486 L110.083265,81.4988633 C110.085407,81.0976169 110.240404,80.7138252 110.513921,80.4325044 C110.787438,80.1511837 111.156896,79.9955564 111.540455,80.0000966 L119.567209,80.0597067 C120.364313,80.0690626 121.004505,80.7501588 120.999976,81.5840205 L120.92671,92.3564058 C120.925335,92.6137634 120.778321,92.8458133 120.552276,92.9474159 C120.326231,93.0490186 120.064118,93.0008639 119.884697,92.8247703 L115.912023,88.9330865 C115.677584,88.7236868 115.332391,88.7236868 115.097951,88.9330865 L111.076433,92.7566446 C110.898581,92.9612249 110.616121,93.025003 110.373433,92.9153787 C110.130745,92.8057543 109.981449,92.5469479 110.001858,92.2712486 L110.001858,92.2712486 Z"/>
    <path fill="#FFF" fill-rule="nonzero" d="M301.983658,84.9998958 C300.979746,85.0011069 300.007593,84.6386332 299.238312,83.9762755 L285.519753,72.1459095 C284.554203,71.3134839 283.997635,70.0843867 284.000008,68.7897773 L284.000008,43.5768341 C283.998071,42.7667079 284.501879,42.0464731 285.25012,41.7896937 C296.122963,38.0701021 307.877035,38.0701021 318.749878,41.7896937 C319.496542,42.0486669 319.999399,42.7675425 319.999991,43.5768341 L319.999991,68.7897773 C320.002616,70.0862762 319.44252,71.3165509 318.472075,72.1459095 L304.753516,83.9762755 C303.977791,84.6442302 302.995986,85.007063 301.983658,84.9998958 L301.983658,84.9998958 Z"/>
    <polygon fill="#52D2BC" fill-rule="nonzero" stroke="#6535FF" stroke-linecap="round" stroke-linejoin="round" stroke-width=".16" points="304.933 65.938 299 62 304.841 71 311 62.243"/>
    <polygon fill="#52D2BC" fill-rule="nonzero" stroke="#6535FF" stroke-linecap="round" stroke-linejoin="round" stroke-width=".16" points="299.008 62.366 299.042 62.375 304.987 66 310.958 62.603 310.992 62.603 310.966 62.586 311 62.577 305.241 52 299 62.349 299.025 62.366"/>
    <path fill="#6535FF" fill-rule="nonzero" d="M320.661792,43.7297885 L320.661792,43.7297885 C309.849312,40.0900705 298.158889,40.0900705 287.34641,43.7297885 L287.34641,43.7297885 C285.940423,44.203617 284.994331,45.5347298 285.000026,47.0310544 L285.000026,70.965232 C285.003872,72.6844235 285.757498,74.3146666 287.060265,75.421941 L300.288311,86.6379918 C302.435824,88.4540027 305.564202,88.4540027 307.711714,86.6379918 L320.93976,75.421941 C322.242527,74.3146666 322.996153,72.6844235 323,70.965232 L323,47.014548 C322.999824,45.5264804 322.058829,44.2045529 320.661792,43.7297885 Z M321.340363,70.9074599 C321.342337,72.1348385 320.802984,73.2994065 319.868763,74.0849283 L306.648892,85.2927259 C305.121911,86.604207 302.878114,86.604207 301.351133,85.2927259 L288.131263,74.0849283 C287.197042,73.2994065 286.657688,72.1348385 286.659663,70.9074599 L286.659663,47.014548 C286.677061,46.2615434 287.16139,45.6008318 287.869645,45.3639151 C298.338581,41.831596 309.661445,41.831596 320.130381,45.3639151 C320.840142,45.5987296 321.325396,46.2607043 321.340363,47.014548 L321.340363,70.9074599 Z"/>
    <path fill="#BBC4EF" fill-rule="nonzero" d="M323.999962,71.1089846 L323.999962,46.9968102 C324.00694,45.4889625 323.049256,44.1463132 321.62363,43.665249 L321.62363,43.665249 C317.120151,42.1619078 312.437217,41.2656341 307.697991,41 C309.208718,43.159496 310.25558,45.6099606 310.772267,48.1961722 C311.363499,51.3216605 311.677691,54.4934586 311.711167,57.6744639 C311.847656,59.3843342 311.775108,61.104518 311.495137,62.7967393 C310.664252,66.8695729 307.565049,70.0928584 306.077765,73.9657983 C304.952426,77.1732238 304.702856,80.6238858 305.354894,83.960482 C305.598794,85.3281665 305.934685,86.6777515 306.360266,88 C307.131707,87.7766753 307.847839,87.3936274 308.462406,86.8755981 L321.906131,75.5566188 C323.216935,74.4504904 323.981491,72.8264496 323.999962,71.1089846 L323.999962,71.1089846 Z" opacity=".44"/>
    <path fill="#070707" fill-rule="nonzero" d="M291.437105 68L282.279967 65.4096993C281.938225 65.4073704 281.611384 65.2658941 281.371347 65.0163954 281.131311 64.7668967 280.997743 64.4298144 281.000029 64.0793068L281.000029 59.312801C281.0023 58.9622933 281.140237 58.6270674 281.383496 58.3808734 281.626754 58.1346793 281.955406 57.9976851 282.297147 58.0000296L291.445695 60.5903303C291.666141 60.5884711 291.866351 60.7218526 291.95432 60.9291795 292.042289 61.1365064 292.001003 61.37768 291.849433 61.5418693L288.559392 62.616756C288.366898 62.8374924 288.366898 63.1713477 288.559392 63.3920841L291.832253 67.048461C291.97495 67.2139862 292.012078 67.4489411 291.927662 67.6522206 291.843245 67.8555001 291.652343 67.9908395 291.437105 68L291.437105 68zM316.595393 60.5377107L325.724019 58C326.064696 58.0023455 326.39052 58.1448264 326.629809 58.3960969 326.869098 58.6473674 327.00225 58.9868435 326.999971 59.3398403L326.999971 64.1401952C327.000002 64.4939329 326.863223 64.8329303 326.620219 65.0813875 326.377214 65.3298447 326.048253 65.4670374 325.706892 65.4622893L316.544013 68C316.325809 67.998325 316.129353 67.8626851 316.043845 67.6546666 315.958336 67.4466482 316.000069 67.2058888 316.150095 67.0417036L319.429891 63.3859805C319.621787 63.1636765 319.621787 62.8274504 319.429891 62.6051464L316.167221 61.4960071C316.021108 61.324473 315.986663 61.079666 316.079429 60.8720464 316.172194 60.6644267 316.37463 60.5332523 316.595393 60.5377107L316.595393 60.5377107z" opacity=".18"/>
    <path fill="#FCCDD3" fill-rule="nonzero" d="M291.437105 66L282.279967 66C281.938225 65.9976628 281.611384 65.8556862 281.371347 65.6053052 281.131311 65.3549241 280.997743 65.0166496 281.000029 64.6649023L281.000029 57.317444C281.0023 56.9656966 281.140237 56.6292852 281.383496 56.3822204 281.626754 56.1351556 281.955406 55.9976769 282.297147 56.0000297L291.445695 56.0000297C291.666141 55.9981639 291.866351 56.1320172 291.95432 56.3400773 292.042289 56.5481375 292.001003 56.7901641 291.849433 56.954934L288.559392 60.6065589C288.368101 60.8251708 288.368101 61.1571755 288.559392 61.3757874L291.832253 65.0450957C291.97495 65.2112063 292.012078 65.4469922 291.927662 65.6509906 291.843245 65.854989 291.652343 65.9908071 291.437105 66zM316.595393 56L325.724019 56C326.064696 56.0023371 326.39052 56.1443125 326.629809 56.3946913 326.869098 56.6450702 327.00225 56.9833416 326.999971 57.3350858L326.999971 64.6824786C327.000002 65.034961 326.863223 65.3727554 326.620219 65.620331 326.377214 65.8679066 326.048253 66.0046125 325.706892 65.9998812L316.544013 65.9821979C316.325809 65.9805288 316.129353 65.8453702 316.043845 65.6380899 315.958336 65.4308097 316.000069 65.1909047 316.150095 65.0273021L319.429891 61.3845514C319.621787 61.1630363 319.621787 60.8280033 319.429891 60.6064881L316.167221 56.9372126C316.032181 56.7656999 316.004376 56.5294238 316.095707 56.3295126 316.187037 56.1296014 316.381318 56.0014857 316.595393 56L316.595393 56z"/>
    <path stroke="#6535FF" stroke-linecap="round" stroke-linejoin="round" stroke-width=".87" d="M287.549683 61.7230143L290.86018 65.1201629C291.004787 65.2754421 291.040588 65.4963346 290.951818 65.6855659 290.863049 65.8747973 290.665999 65.9976409 290.447443 66L281.281234 66C280.939155 65.9978466 280.611989 65.8670311 280.371715 65.636333 280.131441 65.405635 279.997741 65.0939531 280.000029 64.7698574L280 58M325 67L315.562424 67C315.336835 66.9983376 315.133731 66.8637196 315.045328 66.6572685 314.956926 66.4508173 315.000071 66.2118719 315.155174 66.0489237L318.545973 62.4031311C318.744363 62.182502 318.744363 61.8488091 318.545973 61.62818L315.181734 58"/>
    <path stroke="#BBC4EF" stroke-linecap="round" stroke-linejoin="round" stroke-width=".87" d="M289,73 L301,83"/>
    <path stroke="#F9879A" stroke-linecap="round" stroke-linejoin="round" stroke-width="1.63" d="M290 90L278 85M290 84L284 80M313 90L320 88M315 94L321 96M325 91L333 90M291 94L280 97"/>
    <path stroke="#6534FF" stroke-linecap="round" stroke-linejoin="round" stroke-width="1.63" d="M299,112 L295,107"/>
    <polygon fill="#62BCF9" fill-rule="nonzero" points="199.25 100 193.75 100 191 104.5 193.75 109 199.25 109 202 104.5"/>
    <polygon fill="#62BCF9" fill-rule="nonzero" points="219.25 15 213.75 15 211 19.5 213.75 24 219.25 24 222 19.5"/>
    <polygon fill="#62BCF9" fill-rule="nonzero" points="178.502 106 175.498 106 174 108.5 175.498 111 178.502 111 180 108.5"/>
    <path fill="#6534FF" fill-rule="nonzero" d="M121.865236,258.807595 C131.340446,256.652758 139.031795,264.542901 139.919577,263.264747 C141.180726,261.462222 127.47403,242.740542 108.32448,243.002728 C107.279054,243.002728 90.2369504,243.445166 87.3993655,253.129641 C84.8272856,261.871887 95.2234666,273.383467 102.989488,272.990189 C110.556382,272.596911 111.618402,261.126297 121.865236,258.807595 Z"/>
    <path fill="#F9879A" fill-rule="nonzero" d="M171,147.019263 C171,146.311979 171,145.595628 171,144.879277 C171.304933,144.153858 171.681614,143.972503 172.255605,144.661651 C172.829596,145.350799 173.511211,145.650035 174.273543,144.806735 C174.748879,144.289874 175.269058,144.434958 175.744395,144.879277 C176.515695,145.595628 177.125561,145.66817 177.780269,144.62538 C178.434978,143.58259 178.883408,143.936232 179,145.006225 L179,151 C177.935144,150.359271 176.968331,149.565054 176.130045,148.642388 C175.313901,147.799089 174.668161,147.581463 173.762332,148.642388 C173.087218,149.54408 172.194872,150.255857 171.170404,150.709832 C171.170404,150.582884 171.170404,150.51941 171.026906,150.510342 C171.026906,149.376875 171.026906,148.243408 171.026906,147.119008 L171.116592,147.073669 L171,147.019263 Z"/>
    <path fill="#52D2BC" fill-rule="nonzero" d="M180.098953,119.000115 L168.889499,119.000115 C167.70937,119.016171 166.624824,119.65345 166.034813,120.677527 L160.434272,130.398129 C159.855243,131.423252 159.855243,132.677508 160.434272,133.702631 L166.034813,143.322588 C166.624824,144.346665 167.70937,144.983944 168.889499,145 L180.098953,145 C181.282388,144.995939 182.372463,144.355411 182.953638,143.322588 L188.554179,133.635534 C189.148607,132.614528 189.148607,131.352039 188.554179,130.331033 L182.953638,120.610431 C182.355451,119.603428 181.268581,118.990329 180.098953,119.000115 L180.098953,119.000115 Z"/>
    <path fill="#52D2BC" fill-rule="nonzero" d="M185.765702,123.633298 L175.64648,118.382209 C174.58398,117.830882 173.301297,117.878815 172.284811,118.507833 L162.584728,124.462417 C161.561869,125.086024 160.958138,126.197936 161.002263,127.376897 L161.421403,138.574195 C161.464182,139.752334 162.145672,140.818633 163.20916,141.371425 L173.328382,146.614139 C174.392423,147.167735 175.67738,147.123032 176.698605,146.49689 L186.398688,140.542306 C187.426757,139.921627 188.036988,138.809764 187.99826,137.627826 L187.579121,126.422154 C187.528194,125.241711 186.836536,124.178012 185.765702,123.633298 Z"/>
    <path fill="#F9879A" fill-rule="nonzero" d="M159.648462,131.307552 C160.149108,130.916412 160.781071,130.899028 161.019083,131.429241 C161.560766,132.628738 162.504607,132.37667 163.390996,132.37667 C170.870594,132.37667 178.34472,132.359286 185.813375,132.324518 C186.634106,132.324518 187.56974,132.559202 188.053972,131.377088 C188.275569,130.829492 188.825459,130.95118 189.252239,131.281476 C189.96026,131.879592 190.196561,132.909216 189.826751,133.784776 C189.252239,135.783939 188.718764,137.791794 188.267362,139.817033 C188.053972,140.773155 187.594362,141.016531 186.740801,140.999147 C184.828498,140.999147 182.907986,140.999147 180.995683,140.999147 L167.740872,140.920919 L166.197897,140.920919 C164.482569,140.373322 162.660546,141.146911 160.953425,140.442858 C160.879559,140.129946 160.8139,139.825725 160.740034,139.521505 L160.838522,139.521505 L160.740034,139.521505 L160.469193,138.574075 L160.559474,138.521923 L160.444571,138.521923 C160.354291,138.130783 160.255803,137.739642 160.157315,137.357193 L160.222974,137.278965 L160.132693,137.278965 L160.05062,136.957361 L160.05062,136.783521 C159.74695,135.688327 159.492523,134.575749 159.139608,133.506632 C158.834418,132.734833 159.040907,131.842465 159.648462,131.307552 Z"/>
    <path stroke="#6534FF" stroke-linecap="round" stroke-linejoin="round" stroke-width=".94" d="M163 132.5L172 132.5M180 140.5L175 140.5M171 142.5L173 142.5M177.5 147L177.5 149M165 123L170 120"/>
    <rect width="33" height="5" x="349" y="16" fill="#62BCF9" fill-rule="nonzero"/>
    <rect width="23" height="5" x="349" y="26" fill="#62BCF9" fill-rule="nonzero"/>
    <rect width="23" height="5" x="363" y="95" fill="#62BCF9" fill-rule="nonzero"/>
    <rect width="33" height="5" x="133" y="49" fill="#62BCF9" fill-rule="nonzero"/>
    <rect width="23" height="5" x="133" y="58" fill="#62BCF9" fill-rule="nonzero"/>
  </g>
</svg>
