<svg xmlns="http://www.w3.org/2000/svg" width="396" height="324" viewBox="0 0 396 324">
  <g fill="none" fill-rule="evenodd">
    <path fill="#BBC4EF" fill-rule="nonzero" d="M84.3971756,150.977106 C110.158743,134.252431 125.937781,145.552211 145.858974,129.315027 C170.129115,109.521661 157.007072,84.315901 177.116259,60.6163614 C203.466877,29.5294652 269.471886,21.4671219 300.566242,47.9353577 C333.014161,75.5598211 306.939269,123.346393 348.248015,163.65811 C367.078837,182.039003 379.580497,179.026561 389.042907,196.951213 C405.335798,227.788114 391.668569,281.112078 362.021774,294.705564 C325.256239,311.580236 296.22356,252.475134 234.868292,258.243772 C178.056234,263.593668 166.563479,317.673868 122.014955,312.673965 C81.1448639,308.086554 38.9462758,256.781301 45.7203586,209.632217 C49.2107972,185.320189 65.5726198,163.195619 84.3971756,150.977106 Z"/>
    <path fill="#6535FF" d="M262.310376,67.9390666 C261.60728,66.5782098 260.824208,65.2597772 259.965235,63.990626 C257.119142,60.1914627 255.798733,55.4725759 256.26205,50.756154 C256.362677,49.0746968 256.375268,47.3891655 256.299774,45.7064051 C256.375667,41.641639 254.338553,37.8256682 250.911608,35.6131647 C248.90282,34.2766128 246.801866,33.0826555 244.624367,32.0401701 C241.228717,30.4059366 238.48472,27.6815617 236.834475,24.3059823 C235.954261,22.5288711 234.948302,20.8143343 233.929769,19.0997975 C231.414873,14.9010596 227.805996,12.6421261 222.832789,12.6859281 C220.632254,12.6859281 218.43172,12.6421261 216.224898,12.7359876 C212.670328,12.8823242 209.161589,11.8958542 206.209323,9.92014246 C204.338349,8.67251502 202.398862,7.52979892 200.399912,6.4973263 C196.464099,4.55126446 192.534573,4.45114552 188.617622,6.4973263 C187.159807,7.21676057 185.750582,8.02985948 184.398883,8.93146796 C180.356187,11.7473131 175.955118,13.2303248 170.975623,12.7172153 C169.185648,12.601422 167.390007,12.601422 165.600031,12.7172153 C162.218857,12.7011629 159.00099,14.1629263 156.797894,16.7157153 C155.003991,18.9466439 153.499952,21.3938375 152.321378,23.999368 C150.579515,27.6080804 147.648414,30.5142429 144.015932,32.2341506 C142.318377,33.0601318 140.677407,34.0112617 139.055299,34.9811639 C134.849135,37.4841374 132.642313,41.1509934 132.705185,46.094366 C132.705185,48.2844677 132.636026,50.4745695 132.76177,52.6709286 C132.913485,56.1586796 131.930029,59.6020149 129.957661,62.4888419 C128.644883,64.4372618 127.450273,66.462022 126.380221,68.5522951 C124.555579,72.0569368 124.539196,76.221833 126.33621,79.7405863 C127.133953,81.3970568 128.056625,82.9910049 129.096309,84.5087507 C131.894095,88.2773175 133.196967,92.9405198 132.755483,97.6055591 C132.639144,99.439247 132.639144,101.278413 132.755483,103.112101 C132.780322,106.801531 134.57165,110.257954 137.577797,112.416904 C139.715459,114.025065 142.117185,115.176433 144.456039,116.440434 C146.794893,117.704436 149.140034,119.193705 150.63011,121.577787 C152.994113,125.369792 154.785977,129.524728 157.728405,132.966316 C157.464341,133.460654 157.168841,133.942476 156.955075,134.455585 C152.503708,145.018133 148.054437,155.57651 143.607262,166.130714 C142.772123,167.894254 143.122796,169.988316 144.487475,171.386958 C145.75577,172.803305 147.781282,173.274101 149.548705,172.563356 C155.018604,170.717413 160.488504,168.87147 165.933255,166.931666 C166.926639,166.581249 167.379321,166.72517 167.819428,167.670043 C170.227441,172.788624 172.704614,177.882174 175.118915,182.994498 C176.030565,184.928045 177.394896,186.016838 179.645728,185.991808 C181.657941,186.077376 183.488066,184.838486 184.147393,182.944438 C186.913779,176.38039 189.655017,169.803828 192.421403,163.227265 C193.63484,160.336331 194.873427,157.464169 196.193747,154.385511 C196.501822,155.011255 196.728163,155.417988 196.904206,155.837236 C200.718465,164.898 204.532725,173.956678 208.346985,183.01327 C209.076305,184.727807 210.289742,185.829115 212.257649,185.979294 C214.477045,186.141987 216.199749,185.35355 217.174271,183.344914 C219.626296,178.245106 222.065745,173.13904 224.429748,167.995429 C224.957876,166.844062 225.479717,166.518675 226.737165,166.96921 C231.880129,168.84644 237.067103,170.548462 242.222641,172.363118 C244.385452,173.120268 246.422518,173.045178 248.019477,171.305612 C249.616436,169.566045 249.496979,167.463548 248.572754,165.317248 C245.888102,159.097359 243.278897,152.85244 240.631969,146.613779 C238.305689,141.132267 235.973123,135.652841 233.634269,130.175501 L233.634269,130.175501 C234.891717,127.847736 236.186889,125.532485 237.406614,123.17969 C239.003573,120.119805 241.493321,118.023565 244.523771,116.452949 C246.409943,115.489304 248.226956,114.481857 250.01882,113.399321 C254.199835,110.865061 256.40037,107.198205 256.306061,102.254832 C256.26205,99.7017994 256.306061,97.1550239 256.26205,94.601991 C256.208465,92.1438669 256.848882,89.7200861 258.110499,87.6061803 C259.367948,85.4598806 260.681981,83.3135809 261.945716,81.1610237 C264.492049,76.8308797 264.737252,72.4131316 262.310376,67.9390666 Z M171.887273,135.71333 C176.502108,135.425488 180.444208,136.889727 184.197691,139.392701 C185.576321,140.340723 187.017231,141.195735 188.510739,141.951991 C187.017231,141.195735 185.576321,140.340723 184.197691,139.392701 C180.425346,136.889727 176.502108,135.425488 171.887273,135.71333 L170.573239,135.782161 L171.887273,135.71333 Z M213.263607,135.813449 C212.38898,135.894644 211.527561,136.081661 210.698413,136.37036 C211.52773,136.082258 212.389076,135.895257 213.263607,135.813449 Z M219.657732,135.763389 C218.500879,135.763389 217.33774,135.763389 216.180887,135.763389 C217.33774,135.744617 218.500879,135.750874 219.657732,135.763389 Z M194.269852,152.940044 C190.132847,162.582749 186.096438,172.269257 182.047455,181.943249 C181.60106,183.000755 180.852879,183.776677 179.639441,183.789192 C178.426004,183.801707 177.621237,182.963211 177.124545,181.880675 C174.521627,176.40542 171.868411,170.948938 169.34094,165.429882 C168.712216,164.003187 167.982896,163.734117 166.530543,164.247227 C160.872026,166.274635 155.138062,168.18941 149.441821,170.173016 C148.32898,170.560977 147.247574,170.842562 146.298201,169.903947 C145.348827,168.965332 145.45571,167.6763 145.952403,166.487388 C148.247246,161.043421 150.567238,155.605711 152.868368,150.155486 C155.087764,144.85544 157.269437,139.517849 159.476258,134.22406 C159.150839,133.781857 158.718257,133.428822 158.21881,133.197841 C158.718257,133.428822 159.150839,133.781857 159.476258,134.22406 C160.189594,134.34984 160.858535,134.655793 161.419016,135.112616 L161.419016,135.112616 C157.282011,144.924272 153.149198,154.727584 149.020576,164.522554 C148.857108,164.898 148.731363,165.285961 148.574182,165.661407 C148.319327,166.061132 148.344496,166.57716 148.637055,166.950438 C149.045725,167.413488 149.542417,167.26331 150.051684,167.100616 C153.11357,166.118199 156.188031,165.154555 159.249918,164.172138 C162.311804,163.18972 165.291957,162.26362 168.278396,161.224886 C169.322078,160.861955 169.781047,161.09348 170.265164,162.075897 C172.968678,167.569924 175.741352,173.026406 178.501451,178.495403 C178.834674,179.152433 179.010717,180.078534 179.972665,180.059761 C180.934613,180.040989 180.959762,179.146176 181.230113,178.514175 C185.258139,168.990361 189.284069,159.466547 193.307904,149.942734 C193.398441,149.568689 193.621724,149.239798 193.936628,149.016633 C194.827022,150.140054 194.958137,151.683812 194.269852,152.940044 Z M246.491677,166.468616 C246.982082,167.619983 247.252434,168.696262 246.309347,169.722481 C245.366261,170.7487 244.291143,170.642324 243.083993,170.223076 C237.588944,168.295786 232.075033,166.418556 226.56741,164.528811 C223.423789,163.452533 224.008503,163.602711 222.832789,166.024338 C220.317892,171.205493 217.878442,176.424192 215.420131,181.630377 C214.873141,182.79426 214.162683,183.826736 212.741766,183.789192 C211.32085,183.751647 210.710987,182.681626 210.22687,181.480199 C204.907864,168.802638 199.580475,156.131335 194.244703,143.46629 C193.807063,143.45649 193.370387,143.420969 192.936956,143.359913 C193.370387,143.420969 193.807063,143.45649 194.244703,143.46629 C195.037344,143.370168 195.839707,143.387024 196.627567,143.516349 L196.627567,143.516349 C196.70641,143.90938 196.813569,144.296255 196.948216,144.673974 C201.701371,155.979071 206.460812,167.284168 211.226541,178.589264 C211.471744,179.158691 211.584914,179.909583 212.483989,179.91584 C213.383065,179.922098 213.546533,179.240038 213.842034,178.664354 C216.595845,173.195357 219.374806,167.745132 222.065745,162.251105 C222.600161,161.162312 223.077991,160.912015 224.259992,161.299975 C230.169999,163.26481 236.111442,165.129525 242.046598,167.031785 C242.618737,167.21325 243.222312,167.576181 243.75044,166.99424 C244.278569,166.412299 243.88876,165.817843 243.668706,165.273446 C243.039982,163.715345 242.373534,162.176016 241.725949,160.624173 L230.371191,133.59206 L230.371191,133.59206 C230.822786,133.016062 231.371683,132.522703 231.993299,132.134078 C232.251076,131.777404 232.489991,131.401958 232.760343,131.045284 C232.489991,131.401958 232.257363,131.777404 231.993299,132.134078 C236.830283,143.576838 241.663076,155.021684 246.491677,166.468616 Z" opacity=".68"/>
    <path fill="#FFF" d="M171.479036,129.668936 C171.02944,129.085743 170.416883,128.64872 169.718746,128.413073 C166.782832,124.959449 164.991108,120.789983 162.621002,116.978437 C161.137328,114.592297 158.848951,113.135496 156.447411,111.829398 C154.045872,110.5233 151.7072,109.399303 149.575991,107.785518 C146.571857,105.620322 144.780887,102.154568 144.754052,98.4544542 C144.637688,96.6143548 144.637688,94.7687551 144.754052,92.9286558 C145.199487,88.2449964 143.896402,83.562123 141.095162,79.7797673 C140.056302,78.259591 139.135735,76.6620503 138.341564,75.0012075 C136.539594,71.4719035 136.553641,67.2909351 138.379285,63.7737898 C139.45122,61.6772831 140.64567,59.6455565 141.956447,57.6891323 C143.932798,54.7941418 144.916577,51.3373631 144.760338,47.8368849 C144.634603,45.6391241 144.760338,43.4413634 144.703758,41.2310441 C144.647177,36.2766634 146.853827,32.6032634 151.053378,30.0852575 C152.681646,29.1119635 154.322489,28.1575074 156.019912,27.3286376 C159.656219,25.5941757 162.588979,22.669316 164.330999,19.03994 C165.503356,16.4240134 167.007758,13.9695891 168.807166,11.737095 C171.005745,9.1688473 174.22559,7.69865931 177.60862,7.71833256 C179.398352,7.59897664 181.194061,7.59897664 182.983793,7.71833256 C188.013195,8.23323651 192.357341,6.74503853 196.40601,3.95074274 C197.765256,3.04053571 199.182819,2.22037051 200.649568,1.49553004 C204.572501,-0.551527101 208.495435,-0.444778722 212.430942,1.49553004 C214.431867,2.53373295 216.373294,3.68253688 218.246188,4.93659541 C221.197666,6.91982643 224.70702,7.90779641 228.260984,7.75600846 C230.461348,7.66181872 232.661711,7.75600846 234.868361,7.70577393 C239.841182,7.66181872 243.474925,9.93493124 245.958192,14.1483525 C246.97036,15.8626059 247.982527,17.5894179 248.868959,19.3727438 C250.520295,22.7571035 253.260925,25.4900698 256.651958,27.1339788 C258.817136,28.1816733 260.907223,29.3775934 262.907277,30.7131891 C266.336797,32.9337754 268.374313,36.7665194 268.295024,40.8480058 C268.375768,42.5343839 268.365275,44.223887 268.26359,45.9091348 C267.795069,50.6434998 269.113374,55.3819916 271.9602,59.1961682 C272.820016,60.4670139 273.603063,61.7880228 274.305159,63.1521375 C276.738132,67.6418487 276.492949,72.0750461 273.946814,76.4328916 C272.689464,78.5992558 271.394393,80.746782 270.111895,82.9005875 C268.858337,85.0261629 268.228731,87.4610972 268.295024,89.9271425 C268.326458,92.4828243 268.295024,95.0447854 268.339031,97.6004671 C268.420759,102.567406 266.220396,106.247086 262.052279,108.790209 C260.260554,109.876531 258.412249,110.887501 256.55137,111.854515 C253.525095,113.297636 251.033885,115.660607 249.434766,118.60478 C248.20885,120.959524 246.920066,123.28915 245.662715,125.625056 C245.016917,126.172988 244.472215,126.829683 244.053306,127.565365 C243.429013,127.951741 242.879567,128.44736 242.431324,129.028446 C239.6903,130.868285 236.628652,131.345513 233.397261,131.232486 C231.09631,131.157134 228.795358,131.232486 226.481833,131.232486 C224.897395,131.214762 223.32707,131.531452 221.873644,132.161824 C217.322035,134.158647 213.505976,137.568316 208.671464,139 C207.883653,138.869149 207.080895,138.85434 206.288784,138.956045 C202.422432,138.874414 199.285342,136.908988 196.229981,134.874489 C192.457929,132.362763 188.534996,130.899682 183.914233,131.182251 C180.425085,131.402027 176.885643,131.489938 173.427929,130.585716 C172.866962,130.126937 172.198535,129.817966 171.485323,129.687774"/>
    <path fill="#FCCDD3" d="M244.532595,126 C246.838499,131.498524 249.146477,136.997049 251.456528,142.495573 C254.075554,148.772428 256.657254,155.049282 259.313605,161.257091 C260.228087,163.403775 260.396053,165.46886 258.772381,167.264041 C257.14871,169.059221 255.176664,169.084329 253.036653,168.318552 C247.935462,166.504541 242.803167,164.765853 237.714418,162.914181 C236.470226,162.45597 235.953886,162.788644 235.431325,163.943585 C233.086021,169.096882 230.672287,174.218795 228.252332,179.334432 C227.281862,181.380686 225.583539,182.140186 223.387539,181.976987 C221.440377,181.83262 220.23351,180.721617 219.518099,179.001759 C215.735753,169.921242 211.959628,160.836542 208.189724,151.747657 C208.015537,151.327107 207.797803,150.925389 207.486755,150.28515 C206.186573,153.379639 204.961043,156.260715 203.754176,159.154345 C201.023173,165.751319 198.310833,172.335739 195.567388,178.93899 C194.915011,180.838916 193.104178,182.081652 191.113178,181.995818 C188.892293,181.995818 187.542344,180.928753 186.640305,178.989205 C184.245233,173.854738 181.794174,168.751655 179.417765,163.617188 C178.976077,162.663107 178.528168,162.518739 177.551476,162.870243 C172.170342,164.803514 166.758104,166.636355 161.345865,168.519412 C159.592998,169.240845 157.579833,168.770741 156.319326,167.34564 C154.966919,165.944088 154.617437,163.843366 155.44217,162.073082 C159.863202,151.490306 164.265571,140.89916 168.649277,130.299645 C168.867011,129.784943 169.159396,129.301625 169.414455,128.805754 C170.105287,129.041309 170.711434,129.47816 171.156325,130.061125 C168.978988,135.390174 166.80165,140.731777 164.618092,146.048273 C162.359882,151.515413 160.064347,156.963723 157.775032,162.424586 C157.277355,163.617188 157.109389,164.834898 158.117185,165.858025 C159.124981,166.881153 160.107893,166.485711 161.227667,166.12793 C166.826534,164.13189 172.518716,162.21745 178.136247,160.183749 C179.567068,159.66277 180.270037,159.938952 180.917018,161.370075 C183.405403,166.899983 186.043092,172.3734 188.61235,177.871925 C189.122469,178.957821 189.856543,179.805196 191.100736,179.786365 C192.21082,179.736981 193.166457,178.979738 193.477144,177.903309 C197.502108,168.205569 201.483524,158.488998 205.576919,148.816366 C206.234309,147.553549 206.092903,146.018543 205.216103,144.899609 C204.901146,145.120125 204.679259,145.451467 204.594006,145.828583 C200.61259,155.381955 196.629099,164.933236 192.643535,174.482423 C192.376033,175.110109 192.295161,176.020253 191.399342,176.039083 C190.503523,176.057914 190.279568,175.122662 189.949857,174.463593 C187.218854,168.983899 184.469188,163.510482 181.800395,157.993127 C181.32138,157.007661 180.86725,156.775417 179.83457,157.139475 C176.873391,158.187709 173.881107,159.129237 170.901266,160.10215 C167.921424,161.075062 164.829605,162.047975 161.799995,163.039718 C161.289876,163.202916 160.804641,163.347284 160.394058,162.889073 C160.10993,162.512652 160.085192,161.99846 160.331848,161.596041 C160.487372,161.213153 160.618012,160.830265 160.773536,160.453654 C164.858636,150.611546 168.947883,140.777808 173.041277,130.952438 C176.462807,131.856305 179.96521,131.768429 183.417845,131.548739 C187.990254,131.266281 191.890798,132.735065 195.604714,135.23953 C198.61566,137.27323 201.719921,139.237886 205.558256,139.319485 C210.829486,152.032207 216.094495,164.747022 221.353283,177.463929 C221.85096,178.669085 222.42951,179.73615 223.841669,179.773812 C225.253828,179.811473 225.950576,178.782069 226.49802,177.614574 C228.930417,172.385954 231.344151,167.157334 233.832537,161.960099 C234.989636,159.530956 234.417308,159.374035 237.52779,160.453654 C242.977354,162.33671 248.426918,164.219766 253.870262,166.165591 C255.064687,166.592417 256.134693,166.680293 257.055395,165.663443 C257.976098,164.646593 257.727259,163.560697 257.242024,162.399479 C252.451882,150.925389 247.682476,139.44293 242.933807,127.952102 C243.348033,127.218297 243.884694,126.562147 244.520153,126.012554"/>
    <path fill="#FCCDD3" d="M241.470719,129.019041 L252.72112,156.438352 C253.34441,158.006077 254.03003,159.567454 254.647088,161.15422 C254.86524,161.706415 255.270379,162.315733 254.734349,162.893315 C254.198319,163.470898 253.606193,163.12181 253.038998,162.931398 C247.161365,161.027279 241.265033,159.12316 235.406099,157.123835 C234.240545,156.72397 233.760611,156.9842 233.237047,158.082242 C230.569362,163.66131 227.814417,169.189602 225.07817,174.730587 C224.791456,175.320864 224.604469,176 223.738094,176 C222.87172,176 222.715897,175.238352 222.491513,174.66077 C217.746191,163.197974 213.023724,151.728832 208.324111,140.253342 C208.189791,139.869962 208.081499,139.477635 208,139.079136 C212.805573,137.632005 216.588948,134.18555 221.089108,132.167184 C222.530086,131.53001 224.086962,131.209904 225.65783,131.227819 C227.939075,131.227819 230.220319,131.170695 232.51403,131.227819 C235.717745,131.342066 238.746938,130.853342 241.470719,129"/>
    <path fill="#6534FF" d="M161 70.1028149C161 66.2361146 161.043371 62.3630858 161 58.4963855 161 57.3762448 161.229248 56.9775507 162.406469 57.0028646 165.832802 57.0851348 169.26533 57.0028646 172.697859 57.0028646 174.052241 56.956879 175.368367 57.4661208 176.352984 58.4171234 177.3376 59.3681261 177.9089 60.6818748 177.93959 62.0656473 178.020137 64.2806148 178.020137 66.4955822 177.93959 68.7168781 177.859828 71.48638 175.652034 73.6967055 172.939499 73.7227046 170.622232 73.7796609 168.29877 73.8049748 165.975308 73.7227046 164.804282 73.6784052 164.525467 74.1024133 164.562642 75.2288824 164.636993 77.4944777 164.618405 79.7664015 164.562642 82.0319967 164.531663 82.9939254 164.172301 83.8735839 163.001276 83.9811681 162.171506 84.107291 161.377921 83.5885286 161.142506 82.7661002 161.046495 82.3668226 161.01924 81.9535259 161.061959 81.5447039 161.061959 77.7476168 161.061959 73.9315444 161.061959 70.0964864M164.482096 65.3374707C164.482096 66.6031664 164.482096 67.9068329 164.482096 69.1978425 164.482096 69.9382745 164.636993 70.3369686 165.485831 70.3179832 167.846469 70.2800123 170.219499 70.3179832 172.586333 70.3179832 173.125435 70.3669089 173.658642 70.1734051 174.046666 69.78802 174.43469 69.4026349 174.638989 68.8636476 174.606196 68.3118555 174.668155 66.413312 174.680547 64.5147685 174.606196 62.616225 174.665461 62.0343384 174.458771 61.4570393 174.045968 61.051478 173.633166 60.6459168 173.060358 60.4573902 172.493394 60.540484 170.225695 60.540484 167.957995 60.5784549 165.677904 60.540484 164.742323 60.540484 164.438724 60.9075358 164.438724 61.8061797 164.488292 62.9832767 164.438724 64.1730306 164.438724 65.3564561M202.179744 67.267286C200.87696 64.6276693 199.574175 61.9753926 198.167168 59.367426 197.579616 58.2521308 196.541407 57.4243766 195.301042 57.0822902L195.151222 57.0443101 195.033971 57.0443101 194.819012 57 194.753872 57 194.519371 57 194.454232 57 194.2523 57 193.718159 57 193.516227 57 193.451088 57 193.216587 57 193.151447 57 192.936488 57.0443101 192.819237 57.0443101 192.669417 57.0822902C191.429052 57.4243766 190.390843 58.2521308 189.803291 59.367426 188.415826 61.9753926 187.113041 64.6276693 185.810257 67.267286 184.748571 69.2760153 184.729239 71.6548189 185.758145 73.6795922 186.950193 76.1546285 188.220408 78.5853546 189.445025 81.0477309 190.370002 82.9087556 191.750954 84.0608185 194.004771 83.9975183 196.258589 84.0608185 197.63954 82.9087556 198.564517 81.0477309 199.789135 78.5853546 201.05935 76.1546285 202.251397 73.6795922 203.27419 71.6518178 203.247609 69.2729992 202.179744 67.267286zM193.98523 80.4970195L193.98523 80.4970195C193.385949 80.4970195 193.118878 79.9906182 192.871349 79.515867 191.666273 77.167431 190.441656 74.8253251 189.230066 72.4768892 189.177955 72.3692789 189.125843 72.2553386 189.080246 72.1477283 188.839054 71.565166 188.728035 70.9394392 188.75455 70.3120237 188.793633 70.039833 188.826203 69.7613123 188.884828 69.4954516 188.93428 69.3271198 188.995212 69.1621745 189.067218 69.0017104 190.370002 66.4190638 191.62719 63.8427473 192.975572 61.3044109 193.262184 60.7726895 193.626964 60.4941688 193.998257 60.4815088 194.369551 60.4688488 194.734331 60.7726895 195.020943 61.3044109 196.382353 63.8364173 197.665596 66.4190638 198.929297 69.0017104 199.002704 69.1724653 199.063651 69.3480296 199.111687 69.5271017 199.170312 69.7929624 199.202882 70.0714831 199.241965 70.3436738 199.268479 70.9710893 199.157461 71.596816 198.916269 72.1793784 198.870672 72.2869887 198.81856 72.400929 198.766449 72.5085392 197.554859 74.8569752 196.330242 77.1990811 195.125166 79.5475171 194.877637 80.0222683 194.610566 80.5033495 194.011285 80.5286695L193.98523 80.4970195z"/>
    <path fill="#6534FF" d="M171.479036,129.668936 C171.02944,129.085743 170.416883,128.64872 169.718746,128.413073 C166.782832,124.959449 164.991108,120.789983 162.621002,116.978437 C161.137328,114.592297 158.848951,113.135496 156.447411,111.829398 C154.045872,110.5233 151.7072,109.399303 149.575991,107.785518 C146.571857,105.620322 144.780887,102.154568 144.754052,98.4544542 C144.637688,96.6143548 144.637688,94.7687551 144.754052,92.9286558 C145.199487,88.2449964 143.896402,83.562123 141.095162,79.7797673 C140.056302,78.259591 139.135735,76.6620503 138.341564,75.0012075 C136.539594,71.4719035 136.553641,67.2909351 138.379285,63.7737898 C139.45122,61.6772831 140.64567,59.6455565 141.956447,57.6891323 C143.932798,54.7941418 144.916577,51.3373631 144.760338,47.8368849 C144.634603,45.6391241 144.760338,43.4413634 144.703758,41.2310441 C144.647177,36.2766634 146.853827,32.6032634 151.053378,30.0852575 C152.681646,29.1119635 154.322489,28.1575074 156.019912,27.3286376 C159.656219,25.5941757 162.588979,22.669316 164.330999,19.03994 C165.503356,16.4240134 167.007758,13.9695891 168.807166,11.737095 C171.005745,9.1688473 174.22559,7.69865931 177.60862,7.71833256 C179.398352,7.59897664 181.194061,7.59897664 182.983793,7.71833256 C188.013195,8.23323651 192.357341,6.74503853 196.40601,3.95074274 C197.765256,3.04053571 199.182819,2.22037051 200.649568,1.49553004 C204.572501,-0.551527101 208.495435,-0.444778722 212.430942,1.49553004 C214.431867,2.53373295 216.373294,3.68253688 218.246188,4.93659541 C221.197666,6.91982643 224.70702,7.90779641 228.260984,7.75600846 C230.461348,7.66181872 232.661711,7.75600846 234.868361,7.70577393 C239.841182,7.66181872 243.474925,9.93493124 245.958192,14.1483525 C246.97036,15.8626059 247.982527,17.5894179 248.868959,19.3727438 C250.520295,22.7571035 253.260925,25.4900698 256.651958,27.1339788 C258.817136,28.1816733 260.907223,29.3775934 262.907277,30.7131891 C266.336797,32.9337754 268.374313,36.7665194 268.295024,40.8480058 C268.375768,42.5343839 268.365275,44.223887 268.26359,45.9091348 C267.795069,50.6434998 269.113374,55.3819916 271.9602,59.1961682 C272.820016,60.4670139 273.603063,61.7880228 274.305159,63.1521375 C276.738132,67.6418487 276.492949,72.0750461 273.946814,76.4328916 C272.689464,78.5992558 271.394393,80.746782 270.111895,82.9005875 C268.858337,85.0261629 268.228731,87.4610972 268.295024,89.9271425 C268.326458,92.4828243 268.295024,95.0447854 268.339031,97.6004671 C268.420759,102.567406 266.220396,106.247086 262.052279,108.790209 C260.260554,109.876531 258.412249,110.887501 256.55137,111.854515 C253.525095,113.297636 251.033885,115.660607 249.434766,118.60478 C248.20885,120.959524 246.920066,123.28915 245.662715,125.625056 C245.016917,126.172988 244.472215,126.829683 244.053306,127.565365 C243.429013,127.951741 242.879567,128.44736 242.431324,129.028446 C239.6903,130.868285 236.628652,131.345513 233.397261,131.232486 C231.09631,131.157134 228.795358,131.232486 226.481833,131.232486 C224.897395,131.214762 223.32707,131.531452 221.873644,132.161824 C217.322035,134.158647 213.505976,137.568316 208.671464,139 C207.883653,138.869149 207.080895,138.85434 206.288784,138.956045 C202.422432,138.874414 199.285342,136.908988 196.229981,134.874489 C192.457929,132.362763 188.534996,130.899682 183.914233,131.182251 C180.425085,131.402027 176.885643,131.489938 173.427929,130.585716 C172.866962,130.126937 172.198535,129.817966 171.485323,129.687774 M183.662762,10.4812318 C181.179495,10.4812318 179.482072,10.4121593 177.797222,10.4812318 C174.729287,10.6382147 172.170579,11.7810503 170.347421,14.3932459 C168.963777,16.4220785 167.728372,18.5479044 166.65081,20.7541934 C164.749569,24.5930005 161.633883,27.6983801 157.786489,29.5891915 C156.051346,30.4620165 154.385356,31.4729864 152.69422,32.4211632 C149.154778,34.4242651 147.495076,37.4948508 147.526509,41.5261719 C147.526509,44.1383675 147.526509,46.7505631 147.570517,49.3564794 C147.62047,52.1874265 146.870963,54.9751687 145.407874,57.4002837 C144.238538,59.3782684 143.069202,61.3625323 141.849572,63.3153997 C139.334871,67.3530002 139.215423,71.378042 141.811851,75.428201 C142.440527,76.3763778 142.912033,77.3999064 143.572142,78.3104072 C146.636782,82.4203368 148.067995,87.5187344 147.589377,92.6209693 C147.451068,94.2473122 147.526509,95.8987724 147.539083,97.537674 C147.570517,101.028974 148.796433,103.936297 151.820361,105.882885 C152.95572,106.667938 154.1471,107.368909 155.38495,107.980177 C160.99902,110.491904 165.204857,114.359963 167.706985,120.030185 C168.273834,121.181491 168.903455,122.300889 169.59301,123.38334 C171.592198,126.849523 174.660133,128.450748 178.6145,128.450748 C181.324091,128.450748 184.039968,128.450748 186.755845,128.413073 C189.574029,128.417677 192.336479,129.197634 194.74002,130.667347 C196.726634,131.8353 198.706961,133.009532 200.662141,134.22144 C204.566214,136.651536 208.457714,136.682932 212.368074,134.252837 C213.845461,133.336057 215.373142,132.494628 216.825382,131.546451 C220.053003,129.322227 223.922998,128.219082 227.839772,128.406793 C230.033848,128.53238 232.240499,128.457028 234.447149,128.463307 C238.464383,128.463307 241.570039,126.862081 243.575513,123.320547 C244.537386,121.625132 245.543267,119.961113 246.410839,118.228021 C248.274674,114.376339 251.372096,111.256063 255.212292,109.361627 C256.99773,108.476243 258.726587,107.477832 260.44287,106.448024 C263.221615,104.790284 265.08878,102.504613 265.403118,99.1388997 C265.698595,95.9992415 265.497419,92.9035385 265.484845,89.7827183 C265.454242,86.6818354 266.304387,83.6358195 267.936679,80.9979547 C269.131162,79.0325286 270.300498,77.0482647 271.488694,75.0765593 C273.689057,71.4282765 273.802219,67.7423178 271.639576,64.0375211 C270.690277,62.4048989 269.75355,60.7722766 268.703663,59.1836096 C266.448532,55.9145511 265.328869,51.9970568 265.516279,48.0315437 C265.648301,45.7835484 265.598007,43.5292738 265.566573,41.2749993 C265.516279,37.8527718 264.309223,34.9956829 261.360736,33.0365362 C259.339898,31.7428264 257.247242,30.56461 255.092844,29.5075604 C251.398334,27.6582411 248.399805,24.6676625 246.54286,20.9802487 C245.580987,19.0964538 244.537386,17.3005694 243.474925,15.4921262 C241.827796,12.6789925 239.445117,10.8893873 236.125712,10.5817008 C234.868361,10.4686731 233.567003,10.5126284 232.284506,10.4875111 C229.524622,10.4372766 226.745877,10.7135665 223.998566,10.3430868 C220.60372,9.8784174 217.711814,8.16416403 215.02737,6.198738 C209.325286,1.99159603 203.818091,1.93508218 198.116006,6.198738 C193.620978,9.54561363 188.591576,11.3666154 183.656476,10.5189077"/>
    <path fill="#6534FF" d="M235.045948 70.0511255C235.045948 66.1824804 235.091828 62.3138352 235.013176 58.4451901 235.013176 57.2485061 235.386775 56.9762446 236.553452 57.0015713 240.184572 57.0712196 243.815692 57.0015713 247.446812 57.0015713 248.878416 56.9676214 250.264717 57.4876601 251.297424 58.4460391 252.330132 59.4044182 252.923627 60.7216812 252.945926 62.1048904 253.018025 64.2703186 253.018025 66.4420785 252.945926 68.6075067 252.910151 71.4358143 250.532105 73.7133267 247.604117 73.7234891 245.093794 73.7741424 242.583471 73.7678108 240.079702 73.7234891 239.103101 73.7234891 238.768829 74.0084139 238.768829 74.9898214 238.827818 77.2059029 238.821264 79.4219844 238.768829 81.6443976 238.736057 82.8284183 238.493545 84.0187706 236.881171 83.9997756 235.465427 83.9997756 234.993513 83.1070114 235.000067 81.8280158 235.000067 77.9087173 235.000067 73.9830873 235.000067 70.0637888M238.611524 65.4163493C238.611524 66.6826816 238.644296 67.9870039 238.611524 69.2723311 238.611524 70.0891155 238.919579 70.3487136 239.738875 70.3360503 242.190209 70.3360503 244.641542 70.3360503 247.086322 70.3360503 247.687127 70.4213568 248.295027 70.2337093 248.733302 69.8276579 249.171576 69.4216065 249.391048 68.842713 249.327915 68.2592653 249.386905 66.3597669 249.406568 64.4602685 249.327915 62.56077 249.268926 61.2437844 248.502065 60.521975 247.033887 60.5473017 244.693977 60.5852917 242.347514 60.5916233 240.007604 60.5473017 238.958905 60.5473017 238.572198 60.8892114 238.624633 61.8959456 238.683622 63.0736346 238.624633 64.2639869 238.624633 65.4480076M227.897353 81.6983941C225.708891 73.889133 223.483126 66.0862004 221.269795 58.2832677 220.927848 57.0808693 220.026351 56.8403897 218.994292 57.0871977 218.14875 57.2960354 217.92493 58.1060722 217.707327 58.8591533 216.289801 63.7404688 214.868129 68.6196748 213.442313 73.4967714 212.665161 76.1547047 211.850705 78.8063095 211.117073 81.4768996 210.818646 82.5780434 211.048683 83.6032462 212.298345 83.9196668 213.392576 84.198117 214.163511 83.7551281 214.437069 82.5527297 214.710627 81.3503314 215.139615 80.2998149 215.425607 79.1543722 215.461668 78.822791 215.631446 78.5213637 215.894348 78.322161 216.157249 78.1229584 216.489641 78.0438881 216.812047 78.1038557 218.586028 78.1460452 220.357936 78.1460452 222.127771 78.1038557 222.960879 78.1038557 223.420953 78.3063649 223.595036 79.2239848 223.842043 80.3275784 224.151345 81.4157609 224.521402 82.4831172 224.776308 83.3121392 225.192861 84.0019362 226.200051 83.982951 226.767564 84.0271187 227.318187 83.7744689 227.661497 83.3123762 228.004807 82.8502834 228.093669 82.2421897 227.897353 81.6983941L227.897353 81.6983941zM222.208595 75.085203L216.774744 75.085203C216.64017 75.0838431 216.514272 75.0173475 216.435701 74.9061303 216.35713 74.7949131 216.335274 74.6522632 216.376842 74.5219742L219.137288 66.0482299C219.174306 65.9380125 219.252482 65.8470706 219.354891 65.7950934L219.354891 65.7950934 219.354891 65.7950934C219.443906 65.7664555 219.539433 65.7664555 219.628448 65.7950934L219.71549 65.7950934 219.71549 65.8393923C219.797312 65.8957504 219.858519 65.9780779 219.889572 66.0735435L222.55676 74.5409595C222.592569 74.6608307 222.574461 74.7906852 222.507294 74.8956783 222.440128 75.0006714 222.330781 75.0700521 222.208595 75.085203L222.208595 75.085203z"/>
    <path fill="#62BCF9" fill-rule="nonzero" d="M273.40341,314.563971 C286.23739,324.141977 318.202805,312.690828 327.02302,292.65444 C334.03138,276.726479 320.253726,269.37127 324.166831,247.861343 C328.985864,221.425049 352.477079,217.847345 358.950689,192.747226 C364.990209,169.314205 356.641831,142.528258 347.400108,141.060962 C337.75575,139.537472 334.553546,166.804193 304.494354,196.443562 C283.418947,217.229208 275.674521,213.014636 267.376473,228.861427 C257.134454,248.442017 261.123054,269.833312 266.237772,297.224909 C268.320148,308.357624 270.050219,312.060203 273.40341,314.563971 Z"/>
    <path fill="#52D2BC" fill-rule="nonzero" d="M143.644012,197.021358 C146.106619,199.64753 147.394175,203.007766 148.519224,206.40597 C150.069291,211.00019 150.600564,216.024722 149.144251,220.713864 C144.437796,235.901368 121.118032,242.526917 104.204797,239.128713 C86.9415466,235.6609 85.5102344,223.586834 69.9595584,222.878084 C55.04641,222.194646 52.1962861,233.104336 36.7831161,232.629727 C25.0701068,232.250039 9.99445144,225.447303 3.61292401,210.962221 C-2.76860342,196.477139 -0.0684860338,177.461118 6.81931341,175.208305 C13.8571194,172.904867 18.3760658,190.395809 34.6455231,193.623154 C49.6461753,196.616358 53.9338617,183.320963 71.0283548,184.959948 C88.5916184,186.636902 94.4731241,201.659875 107.411187,197.957921 C111.673872,196.736592 114.342738,193.483935 117.999147,191.243778 C122.505593,188.484715 128.118337,188.845418 132.999799,190.383153 C133.595658,190.568778 134.183184,190.779715 134.762376,191.015965 C138.023232,192.326958 140.979558,194.309463 143.444003,196.837842 L143.644012,197.021358 Z"/>
    <path fill="#3E1EC4" fill-rule="nonzero" d="M161.999991,225.543628 L161.999991,198.456372 C162.003991,195.974134 160.696213,193.679342 158.571598,192.440481 L135.425279,178.92835 C133.307633,177.69055 130.698584,177.69055 128.580938,178.92835 L105.434619,192.459379 C103.307609,193.696634 101.997284,195.991729 102.000004,198.47527 L102.000004,225.562526 C101.997284,228.046067 103.307609,230.341163 105.434619,231.578417 L128.562271,245.07165 C130.679918,246.30945 133.288966,246.30945 135.406613,245.07165 L158.552932,231.54692 C160.680877,230.315123 161.995696,228.025275 161.999991,225.543628 Z" opacity=".32"/>
    <path fill="#F9879A" fill-rule="nonzero" d="M162.999952,223.526627 L162.999952,196.473373 C163.002674,193.990062 161.69167,191.69518 159.563558,190.45804 L136.436375,176.928264 C134.317631,175.690579 131.707231,175.690579 129.588488,176.928264 L106.430178,190.45804 C104.304462,191.696786 102.996007,193.991365 103.000009,196.473373 L103.000009,223.526627 C102.996007,226.008635 104.304462,228.303214 106.430178,229.54196 L129.588488,243.071736 C131.707231,244.309421 134.317631,244.309421 136.436375,243.071736 L159.594685,229.54196 C161.710817,228.296808 163.00909,226.003437 162.999952,223.526627 Z"/>
    <path stroke="#FFF" stroke-linecap="round" stroke-linejoin="round" stroke-width="1.51" d="M161.999996,195.250374 C162.002716,192.793356 160.692391,190.522771 158.565381,189.29873 L135.419062,175.918436 C133.301416,174.693855 130.692367,174.693855 128.574721,175.918436 L105.428402,189.29873 C103.303787,190.52436 101.996009,192.794645 102.000009,195.250374 L102.000009,222.048355 C101.996009,224.504085 103.303787,226.774369 105.428402,228"/>
    <polygon fill="#FFF" fill-rule="nonzero" points="152.186 214.87 155 209.997 152.186 205.124 152.186 199.495 147.313 196.687 144.498 191.808 138.87 191.808 133.997 189 129.124 191.808 123.495 191.808 120.687 196.687 115.814 199.495 115.814 205.124 113 209.997 115.814 214.87 115.814 220.498 120.687 223.313 123.495 228.186 129.124 228.186 133.997 231 138.87 228.186 144.498 228.186 147.313 223.313 152.186 220.498"/>
    <polyline stroke="#6535FF" stroke-linecap="round" stroke-linejoin="round" stroke-width="1.51" points="151 198.452 146.15 195.651 143.349 190.801 137.754 190.801 132.904 188 128.054 190.801 122.452 190.801 119.651 195.651 114.801 198.452 114.801 204.047 112 208.897 114.801 213.747 114.801 219.349 119.651 222.15 122.452 227 128.054 227"/>
    <circle cx="134" cy="209" r="8" fill="#62BCF9" fill-rule="nonzero"/>
    <path stroke="#6535FF" stroke-linecap="round" stroke-linejoin="round" stroke-width="1.51" d="M129.953671,216 C127.736411,214.226159 126.647661,211.407606 127.101501,208.616309 C127.55534,205.825013 129.482026,203.48993 132.148787,202.499154 C134.815549,201.508379 137.812568,202.014169 140,203.82416"/>
    <path fill="#6534FF" fill-rule="nonzero" d="M161.480204,190.423171 L137.61906,176.876616 C136.799326,176.412054 135.892884,176.113949 134.953549,176 C134.451068,177.049931 134.086329,178.158235 133.868076,179.298347 C133.135863,183.164286 133.919459,187.150051 135.030624,190.927699 C136.141789,194.705346 137.599792,198.401008 138.242083,202.279561 C139.137422,207.59886 138.508066,213.057852 136.424397,218.046036 C133.681811,224.516597 128.626974,229.965491 126.700098,236.726155 C126.350678,237.964091 126.116351,239.230599 126,240.510109 L130.496043,243.070585 C132.682027,244.309805 135.37527,244.309805 137.561254,243.070585 L161.454512,229.52403 C163.650162,228.285356 165.002771,225.987627 164.999964,223.501236 L164.999964,196.445965 C165.008064,193.964784 163.665965,191.668267 161.480204,190.423171 Z" opacity=".32"/>
    <path stroke="#FFF" stroke-linecap="round" stroke-linejoin="round" stroke-width="1.51" d="M137,240 L159,227"/>
    <path stroke="#6534FF" stroke-linecap="round" stroke-linejoin="round" stroke-width="2.29" d="M116 307C75.1378453 302.375618 32.9474513 250.656888 39.7202187 203.127822 43.2099796 178.619859 59.5686251 156.316984 78.3895255 144M306 37C338.664476 64.6906459 312.415561 112.591704 354 153"/>
    <rect width="50" height="7" x="100" y="303" fill="#62BCF9" fill-rule="nonzero"/>
    <rect width="33" height="7" x="100" y="317" fill="#62BCF9" fill-rule="nonzero"/>
    <rect width="33" height="7" x="60" y="141" fill="#62BCF9" fill-rule="nonzero"/>
    <rect width="33" height="7" x="60" y="129" fill="#62BCF9" fill-rule="nonzero"/>
    <rect width="33" height="7" x="361" y="267" fill="#6534FF" fill-rule="nonzero"/>
    <rect width="33" height="7" x="60" y="116" fill="#62BCF9" fill-rule="nonzero"/>
    <path fill="#3E1EC4" fill-rule="nonzero" d="M382.999987,154.919927 C383.006921,151.539792 380.278062,148.791162 376.898208,148.773941 L376.579365,148.773941 C376.681284,148.744092 376.781468,148.708608 376.879453,148.667652 C379.900906,147.343124 381.32904,143.862079 380.108479,140.79697 C378.887919,137.731861 375.457886,136.185672 372.353134,137.301018 C373.683149,135.889417 374.268012,133.932325 373.930621,132.02236 C373.593231,130.112394 372.373265,128.474167 370.640134,127.603741 C370.386161,127.470908 370.120349,127.362063 369.846153,127.278623 C367.648189,126.560128 365.232994,127.134986 363.594331,128.766664 C363.519309,128.841691 363.456791,128.916718 363.381769,128.997998 C363.430632,128.906679 363.47446,128.812755 363.513057,128.716646 C364.849285,125.608913 363.41338,122.006293 360.305873,120.669969 C357.198365,119.333644 353.596006,120.769653 352.259777,123.877385 C352.128155,120.572424 349.395002,117.969843 346.0878,118.000264 C342.780597,118.030685 340.095775,120.683103 340.024962,123.989926 C340.024962,124.102467 340.024962,124.208756 340.024962,124.315045 C339.987451,124.215008 339.956191,124.108719 339.912429,124.008683 C339.154036,122.191109 337.57059,120.847106 335.654034,120.394226 C333.737478,119.941347 331.719989,120.434454 330.228356,121.720351 C330.000113,121.907916 329.790726,122.117319 329.603174,122.345578 C328.11162,124.068032 327.69535,126.474388 328.521609,128.597852 C326.886691,127.031438 324.522972,126.490914 322.369816,127.191091 C322.097412,127.271268 321.833563,127.378072 321.582086,127.509957 C319.817689,128.388474 318.58169,130.060017 318.258666,132.004492 C317.935641,133.948966 318.564792,135.930401 319.950361,137.332279 L320.18793,137.551109 C320.094153,137.501091 320.000375,137.451073 319.900346,137.407307 C316.792839,136.070982 313.190479,137.506991 311.854251,140.614723 C310.518023,143.722455 311.953928,147.325075 315.061436,148.6614 C311.681158,148.694204 308.967493,151.461251 309.000294,154.841773 C309.033096,158.222295 311.799943,160.936157 315.18022,160.903353 L315.499063,160.903353 L315.192724,161.009642 C312.621148,162.2152 311.215147,165.030148 311.795884,167.81044 C312.376621,170.590732 314.791832,172.607405 317.630935,172.682638 C318.385516,172.680226 319.13335,172.540395 319.837828,172.269988 C318.49258,173.677481 317.894622,175.639672 318.226282,177.558259 C318.557942,179.476846 319.779902,181.124389 321.519568,181.998526 C321.774258,182.129813 322.039928,182.238599 322.313549,182.323644 C324.511635,183.039158 326.925257,182.464675 328.565372,180.835603 L328.784185,180.591764 C328.734171,180.691801 328.684156,180.785585 328.640393,180.885621 C327.815266,182.882094 328.097653,185.16509 329.38436,186.900309 C329.640343,187.254041 329.938458,187.575273 330.272119,187.856907 L322.769932,203.56262 C322.589625,203.941555 322.646201,204.390768 322.914836,204.713154 C323.183471,205.035539 323.615086,205.172197 324.020297,205.063166 L332.066392,202.849861 C332.570782,202.713948 333.099522,202.962474 333.316756,203.437574 L336.93031,211.321692 C337.108039,211.69768 337.486615,211.937477 337.902468,211.937477 C338.318321,211.937477 338.696897,211.69768 338.874626,211.321692 L345.945437,196.528811 L352.903715,211.384215 C353.081445,211.760202 353.46002,212 353.875873,212 C354.291727,212 354.670302,211.760202 354.848032,211.384215 L358.517851,203.518854 C358.743152,203.052436 359.267473,202.811231 359.768216,202.943645 L367.801807,205.21322 C368.205377,205.320407 368.634507,205.184254 368.90248,204.864002 C369.170454,204.543751 369.228815,204.09731 369.052172,203.718927 L361.675022,188.006962 L361.850073,187.869412 C362.078316,187.681846 362.287703,187.472444 362.475255,187.244184 C363.949171,185.530436 364.362267,183.14535 363.550568,181.035676 C365.184807,182.603351 367.54927,183.144044 369.702361,182.442438 C369.971572,182.356342 370.233,182.24758 370.483839,182.117319 C372.249026,181.241526 373.486588,179.571607 373.810934,177.627865 C374.135281,175.684122 373.506989,173.702809 372.121816,172.301249 C372.040543,172.219969 371.959269,172.157447 371.884247,172.082419 C371.978024,172.126185 372.071802,172.182456 372.171831,172.219969 C373.671426,172.849394 375.361102,172.849394 376.860697,172.219969 C378.36335,171.602234 379.556472,170.409025 380.174163,168.906264 L380.174163,168.906264 C381.417874,165.85495 380.025846,162.366343 377.023245,161.009642 C380.335126,160.931846 382.983981,158.232922 382.999987,154.919927 L382.999987,154.919927 Z" opacity=".32"/>
    <path fill="#FCCDD3" fill-rule="nonzero" d="M370.658645,204.230241 L362.737106,201.974672 C362.242906,201.837404 361.72264,202.079298 361.504182,202.54791 L357.879384,210.386324 C357.704133,210.761024 357.330838,211 356.920785,211 C356.510732,211 356.137437,210.761024 355.962186,210.386324 L346.098791,189.201422 C345.853046,188.66447 346.081399,188.027668 346.610455,187.774556 L360.671958,181.101312 C360.926057,180.980521 361.217335,180.967191 361.481195,181.064277 C361.745054,181.161363 361.959686,181.360842 362.077491,181.618473 L371.897734,202.747298 C372.075541,203.125021 372.018228,203.57296 371.751201,203.892537 C371.484175,204.212115 371.056842,204.344201 370.658645,204.230241 L370.658645,204.230241 Z"/>
    <path fill="#FCCDD3" fill-rule="nonzero" d="M327.335301,204.147931 L335.244045,201.943791 C335.739344,201.813807 336.255769,202.059737 336.473065,202.529071 L340.024933,210.386765 C340.199628,210.761195 340.571741,211 340.980496,211 C341.38925,211 341.761363,210.761195 341.936059,210.386765 L351.897267,189.285558 C352.147528,188.752507 351.924902,188.114782 351.399513,187.859716 L337.468571,181.104092 C336.942479,180.850521 336.313079,181.076092 336.061343,181.608429 L326.100135,202.659825 C325.925052,203.037848 325.982791,203.484509 326.248054,203.804092 C326.513316,204.123676 326.93772,204.257892 327.335301,204.147931 Z"/>
    <path fill="#6534FF" fill-rule="nonzero" d="M351.365024 188.121009L348.863132 187C349.018242 189.380472 348.007389 191.69697 346.11891 193.288737 344.645282 194.520615 342.752489 195.198148 341.206818 196.368432 339.874644 197.444425 338.706575 198.688012 337.735606 200.064066 337.152101 200.749314 336.673695 201.508153 336.314374 202.318403 336.14466 202.777911 336.038988 203.256168 336 203.741222L339.241981 210.393363C339.428171 210.763765 339.82477 211 340.260421 211 340.696072 211 341.092671 210.763765 341.278862 210.393363L351.89553 189.51919C352.153528 188.995051 351.917563 188.373151 351.365024 188.121009L351.365024 188.121009zM362.701249 181.625931C362.523673 181.198224 362.104048 180.947143 361.670892 181.009422 361.621964 181.717439 361.621964 182.428362 361.670892 183.136379 361.762259 186.000709 361.61973 188.868111 361.244934 191.70586 361.066492 193.03752 360.836245 194.418501 361.170104 195.719336 361.832065 198.308675 364.382055 199.671161 366.390964 201.26792 367.132682 201.870409 367.822359 202.543053 368.451679 203.277741L370.754153 203.962066C371.125134 204.071573 371.521678 203.939492 371.769244 203.62396 372.016811 203.308427 372.069996 202.867313 371.90539 202.494774L362.701249 181.625931z" opacity=".32"/>
    <path fill="#6534FF" fill-rule="nonzero" d="M358.974992,172.063083 C356.733811,172.068516 354.602156,173.042106 353.118761,174.737798 C351.118948,173.657176 348.743733,173.54136 346.650031,174.422384 C345.191811,172.892286 343.184667,172.019184 341.081298,172 C336.637562,172 333.018823,175.816516 333.000073,180.554042 C332.981323,185.291568 336.575062,189.145934 341.025048,189.164859 C342.028783,189.165361 343.022756,188.965998 343.950039,188.578188 C345.449824,190.167698 347.543521,191.046149 349.71772,190.99813 C351.891919,190.95011 353.945541,189.980062 355.375004,188.325856 C356.466157,188.91178 357.682782,189.219315 358.918743,189.221633 C363.368729,189.221633 366.987467,185.436659 366.999967,180.6739 C367.012467,175.91114 363.424979,172.082008 358.974992,172.063083 Z" opacity=".32"/>
    <path fill="#F9879A" fill-rule="nonzero" d="M386.999987,153.110971 C387.006928,149.717249 384.270169,146.958533 380.88278,146.944689 L380.563131,146.944689 L380.863978,146.83794 C383.89307,145.507684 385.324815,142.011587 384.101168,138.933224 C382.877522,135.85486 379.438816,134.301985 376.326214,135.422155 C377.675181,134.002985 378.271337,132.026366 377.932527,130.096257 C377.593717,128.166148 376.360202,126.511907 374.608883,125.63899 C374.354103,125.507605 374.087612,125.400389 373.812894,125.318745 C371.609498,124.594134 369.186607,125.171856 367.545265,126.813221 C367.470053,126.882293 367.407377,126.963924 367.338433,127.039276 C367.382307,126.945086 367.42618,126.857176 367.463786,126.756707 C368.801662,123.635536 367.360722,120.018744 364.245358,118.678375 C361.129994,117.338005 357.519929,118.78163 356.182053,121.9028 C356.050098,118.583547 353.310034,115.969713 349.994469,116.000265 C346.678904,116.030818 343.987294,118.694705 343.916302,122.015828 C343.916302,122.128855 343.916302,122.235604 343.916302,122.342352 C343.878696,122.241883 343.847358,122.135135 343.803485,122.034666 C343.045336,120.207199 341.457756,118.855348 339.535339,118.40027 C337.612923,117.945192 335.589305,118.442193 334.094927,119.736438 C333.866107,119.924815 333.65619,120.135123 333.468164,120.364369 C331.985978,122.085614 331.569281,124.484274 332.383864,126.606003 C330.743456,125.035337 328.375243,124.492816 326.216516,125.193159 C325.945049,125.280845 325.680976,125.390031 325.426795,125.519683 C323.658092,126.400477 322.418772,128.078186 322.094864,130.030229 C321.770956,131.982272 322.401817,133.971463 323.790944,135.3782 C323.866155,135.459831 323.953902,135.528903 324.029114,135.597975 L323.740803,135.459831 C320.625438,134.117727 317.01397,135.559946 315.674364,138.681117 C314.334757,141.802287 315.774293,145.420485 318.889658,146.762589 C315.576249,146.895976 312.968101,149.642652 313.000295,152.964758 C313.032488,156.286863 315.693374,158.982288 319.008742,159.051198 L319.328392,159.051198 L319.027545,159.157947 C315.896896,160.456996 314.40769,164.050677 315.699434,167.189184 L315.699434,167.189184 C316.643984,169.478492 318.867755,170.976146 321.340301,170.988167 C322.095278,170.991403 322.843981,170.850759 323.546506,170.573732 C322.197539,171.992902 321.601383,173.969521 321.940193,175.89963 C322.279003,177.829739 323.512518,179.48398 325.263837,180.356897 C325.518617,180.488282 325.785108,180.595498 326.059826,180.677142 C328.263347,181.398744 330.684648,180.8214 332.327455,179.182667 C332.402667,179.107315 332.471611,179.025684 332.546822,178.944053 C332.495791,179.039971 332.449767,179.13848 332.408934,179.23918 C331.576092,181.242679 331.857045,183.537434 333.148515,185.279877 C333.485986,185.742641 333.891755,186.151284 334.351899,186.491783 C335.845947,187.626407 337.775061,188.016123 339.591242,187.550227 C341.407422,187.08433 342.912206,185.813731 343.678132,184.099366 C343.811271,187.418949 346.552838,190.031958 349.868764,189.999705 C353.184689,189.967451 355.875101,187.301606 355.943883,183.980059 C355.943883,183.867032 355.943883,183.760284 355.943883,183.653535 C355.981489,183.754004 356.012827,183.860753 356.0567,183.961221 C357.00125,186.25053 359.225021,187.748184 361.697567,187.760204 C363.189266,187.758824 364.631567,187.224467 365.765258,186.25317 C365.992634,186.063203 366.202408,185.853038 366.392021,185.625239 C367.870766,183.902122 368.284902,181.50434 367.470053,179.383604 C369.109105,180.956792 371.478801,181.499653 373.637401,180.796449 C373.908074,180.714767 374.170401,180.607538 374.420855,180.476204 C376.19066,179.595101 377.431155,177.916898 377.756254,175.963911 C378.081353,174.010924 377.451592,172.020233 376.062973,170.611408 C375.987762,170.536057 375.900015,170.466984 375.824804,170.397912 L376.113114,170.536057 C379.244057,171.83583 382.834155,170.349345 384.13568,167.214302 L384.13568,167.214302 C385.405211,164.135982 383.999663,160.604431 380.96426,159.245857 C384.307559,159.187758 386.990254,156.460991 386.999987,153.110971 L386.999987,153.110971 Z"/>
    <path stroke="#6535FF" stroke-linecap="round" stroke-linejoin="round" stroke-width="2.15" d="M384.999987,153.329663 C385.006974,149.915863 382.257471,147.139857 378.85205,147.122465 L378.524496,147.122465 C378.631581,147.084578 378.732367,147.053005 378.833153,147.008803 C381.898262,145.682434 383.353886,142.151781 382.117235,139.043175 C380.880584,135.93457 377.400764,134.376943 374.266294,135.52896 C375.625186,134.10504 376.227181,132.117942 375.887688,130.17697 C375.548195,128.235998 374.307722,126.572744 372.546636,125.697213 C372.289521,125.565706 372.021935,125.455875 371.746648,125.368857 C369.531935,124.646216 367.100055,125.226422 365.447533,126.871718 C365.371943,126.947493 365.302653,127.029582 365.233363,127.105357 C365.277457,127.010638 365.32785,126.91592 365.365644,126.821202 C366.711981,123.682518 365.265213,120.044017 362.134198,118.694382 C359.003183,117.344748 355.373573,118.79506 354.027237,121.933744 C353.893429,118.595534 351.138089,115.967863 347.805506,116.000297 C344.472923,116.032731 341.768996,118.713535 341.699868,122.05372 C341.699868,122.161068 341.699868,122.268415 341.699868,122.375762 C341.669796,122.272821 341.634046,122.171632 341.592783,122.072664 C340.831406,120.232697 339.234599,118.871426 337.300662,118.413649 C335.366726,117.955871 333.331149,118.457331 331.829155,119.76154 C331.600425,119.952341 331.389577,120.163705 331.199243,120.392995 C329.708504,122.125868 329.289719,124.540383 330.109496,126.675967 C328.460236,125.092853 326.076254,124.546955 323.904868,125.255195 C323.633822,125.34011 323.370421,125.447841 323.117478,125.577237 C321.339734,126.464504 320.094384,128.152695 319.768917,130.116536 C319.443449,132.080377 320.077359,134.081546 321.473409,135.497387 L321.712775,135.718396 C321.616555,135.666984 321.517735,135.620614 321.416717,135.579476 C319.391306,134.707544 317.055715,134.985036 315.289738,136.307424 C313.523762,137.629813 312.595695,139.796195 312.85513,141.990515 C313.114566,144.184836 314.522089,146.073725 316.547501,146.945658 C313.355293,147.268677 310.94346,149.991453 311.001009,153.207224 C311.058557,156.422995 313.566259,159.057301 316.76797,159.265335 C316.881354,159.265335 316.98214,159.265335 317.095524,159.265335 C316.988439,159.303223 316.887653,159.334795 316.786867,159.378997 C313.640491,160.685335 312.143803,164.299182 313.442037,167.4553 L313.442037,167.4553 C314.396761,169.752998 316.628341,171.256791 319.111241,171.2756 C319.87153,171.273165 320.625021,171.131941 321.334828,170.85884 C319.984726,172.284404 319.389702,174.267713 319.731397,176.203332 C320.073092,178.138952 321.310946,179.797115 323.067085,180.671644 C323.320806,180.805772 323.586536,180.915707 323.860774,181"/>
    <circle cx="349.5" cy="154.5" r="28.5" fill="#BBC4EF" fill-rule="nonzero" opacity=".32"/>
    <path stroke="#BBC4EF" stroke-linecap="round" stroke-linejoin="round" stroke-width="2.15" d="M323,144 C325.724327,135.616502 332.245567,129.053784 340.548946,126.339436 C348.852326,123.625088 357.938409,125.085821 365,130.270333"/>
    <path fill="#6534FF" fill-rule="nonzero" d="M386.999987,153.773173 C387.00704,150.35387 384.226263,147.57436 380.784394,147.560411 L380.459604,147.560411 L380.765288,147.452858 C383.8431,146.112575 385.297872,142.590126 384.054545,139.488559 C382.811218,136.386992 379.317205,134.822412 376.154541,135.951025 C377.525204,134.521158 378.130949,132.529641 377.78669,130.584983 C377.44243,128.640325 376.189076,126.973615 374.40959,126.094118 C374.150712,125.961743 373.879935,125.853719 373.600799,125.771459 C371.361963,125.041387 368.900104,125.623464 367.232363,127.2772 C367.155942,127.346793 367.092258,127.429039 367.022205,127.504959 C367.066784,127.41006 367.111363,127.321487 367.149574,127.22026 C367.576646,126.203379 367.719654,125.090869 367.563522,124 C366.369706,125.329811 365.467494,126.891858 364.914253,128.586815 C364.385673,130.313988 364.321988,132.142387 364.060883,133.9265 C363.524584,137.600277 362.15484,141.104923 360.055137,144.175658 C356.648024,149.161051 351.362223,152.938056 349.171481,158.56244 C347.356477,163.218848 347.961478,168.400367 348.012426,173.392086 C348.069946,179.01622 347.393504,184.624044 346,190.075439 C347.918334,191.254399 350.328734,191.309552 352.299672,190.219583 C354.270611,189.129615 355.493346,187.065265 355.495337,184.824327 C355.495337,184.710447 355.495337,184.602894 355.495337,184.495341 C355.533548,184.596568 355.56539,184.704121 355.609969,184.805347 C356.569711,187.111911 358.829248,188.620854 361.341561,188.632965 C362.857252,188.631574 364.32275,188.09319 365.474675,187.114571 C365.705708,186.923173 365.918856,186.711423 366.111519,186.481907 C367.614047,184.745801 368.034844,182.329947 367.20689,180.193226 C368.872303,181.778272 371.280112,182.325224 373.47343,181.61672 C373.748457,181.534422 374.015003,181.426385 374.269484,181.294061 C376.067755,180.406316 377.328201,178.715464 377.658529,176.747756 C377.988857,174.780048 377.348967,172.774352 375.938014,171.354908 C375.861593,171.278988 375.772435,171.209395 375.696014,171.139802 L375.988962,171.278988 C379.170262,172.588559 382.8181,171.090869 384.140559,167.932195 L384.140559,167.932195 C385.430509,164.830673 384.002354,161.272502 380.918131,159.903688 C384.275613,159.818771 386.963376,157.109503 386.999987,153.773173 L386.999987,153.773173 Z" opacity=".1"/>
    <path fill="#6534FF" fill-rule="nonzero" d="M240.493709,300.999967 C238.512526,300.9965 236.595491,300.308312 235.077175,299.055508 L208.025961,276.681845 C206.111339,275.112185 205.002952,272.787197 205,270.334487 L205,222.651896 C204.999983,221.121694 205.996523,219.763843 207.472355,219.283152 C228.90933,212.238949 252.090669,212.238949 273.527644,219.283152 C275.003477,219.763843 276.000017,221.121694 275.999999,222.651896 L275.999999,270.334487 C276.000975,272.785756 274.900061,275.11183 272.992911,276.688038 L245.941697,299.0617 C244.41422,300.319109 242.484914,301.005511 240.493709,300.999967 L240.493709,300.999967 Z"/>
    <polygon fill="#FCCDD3" fill-rule="nonzero" stroke="#6535FF" stroke-linecap="round" stroke-linejoin="round" stroke-width=".41" points="245.362 266.995 234 260 245.2 276 257 260.424"/>
    <polygon fill="#FCCDD3" fill-rule="nonzero" stroke="#6535FF" stroke-linecap="round" stroke-linejoin="round" stroke-width=".41" points="234.019 256.265 234.082 256.265 245.487 263 256.924 256.684 256.987 256.691 256.949 256.672 257 256.646 245.962 237 234 256.22 234.057 256.252"/>
    <path fill="#FCCDD3" fill-rule="nonzero" d="M277.378222,221.354068 L277.378222,221.354068 C256.035565,214.215311 232.958141,214.215311 211.615484,221.354068 L211.615484,221.354068 C208.856933,222.275934 206.997256,224.865247 207.000003,227.780412 L207.000003,274.601824 C207.000143,277.977509 208.489173,281.180366 211.067671,283.351248 L237.167494,305.325811 C241.40656,308.891396 247.587146,308.891396 251.826212,305.325811 L277.932332,283.351248 C280.50872,281.178744 281.997265,277.976932 282,274.601824 L282,227.761474 C281.991771,224.852239 280.131459,222.273194 277.378222,221.354068 L277.378222,221.354068 Z M278.725716,274.601824 C278.727653,277.009303 277.664477,279.293662 275.822937,280.838787 L249.723114,302.813351 C246.699806,305.354148 242.293901,305.354148 239.270592,302.813351 L213.170769,280.838787 C211.330644,279.292572 210.267795,277.008916 210.26799,274.601824 L210.26799,227.761474 C210.268802,226.258834 211.226962,224.924671 212.648143,224.447298 C233.316903,217.537001 255.66421,217.537001 276.33297,224.447298 C277.757854,224.920826 278.719657,226.256527 278.719419,227.761474 L278.725716,274.601824 Z"/>
    <path fill="#BBC4EF" fill-rule="nonzero" d="M281,274.212588 L281,227.562042 C280.999891,224.657651 279.182428,222.079342 276.488393,221.161738 L276.488393,221.161738 C267.955948,218.24934 259.081989,216.51347 250.101024,216 C252.959167,220.179577 254.940983,224.918814 255.921858,229.919718 C257.218791,235.93022 257.458509,242.116761 257.698226,248.26558 C257.827305,251.5789 257.950237,254.929943 257.298697,258.174105 C255.71902,266.051886 249.83672,272.27615 247.021576,279.78299 C244.722746,285.90666 244.562935,292.709341 245.650883,299.172516 C246.116916,301.821144 246.751363,304.435856 247.550184,307 C249.015273,306.56048 250.375569,305.815548 251.545476,304.812077 L277.029294,282.926558 C279.544268,280.762857 280.99733,277.57402 281,274.212588 Z" opacity=".44"/>
    <path fill="#070707" fill-rule="nonzero" d="M219.879636 268.99993L202.4387 264.340615C201.788537 264.337341 201.166345 264.083862 200.709004 263.63594 200.251663 263.188019 199.996638 262.582349 200.000033 261.952175L200.051105 253.369877C200.061624 252.058033 201.16181 250.99996 202.515307 251L219.956243 255.665503C220.373313 255.671606 220.747897 255.91428 220.913204 256.285468 221.078512 256.656657 221.003793 257.087311 220.722316 257.385675L214.446899 259.322415C214.07378 259.713657 214.07378 260.317212 214.446899 260.708453L220.671245 267.292133C220.953281 267.592734 221.024574 268.026816 220.85278 268.397441 220.680985 268.768066 220.298807 269.004678 219.879636 268.99993zM269.122087 255.563907L286.555942 251C287.908849 251.010274 289.000041 252.084765 289 253.406651L288.942568 262.048147C288.940881 262.684208 288.680212 263.293471 288.218086 263.741478 287.75596 264.189484 287.130367 264.439408 286.479366 264.436093L269.051892 269C268.633733 268.999591 268.255451 268.757454 268.088062 268.383057 267.920674 268.008661 267.995907 267.572966 268.279748 267.272948L274.558999 260.68895C274.928918 260.293565 274.928918 259.68773 274.558999 259.292345L268.343562 257.290959C268.058925 256.990111 267.984128 256.552925 268.153144 256.177985 268.322161 255.803044 268.70277 255.561829 269.122087 255.563907L269.122087 255.563907z" opacity=".18"/>
    <path fill="#52D2BC" fill-rule="nonzero" d="M219.877552 265L202.438444 264.938123C201.788349 264.934849 201.166222 264.681369 200.70893 264.233446 200.251637 263.785523 199.996639 263.179851 200.000033 262.549675L200.0511 249.369894C200.058133 248.056625 201.160251 246.996579 202.515044 247.000008L219.954151 247.068073C220.371278 247.070919 220.747368 247.312131 220.913186 247.683167 221.079005 248.054202 221.003302 248.48514 220.720144 248.782063L214.445385 255.322452C214.072305 255.713695 214.072305 256.317252 214.445385 256.708495L220.669078 263.316948C220.93427 263.61867 220.995337 264.041916 220.825716 264.402588 220.656094 264.76326 220.286445 264.996166 219.877552 265zM269.122086 247L286.555934 247.068065C287.910305 247.074882 289.003528 248.14323 288.999991 249.45651L288.942559 262.630085C288.940873 263.261335 288.680204 263.865989 288.218078 264.310607 287.755952 264.755225 287.130359 265.003258 286.479358 264.999968L269.051891 264.931903C268.633733 264.931497 268.25545 264.691192 268.088062 264.319628 267.920674 263.948063 267.995907 263.515664 268.279748 263.217915L274.558996 256.671347C274.928047 256.281 274.928047 255.681842 274.558996 255.291494L268.33718 248.701613C268.060353 248.401504 267.991281 247.971662 268.160821 247.604113 268.330361 247.236565 268.706846 246.99996 269.122086 247L269.122086 247z"/>
    <path stroke="#6535FF" stroke-linecap="round" stroke-linejoin="round" stroke-width="2.23" d="M213.484211 258.5093L219.727391 265.246142C220.007697 265.554347 220.078634 265.996669 219.908512 266.375504 219.738389 266.754339 219.358983 266.998927 218.93979 267L201.446079 266.930352C200.793949 266.927002 200.169874 266.667626 199.711149 266.209284 199.252425 265.750942 198.996628 265.131182 199.000034 264.486347L199.05126 251M285 267L268.023855 266.935386C267.61521 266.934786 267.245927 266.681906 267.083976 266.291772 266.922026 265.901637 266.998337 265.44875 267.278197 265.139111L273.361523 258.322311C273.72173 257.912557 273.72173 257.284706 273.361523 256.874952L267.303053 250"/>
    <path stroke="#BBC4EF" stroke-linecap="round" stroke-linejoin="round" stroke-width="2.23" d="M217,279 L240,299"/>
    <circle cx="140.5" cy="252.5" r="13.5" fill="#F9879A" fill-rule="nonzero"/>
    <circle cx="76" cy="212" r="7" fill="#4020C6" fill-rule="nonzero" opacity=".54"/>
    <circle cx="91" cy="264" r="20" fill="#62BCF9" fill-rule="nonzero"/>
    <path fill="#F9879A" fill-rule="nonzero" d="M39.000243,180.877392 L39.1184692,164.31274 C39.1287397,163.027264 40.1362344,161.992851 41.3709888,162.000037 L53.778514,162.090731 C54.3726253,162.095864 54.9404424,162.346507 55.3570415,162.787517 C55.7736406,163.228527 56.004893,163.823775 55.9999215,164.442303 L55.8816953,181.006955 C55.8799273,181.404862 55.6512084,181.763624 55.2996985,181.919859 C54.9481886,182.076094 54.5411158,181.999922 54.2638635,181.72603 L48.1285477,175.74669 C47.761397,175.393572 47.1952104,175.393572 46.8280598,175.74669 L40.6056299,181.635336 C40.3225967,181.905337 39.9121056,181.973427 39.562492,181.808365 C39.2128784,181.643304 38.9916246,181.276951 39.000243,180.877392 Z"/>
    <path fill="#6534FF" fill-rule="nonzero" d="M292.000243,79.8773915 L292.118469,63.3127399 C292.12874,62.0272641 293.136234,60.992851 294.370989,61.0000372 L306.778514,61.0907314 C307.372625,61.0958644 307.940442,61.3465074 308.357041,61.7875173 C308.773641,62.2285272 309.004893,62.8237754 308.999921,63.442303 L308.881695,80.0069547 C308.879927,80.4048617 308.651208,80.7636241 308.299699,80.9198592 C307.948189,81.0760944 307.541116,80.9999215 307.263864,80.7260303 L301.128548,74.7466899 C300.761397,74.3935724 300.19521,74.3935724 299.82806,74.7466899 L293.60563,80.6353361 C293.322597,80.9053372 292.912106,80.9734269 292.562492,80.8083653 C292.212878,80.6433036 291.991625,80.276951 292.000243,79.8773915 L292.000243,79.8773915 Z"/>
    <path fill="#F9879A" fill-rule="nonzero" d="M304.00066,94.4965805 L304.054832,87.0426591 C304.056416,86.7635091 304.169747,86.4965105 304.36972,86.3008128 C304.569693,86.105115 304.839798,85.996874 305.120197,86.0000688 L310.958641,86.0420121 C311.238006,86.0451723 311.504667,86.15869 311.69995,86.3575887 C311.895234,86.5564873 312.003141,86.8244714 311.99993,87.102578 L311.945759,94.5564994 C311.943416,94.7341115 311.836202,94.8936839 311.672198,94.9636547 C311.508193,95.0336256 311.318177,95.0008639 311.187363,94.8800619 L308.298237,92.1896996 C308.126875,92.0371195 307.867697,92.0371195 307.696335,92.1896996 L304.771094,94.8381187 C304.638954,94.970042 304.438749,95.0071214 304.26779,94.9313342 C304.096831,94.855547 303.990572,94.6826102 304.00066,94.4965805 Z"/>
    <polygon fill="#62BCF9" fill-rule="nonzero" points="389 222 381 222 377 229 381 236 389 236 393 229"/>
    <polygon fill="#62BCF9" fill-rule="nonzero" points="357.997 233 354.003 233 352 236.5 354.003 240 357.997 240 360 236.5"/>
    <path stroke="#FFF" stroke-dasharray="9" stroke-linecap="round" stroke-linejoin="round" stroke-width="3" d="M255,211 C259.66616,209.511712 276.072979,203.659459 286.985772,186.405405 C299.892972,165.991892 295.427507,144.947748 294.511836,141"/>
  </g>
</svg>
