<svg xmlns="http://www.w3.org/2000/svg" width="581" height="360"><g fill="none" fill-rule="evenodd"><path fill="#BBC4EF" fill-rule="nonzero" d="M67.245 325.732c3.79.277 7.56.767 11.293 1.47 7.158 1.186 14.266 3.114 21.5 3.415 12.997.551 25.993 1.177 38.99 1.67a6935.85 6935.85 0 0 0 79.042 2.705c26.171.768 52.343 1.459 78.515 2.071 26.019.635 52.012 1.553 78.04.35 52.112-2.42 104.074-10.12 156.286-8.716a2.364 2.364 0 0 1 2.038 1.252 38.666 38.666 0 0 0 9.188-14.395c4.678-12.926 6.975-36.865-4.234-44.972-7.96-5.762-20.774-2.113-30.688 9.777 9.597-61.588 1.069-83.039-8.47-91.255-15.46-13.318-35.081 6.88-52.38-7.164-18.618-15.121-7.433-47.903-19.578-87.999a143.708 143.708 0 0 0-12.195-28.347C395.648 32.002 353.458-5.847 314.635.757c-37.796 6.446-34.396 38.752-75.132 59.36-50.526 25.491-73.947-1.67-97.36 26.719-24.49 29.658-12.729 76.108-40.744 93.209-13.189 8.049-18.643-.493-29.635 8.475-23.145 18.837-21.65 75.207-12.696 112.071a194.002 194.002 0 0 0 8.177 25.141Z"/><path stroke="#FFF" stroke-dasharray="4.45" stroke-linecap="round" stroke-linejoin="round" stroke-width="1.48" d="M276 178a39.358 39.358 0 0 0 21.061-16.163c8.502-13.406 5.562-27.248 4.961-29.837"/><path stroke="#6534FF" stroke-linecap="round" stroke-linejoin="round" stroke-width="1.63" d="M240 60c-50.34 25.76-73.674-1.688-97 27m284 7a150.148 150.148 0 0 0-12-29M218 335c26.08.766 52.158 1.455 78.237 2.065 25.927.633 51.828 1.55 77.763.35"/><g opacity=".62"><path fill="#E2A3AE" fill-rule="nonzero" d="M451.245 257.71c12.979 9.781 45.317-1.91 54.24-22.362 7.091-16.256-6.849-23.768-2.885-45.72 4.867-26.983 28.642-30.635 35.181-56.254 6.105-23.92-2.341-51.263-11.707-52.763-9.751-1.557-12.988 26.273-43.394 56.532-21.316 21.213-29.152 16.909-37.54 33.08-10.36 19.992-6.322 41.826-1.153 69.781 2.124 11.374 3.863 15.15 7.258 17.705Z"/><path fill="#6534FF" fill-rule="nonzero" d="M494.388 214.544c-.962-1.608-4.014-1.574-5.712-1.072a18.392 18.392 0 0 0-6.038 3.568c-15.47 12.655-29.687 45.342-17.954 59.898 1.973 2.454 5.017 5.025 8.613 2.688 6.749-4.363 9.525-18.366 11.223-25.325a232.17 232.17 0 0 0 4.708-24.95c1.673-4.187 4.098-8.375 5.327-12.637a2.658 2.658 0 0 0-.167-2.17Z" opacity=".61"/><path fill="#FCCDD3" fill-rule="nonzero" d="M565.888 146.623c.493 3.35 2.977 22.336-8.488 40.276-13.297 20.803-29.186 14.924-50.05 34.513-24.804 23.29-23.633 51.598-30.85 50.694-8.036-.997-18.397-37.118-3.253-59.932 12.368-18.584 30.105-10.887 50.084-30.426 25.087-24.539 21.634-60.501 30.774-60.233 6.205.184 10.553 16.733 11.783 25.108Z"/><path stroke="#FFF" stroke-linecap="round" stroke-linejoin="round" stroke-width="2.3" d="M460.344 242.316c-2.166-46.808 10.269-67 22.194-76.832 9.124-7.496 18.046-8.962 27.245-19.858 13.038-15.451 14.568-35.577 13.924-49.714"/><path fill="#FCCDD3" fill-rule="nonzero" d="M465.813 208.514c-.586 37.495-.937 59.831-8.697 61.791-10.537 2.647-37.531-31.13-32.28-60.668 3.186-17.94 16.165-22.395 26.568-54.27 5.243-16.072 5.377-25.46 7.526-25.41 4.525.109 7.41 42.545 6.883 78.557Z"/><path stroke="#FFF" stroke-linecap="round" stroke-linejoin="round" stroke-width="2.3" d="M451.337 259.024c-13.221-19.64-13.957-33.726-12.343-42.813 2.392-13.467 10.579-19.564 15.998-39.162a101.966 101.966 0 0 0 3.637-28.374"/><path stroke="#FFF" stroke-linecap="round" stroke-linejoin="round" stroke-width="1.15" d="M476.4 261.21c-.452-9.866.485-24.288 9.199-36.85 10.562-15.226 24.837-16.507 38.543-26.909 11.707-8.894 25.363-26.214 30.105-63.65m-5.268 24.555 8.095-8.249m-12.076 19.866-.778-11.575m-1.881 18.417 15.563-10.36m-22.964 19.28 1.263-10.913m-7.326 18.467 18.34-3.568m-26.443 10.452 3.303-11.616m-14.819 17.847 10.22.595m-15.639 2.177 3.295-12.973m-14.116 19.882 10.872-1.457m-16.943 7.647 1.932-12.965"/></g><path stroke="#6534FF" stroke-linecap="round" stroke-linejoin="round" stroke-width="1.63" d="M508 184c4.834-26.98 28.445-30.63 34.94-56.246C549.01 103.84 540.623 76.5 531.313 75"/><g opacity=".62"><path fill="#FCCDD3" fill-rule="nonzero" d="M177.268 283.704c-12.965 9.734-45.25-1.91-54.149-22.278-7.08-16.19 6.838-23.664 2.88-45.534-4.858-26.875-28.594-30.511-35.122-56.018-6.103-23.822 2.33-51.064 11.688-52.549 9.743-1.551 12.974 26.166 43.33 56.302 21.255 21.128 29.077 16.84 37.426 32.955 10.344 19.902 6.312 41.656 1.152 69.49-2.079 11.318-3.823 15.088-7.205 17.632Z"/><path stroke="#FFF" stroke-linecap="round" stroke-linejoin="round" stroke-width="2.3" d="M168.185 268.365c2.162-46.618-10.252-66.728-22.166-76.52-9.108-7.465-18.016-8.925-27.191-19.777-13.024-15.389-14.535-35.424-13.9-49.529"/><path fill="#FCCDD3" fill-rule="nonzero" d="M84.173 216.618c-41.81-22.871-66.722-36.45-73.76-29.094-9.51 9.934 10.861 60.973 46.844 73.668 21.832 7.715 34.905-3.845 76.665 4.62 21.056 4.272 31.516 10.01 32.802 7.608 2.697-5.096-42.403-34.866-82.551-56.802Z"/><path stroke="#FFF" stroke-linecap="round" stroke-linejoin="round" stroke-width="2.93" d="M19.279 200.945c13.4 26.925 28.51 36.559 39.564 40.462 16.388 5.797 28.269.567 53.323 6.848a129.27 129.27 0 0 1 33.661 13.754"/><path fill="#6534FF" fill-rule="nonzero" d="M114.737 201.32c.593-1.768 3.582-2.377 5.343-2.244a18.245 18.245 0 0 1 6.637 2.177c17.766 9.05 38.538 37.877 30.164 54.517-1.41 2.811-3.807 5.947-7.84 4.43-7.513-2.812-13.165-15.849-16.288-22.28-3.699-7.58-6.98-15.357-9.826-23.296-2.504-3.712-5.76-7.257-7.864-11.177a2.642 2.642 0 0 1-.326-2.127Z" opacity=".61"/><path fill="#E2A3AE" fill-rule="nonzero" d="M29.398 162.685c.225 3.336 1.811 22.362 16.78 37.41 17.357 17.44 31.625 8.34 56.12 23.029 29.111 17.432 33.937 45.233 40.8 42.83 7.622-2.668 10.151-40.036-9.476-59.029-15.988-15.472-31.625-4.212-55.285-19.034-29.68-18.592-33.87-54.325-42.736-52.14-5.995 1.485-6.73 18.518-6.203 26.934Z"/><path stroke="#FFF" stroke-linecap="round" stroke-linejoin="round" stroke-width="1.15" d="M140.885 255.32c-1.67-9.692-5.602-23.563-16.756-33.948-13.524-12.587-27.717-10.843-43.287-18.067-13.316-6.18-30.264-20.152-42.787-55.593m10.319 22.822-9.643-6.323m15.971 16.79-1.678-11.435m5.719 17.533L41.378 180.3m26.473 13.921-3.531-10.36m11.037 16.424-18.643.4m28.002 4.596-5.67-10.61m18.217 14.247-9.834 2.727m15.712-1.176-5.953-11.936m17.967 16.374-10.912.876m18.141 3.87-4.616-12.212"/></g><path fill="#BBC4EF" fill-rule="nonzero" d="m515.658 259.92-5.255-4.715h-5.563l4.444-16.66 3.341-6.663-99.566-21.108L377.464 208l-33.347 2.774 6.399 4.165h-38.41l-5.58-6.664s-36.714 9.43-48.392 13.87c-11.679 4.439-22.246 8.329-22.246 8.329a49.899 49.899 0 0 0-14.744 1.383s-31.15 7.213-42.27 12.761c-10.257 5.106-27.566 17.76-30.247 19.708H148l3.341 5.273 3.058 4.998-.836 6.939-1.11 6.664.292.116v.159l9.456 3.881h37.34c.11.175.226.35.343.517l-.192-.517h.25A26.166 26.166 0 0 0 221.72 304c8.757 0 16.932-4.37 21.778-11.644h184.497l.36.517a26.163 26.163 0 0 0 22.183 11.092 26.152 26.152 0 0 0 21.48-12.392l30.073-13.144 10.568-5.548v-4.431l3.341-8.33-.342-.2Z"/><path fill="#6535FF" fill-rule="nonzero" d="M221.728 233.045s-31.09 7.268-42.188 12.857c-11.097 5.59-30.54 20.142-30.54 20.142l6.111 10.071-1.667 13.974 9.438 3.911h307.554l31.682-13.974 10.547-5.59v-4.464L516 261.58l-5.544-5.035h-5.595l4.436-16.785 3.335-6.714-99.375-21.25L377.731 209l-33.283 2.795 6.386 4.196h-38.336l-5.57-6.714s-36.642 9.5-48.298 13.974a2516.074 2516.074 0 0 1-22.203 8.392c-4.942-.272-9.896.2-14.699 1.402Z" opacity=".54"/><path fill="#4020C6" fill-rule="nonzero" d="M209.486 260 164 265.472 180.097 292l30.903-.271z" opacity=".54"/><path stroke="#FFF" stroke-linecap="round" stroke-linejoin="round" stroke-width="2.19" d="M313 215.624 307.448 209s-36.528 9.373-48.147 13.787c-11.619 4.413-22.133 8.28-22.133 8.28a49.688 49.688 0 0 0-14.67 1.375s-30.992 7.17-42.054 12.685C169.382 250.642 150 265 150 265M508.678 239l3.322-6.72L413 211"/><path fill="#4020C6" fill-rule="nonzero" d="M244 241s20.025-11.361 32.782-15.353c12.757-3.992 36.11-9.647 36.11-9.647h54.442L414 228.496l-60.55 3.411L264 245l-20-4Z" opacity=".54"/><path fill="#4020C6" fill-rule="nonzero" d="M263.761 284 256 253.314l7.761-9.485L353.586 231h7.228l7.186 7.81-5.546 5.019-11.092 31.808 2.224 5.573z" opacity=".54"/><path fill="#4020C6" fill-rule="nonzero" d="m250.401 285.033-25.534-1.106L224 293h246.484l31.645-13.746 10.545-5.49v-4.4l3.326-8.248-.3-.272-10.52 2.749-9.437-4.4-21.09 11.541-40.523-14.29L400.269 246l-19.982 28.037-27.193 7.141-89.922 2.749z" opacity=".54"/><path stroke="#FFF" stroke-linecap="round" stroke-linejoin="round" stroke-width="2.19" d="m471 293 31.286-13.796 10.426-5.51v-4.416L516 261M353 281l-89.094 2.852-13.28 1.148H245M395 244.1l-8.733-1.1-12.001 23.682L353 281l26.722-7.155"/><path fill="#4020C6" fill-rule="nonzero" d="m148 265 15.262 1.127L174 284.037 162.133 293l-9.609-3.918 2.258-13.437z" opacity=".54"/><circle cx="223" cy="278" r="26" fill="#FFF" fill-rule="nonzero"/><circle cx="450" cy="278" r="26" fill="#FFF" fill-rule="nonzero"/><path fill="#6534FF" fill-rule="nonzero" d="M426.86 283.423c-.004-11.38 7.334-21.446 18.124-24.863 10.79-3.418 22.537.602 29.016 9.93-3.665-9.34-12.34-15.73-22.299-16.427-9.958-.696-19.429 4.425-24.344 13.166A26.188 26.188 0 0 0 428.681 293a26.094 26.094 0 0 1-1.821-9.577zm-228.01-.007c-.004-11.387 7.335-21.46 18.128-24.88 10.792-3.42 22.542.604 29.022 9.938-3.674-9.335-12.348-15.718-22.301-16.412-9.954-.693-19.418 4.427-24.335 13.165a26.216 26.216 0 0 0 1.3 27.773 26.122 26.122 0 0 1-1.814-9.584z" opacity=".18"/><circle cx="222" cy="279" r="13" fill="#BBC4EF" fill-rule="nonzero"/><circle cx="450" cy="279" r="13" fill="#BBC4EF" fill-rule="nonzero"/><path stroke="#FFF" stroke-linecap="round" stroke-linejoin="round" stroke-width="2.19" d="m264 245 89-13M511 261.452l-6.748 2.04-9.248-4.492L479 268M148 265l15.262.562L174 284M287 228l6 7m1-11 9 9m-22 0 2 2m2 3 1 1m106-10.17 100-.66M255 243l-33-11"/><path fill="#91A0D8" fill-rule="nonzero" d="M97.216 329.367c-29.704-22.127-39.95-24.852-38.959-32.625.558-4.31 4.336-8.276 8.223-9.064 9.238-1.87 19.825 14.044 19.975 13.885.15-.16-35.189-33.916-28.647-45.454 1.98-3.488 7.49-4.452 11.41-4.008 19.975 2.28 28.755 45.278 33.832 43.953 4.07-1.073-2.588-28.441 3.72-30.94 4.361-1.735 15.813 8.108 17.112 19.63 1.573 13.968-13.05 19.133-13.367 38.662-.066 3.647.358 8.644-2.33 10.162-3.063 1.727-8.206-2.147-10.97-4.2Z"/><path stroke="#7863CE" stroke-linecap="round" stroke-linejoin="round" stroke-width="2.19" d="M67 296.01 100 316c-4.02-10.61-26.563-51-26.563-51m37.637 12s2.437 5.522 1.828 10.578c-.609 5.056-6.247 12.474-6.653 16.15C105.843 307.403 103 321 103 321"/><path fill="#BBC4EF" fill-rule="nonzero" d="M0 329h581s-186.455 20.618-317.964 18.898C131.526 346.178 0 329 0 329Z"/><ellipse cx="219.5" cy="352.5" fill="#BBC4EF" fill-rule="nonzero" rx="50.5" ry="7.5"/><ellipse cx="360.5" cy="345.5" fill="#BBC4EF" fill-rule="nonzero" rx="50.5" ry="7.5"/><path stroke="#7863CE" stroke-linecap="round" stroke-linejoin="round" stroke-width="1.63" d="M440 305.5h44"/><path fill="#FFF" fill-rule="nonzero" d="M305.217 95s3.686 6.586 4.911 11.115c1.226 4.53 27.329 32.18 37.424 35.035 10.095 2.856-.15 9.85-.15 9.85s-15.154-5.737-25.763-19.766c-10.608-14.029-15.155-20.59-15.155-20.59S304 105.291 304 102.41c0-2.88 1.656-.833 1.656-.833a8.685 8.685 0 0 1-.439-6.577Z"/><path stroke="#6534FF" stroke-linecap="round" stroke-linejoin="round" stroke-width="1.63" d="M305 95s3.832 6.44 5.107 10.87c.766 2.646 10.74 13.337 20.893 22.13"/><path fill="#FFF" fill-rule="nonzero" d="M382.36 249.229s0 5.758 2.857 14.404c2.856 8.647 12.665 36.616 14.704 49.797C401.961 326.612 404 341 404 341h-7.753s-19.6-62.146-28.179-78.606c-8.578-16.46-6.944-28.394-6.944-28.394l21.236 15.229Z"/><path fill="#FFF" fill-rule="nonzero" d="M351.795 252.606s-4.553 49.604-9.107 63.244c-4.553 13.64-8.688 23.971-8.688 23.971l6.62 4.179s30.636-71.92 32.294-91.353c1.657-19.432-21.119-.041-21.119-.041Z"/><path fill="#6534FF" fill-rule="nonzero" d="M383 257.798a44.945 44.945 0 0 1-1.382-9.4L360.592 233s-.662 5.049 1.136 13.068a58.142 58.142 0 0 0-9.254 6.487s-.163 1.902-.474 5.049c3.27-.715 6.483-1.094 8.175-.471 3.058 1.136 15.345.917 22.825.665Z" opacity=".18"/><path stroke="#6534FF" stroke-linecap="round" stroke-linejoin="round" stroke-width="1.63" d="M373 257s-14.959 51.49-22 64m41 7s-16.216-49.786-18.723-54.75A62.89 62.89 0 0 1 370 266"/><path fill="#F9879A" fill-rule="nonzero" d="M356.54 123.056c4.858.1 8.182 4.067 9.02 5.381.912 1.44.58 2.185.829 4.05.101.729.245 1.45.43 2.16 1.61 6.637 2.413 9.96 3.69 10.763 3.432 2.142 11.176-1.95 11.482-5.8.125-1.557-1.077-1.833-3.689-7.03-.365-.728-1.061-2.285-2.487-5.381a38.963 38.963 0 0 0-2.869-5.8 11.681 11.681 0 0 0-3.274-3.724 10.218 10.218 0 0 0-5.745-1.674c-7.03-.059-12.436 6.955-11.889 7.867.257.443 1.625-.87 4.502-.812Z"/><path fill="#FFF" fill-rule="nonzero" d="M360 132h10v17h-10z"/><path fill="#52D2BB" fill-rule="nonzero" d="M344.868 138 335 157.84l16.444 4.128s-2.053 4.546 0 7.028c2.053 2.482 6.576 8.65 6.576 11.157 0 2.056-10.658 50.577-14.366 70.851a4.192 4.192 0 0 0 1.276 3.906 4.14 4.14 0 0 0 3.987.916c4.705-1.312 10.666-2.624 13.218-1.671 3.192 1.17 16.427.894 23.934.627a5.044 5.044 0 0 0 3.588-1.688 5.098 5.098 0 0 0 1.276-3.77l-4.157-44.768s8.638-23.141 3.7-37.607c-4.939-14.466-20.967-23.977-20.967-23.977s-3.7 2.508-7.399 2.073c-3.7-.435-17.242-7.045-17.242-7.045Z"/><path fill="#41B59F" fill-rule="nonzero" d="m390.987 249.313-4.083-44.802a96.947 96.947 0 0 0 2.972-10.303c-1.902-2.66-3.91-4.45-5.797-4.182-4.793.711-7.39 14.519-8.075 21.1-1.086 10.371 1.633 12.119-.817 18.199-3.119 7.861-8.696 7.644-11.709 15.714a26.579 26.579 0 0 0-1.477 8.924c.227.039.451.097.67.176 3.135 1.17 16.133.894 23.507.627a4.916 4.916 0 0 0 3.541-1.674 5.162 5.162 0 0 0 1.268-3.779Z"/><path fill="#6535FF" fill-rule="nonzero" d="m362.625 219.092 9.7 5.61c.97.561 1.301 1.801.742 2.771l-2.304 3.999a2.03 2.03 0 0 1-2.775.743l-9.7-5.61a2.03 2.03 0 0 1-.742-2.77l2.304-4a2.03 2.03 0 0 1 2.775-.743Z"/><path fill="#FFF" fill-rule="nonzero" d="M377.786 193s-2.399 7.416-3.534 13.291c-1.135 5.875-4.97 18.128-6.242 19.314-1.273 1.187-3.036 1.846-3.01 3.568.026 1.722 1.72 2.95 3.01 3.354 1.29.404 3.826.824 4.247 0 .422-.824 1.72-6.518 1.72-6.518s10.997-25.544 11.023-29.062c.026-3.519-7.214-3.947-7.214-3.947Z"/><path fill="#52D2BB" fill-rule="nonzero" d="M372 159s6.6 17.542 5.357 23.25c-1.243 5.707-3.713 14.276-3.713 14.276L391.802 199s1.452-27.538-3.505-36.099"/><path stroke="#6534FF" stroke-linecap="round" stroke-linejoin="round" stroke-width="1.63" d="M375.096 170s2.96 6.21 1.71 12.002c-1.248 5.791-3.806 14.487-3.806 14.487L384 199"/><path fill="#41B59F" fill-rule="nonzero" d="m358 149-10 12.327 3.367.673z"/><ellipse cx="362" cy="131" fill="#FFF" fill-rule="nonzero" rx="8" ry="11"/><path fill="#F9879A" fill-rule="nonzero" d="M351.045 126.88a5.504 5.504 0 0 0 5.334 4.12c2.26-.217 2.45-2.636 5.341-3.712 3.465-1.285 6.073 1.093 6.987 0 1.213-1.435-1.437-7.858-6.164-9.076-5.508-1.427-12.154 4.671-11.498 8.667Z"/><ellipse cx="369.5" cy="128.5" fill="#FFF" fill-rule="nonzero" rx="2.5" ry="3.5"/><path fill="#F9879A" fill-rule="nonzero" d="M373.002 126a23.717 23.717 0 0 0 4.954 2.494c3.759 1.346 5.68.956 6.607 2.494a4.375 4.375 0 0 1-1.236 5.345c-2.172 1.587-5.246-.117-5.78-.416-4.611-2.602-4.561-9.352-4.545-9.917Z"/><circle cx="371.5" cy="132.5" r="1.5" stroke="#6534FF" stroke-linecap="round" stroke-linejoin="round" stroke-width="1.63"/><path fill="#41B59F" fill-rule="nonzero" d="M365.879 178.514c-.51-1.056-1.86-.278-5.128-1.689-4.66-1.985-6.875-5.685-8.751-6.825 2.222 2.66 6.607 8.582 6.607 10.98 0 .448-.502 3.033-1.332 7.02 4.548-4.696 9.572-7.433 8.604-9.486Z"/><path stroke="#6534FF" stroke-linecap="round" stroke-linejoin="round" stroke-width="1.63" d="M370 143s-4 2.362-8 1.952M346.752 236a907.93 907.93 0 0 0-2.677 14.914c-.267 1.463.187 2.971 1.195 3.976 1.007 1.005 2.423 1.359 3.73.933M335 158l16.43 4.255s-2.052 4.687 0 7.245c2.051 2.558 6.57 8.916 6.57 11.5"/><path fill="#F9879A" fill-rule="nonzero" d="m340.431 344.005-5.808-2.895a1.022 1.022 0 0 0-.687-.085l-15.128 3.377c-.5.108-.844.566-.805 1.074.038.508.447.91.958.943l20.936 1.578a1.02 1.02 0 0 0 1.102-1.021v-2.026a1.012 1.012 0 0 0-.568-.945zM403.165 341h-6.804a.921.921 0 0 0-.31.055l-10.575 3.539c-.317.098-.518.44-.469.796.05.356.333.617.662.61h19.26c.364.002.704-.2.9-.535.198-.335.226-.757.074-1.12l-.84-2.003c-.34-.814-1.081-1.337-1.898-1.342z"/><path stroke="#7863CE" stroke-linecap="round" stroke-linejoin="round" stroke-width="1.63" d="M249 305.5h-84m90 8h-42"/><path fill="#FFF" fill-rule="nonzero" d="M302.624 92.065s-5.337 3.417-5.752 5.492c-.415 2.076-2.872 11.027-2.872 11.027l3.137 3.416s3.022-3.416 3.843-3.835c.822-.418 2.05-5.919 1.66-6.764-.39-.846-2.058.854-2.058 1.272 0 .419-2.05-.427-.407-4.646 1.644-4.22 2.49-4.646 2.49-4.646s.78-1.734-.041-1.316Z"/><path fill="#6535FF" fill-rule="nonzero" d="M202.514 158s-13.862 11.206-14.67 18.67c-.807 7.466-3.535 37.745 8.415 34.013 11.95-3.733 21.741-15.35 21.741-15.35L202.514 158zm23.12 53-23.885 5.594L196 349.337l4.86 2.663 24.75-114.56s4.41-3.106 4.86 0c.448 3.106 11.48 111.872 11.48 111.872h3.98s7.07-72.375 7.07-80.364c0-7.99-2.559-57.547-2.559-57.547L225.634 211z"/><path fill="#FFF" fill-rule="nonzero" d="m201.648 217 4.079 6.038s2.865 6.039 0 6.902c-2.865.864-8.727-7.94-8.727-8.813 0-.872 4.648-4.127 4.648-4.127ZM221 133h14v20h-14z"/><path fill="#F9879A" fill-rule="nonzero" d="M295.273 106.475 294.011 105s-23.555 25.285-27.691 29.433l-13.22 13.259c-7.445 2.514-17.364-4.56-17.364-4.56s-2.89 3.73-7.019 3.73c-4.127 0-7.445-3.73-7.445-3.73l-9.191 4.895-1.212.645-9.843 5.238s-.41 1.677-2.892 10.778c-3.45 12.689-1.788 48.282-1.337 56.663a.684.684 0 0 0 1.203.41 33.99 33.99 0 0 1 1.789-1.944c1.671-1.676 6.61-2.9 6.61-2.9a77.713 77.713 0 0 0 45.456-3.738c1.237-3.486 3.343-8.883 3.343-15.747 0-.947.067-2.514.167-4.459.259-4.023-.836-17.8 6.484-27.54 8.782-8.045 23.038-21.873 26.405-29.76.385-.904 2.448-5.74 5.966-13.844l4.78-11.021-3.727-4.333Z"/><path fill="#6535FF" fill-rule="nonzero" d="M206.24 177s2.76-12.09 2.76-15.43V149l-6 2.917a45.938 45.938 0 0 1 2.356 7.985s.828 4.215.92 17.098h-.037Z"/><path stroke="#6534FF" stroke-linecap="round" stroke-linejoin="round" stroke-width="1.63" d="m202 218 5-30"/><path fill="#D3637B" fill-rule="nonzero" d="M293 123.941a4.591 4.591 0 0 0-2.916-1.925c-4.748-.523-4.998 11.692-17.302 22.57-9.321 8.299-13.261 8.141-17.302 17.236-1.566 3.518-.833 4.39-2.065 11.493-2.416 13.658-7.73 17.633-9.88 26.263a31.78 31.78 0 0 0-1.525 8.033 26.68 26.68 0 0 0 1.108 8.389l8.239-2.88s3.332-8.206 3.332-15.591c0-.938.067-2.49.167-4.415.258-3.983-.833-17.625 6.464-27.267 8.755-7.967 22.967-21.658 26.324-29.467.333-.846 2.199-5.186 5.356-12.439Z"/><path fill="#6534FF" fill-rule="nonzero" d="m235 137.816-.254 1.486s-4.384 4.85-9.539 1.545C220.053 137.54 220 133 220 133l15 4.816Z" opacity=".18"/><ellipse cx="230.5" cy="128" fill="#FFF" fill-rule="nonzero" rx="10.5" ry="13"/><path fill="#6535FF" fill-rule="nonzero" d="M230.48 110.608c-3.208-.544-4.43-.769-5.095 0-.448.527-.415 1.253-.34 2.47a11.759 11.759 0 0 0 1.362 4.941c2.444 3.835 11.086 4.112 16.288 0 2.152-1.727 5.169-5.295 4.072-7.774-.764-1.727-3.415-2.59-5.426-2.116-2.203.553-2.111 2.41-4.413 3.179-.632.216-1.047.216-6.449-.7Z"/><path fill="#6535FF" fill-rule="nonzero" d="M221.46 113.063c-2.485.571-3.667 3.197-4.227 4.456-3.451 7.753 1.32 17.68 2.458 17.478.932-.16.544-7.19 1.061-7.19.371 0 .182 3.548 2.114 4.455a1.82 1.82 0 0 0 1.725 0c.863-.756-.802-2.761 0-4.8a4.822 4.822 0 0 1 1.415-1.678c2.588-2.71 2.847-9.138-.354-11.655a5.539 5.539 0 0 0-4.192-1.066Z"/><ellipse cx="220.5" cy="128" fill="#FFF" fill-rule="nonzero" rx="2.5" ry="3"/><path fill="#4B28DD" fill-rule="nonzero" d="M231 236a.55.55 0 0 0 0 .06c.308 2.22 5.874 57.471 9.126 89.94 1.443-12.802 2.265-24.784 2.397-26.684.63-9.154.98-19.87-1.227-32.992C239.188 253.682 234.51 237.807 231 236Z"/><path stroke="#7863CE" stroke-linecap="round" stroke-linejoin="round" stroke-width="1.63" d="M445 313.5h-17m-7-8h-10"/><path fill="#F9879A" fill-rule="nonzero" d="m194.029 355.01 1.214-4.454a.8.8 0 0 1 .959-.532l18.207 4.455a.774.774 0 0 1 .585.84.783.783 0 0 1-.772.681h-19.43a.804.804 0 0 1-.63-.31.768.768 0 0 1-.133-.68zm47.986-2.031.654-3.979h4.098l12.495 3.165c.457.058.785.514.732 1.02-.052.505-.465.867-.923.809h-16.295a.743.743 0 0 1-.599-.308.917.917 0 0 1-.162-.707z"/><path stroke="#6534FF" stroke-linecap="round" stroke-linejoin="round" stroke-width="1.63" d="M455 133s-6.653 37.527-16 47M87.063 132S84.265 178.575 116 192m-89-39.728s1.667-18.44 7.835-17.213C41.003 136.285 47.588 166.844 61 170M8 200s7.196 38.05 35 54m201-105.823c5.315 1.586 8.55.518 10.073-.205 1.33-.633 2.187-1.39 5.764-4.874A692.984 692.984 0 0 0 266 137"/><circle cx="424" cy="129" r="9" fill="#F9879A" fill-rule="nonzero"/><circle cx="409.5" cy="107.5" r="4.5" fill="#F9879A" fill-rule="nonzero"/><ellipse cx="435" cy="103.5" fill="#62BCF9" fill-rule="nonzero" rx="13" ry="13.5"/><path fill="#F9879A" fill-rule="nonzero" d="m473 251.271.074-10.772c.009-.834.66-1.504 1.457-1.499l8.028.06c.384.002.752.164 1.022.45.27.285.421.672.419 1.074l-.081 10.772a.648.648 0 0 1-.375.591.598.598 0 0 1-.668-.122l-3.973-3.892a.598.598 0 0 0-.814 0l-4.03 3.824a.6.6 0 0 1-.689.138.65.65 0 0 1-.37-.624Z"/><path fill="#52D2BB" fill-rule="nonzero" d="m110.002 92.271.081-10.772c.002-.401.157-.785.43-1.066A1.408 1.408 0 0 1 111.54 80l8.027.06c.797.01 1.438.69 1.433 1.524l-.073 10.772a.648.648 0 0 1-.375.591.598.598 0 0 1-.667-.122l-3.973-3.892a.606.606 0 0 0-.814 0l-4.022 3.824a.6.6 0 0 1-.703.158.651.651 0 0 1-.371-.644Z"/><path fill="#FFF" fill-rule="nonzero" d="M301.984 85a4.198 4.198 0 0 1-2.746-1.024l-13.718-11.83A4.42 4.42 0 0 1 284 68.79V43.577a1.876 1.876 0 0 1 1.25-1.787 51.68 51.68 0 0 1 33.5 0c.747.259 1.25.978 1.25 1.787V68.79a4.402 4.402 0 0 1-1.528 3.356l-13.718 11.83a4.198 4.198 0 0 1-2.77 1.024Z"/><path fill="#52D2BC" fill-rule="nonzero" stroke="#6535FF" stroke-linecap="round" stroke-linejoin="round" stroke-width=".16" d="M304.933 65.938 299 62l5.841 9L311 62.243z"/><path fill="#52D2BC" fill-rule="nonzero" stroke="#6535FF" stroke-linecap="round" stroke-linejoin="round" stroke-width=".16" d="m299.008 62.366.034.009L304.987 66l5.971-3.397h.034l-.026-.017.034-.009L305.241 52 299 62.349l.025.017z"/><path fill="#6535FF" fill-rule="nonzero" d="M320.662 43.73a52.19 52.19 0 0 0-33.316 0A3.464 3.464 0 0 0 285 47.03v23.934a5.866 5.866 0 0 0 2.06 4.457l13.228 11.216a5.739 5.739 0 0 0 7.424 0l13.228-11.216a5.866 5.866 0 0 0 2.06-4.457v-23.95c0-1.489-.941-2.81-2.338-3.285Zm.678 27.177a4.142 4.142 0 0 1-1.471 3.178l-13.22 11.208a4.059 4.059 0 0 1-5.298 0l-13.22-11.208a4.142 4.142 0 0 1-1.471-3.178V47.015a1.78 1.78 0 0 1 1.21-1.651 50.43 50.43 0 0 1 32.26 0c.71.235 1.195.897 1.21 1.65v23.893Z"/><path fill="#BBC4EF" fill-rule="nonzero" d="M324 71.109V46.997a3.498 3.498 0 0 0-2.376-3.332A53.42 53.42 0 0 0 307.698 41a19.072 19.072 0 0 1 3.074 7.196c.591 3.126.906 6.297.94 9.478.136 1.71.063 3.43-.217 5.123-.83 4.073-3.93 7.296-5.417 11.169a19.117 19.117 0 0 0-.723 9.994c.244 1.368.58 2.718 1.005 4.04a5.737 5.737 0 0 0 2.102-1.124l13.444-11.32A5.903 5.903 0 0 0 324 71.11Z" opacity=".44"/><path fill="#070707" fill-rule="nonzero" d="m291.437 68-9.157-2.59a1.273 1.273 0 0 1-.909-.394 1.34 1.34 0 0 1-.371-.937v-4.766c.002-.35.14-.686.383-.932.244-.246.572-.383.914-.381l9.149 2.59a.55.55 0 0 1 .508.34.575.575 0 0 1-.105.612l-3.29 1.075a.593.593 0 0 0 0 .775l3.273 3.656c.143.166.18.4.096.604a.559.559 0 0 1-.49.348zm25.158-7.462L325.724 58c.34.002.667.145.906.396.24.251.372.59.37.944v4.8c0 .354-.137.693-.38.941a1.253 1.253 0 0 1-.913.381L316.544 68a.548.548 0 0 1-.5-.345.583.583 0 0 1 .106-.613l3.28-3.656a.602.602 0 0 0 0-.78l-3.263-1.11a.593.593 0 0 1-.088-.624.555.555 0 0 1 .516-.334z" opacity=".18"/><path fill="#FCCDD3" fill-rule="nonzero" d="M291.437 66h-9.157a1.27 1.27 0 0 1-.909-.395 1.347 1.347 0 0 1-.371-.94v-7.348c.002-.351.14-.688.383-.935a1.27 1.27 0 0 1 .914-.382h9.149a.55.55 0 0 1 .508.34.578.578 0 0 1-.105.615l-3.29 3.652a.587.587 0 0 0 0 .769l3.273 3.67c.143.165.18.401.096.605a.559.559 0 0 1-.49.349zm25.158-10h9.129c.34.002.667.144.906.395.24.25.372.588.37.94v7.347c0 .353-.137.69-.38.938a1.255 1.255 0 0 1-.913.38l-9.163-.018a.548.548 0 0 1-.5-.344.58.58 0 0 1 .106-.61l3.28-3.643a.598.598 0 0 0 0-.779l-3.263-3.669a.59.59 0 0 1-.071-.607.556.556 0 0 1 .5-.33z"/><path stroke="#6535FF" stroke-linecap="round" stroke-linejoin="round" stroke-width=".87" d="m287.55 61.723 3.31 3.397c.145.155.18.376.092.566a.56.56 0 0 1-.505.314h-9.166a1.326 1.326 0 0 1-.91-.364 1.19 1.19 0 0 1-.371-.866V58m45 9h-9.438a.561.561 0 0 1-.407-.951l3.391-3.646a.579.579 0 0 0 0-.775L315.182 58"/><path stroke="#BBC4EF" stroke-linecap="round" stroke-linejoin="round" stroke-width=".87" d="m289 73 12 10"/><path stroke="#F9879A" stroke-linecap="round" stroke-linejoin="round" stroke-width="1.63" d="m290 90-12-5m12-1-6-4m29 10 7-2m-5 6 6 2m4-5 8-1m-42 4-11 3"/><path stroke="#6534FF" stroke-linecap="round" stroke-linejoin="round" stroke-width="1.63" d="m299 112-4-5"/><path fill="#62BCF9" fill-rule="nonzero" d="M199.25 100h-5.5l-2.75 4.5 2.75 4.5h5.5l2.75-4.5zM219.25 15h-5.5L211 19.5l2.75 4.5h5.5l2.75-4.5zM178.502 106h-3.004L174 108.5l1.498 2.5h3.004l1.498-2.5z"/><path fill="#6534FF" fill-rule="nonzero" d="M121.865 258.808c9.475-2.155 17.167 5.735 18.055 4.457 1.26-1.803-12.446-20.524-31.596-20.262-1.045 0-18.087.442-20.925 10.127-2.572 8.742 7.824 20.253 15.59 19.86 7.567-.393 8.63-11.864 18.876-14.182Z"/><path fill="#F9879A" fill-rule="nonzero" d="M171 147.02v-2.14c.305-.726.682-.907 1.256-.218.574.689 1.255.988 2.018.145.475-.517.995-.372 1.47.072.772.717 1.382.79 2.036-.254.655-1.042 1.103-.689 1.22.381V151a12.782 12.782 0 0 1-2.87-2.358c-.816-.843-1.462-1.06-2.368 0a6.559 6.559 0 0 1-2.592 2.068c0-.127 0-.19-.143-.2v-3.391l.09-.045-.117-.055Z"/><path fill="#52D2BC" fill-rule="nonzero" d="M180.099 119h-11.21a3.348 3.348 0 0 0-2.854 1.678l-5.6 9.72a3.36 3.36 0 0 0 0 3.305l5.6 9.62a3.348 3.348 0 0 0 2.854 1.677h11.21a3.289 3.289 0 0 0 2.855-1.677l5.6-9.687a3.285 3.285 0 0 0 0-3.305l-5.6-9.72a3.289 3.289 0 0 0-2.855-1.61Z"/><path fill="#52D2BC" fill-rule="nonzero" d="m185.766 123.633-10.12-5.25a3.415 3.415 0 0 0-3.361.125l-9.7 5.954a3.274 3.274 0 0 0-1.583 2.915l.42 11.197a3.294 3.294 0 0 0 1.787 2.797l10.12 5.243a3.432 3.432 0 0 0 3.37-.117l9.7-5.955a3.283 3.283 0 0 0 1.6-2.914l-.42-11.206a3.295 3.295 0 0 0-1.813-2.789Z"/><path fill="#F9879A" fill-rule="nonzero" d="M159.648 131.308c.501-.392 1.133-.409 1.371.121.542 1.2 1.486.948 2.372.948 7.48 0 14.954-.018 22.422-.052.821 0 1.757.234 2.241-.948.222-.548.771-.426 1.198-.096.708.599.945 1.628.575 2.504-.575 1.999-1.108 4.007-1.56 6.032-.213.956-.673 1.2-1.526 1.182h-5.745l-13.255-.078h-1.543c-1.715-.548-3.537.226-5.245-.478-.073-.313-.14-.617-.213-.921h.099-.099l-.27-.948.09-.052h-.115c-.09-.391-.19-.782-.288-1.165l.066-.078h-.09l-.082-.322v-.173c-.304-1.096-.558-2.208-.911-3.277-.306-.772-.1-1.665.508-2.2Z"/><path stroke="#6534FF" stroke-linecap="round" stroke-linejoin="round" stroke-width=".94" d="M163 132.5h9m8 8h-5m-4 2h2m4.5 4.5v2M165 123l5-3"/><path fill="#62BCF9" fill-rule="nonzero" d="M349 16h33v5h-33zM349 26h23v5h-23zM363 95h23v5h-23zM133 49h33v5h-33zM133 58h23v5h-23z"/></g></svg>