<svg xmlns="http://www.w3.org/2000/svg" width="181" height="304" fill="none"><path fill="#F1F5FD" d="M-165.515 128.303c27.781-18.036 44.797-5.85 66.28-23.36 26.172-21.345 12.021-48.526 33.707-74.084C-37.112-2.664 34.066-11.359 67.598 17.184c34.991 29.79 6.872 81.322 51.419 124.794 20.307 19.821 33.788 16.573 43.992 35.902 17.57 33.254 2.832 90.758-29.139 105.417-39.647 18.197-70.955-45.541-137.12-39.32-61.265 5.769-73.658 64.088-121.699 58.696-44.073-4.947-89.579-60.273-82.274-111.118 3.764-26.217 21.408-50.076 41.708-63.252Z"/><path stroke="#fff" stroke-dasharray="9 9" stroke-linecap="round" stroke-linejoin="round" stroke-width="3" d="M118 275c4.666-1.488 21.073-7.341 31.986-24.595 12.907-20.413 8.442-41.457 7.526-45.405"/><path fill="#91A0D8" fill-opacity=".27" d="M-3.868 188.21c-17.243-11.767-16.5-55.945 4.764-75.248 16.81-15.338 31.68-1.486 56.719-15.359 30.752-17.073 25.369-47.481 53.79-66.061 26.524-17.3 63.215-18.311 68.887-7.535 5.92 11.23-26.544 26.651-50.717 76.156-16.974 34.703-8.518 42.465-24.75 59.352-19.985 20.871-48.18 24.959-84.273 30.202-14.603 2.147-19.903 1.569-24.42-1.507Z"/><path fill="#9289FF" fill-opacity=".4" d="M84.21 3.606a78.238 78.238 0 0 0-45.549 26.93c-19.834 24.743-6.087 41.63-21.325 75.076-18.115 39.755-53.104 50.003-49.005 58.415 4.555 9.362 52.898 7.114 74.409-20.764 17.515-22.681.766-41.033 16.335-73.447 19.503-40.641 64.782-51.24 60.662-62.23-2.816-7.464-24.803-5.938-35.528-3.98Z"/><path fill="#fff" d="M11.243 173a1.237 1.237 0 0 1-1.195-.887 1.259 1.259 0 0 1 .845-1.548c45.771-13.228 73.8-32.729 83.258-57.946a90.874 90.874 0 0 0 3.978-15.56c1.525-7.965 3.112-16.219 8.965-25.98 10.613-17.643 29.223-30.438 55.334-38.032a1.237 1.237 0 0 1 1.525.846 1.239 1.239 0 0 1-.845 1.527c-25.493 7.409-43.629 19.832-53.892 36.918-5.646 9.39-7.11 17.066-8.655 25.197a92.452 92.452 0 0 1-4.122 15.951c-9.748 26.001-38.311 45.997-84.887 59.473l-.309.041Z"/><path fill="#9289FF" fill-opacity=".4" d="M50.564 150.17c-45.44 16.124-72.293 25.728-71.549 35.95 1.115 13.799 53.373 32.679 87.123 14.17 20.51-11.25 20.552-28.793 55.026-54.541 17.37-12.978 28.731-16.988 27.781-19.559-2.004-5.409-54.819 8.494-98.38 23.98Z"/><path fill="#fff" d="M22.563 194.983a109.838 109.838 0 0 1-28.637-4.127 1.28 1.28 0 0 1-.89-1.527 1.243 1.243 0 0 1 1.532-.867c22.984 6.191 41.95 5.386 56.382-2.538 7.455-4.128 12.217-9.143 17.725-15.024a128.964 128.964 0 0 1 23.294-20.534 132.042 132.042 0 0 1 33.42-16.303 1.218 1.218 0 0 1 1.552.785 1.237 1.237 0 0 1-.786 1.547 130.675 130.675 0 0 0-32.799 15.994 126.983 126.983 0 0 0-22.88 20.183c-5.653 6.025-10.54 11.226-18.325 15.518a60.79 60.79 0 0 1-29.589 6.893ZM-18.377 160a.64.64 0 0 1-.599-.452.616.616 0 0 1 .413-.761c18.027-5.183 31.717-13.964 40.72-26.097 9.003-12.134 10.325-23.198 12.039-35.208.839-7.607 2.395-15.12 4.646-22.436 8.26-24.843 30.25-46.025 65.271-62.992a.641.641 0 0 1 .826.288.616.616 0 0 1-.289.823C69.96 29.967 48.195 50.923 40.018 75.436a119.967 119.967 0 0 0-4.604 22.21c-1.693 12.175-3.304 23.692-12.266 35.763-8.961 12.072-23.065 21.306-41.298 26.57l-.227.021Z"/><path fill="#fff" d="M76.616 28.985a.63.63 0 0 1-.272 0 .616.616 0 0 1-.314-.369.637.637 0 0 1 .043-.488l6.74-13.763a.639.639 0 0 1 .855-.3.696.696 0 0 1 .271.879l-6.76 13.762a.62.62 0 0 1-.563.28ZM64.599 39a.599.599 0 0 1-.594-.53.611.611 0 0 1 .436-.672l13.83-3.77a.539.539 0 0 1 .448.05.57.57 0 0 1 .263.377.634.634 0 0 1-.415.754l-13.83 3.77L64.6 39Zm-7.93 7h-.178a.663.663 0 0 1-.404-.298.606.606 0 0 1-.063-.483l6.667-23.733A.637.637 0 0 1 63 21.09a.697.697 0 0 1 .514-.067.65.65 0 0 1 .467.781l-6.667 23.754a.687.687 0 0 1-.644.443Zm-7.042 12a.581.581 0 0 1-.559-.338.555.555 0 0 1-.034-.457.585.585 0 0 1 .324-.337l12.754-5.815a.653.653 0 0 1 .827.277.585.585 0 0 1-.29.794L49.875 57.94l-.248.06Zm-7.184 10.98c-.271-.008-.498-.235-.534-.536L39.003 44.69c-.032-.335.18-.637.478-.68a.49.49 0 0 1 .412.106.614.614 0 0 1 .214.409l2.888 23.774a.674.674 0 0 1-.108.463.542.542 0 0 1-.37.238l-.074-.02ZM37.613 81a.6.6 0 0 1-.496-.267.613.613 0 0 1 .144-.862l12.764-8.763a.627.627 0 0 1 .867.164c.194.283.12.669-.165.862l-12.763 8.743a.56.56 0 0 1-.352.123ZM34.41 97.999a.6.6 0 0 1-.558-.406l-4.767-12.621a.68.68 0 0 1 .024-.7.58.58 0 0 1 .606-.26.62.62 0 0 1 .467.49l4.767 12.62a.662.662 0 0 1 .008.49.6.6 0 0 1-.327.344.432.432 0 0 1-.22.043Zm-.822 7a.596.596 0 0 1-.496-.254.603.603 0 0 1 .179-.823l13.89-8.87a.6.6 0 0 1 .745.219c.16.245.112.569-.111.76l-13.89 8.87a.477.477 0 0 1-.317.098ZM29.386 122a.641.641 0 0 1-.623-.489l-2.722-13.68a.604.604 0 0 1 .148-.658.632.632 0 0 1 .675-.126c.23.095.38.315.382.56l2.742 13.659a.612.612 0 0 1-.477.714l-.125.02Zm-4.771 8.998a.65.65 0 0 1-.55-.333.63.63 0 0 1 .264-.832l14.786-7.76a.577.577 0 0 1 .465-.043.594.594 0 0 1 .351.313c.152.3.044.668-.244.833l-14.725 7.76a.702.702 0 0 1-.347.062Z"/><path fill="#6534FF" d="M162.005 207.551v-22.953a5.873 5.873 0 0 0-2.965-5.104l-20.015-11.479a5.955 5.955 0 0 0-5.919 0l-20.01 11.479a5.87 5.87 0 0 0-2.964 5.104v22.98a5.869 5.869 0 0 0 2.964 5.109l20.016 11.474a5.953 5.953 0 0 0 5.918 0l20.016-11.474a5.871 5.871 0 0 0 2.959-5.136Z" opacity=".32"/><path fill="#FCCDD3" d="M163.211 205.168v-22.949a5.872 5.872 0 0 0-2.964-5.105l-20.011-11.504a5.951 5.951 0 0 0-5.917 0l-20.012 11.483a5.873 5.873 0 0 0-2.969 5.105v22.97a5.873 5.873 0 0 0 2.969 5.105l20.012 11.483a5.951 5.951 0 0 0 5.917 0l20.011-11.483a5.872 5.872 0 0 0 2.964-5.105Z"/><path stroke="#6535FF" stroke-linecap="round" stroke-linejoin="round" stroke-width="1.51" d="M163.211 181.1a5.911 5.911 0 0 0-2.963-5.133l-20.005-11.555a5.918 5.918 0 0 0-5.915 0l-20.022 11.555a5.913 5.913 0 0 0-2.968 5.133v23.083a5.913 5.913 0 0 0 2.968 5.133"/><path fill="#fff" d="m153.549 197.868 2.424-4.184-2.424-4.186v-4.834l-4.2-2.417-2.425-4.184h-4.844l-4.199-2.417-4.2 2.417h-4.849l-2.425 4.184-4.2 2.417v4.834l-2.425 4.186 2.425 4.184v4.834l4.2 2.417 2.425 4.184h4.849l4.2 2.418 4.199-2.418h4.844l2.425-4.184 4.2-2.417v-4.834Z"/><path stroke="#6535FF" stroke-linecap="round" stroke-linejoin="round" stroke-width="1.51" d="m152.354 183.461-4.199-2.413-2.427-4.187h-4.851l-4.199-2.419-4.2 2.419h-4.851l-2.425 4.187-4.2 2.413v4.835l-2.426 4.187 2.426 4.188v4.836l4.2 2.418 2.425 4.187h4.851"/><path fill="#62BCF9" d="M137.275 199.695c3.665 0 6.636-2.96 6.636-6.613 0-3.652-2.971-6.613-6.636-6.613-3.664 0-6.635 2.961-6.635 6.613 0 3.653 2.971 6.613 6.635 6.613Z"/><path stroke="#6535FF" stroke-linecap="round" stroke-linejoin="round" stroke-width="1.51" d="M134.247 199.695c-2.814-2.39-3.211-6.646-.89-9.534 2.322-2.889 6.494-3.329 9.346-.986"/><path fill="#6534FF" d="m160.259 177.084-19.932-11.518a5.91 5.91 0 0 0-2.223-.744 11.556 11.556 0 0 0-.911 2.8c-.606 3.28.043 6.663.969 9.869.927 3.206 2.144 6.343 2.68 9.634a24.642 24.642 0 0 1-1.522 13.381c-2.267 5.502-6.51 10.127-8.096 15.864a18.425 18.425 0 0 0-.584 3.212l3.75 2.173a5.903 5.903 0 0 0 5.894 0l19.932-11.497a5.886 5.886 0 0 0 2.995-5.085v-22.977a5.885 5.885 0 0 0-2.952-5.112Z" opacity=".32"/><path stroke="#6535FF" stroke-linecap="round" stroke-linejoin="round" stroke-width="1.51" d="m141.497 218.936 18.095-10.823"/><path fill="#fff" d="M45.121 285.207a5.255 5.255 0 0 1-3.337-1.205L25.12 270.147a5.065 5.065 0 0 1-1.846-3.92l.103-29.409a2.196 2.196 0 0 1 1.531-2.066 65.457 65.457 0 0 1 40.78.135 2.196 2.196 0 0 1 1.517 2.086l-.104 29.404a5.072 5.072 0 0 1-1.87 3.911l-16.738 13.739a5.271 5.271 0 0 1-3.372 1.18Z"/><path fill="#52D2BC" stroke="#6535FF" stroke-linecap="round" stroke-linejoin="round" stroke-width=".32" d="m47.881 264.346-7.034-4.319 6.916 9.852 7.36-9.546-7.242 4.013Z"/><path fill="#52D2BC" stroke="#6535FF" stroke-linecap="round" stroke-linejoin="round" stroke-width=".32" d="M40.856 258.22h.04l7.07 3.996 7.113-3.702.035.005-.02-.01.03-.019-6.81-11.6-7.467 11.305.034.015-.025.01Z"/><path fill="#6535FF" d="M67.655 237.067a64.261 64.261 0 0 0-40.335-.136 4.12 4.12 0 0 0-2.85 3.883l-.098 28.409a6.912 6.912 0 0 0 2.502 5.339l15.965 13.386a7.037 7.037 0 0 0 8.993.029l16.058-13.275a6.897 6.897 0 0 0 2.512-5.3l.097-28.408a4.11 4.11 0 0 0-2.844-3.927Zm.715 32.316a4.905 4.905 0 0 1-1.792 3.776L50.52 286.434a5.022 5.022 0 0 1-6.408 0l-15.965-13.406a4.913 4.913 0 0 1-1.762-3.805l.097-28.409a2.113 2.113 0 0 1 1.47-2.004 62.276 62.276 0 0 1 39.067.131 2.117 2.117 0 0 1 1.468 2.014l-.117 28.428Z"/><path fill="#BBC4EF" d="m70.4 268.452.1-28.629c.009-1.784-1.143-3.373-2.858-3.942a65.39 65.39 0 0 0-16.79-3.224 22.633 22.633 0 0 1 3.677 8.555c.813 3.693.952 7.489 1.091 11.25a24.955 24.955 0 0 1-.278 6.085c-1.022 4.828-4.778 8.638-6.588 13.241-1.489 3.752-1.598 7.924-.913 11.896.29 1.626.687 3.232 1.19 4.808a7.124 7.124 0 0 0 2.55-1.336l16.274-13.377a6.938 6.938 0 0 0 2.545-5.327Z" opacity=".44"/><path fill="#070707" d="m32.446 265.501-10.942-2.863c-.842 0-1.525-.641-1.525-1.432l.051-5.221c0-.79.683-1.431 1.525-1.431l10.947 2.863c.262.002.5.149.603.376a.591.591 0 0 1-.126.669l-3.918 1.141a.589.589 0 0 0 0 .84l3.893 4.023c.177.184.22.45.11.675a.665.665 0 0 1-.618.36Zm29.98-8.197 10.944-2.75c.408 0 .8.155 1.086.432.286.277.443.651.436 1.039l-.05 5.279c0 .799-.682 1.447-1.523 1.447l-10.95 2.751a.663.663 0 0 1-.602-.38.605.605 0 0 1 .125-.677l3.953-4.01a.6.6 0 0 0 0-.849l-3.897-1.235a.603.603 0 0 1-.115-.669.66.66 0 0 1 .592-.378Z" opacity=".18"/><path fill="#FCCDD3" d="m32.437 263.312-10.935-.076c-.841 0-1.523-.641-1.523-1.431l.061-8.01c0-.79.682-1.431 1.522-1.431l10.94.077a.66.66 0 0 1 .603.375.592.592 0 0 1-.125.669l-3.933 3.934a.588.588 0 0 0 0 .839l3.887 4.019a.591.591 0 0 1 .111.67.662.662 0 0 1-.608.365Zm29.998-10.948 10.935.072c.41 0 .801.154 1.087.428.287.274.444.644.435 1.028l-.06 7.993c0 .788-.682 1.427-1.523 1.427l-10.94-.076a.66.66 0 0 1-.602-.374.59.59 0 0 1 .125-.668l3.953-3.954a.586.586 0 0 0 0-.837l-3.902-4.016a.589.589 0 0 1-.102-.659.665.665 0 0 1 .594-.364Z"/><path stroke="#6535FF" stroke-linecap="round" stroke-linejoin="round" stroke-width="1.5" d="m28.325 259.187 3.573 4.151c.167.188.21.465.107.7a.599.599 0 0 1-.574.368l-10.052-.079a1.357 1.357 0 0 1-.998-.441 1.52 1.52 0 0 1-.402-1.06l.056-8.272m52.661 9.853-10.361-.076a.624.624 0 0 1-.57-.372.607.607 0 0 1 .118-.663l3.75-3.927a.61.61 0 0 0 0-.836l-3.683-3.979"/><path stroke="#BBC4EF" stroke-linecap="round" stroke-linejoin="round" stroke-width="1.76" d="m29.864 272.07 14.277 12.043"/><path fill="#9289FF" d="m91 244.383.063-9.111c.005-.707.538-1.276 1.192-1.272l6.569.05c.314.003.615.141.836.383.22.243.343.57.34.91l-.063 9.111a.551.551 0 0 1-.308.502.478.478 0 0 1-.548-.107l-3.248-3.288a.478.478 0 0 0-.689 0l-3.294 3.238a.479.479 0 0 1-.552.096.555.555 0 0 1-.298-.512Z"/><path fill="#FFBAC6" d="M9.5 44a7.5 7.5 0 1 0 0-15 7.5 7.5 0 0 0 0 15Z"/><path fill="#DBF8F3" d="M13.5 35c1.933 0 3.5-1.343 3.5-3s-1.567-3-3.5-3-3.5 1.343-3.5 3 1.567 3 3.5 3Z"/></svg>