<svg width="181" height="304" viewBox="0 0 181 304" fill="none" xmlns="http://www.w3.org/2000/svg">
<path d="M-165.515 128.303C-137.734 110.267 -120.718 122.453 -99.2356 104.943C-73.0631 83.5979 -87.2137 56.4165 -65.5284 30.8593C-37.1124 -2.66418 34.0662 -11.3585 67.5978 17.1844C102.589 46.9741 74.4703 98.5062 119.017 141.978C139.324 161.799 152.805 158.551 163.009 177.88C180.579 211.134 165.841 268.638 133.87 283.297C94.223 301.494 62.9147 237.756 -3.24966 243.977C-64.5147 249.746 -76.9083 308.065 -124.949 302.673C-169.022 297.726 -214.528 242.4 -207.223 191.555C-203.459 165.338 -185.815 141.479 -165.515 128.303Z" fill="#F1F5FD"/>
<path d="M118 275C122.666 273.512 139.073 267.659 149.986 250.405C162.893 229.992 158.428 208.948 157.512 205" stroke="white" stroke-width="3" stroke-linecap="round" stroke-linejoin="round" stroke-dasharray="9 9"/>
<path d="M-3.86817 188.21C-21.1107 176.443 -20.3682 132.265 0.8962 112.962C17.7056 97.6237 32.5762 111.476 57.6149 97.6031C88.3667 80.5304 82.9836 50.1217 111.405 31.542C137.929 14.2422 174.62 13.2307 180.292 24.0069C186.212 35.2373 153.748 50.6584 129.575 100.163C112.601 134.866 121.057 142.628 104.825 159.515C84.8399 180.386 56.6455 184.474 20.5518 189.717C5.94932 191.864 0.648695 191.286 -3.86817 188.21Z" fill="#91A0D8" fill-opacity="0.27"/>
<path d="M84.2091 3.60639C66.3426 7.03058 50.2349 16.554 38.6612 30.5357C18.8271 55.2793 32.5743 72.1668 17.3365 105.612C-0.779213 145.367 -35.7683 155.615 -31.669 164.027C-27.1142 173.389 21.2287 171.141 42.7398 143.263C60.2551 120.582 43.5058 102.23 59.075 69.8162C78.5778 29.1748 123.857 18.5763 119.737 7.586C116.921 0.121684 94.9336 1.64752 84.2091 3.60639Z" fill="#9289FF" fill-opacity="0.4"/>
<path d="M11.2432 173C10.6917 173.004 10.2041 172.642 10.0479 172.113C9.86113 171.452 10.2369 170.764 10.8928 170.565C56.6645 157.337 84.6921 137.836 94.1515 112.619C95.9337 107.561 97.2647 102.354 98.1289 97.0599C99.654 89.0944 101.241 80.8401 107.094 71.0793C117.707 53.4356 136.317 40.6413 162.428 33.0473C163.082 32.8615 163.763 33.2394 163.953 33.8934C164.138 34.5485 163.761 35.2307 163.108 35.4204C137.615 42.8287 119.479 55.2516 109.216 72.3381C103.57 81.7274 102.106 89.4039 100.561 97.5345C99.6644 102.964 98.285 108.302 96.439 113.486C86.6912 139.487 58.1277 159.483 11.5523 172.959L11.2432 173Z" fill="white"/>
<path d="M50.5644 150.17C5.12313 166.294 -21.7285 175.898 -20.985 186.12C-19.8696 199.919 32.3879 218.799 66.1383 200.29C86.6488 189.04 86.6901 171.497 121.164 145.749C138.534 132.771 149.895 128.761 148.945 126.19C146.941 120.781 94.126 134.684 50.5644 150.17Z" fill="#9289FF" fill-opacity="0.4"/>
<path d="M22.5625 194.983C12.8758 194.876 3.24619 193.488 -6.07396 190.856C-6.73221 190.665 -7.1242 189.993 -6.96434 189.329C-6.87729 189.011 -6.66661 188.74 -6.37902 188.578C-6.09142 188.415 -5.75062 188.373 -5.43209 188.462C17.5516 194.653 36.5183 193.848 50.9504 185.924C58.4046 181.796 63.167 176.781 68.6748 170.9C75.581 163.145 83.4025 156.25 91.969 150.366C102.279 143.385 113.531 137.896 125.389 134.063C125.699 133.96 126.038 133.984 126.33 134.131C126.622 134.279 126.842 134.537 126.941 134.848C127.146 135.491 126.796 136.179 126.155 136.395C114.524 140.168 103.483 145.552 93.3563 152.389C84.9433 158.175 77.2611 164.952 70.4762 172.572C64.8234 178.597 59.9368 183.798 52.1514 188.09C43.0354 192.854 32.8526 195.226 22.5625 194.983ZM-18.3767 160C-18.6535 159.994 -18.8952 159.812 -18.9755 159.548C-19.0693 159.224 -18.8855 158.886 -18.5625 158.787C-0.535988 153.604 13.1543 144.823 22.1572 132.69C31.1601 120.556 32.4817 109.492 34.1955 97.482C35.035 89.8747 36.5905 82.3628 38.8416 75.0455C47.1011 50.2028 69.0923 29.0207 104.113 12.0545C104.421 11.9188 104.783 12.0447 104.939 12.3424C105.087 12.6491 104.957 13.0171 104.65 13.165C69.9595 29.9667 48.1955 50.9226 40.0185 75.4362C37.7853 82.6788 36.2436 90.1153 35.4138 97.6465C33.7206 109.821 32.11 121.338 23.1484 133.409C14.1867 145.481 0.0834675 154.715 -18.1496 159.979L-18.3767 160Z" fill="white"/>
<path d="M76.6157 28.9852C76.5263 29.0049 76.4338 29.0049 76.3445 28.9852C76.1947 28.9118 76.0809 28.7785 76.0296 28.6163C75.9784 28.4542 75.9941 28.2776 76.0732 28.1277L82.8124 14.3649C82.9709 14.0427 83.3507 13.9095 83.6679 14.0648C83.965 14.2423 84.0824 14.6227 83.9391 14.9437L77.179 28.7065C77.0531 28.896 76.8384 29.0022 76.6157 28.9852ZM64.5992 39C64.3002 39.0033 64.0456 38.7764 64.0054 38.4708C63.9653 38.1651 64.1521 37.8765 64.4411 37.7976L78.2711 34.0274C78.4206 33.9778 78.5836 33.9961 78.7193 34.0777C78.855 34.1594 78.9506 34.2967 78.9823 34.4554C79.0594 34.7804 78.8775 35.1111 78.5674 35.2094L64.7375 38.9796L64.5992 39ZM56.6689 46H56.4912C56.32 45.9556 56.1745 45.8482 56.0869 45.7016C55.9993 45.5549 55.9768 45.3812 56.0245 45.2188L62.6912 21.4864C62.7331 21.3199 62.8441 21.1765 62.999 21.089C63.1539 21.0015 63.3395 20.9773 63.5135 21.0219C63.8622 21.1238 64.0669 21.4664 63.9801 21.8031L57.3134 45.5566C57.2192 45.8193 56.961 45.9969 56.6689 46ZM49.6266 57.9995C49.3855 58.0097 49.1631 57.8752 49.0685 57.662C48.9914 57.5208 48.9788 57.3552 49.0337 57.2047C49.0885 57.0543 49.2059 56.9324 49.3579 56.8681L62.1119 51.0526C62.4207 50.9216 62.7824 51.0431 62.9388 51.3304C63.0868 51.6264 62.9573 51.9816 62.6494 52.1244L49.8746 57.9399L49.6266 57.9995ZM42.4427 68.9794C42.1715 68.972 41.9454 68.7449 41.9093 68.4438L39.0033 44.6896C38.9708 44.3549 39.1834 44.0527 39.4815 44.0097C39.626 43.9801 39.775 44.0186 39.8934 44.1161C40.0118 44.2136 40.089 44.3614 40.1068 44.5248L42.9945 68.2995C43.0153 68.4637 42.9765 68.6304 42.8865 68.7621C42.7966 68.8938 42.6632 68.9795 42.5163 69L42.4427 68.9794ZM37.6124 81C37.4127 80.9987 37.2268 80.8987 37.1167 80.7332C37.0203 80.6 36.9813 80.4341 37.0084 80.2723C37.0356 80.1104 37.1266 79.9661 37.2613 79.8712L50.0245 71.1075C50.3096 70.9148 50.698 70.9883 50.8919 71.2716C51.0858 71.555 51.0118 71.9409 50.7267 72.1336L37.9635 80.8769C37.8641 80.9567 37.7401 81.0001 37.6124 81ZM34.4102 97.9989C34.1638 97.9997 33.9421 97.8384 33.8518 97.5925L29.0852 84.9718C28.9635 84.7541 28.9728 84.4799 29.1091 84.2723C29.2454 84.0647 29.4829 83.9628 29.715 84.0124C29.9472 84.0619 30.1303 84.2535 30.1821 84.5012L34.9487 97.1219C35.0142 97.2774 35.0171 97.4549 34.9567 97.6128C34.8964 97.7706 34.778 97.8948 34.6296 97.9561C34.5609 97.9895 34.4855 98.0042 34.4102 97.9989ZM33.5882 104.999C33.3902 105.001 33.2043 104.906 33.0922 104.745C32.9184 104.468 32.9972 104.105 33.2707 103.922L47.1601 95.052C47.4293 94.9322 47.7469 95.0253 47.9061 95.2708C48.0653 95.5163 48.018 95.8399 47.795 96.031L33.9057 104.901C33.8152 104.971 33.7025 105.005 33.5882 104.999ZM29.3861 122C29.088 121.998 28.8302 121.796 28.7629 121.511L26.0415 107.831C25.952 107.603 26.01 107.344 26.189 107.173C26.368 107.002 26.6334 106.953 26.8636 107.047C27.0939 107.142 27.2445 107.362 27.2464 107.607L29.9885 121.266C30.0528 121.592 29.8408 121.908 29.5107 121.98L29.3861 122ZM24.615 130.998C24.3871 130.993 24.1784 130.867 24.0644 130.665C23.9155 130.36 24.0334 129.99 24.3295 129.833L39.1154 122.073C39.258 121.994 39.426 121.978 39.5803 122.03C39.7345 122.081 39.8614 122.194 39.9312 122.343C40.0834 122.643 39.975 123.011 39.6865 123.176L24.9618 130.936C24.8531 130.986 24.7339 131.007 24.615 130.998Z" fill="white"/>
<path opacity="0.32" d="M162.005 207.551V184.598C162.008 182.492 160.877 180.545 159.04 179.494L139.025 168.015C137.194 166.965 134.937 166.965 133.106 168.015L113.096 179.494C111.259 180.545 110.128 182.492 110.132 184.598V207.578C110.126 209.686 111.257 211.635 113.096 212.687L133.112 224.161C134.943 225.211 137.199 225.211 139.03 224.161L159.046 212.687C160.891 211.629 162.021 209.668 162.005 207.551Z" fill="#6534FF"/>
<path d="M163.211 205.168V182.219C163.215 180.113 162.084 178.165 160.247 177.114L140.236 165.61C138.405 164.56 136.149 164.56 134.319 165.61L114.307 177.093C112.468 178.143 111.336 180.09 111.338 182.198V205.168C111.336 207.276 112.468 209.223 114.307 210.273L134.319 221.756C136.149 222.806 138.405 222.806 140.236 221.756L160.247 210.273C162.084 209.222 163.215 207.274 163.211 205.168Z" fill="#FCCDD3"/>
<path d="M163.211 181.1C163.215 178.982 162.084 177.024 160.248 175.967L140.243 164.412C138.413 163.356 136.158 163.356 134.328 164.412L114.306 175.967C112.468 177.023 111.336 178.981 111.338 181.1V204.183C111.336 206.302 112.468 208.26 114.306 209.316" stroke="#6535FF" stroke-width="1.51" stroke-linecap="round" stroke-linejoin="round"/>
<path d="M153.549 197.868L155.973 193.684L153.549 189.498V184.664L149.349 182.247L146.924 178.063H142.08L137.881 175.646L133.681 178.063H128.832L126.407 182.247L122.207 184.664V189.498L119.782 193.684L122.207 197.868V202.702L126.407 205.119L128.832 209.303H133.681L137.881 211.721L142.08 209.303H146.924L149.349 205.119L153.549 202.702V197.868Z" fill="white"/>
<path d="M152.354 183.461L148.155 181.048L145.728 176.861H140.877L136.678 174.442L132.478 176.861H127.627L125.202 181.048L121.002 183.461V188.296L118.576 192.483L121.002 196.671V201.507L125.202 203.925L127.627 208.112H132.478" stroke="#6535FF" stroke-width="1.51" stroke-linecap="round" stroke-linejoin="round"/>
<path d="M137.275 199.695C140.94 199.695 143.911 196.735 143.911 193.082C143.911 189.43 140.94 186.469 137.275 186.469C133.611 186.469 130.64 189.43 130.64 193.082C130.64 196.735 133.611 199.695 137.275 199.695Z" fill="#62BCF9"/>
<path d="M134.247 199.695C131.433 197.305 131.036 193.049 133.357 190.161C135.679 187.272 139.851 186.832 142.703 189.175" stroke="#6535FF" stroke-width="1.51" stroke-linecap="round" stroke-linejoin="round"/>
<path opacity="0.32" d="M160.259 177.084L140.327 165.566C139.643 165.172 138.887 164.919 138.104 164.822C137.682 165.713 137.376 166.654 137.193 167.622C136.587 170.902 137.236 174.285 138.162 177.491C139.089 180.697 140.306 183.834 140.842 187.125C141.587 191.64 141.06 196.273 139.32 200.506C137.053 206.008 132.81 210.633 131.224 216.37C130.935 217.421 130.739 218.496 130.64 219.582L134.39 221.755C136.214 222.806 138.461 222.806 140.284 221.755L160.216 210.258C162.054 209.221 163.196 207.282 163.211 205.173V182.196C163.215 180.087 162.089 178.137 160.259 177.084Z" fill="#6534FF"/>
<path d="M141.497 218.936L159.592 208.113" stroke="#6535FF" stroke-width="1.51" stroke-linecap="round" stroke-linejoin="round"/>
<path d="M45.1212 285.207C43.8993 285.203 42.7177 284.777 41.7836 284.002L25.12 270.147C23.9445 269.174 23.2684 267.738 23.274 266.227L23.3773 236.818C23.384 235.878 24 235.047 24.9083 234.752C38.1578 230.453 52.4689 230.501 65.6886 234.887C66.5979 235.189 67.2086 236.03 67.2048 236.973L67.1014 266.377C67.0973 267.889 66.4123 269.321 65.2307 270.288L48.4933 284.027C47.5461 284.799 46.3517 285.217 45.1212 285.207Z" fill="white"/>
<path d="M47.8812 264.346L40.8466 260.027L47.7634 269.879L55.1236 260.333L47.8812 264.346Z" fill="#52D2BC" stroke="#6535FF" stroke-width="0.32" stroke-linecap="round" stroke-linejoin="round"/>
<path d="M40.8563 258.22H40.8964L47.9651 262.216L55.0787 258.514L55.1139 258.519L55.0945 258.509L55.1236 258.49L48.3137 246.89L40.8466 258.195L40.8806 258.21L40.8563 258.22Z" fill="#52D2BC" stroke="#6535FF" stroke-width="0.32" stroke-linecap="round" stroke-linejoin="round"/>
<path d="M67.6551 237.067C54.5794 232.694 40.425 232.646 27.3196 236.931C25.6278 237.485 24.4812 239.048 24.4703 240.814L24.3724 269.223C24.3653 271.282 25.2819 273.239 26.8741 274.562L42.8389 287.948C45.4318 290.122 49.2252 290.134 51.8323 287.977L67.8901 274.702C69.4771 273.391 70.3967 271.45 70.4016 269.402L70.4995 240.994C70.5114 239.212 69.3623 237.626 67.6551 237.067ZM68.3699 269.383C68.3671 270.843 67.7107 272.226 66.5781 273.159L50.5202 286.434C48.6665 287.974 45.9655 287.974 44.1118 286.434L28.1469 273.028C27.0185 272.082 26.3726 270.688 26.3845 269.223L26.4824 240.814C26.4835 239.902 27.076 239.093 27.9511 238.81C40.645 234.662 54.3534 234.708 67.0187 238.941C67.8963 239.226 68.489 240.039 68.4874 240.955L68.3699 269.383Z" fill="#6535FF"/>
<path opacity="0.44" d="M70.4004 268.452L70.4996 239.823C70.5087 238.039 69.3569 236.45 67.6418 235.881C62.2151 234.077 56.569 232.993 50.8522 232.657C52.6603 235.23 53.9118 238.142 54.5286 241.212C55.3423 244.905 55.4812 248.701 55.6202 252.462C55.7764 254.494 55.6831 256.537 55.3423 258.547C54.3203 263.375 50.5644 267.185 48.7535 271.788C47.265 275.54 47.1559 279.712 47.8406 283.684C48.1307 285.31 48.5284 286.916 49.0313 288.492C49.9653 288.224 50.8334 287.769 51.5815 287.156L67.8552 273.779C69.4594 272.46 70.391 270.511 70.4004 268.452Z" fill="#BBC4EF"/>
<path opacity="0.18" d="M32.4457 265.501L21.5039 262.638C20.6618 262.638 19.9792 261.997 19.9792 261.206L20.0301 255.985C20.0301 255.195 20.7127 254.554 21.5547 254.554L32.5016 257.417C32.7644 257.419 33.0012 257.566 33.1049 257.793C33.2085 258.02 33.1592 258.282 32.9793 258.462L29.061 259.603C28.826 259.839 28.826 260.206 29.061 260.443L32.9539 264.466C33.1308 264.65 33.1738 264.916 33.0632 265.141C32.9527 265.366 32.7098 265.508 32.4457 265.501ZM62.4251 257.304L73.3702 254.554C73.7783 254.554 74.1694 254.709 74.4556 254.986C74.7418 255.263 74.8992 255.637 74.8924 256.025L74.8417 261.304C74.8417 262.103 74.1601 262.751 73.3194 262.751L62.3693 265.502C62.1069 265.5 61.8704 265.351 61.7669 265.122C61.6635 264.893 61.7127 264.627 61.8923 264.445L65.8451 260.435C66.0797 260.196 66.0797 259.825 65.8451 259.586L61.9481 258.351C61.7752 258.169 61.7302 257.907 61.8329 257.682C61.9355 257.456 62.1669 257.309 62.4251 257.304Z" fill="#070707"/>
<path d="M32.4367 263.312L21.5015 263.236C20.6608 263.236 19.9792 262.595 19.9792 261.805L20.0401 253.795C20.0401 253.005 20.7217 252.364 21.5624 252.364L32.5026 252.441C32.765 252.442 33.0015 252.589 33.105 252.816C33.2085 253.042 33.1592 253.305 32.9796 253.485L29.047 257.419C28.8124 257.655 28.8124 258.022 29.047 258.258L32.9339 262.277C33.1092 262.46 33.1528 262.723 33.045 262.947C32.9372 263.172 32.6985 263.315 32.4367 263.312ZM62.4352 252.364L73.3701 252.436C73.7791 252.436 74.171 252.59 74.4574 252.864C74.7438 253.138 74.9005 253.508 74.8923 253.892L74.8315 261.885C74.8315 262.673 74.1499 263.312 73.3092 263.312L62.3693 263.236C62.1069 263.235 61.8704 263.088 61.7669 262.862C61.6635 262.635 61.7127 262.373 61.8923 262.194L65.8451 258.24C66.0797 258.004 66.0797 257.639 65.8451 257.403L61.943 253.387C61.7751 253.205 61.7352 252.948 61.8408 252.728C61.9465 252.509 62.1784 252.367 62.4352 252.364Z" fill="#FCCDD3"/>
<path d="M28.3247 259.187L31.8978 263.338C32.065 263.526 32.1073 263.803 32.0049 264.038C31.9025 264.272 31.6758 264.418 31.4314 264.406L21.3789 264.327C21.0036 264.328 20.6441 264.169 20.381 263.886C20.1179 263.604 19.9732 263.222 19.9794 262.826L20.0354 254.554M72.6961 264.407L62.3348 264.331C62.0862 264.33 61.8621 264.184 61.7641 263.959C61.666 263.735 61.7127 263.474 61.8829 263.296L65.6331 259.369C65.8538 259.133 65.8538 258.769 65.6331 258.533L61.9502 254.554" stroke="#6535FF" stroke-width="1.5" stroke-linecap="round" stroke-linejoin="round"/>
<path d="M29.8636 272.07L44.1412 284.113" stroke="#BBC4EF" stroke-width="1.76" stroke-linecap="round" stroke-linejoin="round"/>
<path d="M91.0001 244.383L91.0627 235.272C91.0682 234.565 91.6015 233.996 92.2552 234L98.8239 234.05C99.1384 234.053 99.4391 234.191 99.6596 234.433C99.8802 234.676 100.003 235.003 100 235.343L99.9374 244.454C99.9364 244.673 99.8154 244.87 99.6293 244.956C99.4432 245.042 99.2277 245 99.0809 244.849L95.8328 241.561C95.6384 241.366 95.3386 241.366 95.1443 241.561L91.85 244.799C91.7002 244.948 91.4829 244.985 91.2978 244.895C91.1127 244.804 90.9956 244.602 91.0001 244.383Z" fill="#9289FF"/>
<path d="M9.5 44C13.6421 44 17 40.6421 17 36.5C17 32.3579 13.6421 29 9.5 29C5.35786 29 2 32.3579 2 36.5C2 40.6421 5.35786 44 9.5 44Z" fill="#FFBAC6"/>
<path d="M13.5 35C15.433 35 17 33.6569 17 32C17 30.3431 15.433 29 13.5 29C11.567 29 10 30.3431 10 32C10 33.6569 11.567 35 13.5 35Z" fill="#DBF8F3"/>
</svg>
