<svg xmlns="http://www.w3.org/2000/svg" width="195" height="85" fill="none"><mask id="a" width="195" height="85" x="0" y="0" mask-type="alpha" maskUnits="userSpaceOnUse"><path fill="#C4C4C4" d="M0 0h195v85H0z"/></mask><g mask="url(#a)"><path fill="#fff" d="M22.705 42.004a3.35 3.35 0 0 1-2.194.018L7.872 37.708A3.087 3.087 0 0 1 5.96 35.89L-.3 19.35a1.29 1.29 0 0 1 .444-1.48c6.76-5.172 15.067-8.124 23.675-8.411.592-.02 1.126.325 1.327.856l6.257 16.537c.323.85.233 1.797-.244 2.586l-6.753 11.2a3.24 3.24 0 0 1-1.702 1.366Z"/><path fill="#52D2BC" d="m19.823 29.713-5.006-.962 6.127 4.094 2.217-6.894-3.338 3.762Z"/><path fill="#52D2BC" d="m14.434 27.733.023-.008 4.957.773 3.33-3.56.021-.004-.013-.002.013-.016-6.441-5.099-1.9 7.904.022.002-.012.01Z"/><path fill="#6535FF" d="M25.428 10.275c-8.521.264-16.738 3.184-23.416 8.318-.862.664-1.192 1.78-.818 2.774L7.24 37.345c.439 1.158 1.39 2.066 2.598 2.478l12.133 4.196c1.97.681 4.172-.101 5.22-1.855l6.46-10.799a4.018 4.018 0 0 0 .317-3.5L27.92 11.888c-.376-1.003-1.383-1.655-2.493-1.613Zm7.357 18.002c.312.821.229 1.735-.227 2.494l-6.46 10.799c-.743 1.25-2.31 1.813-3.715 1.334l-12.137-4.208a2.993 2.993 0 0 1-1.84-1.77L2.36 20.949a1.242 1.242 0 0 1 .421-1.432c6.47-4.972 14.428-7.8 22.68-8.058a1.31 1.31 0 0 1 1.285.826l6.04 15.992Z"/><path fill="#BBC4EF" d="M33.763 27.332 27.67 11.231c-.378-1.004-1.388-1.657-2.504-1.62-3.535.116-7.041.682-10.428 1.684a13.75 13.75 0 0 1 3.97 4.04c1.265 1.905 2.16 4.008 3.05 6.092a14.62 14.62 0 0 1 1.146 3.476c.444 2.924-.915 5.846-.976 8.808-.057 2.417.776 4.784 2.026 6.872a22.414 22.414 0 0 0 1.724 2.453c.484-.345.89-.78 1.192-1.28l6.561-10.902a4.04 4.04 0 0 0 .332-3.522Z" opacity=".44"/><path fill="#070707" d="m11.122 33.573-6.96.67c-.488.174-1.022-.044-1.191-.488l-1.093-2.943c-.17-.444.089-.946.577-1.121l6.962-.67a.42.42 0 0 1 .43.085.347.347 0 0 1 .072.402l-2.027 1.456a.348.348 0 0 0 .18.472l3.122 1.45a.353.353 0 0 1 .208.356.402.402 0 0 1-.28.331ZM26.743 22.73l5.756-3.823a.995.995 0 0 1 .722.017.856.856 0 0 1 .477.493l1.104 2.976c.172.449-.084.954-.572 1.13l-5.758 3.823a.418.418 0 0 1-.43-.088.353.353 0 0 1-.073-.406l1.43-3.075a.355.355 0 0 0-.182-.477l-2.525.117a.36.36 0 0 1-.21-.351.398.398 0 0 1 .261-.336Z" opacity=".18"/><path stroke="#6535FF" stroke-linecap="round" stroke-linejoin="round" d="M34.225 24.582 28.2 26.696a.395.395 0 0 1-.411-.09.355.355 0 0 1-.074-.397l1.331-2.987a.361.361 0 0 0-.18-.47l-2.99-1.468M7.376 30.885l2.963 1.588a.394.394 0 0 1 .213.37.36.36 0 0 1-.254.327l-5.845 2.048a.867.867 0 0 1-.674-.04.92.92 0 0 1-.46-.512l-1.745-4.658 5.802.877Z"/><path stroke="#BBC4EF" stroke-linecap="round" stroke-linejoin="round" stroke-width="1.76" d="m11.036 37.8 10.866 3.794"/><path fill="#FCCDD3" d="M10.646 32.346 4.29 34.579c-.487.175-1.02-.043-1.19-.487L1.414 29.58c-.17-.444.087-.945.575-1.12l6.36-2.235a.419.419 0 0 1 .43.086.346.346 0 0 1 .07.402L7.416 29.74a.348.348 0 0 0 .18.471l3.117 1.449c.141.066.223.205.209.353a.4.4 0 0 1-.275.332Zm15.042-12.393 6.356-2.236c.237-.085.497-.08.722.014a.84.84 0 0 1 .473.487l1.682 4.502c.17.443-.088.944-.576 1.119l-6.36 2.234a.419.419 0 0 1-.43-.085.345.345 0 0 1-.07-.4l1.442-3.044a.347.347 0 0 0-.18-.47l-3.125-1.444a.35.35 0 0 1-.2-.35.4.4 0 0 1 .266-.327Z"/><path fill="#6534FF" d="m184.138 36.91 6.966-13.905a3.85 3.85 0 0 0-.305-3.964l-9.034-12.839c-.827-1.175-2.238-1.838-3.701-1.74l-15.998 1.072c-1.468.097-2.766.944-3.403 2.22l-6.974 13.923a3.849 3.849 0 0 0 .304 3.967l9.035 12.835c.826 1.175 2.237 1.838 3.701 1.74l16-1.067c1.475-.098 2.777-.954 3.409-2.241Z" opacity=".32"/><path fill="#FCCDD3" d="m185.616 35.822 6.964-13.904a3.85 3.85 0 0 0-.304-3.964L183.252 5.1c-.826-1.175-2.237-1.838-3.701-1.74l-15.999 1.074c-1.469.095-2.768.942-3.406 2.22l-6.971 13.916a3.852 3.852 0 0 0 .307 3.966l9.031 12.84c.826 1.174 2.236 1.838 3.7 1.74l16-1.074c1.467-.097 2.766-.944 3.403-2.221Z"/><path stroke="#6535FF" stroke-linecap="round" stroke-linejoin="round" stroke-width="1.2" d="M192.92 21.24a3.874 3.874 0 0 0-.296-3.98L183.62 4.376c-.824-1.178-2.234-1.84-3.699-1.739l-16.028 1.115c-1.47.099-2.773.952-3.414 2.236l-7.006 13.985a3.877 3.877 0 0 0 .299 3.983"/><path fill="#fff" d="m181.788 28.558 2.787-1.822-.247-3.248 1.467-2.93-1.893-2.698-.246-3.248-3.03-1.424-1.892-2.7-3.36.23-3.033-1.425-2.786 1.822-3.36.23-1.467 2.928-2.787 1.823.247 3.248-1.467 2.929 1.893 2.699.246 3.248 3.033 1.426 1.893 2.699 3.359-.23 3.03 1.424 2.786-1.822 3.36-.23 1.467-2.929Z"/><path fill="#6535FF" fill-rule="evenodd" d="M178.31 8.917c.18-.013.354.069.455.213l1.817 2.592 2.912 1.369a.49.49 0 0 1 .283.405l.237 3.119 1.818 2.588a.481.481 0 0 1-.134.68.516.516 0 0 1-.703-.129l-1.894-2.696a.487.487 0 0 1-.087-.24l-.225-2.968-2.771-1.303a.502.502 0 0 1-.198-.166l-1.729-2.466-3.069.21a.521.521 0 0 1-.257-.047l-2.771-1.303-2.546 1.665a.516.516 0 0 1-.248.083l-3.066.207-1.34 2.675a.494.494 0 0 1-.172.192l-2.545 1.664.225 2.968a.482.482 0 0 1-.05.25l-1.339 2.674 1.728 2.466c.05.07.079.154.086.24l.224 2.967 2.772 1.303a.484.484 0 0 1 .234.655.513.513 0 0 1-.676.227l-3.034-1.426a.49.49 0 0 1-.284-.405l-.236-3.119-1.816-2.591a.477.477 0 0 1-.037-.49l1.408-2.81-.236-3.12a.484.484 0 0 1 .221-.443l2.676-1.75 1.408-2.81a.506.506 0 0 1 .42-.275l3.223-.218 2.675-1.75a.52.52 0 0 1 .504-.035l2.912 1.369 3.225-.221Z" clip-rule="evenodd"/><path fill="#62BCF9" d="M171.057 24.881c2.291 1.077 5.048.157 6.156-2.056 1.109-2.213.149-4.88-2.142-5.957-2.292-1.078-5.049-.157-6.157 2.056-1.108 2.213-.149 4.88 2.143 5.957Z"/><path fill="#6535FF" fill-rule="evenodd" d="M177.177 20.33c-.956-2.012-3.4-2.866-5.471-1.917-2.066.947-2.993 3.338-2.074 5.36a.514.514 0 0 1-.261.677.506.506 0 0 1-.678-.24c-1.15-2.53.01-5.53 2.6-6.716 2.586-1.186 5.627-.12 6.817 2.385a.514.514 0 0 1-.25.68.508.508 0 0 1-.683-.23Z" clip-rule="evenodd"/><path fill="#6534FF" d="M192.292 17.94 183.322 5.1a4.048 4.048 0 0 0-1.164-1.104 7.93 7.93 0 0 0-1.42 1.428c-1.374 1.81-1.995 4.05-2.388 6.265-.393 2.215-.585 4.472-1.249 6.624a16.533 16.533 0 0 1-5.012 7.66c-3.087 2.667-7.144 4.22-9.878 7.23a12.471 12.471 0 0 0-1.339 1.774l1.686 2.42c.821 1.173 2.226 1.833 3.686 1.732l15.954-1.105c1.464-.088 2.767-.927 3.416-2.2l6.973-13.92a3.856 3.856 0 0 0-.295-3.965Z" opacity=".32"/><path fill="#6535FF" fill-rule="evenodd" d="M182.972 36.498a.526.526 0 0 1-.482.55l-14.601 1.237a.497.497 0 0 1-.545-.463.526.526 0 0 1 .482-.55l14.601-1.236a.497.497 0 0 1 .545.462Z" clip-rule="evenodd"/><g fill="#6534FF" opacity=".61"><path d="M112.972 62.654c2.093.799 2.087.797 1.399 2.737-.42 1.184-.895 2.35-1.23 3.558-.336 1.208-.921 1.776-2.276 1.08a3.246 3.246 0 0 0-.736-.195 2.141 2.141 0 0 0-1.353-.475l-.457-.16-3.312-1.426c1.326-.65 2.406-1.22 3.512-1.721.745-.355 1.034-.736.594-1.571-.568-1.084-.979-2.229-1.573-3.624l1.799.632c.512.18 1.174.354 1.761.53l1.865.656.007-.021ZM86.173 61.558c-2.362-1.074-2.358-1.066-1.466-3.477l.917-2.588c.734-2.07.734-2.07 2.925-1.406.313.34.759.544 1.226.559.963.338 1.921.71 2.873 1.079.27.095.657.137.661.511.004.374-.36.421-.61.549-.698.365-1.394.756-2.131 1.055-1.05.429-1.06 1.083-.578 1.962a9.292 9.292 0 0 1 1.227 3.103c-1.182-.02-2.062-.905-3.184-.71l-.55-.194c-.286-.417-.83-.6-1.31-.443Z" opacity=".61"/><path d="M85.944 61.63a1.165 1.165 0 0 1 1.307.46c-1.307 6.643-.141 12.54 6.178 16.881l-.47 1.328c-3.166-1.567-5.051-4.194-6.301-7.245-1.51-3.773-1.488-7.596-.714-11.424Z" opacity=".61"/><path d="m92.78 80.09.47-1.328c6.947.451 12.508-2.85 15.465-9.18.493-.002.975.168 1.357.477-1.963 3.526-4.399 6.617-8.187 8.575-2.837 1.44-5.822 2.165-9.105 1.455ZM113.162 62.573l-1.391-.489 1.695-4.78c.839-2.366.013-4.062-2.545-5.199l-.744-.377c.231-.65-.43-.686-.747-.925-1.563-1.188-3.506-1.672-5.202-2.622l.298-.842c4.064 1.15 7.707 3.443 10.441 6.57.619.609.793 1.504.438 2.252-.785 2.124-1.492 4.276-2.243 6.412Z" opacity=".61"/><path d="m104.721 47.524-.299.843c-.247-.052-.498-.094-.744-.168-3.117-.938-6.278-1.473-9.485-1.006-1.189.06-2.174.846-2.439 1.944-.531 1.795-1.253 3.535-1.88 5.303a1.746 1.746 0 0 1-1.224-.558c.733-2.067 1.48-4.176 2.182-6.277.174-.76.82-1.324 1.631-1.427 4.09-.75 8.368-.28 12.258 1.346Z" opacity=".61"/><path d="M89.579 54.497c.83.163.878-.48 1.05-.95.503-1.417 1.072-2.811 1.507-4.247.177-.769.855-1.327 1.684-1.387 1.96-.3 3.97-.28 5.947.057a30.028 30.028 0 0 1 10.445 3.994l.747.379c.081.84.919 1.14 1.416 1.664.937.966 1.329 1.839.749 3.141-.743 1.624-1.198 3.38-1.796 5.066-.589-.177-1.182-.344-1.768-.532-.585-.189-1.021-.36-1.805-.635.603 1.38 1.008 2.55 1.579 3.637.442.838.184 1.232-.596 1.577-1.11.503-2.195 1.074-3.525 1.727l3.324 1.43c-2.12 3.809-4.848 7.054-9.395 8.317-4.814 1.317-5.77.894-8.823-2.665a10.636 10.636 0 0 1-1.565-2.593c-1.574-3.407-1.495-6.887-.904-10.392 1.123-.19 2.005.704 3.194.713a9.319 9.319 0 0 0-1.231-3.112c-.483-.881-.474-1.538.58-1.968a36.024 36.024 0 0 0 2.138-1.058c.25-.128.617-.198.611-.55-.005-.352-.395-.408-.662-.513-.974-.389-1.942-.74-2.901-1.1Z" opacity=".61"/></g><path fill="#52D2BC" d="M112.995 60.415c2.087.776 2.081.774 1.369 2.736-.435 1.197-.926 2.377-1.276 3.597-.351 1.221-.944 1.8-2.294 1.117a3.175 3.175 0 0 0-.734-.185 2.09 2.09 0 0 0-1.35-.46l-.456-.156-3.301-1.39c1.336-.673 2.426-1.26 3.54-1.78.75-.367 1.045-.754.614-1.59-.556-1.082-.954-2.23-1.532-3.626l1.794.612c.511.174 1.172.34 1.758.511l1.86.635.008-.021ZM85.661 59.362c-2.453-1.08-2.45-1.072-1.539-3.473l.936-2.577c.75-2.062.75-2.062 3.023-1.39.327.34.79.544 1.274.561 1 .34 1.995.715 2.984 1.087.28.095.681.14.687.512.006.373-.37.418-.628.545-.723.362-1.441.748-2.204 1.044-1.085.424-1.09 1.076-.588 1.955a9.151 9.151 0 0 1 1.29 3.098c-1.225-.024-2.142-.91-3.303-.72l-.572-.196a1.24 1.24 0 0 0-1.36-.446Z"/><path fill="#fff" d="M85.254 59.466a1.12 1.12 0 0 1 1.287.44c-1.39 6.664-.32 12.544 5.871 16.789l-.485 1.335c-3.111-1.518-4.938-4.116-6.132-7.149-1.44-3.75-1.362-7.574-.54-11.415Z"/><path fill="#fff" d="m91.927 78.03.491-1.352c6.831.304 12.376-3.155 15.421-9.62a2 2 0 0 1 1.326.451c-2.007 3.608-4.47 6.788-8.242 8.85-2.823 1.52-5.778 2.317-8.996 1.671ZM111.88 60.035l-1.33-.453 1.843-5.073c.912-2.511.18-4.252-2.256-5.336l-.707-.364c.251-.69-.389-.7-.687-.937-1.468-1.178-3.334-1.605-4.942-2.529l.325-.894a18.77 18.77 0 0 1 9.864 6.445c.576.61.708 1.54.332 2.338-.849 2.255-1.624 4.536-2.442 6.803Z"/><path fill="#fff" d="m104.128 44.445-.325.894c-.241-.045-.485-.08-.723-.148-3.023-.864-6.103-1.305-9.266-.695-1.169.108-2.164.968-2.465 2.129-.589 1.9-1.362 3.749-2.043 5.623a1.537 1.537 0 0 1-1.18-.537 424.09 424.09 0 0 0 2.376-6.656c.2-.802.854-1.418 1.653-1.556 4.04-.94 8.218-.61 11.973.946Z"/><path fill="#FCCDD3" d="M89.087 52.273c.829.152.885-.496 1.064-.973.522-1.435 1.11-2.847 1.563-4.3.187-.778.873-1.35 1.703-1.422a18.544 18.544 0 0 1 5.952-.027 29.154 29.154 0 0 1 10.402 3.877l.743.372c.07.845.904 1.136 1.395 1.657.925.96 1.306 1.834.709 3.154-.765 1.648-1.243 3.423-1.864 5.131-.587-.17-1.178-.33-1.761-.512-.584-.181-1.018-.347-1.8-.613.587 1.381.977 2.554 1.534 3.642.431.838.168 1.239-.617 1.597-1.118.523-2.21 1.114-3.551 1.79l3.309 1.395c-2.172 3.868-4.944 7.176-9.511 8.514-4.835 1.394-5.786.981-8.796-2.562a10.357 10.357 0 0 1-1.532-2.59c-1.531-3.41-1.407-6.919-.77-10.46 1.126-.206 1.997.682 3.187.674a9.175 9.175 0 0 0-1.192-3.118c-.471-.882-.454-1.543.606-1.991.74-.339 1.448-.718 2.154-1.097.252-.133.62-.209.62-.563-.002-.355-.392-.405-.657-.508-.97-.378-1.935-.718-2.89-1.067Z"/><path fill="#5CBEFF" d="M52.999 57.185c-1.391-3.749-.494-2.856-4.263-4.285 3.77-1.383 2.872-.49 4.263-4.24 1.39 3.75.493 2.857 4.262 4.24-3.724 1.429-2.826.536-4.262 4.285Z"/><path fill="#3E1EC4" d="m118.488 28.032.054-7.062a.983.983 0 0 1 .303-.7c.193-.185.453-.288.724-.286l5.656.042c.271.001.53.108.72.295.19.188.295.441.293.704l-.054 7.062a.428.428 0 0 1-.265.388.449.449 0 0 1-.472-.079l-2.797-2.551a.446.446 0 0 0-.593 0l-2.837 2.513a.446.446 0 0 1-.477.073.424.424 0 0 1-.255-.4Z"/><path fill="#F9879A" d="M64.045 21.37h-2.457l-1.227 2.038 1.227 2.039h2.457l1.23-2.039-1.23-2.039ZM139.997 48.398h-2.457l-1.227 2.038 1.227 2.04h2.457l1.23-2.04-1.23-2.038Z"/></g></svg>