<svg xmlns="http://www.w3.org/2000/svg" width="60" height="60"><path fill="#FFF" fill-rule="evenodd" d="M30 0C13.43 0 0 13.431 0 30c0 16.569 13.431 30 30 30 16.569 0 30-13.431 30-30C60 13.43 46.569 0 30 0ZM11.999 31.046s-1.162-.412-1.274-1.311c-.113-.9 1.311-1.387 1.311-1.387l30.088-11.803s2.474-1.086 2.474.712l-5.359 27.016s-.75 1.873-2.81.974l-7.625-5.846.001.001-4.89 4.46s-.383.29-.801.108l.987-8.428S37.815 23.215 38.377 22.69c.563-.524.375-.637.375-.637.038-.637-1.012 0-1.012 0L19.568 33.594l-7.57-2.548Z"/></svg>