<svg width="20" height="20" viewBox="0 0 20 20" fill="none" xmlns="http://www.w3.org/2000/svg">
  <path d="M10 0C4.47548 0 0 4.47613 0 10C0 15.5239 4.47613 20 10 20C15.5245 20 20 15.5239 20 10C20 4.47613 15.5239 0 10 0ZM14.9116 6.85097L13.2703 14.5852C13.149 15.1335 12.8226 15.2665 12.3671 15.0084L9.8671 13.1658L8.66129 14.3271C8.52839 14.46 8.41548 14.5729 8.15742 14.5729L8.33484 12.0284L12.9677 7.84258C13.1697 7.66516 12.9232 7.56452 12.6568 7.74194L6.93097 11.3465L4.46323 10.5761C3.9271 10.4071 3.91484 10.04 4.57613 9.78193L14.2174 6.06387C14.6652 5.90258 15.0561 6.1729 14.911 6.85032L14.9116 6.85097Z" fill="#8076FA"/>
</svg>