<svg xmlns="http://www.w3.org/2000/svg" width="24" height="24" fill="none"><path fill="#C4CAE8" d="M8.027 19.325c0 .099-.11.178-.251.178-.16.015-.271-.064-.271-.178 0-.1.111-.179.251-.179.146-.015.271.065.271.179ZM6.523 19.1c-.034.1.062.214.208.244.125.05.27 0 .3-.1.029-.099-.063-.213-.208-.258-.126-.034-.267.015-.3.114Zm2.138-.084c-.14.035-.237.13-.222.243.014.1.14.164.285.13.14-.035.237-.13.223-.229-.015-.094-.145-.159-.286-.144ZM11.845 0C5.134 0 0 5.226 0 12.109c0 5.504 3.377 10.213 8.202 11.87.619.115.837-.277.837-.6 0-.307-.015-2.005-.015-3.047 0 0-3.387.745-4.098-1.479 0 0-.552-1.444-1.345-1.816 0 0-1.108-.78.077-.764 0 0 1.205.099 1.868 1.28 1.06 1.916 2.835 1.365 3.527 1.037.112-.794.426-1.345.774-1.672-2.704-.308-5.433-.71-5.433-5.484 0-1.365.367-2.05 1.141-2.923-.125-.323-.537-1.653.126-3.37C6.673 4.82 9 6.481 9 6.481a11.103 11.103 0 0 1 3.039-.422c1.03 0 2.07.144 3.038.422 0 0 2.328-1.667 3.34-1.34.662 1.722.25 3.047.125 3.37.774.878 1.248 1.563 1.248 2.923 0 4.79-2.85 5.171-5.554 5.484.445.392.822 1.136.822 2.303 0 1.672-.014 3.741-.014 4.148 0 .323.222.715.837.6C20.719 22.323 24 17.614 24 12.11 24 5.226 18.556 0 11.845 0ZM4.703 17.116c-.063.05-.048.164.034.258.078.08.189.115.252.05.063-.05.048-.164-.034-.258-.078-.08-.189-.114-.252-.05Zm-.522-.402c-.034.065.014.144.11.194.078.05.175.035.209-.035.034-.064-.015-.144-.111-.193-.097-.03-.174-.015-.208.034Zm1.567 1.767c-.077.065-.048.213.063.308.112.114.252.129.315.05.063-.065.034-.214-.063-.308-.107-.114-.252-.13-.315-.05Zm-.551-.73c-.078.05-.078.18 0 .293.077.114.208.164.27.114.078-.064.078-.193 0-.307-.067-.114-.193-.164-.27-.1Z"/></svg>