<svg width="20" height="20" viewBox="0 0 20 20" fill="none" xmlns="http://www.w3.org/2000/svg">
  <path fill-rule="evenodd" clip-rule="evenodd" d="M10 20C15.5228 20 20 15.5228 20 10C20 4.47715 15.5228 0 10 0C4.47715 0 0 4.47715 0 10C0 15.5228 4.47715 20 10 20ZM11.2267 11.24C11.6067 11.24 11.9067 10.9067 11.9067 10.5C11.9067 10.0933 11.6067 9.76 11.2267 9.76C10.8467 9.76 10.5467 10.0933 10.5467 10.5C10.5467 10.9067 10.8533 11.24 11.2267 11.24ZM8.11333 10.5C8.11333 10.0933 8.41333 9.76 8.79333 9.76C9.17333 9.76 9.48 10.0933 9.47333 10.5C9.47333 10.9067 9.17333 11.24 8.79333 11.24C8.42 11.24 8.11333 10.9067 8.11333 10.5ZM15.8333 17.5V5.54C15.8333 4.78 15.22 4.16667 14.4667 4.16667H5.53333C4.78 4.16667 4.16667 4.78 4.16667 5.54V14.5533C4.16667 15.3133 4.78 15.9267 5.53333 15.9267H13.0933L12.74 14.6933C13.7802 15.6604 14.1131 15.9722 14.4518 16.2775C14.7483 16.5448 15.0493 16.8072 15.8333 17.5ZM12.9733 7.97333C12.9733 7.97333 13.9333 9.71333 13.9333 11.86C13.9333 11.86 13.3667 12.8267 11.8933 12.8733C11.8933 12.8733 11.6533 12.5867 11.4533 12.3333C12.3267 12.0867 12.66 11.54 12.66 11.54C12.3867 11.72 12.1267 11.8467 11.8933 11.9333C10.457 12.5366 8.85858 12.3302 7.73333 11.7C7.73006 11.6978 7.71811 11.6909 7.70048 11.6808C7.64526 11.6491 7.53434 11.5853 7.46 11.5333C7.46 11.5333 7.78 12.0667 8.62667 12.32C8.42667 12.5733 8.18 12.8733 8.18 12.8733C6.70667 12.8267 6.14667 11.86 6.14667 11.86C6.14667 9.71333 7.10667 7.97333 7.10667 7.97333C8.06667 7.25333 8.98 7.27333 8.98 7.27333L9.04667 7.35333C7.84667 7.7 7.29333 8.22667 7.29333 8.22667C7.29333 8.22667 7.44 8.14667 7.68667 8.03333C9.22283 7.35857 11.0831 7.35872 12.6667 8.22667C12.6667 8.22667 12.14 7.72667 11.0067 7.38L11.1 7.27333C11.1 7.27333 12.0133 7.25333 12.9733 7.97333Z" fill="#8076FA"/>
</svg>
