<svg xmlns="http://www.w3.org/2000/svg" width="46" height="45" fill="none"><path fill="#FF4502" d="M26.316 24.308a1.808 1.808 0 1 0 3.617 0 1.808 1.808 0 0 0-3.617 0Zm7.232-5.424a1.803 1.803 0 0 0-1.632 1.035c.944.718 1.728 1.541 2.305 2.45a1.807 1.807 0 0 0-.673-3.485ZM22.7 0C10.275 0 .2 10.075.2 22.5S10.275 45 22.7 45s22.5-10.075 22.5-22.5S35.125 0 22.7 0Zm12.305 24.002a6.53 6.53 0 0 1 .351 2.114c0 4.992-5.665 9.04-12.656 9.04-6.991 0-12.656-4.048-12.656-9.04 0-.728.12-1.436.351-2.114a3.617 3.617 0 0 1 1.457-6.926c1.36 0 2.541.748 3.159 1.858 1.818-.994 4.028-1.647 6.433-1.813l2.934-6.584a1.068 1.068 0 0 1 1.28-.593l4.6 1.331a2.714 2.714 0 0 1 5.103 1.286 2.714 2.714 0 0 1-2.712 2.712 2.714 2.714 0 0 1-2.556-1.813l-4.128-1.19-2.16 4.846c2.466.15 4.731.809 6.59 1.823a3.614 3.614 0 0 1 6.775 1.758 3.633 3.633 0 0 1-2.165 3.305ZM26.4 28.17c-.748.588-2.224 1.22-3.701 1.22-1.477 0-2.958-.632-3.701-1.22a1.072 1.072 0 0 0-1.507.181 1.071 1.071 0 0 0 .18 1.507c1.291 1.024 3.265 1.682 5.028 1.682 1.763 0 3.737-.658 5.032-1.682a1.072 1.072 0 0 0-.537-1.91 1.077 1.077 0 0 0-.794.222Zm-14.55-9.286a1.807 1.807 0 0 0-.672 3.485c.577-.909 1.36-1.732 2.305-2.45a1.803 1.803 0 0 0-1.632-1.035Zm3.617 5.424a1.808 1.808 0 1 0 3.616 0 1.808 1.808 0 0 0-3.616 0Z"/></svg>