<svg xmlns="http://www.w3.org/2000/svg" width="60" height="60"><path fill="#6534FF" fill-rule="evenodd" d="M45.418 24.224c.014.314.02.63.02.946 0 9.674-7.223 20.83-20.43 20.83-4.057 0-7.83-1.212-11.008-3.288.562.067 1.134.101 1.713.101 3.364 0 6.46-1.17 8.919-3.134-3.144-.06-5.795-2.176-6.709-5.085a7.031 7.031 0 0 0 3.243-.125c-3.285-.671-5.76-3.631-5.76-7.177v-.094a7.025 7.025 0 0 0 3.253.916 7.354 7.354 0 0 1-3.196-6.094c0-1.34.356-2.598.973-3.68 3.541 4.43 8.833 7.344 14.801 7.65a7.445 7.445 0 0 1-.186-1.67c0-4.041 3.216-7.32 7.182-7.32a7.11 7.11 0 0 1 5.241 2.313 14.223 14.223 0 0 0 4.56-1.777 7.323 7.323 0 0 1-3.158 4.05A14.118 14.118 0 0 0 49 20.433a14.772 14.772 0 0 1-3.582 3.79M30 0C13.431 0 0 13.431 0 30c0 16.569 13.431 30 30 30 16.569 0 30-13.431 30-30C60 13.431 46.569 0 30 0"/></svg>