<svg xmlns="http://www.w3.org/2000/svg" width="24" height="24" fill="none"><path fill="#C4CAE8" fill-rule="evenodd" d="M12 24c6.627 0 12-5.373 12-12S18.627 0 12 0 0 5.373 0 12s5.373 12 12 12Zm1.472-10.512c.456 0 .816-.4.816-.888s-.36-.888-.816-.888c-.456 0-.816.4-.816.888s.368.888.816.888ZM9.736 12.6c0-.488.36-.888.816-.888.456 0 .824.4.816.888 0 .488-.36.888-.816.888-.448 0-.816-.4-.816-.888ZM19 21V6.648C19 5.736 18.264 5 17.36 5H6.64C5.736 5 5 5.736 5 6.648v10.816c0 .912.736 1.648 1.64 1.648h9.072l-.424-1.48c1.248 1.16 1.648 1.535 2.054 1.901.356.32.717.636 1.658 1.467ZM15.568 9.568s1.152 2.088 1.152 4.664c0 0-.68 1.16-2.448 1.216 0 0-.288-.344-.528-.648 1.048-.296 1.448-.952 1.448-.952-.328.216-.64.368-.92.472-1.724.724-3.642.476-4.992-.28a1.316 1.316 0 0 0-.04-.023c-.066-.038-.199-.115-.288-.177 0 0 .384.64 1.4.944-.24.304-.536.664-.536.664-1.768-.056-2.44-1.216-2.44-1.216 0-2.576 1.152-4.664 1.152-4.664 1.152-.864 2.248-.84 2.248-.84l.08.096c-1.44.416-2.104 1.048-2.104 1.048s.176-.096.472-.232c1.843-.81 4.076-.81 5.976.232 0 0-.632-.6-1.992-1.016l.112-.128s1.096-.024 2.248.84Z" clip-rule="evenodd"/></svg>