<svg xmlns="http://www.w3.org/2000/svg" width="24" height="24" fill="none"><path fill="#C4CAE8" d="M13.929 12.964a.964.964 0 1 0 1.928 0 .964.964 0 0 0-1.928 0Zm3.857-2.893a.962.962 0 0 0-.87.552c.503.383.92.822 1.229 1.307a.964.964 0 0 0-.36-1.859ZM12 0C5.373 0 0 5.373 0 12s5.373 12 12 12 12-5.373 12-12S18.627 0 12 0Zm6.563 12.8c.123.362.187.74.187 1.129 0 2.662-3.021 4.821-6.75 4.821s-6.75-2.159-6.75-4.821c0-.389.064-.767.188-1.128a1.929 1.929 0 1 1 2.461-2.703c.97-.53 2.148-.878 3.431-.967l1.565-3.511a.57.57 0 0 1 .683-.316l2.453.71a1.447 1.447 0 1 1 1.275 2.132c-.63 0-1.165-.405-1.363-.967l-2.202-.635-1.152 2.585c1.316.08 2.524.43 3.515.972a1.927 1.927 0 0 1 3.613.938 1.938 1.938 0 0 1-1.154 1.762Zm-4.589 2.224c-.399.314-1.187.651-1.974.651-.787 0-1.578-.338-1.974-.65a.572.572 0 1 0-.707.9c.688.546 1.74.896 2.681.896.94 0 1.993-.35 2.684-.897a.572.572 0 0 0-.287-1.018.575.575 0 0 0-.423.118Zm-7.76-4.953a.964.964 0 0 0-.359 1.86 5.096 5.096 0 0 1 1.23-1.308.962.962 0 0 0-.87-.552Zm1.929 2.893a.964.964 0 1 0 1.928 0 .964.964 0 0 0-1.928 0Z"/></svg>