<svg xmlns="http://www.w3.org/2000/svg" width="46" height="45" fill="none"><path fill="#5865F2" fill-rule="evenodd" d="M22.9 45c12.426 0 22.5-10.074 22.5-22.5S35.326 0 22.9 0 .4 10.074.4 22.5 10.474 45 22.9 45Zm2.76-19.71c.855 0 1.53-.75 1.53-1.665s-.675-1.665-1.53-1.665-1.53.75-1.53 1.665.69 1.665 1.53 1.665Zm-7.005-1.665c0-.915.675-1.665 1.53-1.665s1.545.75 1.53 1.665c0 .915-.675 1.665-1.53 1.665-.84 0-1.53-.75-1.53-1.665Zm17.37 15.75v-26.91c0-1.71-1.38-3.09-3.075-3.09h-20.1a3.082 3.082 0 0 0-3.075 3.09v20.28c0 1.71 1.38 3.09 3.075 3.09h17.01l-.795-2.775c2.34 2.176 3.09 2.877 3.852 3.564.667.602 1.344 1.192 3.108 2.751ZM29.59 17.94s2.16 3.915 2.16 8.745c0 0-1.275 2.175-4.59 2.28 0 0-.54-.645-.99-1.215 1.965-.555 2.715-1.785 2.715-1.785-.615.405-1.2.69-1.725.885-3.232 1.357-6.828.893-9.36-.525a2.583 2.583 0 0 0-.074-.043c-.124-.072-.374-.215-.541-.332 0 0 .72 1.2 2.625 1.77-.45.57-1.005 1.245-1.005 1.245-3.315-.105-4.575-2.28-4.575-2.28 0-4.83 2.16-8.745 2.16-8.745 2.16-1.62 4.215-1.575 4.215-1.575l.15.18c-2.7.78-3.945 1.965-3.945 1.965s.33-.18.885-.435c3.456-1.518 7.642-1.518 11.205.435 0 0-1.185-1.125-3.735-1.905l.21-.24s2.055-.045 4.215 1.575Z" clip-rule="evenodd"/></svg>