<svg xmlns="http://www.w3.org/2000/svg" width="60" height="60"><path fill="#6534FF" fill-rule="evenodd" d="M29.998 0C13.433 0 0 13.773 0 30.762 0 44.35 8.595 55.88 20.517 59.947c1.501.282 2.048-.666 2.048-1.482 0-.73-.025-2.664-.04-5.232-8.345 1.86-10.105-4.122-10.105-4.122-1.365-3.554-3.332-4.5-3.332-4.5-2.723-1.91.207-1.87.207-1.87 3.01.217 4.595 3.169 4.595 3.169 2.675 4.702 7.02 3.344 8.73 2.557.273-1.989 1.047-3.345 1.905-4.113-6.661-.776-13.665-3.414-13.665-15.203 0-3.357 1.17-6.103 3.088-8.253-.309-.778-1.338-3.905.293-8.139 0 0 2.52-.829 8.25 3.152 2.393-.682 4.96-1.024 7.51-1.035 2.548.011 5.115.353 7.511 1.035 5.727-3.98 8.241-3.152 8.241-3.152 1.637 4.234.608 7.36.299 8.139 1.922 2.15 3.084 4.896 3.084 8.253 0 11.817-7.014 14.417-13.698 15.18 1.078.948 2.037 2.827 2.037 5.695 0 4.113-.037 7.43-.037 8.44 0 .82.54 1.778 2.063 1.478C51.41 55.869 60 44.346 60 30.762 60 13.773 46.567 0 29.998 0"/></svg>