<svg xmlns="http://www.w3.org/2000/svg" width="45" height="45" fill="none"><path fill="#1DA1F2" d="M22.5 0C10.075 0 0 10.075 0 22.5S10.075 45 22.5 45 45 34.925 45 22.5 34.925 0 22.5 0Zm10.813 16.96c.015.236.015.482.015.724 0 7.372-5.615 15.865-15.875 15.865a15.82 15.82 0 0 1-8.569-2.501c.452.05.884.07 1.346.07a11.19 11.19 0 0 0 6.926-2.38 5.58 5.58 0 0 1-5.213-3.867c.859.125 1.632.125 2.516-.1a5.575 5.575 0 0 1-4.465-5.475v-.07a5.582 5.582 0 0 0 2.517.708 5.582 5.582 0 0 1-2.486-4.641c0-1.04.27-1.989.758-2.813a15.836 15.836 0 0 0 11.501 5.831c-.788-3.791 2.044-6.86 5.45-6.86 1.606 0 3.053.673 4.072 1.758a11.016 11.016 0 0 0 3.541-1.341 5.552 5.552 0 0 1-2.45 3.068c1.124-.12 2.209-.431 3.214-.868a11.691 11.691 0 0 1-2.798 2.892Z"/></svg>