<svg xmlns="http://www.w3.org/2000/svg" width="46" height="45" fill="none"><path fill="#24292E" d="M15.851 36.234c0 .186-.208.335-.471.335-.3.028-.508-.121-.508-.335 0-.186.208-.335.471-.335.273-.028.508.12.508.335Zm-2.821-.419c-.064.186.118.4.39.456.236.093.508 0 .563-.186.054-.186-.119-.4-.39-.484-.236-.065-.5.028-.563.214Zm4.01-.158c-.263.065-.445.242-.417.456.027.186.263.307.535.242.263-.065.444-.242.417-.428-.027-.177-.272-.298-.535-.27ZM23.01 0C10.426 0 .8 9.798.8 22.704c0 10.32 6.333 19.15 15.378 22.258 1.161.214 1.57-.521 1.57-1.126 0-.577-.028-3.76-.028-5.713 0 0-6.35 1.396-7.684-2.773 0 0-1.034-2.708-2.522-3.406 0 0-2.078-1.46.145-1.433 0 0 2.259.186 3.502 2.401 1.987 3.592 5.316 2.559 6.614 1.945.209-1.489.798-2.522 1.451-3.136-5.071-.577-10.188-1.33-10.188-10.282 0-2.559.69-3.843 2.141-5.48-.236-.606-1.007-3.1.236-6.319 1.896-.605 6.26 2.512 6.26 2.512a20.816 20.816 0 0 1 5.698-.79c1.932 0 3.883.27 5.697.79 0 0 4.364-3.126 6.26-2.512 1.243 3.229.472 5.713.236 6.318 1.452 1.647 2.34 2.931 2.34 5.48 0 8.98-5.343 9.697-10.415 10.283.835.735 1.543 2.13 1.543 4.317 0 3.136-.027 7.017-.027 7.78 0 .604.417 1.34 1.57 1.126 9.072-3.09 15.223-11.92 15.223-22.24C45.8 9.798 35.593 0 23.01 0ZM9.619 32.093c-.118.093-.091.307.063.484.145.149.354.214.472.093.118-.093.09-.307-.064-.484-.145-.149-.354-.214-.471-.093Zm-.98-.754c-.064.121.027.27.208.363.146.093.327.065.39-.065.064-.12-.027-.27-.208-.363-.182-.056-.327-.028-.39.066Zm2.94 3.313c-.146.121-.091.4.117.577.209.214.472.242.59.093.118-.12.063-.4-.118-.577-.2-.214-.472-.242-.59-.093Zm-1.035-1.368c-.145.093-.145.335 0 .55.145.213.39.306.508.213.145-.12.145-.363 0-.577-.127-.214-.363-.307-.508-.186Z"/></svg>