<svg xmlns="http://www.w3.org/2000/svg" width="60" height="60" viewBox="0 0 60 60">
  <path fill="#6534FF" fill-rule="evenodd" d="M328.998158,0 C312.432781,0 299,13.7731489 299,30.7620466 C299,44.3501436 307.594843,55.8800102 319.517495,59.9473755 C321.018416,60.2287299 321.565378,59.280811 321.565378,58.465072 C321.565378,57.7343058 321.539595,55.8007022 321.524862,53.232635 C313.180479,55.0925955 311.41989,49.1105094 311.41989,49.1105094 C310.055249,45.5567575 308.088398,44.6107269 308.088398,44.6107269 C305.364641,42.701671 308.294659,42.741325 308.294659,42.741325 C311.305709,42.9584777 312.889503,45.9098668 312.889503,45.9098668 C315.565378,50.6116958 319.909761,49.2540191 321.620626,48.4666043 C321.893186,46.4782405 322.666667,45.1224521 323.524862,44.3539202 C316.86372,43.5778351 309.860037,40.9399014 309.860037,29.1513398 C309.860037,25.7939695 311.029466,23.0484035 312.948435,20.8976472 C312.639042,20.1196739 311.609576,16.9926743 313.241252,12.75914 C313.241252,12.75914 315.760589,11.930183 321.491713,15.9106872 C323.883978,15.2290164 326.451197,14.8872369 329.001842,14.8759072 C331.548803,14.8872369 334.116022,15.2290164 336.511971,15.9106872 C342.239411,11.930183 344.753223,12.75914 344.753223,12.75914 C346.390424,16.9926743 345.360958,20.1196739 345.051565,20.8976472 C346.974217,23.0484035 348.13628,25.7939695 348.13628,29.1513398 C348.13628,40.9682256 341.121547,43.5683937 334.438306,44.3312608 C335.515654,45.2791797 336.475138,47.158023 336.475138,50.0263275 C336.475138,54.1390117 336.438306,57.456728 336.438306,58.465072 C336.438306,59.2864759 336.977901,60.2438362 338.500921,59.943599 C350.410681,55.8686805 359,44.346367 359,30.7620466 C359,13.7731489 345.567219,0 328.998158,0" transform="translate(-299)"/>
</svg>
