<svg xmlns="http://www.w3.org/2000/svg" width="60" height="60" viewBox="0 0 60 60">
  <path fill="#FFF" fill-rule="evenodd" d="M178.999944,0 C162.431467,0 149,13.4313544 149,29.9999438 L149,29.9999438 C149,46.5685332 162.431467,60 178.999944,60 L178.999944,60 C195.568533,60 209,46.5685332 209,29.9999438 L209,29.9999438 C209,13.4313544 195.568533,0 178.999944,0 Z M160.998696,31.046026 C160.998696,31.046026 159.837169,30.633933 159.72476,29.7347699 L159.72476,29.7347699 C159.612238,28.8354944 161.036128,28.3481995 161.036128,28.3481995 L161.036128,28.3481995 L191.124426,16.5452083 C191.124426,16.5452083 193.597546,15.4586586 193.597546,17.2572097 L193.597546,17.2572097 L188.239213,44.2729076 C188.239213,44.2729076 187.489779,46.1464358 185.428977,45.2471603 L185.428977,45.2471603 L177.804132,39.4014197 L177.805031,39.4020942 L172.914097,43.8612643 C172.914097,43.8612643 172.531792,44.151393 172.113517,43.9695146 L172.113517,43.9695146 L173.101483,35.5424037 C173.101483,35.5424037 186.815435,23.21491 187.377482,22.6904075 L187.377482,22.6904075 C187.939529,22.1656803 187.752143,22.0532708 187.752143,22.0532708 L187.752143,22.0532708 C187.789575,21.4163589 186.740458,22.0532708 186.740458,22.0532708 L186.740458,22.0532708 L168.567561,33.5941232 L160.998696,31.046026 Z" transform="translate(-149)"/>
</svg>
