<svg xmlns="http://www.w3.org/2000/svg" width="1440" height="930"><g fill="none" fill-rule="evenodd"><path fill="#DDE2F3" d="M388.576 825.92c-120.245-50.446-201.578-89.104-244-115.97C102.154 683.081 53.962 643.098 0 590v386.92h398.946l-10.37-151zM1060.671 863l22.647-153.058c257.57-104.962 397.515-168.424 419.833-190.386 22.319-21.962 22.319 108.495 0 391.371L1060.671 863z"/><g transform="translate(35 30)"><path fill="#BBC4EF" fill-rule="nonzero" d="M738.13 85.122C774.958 38.03 853.248 32.213 904.604 44.66c59.498 14.415 60.98 48.06 116.147 75.874 121.093 61.046 223.86-45.685 293.746 10.822 53.928 43.622 55.674 157.7 10.15 206.903-32.834 35.505-68.863 14.062-104.743 49.784-58.11 57.86-1.096 151.463-48.122 193.177-56.08 49.75-182.628-43.04-219.536-1.183-34.966 39.658 65.568 137.745 31.806 193.691-50.389 83.436-343.37-19.927-375.136-31.365-108.6-39.077-249.556-109.884-240.5-163.111 5.934-34.842 71.908-37.203 78.986-81.393 6.849-42.75-51.844-59.457-56.845-113.841-5.542-60.526 58.503-133.998 123.03-143.4 3.14-.46 10.15-.595 17.31-.677 37.653-.507 59.551 5.73 75.746 7.326 31.806 3.125 66.25-9.179 85.801-25.183 43.52-35.627 8.25-89.09 45.686-136.96Z" opacity=".88"/><path fill="#91A0D8" fill-rule="nonzero" d="M984.603 773.111c33.766-56.034-66.699-154.277-31.784-193.998 36.883-41.923 163.343 51.015 219.384 1.186 46.993-41.78-9.982-135.531 48.088-193.483 35.842-35.778 71.859-14.302 104.67-49.863A98.446 98.446 0 0 0 1338 318.938V288.79h-10.482v-18.63l-13.187 13.21v23.712h-47.338v-27.438h-25.36l-27.388 27.438h-12.848v29.81h-25.313v-17.303h-42.286v27.465h-65.934v-204.94a33.621 33.621 0 0 0-1.61-7.452 178.263 178.263 0 0 1-38.5-12.662c-9.223 7.391-10.271 20.487-10.271 20.487v194.439h-25.698V232.024h-44.633v127.225h-54.1v-53.522h-29.755v-42.004h-52.748v73.846h-29.755v-64.36l-31.108 31.163v51.49h-30.431v52.037h-26.712V296.581l-17.245-17.276h-19.611v-37.261h-6.763c-4.213 1.104-8.514 2.032-12.849 2.71v33.874h-15.554l-22.992 23.034V418.19h-62.892V353.83h-48.014v69.103h-38.546V348.41h-52.748v51.997c14.046 41.076 59.057 58.555 53.018 96.366-7.073 44.267-73.035 46.624-78.932 81.522-9.049 53.31 131.808 124.23 240.313 163.402 12.755 4.6 67.673 24.078 132.073 40.304h235.884a47.792 47.792 0 0 0 6.918-8.889Z" opacity=".3"/><path fill="#91A0D8" fill-rule="nonzero" d="M661.114 628.125c24.068-16.363 22.89-77.822-6.642-104.667-23.479-21.337-44.25-2.025-79.211-21.358-42.923-23.74-35.408-66.083-75.075-91.868-37.04-24.071-88.276-25.468-96.197-10.497-8.267 15.62 37.06 37.085 70.802 105.936 23.696 48.27 11.868 59.063 34.454 82.547 27.913 29.025 67.275 34.716 117.659 42.013 20.527 2.963 27.92 2.166 34.21-2.106Z"/><path fill="#6534FF" fill-rule="nonzero" d="M612.085 529.058c-3.256.674-4.951 5.887-5.072 9.043-.148 3.932 1.022 8.168 2.55 12.255 12.451 33.43 59.393 76.209 90.634 64.743 5.267-1.935 11.322-5.563 9.458-13.036-3.478-13.913-25.489-26.64-36.239-33.505a407.925 407.925 0 0 0-39.354-22.215c-6.054-5.254-11.711-11.721-18.237-16.267a4.734 4.734 0 0 0-3.74-1.018Z" opacity=".61"/><path fill="#FCCDD3" fill-rule="nonzero" d="M538.876 368.244c5.953 1.087 39.693 7.832 63.575 37.733 27.677 34.642 8.486 58.342 29.734 105.204 25.26 55.699 74.064 70.072 68.355 81.857-6.348 13.11-73.772 9.958-103.785-29.093-24.439-31.803-1.065-57.485-22.762-102.9-27.215-56.963-90.363-71.805-84.627-87.224 3.883-10.44 34.554-8.32 49.51-5.577Z"/><path stroke="#FFF" stroke-linecap="round" stroke-linejoin="round" stroke-width="5.1" d="M641 602c-80.72-23.168-107.881-55.784-117.629-81.54-7.456-19.718-4.792-35.642-17.976-57.422C486.685 432.133 453.396 418.035 429 411"/><path fill="#FCCDD3" fill-rule="nonzero" d="M585.222 574.886c63.232 22.343 100.903 35.65 99.752 49.809-1.557 19.12-74.408 45.26-121.447 19.623-28.587-15.578-28.641-39.916-76.703-75.547-24.227-17.962-40.067-23.534-38.747-27.097 2.809-7.568 76.425 11.76 137.145 33.212Z"/><path stroke="#FFF" stroke-linecap="round" stroke-linejoin="round" stroke-width="5.1" d="M663 627.215c-41.16 11.054-65.615 4.246-80.174-3.648-21.588-11.705-27.24-28.962-57.518-49.252A184.62 184.62 0 0 0 479 552"/><path stroke="#FFF" stroke-linecap="round" stroke-linejoin="round" stroke-width="2.55" d="M681 587c-16.867-4.92-40.671-14.863-56.826-36.953-19.576-26.78-13.58-51.809-23.24-81.147-8.262-25.11-29.579-58.304-89.934-87.9m38 23-9-19m26 33-20-5m29 13-8-32m21 50-19-8m28 23 4-33m3 49-19-12m22 37 6-18m-4 29-20-14m26 35 3-19m3 33-21-10"/><path fill="#FFF" fill-rule="nonzero" d="M1074.14 214.113c-3.42 3.325-6.962 6.711-9.294 10.88-4.827 8.648-3.46 20.485 3.693 27.366 7.152 6.88 19.618 7.67 27.188 1.244a38.286 38.286 0 0 0 5.799-6.731 17.986 17.986 0 0 0 2.968-5.16c.477-1.909.619-3.885.417-5.841-.24-4.42-.725-8.907-2.482-12.973-4.753-10.954-19.045-17.678-28.29-8.785Z"/><path fill="#E2A3AE" fill-rule="nonzero" d="M1046.99 316.317s-42.292-14.773-46.727 30.287c-4.436 45.06 48.759 94.396 48.759 94.396L1090 377.62l-43.01-61.303Z"/><path fill="#62BCF9" fill-rule="nonzero" d="M701.618 421.612s-10.81-.343-13.512 2.395-18.241 4.107-18.241 20.535c0 16.427-5.405 17.796 10.81 21.903 16.214 4.107 32.34 31.555 32.34 31.555l69.676-53.698s16.89-27.14 7.432-30.562c-9.459-3.422-24.694-1.294-35.659 2.054-10.965 3.347-52.846 5.818-52.846 5.818Z"/><path fill="#2B0FD3" fill-rule="nonzero" d="M703.93 428.042s-16.297 1.99-17.655 7.957c-1.358 5.967 2.037 29.327 16.297 32.49 14.26 3.163 34.706 7.373 34.63 11.272-.074 3.899 20.372-41.11 37.348-49.73 16.976-8.62-20.086-6.889-20.086-6.889l-50.534 4.9Z" opacity=".46"/><path fill="#6535FF" fill-rule="nonzero" d="M730.304 281.202c-8.162-6.87-40.474-1.256-49.648 3.534-4.19 2.189-8.991 7.938-8.842 13.843.109 4.297 2.782 6.202 1.36 9.027-1.952 3.891-8.018 2.31-10.881 6.02-3.4 4.384 3.285 8.931 2.04 17.45-1.299 8.919-9.624 10.96-8.161 16.216 1.68 6.08 13.16 5.492 14.962 12.04 1.17 4.229-3.312 5.634-4.08 12.032-1.15 9.594 7.29 19.972 13.602 19.863 3.033-.054 5.175-2.52 6.12-1.803 1.313.98-3.312 5.303-2.72 9.627.816 5.925 11.453 11.945 19.043 10.81 13.827-2.027 19.111-27.93 21.764-40.922 4.087-19.952 28.313-68.522 5.44-87.737Z"/><path fill="#FFF" fill-rule="nonzero" d="M752.664 478.619 710.132 489 694 360h66z"/><path fill="#2B0FD3" fill-rule="nonzero" d="M722.737 447c-.125.34-.31.675-.55 1 .542-.256.754-.641.55-1Z" opacity=".46"/><path fill="#2B0FD3" fill-rule="nonzero" d="M710.928 361H694l15.47 122.431a9.648 9.648 0 0 0 7.123-.237c-1.944-6.92-3.869-14.442-1.235-21.132 2.302-5.853 7.934-10.59 7.886-16.896.212.173.361.41.426.676 1-4.94-2.296-10.036-5.402-14.273-3.376-4.616-6.752-10.523-4.342-15.693l11.074-4.5c-3.12-6.624-10.804-9.766-15.294-15.544-6.752-8.637-5.03-21.275-.493-31.25a180.091 180.091 0 0 0 1.715-3.582Z" opacity=".46"/><path fill="#62BCF9" fill-rule="nonzero" d="M679.89 457.985 681 453s-5.934 5.319-1.11 4.985Z"/><path fill="#62BCF9" fill-rule="nonzero" d="M777.062 429.157c-7.102-1.512 6.613 8.37-.719 8.75-35.236 4.07-39.41 48.965-53.39 37-17.082-14.617-31.99-13.179-37.411-18.686-3.293 1.356-5.421 1.967-6.736 2.035L631 706.574c40.278 2.035 80.468 3.96 120.617 5.426 23.818-110.003 54.745-276.61 25.445-282.843Z"/><path fill="#BBC4EF" fill-rule="nonzero" d="M782.687 554.79c-.338 30.59-25.24 55.21-55.844 55.21-30.603 0-55.505-24.62-55.843-55.21 0-30.83 59.293-67.79 90.135-67.79 30.843 0 21.552 36.939 21.552 67.79Z"/><path fill="#2B0FD3" fill-rule="nonzero" d="M773.05 505.307c1.622-7.63 3.252-15.353 2.902-23.145-.35-7.792-2.91-15.779-8.547-21.162-2.391-2.28-6.102-4.048-8.884-2.28-2.115 1.349-2.694 4.128-3.139 6.604a175.568 175.568 0 0 1-21.048 57.145c-5.193 8.905-11.45 18.37-10.056 28.583.458 3.447 1.772 6.705 2.91 9.99 3.893 11.28 5.745 23.611 2.896 35.2-2.384 9.695-7.867 18.276-12.346 27.194s-8.082 18.929-6.25 28.744c.895 4.844 3.071 9.35 4.344 14.106 3.758 14.012-.532 28.576-2.176 43.114l14.596.6 17.99-78.63 26.807-126.063Z" opacity=".46"/><path fill="#6534FF" fill-rule="nonzero" d="M694.877 496.85c-2.252-17.053-13.88-44.85-13.88-44.85L626 705.073l18.488.927c3.82-26.025 9.922-62.727 15.105-72.031 8.278-14.806 37.53-120.068 35.284-137.12Z" opacity=".18"/><path fill="#2B0FD3" fill-rule="nonzero" d="m763 407.473-5.493 8.91s-12.552 11.39-32.107 6.314C705.844 417.62 694 366 694 366l69 41.473Z" opacity=".46"/><path fill="#6535FF" fill-rule="nonzero" d="M767.15 356.225c-5.129 8.944-11.03 9.418-11.148 14.018-.154 6.007 9.754 13.59 18.811 12.683 9.629-.968 14.687-11.168 17.418-16.689 7.991-16.127 8.437-40.759-3.484-46.726-7.72-3.865-20.309.247-22.294 6.007-1.596 4.64 4.66 7.537 4.877 16.689.153 6.461-2.822 11.641-4.18 14.018Z"/><ellipse cx="738" cy="346.5" fill="#FFF" fill-rule="nonzero" rx="51" ry="70.5"/><path fill="#2B0FD3" fill-rule="nonzero" d="M709.532 401.063c-6.815-8.706-5.078-21.444-.498-31.498 3.094-6.812 7.408-14.305 4.648-21.206-1.043-2.616-3.012-4.768-4.232-7.309-3.53-7.323-.307-15.96 2.917-23.426L692.692 314a93.645 93.645 0 0 0-5.69 32.602c0 32.39 15.612 59.726 36.998 68.398-3.564-5.565-10.332-8.651-14.468-13.937Z" opacity=".46"/><path fill="#6535FF" fill-rule="nonzero" d="M702.432 367.911c.138-5.354.55-10.697 1.235-16.01 1.066-8.302 1.7-7.984 1.35-10.898-.675-6.585-4.332-11.832-1.734-16.064.12-.204.253-.4.398-.588.722-.967 2.152-2.42 6.746-5.66 10.532-7.436 17.475-14.488 27.662-14.197 9.399.264 8.32 7.6 26.313 14.198 8.096 2.975 10.64 2.319 16.193 6.085 6.402 4.333 10.49 10.229 13.203 8.965 1.167-.541 1.484-2.143 1.64-2.88 2.024-9.466 4.338-35.34.485-49.45-3.852-14.11-26.67-10.71-26.67-10.71s2.699-26.32-33.188-19.606c-29.011 5.409-35.083 22.987-45.574 43.879-22.71 45.237 2.469 83.673 2.469 83.673l8.15 1.352 1.322-12.089Z"/><path fill="#3E1EC4" fill-rule="nonzero" d="M824.732 478.346c-8.142 45.8-2.103 71.034 5.392 85.754 8.088 15.86 9.881 23.855 13.48 39.838 3.54 15.692 2.622 20.662.675 24.308-6.12 11.438-26.112 16.63-39.093 12.154-38.716-13.363-55.815-126.868-13.48-155.302 9.456-6.354 21.049-7.893 33.026-6.752Z"/><path fill="#F9879A" fill-rule="nonzero" d="M885.506 495.161c69.132-26.643 151.15-49.469 151.15-49.469L1061 301s-47.638-10.092-79.602 15.064c-28.497 22.421-156.055 91.089-187.646 108.018-2.517 1.35-13.516 2.08-20.905 2.432-4.032.21-7.381 3.171-8.067 7.133L717 709.264c15.24.635 30.474 1.214 45.704 1.736l60.936-1.196s-7.26-188 61.866-214.643Z"/><path fill="#52D2BC" fill-rule="nonzero" d="M773.763 426.607c-3.933.219-7.198 3.297-7.864 7.412l-.899 5.512c1.05 1.14 2.559 1.665 4.041 1.403 4.63-.702 18.519-8.415 25.132-9.117 3.73-.4 4.094-5.476 3.704-9.817l-3.704 2.104c-2.48 1.374-13.207 2.139-20.41 2.503Z"/><path fill="#D3637B" fill-rule="nonzero" d="M807.795 506.537 769 512l3.198-10.537L811 496z"/><path fill="#2B0FD3" fill-rule="nonzero" d="M1041 432.37 1013.147 408c.075.068-11.548 13.584-12.696 14.963-6.114 7.434-13.832 13.124-22.473 17.456-10.244 5.137-21.29 8.469-32.091 12.32-14.986 5.34-29.572 11.713-44.408 17.437-11.848 4.569-24.008 6.833-35.76 11.219-19.919 7.434-38.206 21.836-40.122 44.334-3.716 43.685-14.884 65.157-19.347 68.853-4.464 3.697 4.463 24.438 4.463 27.398 0 1.757-.394 65.042-.394 88.02l13.587-1.352s-7.235-188.103 61.975-214.757c69.21-26.655 151.335-49.491 151.335-49.491l3.784-12.03Z" opacity=".46"/><path fill="#6535FF" fill-rule="nonzero" d="M805.65 418.317s7.495 154.615 17.876 173.56a66.045 66.045 0 0 1 5.46 12.855c3.406 11.414 1.461 18.268 1.461 18.268s-38.065-6.09-40.834-58.864c-2.768-52.774-7.613-144.79-7.613-144.79s9.897-6.787 23.65-1.029Z"/><path stroke="#FFF" stroke-linecap="round" stroke-linejoin="round" stroke-width="5.1" d="M822 608s-23.069-22.174-23.747-84.664C797.574 460.846 796 438 796 438"/><path fill="#99485F" fill-rule="nonzero" d="M1049.882 439.236 1090 377l-78 32.47c3.96 10.41 8.308 20.089 12.22 28.161 2.326 4.821 7.051 8.008 12.366 8.34a14.734 14.734 0 0 0 13.296-6.735zM1005 332c10.811-5.818 20.988-11.636 31-17.841-9.952-.852-24.125 1.26-31 17.841z"/><path fill="#FFF" fill-rule="nonzero" d="M1241.079 292.278 1127.326 246a569.369 569.369 0 0 1-54.639 43.691c-12.642 8.889-24.685 16.581-36.963 23.734-10.216 5.95-20.6 11.529-31.632 17.108a49.949 49.949 0 0 0-3.754 15.392c-1.887 19.208 4.387 42.55 12.211 63.075l77.12-31.993c49.356-17.446 81.81-24.146 104.096-26.638 7.285-.817 37.347-3.857 50.946-19.242 0 0 .202-.23 13.289-15.534l-16.921-23.315Z"/><path fill="#2B0FD3" fill-rule="nonzero" d="M1234.016 335.549c-7.63-3.088-6.301-49.454-13.937-52.549-22.895.284-42.273 16.962-49.299 40.074-12.236-22.355-28.538-37.844-37.712-36.384-15.32 2.453-17.25 53.258-47.51 61.449-3.984 1.074-7.453 1.149-14.845 3.703-16.803 5.812-26.553 15.077-32.658 19.99-11.2 9.001-22.278 13.11-32.055 15.543 2.033 7.352 4.546 14.658 7.216 21.625l67.037-27.707 10.502-4.332c49.624-17.455 82.254-24.16 104.66-26.653 3.043 0 32.977-1.074 51.224-19.253 0 0 .047-.047 13.361-15.543l-25.984 20.037Z" opacity=".46"/><path fill="#6534FF" fill-rule="nonzero" d="m1071.068 65.345 6.765-.85 91.978-11.606 5.871-.742c10.75-1.349 20.625 6.744 22.05 18.108l31.097 248.368c1.418 11.364-6.147 21.67-16.902 23.032l-104.615 13.198c-10.749 1.349-20.624-6.744-22.042-18.115L1054.172 88.37c-1.424-11.357 6.14-21.67 16.896-23.025Z" opacity=".61"/><path fill="#FFF" fill-rule="nonzero" d="M1233.686 169.274c6.973-.666 14.408-.32 20.345 3.332 6.427 3.931 10.165 11.488 9.961 18.904-.204 7.417-4.085 14.52-9.913 19.324-4.317 3.552-9.676 5.964-13.25 10.235-1.859 2.22-3.153 4.865-5.127 6.984-5.297 5.71-14.884 6.377-21.7 2.518-6.815-3.858-10.893-11.42-11.785-19.077-.892-7.656 1.069-15.406 4.085-22.523 1.709-3.998 4.146-14.093 7.367-16.818 3.404-2.952 15.456-2.439 20.017-2.879Z"/><path fill="#FFF" fill-rule="nonzero" d="M1231.686 123.274c6.973-.666 14.408-.32 20.352 3.332 6.427 3.931 10.158 11.488 9.954 18.904-.204 7.417-4.085 14.52-9.907 19.324-4.323 3.552-9.675 5.997-13.256 10.235-1.852 2.22-3.153 4.865-5.12 6.984-5.298 5.71-14.891 6.377-21.707 2.518-6.815-3.858-10.893-11.42-11.785-19.077-.892-7.656 1.069-15.406 4.085-22.523 1.709-3.998 4.14-14.093 7.367-16.818 3.411-2.939 15.456-2.439 20.017-2.879Z"/><path fill="#2B0FD3" fill-rule="nonzero" d="M1224 156s13.502 1.387 18 .694c4.5-.694 0 2.074 0 2.074s-2.998 4.143-18-2.768Z" opacity=".46"/><g fill-rule="nonzero"><path fill="#52D2BC" d="M1192.156 58.455a20.898 20.898 0 0 1 8.944 5.16 22.18 22.18 0 0 1 6.775 13.816l24.48 254.354c.941 9.806-5.34 17.705-14.29 18.57-.714.07-1.43.095-2.148.075l-108.134-3.124a18.717 18.717 0 0 1-5.963-1.17 20.284 20.284 0 0 0 10.441 3.381l108.155 3.118c.753.02 1.507-.005 2.256-.075a16.537 16.537 0 0 0 4.452-1.055c6.145-3.793 9.83-11.07 9.018-19.524l-24.48-254.353a26.206 26.206 0 0 0-3.475-10.692 23.864 23.864 0 0 0-3.07-3.226 20.814 20.814 0 0 0-12.96-5.262m-115.507-7.533c-10.766 1.041-18.294 10.502-17.176 22.229l24.486 254.36a26.6 26.6 0 0 0 8.192 16.623 24.46 24.46 0 0 0 15.705 7.027 24.345 24.345 0 0 1-9.865-5.248 26.67 26.67 0 0 1-5.501-6.628 21.957 21.957 0 0 1-4.743-11.598l-24.486-254.354c-.786-8.115 3.387-14.959 9.973-17.542a18.255 18.255 0 0 1 7.995-2.705c.837-.082 1.68-.109 2.52-.081l2.71.08v-.141l95.093 2.745v.143l10.325.297c2.53.08 5.024.601 7.372 1.542a23.467 23.467 0 0 0-11.837-3.72l-108.161-3.117a20.581 20.581 0 0 0-2.595.088"/><path fill="#3E1EC4" d="M1116.326 195.99c0 .107-.047.216-.067.33 0-.114.04-.223.067-.33m69.068-138.603c-.08 10.326-7.107 18.34-16.857 19.28-.842.084-1.688.114-2.534.088l-50.286-1.454c.776.116 1.559.183 2.344.203l52.21 1.508a18.89 18.89 0 0 0 2.406-.081c9.58-.92 16.417-9.096 15.956-19.456l-3.239-.088m28.301 255.713-102.159-2.949-1.924-19.99 102.159 2.948 1.924 19.99m-2.913-30.263-102.16-2.948-1.923-19.99 102.158 2.948 1.925 19.99m-17.108-177.684-102.152-2.928-.962-9.996 102.159 2.949.955 9.995m-106.021-51.086.054.528c-.75-.02-1.502.005-2.25.074-9.295.893-15.84 9.096-14.85 19.301l24.485 254.354c.089.956.243 1.905.461 2.84a23.439 23.439 0 0 0 10 14.243 18.717 18.717 0 0 0 5.956 1.176l108.155 3.118c.717.022 1.434 0 2.148-.068 8.957-.865 15.238-8.791 14.296-18.57l-24.486-254.354a22.153 22.153 0 0 0-6.776-13.823 20.965 20.965 0 0 0-8.943-5.16l-4.987-.142c.583 11.497-6.965 20.66-17.69 21.702-.9.085-1.806.114-2.71.088l-52.17-1.508a24.474 24.474 0 0 1-13.72-4.903 26.422 26.422 0 0 1-14.053-18.26l-2.825-.081-.054-.527m-10.719.98c-6.572 2.577-10.76 9.407-9.973 17.536l24.48 254.36a21.95 21.95 0 0 0 4.742 11.592 25.563 25.563 0 0 1-2.86-7.155c-.245-1.042-.42-2.1-.521-3.165l-24.48-254.354c-.785-8.115 2.71-15.128 8.592-18.814"/><path fill="#52D2BC" d="M1195.862 57.711a20.965 20.965 0 0 1 8.944 5.16 22.153 22.153 0 0 1 6.775 13.823l24.486 254.354c.942 9.806-5.339 17.705-14.296 18.57-.714.068-1.43.09-2.147.068l-108.156-3.117a18.717 18.717 0 0 1-5.955-1.177 20.284 20.284 0 0 0 10.44 3.381l108.156 3.125c.753.02 1.506-.006 2.256-.081a16.286 16.286 0 0 0 4.445-1.055c6.152-3.794 9.837-11.064 9.024-19.525L1215.375 76.87a26.064 26.064 0 0 0-3.475-10.665 23.14 23.14 0 0 0-3.076-3.226 20.8 20.8 0 0 0-12.962-5.268m-115.5-7.54c-10.765 1.041-18.293 10.502-17.175 22.236l24.486 254.354a26.606 26.606 0 0 0 8.185 16.622 24.46 24.46 0 0 0 15.712 7.027 24.331 24.331 0 0 1-9.865-5.241 26.704 26.704 0 0 1-5.501-6.635 21.95 21.95 0 0 1-4.743-11.59l-24.48-254.361c-.786-8.116 3.388-14.96 9.974-17.536a18.316 18.316 0 0 1 7.988-2.705c.84-.08 1.684-.104 2.527-.075l2.71.075a1.006 1.006 0 0 1 0-.142l95.092 2.752v.135l10.326.298a21.98 21.98 0 0 1 7.351 1.522 23.521 23.521 0 0 0-11.83-3.7l-108.161-3.124a21.932 21.932 0 0 0-2.595.088"/><path fill="#52D2BC" d="M1090.533 54.675a26.422 26.422 0 0 0 14.052 18.26 37.85 37.85 0 0 1-1.721-1.353 27.88 27.88 0 0 1-8.876-14.642 25.164 25.164 0 0 1-.407-2.17l-3.048-.088m-.36-2.462a1.006 1.006 0 0 0 0 .142l4.255.122c.317.015.617.148.84.372.238.222.387.522.42.845.1 1.017.265 2.027.495 3.023a25.15 25.15 0 0 0 7.988 13.187 22.784 22.784 0 0 0 11.518 5.41l50.287 1.454c.846.026 1.692-.004 2.534-.087 9.75-.94 16.776-8.954 16.857-19.281l-31.397-.906a1.354 1.354 0 0 1-1.246-1.076v-.114a.966.966 0 0 1 .867-1.123h.135l31.567.913v-.135l-95.126-2.753"/><path fill="#F9879A" d="m1089.767 50.3-.068-.636-.129-1.15.13 1.15.067.635.06.528 2.826.081 3.05.088c.099.73.234 1.454.406 2.17a27.88 27.88 0 0 0 8.875 14.642c.556.48 1.132.94 1.721 1.353a24.42 24.42 0 0 0 13.72 4.903l52.17 1.508c.905.026 1.81-.003 2.71-.088 10.726-1.042 18.294-10.144 17.691-21.702l4.987.142a20.8 20.8 0 0 1 12.955 5.268 23.54 23.54 0 0 1 3.076 3.226 23.151 23.151 0 0 1 4.397 9.103c.22.935.373 1.884.46 2.84l24.487 254.354c.82 8.48-3.564 15.554-10.407 18.26-1.425.558-2.921.913-4.445 1.054-.75.075-1.503.102-2.256.082l-108.155-3.125a20.264 20.264 0 0 1-10.441-3.381 22.694 22.694 0 0 1-2.52-1.894 23.52 23.52 0 0 1-7.453-12.335 21.016 21.016 0 0 1-.454-2.84L1072.74 70.182c-.989-10.205 5.55-18.408 14.852-19.301.748-.07 1.499-.094 2.25-.074l-.062-.528m-2.71-1.71a18.316 18.316 0 0 0-7.988 2.704c-5.88 3.686-9.377 10.679-8.591 18.814l24.48 254.354c.102 1.065.274 2.122.514 3.165a25.785 25.785 0 0 0 2.812 7.135 26.555 26.555 0 0 0 5.502 6.634 24.25 24.25 0 0 0 9.865 5.241c1.528.398 3.096.625 4.675.676l108.155 3.125c.84.025 1.683-.004 2.52-.088 10.434-1.015 17.677-10.144 16.586-21.506l-24.48-254.347a23.265 23.265 0 0 0-.52-3.158 26.197 26.197 0 0 0-8.362-13.79 24.772 24.772 0 0 0-7.188-4.388 22.015 22.015 0 0 0-7.352-1.522l-10.325-.297-31.573-.913h-.13a.97.97 0 0 0-.866 1.122v.115c.124.599.635 1.04 1.246 1.075l31.397.907 3.239.088c.46 10.36-6.376 18.536-15.956 19.456-.8.078-1.603.105-2.405.081l-52.211-1.508a19.23 19.23 0 0 1-2.345-.203 22.784 22.784 0 0 1-11.518-5.41 25.109 25.109 0 0 1-7.954-13.18 23.433 23.433 0 0 1-.495-3.024 1.352 1.352 0 0 0-.42-.845 1.275 1.275 0 0 0-.84-.372l-4.255-.122-2.71-.074a19.542 19.542 0 0 0-2.527.074"/><path fill="#F9879A" d="m1106.699 259.918 1.924 19.997 102.159 2.942-1.925-19.998-102.158-2.941"/><path fill="#BBC4EF" d="m1090.56 92.228.962 10.002 102.159 2.942-.962-9.995-102.159-2.949"/><path fill="#52D2BC" d="m1109.612 290.181 1.931 19.991 102.152 2.948-1.924-19.991-102.159-2.948"/></g><path fill="#FFF" fill-rule="nonzero" d="M1240.149 124.138c-3.796-.706-7.66-1.413-11.503-1.03-7.964.79-15.184 6.907-16.456 14.481-1.272 7.575 3.965 15.797 11.713 17.721 2.345.482 4.74.7 7.138.648 1.61.12 3.23-.02 4.791-.414a13.712 13.712 0 0 0 4.06-2.333c2.821-2.112 5.575-4.406 7.443-7.328 5.102-7.84 2.97-19.853-7.186-21.745zm-12.865 57.202c-2.646 2.718-5.337 5.436-7.099 8.833-3.704 7.038-2.658 16.652 2.827 22.244 5.486 5.591 15.063 6.23 20.871 1.012a30.466 30.466 0 0 0 4.447-5.47 14.853 14.853 0 0 0 2.284-4.198c.366-1.554.472-3.163.316-4.756-.187-3.587-.555-7.236-1.936-10.544-3.64-8.88-14.61-14.343-21.71-7.12zm.04 68.128c.677 4.045 3.04 8.09 6.867 9.601 1.002.398.06-.755.542.21.738 1.476 1.483 14.03 1.483 14.772 0 2.852 10.394-1.524 13.015-2.697l13.814-6.068c2.71-1.173 5.418-2.42 7.327-4.646 3.325-3.937 2.946-9.743 1.836-14.76-1.158-5.245-2.966-10.464-6.318-14.664-3.352-4.201-8.438-7.282-13.828-7.215-4.179.047-8.127 1.935-11.661 4.154-8.641 5.44-14.925 10.336-13.077 21.313z"/><path fill="#2B0FD3" fill-rule="nonzero" d="M1232 258.14c.248.225.504.429.765.61.076.05.154.088.235.11-.343-.25-.68-.49-1-.72Z" opacity=".18"/><path fill="#2B0FD3" fill-rule="nonzero" d="m1262.714 264.518 1.286-.627c-6.45.204-18.799-.284-29-5.891.723 1.597 1.452 15.172 1.452 15.974 0 3.084 10.175-1.648 12.74-2.916l13.522-6.54Z" opacity=".48"/><path fill="#FFF" fill-rule="nonzero" d="M1242.937 269.933c7.612-1.964 16.168-.88 22.493 3.744 6.326 4.624 9.953 12.958 8.074 20.541-.984 3.976-3.324 7.502-5.864 10.72-2.065 2.599-5.252 6.452-9.23 11.062-1.659-1.037-3.352-2.046-5.039-3.076-6.944-4.296-8.438-5.544-15.83-9.118a5.876 5.876 0 0 0-.916-.354 4.89 4.89 0 0 0-.977-2.046c-1.06-1.269-6.821-4.378-8.012-5.517-3.118-2.98-3.194-8.027-1.659-12.037 2.712-7.058 9.568-12.016 16.96-13.919Z"/><path fill="#D3637B" fill-rule="nonzero" d="M693.11 446.192c-.075-8.44-7.024-4.051-7.024-4.051s-6.42 2.363-9.875 7.495c-3.454 5.132-17.073 17.414-17.073 17.42l-32.674 22.662L555 704.442c20.277-.676 40.514-.608 60.792.391 21.358 1.099 42.695 2.154 64.008 3.167 11.031-96.173 11.775-207.053 13.31-217.985 1.966-13.964.073-35.382 0-43.823Z"/><path fill="#52D2BC" fill-rule="nonzero" d="M692.707 444.628c-.076-9.149-7.236-4.392-7.236-4.392s-6.617 2.562-10.176 8.125c-1.504 2.356-4.875 6.097-8.295 9.639 0 0 8.72-6.785 12.203-6.053 3.482.732 4.178 2.928 9.054 2.928a8.626 8.626 0 0 0 4.743-1.676c-.153-3.448-.272-6.412-.293-8.571Z"/><path stroke="#6534FF" stroke-linecap="round" stroke-linejoin="round" stroke-width="3.29" d="m650 468-25.52 18.691L555 701"/><path fill="#6534FF" fill-rule="nonzero" d="M584.764 659.448c13.805-14.77 15.027-37.278 2.9-53.448L566 671a41.665 41.665 0 0 0 18.764-11.552Z" opacity=".18"/><circle cx="762" cy="576" r="8" fill="#D3637B" fill-rule="nonzero"/><circle cx="759" cy="605" r="8" fill="#D3637B" fill-rule="nonzero"/><circle cx="753" cy="636" r="8" fill="#D3637B" fill-rule="nonzero"/><circle cx="762" cy="573" r="8" fill="#6535FF" fill-rule="nonzero"/><circle cx="757" cy="603" r="8" fill="#6535FF" fill-rule="nonzero"/><circle cx="752" cy="633" r="8" fill="#6535FF" fill-rule="nonzero"/><ellipse cx="700.5" cy="365.5" fill="#FFF" fill-rule="nonzero" rx="11.5" ry="13.5"/><path fill="#2B0FD3" fill-rule="nonzero" d="M700.654 379a10.324 10.324 0 0 0 5.252-1.459 45.455 45.455 0 0 1 3.023-8.56c.987-2.112 2.098-4.284 3.071-6.489-1.186-5.995-5.807-10.492-11.346-10.492-6.43 0-11.654 6.042-11.654 13.497.002.668.048 1.336.137 1.998.297 1.253.615 2.492.953 3.717 1.865 4.584 5.889 7.788 10.564 7.788Z" opacity=".46"/><path stroke="#F9879A" stroke-linecap="round" stroke-linejoin="round" stroke-width="3" d="M753.004 344a24.607 24.607 0 0 0 2.538 11.333c2.119 4.134 4.689 5.794 4.441 8.667-.234 2.747-2.9 4.753-5.076 6"/><path stroke="#6534FF" stroke-linecap="round" stroke-linejoin="round" stroke-width="3.29" d="m623 549-37 155"/><path stroke="#3E1EC4" stroke-linecap="round" stroke-linejoin="round" stroke-width="4.38" d="M1027 314s-41.617 4.575-25.142 60"/><path stroke="#3E1EC4" stroke-linecap="round" stroke-linejoin="round" stroke-width="3.96" d="M845 468a260.249 260.249 0 0 0 22.465-8.514c20.972-9.09 34.985-18.489 42.038-22.976 13.87-8.859 34.686-20.414 64.497-31.51m45 3 60-26"/><path fill="#6534FF" fill-rule="nonzero" d="M916 375.449A40.642 40.642 0 0 0 912.54 359c-23.873 13.415-50.142 27.747-73.54 40.363 10.63 14.813 29.82 21.164 47.427 15.696C904.035 409.59 916 393.563 916 375.449Z" opacity=".18"/><path stroke="#6534FF" stroke-linecap="round" stroke-linejoin="round" stroke-width="3.29" d="m735 610-21 100"/><path stroke="#3E1EC4" stroke-linecap="round" stroke-linejoin="round" stroke-width="3.96" d="M1229 147c-7.859-2.95-9.235-12.807-3.444-19"/><path fill="#4E15CC" fill-rule="nonzero" d="M1236 211a10.914 10.914 0 0 1-5.337-3.335A11.07 11.07 0 0 1 1228 201"/><path stroke="#3E1EC4" stroke-linecap="round" stroke-linejoin="round" stroke-width="3.96" d="M1233.535 241c-1.435 3.865.116 8.34 3.465 10m-2 28c-2.87 3.53-3.787 9.145-2.288 14"/><path stroke="#6534FF" stroke-linecap="round" stroke-linejoin="round" stroke-width="3.29" d="M829.77 627s.868-12.717-.77-20"/><path fill="#2B0FD3" fill-rule="nonzero" d="M656.341 612.567c3.695-22.567 18.064-41.745 27.019-62.8a136.37 136.37 0 0 0 8.296-27.221c.61-18.017.997-30.185 1.458-33.447.216-1.533.38-3.16.508-4.848-.081-.96-.163-1.912-.271-2.87l.44.29c.34-6.334.21-13.323 0-19.671a46.965 46.965 0 0 0-17.854 16.565c-6.026 9.71-8.411 21.561-15.732 30.354-10.167 12.155-28.625 17.098-34.739 31.738-2.67 6.388-2.413 13.58-3.985 20.319-1.702 7.28-5.484 13.864-8.636 20.637-5.47 11.75-9.103 24.262-12.323 36.816a616.068 616.068 0 0 0-15.522 84.7c10.185.059 20.378.336 30.577.831L636.1 705c9.016-15.207 16.424-31.205 18.424-48.62 1.674-14.54-.55-29.368 1.816-43.813Z" opacity=".46"/><path stroke="#3E1EC4" stroke-linecap="round" stroke-linejoin="round" stroke-width="4.38" d="M702.298 339c-.606-3.4-.284-6.9.931-10.135 2.2-5.712 6.628-8.609 8.794-10.033 4.483-2.931 6.628-1.65 9.007-3.712 2.38-2.061 4.352-6.848 1.71-18.12"/><path fill="#F9879A" fill-rule="nonzero" d="M1076.231 185.344c15.56-3.58 28.182 9.53 29.637 7.43 2.068-3.006-20.389-34.202-51.864-33.77-1.71 0-29.684.737-34.352 16.885-4.21 14.568 12.845 33.769 25.596 33.094 12.42-.649 14.171-19.769 30.983-23.639zm14.755-47.754c-.616 2.212-21.721 3.584-34.161-10-9.065-9.904-13.157-27.355-6.623-33.179 5.696-5.086 19.672-1.46 21.647 4.7 1.887 5.852-8.24 10.194-7.59 18.127 1.035 12.495 27.437 17.795 26.727 20.352z"/><path fill="#6535FF" fill-rule="nonzero" d="M1048.994 140.617c.579 5.051-38.574 24.264-67.193 7.925-1.98-1.127-22.422-13.14-20.698-28.974 1.758-16.087 25.595-28.72 38.998-23.288 13.909 5.638 10.103 28.134 29.151 38.795 10.669 5.98 19.472 3.167 19.742 5.542Z"/><path stroke="#FCCDD3" stroke-linecap="round" stroke-linejoin="round" stroke-width="3" d="M968 116s4.773 37.388 60 30.044"/><path stroke="#6535FF" stroke-linecap="round" stroke-linejoin="round" stroke-width="3" d="M1041 157.008s-32-1.333-32 29.992"/><circle cx="923" cy="263" r="14" fill="#F9879A" fill-rule="nonzero"/><circle cx="331" cy="511" r="14" fill="#3E1EC4" fill-rule="nonzero"/><circle cx="900.5" cy="227.5" r="7.5" fill="#F9879A" fill-rule="nonzero"/><circle cx="1249.5" cy="542.5" r="7.5" fill="#52D2BC" fill-rule="nonzero"/><circle cx="1290.5" cy="522.5" r="7.5" fill="#FFF" fill-rule="nonzero"/><circle cx="1298.5" cy="72.5" r="7.5" fill="#FFF" fill-rule="nonzero"/><circle cx="304.5" cy="445.5" r="7.5" fill="#3E1EC4" fill-rule="nonzero"/><circle cx="941.5" cy="219.5" r="21.5" fill="#62BCF9" fill-rule="nonzero"/><circle cx="1014.5" cy="530.5" r="21.5" fill="#52D2BC" fill-rule="nonzero" stroke="#6535FF" stroke-linecap="round" stroke-linejoin="round" stroke-width=".28"/><circle cx="246.5" cy="426.5" r="21.5" fill="#62BCF9" fill-rule="nonzero"/><path fill="#3E1EC4" fill-rule="nonzero" d="M1281 476.928v-27.854a7.147 7.147 0 0 0-3.547-6.188l-23.912-13.93a7.049 7.049 0 0 0-7.088 0l-23.912 13.93a7.154 7.154 0 0 0-3.541 6.188v27.854a7.16 7.16 0 0 0 3.54 6.188l23.913 13.923a7.015 7.015 0 0 0 7.088 0l23.912-13.923a7.154 7.154 0 0 0 3.547-6.188Z" opacity=".32"/><path fill="#F9879A" fill-rule="nonzero" d="M1283 474.92v-27.84a7.15 7.15 0 0 0-3.603-6.197l-24.287-13.927a7.255 7.255 0 0 0-7.2 0l-24.314 13.913a7.156 7.156 0 0 0-3.596 6.197v27.854a7.156 7.156 0 0 0 3.596 6.197l24.287 13.927a7.255 7.255 0 0 0 7.2 0l24.287-13.927a7.15 7.15 0 0 0 3.63-6.197Z"/><path stroke="#FFF" stroke-linecap="round" stroke-linejoin="round" stroke-width="1.43" d="M1281 444.022a7.146 7.146 0 0 0-3.547-6.18l-23.92-13.889a7.064 7.064 0 0 0-7.087 0l-23.905 13.876a7.14 7.14 0 0 0-3.541 6.18v27.811a7.133 7.133 0 0 0 3.54 6.18"/><path fill="#FFF" fill-rule="nonzero" d="M1270.121 464.487 1273 459.5l-2.879-4.987v-5.766l-4.993-2.88-2.88-4.987h-5.758l-4.987-2.88-4.993 2.88h-5.758l-2.88 4.987-4.986 2.88v5.766L1230 459.5l2.886 4.987v5.766l4.986 2.88 2.88 4.987h5.758l4.993 2.88 4.987-2.88h5.758l2.88-4.987 4.993-2.88z"/><path stroke="#6535FF" stroke-linecap="round" stroke-linejoin="round" stroke-width="1.43" d="m1269 447.987-4.972-2.942-2.871-5.103h-5.743l-4.978-2.942-4.973 2.942h-5.742l-2.878 5.103-4.972 2.942v5.885l-2.871 5.096 2.871 5.102v5.885l4.972 2.943 2.878 5.102h5.742"/><circle cx="1251.5" cy="459.5" r="8.5" fill="#62BCF9" fill-rule="nonzero"/><path stroke="#6535FF" stroke-linecap="round" stroke-linejoin="round" stroke-width="1.43" d="M1247.915 467c-2.2-1.915-3.27-4.931-2.81-7.913.461-2.982 2.383-5.476 5.043-6.542 2.66-1.067 5.653-.545 7.852 1.37"/><path fill="#6534FF" fill-rule="nonzero" d="m1279.431 440.832-23.875-13.932a6.999 6.999 0 0 0-2.658-.9 13.785 13.785 0 0 0-1.086 3.41c-.735 3.982.047 8.08 1.16 11.967 1.114 3.887 2.564 7.685 3.218 11.675.89 5.469.259 11.08-1.821 16.209-2.699 6.669-7.799 12.274-9.694 19.223a22.084 22.084 0 0 0-.675 3.928l4.506 2.632a7.025 7.025 0 0 0 7.077 0l23.875-13.932a7.175 7.175 0 0 0 3.542-6.198v-27.87a7.174 7.174 0 0 0-3.569-6.212Z" opacity=".32"/><path stroke="#FFF" stroke-linecap="round" stroke-linejoin="round" stroke-width="1.43" d="m1255 492 22-14"/><path fill="#3E1EC4" fill-rule="nonzero" d="M520 303.965v-11.924a3.055 3.055 0 0 0-1.546-2.666l-10.414-5.965a3.11 3.11 0 0 0-3.086 0l-10.414 5.965a3.048 3.048 0 0 0-1.54 2.666v11.924a3.048 3.048 0 0 0 1.54 2.666l10.414 5.96a3.11 3.11 0 0 0 3.086 0l10.414-5.96a3.055 3.055 0 0 0 1.546-2.666Z" opacity=".32"/><path fill="#F9879A" fill-rule="nonzero" d="M520 302.937V291.03a3.043 3.043 0 0 0-1.54-2.662l-10.414-5.958a3.113 3.113 0 0 0-3.086 0l-10.414 5.958a3.05 3.05 0 0 0-1.546 2.662v11.908a3.05 3.05 0 0 0 1.546 2.663l10.414 5.99a3.113 3.113 0 0 0 3.086 0l10.414-5.99a3.043 3.043 0 0 0 1.54-2.663Z"/><path stroke="#FFF" stroke-linecap="round" stroke-linejoin="round" stroke-width=".63" d="M520 289.176a3.118 3.118 0 0 0-1.546-2.708l-10.414-6.052a3.068 3.068 0 0 0-3.086 0l-10.414 6.065a3.111 3.111 0 0 0-1.54 2.708v12.103a3.111 3.111 0 0 0 1.54 2.708"/><path fill="#FFF" fill-rule="nonzero" d="m514.728 299.707 1.272-2.21-1.272-2.204v-2.545l-2.202-1.272-1.273-2.203h-2.551L506.5 288l-2.202 1.273h-2.545l-1.272 2.203-2.202 1.272v2.545L497 297.497l1.279 2.21v2.545l2.202 1.272 1.272 2.203h2.545L506.5 307l2.202-1.273h2.551l1.273-2.203 2.202-1.272z"/><path stroke="#6535FF" stroke-linecap="round" stroke-linejoin="round" stroke-width=".63" d="m515 290.821-2.237-1.292-1.292-2.237h-2.584L506.643 286l-2.237 1.292h-2.585l-1.292 2.237-2.237 1.292v2.585L497 295.65l1.292 2.237v2.584l2.237 1.292 1.292 2.237h2.585"/><circle cx="508" cy="297" r="3" fill="#62BCF9" fill-rule="nonzero"/><path stroke="#6535FF" stroke-linecap="round" stroke-linejoin="round" stroke-width=".63" d="M506.135 300c-.852-.76-1.27-1.969-1.096-3.165.175-1.196.916-2.196 1.941-2.621 1.026-.425 2.179-.208 3.02.567"/><path fill="#6534FF" fill-rule="nonzero" d="m519.37 288.359-11.02-5.978a3.37 3.37 0 0 0-1.23-.381c-.236.46-.403.947-.499 1.45a10.542 10.542 0 0 0 .534 5.13 43.158 43.158 0 0 1 1.487 5.009 12.144 12.144 0 0 1-.84 6.946c-1.259 2.859-3.6 5.257-4.475 8.236a9.116 9.116 0 0 0-.327 1.69l2.085 1.128a3.45 3.45 0 0 0 3.265 0l11.02-6.011c1.016-.55 1.638-1.57 1.63-2.672V291.01c0-1.093-.62-2.104-1.63-2.651Z" opacity=".32"/><path stroke="#FFF" stroke-linecap="round" stroke-linejoin="round" stroke-width=".63" d="m509 309 9-5"/><path fill="#6534FF" fill-rule="nonzero" d="m283.03 536.4-2.531-4.382-.185-5.067a7.049 7.049 0 0 0-3.743-5.962l-3.517-1.86-1.991-3.419a7.042 7.042 0 0 0-6.104-3.521h-5.07l-4.483-2.373a7.046 7.046 0 0 0-7.034.26l-3.373 2.113h-3.983a7.022 7.022 0 0 0-6.097 3.521l-2.539 4.39-4.297 2.687a7.034 7.034 0 0 0-3.291 6.222l.144 3.973-1.992 3.419a7.038 7.038 0 0 0 0 7.042l2.532 4.383.185 5.067a7.049 7.049 0 0 0 3.743 5.962l3.53 1.86 1.992 3.419a7.022 7.022 0 0 0 6.097 3.521h4.229v11.385a.964.964 0 0 0 1.58.738l5.974-4.978a.965.965 0 0 1 1.245 0l5.653 4.903a.965.965 0 0 0 1.594-.732v-11.289h3.695a7.042 7.042 0 0 0 6.104-3.52l2.532-4.39 4.297-2.688a7.034 7.034 0 0 0 3.291-6.222l-.143-3.973 1.99-3.418a7.038 7.038 0 0 0-.033-7.07Z" opacity=".32"/><path fill="#62BCF9" fill-rule="nonzero" d="m264.312 578.674-5.993-5.252a1.012 1.012 0 0 0-1.319 0l-6.326 5.34c-.304.255-.727.31-1.085.14a1.035 1.035 0 0 1-.589-.932v-13.936c0-.571.457-1.034 1.022-1.034h14.956c.565 0 1.022.463 1.022 1.034v13.936c-.029.39-.272.73-.63.879a1.012 1.012 0 0 1-1.058-.175Z"/><ellipse cx="258" cy="560.5" fill="#6534FF" fill-rule="nonzero" opacity=".32" rx="9" ry="8.5"/><path fill="#BBC4EF" fill-rule="nonzero" d="m287.045 533.996-2.532-4.323-.185-4.998a6.931 6.931 0 0 0-3.744-5.881l-3.518-1.801-1.991-3.372c-1.259-2.15-3.587-3.475-6.106-3.474h-5.065l-4.483-2.34a7.133 7.133 0 0 0-7.043.256l-3.374 2.084h-3.983c-2.517 0-4.843 1.325-6.099 3.474l-2.539 4.323-4.291 2.657a6.9 6.9 0 0 0-3.3 6.138l.144 3.918-1.991 3.372a6.846 6.846 0 0 0 0 6.94l2.539 4.33.185 4.998a6.938 6.938 0 0 0 3.744 5.881l3.518 1.835 1.991 3.372c1.258 2.147 3.583 3.47 6.099 3.473h5.071l4.484 2.334a7.147 7.147 0 0 0 7.042-.25l3.375-2.084h3.976c2.519-.001 4.845-1.325 6.106-3.473l2.532-4.33 4.298-2.65a6.927 6.927 0 0 0 3.3-6.138l-.144-3.925 1.984-3.372a6.846 6.846 0 0 0 0-6.974Z"/><path stroke="#6534FF" stroke-linecap="round" stroke-linejoin="round" stroke-width="1.76" d="M283 522.705a6.94 6.94 0 0 0-3.659-5.882l-3.438-1.841-1.946-3.373a6.879 6.879 0 0 0-5.96-3.467h-4.956l-4.347-2.334a6.846 6.846 0 0 0-6.883.25l-3.297 2.09h-3.893a6.879 6.879 0 0 0-5.96 3.468l-2.514 4.31-4.207 2.644a6.957 6.957 0 0 0-3.211 6.125l.14 3.925-1.946 3.373a6.985 6.985 0 0 0 0 6.94l2.482 4.331.18 4.992a6.94 6.94 0 0 0 3.692 5.915l3.438 1.835 1.947 3.372a6.872 6.872 0 0 0 5.959 3.474h4.956l4.381 2.34a6.833 6.833 0 0 0 6.883-.256"/><path fill="#6534FF" fill-rule="nonzero" d="m284.541 529.961-.184-4.97a6.893 6.893 0 0 0-3.724-5.849l-3.5-1.79-1.98-3.354c-1.252-2.139-3.568-3.456-6.073-3.455h-5.038L263 510c.162 2.08.206 4.167.13 6.251.047 2.549.503 5.272 2.267 7.13.96.858 1.974 1.656 3.036 2.388 2.874 2.377 4.355 6.01 3.949 9.685-.388 3.226-2.22 6.198-2.329 9.444-.109 3.42 1.71 6.654 1.805 10.061a10.164 10.164 0 0 1-1.73 5.943c-.967 1.435-2.301 2.63-3.193 4.098h2.145c2.505-.001 4.819-1.318 6.073-3.454l2.519-4.306 4.275-2.636a6.888 6.888 0 0 0 3.282-6.104l-.143-3.904 1.974-3.353a6.807 6.807 0 0 0 0-6.902l-2.519-4.38Z" opacity=".32"/><ellipse cx="256.5" cy="556.5" fill="#6534FF" fill-rule="nonzero" opacity=".32" rx="21.5" ry="2.5"/><path fill="#62BCF9" fill-rule="nonzero" d="M284.26 538.1a3.183 3.183 0 0 1-2.388 1.088h-49.718a3.19 3.19 0 0 1-2.393-1.088 3.161 3.161 0 0 0-2.512-1.098 3.172 3.172 0 0 0-2.423 1.29l-.175.239a3.327 3.327 0 0 0-.543 2.82l2.97 11.295c.52 1.977 2.273 3.352 4.278 3.354h51.288c2.005-.002 3.759-1.377 4.277-3.354l2.97-11.295a3.327 3.327 0 0 0-.542-2.82l-.175-.24a3.178 3.178 0 0 0-2.413-1.272 3.167 3.167 0 0 0-2.502 1.08Z"/><path stroke="#6534FF" stroke-linecap="round" stroke-linejoin="round" stroke-width="1.76" d="M227.857 539.097h0a3.239 3.239 0 0 0-5.018.198l-.177.233a3.29 3.29 0 0 0-.553 2.82l3.028 11.304A4.503 4.503 0 0 0 229.48 557h52.17a4.51 4.51 0 0 0 4.35-3.348M233 538.5h19m17 17h-10m-7 4h3m9.5 10.5v4M238 518l10-5"/><path fill="#6534FF" fill-rule="nonzero" d="m1309.247 24.642-2.03-3.46-.141-3.987a5.564 5.564 0 0 0-2.956-4.722l-2.78-1.47-1.577-2.699a5.557 5.557 0 0 0-4.816-2.772h-4.005l-3.531-1.89a5.574 5.574 0 0 0-5.56.21l-2.666 1.666h-3.145a5.557 5.557 0 0 0-4.817 2.773l-2.03 3.454-3.381 2.124a5.54 5.54 0 0 0-2.605 4.905l.115 3.13-1.576 2.698a5.525 5.525 0 0 0 0 5.545l2.03 3.46.148 3.994a5.537 5.537 0 0 0 2.956 4.722l2.78 1.47 1.57 2.699a5.57 5.57 0 0 0 4.816 2.772h3.322v8.972a.76.76 0 0 0 1.245.587l4.735-3.926a.76.76 0 0 1 .98 0l4.472 3.859a.76.76 0 0 0 1.258-.574v-8.904h2.916a5.57 5.57 0 0 0 4.816-2.773l2.03-3.46 3.382-2.125a5.548 5.548 0 0 0 2.604-4.897l-.115-3.137 1.57-2.699a5.525 5.525 0 0 0-.014-5.545Z" opacity=".32"/><path fill="#62BCF9" fill-rule="nonzero" d="m1292.828 56.8-4.226-3.28a.79.79 0 0 0-.935 0l-4.482 3.332a.793.793 0 0 1-.77.086c-.253-.106-.415-.334-.415-.584V47.64c.004-.355.326-.641.724-.641h10.559c.396 0 .717.287.717.641v8.673a.642.642 0 0 1-.415.572.786.786 0 0 1-.757-.086Z"/><ellipse cx="1288.5" cy="44" fill="#6534FF" fill-rule="nonzero" opacity=".32" rx="7.5" ry="7"/><path fill="#BBC4EF" fill-rule="nonzero" d="m1313.215 23.71-2.03-3.473-.15-4.002a5.566 5.566 0 0 0-2.956-4.74l-2.781-1.475-1.57-2.708a5.568 5.568 0 0 0-4.818-2.79h-3.965l-3.546-1.876a5.56 5.56 0 0 0-5.556.204l-2.666 1.672h-3.146a5.548 5.548 0 0 0-4.818 2.79l-2.03 3.466-3.384 2.133a5.56 5.56 0 0 0-2.598 4.956l.115 3.149-1.57 2.708a5.562 5.562 0 0 0 0 5.566l2.03 3.473.142 4.002a5.58 5.58 0 0 0 2.957 4.74l2.782 1.475 1.576 2.709a5.548 5.548 0 0 0 4.818 2.79h4.006l3.539 1.875a5.573 5.573 0 0 0 5.562-.203l2.666-1.673h3.147a5.568 5.568 0 0 0 4.818-2.79l2.03-3.466 3.383-2.133a5.567 5.567 0 0 0 2.605-4.922l-.115-3.142 1.577-2.708a5.562 5.562 0 0 0-.054-5.607Z"/><path stroke="#6534FF" stroke-linecap="round" stroke-linejoin="round" stroke-width="1.41" d="M1311 14.236a5.589 5.589 0 0 0-3.015-4.743l-2.836-1.47-1.608-2.712c-1.015-1.722-2.887-2.784-4.913-2.785h-4.085l-3.61-1.877a5.761 5.761 0 0 0-5.671.203l-2.719 1.674h-3.209c-2.026.001-3.898 1.063-4.913 2.785l-2.07 3.477-3.45 2.128a5.551 5.551 0 0 0-2.65 4.927l.118 3.15-1.608 2.712a5.491 5.491 0 0 0 0 5.577l2.07 3.47.152 4.012a5.555 5.555 0 0 0 3.015 4.743l2.836 1.47 1.601 2.712c1.012 1.724 2.886 2.787 4.913 2.785h4.085l3.609 1.877a5.761 5.761 0 0 0 5.672-.203"/><path fill="#6534FF" fill-rule="nonzero" d="m1310.184 20.37-.15-4.056a5.646 5.646 0 0 0-2.977-4.805l-2.8-1.496-1.582-2.746a5.6 5.6 0 0 0-4.85-2.828h-3.994L1293 4a45.53 45.53 0 0 1 .102 5.107c0 2.059.402 4.31 1.813 5.834.767.7 1.577 1.351 2.425 1.95a9.122 9.122 0 0 1 3.128 7.941c-.314 2.636-1.779 5.066-1.867 7.722-.089 2.794 1.363 5.436 1.444 8.237a8.475 8.475 0 0 1-1.362 4.86c-.77 1.173-1.84 2.148-2.556 3.349h1.724a5.6 5.6 0 0 0 4.852-2.828l2.044-3.514 3.407-2.162a5.653 5.653 0 0 0 2.623-4.99l-.116-3.185 1.588-2.746a5.671 5.671 0 0 0 0-5.642l-2.065-3.562Z" opacity=".32"/><ellipse cx="1288.5" cy="42" fill="#6534FF" fill-rule="nonzero" opacity=".32" rx="16.5" ry="2"/><path fill="#62BCF9" fill-rule="nonzero" d="M1311.377 26.925a2.507 2.507 0 0 1-1.92.917h-39.916c-.73 0-1.426-.334-1.913-.917a2.483 2.483 0 0 0-2.017-.923c-.768.032-1.482.432-1.944 1.09l-.142.194a2.898 2.898 0 0 0-.438 2.374l2.385 9.518c.418 1.665 1.827 2.822 3.436 2.822h41.182c1.61 0 3.018-1.157 3.436-2.822l2.385-9.518a2.899 2.899 0 0 0-.431-2.374l-.142-.195c-.462-.657-1.176-1.057-1.944-1.089a2.483 2.483 0 0 0-2.017.923Z"/><path stroke="#6534FF" stroke-linecap="round" stroke-linejoin="round" stroke-width="1.41" d="M1266.667 26.92h0a2.523 2.523 0 0 0-2.037-.918 2.55 2.55 0 0 0-1.962 1.085l-.143.202a2.875 2.875 0 0 0-.435 2.373l2.407 9.517c.424 1.663 1.845 2.819 3.469 2.821h41.572c1.623 0 3.043-1.158 3.462-2.821M1269 26.5h15m14 15h-8m-6 2h3m7.5 8.5v3M1274 9l8-4"/><path fill="#FFF" fill-rule="nonzero" d="M75.361 445a6.292 6.292 0 0 1-4.03-1.46l-20.105-16.784A6.15 6.15 0 0 1 49 421.994l.129-35.617a2.682 2.682 0 0 1 1.846-2.512 78.589 78.589 0 0 1 49.193.168 2.682 2.682 0 0 1 1.832 2.524l-.129 35.618a6.157 6.157 0 0 1-2.253 4.735l-20.22 16.643A6.32 6.32 0 0 1 75.361 445Z"/><path fill="#52D2BC" fill-rule="nonzero" stroke="#6535FF" stroke-linecap="round" stroke-linejoin="round" stroke-width=".28" d="M78.872 419.26 70 414l8.716 12L88 414.372z"/><path fill="#52D2BC" fill-rule="nonzero" stroke="#6535FF" stroke-linecap="round" stroke-linejoin="round" stroke-width=".28" d="m70.014 412.045.043.006L78.971 417l8.972-4.585h.05l-.029-.014.036-.02L79.416 398 70 412.011l.036.027z"/><path fill="#6535FF" fill-rule="nonzero" d="M102.603 385.107a76.74 76.74 0 0 0-49.03-.171 5.077 5.077 0 0 0-3.45 4.8L50 424.87a8.597 8.597 0 0 0 3.01 6.57l19.391 16.552a8.434 8.434 0 0 0 10.926 0l19.5-16.409a8.63 8.63 0 0 0 3.057-6.555L106 389.9a5.085 5.085 0 0 0-3.397-4.793Zm.863 39.955a6.098 6.098 0 0 1-2.175 4.67l-19.5 16.415a6.025 6.025 0 0 1-7.786 0l-19.392-16.58a6.098 6.098 0 0 1-2.147-4.683l.123-35.128a2.617 2.617 0 0 1 1.78-2.482 74.343 74.343 0 0 1 47.452.164 2.618 2.618 0 0 1 1.767 2.49l-.122 35.134Z"/><path fill="#BBC4EF" fill-rule="nonzero" d="M105.887 425.575 106 390.7c-.004-2.151-1.336-4.064-3.319-4.765A73.996 73.996 0 0 0 83.022 382a28.22 28.22 0 0 1 4.281 10.395c.95 4.493 1.115 9.122 1.275 13.717a31.452 31.452 0 0 1-.326 7.413c-1.194 5.882-5.595 10.525-7.712 16.127-1.732 4.575-1.872 9.66-1.068 14.494.335 1.981.8 3.937 1.393 5.854a8.224 8.224 0 0 0 2.987-1.627l19.048-16.29c1.882-1.613 2.975-3.994 2.987-6.508Z" opacity=".44"/><path fill="#070707" fill-rule="nonzero" d="m60.112 421-13.262-3.662a1.876 1.876 0 0 1-1.314-.549 1.83 1.83 0 0 1-.536-1.306l.063-6.656a1.83 1.83 0 0 1 .556-1.298 1.877 1.877 0 0 1 1.323-.529l13.261 3.662c.319-.001.607.186.733.475a.778.778 0 0 1-.156.852l-4.784 1.493a.785.785 0 0 0 0 1.07l4.72 5.12a.785.785 0 0 1 .14.861.803.803 0 0 1-.744.467zm35.773-9.479L109.152 408a1.853 1.853 0 0 1 1.848 1.88l-.063 6.74a1.868 1.868 0 0 1-1.877 1.859L95.793 422a.801.801 0 0 1-.576-1.352l4.785-5.12a.797.797 0 0 0 0-1.084l-4.722-1.585a.804.804 0 0 1 .605-1.338z" opacity=".18"/><path fill="#FCCDD3" fill-rule="nonzero" d="m60.108 419-13.26-.097a1.873 1.873 0 0 1-1.312-.55 1.83 1.83 0 0 1-.536-1.305l.077-10.22c.002-.49.201-.957.554-1.3a1.866 1.866 0 0 1 1.323-.528l13.252.097c.317.003.602.19.728.477s.07.62-.144.85l-4.793 5.058a.785.785 0 0 0 0 1.07l4.715 5.12a.785.785 0 0 1 .14.861.802.802 0 0 1-.744.467zm35.79-14 13.255.097c.493.004.965.201 1.312.55.346.347.539.817.535 1.305l-.077 10.214c-.002.49-.201.958-.553 1.302a1.872 1.872 0 0 1-1.323.532l-13.247-.097a.801.801 0 0 1-.734-.478.786.786 0 0 1 .15-.856l4.791-5.051a.793.793 0 0 0 0-1.077l-4.713-5.12a.785.785 0 0 1-.133-.856.801.801 0 0 1 .737-.465z"/><path stroke="#6535FF" stroke-linecap="round" stroke-linejoin="round" stroke-width="1.54" d="m55.053 412.706 4.742 4.209c.212.191.265.465.135.7-.13.234-.418.385-.736.385l-13.328-.074c-1.037-.01-1.87-.693-1.866-1.53l.078-8.396M108 420l-12.266-.092a.741.741 0 0 1-.674-.455.756.756 0 0 1 .14-.808l4.43-4.78a.756.756 0 0 0 0-1.019L95.272 408"/><path stroke="#BBC4EF" stroke-linecap="round" stroke-linejoin="round" stroke-width="1.54" d="m56 429 18 15"/><path fill="#F9879A" fill-rule="nonzero" d="M805 142.89v-2.75c.375-.933.845-1.217 1.557-.292.711.926 1.569 1.27 2.54.199.592-.661 1.24-.483 1.837.086.96.919 1.722 1.011 2.541-.33.82-1.343 1.373-.88 1.525.495V148a16.283 16.283 0 0 1-3.583-3.035c-1.023-1.077-1.824-1.322-2.96 0a8.115 8.115 0 0 1-3.228 2.645c.031-.159 0-.251-.178-.258v-4.363l.114-.053-.165-.046Z"/><path fill="#52D2BC" fill-rule="nonzero" d="M818.12 103h-16.232a4.785 4.785 0 0 0-4.129 2.345l-8.12 13.81a4.62 4.62 0 0 0 0 4.69l8.12 13.81a4.785 4.785 0 0 0 4.129 2.345h16.231a4.785 4.785 0 0 0 4.129-2.345l8.112-13.81a4.62 4.62 0 0 0 0-4.69l-8.112-13.81a4.785 4.785 0 0 0-4.129-2.345Z"/><path fill="#52D2BC" fill-rule="nonzero" d="m825.893 109.13-14.25-7.575a4.716 4.716 0 0 0-4.744.179l-13.675 8.628a4.83 4.83 0 0 0-2.222 4.222l.588 16.238a4.783 4.783 0 0 0 2.523 4.05l14.256 7.574a4.709 4.709 0 0 0 4.738-.179l13.674-8.628a4.782 4.782 0 0 0 2.216-4.222l-.588-16.238a4.824 4.824 0 0 0-2.516-4.05Z"/><path fill="#F9879A" fill-rule="nonzero" d="M787.944 120.432c.717-.546 1.637-.573 1.982.165.792 1.678 2.158 1.326 3.45 1.326 10.857 0 21.713-.023 32.569-.07 1.231 0 2.557.325 3.254-1.318.325-.773 1.116-.607 1.746-.138 1.136.96 1.251 2.071.832 3.508-.832 2.761-1.61 5.6-2.26 8.437-.311 1.346-.981 1.678-2.219 1.657-2.78-.055-5.568 0-8.348 0l-19.255-.117-2.24-.049c-2.495-.766-5.148.318-7.624-.69-.108-.428-.21-.863-.31-1.291h.148-.149c-.135-.442-.264-.884-.399-1.326l.142-.076h-.162c-.142-.552-.284-1.098-.42-1.643l.095-.104-.135-.041-.122-.456v-.11c-.433-1.533-.805-3.087-1.32-4.592a2.701 2.701 0 0 1 .745-3.072Z"/><path stroke="#6534FF" stroke-linecap="round" stroke-linejoin="round" stroke-width="1.66" d="M793 122.5h12m13 12h-7m-5 2h2m6.5 5.5v3M798 107l6-3"/><circle cx="558" cy="250" r="30" fill="#F9879A" fill-rule="nonzero"/><circle cx="574.5" cy="232.5" r="13.5" fill="#52D2BC" fill-rule="nonzero"/><path stroke="#6535FF" stroke-linecap="round" stroke-linejoin="round" stroke-width="3" d="M528.596 267c-8.105-15.752-2.048-35.167 13.528-43.363 15.575-8.197 34.772-2.071 42.876 13.681"/><path fill="#E8EDF6" fill-rule="nonzero" d="M604.5 286h-9l-4.5 8 4.5 8h9l4.5-8zM571.753 298h-4.5L565 302l2.253 4h4.5l2.247-4z"/><path fill="#52D2BC" fill-rule="nonzero" d="M999.095 330.503c-14.454 27.696 26.405 110.702 26.405 110.702 1.165 2.169 4.017 6.736 8.811 7.645 3.294.613 6.186-.775 8.155-1.913 36.434-21.095 46.985-66.236 46.985-66.236.261-1.118.455-2.02.549-2.465l-13.39 6.062c-18.371 45.221-29.17 55.048-35.825 53.944-3.77-.627-7.137-7.854-13.718-22.288-6.287-13.8-12.392-27.426-16.269-47.37-2.738-14.07-3.843-21.162-1.667-27.864 3.549-10.911 13.732-17.451 24.631-24.45 9.681-6.216 15.794-7.772 15.399-9.429-.57-2.424-14.575-3.118-26.78 2.095a48.987 48.987 0 0 0-23.286 21.567Z"/><path stroke="#3E1EC4" stroke-linecap="round" stroke-linejoin="round" stroke-width="3.96" d="m1028 316-5-3m-13 19-8-1m5 27-5 1m7 21-3 3m12 20-3 3m15 22-3 8"/><path fill="#6534FF" fill-rule="nonzero" d="m1090 377-13.377 6.108c-18.2 45.17-28.961 55.288-35.623 54.371a20.491 20.491 0 0 0 10.661 2.505c29.049-22.796 37.79-60.5 37.79-60.5.261-1.127.455-2.036.549-2.484Z" opacity=".18"/><circle cx="701" cy="375" r="4" fill="#6535FF" fill-rule="nonzero"/><path stroke="#6535FF" stroke-dasharray="9" stroke-linecap="round" stroke-linejoin="round" stroke-width="3" d="M1232 519c-5.467-2.024-22.355-8.913-33.194-26.988A62.921 62.921 0 0 1 1190 463"/><path stroke="#FFF" stroke-dasharray="9" stroke-linecap="round" stroke-linejoin="round" stroke-width="3" d="M1274 352c4.762-1.626 27.974-10.073 37.764-33.06a53.656 53.656 0 0 0 4.196-22.94M1036 221.451c-.97.423-15.698 6.609-29.35-1.982-12.217-7.706-13.52-20.91-13.65-22.469"/><path stroke="#6535FF" stroke-dasharray="9" stroke-linecap="round" stroke-linejoin="round" stroke-width="3" d="M223.022 438c-.252-.604-6.132-15.204 3.407-27.84 6.205-8.182 16.389-12.345 26.571-10.865"/><path stroke="#FFF" stroke-dasharray="9" stroke-linecap="round" stroke-linejoin="round" stroke-width="3" d="M285 568.648a50.107 50.107 0 0 0 30.625-6.162A50.01 50.01 0 0 0 334 544m494-175c26.373-5.429 100.914-24.632 144.713-91.607A188.702 188.702 0 0 0 993 236m-5 250c14.544-7.248 49.364-21.836 89.544-11.303A115.635 115.635 0 0 1 1104 485.294"/><path fill="#FCCDD3" fill-rule="nonzero" d="m1291 406.822.132-17.394c.015-1.35 1.143-2.436 2.525-2.428l13.86.102a2.525 2.525 0 0 1 1.764.727c.466.462.724 1.086.719 1.735l-.132 17.394a1.047 1.047 0 0 1-.65.958 1.09 1.09 0 0 1-1.158-.204l-6.858-6.283a1.089 1.089 0 0 0-1.453 0l-6.955 6.181a1.097 1.097 0 0 1-1.158.174 1.053 1.053 0 0 1-.636-.962Z"/><path fill="#3E1EC4" fill-rule="nonzero" d="m852 219.822.132-17.394c.015-1.35 1.143-2.436 2.525-2.428l13.86.102a2.525 2.525 0 0 1 1.764.727c.466.462.724 1.086.719 1.735l-.132 17.394a1.047 1.047 0 0 1-.65.958 1.09 1.09 0 0 1-1.158-.204l-6.858-6.283a1.089 1.089 0 0 0-1.453 0l-6.955 6.181a1.097 1.097 0 0 1-1.158.174 1.053 1.053 0 0 1-.636-.962Z"/><path fill="#F9879A" fill-rule="nonzero" d="m279 489.822.132-17.394c.015-1.35 1.143-2.436 2.525-2.428l13.86.102a2.525 2.525 0 0 1 1.764.727c.466.462.724 1.086.719 1.735l-.132 17.394a1.047 1.047 0 0 1-.65.958 1.09 1.09 0 0 1-1.158-.204l-6.858-6.283a1.089 1.089 0 0 0-1.453 0l-6.955 6.181a1.097 1.097 0 0 1-1.158.174 1.053 1.053 0 0 1-.636-.962Z"/><path fill="#FFF" fill-rule="nonzero" d="m827 192.911.116-15.72a2.192 2.192 0 0 1 .666-1.558 2.248 2.248 0 0 1 1.588-.633l12.404.093c.594.003 1.163.24 1.58.658.417.417.65.981.646 1.568l-.123 15.713a.945.945 0 0 1-.567.886.967.967 0 0 1-1.046-.174l-6.137-5.691a.974.974 0 0 0-1.304 0l-6.216 5.584a.967.967 0 0 1-1.047.164.945.945 0 0 1-.56-.89Z"/><path stroke="#6534FF" stroke-linecap="round" stroke-linejoin="round" stroke-width="3.29" d="M1059 296.353s-31.797-10.366-64.27 12.417c-32.473 22.784-172.1 97.615-177.384 102.219-5.283 4.604-9.85 3.067-9.85 3.067s-12.346-2.566-15.729.142a9.874 9.874 0 0 0-3.646 6.439L762 423"/><path stroke="#6534FF" stroke-linecap="round" stroke-linejoin="round" stroke-width="3.29" d="M1048 302.765s-11.502-5.405-27.74 2.702c-16.24 8.108-39.244 22.297-22.329 74.996 16.915 52.7 31.8 65.537 31.8 65.537m-4.731 8c-33.177 9.38-66.274 19.42-98.782 30.856-19.916 7.002-39.31 13.262-55.243 27.886C852.912 529.322 841.774 551.826 838 576M693 462s-8.435 179.923-9 206"/><path stroke="#3E1EC4" stroke-linecap="round" stroke-linejoin="round" stroke-width="4.38" d="M672.385 305c.909-3.371-1.031-6.808-1.348-10.276-.518-5.858 4.433-11.715 10.488-12.366 1.96-.208 3.954.052 5.901-.234 1.947-.286 3.981-1.302 4.574-3.124m101 48.557c-2.23.93-4.885.278-7-.861-2.113-1.14-3.913-2.715-6.027-3.848-3.599-1.899-7.847-2.405-11.973-2.848"/><path fill="#3E1EC4" fill-rule="nonzero" d="M1049 36.06V18.94a4.4 4.4 0 0 0-2.173-3.801l-14.66-8.55a4.294 4.294 0 0 0-4.34 0l-14.66 8.55a4.394 4.394 0 0 0-2.167 3.8v17.122a4.387 4.387 0 0 0 2.166 3.8l14.66 8.55a4.294 4.294 0 0 0 4.34 0l14.66-8.55a4.394 4.394 0 0 0 2.174-3.8Z" opacity=".32"/><path fill="#F9879A" fill-rule="nonzero" d="M1050 35.055V17.947a4.396 4.396 0 0 0-2.173-3.81l-14.654-8.554a4.339 4.339 0 0 0-4.346 0l-14.654 8.555a4.417 4.417 0 0 0-2.173 3.809v17.108a4.403 4.403 0 0 0 2.173 3.802l14.654 8.554a4.305 4.305 0 0 0 4.346 0l14.654-8.568a4.39 4.39 0 0 0 2.173-3.788Z"/><path stroke="#FFF" stroke-linecap="round" stroke-linejoin="round" stroke-width=".87" d="M1049 15.61a4.287 4.287 0 0 0-2.175-3.715l-14.667-8.32a4.408 4.408 0 0 0-4.35 0l-14.633 8.32A4.287 4.287 0 0 0 1011 15.61v16.683a4.28 4.28 0 0 0 2.175 3.707"/><path fill="#FFF" fill-rule="nonzero" d="m1042.255 29.017 1.745-3.02-1.745-3.014v-3.485l-3.02-1.739-1.738-3.02h-3.485L1031 13l-3.019 1.739h-3.484l-1.739 3.02-3.019 1.739v3.485L1018 25.997l1.739 3.02v3.485l3.019 1.739 1.739 3.02h3.484L1031 39l3.012-1.739h3.485l1.738-3.02 3.02-1.739z"/><path stroke="#6535FF" stroke-linecap="round" stroke-linejoin="round" stroke-width=".87" d="m1041 18.696-3.112-1.799-1.792-3.105h-3.591L1029.393 12l-3.105 1.792h-3.592l-1.799 3.105-3.105 1.799v3.592L1016 25.393l1.792 3.112v3.591l3.105 1.792 1.799 3.112h3.592"/><circle cx="1031.5" cy="25.5" r="4.5" fill="#62BCF9" fill-rule="nonzero"/><path stroke="#6535FF" stroke-linecap="round" stroke-linejoin="round" stroke-width=".87" d="M1029.481 30c-1.764-1.625-1.982-4.423-.494-6.327s4.147-2.23 6.013-.736"/><path fill="#6534FF" fill-rule="nonzero" d="m1048.823 13.905-14.683-8.366a4.388 4.388 0 0 0-1.638-.539 8.329 8.329 0 0 0-.683 2.02c-.444 2.385.034 4.85.717 7.18.682 2.331 1.577 4.615 1.98 7.013a17.79 17.79 0 0 1-1.12 9.733c-1.672 4-4.778 7.369-5.966 11.538a13.904 13.904 0 0 0-.43 2.357l2.771 1.583a4.406 4.406 0 0 0 4.355 0l14.697-8.359a4.274 4.274 0 0 0 2.177-3.718V17.63a4.28 4.28 0 0 0-2.177-3.724Z" opacity=".32"/><path stroke="#FFF" stroke-linecap="round" stroke-linejoin="round" stroke-width=".87" d="m1033 45 13-7"/><path fill="#6535FF" fill-rule="nonzero" d="M889 548h54v8h-54zM888 564h37v8h-37z"/><path fill="#6534FF" fill-rule="nonzero" d="M1244 87h37v8h-37z"/><path fill="#6535FF" fill-rule="nonzero" d="M1137 460h37v8h-37zM1137 447h37v8h-37zM1137 433h37v8h-37z"/><path fill="#6534FF" fill-rule="nonzero" d="M1153.02 545a3.118 3.118 0 0 1-2.016-.712l-9.902-8.232a3.049 3.049 0 0 1-1.102-2.342v-17.529a1.332 1.332 0 0 1 .9-1.238 38.56 38.56 0 0 1 24.2 0c.532.185.892.68.9 1.238v17.549c0 .903-.404 1.76-1.102 2.342l-9.902 8.232a3.118 3.118 0 0 1-1.976.692Z"/><path fill="#FCCDD3" fill-rule="nonzero" stroke="#6535FF" stroke-linecap="round" stroke-linejoin="round" stroke-width=".14" d="M1154.955 531.187 1151 529l3.898 5 4.102-4.869z"/><path fill="#FCCDD3" fill-rule="nonzero" stroke="#6535FF" stroke-linecap="round" stroke-linejoin="round" stroke-width=".14" d="M1151.006 528.671h.02l3.971 2.329 3.977-2.187h.026-.013l.013-.013-3.836-6.8-4.164 6.652.019.013z"/><path fill="#FCCDD3" fill-rule="nonzero" d="M1167.32 514.923a37.325 37.325 0 0 0-23.653 0 2.432 2.432 0 0 0-1.667 2.3v16.795a4.07 4.07 0 0 0 1.468 3.133l9.386 7.878a4.09 4.09 0 0 0 5.292 0l9.392-7.878a4.083 4.083 0 0 0 1.462-3.133v-16.795a2.426 2.426 0 0 0-1.68-2.3Zm.483 19.095c0 .862-.383 1.68-1.045 2.234l-9.386 7.878a2.912 2.912 0 0 1-3.757 0l-9.445-7.878a2.907 2.907 0 0 1-1.039-2.234v-16.795a1.243 1.243 0 0 1 .853-1.183 36.12 36.12 0 0 1 22.906 0c.513.166.86.644.86 1.183l.053 16.795Z"/><path fill="#BBC4EF" fill-rule="nonzero" d="M1169 535.11v-16.916c0-1.051-.656-1.984-1.626-2.317a35.677 35.677 0 0 0-9.525-1.877 13.663 13.663 0 0 1 2.099 5.046c.407 2.195.624 4.423.648 6.657a15.432 15.432 0 0 1-.143 3.589c-.57 2.862-2.695 5.12-3.712 7.835a13.661 13.661 0 0 0-.493 7.03c.167.963.397 1.912.687 2.843a3.966 3.966 0 0 0 1.438-.799l9.201-7.935a4.161 4.161 0 0 0 1.426-3.156Z" opacity=".44"/><path fill="#070707" fill-rule="nonzero" d="m1144.648 533-5.832-1.554a.809.809 0 0 1-.816-.795v-2.862a.81.81 0 0 1 .822-.789l5.832 1.554a.355.355 0 0 1 .317.207.335.335 0 0 1-.062.366l-2.1.65a.33.33 0 0 0 0 .458l2.082 2.199a.329.329 0 0 1 .066.358.349.349 0 0 1-.31.208zm20.735-4.478 5.805-1.522a.81.81 0 0 1 .812.8v2.882a.786.786 0 0 1-.24.564.822.822 0 0 1-.579.23l-5.798 1.523a.354.354 0 0 1-.355-.21.34.34 0 0 1 .095-.397l2.09-2.195a.34.34 0 0 0 0-.468l-2.065-.667a.334.334 0 0 1-.041-.336.346.346 0 0 1 .276-.204z" opacity=".18"/><path fill="#52D2BC" fill-rule="nonzero" d="M1144.617 531h-5.805a.808.808 0 0 1-.812-.798v-4.409c0-.211.086-.414.24-.562a.823.823 0 0 1 .579-.23h5.804a.354.354 0 0 1 .35.213.339.339 0 0 1-.095.392l-2.09 2.189a.338.338 0 0 0 0 .465l2.071 2.202c.07.098.083.225.034.335a.352.352 0 0 1-.276.203zm20.735-6h5.832c.217 0 .426.084.58.234a.78.78 0 0 1 .236.564v4.41a.78.78 0 0 1-.241.562.83.83 0 0 1-.581.23h-5.826a.356.356 0 0 1-.322-.205.337.337 0 0 1 .06-.37l2.1-2.183a.337.337 0 0 0 0-.466l-2.075-2.201a.331.331 0 0 1-.073-.362.349.349 0 0 1 .31-.213z"/><path stroke="#6535FF" stroke-linecap="round" stroke-linejoin="round" stroke-width=".76" d="m1142.8 529.301 2.063 2.116c.126.09.171.248.11.384a.351.351 0 0 1-.37.196h-5.792c-.449-.004-.811-.345-.811-.766V527m32 5h-5.664a.346.346 0 0 1-.308-.192.298.298 0 0 1 .06-.337l2.04-2.016a.294.294 0 0 0 0-.423l-2.022-2.032"/><path stroke="#BBC4EF" stroke-linecap="round" stroke-linejoin="round" stroke-width=".76" d="m1145 537 8 7"/><circle cx="1342.5" cy="92.5" r="21.5" fill="#62BCF9" fill-rule="nonzero"/><path fill="#62BCF9" fill-rule="nonzero" d="m986 74.822.132-17.394c.015-1.35 1.143-2.436 2.525-2.428l13.86.102a2.525 2.525 0 0 1 1.764.727c.466.462.724 1.086.719 1.735l-.132 17.394a1.047 1.047 0 0 1-.65.958 1.09 1.09 0 0 1-1.158-.204l-6.858-6.283a1.089 1.089 0 0 0-1.453 0l-6.955 6.181a1.097 1.097 0 0 1-1.158.174 1.053 1.053 0 0 1-.636-.962Z"/><path fill="#3E1EC4" fill-rule="nonzero" d="M1361.5 36h-9l-4.5 8 4.5 8h9l4.5-8zM13.5 524h-9L0 532l4.5 8h9l4.5-8z"/><path fill="#BBC4EF" d="M1226.52 138.7a36.077 36.077 0 0 0-2.143-3.769 17.803 17.803 0 0 1-3.247-12.554 44.22 44.22 0 0 0 .137-4.76c.156-3.83-1.701-7.47-4.912-9.62a49.31 49.31 0 0 0-5.866-3.493 15.834 15.834 0 0 1-7.231-7.417c-.805-1.699-1.733-3.337-2.66-4.969-2.272-4.045-5.676-6.216-10.397-6.277-2.094 0-4.188-.128-6.275-.08a16.02 16.02 0 0 1-9.455-2.852 55.859 55.859 0 0 0-5.457-3.372c-3.698-1.914-7.429-2.09-11.188-.249a35.984 35.984 0 0 0-4.093 2.225c-3.901 2.575-8.083 3.883-12.824 3.297a38.966 38.966 0 0 0-5.103-.128 11.016 11.016 0 0 0-8.431 3.6 31.365 31.365 0 0 0-4.393 6.742 16.69 16.69 0 0 1-8.063 7.612c-1.63.748-3.206 1.611-4.775 2.495-4.039 2.279-6.215 5.683-6.256 10.342 0 2.07-.15 4.14-.075 6.21.07 3.29-.935 6.514-2.865 9.196a55.494 55.494 0 0 0-3.52 5.643 11.423 11.423 0 0 0-.266 10.552 34.351 34.351 0 0 0 2.517 4.544 17.776 17.776 0 0 1 3.207 12.426 42.461 42.461 0 0 0-.137 5.191 10.871 10.871 0 0 0 4.386 8.866 51.426 51.426 0 0 0 6.447 3.93c2.258 1.282 4.4 2.698 5.757 4.97 2.17 3.62 3.786 7.571 6.508 10.881-.252.459-.546.904-.764 1.39-4.443 9.86-8.882 19.725-13.316 29.59a4.383 4.383 0 0 0 .73 4.976 4.324 4.324 0 0 0 4.775 1.207 1240.385 1240.385 0 0 0 15.69-4.962c.955-.31 1.364-.169 1.787.735 2.176 4.874 4.427 9.722 6.617 14.597.825 1.84 2.101 2.892 4.236 2.912 1.907.124 3.669-1.006 4.332-2.778 2.728-6.142 5.498-12.29 8.254-18.433 1.214-2.696 2.449-5.393 3.759-8.259.286.607.484.991.64 1.39 3.448 8.616 6.888 17.232 10.322 25.849a4.138 4.138 0 0 0 3.65 2.872c2.1.195 3.751-.486 4.72-2.387 2.428-4.76 4.85-9.527 7.197-14.32.525-1.079 1.03-1.349 2.217-.924 4.843 1.847 9.734 3.58 14.59 5.394 2.047.755 3.971.728 5.526-.883 1.556-1.612 1.474-3.594.642-5.63-2.422-5.92-4.775-11.86-7.156-17.793-2.101-5.218-4.205-10.432-6.31-15.641 1.248-2.171 2.517-4.329 3.731-6.52a15 15 0 0 1 6.89-6.203c1.787-.87 3.56-1.78 5.28-2.771 4.018-2.299 6.187-5.717 6.208-10.383 0-2.4.088-4.807.109-7.214a12.3 12.3 0 0 1 1.903-6.56c1.26-1.996 2.517-3.994 3.772-5.994 2.538-4.011 2.858-8.171.641-12.44Zm-87.22 62.082c4.385-.176 8.103 1.287 11.596 3.715-3.513-2.428-7.231-3.89-11.597-3.715l-1.248.047 1.248-.047Zm39.564.917a11.087 11.087 0 0 0-.007 0h.007Zm6.242.094c-1.467-.054-2.933-.068-4.407-.094 1.467.026 2.933.04 4.4.094h.007Zm5.457-.182a15.868 15.868 0 0 1-.007 0h.007Zm-30.356 15.864c-4.093 9.008-8.138 18.062-12.197 27.097a2.487 2.487 0 0 1-2.32 1.699c-1.227 0-1.896-.823-2.366-1.854-2.354-5.219-4.775-10.417-7.054-15.662-.586-1.349-1.255-1.632-2.64-1.173-5.457 1.8-10.914 3.485-16.371 5.245-1.065.344-2.101.587-2.968-.317-.866-.903-.757-2.124-.259-3.23 2.285-5.09 4.598-10.166 6.876-15.257 2.217-4.955 4.4-9.924 6.597-14.893a4.016 4.016 0 0 1 1.828.883l-12.347 27.521c-.157.351-.294.715-.45 1.066a1.068 1.068 0 0 0 0 1.22c.382.438.852.31 1.364.169 2.926-.87 5.86-1.713 8.793-2.583 2.933-.87 5.77-1.678 8.63-2.595.995-.324 1.432-.095 1.868.842 2.45 5.232 4.973 10.437 7.504 15.642.3.627.443 1.51 1.364 1.51s.955-.842 1.221-1.436c4.025-8.9 8.04-17.797 12.047-26.692.09-.353.308-.66.614-.863a3.339 3.339 0 0 1 .26 3.661h.006Zm49.3 13.801c.443 1.1.682 2.117-.24 3.061-.92.944-1.93.83-3.069.405-5.184-1.922-10.376-3.803-15.567-5.697-2.96-1.08-2.415-.917-3.574 1.348-2.49 4.841-4.919 9.709-7.354 14.57-.546 1.085-1.22 2.023-2.592 1.975-1.371-.047-1.903-1.078-2.354-2.218-4.78-12.068-9.572-24.125-14.38-36.171a8.177 8.177 0 0 1 2.259.087c.073.372.169.739.286 1.1 4.275 10.76 8.563 21.513 12.866 32.26.218.546.313 1.254 1.18 1.275.866.02 1.023-.614 1.31-1.153 2.728-5.097 5.457-10.18 8.144-15.305.526-1.018.99-1.24 2.101-.85 5.574 1.97 11.174 3.844 16.768 5.752.539.188 1.105.539 1.623 0 .519-.54.15-1.1-.047-1.619-.56-1.483-1.16-2.953-1.747-4.422l-10.232-25.715a5.82 5.82 0 0 1 1.562-1.348c.184-.236.355-.48.525-.715-.17.236-.34.479-.525.715 4.352 10.89 8.702 21.779 13.05 32.665h.006Z" opacity=".32"/><g fill-rule="nonzero"><path fill="#FFF" d="M1190.852 134.273h-.122a.29.29 0 0 0-.162.223l-1.63 7.658a.431.431 0 0 0 .4.513l4.671.061a.345.345 0 0 0 .284-.506l-3.076-7.672a.452.452 0 0 0-.176-.21v-.04h-.189m17.322-4.528c-.75 0-.994.344-.865 1.201.162 1.066.23 2.14.338 3.205.108 1.067.264 2.322.345 3.49.047.728.351.964 1.014.964 1.995 0 4.003 0 6.004.068h.06c1.137 0 1.664-.675 1.576-1.856-.128-1.714-.277-3.435-.534-5.156a1.908 1.908 0 0 0-2.028-1.842c-1.914 0-3.827 0-5.74-.074h-.143m-39.094-.52c-.304 0-.581.257-.77.736-.88 2.28-1.698 4.589-2.51 6.903-.046.154-.08.312-.1.472 0 .237 0 .493-.041.736.041.576.19 1.139.44 1.66l.155.304c1.21 2.125 2.434 4.25 3.644 6.39.244.432.507.864 1.008.89h.04c.487 0 .676-.445.818-.87.778-2.112 1.576-4.21 2.347-6.323l.101-.283a4.27 4.27 0 0 0 .095-1.653c-.061-.25-.109-.5-.183-.743a3.283 3.283 0 0 0-.203-.479c-1.278-2.341-2.57-4.676-3.928-6.984-.284-.486-.609-.735-.913-.756m-24.564-.263c-.717 0-.926.351-.818 1.14.149 1.074.23 2.14.338 3.213.108 1.073.257 2.32.345 3.475.047.675.236 1.032.967 1.032 2.028 0 4.057.04 6.132.061h.04c1.09 0 1.597-.675 1.522-1.795a78.08 78.08 0 0 0-.52-5.149c-.17-1.18-.812-1.903-2.029-1.896-1.954 0-3.908 0-5.876-.08h-.108m63.476 21.937h-.081c-1.156 0-1.623-.823-1.731-1.977-.345-3.536-.717-7.079-1.075-10.615-.358-3.536-.676-6.977-1.095-10.466-.122-1.005.135-1.282.94-1.296h.189c2.968.095 5.93.088 8.898.135 2.587.1 4.71 2.08 4.983 4.65.263 1.95.46 3.907.602 5.864.189 2.604-1.468 4.534-3.895 4.561h-.311c-1.943 0-3.888-.027-5.835-.08h-.129c-.676 0-.906.296-.804 1.1.25 2.024.446 4.008.615 6.005.081 1.046 0 2.092-1.244 2.105m-21.17-.23a2.154 2.154 0 0 1-.547-.08c-1.11-.297-1.4-1.221-1.245-2.22.393-2.402.846-4.784 1.272-7.18.77-4.386 1.555-8.772 2.325-13.165.122-.675.237-1.41.947-1.58.174-.046.354-.071.534-.074a1.548 1.548 0 0 1 1.528 1.175c2.624 7.067 5.245 14.134 7.864 21.202.412 1.133-.156 2.024-1.156 2.024h-.095c-.872 0-1.285-.62-1.582-1.35-.386-.971-.812-1.943-1.096-2.942a1.18 1.18 0 0 0-1.352-1.025h-.351c-1.407 0-2.827 0-4.247-.061h-.121c-.602 0-.893.263-.98.938-.136 1.026-.4 2.024-.535 3.057-.115.857-.52 1.282-1.17 1.289m-15.639-.19c-1.825 0-3.049-1.038-3.982-2.698-1.23-2.234-2.495-4.447-3.698-6.688a6.905 6.905 0 0 1-.555-5.783c.845-2.375 1.677-4.723 2.576-7.085a3.304 3.304 0 0 1 2.143-2.024h1.508l.196.033h.048c.063.01.127.024.189.04h.095l.128.034a4.555 4.555 0 0 1 2.563 2.092c1.352 2.369 2.704 4.771 4.057 7.167a6.972 6.972 0 0 1 .628 5.79c-.75 2.22-1.568 4.4-2.353 6.612-.56 1.593-1.52 2.605-3.225 2.619h-.29m-26.87-.351a1.663 1.663 0 0 1-1.576-1.127 3.678 3.678 0 0 1-.182-1.1l-1.055-10.338c-.358-3.489-.676-6.977-1.089-10.466-.114-.951.041-1.35.913-1.35h.163c2.975.108 5.936.095 8.898.135a5.202 5.202 0 0 1 4.996 4.623c.27 2.024.48 4.001.609 5.999.169 2.53-1.495 4.426-3.854 4.467h-.474c-1.845 0-3.691 0-5.544-.095h-.223c-.825 0-.987.412-.865 1.35.27 2.024.466 4.096.615 6.14.06.864-.176 1.654-1.17 1.742h-.162m29.5-73.155c-2.306 0-4.517.945-6.674 2.787-2.867 2.436-6.126 3.954-9.547 3.988-.796.01-1.591-.06-2.373-.21-1.751 0-3.043-.08-4.246-.067h-.744c-2.596.115-4.672 1.12-5.984 3.482a41.796 41.796 0 0 0-2.556 5.75 14.59 14.59 0 0 1-6.761 7.942c-1.4.769-2.705 1.666-4.057 2.523-2.826 1.782-3.955 4.555-3.556 8.226.263 2.375.487 4.724.764 7.126.32 2.484-.06 5.007-1.096 7.288-.81 1.788-1.622 3.583-2.474 5.344-1.765 3.65-1.501 7.308 1.088 11.02.609.87 1.116 1.801 1.765 2.638a21.75 21.75 0 0 1 4.733 13.05c0 1.479.25 2.983.412 4.468.352 3.178 1.65 5.837 4.416 7.645a27.056 27.056 0 0 0 3.238 1.944 23.942 23.942 0 0 1 11.603 11.093c.547 1.06 1.25 2.025 1.893 3.064 2.028 3.172 4.787 4.663 8.154 4.724 2.313 0 4.625.054 6.93.054a13.65 13.65 0 0 1 7.04 2.132c1.798 1.086 3.596 2.173 5.408 3.3a9.777 9.777 0 0 0 5.355 1.734 8.124 8.124 0 0 0 4.612-1.58c1.176-.816 2.393-1.571 3.55-2.422a13.35 13.35 0 0 1 7.944-2.78h1.136c1.88.135 3.76.088 5.632.122h.304c3.266 0 5.66-1.478 6.998-4.589.676-1.525 1.353-3.03 1.94-4.602a14.38 14.38 0 0 1 6.688-7.97c1.44-.789 2.82-1.686 4.185-2.597a7.338 7.338 0 0 0 3.55-6.593c-.04-2.834-.5-5.675-.798-8.516a14.732 14.732 0 0 1 1.244-7.929c.838-1.781 1.65-3.57 2.475-5.351 1.541-3.293 1.291-6.647-.886-10.034-.967-1.498-1.934-2.996-2.955-4.447a19.033 19.033 0 0 1-3.746-10.183c-.094-2.024-.351-4.096-.588-6.14-.358-3.118-1.63-5.723-4.34-7.545a62.166 62.166 0 0 0-5.66-3.313 19.921 19.921 0 0 1-8.066-7.841 105.344 105.344 0 0 0-3.124-5.034c-1.67-2.571-3.86-4.224-6.72-4.542-1.09-.114-2.185-.094-3.266-.121h-2.38a27.498 27.498 0 0 1-4.733-.216c-2.928-.452-5.572-2.024-8.026-3.867-2.705-2.024-5.267-3.002-7.722-2.975"/><path fill="#FCCDD3" d="M1218.708 188.931a5.513 5.513 0 0 0-1.183 1.748c5.175 10.5 10.359 21 15.551 31.5.528 1.059.86 2.024.15 2.969a1.657 1.657 0 0 1-1.353.715 3.928 3.928 0 0 1-1.352-.29c-4.862-1.815-9.73-3.59-14.591-5.399a7.774 7.774 0 0 0-2.029-.607c-.568 0-.561.58-1.041 1.93-1.657 4.724-3.246 9.447-4.862 14.17-.344 1.026-.818 1.93-1.954 1.944h-.121c-1.238-.054-1.833-1.032-2.374-2.132a16654.753 16654.753 0 0 0-17.133-34.88c-3.293-.115-6.14-1.93-8.925-3.813l-.405-.27c-3.063-2.024-6.187-3.239-9.622-3.246h-1.143c-.676 0-1.4.061-2.102.075h-.5a22.484 22.484 0 0 1-5.335-.56c-.237-.055-.467-.122-.677-.183-2.61 8.908-5.217 17.817-7.822 26.729-.102.344-.17.675-.27 1.04-.175.394-.107.853.175 1.18a.798.798 0 0 0 .615.283 1.95 1.95 0 0 0 .602-.141c2.515-.864 5.044-1.707 7.56-2.578 2.514-.87 4.969-1.673 7.437-2.591.199-.086.412-.134.628-.142.467 0 .785.29 1.15.938 2.806 5.048 5.68 10.055 8.54 15.075.338.6.574 1.45 1.392 1.444.764 0 .744-.83.92-1.397 2.542-8.65 5.082-17.302 7.62-25.952.034-.329.194-.63.446-.844a3.605 3.605 0 0 1 .676 3.57c-2.63 8.772-5.152 17.544-7.714 26.317-.278.958-.846 1.653-1.867 1.667-1.095 0-1.798-.776-2.332-1.775-2.705-5.027-5.49-10.034-8.154-15.095-.487-.925-.947-1.35-1.59-1.316a2.58 2.58 0 0 0-.912.209c-4.652 1.788-9.338 3.475-14.003 5.223a3.996 3.996 0 0 1-1.352.317 1.84 1.84 0 0 1-1.352-.587 2.877 2.877 0 0 1-.616-3.131c1.44-4.946 2.914-9.88 4.348-14.846 1.4-4.818 2.765-9.65 4.145-14.474a3.8 3.8 0 0 0-1.616-1.167c-.176.452-.386.884-.521 1.35-2.813 9.59-5.619 19.181-8.418 28.773a4.758 4.758 0 0 0 1.244 4.804 4.06 4.06 0 0 0 3.022 1.39c.48-.009.956-.098 1.407-.263 4.49-1.626 8.972-3.252 13.428-4.953.214-.09.443-.141.676-.148.42 0 .676.242 1.035.843 2.522 4.724 5.104 9.373 7.64 14.063.96 1.781 2.218 2.78 4.131 2.787h.068c1.859 0 2.968-.972 3.482-2.733 1.751-5.965 3.468-11.944 5.206-17.916.77-2.625 1.555-5.23 2.387-8.037.324.594.547.958.737 1.35l12.251 25.035c.778 1.572 1.914 2.59 3.604 2.74.205.013.41.013.615 0a3.272 3.272 0 0 0 3.327-2.376c1.61-4.629 3.212-9.265 4.733-13.928.243-.735.514-1.1 1.041-1.106.287.012.568.076.832.189 4.55 1.74 9.121 3.374 13.685 5.08.696.283 1.44.434 2.19.446a3.227 3.227 0 0 0 2.651-1.35c1.23-1.619.893-3.495-.095-5.465-2.86-5.702-5.666-11.431-8.499-17.154a6714.223 6714.223 0 0 0-7.491-15.081"/><path fill="#FCCDD3" d="M1216.281 191.988a10.156 10.156 0 0 1-6.132 1.937h-1.359c-1.961-.101-3.915-.068-5.876-.095h-.615a8.215 8.215 0 0 0-2.975.675l-.25.115c-3.685 1.768-6.627 4.831-10.616 6.073.105.36.231.714.379 1.06l15.314 31.108c.257.526.433 1.208 1.21 1.221h.041c.676 0 .805-.607.994-1.127 1.84-4.96 3.698-9.906 5.477-14.893.243-.674.507-1.005.994-1.012.268.015.533.072.784.169 5.22 1.856 10.446 3.617 15.673 5.398.293.135.606.224.926.263a.622.622 0 0 0 .52-.276c.393-.52 0-1.073-.23-1.58a145.267 145.267 0 0 0-2.082-4.257l-12.17-24.799"/><path fill="#6534FF" d="M1151.52 137.883h-.04c-2.028 0-4.057-.074-6.132-.06-.73 0-.92-.358-.967-1.033-.088-1.154-.23-2.321-.345-3.475-.115-1.154-.19-2.14-.338-3.212-.108-.79.101-1.134.818-1.14h.108c1.968.067 3.922.08 5.876.08 1.21 0 1.852.715 2.028 1.896a78.08 78.08 0 0 1 .52 5.149c.075 1.113-.432 1.782-1.52 1.795m-10.176-12.146c-.873 0-1.028.384-.913 1.35.412 3.488.73 6.977 1.088 10.465l1.055 10.338c.005.374.066.745.183 1.1a1.663 1.663 0 0 0 1.575 1.127h.163c.993-.088 1.23-.877 1.17-1.74a106.633 106.633 0 0 0-.616-6.142c-.122-.938.04-1.35.865-1.35h.224c1.852.095 3.698.109 5.544.095h.473c2.36-.04 4.057-1.936 3.854-4.467a83.799 83.799 0 0 0-.608-5.999 5.202 5.202 0 0 0-4.997-4.622c-2.962-.04-5.923 0-8.898-.135h-.162m29.554 21.56c-.5 0-.764-.46-1.008-.891-1.21-2.14-2.434-4.265-3.644-6.39l-.156-.304a4.622 4.622 0 0 1-.44-1.66c0-.243 0-.5.041-.736.021-.16.055-.318.102-.472.811-2.314 1.63-4.622 2.508-6.903.19-.48.467-.722.771-.736.304-.013.629.27.913.756a263.07 263.07 0 0 1 3.928 6.984c.08.154.148.315.203.48.074.242.122.492.183.742a4.27 4.27 0 0 1-.095 1.653l-.101.283c-.771 2.112-1.57 4.211-2.347 6.323-.155.425-.331.857-.818.87h-.04m-2.157-21.29h-1.041a3.304 3.304 0 0 0-2.144 2.025c-.9 2.335-1.73 4.724-2.576 7.086a6.905 6.905 0 0 0 .554 5.783c1.204 2.24 2.468 4.453 3.699 6.687.933 1.673 2.157 2.699 3.982 2.699h.291c1.704 0 2.664-1.026 3.225-2.618.785-2.214 1.603-4.393 2.353-6.613a6.972 6.972 0 0 0-.629-5.79c-1.352-2.395-2.65-4.798-4.056-7.166a4.555 4.555 0 0 0-2.563-2.092l-.128-.034h-.095a1.896 1.896 0 0 0-.19-.04h-.047l-.196-.034h-.446"/><path fill="#6534FF" d="M1157.613 83.75c3.421 0 6.68-1.551 9.547-3.987 2.157-1.842 4.368-2.767 6.673-2.787 2.455 0 5.017.972 7.722 2.976 2.454 1.822 5.098 3.414 8.026 3.866 1.568.208 3.152.28 4.732.216h2.38c1.082 0 2.178 0 3.266.122 2.86.317 5.05 1.97 6.721 4.541 1.075 1.66 2.13 3.327 3.124 5.034a19.921 19.921 0 0 0 8.066 7.841 62.166 62.166 0 0 1 5.66 3.313c2.704 1.822 3.982 4.427 4.34 7.545.237 2.024.494 4.102.588 6.14a19.033 19.033 0 0 0 3.746 10.183c1.021 1.45 1.988 2.949 2.955 4.447 2.177 3.374 2.427 6.748.886 10.034-.825 1.782-1.637 3.57-2.475 5.351a14.732 14.732 0 0 0-1.244 7.93c.297 2.84.757 5.68.798 8.515a7.338 7.338 0 0 1-3.55 6.593c-1.352.91-2.745 1.808-4.185 2.598a14.38 14.38 0 0 0-6.687 7.97c-.582 1.571-1.285 3.076-1.94 4.601-1.353 3.111-3.733 4.555-6.999 4.589h-.304c-1.873 0-3.753 0-5.632-.122-.386 0-.764-.04-1.136 0a13.35 13.35 0 0 0-7.945 2.78c-1.156.85-2.373 1.607-3.55 2.423a8.124 8.124 0 0 1-4.61 1.58 9.777 9.777 0 0 1-5.356-1.735 213.328 213.328 0 0 0-5.409-3.3 13.65 13.65 0 0 0-7.038-2.132c-2.306 0-4.618 0-6.93-.054-3.382-.04-6.127-1.532-8.155-4.724-.642-1.012-1.352-2.024-1.893-3.063a23.942 23.942 0 0 0-11.603-11.094 27.056 27.056 0 0 1-3.238-1.943c-2.766-1.809-4.057-4.468-4.416-7.646-.162-1.484-.378-2.99-.412-4.467a21.75 21.75 0 0 0-4.733-13.05c-.676-.837-1.156-1.769-1.765-2.639-2.59-3.711-2.853-7.369-1.088-11.02.852-1.76 1.663-3.556 2.474-5.344a13.472 13.472 0 0 0 1.096-7.288c-.277-2.375-.5-4.723-.764-7.126-.4-3.67.73-6.444 3.556-8.225 1.352-.857 2.705-1.755 4.057-2.524a14.59 14.59 0 0 0 6.761-7.942c.707-1.978 1.56-3.9 2.556-5.75 1.312-2.361 3.38-3.374 5.984-3.482h.744c1.203 0 2.495.048 4.246.068.782.15 1.577.22 2.373.21m15.89-9.516a9.31 9.31 0 0 0-4.592 1.303 27.35 27.35 0 0 0-3.38 2.186 14.513 14.513 0 0 1-9.088 3.428c-.664.008-1.328-.03-1.987-.115a21.062 21.062 0 0 0-2.604-.114c-.676 0-1.318 0-1.974.04a8.403 8.403 0 0 0-7.12 3.563 26.914 26.914 0 0 0-3.13 6.6 13.213 13.213 0 0 1-6.315 7.422 45.698 45.698 0 0 0-3.962 2.463c-3.381 2.247-4.889 5.56-4.375 10.075.223 2.024.345 4.002.676 5.999a14.544 14.544 0 0 1-1.474 8.941 47.44 47.44 0 0 0-2.481 5.493 11.99 11.99 0 0 0 1.007 10.21c.83 1.52 1.76 2.983 2.786 4.379a19.963 19.963 0 0 1 4.334 11.998 42.43 42.43 0 0 0 .493 5.027 12.33 12.33 0 0 0 4.97 8.543 53.436 53.436 0 0 0 6.227 3.745c2.17 1.215 4.246 2.564 5.734 4.724 2.373 3.488 4.28 7.301 7.106 10.473a3.8 3.8 0 0 1 1.616 1.167 4 4 0 0 1 1.738.837c.236.06.466.128.676.182 1.75.399 3.54.587 5.335.56h.5c.676 0 1.406-.04 2.103-.074h1.142c3.435 0 6.559 1.241 9.622 3.246l.405.27c2.786 1.882 5.633 3.697 8.925 3.812h1.129c.309-.013.617.023.913.108 3.99-1.248 6.93-4.312 10.616-6.073l.25-.115a8.215 8.215 0 0 1 2.975-.675h.615c1.961 0 3.915 0 5.876.095h1.359c2.2.033 4.352-.647 6.132-1.937.322-.515.746-.96 1.245-1.309a5.513 5.513 0 0 1 1.183-1.748c.858-2.118 1.744-4.21 2.57-6.343a11.776 11.776 0 0 1 5.408-6.073c1.488-.857 2.968-1.754 4.388-2.733 3.327-2.26 4.855-5.587 4.328-10.122-.278-2.321-.487-4.65-.751-6.984a11.788 11.788 0 0 1 .926-6.363c.893-1.95 1.785-3.887 2.664-5.844 1.765-3.94 1.555-7.97-.92-12.072a42.362 42.362 0 0 0-2.366-3.63 20.004 20.004 0 0 1-4.388-12.147c0-1.525-.264-3.077-.433-4.609a12.527 12.527 0 0 0-5.53-9.278 50.902 50.902 0 0 0-5.653-3.32 17.564 17.564 0 0 1-7.37-7.153c-.92-1.633-1.933-3.219-2.954-4.784-2.516-3.86-5.822-5.966-10.048-5.972-1.528 0-3.056-.068-4.577-.048h-1.352a14.895 14.895 0 0 1-8.48-2.699c-1.723-1.12-3.454-2.247-5.266-3.185a11.715 11.715 0 0 0-5.41-1.43"/><path fill="#6534FF" d="M1215.07 138.673h-.087c-2.028-.034-4.01-.081-6.004-.068-.676 0-.967-.236-1.014-.965-.081-1.167-.223-2.328-.345-3.489-.122-1.16-.176-2.139-.338-3.205-.129-.857.115-1.194.865-1.201h.142c1.914.067 3.827.088 5.74.074a1.916 1.916 0 0 1 2.029 1.842c.257 1.721.406 3.442.534 5.156.088 1.18-.44 1.842-1.575 1.856m-10.102-12.147c-.804 0-1.061.29-.94 1.296.426 3.488.737 6.977 1.096 10.466.358 3.489.73 7.079 1.075 10.614.108 1.154.575 1.95 1.73 1.978h.082c1.237 0 1.352-1.06 1.244-2.106a146.782 146.782 0 0 0-.615-6.005c-.102-.803.101-1.094.804-1.1h.129c1.947.072 3.892.099 5.835.08h.31c2.428 0 4.058-1.956 3.895-4.561a95.153 95.153 0 0 0-.601-5.864 5.209 5.209 0 0 0-4.956-4.656c-2.969-.047-5.93-.04-8.898-.135h-.19m-10.892 16.188-4.672-.06a.433.433 0 0 1-.4-.513l1.603-7.619a.29.29 0 0 1 .162-.222h.311v.04c.08.05.14.123.176.21l3.077 7.672a.344.344 0 0 1-.284.506m-3.895-16.35c-.18.002-.36.027-.534.074-.676.168-.825.897-.947 1.579-.77 4.386-1.555 8.772-2.326 13.165-.425 2.396-.878 4.778-1.27 7.18-.156.999.135 1.923 1.243 2.22.179.05.363.078.548.08.676 0 1.055-.431 1.17-1.288.135-1.032.399-2.024.534-3.057.088-.675.379-.931.98-.938h.122c1.42.054 2.84.074 4.246.061h.352a1.185 1.185 0 0 1 1.352 1.026c.284.998.676 1.97 1.095 2.942.298.756.677 1.383 1.583 1.35h.094c1 0 1.569-.912 1.156-2.025a5210.686 5210.686 0 0 0-7.863-21.202 1.548 1.548 0 0 0-1.528-1.174"/></g></g><path fill="#E9EDF5" d="M0 949v-38.073C284.128 759.642 550.113 684 797.955 684c247.843 0 461.858 33.153 642.045 99.46V949H0Z"/></g></svg>