<svg width="979" height="706" viewBox="0 0 979 706" fill="none" xmlns="http://www.w3.org/2000/svg">
<path opacity="0.88" d="M449.345 43.2068C483.181 -0.0598319 555.114 -5.40446 602.3 6.03056C656.965 19.2741 658.327 50.1859 709.014 75.7407C820.273 131.828 914.695 33.7667 978.905 85.6842C1028.45 125.763 1030.06 230.573 988.231 275.779C958.063 308.4 924.96 288.699 891.994 321.519C838.603 374.68 890.987 460.678 847.78 499.004C796.254 544.714 679.983 459.46 646.072 497.917C613.945 534.354 706.315 624.473 675.295 675.874C628.998 752.533 359.81 657.566 330.624 647.057C230.843 611.155 101.335 546.099 109.654 497.196C115.107 465.184 175.723 463.015 182.227 422.415C188.519 383.138 134.593 367.788 129.998 317.821C124.906 262.212 183.75 194.708 243.036 186.07C245.921 185.647 252.362 185.523 258.94 185.449C293.536 184.982 313.656 190.712 328.535 192.179C357.758 195.05 389.406 183.746 407.369 169.042C447.355 136.309 414.948 87.1882 449.345 43.2068Z" fill="#F1F5FD"/>
<path d="M675.802 675.309C706.825 623.826 614.519 533.564 646.599 497.07C680.487 458.552 796.676 543.94 848.166 498.159C891.343 459.772 838.996 373.637 892.35 320.393C925.281 287.521 958.373 307.253 988.52 274.58C993.125 269.535 997.143 263.982 1000.5 258.029V230.33H990.869V213.213L978.753 88.7225V110.508H935.259V85.299H911.959L886.795 110.508H874.99V274.524H851.733V258.627H812.881V283.861H752.301V95.5695C752.069 93.2383 751.573 90.9411 750.822 88.7225C738.628 86.2023 726.761 82.2993 715.449 77.0889C706.974 83.8798 706.011 95.9118 706.011 95.9118V274.555H682.4V178.175H641.392V295.065H591.685V245.892H564.346V207.3H515.882V275.147H488.543V216.014L459.962 244.647V291.953H432.002V339.764H407.459V237.488L391.615 221.616H373.596V187.381H367.383C363.512 188.396 359.56 189.248 355.578 189.871V220.994H341.287L320.161 242.157V349.219H262.377V290.086H218.262V353.576H182.846V285.106H134.382V332.879C147.287 370.618 188.643 386.678 183.095 421.417C176.596 462.088 115.991 464.254 110.572 496.316C102.259 545.297 231.677 610.455 331.37 646.446C343.089 650.672 393.547 668.568 452.717 683.475H669.445C671.878 681.014 674.012 678.272 675.802 675.309Z" fill="#E6EDFE"/>
<path opacity="0.4" d="M378.583 542.099C400.696 527.066 399.614 470.599 372.481 445.935C350.908 426.331 331.824 444.074 299.702 426.313C260.265 404.501 267.169 365.597 230.724 341.907C196.692 319.791 149.616 318.507 142.338 332.263C134.743 346.614 176.389 366.335 207.391 429.593C229.163 473.942 218.296 483.859 239.047 505.435C264.694 532.102 300.859 537.33 347.151 544.034C366.011 546.757 372.804 546.025 378.583 542.099Z" fill="#9289FF"/>
<path opacity="0.61" d="M333.535 451.08C330.544 451.7 328.986 456.49 328.875 459.39C328.739 463.002 329.815 466.893 331.218 470.648C342.658 501.363 385.788 540.666 414.492 530.133C419.332 528.354 424.894 525.021 423.182 518.155C419.987 505.372 399.763 493.68 389.886 487.372C378.218 479.905 366.147 473.091 353.728 466.961C348.165 462.134 342.967 456.192 336.972 452.016C336.012 451.228 334.762 450.887 333.535 451.08Z" fill="#6534FF"/>
<path opacity="0.6" d="M266.272 303.331C271.742 304.329 302.741 310.526 324.684 337.998C350.113 369.826 332.481 391.601 352.003 434.656C375.212 485.83 420.052 499.036 414.807 509.864C408.975 521.908 347.026 519.013 319.451 483.134C296.996 453.915 318.472 430.318 298.537 388.592C273.532 336.257 215.512 322.621 220.783 308.454C224.351 298.862 252.531 300.809 266.272 303.331Z" fill="#FCCDD3"/>
<path d="M360.102 518.098C285.938 496.812 260.982 466.845 252.026 443.181C245.175 425.065 247.623 410.435 235.509 390.424C218.32 362.03 187.734 349.077 165.319 342.613" stroke="white" stroke-width="3" stroke-linecap="round" stroke-linejoin="round"/>
<path opacity="0.6" d="M308.854 493.185C366.951 513.713 401.563 525.939 400.506 538.948C399.075 556.515 332.14 580.532 288.921 556.977C262.656 542.664 262.606 520.303 218.447 487.567C196.187 471.064 181.634 465.944 182.846 462.671C185.427 455.717 253.065 473.476 308.854 493.185Z" fill="#FCCDD3"/>
<path d="M380.316 541.265C342.499 551.42 320.03 545.165 306.652 537.912C286.818 527.159 281.624 511.303 253.806 492.662C240.674 483.889 226.35 476.987 211.258 472.159" stroke="white" stroke-width="3" stroke-linecap="round" stroke-linejoin="round"/>
<path d="M396.854 504.317C381.357 499.796 359.486 490.662 344.643 470.366C326.657 445.761 332.166 422.765 323.29 395.81C315.699 372.74 296.113 342.243 240.66 315.051M275.574 336.182L267.305 318.726M291.193 349.045L272.817 344.451M299.462 356.395L292.112 326.995M311.407 372.933L293.95 365.583M319.676 386.715L323.351 356.395M326.107 401.415L308.65 390.39M328.864 424.384L334.376 407.846M330.701 434.491L312.325 421.628M336.214 453.785L338.97 436.328M341.727 466.647L322.432 457.46" stroke="white" stroke-width="2.55" stroke-linecap="round" stroke-linejoin="round"/>
<path d="M758.067 161.72C754.925 164.774 751.671 167.885 749.528 171.715C745.093 179.661 746.349 190.537 752.921 196.859C759.493 203.18 770.946 203.905 777.901 198.002C779.913 196.153 781.701 194.077 783.229 191.817C784.396 190.398 785.318 188.796 785.956 187.076C786.395 185.323 786.525 183.507 786.339 181.71C786.119 177.649 785.673 173.526 784.059 169.791C779.692 159.727 766.561 153.549 758.067 161.72Z" fill="white"/>
<path d="M733.122 255.622C733.122 255.622 694.265 242.049 690.19 283.449C686.114 324.849 734.989 370.177 734.989 370.177L772.639 311.945L733.122 255.622Z" fill="#E2A3AE"/>
<path d="M415.798 352.362C415.798 352.362 405.866 352.048 403.383 354.563C400.9 357.079 386.623 358.336 386.623 373.43C386.623 388.523 381.657 389.781 396.555 393.554C411.453 397.327 426.27 422.545 426.27 422.545L490.287 373.21C490.287 373.21 505.805 348.274 497.115 345.13C488.425 341.986 474.427 343.941 464.352 347.017C454.278 350.092 415.798 352.362 415.798 352.362Z" fill="#5CBEFF"/>
<path opacity="0.46" d="M417.922 358.27C417.922 358.27 402.949 360.098 401.701 365.581C400.453 371.063 403.573 392.526 416.674 395.432C429.776 398.337 448.561 402.206 448.493 405.788C448.424 409.37 467.209 368.017 482.807 360.098C498.404 352.178 464.352 353.768 464.352 353.768L417.922 358.27Z" fill="#2B0FD3"/>
<path d="M442.154 223.359C434.655 217.046 404.967 222.205 396.538 226.606C392.688 228.617 388.277 233.899 388.414 239.325C388.514 243.272 390.97 245.023 389.664 247.618C387.871 251.193 382.297 249.741 379.666 253.148C376.541 257.177 382.684 261.355 381.541 269.182C380.347 277.376 372.698 279.251 374.042 284.08C375.585 289.667 386.133 289.127 387.789 295.141C388.864 299.027 384.746 300.318 384.04 306.197C382.984 315.011 390.739 324.546 396.538 324.447C399.325 324.397 401.293 322.131 402.162 322.789C403.368 323.689 399.118 327.662 399.662 331.635C400.412 337.079 410.185 342.609 417.159 341.567C429.862 339.704 434.718 315.905 437.155 303.968C440.91 285.638 463.168 241.013 442.154 223.359Z" fill="#6535FF"/>
<path d="M462.698 404.738L423.62 414.276L408.798 295.755H469.438L462.698 404.738Z" fill="white"/>
<path opacity="0.46" d="M435.202 375.688C435.087 376.002 434.918 376.309 434.696 376.608C435.194 376.372 435.389 376.018 435.202 375.688Z" fill="#2B0FD3"/>
<path opacity="0.46" d="M424.352 296.674H408.798L423.012 409.159C425.141 409.925 427.483 409.847 429.557 408.942C427.77 402.584 426.002 395.673 428.422 389.526C430.537 384.149 435.711 379.796 435.668 374.003C435.862 374.162 435.999 374.38 436.059 374.624C436.977 370.085 433.949 365.403 431.095 361.51C427.993 357.269 424.891 351.842 427.106 347.092L437.281 342.957C434.415 336.872 427.354 333.985 423.229 328.676C417.025 320.741 418.607 309.129 422.776 299.965C423.297 298.903 423.831 297.798 424.352 296.674Z" fill="#9289FF"/>
<path d="M395.833 385.781L396.854 381.201C396.854 381.201 391.402 386.088 395.833 385.781Z" fill="#62BCF9"/>
<path d="M485.115 359.296C478.59 357.906 491.191 366.986 484.455 367.335C452.08 371.074 448.245 412.322 435.401 401.329C419.705 387.9 406.008 389.221 401.027 384.161C398.001 385.407 396.046 385.968 394.839 386.03L350.915 614.177C387.922 616.047 424.848 617.816 461.736 619.163C483.62 518.095 512.036 365.023 485.115 359.296Z" fill="#5CBEFF"/>
<path d="M490.283 474.723C489.973 502.827 467.092 525.448 438.974 525.448C410.857 525.448 387.976 502.827 387.666 474.723C387.666 446.396 442.144 412.439 470.481 412.439C498.819 412.439 490.283 446.377 490.283 474.723Z" fill="#DDDBFF"/>
<path opacity="0.46" d="M481.428 429.259C482.919 422.249 484.417 415.153 484.095 407.994C483.773 400.835 481.422 393.497 476.242 388.551C474.045 386.456 470.635 384.832 468.079 386.456C466.136 387.696 465.604 390.249 465.196 392.524C461.856 411.021 455.311 428.79 445.857 445.027C441.086 453.208 435.337 461.904 436.618 471.288C437.038 474.455 438.245 477.449 439.291 480.467C442.868 490.83 444.57 502.16 441.952 512.808C439.761 521.714 434.724 529.598 430.609 537.792C426.493 545.986 423.183 555.183 424.866 564.201C425.689 568.652 427.688 572.792 428.857 577.161C432.31 590.035 428.368 603.416 426.858 616.773L440.269 617.324L456.798 545.081C465.008 506.476 473.218 467.869 481.428 429.259Z" fill="#2B0FD3"/>
<path opacity="0.18" d="M409.604 421.487C407.535 405.821 396.852 380.281 396.852 380.281L346.32 612.796L363.307 613.648C366.817 589.738 372.423 556.017 377.186 547.468C384.792 533.866 411.668 437.154 409.604 421.487Z" fill="#6534FF"/>
<path opacity="0.46" d="M472.195 339.373L467.148 347.558C467.148 347.558 455.615 358.024 437.648 353.36C419.681 348.695 408.798 301.269 408.798 301.269L472.195 339.373Z" fill="#9289FF"/>
<path d="M476.007 292.286C471.296 300.505 465.874 300.94 465.765 305.166C465.624 310.686 474.727 317.653 483.049 316.819C491.895 315.929 496.543 306.558 499.052 301.486C506.394 286.669 506.804 264.038 495.851 258.555C488.759 255.004 477.191 258.782 475.367 264.075C473.901 268.337 479.65 270.999 479.848 279.407C479.989 285.344 477.255 290.103 476.007 292.286Z" fill="#6535FF"/>
<path d="M449.225 348.125C475.104 348.125 496.083 319.125 496.083 283.352C496.083 247.579 475.104 218.579 449.225 218.579C423.346 218.579 402.367 247.579 402.367 283.352C402.367 319.125 423.346 348.125 449.225 348.125Z" fill="white"/>
<path opacity="0.46" d="M423.069 333.484C416.807 325.485 418.404 313.782 422.612 304.544C425.454 298.286 429.418 291.401 426.882 285.061C425.924 282.658 424.114 280.68 422.993 278.346C419.75 271.618 422.712 263.682 425.673 256.823L407.596 253.493C404.089 263.088 402.318 273.231 402.368 283.447C402.368 313.206 416.713 338.322 436.362 346.289C433.087 341.175 426.869 338.34 423.069 333.484Z" fill="#9289FF"/>
<path d="M416.546 303.025C416.673 298.105 417.051 293.196 417.68 288.315C418.66 280.687 419.242 280.979 418.92 278.302C418.3 272.252 414.94 267.431 417.327 263.543C417.438 263.355 417.56 263.175 417.693 263.002C418.356 262.114 419.67 260.779 423.892 257.803C433.568 250.97 439.947 244.492 449.307 244.759C457.942 245.001 456.951 251.741 473.483 257.803C480.922 260.536 483.259 259.934 488.361 263.394C494.243 267.376 498 272.792 500.492 271.631C501.564 271.134 501.856 269.661 501.998 268.984C503.858 260.288 505.984 236.516 502.444 223.552C498.905 210.588 477.94 213.712 477.94 213.712C477.94 213.712 480.42 189.53 447.448 195.698C420.792 200.668 415.213 216.818 405.574 236.013C384.708 277.575 407.843 312.889 407.843 312.889L415.331 314.131L416.546 303.025Z" fill="#6535FF"/>
<path d="M528.914 404.488C521.433 446.568 526.982 469.751 533.868 483.275C541.299 497.848 542.947 505.193 546.254 519.878C549.505 534.295 548.663 538.861 546.873 542.211C541.25 552.72 522.882 557.491 510.955 553.378C475.383 541.101 459.672 436.816 498.569 410.692C507.258 404.854 517.909 403.439 528.914 404.488Z" fill="#3E1EC4"/>
<path d="M584.752 419.937C648.27 395.459 723.627 374.487 723.627 374.487L745.994 241.549C745.994 241.549 702.225 232.276 672.857 255.389C646.674 275.989 529.475 339.078 500.449 354.632C498.137 355.873 488.031 356.544 481.243 356.866C477.537 357.059 474.46 359.78 473.83 363.421L429.93 616.648C443.932 617.231 457.929 617.763 471.923 618.243L527.91 617.145C527.91 617.145 521.24 444.416 584.752 419.937Z" fill="#F9879A"/>
<path d="M482.084 356.953C478.471 357.153 475.47 359.981 474.859 363.763L474.032 368.827C474.996 369.875 476.383 370.356 477.745 370.115C481.999 369.471 494.76 362.384 500.837 361.74C504.264 361.372 504.598 356.708 504.24 352.72L500.837 354.653C498.558 355.915 488.702 356.618 482.084 356.953Z" fill="#52D2BC"/>
<path d="M513.352 430.389L477.708 435.408L480.646 425.727L516.297 420.708L513.352 430.389Z" fill="#D3637B"/>
<path d="M727.619 362.247L702.028 339.856C702.097 339.919 691.417 352.337 690.362 353.604C684.745 360.434 677.654 365.662 669.715 369.642C660.303 374.361 650.154 377.423 640.229 380.962C626.46 385.867 613.059 391.723 599.428 396.982C588.542 401.179 577.37 403.259 566.572 407.289C548.271 414.119 531.469 427.351 529.708 448.022C526.294 488.159 516.033 507.886 511.932 511.282C507.832 514.679 516.033 533.735 516.033 536.455C516.033 538.069 515.671 596.213 515.671 617.324L528.154 616.082C528.154 616.082 521.507 443.26 585.097 418.77C648.687 394.281 724.142 373.3 724.142 373.3L727.619 362.247Z" fill="#F87588"/>
<path d="M511.38 349.335C511.38 349.335 518.267 491.39 527.806 508.796C529.894 512.551 531.575 516.51 532.823 520.607C535.951 531.094 534.165 537.391 534.165 537.391C534.165 537.391 499.19 531.796 496.647 483.309C494.103 434.822 489.652 350.28 489.652 350.28C489.652 350.28 498.745 344.045 511.38 349.335Z" fill="#7168DE"/>
<path d="M526.404 523.61C526.404 523.61 505.208 503.238 504.585 445.824C503.961 388.41 502.515 367.42 502.515 367.42" stroke="white" stroke-width="5.1" stroke-linecap="round" stroke-linejoin="round"/>
<path d="M735.779 368.556L772.639 311.376L700.974 341.207C704.612 350.773 708.607 359.665 712.202 367.082C714.338 371.511 718.68 374.439 723.563 374.744C728.446 375.049 733.114 372.685 735.779 368.556ZM694.542 270.031C704.475 264.686 713.826 259.34 723.025 253.639C713.88 252.856 700.859 254.798 694.542 270.031Z" fill="#99485F"/>
<path d="M911.449 233.535L806.934 191.017C791.037 205.415 774.271 218.822 756.732 231.159C745.117 239.325 734.052 246.393 722.771 252.964C713.385 258.431 703.843 263.557 693.708 268.682C691.813 273.182 690.649 277.956 690.259 282.824C688.525 300.472 694.29 321.918 701.478 340.776L772.335 311.381C817.683 295.353 847.502 289.197 867.977 286.907C874.671 286.157 902.292 283.364 914.786 269.228C914.786 269.228 914.972 269.017 926.996 254.956L911.449 233.535Z" fill="white"/>
<path opacity="0.46" d="M904.96 273.291C897.95 270.454 899.17 227.854 892.155 225.011C871.119 225.272 853.315 240.595 846.859 261.829C835.617 241.29 820.639 227.06 812.21 228.401C798.134 230.655 796.36 277.333 768.558 284.858C764.898 285.845 761.71 285.914 754.918 288.261C739.48 293.6 730.522 302.113 724.913 306.627C714.622 314.897 704.444 318.672 695.461 320.907C697.329 327.662 699.638 334.374 702.091 340.775L763.684 315.319L773.333 311.339C818.927 295.302 848.908 289.142 869.495 286.851C872.29 286.851 899.793 285.864 916.558 269.162C916.558 269.162 916.601 269.119 928.834 254.882L904.96 273.291Z" fill="#9289FF"/>
<path opacity="0.61" d="M755.245 25.0366L761.461 24.2558L845.969 13.5919L851.364 12.9103C861.24 11.671 870.313 19.1067 871.622 29.5475L900.194 257.74C901.497 268.181 894.547 277.649 884.664 278.901L788.546 291.027C778.67 292.266 769.596 284.831 768.294 274.384L739.721 46.1909C738.413 35.7562 745.363 26.282 755.245 25.0366Z" fill="#B1AFFF"/>
<path d="M904.657 120.523C911.063 119.911 917.894 120.23 923.349 123.584C929.255 127.197 932.689 134.139 932.502 140.953C932.314 147.767 928.748 154.293 923.393 158.707C919.427 161.971 914.504 164.187 911.219 168.111C909.512 170.15 908.323 172.58 906.509 174.527C901.642 179.774 892.834 180.386 886.572 176.841C880.31 173.297 876.562 166.348 875.743 159.313C874.923 152.279 876.725 145.159 879.496 138.621C881.067 134.947 883.306 125.672 886.265 123.168C889.393 120.456 900.466 120.927 904.657 120.523Z" fill="white"/>
<path d="M902.819 78.2597C909.225 77.6475 916.057 77.9658 921.518 81.3208C927.424 84.9329 930.852 91.8754 930.664 98.6894C930.476 105.503 926.911 112.03 921.562 116.444C917.589 119.707 912.672 121.954 909.382 125.847C907.68 127.886 906.485 130.317 904.677 132.263C899.81 137.51 890.996 138.122 884.734 134.578C878.472 131.033 874.725 124.084 873.905 117.05C873.086 110.015 874.887 102.895 877.659 96.3569C879.229 92.6835 881.462 83.4085 884.428 80.9045C887.562 78.2046 898.628 78.6638 902.819 78.2597Z" fill="white"/>
<path opacity="0.46" d="M895.757 108.327C895.757 108.327 908.163 109.602 912.296 108.964C916.429 108.327 912.296 110.871 912.296 110.871C912.296 110.871 909.541 114.677 895.757 108.327Z" fill="#2B0FD3"/>
<path d="M866.499 18.7063C869.593 19.5749 872.418 21.2051 874.717 23.4471C878.241 26.8025 880.449 31.3043 880.942 36.141L903.433 269.833C904.298 278.842 898.528 286.1 890.304 286.895C889.649 286.958 888.99 286.981 888.331 286.963L788.978 284.093C787.105 284.035 785.255 283.672 783.5 283.018C786.35 284.915 789.669 285.99 793.093 286.124L892.464 288.989C893.156 289.007 893.848 288.984 894.537 288.921C895.939 288.788 897.316 288.462 898.627 287.951C904.274 284.466 907.66 277.78 906.913 270.013L884.422 36.3212C884.081 32.855 882.991 29.5036 881.228 26.4978C880.383 25.4244 879.439 24.4321 878.408 23.5341C875.117 20.598 870.909 18.8899 866.499 18.7V18.7063ZM760.373 11.7783C750.482 12.7352 743.565 21.4277 744.593 32.2017L767.09 265.9C767.686 271.726 770.357 277.145 774.616 281.172C778.483 285 783.611 287.294 789.046 287.628C785.691 286.745 782.588 285.094 779.982 282.807C777.978 281.064 776.271 279.007 774.928 276.717C772.47 273.663 770.956 269.96 770.57 266.061L748.072 32.3695C747.35 24.9134 751.185 18.6255 757.236 16.252C759.456 14.8613 761.972 14.0101 764.581 13.7666C765.351 13.6915 766.125 13.6666 766.897 13.692L769.387 13.7666C769.387 13.7231 769.387 13.6796 769.387 13.6361L856.757 16.1588C856.757 16.2023 856.757 16.2457 856.757 16.2892L866.244 16.5626C868.568 16.6356 870.86 17.1151 873.017 17.9793C869.766 15.8855 866.009 14.705 862.142 14.5619L762.764 11.6975C761.968 11.6743 761.172 11.7012 760.38 11.7783" fill="#52D2BC"/>
<path d="M796.828 145.069C796.828 145.168 796.784 145.268 796.766 145.373C796.766 145.268 796.803 145.168 796.828 145.069ZM860.287 17.7255C860.212 27.2133 853.757 34.5762 844.799 35.4399C844.025 35.517 843.248 35.5439 842.471 35.5207L796.268 34.1848C796.981 34.2908 797.7 34.3531 798.421 34.3712L846.392 35.7568C847.13 35.7789 847.868 35.754 848.602 35.6822C857.405 34.8372 863.686 27.3252 863.263 17.8063L860.287 17.7255ZM886.289 252.666L792.427 249.957L790.659 231.591L884.521 234.3L886.289 252.666ZM883.613 224.861L789.75 222.152L787.982 203.786L881.845 206.495L883.613 224.861ZM867.894 61.6107L774.038 58.9203L773.154 49.7369L867.016 52.4459L867.894 61.6293V61.6107ZM770.483 14.6934L770.533 15.178C769.843 15.1599 769.153 15.1828 768.466 15.2464C759.925 16.0665 753.912 23.6034 754.821 32.9794L777.318 266.671C777.4 267.55 777.541 268.422 777.742 269.281C778.782 273.691 781.189 277.661 784.62 280.627C785.349 281.259 786.12 281.841 786.93 282.366C788.683 283.022 790.531 283.387 792.402 283.447L891.774 286.312C892.432 286.332 893.091 286.311 893.747 286.25C901.977 285.454 907.747 278.172 906.882 269.188L884.384 35.4958C883.895 30.6563 881.687 26.1513 878.159 22.7956C875.859 20.5557 873.035 18.9259 869.942 18.0548L865.36 17.9243C865.896 28.4871 858.961 36.9062 849.107 37.8631C848.279 37.9413 847.447 37.9683 846.616 37.9439L798.683 36.5583C794.12 36.3708 789.722 34.7994 786.077 32.0536C779.43 28.7263 774.673 22.5458 773.166 15.2774L770.57 15.2029L770.52 14.7182L770.483 14.6934ZM760.672 15.6192C754.634 17.9865 750.787 24.262 751.509 31.7305L774 265.429C774.387 269.325 775.901 273.025 778.358 276.078C777.155 274.032 776.269 271.816 775.731 269.505C775.505 268.547 775.345 267.576 775.251 266.597L752.76 32.9048C752.038 25.4487 755.25 19.0055 760.654 15.6192" fill="#3E1EC4"/>
<path d="M869.905 18.023C872.997 18.8941 875.822 20.5239 878.122 22.7638C881.65 26.1195 883.858 30.6245 884.347 35.464L906.845 269.156C907.71 278.165 901.939 285.423 893.71 286.218C893.054 286.279 892.395 286.3 891.736 286.28L792.364 283.416C790.493 283.355 788.645 282.99 786.892 282.335C789.743 284.232 793.062 285.307 796.485 285.441L895.857 288.312C896.549 288.331 897.242 288.306 897.93 288.237C899.33 288.108 900.705 287.781 902.014 287.268C907.666 283.782 911.053 277.103 910.306 269.33L887.833 35.6255C887.493 32.167 886.403 28.8236 884.64 25.827C883.795 24.7506 882.849 23.7581 881.813 22.8632C878.524 19.9241 874.316 18.2136 869.905 18.023ZM763.785 11.0951C753.893 12.0519 746.977 20.7445 748.004 31.5247L770.502 265.217C771.096 271.042 773.764 276.461 778.022 280.489C781.89 284.318 787.02 286.612 792.458 286.945C789.103 286.064 786 284.415 783.394 282.129C781.389 280.384 779.682 278.326 778.339 276.034C775.882 272.981 774.368 269.281 773.981 265.384L751.49 31.6863C750.768 24.2302 754.603 17.9422 760.653 15.5749C762.873 14.1871 765.386 13.336 767.993 13.0896C768.765 13.0167 769.54 12.9939 770.315 13.0212L772.805 13.0896C772.802 13.0461 772.802 13.0025 772.805 12.9591L860.175 15.4879C860.175 15.5252 860.175 15.5687 860.175 15.6122L869.662 15.8856C871.977 15.9609 874.262 16.4338 876.416 17.2836C873.163 15.1997 869.41 14.0259 865.547 13.8849L766.169 11.0143C765.373 10.9941 764.577 11.0211 763.785 11.0951Z" fill="#52D2BC"/>
<path d="M773.129 15.2334C774.636 22.5018 779.392 28.6822 786.04 32.0095C785.498 31.6119 784.969 31.1894 784.459 30.7668C780.395 27.2466 777.542 22.541 776.304 17.3148C776.15 16.6562 776.026 15.9914 775.93 15.3203L773.129 15.2396V15.2334ZM772.799 12.9779C772.796 13.0213 772.796 13.0649 772.799 13.1084L776.708 13.2202C776.999 13.2343 777.274 13.3561 777.48 13.562C777.698 13.7662 777.835 14.0419 777.866 14.3386C777.957 15.2733 778.109 16.2011 778.321 17.116C779.437 21.8216 782.004 26.0592 785.66 29.2321C788.642 31.8598 792.313 33.5841 796.243 34.2028L842.446 35.5387C843.223 35.562 844 35.535 844.774 35.458C853.732 34.5943 860.187 27.2314 860.262 17.7436L831.415 16.911C830.853 16.8778 830.384 16.4728 830.269 15.923V15.8174C830.228 15.5737 830.291 15.324 830.442 15.1282C830.593 14.9325 830.82 14.8085 831.066 14.786H831.191L860.193 15.6248C860.193 15.5813 860.193 15.5378 860.193 15.5005L772.793 12.9717" fill="#52D2BC"/>
<path d="M772.425 11.213L772.363 10.629L772.245 9.57271L772.363 10.629L772.425 11.213L772.481 11.6977L775.077 11.7723L777.878 11.853C777.97 12.5241 778.094 13.1889 778.252 13.8475C779.491 19.0737 782.343 23.7793 786.407 27.2995C786.917 27.7407 787.446 28.1632 787.988 28.5422C791.632 31.2909 796.03 32.8626 800.594 33.0469L848.528 34.4325C849.358 34.4569 850.19 34.4299 851.018 34.3517C860.872 33.3949 867.825 25.0316 867.271 14.4129L871.853 14.5434C876.262 14.7354 880.468 16.4458 883.756 19.3837C884.789 20.2801 885.736 21.2725 886.582 22.3474C888.529 24.8045 889.908 27.6602 890.622 30.7107C890.823 31.5697 890.965 32.4417 891.045 33.3203L913.543 267.012C914.296 274.804 910.268 281.303 903.981 283.788C902.672 284.302 901.298 284.628 899.897 284.758C899.209 284.827 898.516 284.851 897.824 284.832L798.453 281.962C795.029 281.828 791.709 280.753 788.86 278.855C788.048 278.329 787.274 277.748 786.544 277.115C783.13 274.145 780.735 270.181 779.696 265.782C779.498 264.923 779.358 264.051 779.279 263.172L756.781 29.4804C755.873 20.1044 761.88 12.5676 770.427 11.7474C771.114 11.6838 771.804 11.661 772.494 11.6791L772.438 11.1944L772.425 11.213ZM769.948 9.62242C767.341 9.86888 764.827 10.72 762.608 12.1078C757.205 15.4941 753.993 21.9187 754.715 29.3934L777.206 263.085C777.301 264.064 777.459 265.035 777.679 265.993C778.209 268.294 779.079 270.504 780.263 272.548C781.604 274.841 783.311 276.9 785.317 278.644C787.922 280.932 791.025 282.581 794.381 283.459C795.785 283.825 797.226 284.033 798.677 284.08L898.049 286.951C898.821 286.974 899.595 286.947 900.364 286.87C909.951 285.938 916.606 277.55 915.603 267.112L893.112 33.4259C893.019 32.4489 892.859 31.4794 892.633 30.5243C891.469 25.6006 888.781 21.1678 884.951 17.8552C882.996 16.1442 880.762 14.7803 878.346 13.8227C876.192 12.9735 873.907 12.5006 871.592 12.4247L862.105 12.1513L833.095 11.3125H832.977C832.731 11.335 832.505 11.459 832.353 11.6547C832.202 11.8504 832.139 12.1001 832.18 12.3439V12.4495C832.295 12.9993 832.764 13.4042 833.326 13.4374L862.173 14.27L865.149 14.3508C865.572 23.8697 859.291 31.3817 850.488 32.2267C849.754 32.2985 849.016 32.3234 848.279 32.3013L800.308 30.9157C799.587 30.8976 798.867 30.8354 798.154 30.7293C794.224 30.1106 790.553 28.3862 787.571 25.7586C783.926 22.5845 781.369 18.3491 780.263 13.6487C780.051 12.7338 779.899 11.806 779.808 10.8713C779.777 10.5746 779.64 10.2989 779.422 10.0946C779.217 9.88881 778.941 9.76696 778.65 9.7529L774.741 9.64106L772.251 9.57271C771.476 9.54535 770.701 9.56818 769.929 9.64106" fill="#FF9EAF"/>
<path d="M787.982 203.804L789.75 222.176L883.613 224.879L881.844 206.506L787.982 203.804Z" fill="#5CBEFF"/>
<path d="M773.154 49.7354L774.038 58.9249L867.901 61.6279L867.017 52.4448L773.154 49.7354Z" fill="#BBC4EF"/>
<path d="M790.659 231.608L792.433 249.975L886.289 252.684L884.521 234.317L790.659 231.608Z" fill="#F9879A"/>
<path d="M910.595 79.0532C907.107 78.4043 903.557 77.7554 900.026 78.1066C892.709 78.8329 886.076 84.4526 884.907 91.4118C883.738 98.371 888.55 105.925 895.668 107.694C897.823 108.136 900.024 108.336 902.227 108.289C903.706 108.399 905.194 108.27 906.629 107.908C907.993 107.408 909.256 106.683 910.359 105.765C912.951 103.824 915.481 101.717 917.197 99.0318C921.885 91.8285 919.927 80.7915 910.595 79.0532ZM898.775 131.609C896.344 134.106 893.871 136.603 892.253 139.724C888.849 146.191 889.81 155.024 894.85 160.161C899.89 165.298 908.689 165.885 914.026 161.091C915.569 159.59 916.941 157.903 918.111 156.066C919.009 154.912 919.719 153.608 920.21 152.208C920.546 150.78 920.644 149.302 920.501 147.839C920.329 144.543 919.991 141.191 918.722 138.151C915.378 129.992 905.298 124.974 898.775 131.609ZM898.812 194.202C899.434 197.919 901.605 201.636 905.121 203.024C906.042 203.389 905.177 202.33 905.618 203.216C906.297 204.572 906.981 216.107 906.981 216.789C906.981 219.409 916.532 215.389 918.939 214.311L931.632 208.735C934.121 207.658 936.61 206.511 938.364 204.467C941.419 200.849 941.071 195.516 940.05 190.907C938.986 186.087 937.325 181.292 934.245 177.433C931.165 173.573 926.493 170.742 921.54 170.804C917.701 170.848 914.074 172.582 910.826 174.62C902.887 179.62 897.113 184.117 898.812 194.202Z" fill="white"/>
<path opacity="0.18" d="M903.108 202.171C903.336 202.378 903.571 202.565 903.811 202.732C903.881 202.779 903.953 202.812 904.027 202.833C903.711 202.603 903.401 202.382 903.108 202.171Z" fill="#2B0FD3"/>
<path opacity="0.48" d="M931.328 208.03L932.509 207.453C926.583 207.641 915.237 207.192 905.864 202.041C906.528 203.508 907.198 215.981 907.198 216.718C907.198 219.551 916.546 215.204 918.903 214.038L931.328 208.03Z" fill="#2B0FD3"/>
<path d="M913.156 213.006C920.151 211.201 928.011 212.198 933.823 216.446C939.635 220.694 942.968 228.351 941.241 235.318C940.337 238.971 938.187 242.21 935.853 245.168C933.956 247.555 931.028 251.095 927.373 255.33C925.848 254.378 924.293 253.451 922.743 252.505C916.362 248.557 914.99 247.411 908.198 244.127C907.928 243.996 907.646 243.887 907.357 243.802C907.21 243.114 906.902 242.471 906.459 241.922C905.485 240.757 900.192 237.899 899.098 236.853C896.233 234.115 896.164 229.478 897.574 225.794C900.066 219.309 906.364 214.754 913.156 213.006Z" fill="white"/>
<path d="M407.98 374.946C407.911 367.191 401.527 371.224 401.527 371.224C401.527 371.224 395.628 373.395 392.454 378.11C389.281 382.825 376.767 394.11 376.767 394.116L346.747 414.936L281.086 612.217C299.717 611.597 318.31 611.659 336.941 612.577C356.565 613.586 376.169 614.556 395.752 615.487C405.887 527.126 406.57 425.253 407.98 415.209C409.787 402.379 408.048 382.701 407.98 374.946Z" fill="#F9879A"/>
<path d="M407.611 373.51C407.54 365.104 400.962 369.475 400.962 369.475C400.962 369.475 394.883 371.828 391.613 376.939C390.23 379.104 387.133 382.541 383.991 385.795C383.991 385.795 392.003 379.562 395.203 380.234C398.402 380.907 399.042 382.924 403.522 382.924C405.084 382.859 406.597 382.324 407.88 381.384C407.739 378.217 407.63 375.493 407.611 373.51Z" fill="#52D2BC"/>
<path d="M368.372 394.982L344.924 412.155L281.086 609.055" stroke="white" stroke-width="3" stroke-linecap="round" stroke-linejoin="round"/>
<path opacity="0.18" d="M308.433 570.879C321.117 557.309 322.24 536.629 311.098 521.772L291.193 581.492C297.792 579.564 303.747 575.897 308.433 570.879Z" fill="#6534FF"/>
<path d="M471.276 501.561C475.336 501.561 478.626 498.27 478.626 494.21C478.626 490.151 475.336 486.86 471.276 486.86C467.217 486.86 463.926 490.151 463.926 494.21C463.926 498.27 467.217 501.561 471.276 501.561Z" fill="#D3637B"/>
<path d="M468.52 528.204C472.579 528.204 475.87 524.913 475.87 520.854C475.87 516.795 472.579 513.504 468.52 513.504C464.46 513.504 461.169 516.795 461.169 520.854C461.169 524.913 464.46 528.204 468.52 528.204Z" fill="#D3637B"/>
<path d="M463.007 556.686C467.066 556.686 470.357 553.395 470.357 549.336C470.357 545.276 467.066 541.985 463.007 541.985C458.947 541.985 455.657 545.276 455.657 549.336C455.657 553.395 458.947 556.686 463.007 556.686Z" fill="#D3637B"/>
<path d="M471.276 498.804C475.336 498.804 478.626 495.513 478.626 491.454C478.626 487.394 475.336 484.104 471.276 484.104C467.217 484.104 463.926 487.394 463.926 491.454C463.926 495.513 467.217 498.804 471.276 498.804Z" fill="#6535FF"/>
<path d="M466.682 526.366C470.742 526.366 474.032 523.076 474.032 519.016C474.032 514.957 470.742 511.666 466.682 511.666C462.623 511.666 459.332 514.957 459.332 519.016C459.332 523.076 462.623 526.366 466.682 526.366Z" fill="#6535FF"/>
<path d="M462.088 553.929C466.148 553.929 469.438 550.638 469.438 546.579C469.438 542.519 466.148 539.229 462.088 539.229C458.029 539.229 454.738 542.519 454.738 546.579C454.738 550.638 458.029 553.929 462.088 553.929Z" fill="#6535FF"/>
<path d="M414.77 313.213C420.606 313.213 425.337 307.66 425.337 300.81C425.337 293.959 420.606 288.406 414.77 288.406C408.935 288.406 404.204 293.959 404.204 300.81C404.204 307.66 408.935 313.213 414.77 313.213Z" fill="white"/>
<path opacity="0.46" d="M414.912 313.213C416.617 313.205 418.286 312.741 419.737 311.873C420.397 309.169 421.327 306.535 422.515 304.008C423.422 302.067 424.442 300.072 425.337 298.046C424.247 292.538 420.002 288.406 414.912 288.406C409.004 288.406 404.204 293.958 404.204 300.807C404.206 301.421 404.248 302.034 404.33 302.643C404.603 303.793 404.895 304.932 405.206 306.058C406.919 310.269 410.616 313.213 414.912 313.213Z" fill="#9289FF"/>
<path d="M463.01 281.056C462.949 284.677 463.75 288.256 465.342 291.468C467.289 295.266 469.651 296.791 469.423 299.431C469.208 301.955 466.759 303.798 464.759 304.944" stroke="#F9879A" stroke-width="3" stroke-linecap="round" stroke-linejoin="round"/>
<path d="M714.756 253.493C714.756 253.493 676.519 257.696 691.656 308.619" stroke="#3E1EC4" stroke-width="4.38" stroke-linecap="round" stroke-linejoin="round"/>
<path d="M547.536 394.982C552.457 393.374 559.681 390.834 568.176 387.159C587.445 378.808 600.32 370.172 606.801 366.05C619.545 357.91 638.67 347.294 666.06 337.099M707.405 339.856L762.533 315.968" stroke="white" stroke-width="3" stroke-linecap="round" stroke-linejoin="round"/>
<path opacity="0.18" d="M612.77 309.95C612.776 304.752 611.694 299.608 609.591 294.837C587.656 307.162 563.521 320.33 542.023 331.921C551.79 345.531 569.421 351.366 585.599 346.342C601.776 341.318 612.77 326.593 612.77 309.95Z" fill="#6534FF"/>
<path d="M446.469 525.448L427.174 617.325" stroke="#6534FF" stroke-width="3.29" stroke-linecap="round" stroke-linejoin="round"/>
<path d="M900.351 100.059C893.131 97.3486 891.866 88.2929 897.187 82.6025" stroke="#3E1EC4" stroke-width="3.96" stroke-linecap="round" stroke-linejoin="round"/>
<mask id="path-72-inside-1" fill="white">
<path d="M906.783 158.86C904.882 158.342 903.176 157.276 901.879 155.795C900.406 154.082 899.545 151.928 899.432 149.672"/>
</mask>
<path d="M906.783 158.86C904.882 158.342 903.176 157.276 901.879 155.795C900.406 154.082 899.545 151.928 899.432 149.672" fill="#B1AFFF"/>
<path d="M901.879 155.795L901.12 156.447L901.127 156.454L901.879 155.795ZM907.046 157.895C905.334 157.428 903.799 156.469 902.631 155.136L901.127 156.454C902.554 158.083 904.43 159.255 906.52 159.824L907.046 157.895ZM902.637 155.143C901.309 153.598 900.533 151.656 900.431 149.622L898.434 149.722C898.557 152.199 899.503 154.565 901.12 156.447L902.637 155.143Z" fill="#B1AFFF" mask="url(#path-72-inside-1)"/>
<path fill-rule="evenodd" clip-rule="evenodd" d="M904.518 186.423C903.2 189.974 904.625 194.085 907.702 195.611L904.518 186.423ZM905.864 221.336C903.227 224.579 902.384 229.738 903.762 234.199L905.864 221.336Z" fill="#B1AFFF"/>
<path d="M905.864 221.336C903.227 224.579 902.384 229.738 903.762 234.199M904.518 186.423C903.2 189.974 904.625 194.085 907.702 195.611L904.518 186.423Z" stroke="#B1AFFF" stroke-width="3.96" stroke-linecap="round" stroke-linejoin="round"/>
<path d="M533.543 541.067C533.543 541.067 534.34 529.382 532.835 522.691" stroke="#6534FF" stroke-width="3.29" stroke-linecap="round" stroke-linejoin="round"/>
<path d="M374.198 527.807C377.592 507.073 390.795 489.452 399.022 470.108C402.429 462.058 404.984 453.676 406.645 445.098C407.205 428.545 407.56 417.365 407.984 414.368C408.183 412.96 408.333 411.465 408.451 409.914C408.376 409.033 408.301 408.158 408.202 407.277L408.607 407.544C408.918 401.724 408.8 395.303 408.607 389.471C401.89 393.018 396.232 398.268 392.203 404.69C386.666 413.612 384.474 424.5 377.748 432.578C368.406 443.746 351.448 448.287 345.83 461.738C343.376 467.607 343.613 474.215 342.168 480.407C340.605 487.095 337.13 493.144 334.234 499.367C329.208 510.162 325.87 521.659 322.912 533.193C316.348 558.771 311.583 584.774 308.65 611.013C318.008 611.066 327.373 611.321 336.744 611.776L355.602 612.731C363.885 598.759 370.692 584.061 372.529 568.06C374.067 554.703 372.024 541.078 374.198 527.807Z" fill="#F87588"/>
<path d="M352.995 447L319 589.409" stroke="white" stroke-width="3.29" stroke-linecap="round" stroke-linejoin="round"/>
<path d="M416.422 276.462C415.866 273.338 416.161 270.123 417.278 267.15C419.299 261.903 423.368 259.241 425.357 257.933C429.476 255.24 431.447 256.416 433.633 254.522C435.819 252.629 437.632 248.23 435.205 237.874" stroke="#3E1EC4" stroke-width="4.38" stroke-linecap="round" stroke-linejoin="round"/>
<path d="M759.989 135.288C774.285 131.999 785.882 144.044 787.219 142.114C789.119 139.352 768.486 110.691 739.566 111.088C737.994 111.088 712.293 111.764 708.005 126.601C704.137 139.985 719.806 157.627 731.521 157.006C742.933 156.411 744.542 138.844 759.989 135.288ZM773.545 91.4128C772.98 93.4454 753.588 94.7055 742.158 82.2248C733.83 73.1255 730.069 57.0925 736.073 51.7418C741.307 47.0687 754.147 50.3994 755.962 56.0603C757.696 61.4363 748.392 65.4256 748.989 72.7139C749.94 84.1941 774.198 89.0635 773.545 91.4128Z" fill="#FCCDD3"/>
<path d="M734.963 94.195C735.495 98.8354 699.522 116.488 673.227 101.475C671.408 100.441 652.626 89.404 654.21 74.8556C655.825 60.0752 677.726 48.4678 690.041 53.4594C702.82 58.6391 699.324 79.3079 716.825 89.103C726.627 94.5963 734.716 92.0127 734.963 94.195Z" fill="#9289FF"/>
<path d="M660.547 71.5771C660.547 71.5771 664.932 105.928 715.674 99.1808" stroke="#FCCDD3" stroke-width="3" stroke-linecap="round" stroke-linejoin="round"/>
<path d="M727.619 109.254C727.619 109.254 698.217 108.029 698.217 136.809" stroke="white" stroke-width="3" stroke-linecap="round" stroke-linejoin="round"/>
<path d="M562.5 95C566.642 95 570 91.6421 570 87.5C570 83.3579 566.642 80 562.5 80C558.358 80 555 83.3579 555 87.5C555 91.6421 558.358 95 562.5 95Z" fill="#FFBAC6"/>
<path d="M116 395C121.523 395 126 390.523 126 385C126 379.477 121.523 375 116 375C110.477 375 106 379.477 106 385C106 390.523 110.477 395 116 395Z" fill="#9289FF"/>
<path d="M632.891 237.782C636.697 237.782 639.782 234.696 639.782 230.891C639.782 227.085 636.697 224 632.891 224C629.085 224 626 227.085 626 230.891C626 234.696 629.085 237.782 632.891 237.782Z" fill="#FFBAC6"/>
<path d="M919.187 470.322C922.992 470.322 926.078 467.236 926.078 463.431C926.078 459.625 922.992 456.54 919.187 456.54C915.381 456.54 912.296 459.625 912.296 463.431C912.296 467.236 915.381 470.322 919.187 470.322Z" fill="#52D2BC"/>
<path d="M956.857 451.947C960.663 451.947 963.748 448.861 963.748 445.056C963.748 441.25 960.663 438.165 956.857 438.165C953.051 438.165 949.966 441.25 949.966 445.056C949.966 448.861 953.051 451.947 956.857 451.947Z" fill="white"/>
<path d="M964.207 38.5012C968.013 38.5012 971.098 35.4161 971.098 31.6105C971.098 27.8048 968.013 24.7197 964.207 24.7197C960.401 24.7197 957.316 27.8048 957.316 31.6105C957.316 35.4161 960.401 38.5012 964.207 38.5012Z" fill="white"/>
<path d="M97.5 345C100.538 345 103 342.538 103 339.5C103 336.462 100.538 334 97.5 334C94.4624 334 92 336.462 92 339.5C92 342.538 94.4624 345 97.5 345Z" fill="#9289FF"/>
<path d="M571 87C577.627 87 583 81.8513 583 75.5C583 69.1487 577.627 64 571 64C564.373 64 559 69.1487 559 75.5C559 81.8513 564.373 87 571 87Z" fill="#62BCF9"/>
<path d="M703.271 472.159C714.18 472.159 723.025 463.315 723.025 452.406C723.025 441.496 714.18 432.652 703.271 432.652C692.361 432.652 683.517 441.496 683.517 452.406C683.517 463.315 692.361 472.159 703.271 472.159Z" fill="#DBF8F3"/>
<path opacity="0.32" d="M951.598 404.145V377.508C951.602 375.064 950.29 372.805 948.158 371.585L924.93 358.264C922.805 357.045 920.187 357.045 918.062 358.264L894.84 371.585C892.708 372.805 891.396 375.064 891.4 377.508V404.176C891.393 406.622 892.706 408.884 894.84 410.105L918.068 423.421C920.193 424.639 922.811 424.639 924.936 423.421L948.164 410.105C950.305 408.877 951.617 406.601 951.598 404.145Z" fill="#6534FF"/>
<path d="M952.998 401.38V374.747C953.002 372.303 951.69 370.043 949.559 368.823L926.336 355.473C924.211 354.254 921.593 354.254 919.469 355.473L896.246 368.798C894.112 370.017 892.797 372.277 892.8 374.723V401.38C892.797 403.825 894.112 406.086 896.246 407.304L919.469 420.629C921.593 421.848 924.211 421.848 926.336 420.629L949.559 407.304C951.69 406.084 953.002 403.824 952.998 401.38Z" fill="#FCCDD3"/>
<path d="M952.998 373.449C953.002 370.992 951.691 368.72 949.56 367.493L926.344 354.083C924.22 352.858 921.603 352.858 919.479 354.083L896.245 367.493C894.111 368.718 892.797 370.99 892.8 373.449V400.238C892.797 402.696 894.111 404.969 896.245 406.194" stroke="#6535FF" stroke-width="1.51" stroke-linecap="round" stroke-linejoin="round"/>
<path d="M941.785 392.908L944.599 388.052L941.785 383.195V377.585L936.911 374.78L934.097 369.924H928.475L923.603 367.119L918.729 369.924H913.101L910.287 374.78L905.413 377.585V383.195L902.599 388.052L905.413 392.908V398.518L910.287 401.323L913.101 406.179H918.729L923.603 408.984L928.475 406.179H934.097L936.911 401.323L941.785 398.518V392.908Z" fill="white"/>
<path d="M940.399 376.189L935.525 373.389L932.709 368.53H927.08L922.206 365.724L917.332 368.53H911.703L908.889 373.389L904.015 376.189V381.801L901.199 386.66L904.015 391.52V397.132L908.889 399.938L911.703 404.797H917.332" stroke="#6535FF" stroke-width="1.51" stroke-linecap="round" stroke-linejoin="round"/>
<path d="M922.9 395.029C927.153 395.029 930.6 391.593 930.6 387.354C930.6 383.116 927.153 379.68 922.9 379.68C918.647 379.68 915.2 383.116 915.2 387.354C915.2 391.593 918.647 395.029 922.9 395.029Z" fill="#62BCF9"/>
<path d="M919.385 395.029C916.12 392.256 915.659 387.316 918.353 383.965C921.047 380.613 925.889 380.102 929.199 382.821" stroke="#6535FF" stroke-width="1.51" stroke-linecap="round" stroke-linejoin="round"/>
<path opacity="0.32" d="M949.572 368.789L926.441 355.422C925.648 354.964 924.77 354.671 923.861 354.559C923.372 355.592 923.016 356.684 922.804 357.807C922.101 361.615 922.854 365.54 923.929 369.261C925.005 372.981 926.417 376.621 927.038 380.441C927.903 385.681 927.292 391.057 925.272 395.969C922.642 402.355 917.718 407.721 915.877 414.38C915.542 415.6 915.315 416.847 915.199 418.106L919.552 420.628C921.668 421.849 924.275 421.849 926.392 420.628L949.523 407.286C951.655 406.083 952.981 403.832 952.998 401.386V374.721C953.002 372.273 951.696 370.01 949.572 368.789Z" fill="#6534FF"/>
<path d="M927.799 417.358L948.798 404.798" stroke="#6535FF" stroke-width="1.51" stroke-linecap="round" stroke-linejoin="round"/>
<path opacity="0.32" d="M54.0269 489.803L52.2747 486.768L52.1327 483.259C52.0673 481.519 51.0803 479.946 49.5424 479.13L47.1036 477.842L45.7255 475.474C44.8579 473.964 43.2481 473.033 41.5062 473.036H38.0161L34.9143 471.392C33.3759 470.579 31.5203 470.647 30.0462 471.572L27.7116 473.036H24.9555C23.2126 473.035 21.602 473.964 20.7314 475.474L18.984 478.495L16.0101 480.356C14.5384 481.28 13.6676 482.915 13.7228 484.651L13.827 487.402L12.449 489.77C11.5777 491.279 11.5777 493.138 12.449 494.647L14.2011 497.682L14.329 501.224C14.3944 502.964 15.3813 504.537 16.9193 505.354L19.3534 506.642L20.7314 509.009C21.602 510.519 23.2126 511.449 24.9555 511.448H27.8631V519.332C27.8641 519.59 28.014 519.825 28.248 519.934C28.482 520.044 28.7582 520.008 28.957 519.843L33.0911 516.396C33.34 516.186 33.7042 516.186 33.953 516.396L37.8645 519.791C38.0624 519.962 38.3415 520.001 38.5789 519.892C38.8162 519.783 38.9682 519.546 38.9679 519.285V511.467H41.5251C43.267 511.469 44.8769 510.538 45.7445 509.028L47.5013 505.988L50.4753 504.127C51.95 503.201 52.8184 501.558 52.753 499.818L52.6536 497.067L54.0316 494.699C54.9088 493.185 54.907 491.316 54.0269 489.803Z" fill="#6534FF"/>
<path d="M39.6873 518.716L35.9058 515.212C35.6656 514.995 35.3139 514.995 35.0736 515.212L31.0818 518.77C30.8898 518.94 30.6232 518.976 30.3972 518.864C30.1712 518.751 30.0265 518.509 30.0255 518.242V508.958C30.0181 508.772 30.0815 508.59 30.2012 508.455C30.321 508.319 30.4869 508.242 30.6611 508.239H40.108C40.4623 508.242 40.7482 508.55 40.7481 508.928V518.213C40.7437 518.479 40.5954 518.718 40.3678 518.826C40.1403 518.934 39.8749 518.891 39.6873 518.716Z" fill="#62BCF9"/>
<path opacity="0.32" d="M35.9221 512.514C39.1795 512.514 41.8202 509.882 41.8202 506.635C41.8202 503.389 39.1795 500.757 35.9221 500.757C32.6647 500.757 30.0241 503.389 30.0241 506.635C30.0241 509.882 32.6647 512.514 35.9221 512.514Z" fill="#6534FF"/>
<path d="M56.1725 487.676L54.4199 484.648L54.292 481.148C54.2266 479.412 53.2394 477.843 51.701 477.028L49.2664 475.744L47.888 473.382C47.0172 471.876 45.4061 470.948 43.6629 470.949H40.153L37.0552 469.253C35.5147 468.442 33.6574 468.51 32.1811 469.433L29.8459 470.907H27.0892C25.3473 470.906 23.738 471.834 22.8688 473.339L21.1115 476.367L18.1368 478.228C16.661 479.151 15.7921 480.791 15.8585 482.527L15.9722 485.271L14.5938 487.633C13.7223 489.138 13.7223 490.993 14.5938 492.499L16.3464 495.526L16.4458 499.046C16.5084 500.781 17.4942 502.351 19.0321 503.165L21.4715 504.449L22.8498 506.811C23.7205 508.315 25.3289 509.242 27.0702 509.244H30.5801L33.6827 510.878C35.2202 511.693 37.0772 511.627 38.552 510.704L40.8872 509.244H43.6439C45.3867 509.243 46.9968 508.316 47.869 506.811L49.6216 503.779L52.5963 501.922C54.071 500.997 54.9407 499.36 54.8794 497.624L54.813 494.893L56.1914 492.532C57.0534 491.025 57.0462 489.175 56.1725 487.676Z" fill="#BBC4EF"/>
<path d="M53.6159 480.028C53.5508 478.292 52.554 476.721 51.0004 475.908L48.5427 474.618L47.1513 472.255C46.2703 470.751 44.6447 469.825 42.8862 469.826H39.3431L36.216 468.186C34.6618 467.373 32.7869 467.44 31.2958 468.361L28.9385 469.826H26.1557C24.4025 469.822 22.7796 470.74 21.8954 472.236L20.1214 475.27L17.1234 477.132C15.6318 478.052 14.7525 479.691 14.8187 481.427L14.9191 484.177L13.5277 486.54C12.6478 488.044 12.6478 489.898 13.5277 491.403L15.2969 494.455L15.426 497.952C15.4891 499.688 16.4842 501.259 18.0367 502.073L20.4992 503.358L21.8906 505.721C22.768 507.227 24.3926 508.155 26.1509 508.154H29.694L32.8259 509.794C34.3829 510.625 36.2716 510.563 37.77 509.633" stroke="#6534FF" stroke-width="1.76" stroke-linecap="round" stroke-linejoin="round"/>
<path opacity="0.32" d="M54.4432 484.818L54.3172 481.339C54.2527 479.614 53.28 478.054 51.7641 477.245L49.3651 475.968L48.0069 473.621C47.1489 472.124 45.5614 471.202 43.8437 471.203H40.3852L39.6757 470.827C39.7863 472.274 39.8159 473.725 39.7644 475.175C39.7924 476.959 40.1051 478.865 41.3187 480.166C41.9758 480.768 42.6712 481.326 43.4003 481.837C45.367 483.504 46.3816 486.045 46.1073 488.617C45.8413 490.875 44.5811 492.955 44.5111 495.227C44.4364 497.622 45.6826 499.885 45.748 502.27C45.7886 503.749 45.3746 505.205 44.5624 506.439C43.8997 507.444 42.9849 508.28 42.3688 509.308H43.8437C45.5609 509.307 47.1475 508.386 48.0069 506.89L49.7339 503.876L52.6649 502.031C54.1181 501.111 54.9751 499.484 54.9146 497.758L54.8306 495.026L56.1888 492.678C57.0475 491.182 57.0475 489.338 56.1888 487.842L54.4432 484.818Z" fill="#6534FF"/>
<path opacity="0.32" d="M35.3871 506.101C43.678 506.101 50.3991 505.144 50.3991 503.963C50.3991 502.782 43.678 501.825 35.3871 501.825C27.0962 501.825 20.3751 502.782 20.3751 503.963C20.3751 505.144 27.0962 506.101 35.3871 506.101Z" fill="#6534FF"/>
<path d="M55.9329 490.81C55.4967 491.278 54.8752 491.547 54.2222 491.549H18.6906C18.039 491.547 17.4191 491.278 16.9847 490.81C16.5317 490.316 15.8728 490.044 15.1895 490.069C14.5062 490.094 13.8707 490.413 13.4579 490.939L13.3333 491.101C12.9063 491.644 12.7631 492.346 12.9452 493.005L15.0679 500.63C15.4386 501.965 16.6923 502.893 18.1252 502.894H54.7924C56.2241 502.893 57.4761 501.964 57.8449 500.63L59.9724 493.005C60.1545 492.346 60.0113 491.644 59.5843 491.101L59.4597 490.939C59.0459 490.415 58.4106 490.097 57.728 490.072C57.0453 490.047 56.3868 490.317 55.9329 490.81Z" fill="#62BCF9"/>
<path d="M15.9171 490.808C15.4628 490.314 14.8026 490.043 14.1185 490.069C13.4344 490.095 12.7984 490.415 12.3859 490.942L12.2611 491.099C11.8343 491.642 11.691 492.345 11.8725 493.003L13.9979 500.634C14.3709 501.967 15.6257 502.894 17.0589 502.894H53.7718C55.2051 502.894 56.4599 501.967 56.8328 500.634M18.2294 491.136H31.0972M43.965 502.894H36.4588M31.0972 505.032H33.2418M40.7481 513.583V516.79M22.5187 477.24L30.0249 472.965" stroke="#6534FF" stroke-width="1.76" stroke-linecap="round" stroke-linejoin="round"/>
<path d="M289 222C301.15 222 311 212.15 311 200C311 187.85 301.15 178 289 178C276.85 178 267 187.85 267 200C267 212.15 276.85 222 289 222Z" fill="#FFBAC6"/>
<path d="M301 197C306.523 197 311 192.523 311 187C311 181.477 306.523 177 301 177C295.477 177 291 181.477 291 187C291 192.523 295.477 197 301 197Z" fill="#DBF8F3"/>
<path d="M267.637 213C261.694 201.269 266.135 186.812 277.557 180.708C288.979 174.604 303.057 179.166 309 190.896" stroke="#5CBEFF" stroke-width="2" stroke-linecap="round" stroke-linejoin="round"/>
<path d="M326.567 227.768H318.297L314.163 235.118L318.297 242.468H326.567L330.701 235.118L326.567 227.768Z" fill="#E8EDF6"/>
<path d="M296.479 238.792H292.344L290.274 242.467L292.344 246.142H296.479L298.543 242.467L296.479 238.792Z" fill="#E8EDF6"/>
<path d="M689.117 268.655C675.836 294.101 713.378 370.364 713.378 370.364C714.448 372.357 717.069 376.553 721.473 377.388C724.499 377.951 727.157 376.676 728.965 375.631C762.44 356.249 772.135 314.776 772.135 314.776C772.375 313.748 772.553 312.919 772.639 312.511L760.337 318.08C743.458 359.628 733.536 368.656 727.421 367.642C723.958 367.066 720.864 360.426 714.817 347.165C709.041 334.485 703.431 321.966 699.87 303.643C697.354 290.716 696.339 284.2 698.338 278.042C701.598 268.017 710.954 262.009 720.968 255.579C729.863 249.867 735.479 248.438 735.116 246.915C734.594 244.688 721.725 244.05 710.511 248.84C701.393 252.875 693.866 259.845 689.117 268.655Z" fill="#52D2BC"/>
<path d="M717.512 358.231L714.755 365.582M715.674 255.33L711.08 252.573L715.674 255.33ZM699.136 270.03L691.786 269.111L699.136 270.03ZM696.38 293.918L691.786 294.837L696.38 293.918ZM698.217 314.131L695.461 316.887L698.217 314.131ZM706.486 335.262L703.73 338.019L706.486 335.262Z" stroke="#3E1EC4" stroke-width="3.96" stroke-linecap="round" stroke-linejoin="round"/>
<path opacity="0.18" d="M772.639 311.375L760.349 316.987C743.627 358.487 733.739 367.783 727.619 366.941C730.622 368.585 734.005 369.379 737.414 369.242C764.103 348.299 772.135 313.657 772.135 313.657C772.375 312.622 772.553 311.787 772.639 311.375Z" fill="#6534FF"/>
<path d="M415.23 313.211C417.26 313.211 418.905 311.566 418.905 309.536C418.905 307.507 417.26 305.861 415.23 305.861C413.2 305.861 411.555 307.507 411.555 309.536C411.555 311.566 413.2 313.211 415.23 313.211Z" fill="#6535FF"/>
<path d="M903.108 441.84C898.085 439.98 882.568 433.651 872.61 417.044C867.778 408.945 865.001 399.796 864.518 390.389" stroke="#8076FA" stroke-width="3" stroke-linecap="round" stroke-linejoin="round" stroke-dasharray="9 9"/>
<path d="M941.697 288.405C946.072 286.911 967.399 279.15 976.394 258.03C979.213 251.348 980.528 244.164 980.249 236.954M723.025 168.461C722.134 168.85 708.601 174.533 696.059 166.64C684.834 159.56 683.636 147.429 683.517 145.996" stroke="white" stroke-width="3" stroke-linecap="round" stroke-linejoin="round" stroke-dasharray="9 9"/>
<path d="M72 452.5C81.7387 453.66 91.592 451.678 100.138 446.838C107.159 442.778 112.984 436.917 117.021 429.854M531.916 304.024C556.147 299.037 624.635 281.393 664.877 219.859C672.619 207.996 678.879 195.223 683.517 181.828M678.923 411.52C692.286 404.861 724.278 391.457 761.195 401.135C769.642 403.355 777.803 406.624 785.502 410.871" stroke="#D5DCF3" stroke-width="3" stroke-linecap="round" stroke-linejoin="round" stroke-dasharray="9 9"/>
<path d="M944 330.271L944.083 319.503C944.093 318.667 944.806 317.995 945.678 318L954.432 318.063C954.851 318.065 955.252 318.227 955.546 318.513C955.84 318.799 956.003 319.185 956 319.587L955.917 330.355C955.915 330.613 955.754 330.846 955.506 330.948C955.258 331.049 954.97 331 954.774 330.822L950.444 326.932C950.184 326.703 949.785 326.703 949.526 326.932L945.133 330.759C944.933 330.93 944.646 330.972 944.402 330.866C944.157 330.761 944 330.528 944 330.271Z" fill="#FCCDD3"/>
<path d="M541 215.214L541.09 203.618C541.101 202.718 541.873 201.995 542.818 202L552.301 202.068C552.755 202.07 553.189 202.245 553.508 202.553C553.827 202.861 554.004 203.277 554 203.709L553.91 215.305C553.908 215.584 553.733 215.835 553.464 215.944C553.196 216.053 552.884 216 552.672 215.808L547.981 211.62C547.7 211.372 547.267 211.372 546.986 211.62L542.228 215.74C542.011 215.924 541.7 215.97 541.435 215.856C541.17 215.743 541 215.491 541 215.214Z" fill="#8076FA"/>
<path d="M79 370.158L79.0974 357.734C79.1086 356.769 79.9398 355.995 80.9575 356L91.1705 356.073C91.6593 356.075 92.127 356.262 92.4702 356.592C92.8134 356.922 93.004 357.368 92.9999 357.831L92.9026 370.255C92.9011 370.554 92.7127 370.823 92.4233 370.94C92.1338 371.057 91.7985 371 91.5702 370.795L86.5175 366.307C86.2152 366.042 85.7489 366.042 85.4465 366.307L80.3221 370.722C80.0882 370.919 79.754 370.967 79.4686 370.846C79.1831 370.724 78.9997 370.455 79 370.158Z" fill="#FFBAC6"/>
<path d="M499 76.4564L499.106 62.013C499.11 61.4745 499.33 60.9596 499.719 60.5819C500.108 60.2042 500.633 59.9949 501.178 60.0001L512.574 60.0851C513.12 60.0885 513.642 60.306 514.026 60.6896C514.409 61.0732 514.623 61.5916 514.619 62.1306L514.507 76.5675C514.515 76.9176 514.309 77.2383 513.986 77.381C513.662 77.5238 513.283 77.4607 513.024 77.221L507.386 71.9927C507.047 71.6861 506.527 71.6861 506.188 71.9927L500.476 77.123C500.216 77.36 499.836 77.4194 499.514 77.2739C499.192 77.1283 498.989 76.8061 499 76.4564Z" fill="#9289FF"/>
<path d="M744.157 237.278C744.157 237.278 714.943 227.754 685.107 248.687C655.271 269.62 526.982 338.372 522.128 342.602C517.273 346.832 513.077 345.42 513.077 345.42C513.077 345.42 501.734 343.062 498.626 345.55C496.785 347.013 495.583 349.134 495.275 351.466L471.276 353.637" stroke="white" stroke-width="3" stroke-linecap="round" stroke-linejoin="round"/>
<path opacity="0.3" d="M734.05 243.17C734.05 243.17 723.482 238.204 708.562 245.653C693.642 253.102 672.506 266.138 688.047 314.557C703.589 362.976 717.265 374.77 717.265 374.77M712.918 382.12C682.435 390.738 652.026 399.962 622.158 410.47C603.86 416.903 586.04 422.654 571.401 436.09C554.805 451.323 544.571 472 541.104 494.21M407.88 389.47C407.88 389.47 400.129 554.777 399.61 578.736" stroke="white" stroke-width="3.29" stroke-linecap="round" stroke-linejoin="round"/>
<path d="M388.938 245.224C389.774 242.127 387.991 238.969 387.7 235.782C387.224 230.401 391.773 225.019 397.337 224.421C399.138 224.23 400.97 224.469 402.758 224.206C404.547 223.943 406.416 223.01 406.961 221.336M499.759 265.948C497.709 266.803 495.27 266.204 493.328 265.157C491.385 264.111 489.732 262.663 487.79 261.622C484.483 259.878 480.579 259.412 476.789 259.005" stroke="#3E1EC4" stroke-width="4.38" stroke-linecap="round" stroke-linejoin="round"/>
<path d="M637.577 468.484H587.962V475.834H637.577V468.484Z" fill="#9289FF"/>
<path d="M621.039 483.185H587.044V490.535H621.039V483.185Z" fill="#9289FF"/>
<path d="M948.128 44.9326H914.133V52.2827H948.128V44.9326Z" fill="#9289FF"/>
<path d="M849.818 387.633H815.823V394.983H849.818V387.633Z" fill="#9289FF"/>
<path d="M849.818 375.688H815.823V383.039H849.818V375.688Z" fill="#9289FF"/>
<path d="M849.818 362.826H815.823V370.176H849.818V362.826Z" fill="#9289FF"/>
<path d="M830.542 465.728C829.865 465.734 829.208 465.502 828.689 465.073L819.592 457.51C818.95 456.976 818.579 456.188 818.579 455.358V439.254C818.586 438.74 818.917 438.286 819.406 438.116C826.622 435.731 834.425 435.731 841.64 438.116C842.13 438.286 842.46 438.74 842.467 439.254V455.376C842.467 456.207 842.097 456.994 841.455 457.529L832.357 465.092C831.845 465.506 831.203 465.731 830.542 465.728Z" fill="#6534FF"/>
<path d="M832.319 453.037L828.686 451.027L832.267 455.621L836.036 451.148L832.319 453.037Z" fill="#FCCDD3" stroke="#6535FF" stroke-width="0.14" stroke-linecap="round" stroke-linejoin="round"/>
<path d="M828.691 450.726H828.709L832.358 452.866L836.012 450.856H836.036H836.024L836.036 450.844L832.511 444.597L828.686 450.708L828.703 450.72L828.691 450.726Z" fill="#FCCDD3" stroke="#6535FF" stroke-width="0.14" stroke-linecap="round" stroke-linejoin="round"/>
<path d="M843.68 438.094C836.628 435.738 829 435.738 821.948 438.094C821.036 438.397 820.42 439.247 820.417 440.207V455.638C820.416 456.75 820.91 457.805 821.766 458.516L830.389 465.754C831.791 466.944 833.849 466.944 835.251 465.754L843.881 458.516C844.733 457.802 845.224 456.748 845.224 455.638V440.207C845.221 439.244 844.598 438.391 843.68 438.094ZM844.124 455.638C844.123 456.43 843.772 457.182 843.164 457.69L834.54 464.929C833.543 465.77 832.085 465.77 831.088 464.929L822.41 457.69C821.803 457.181 821.454 456.429 821.456 455.638V440.207C821.454 439.714 821.771 439.275 822.24 439.12C829.069 436.837 836.456 436.837 843.285 439.12C843.757 439.273 844.076 439.712 844.075 440.207L844.124 455.638Z" fill="#FCCDD3"/>
<path opacity="0.44" d="M845.224 456.64V441.099C845.223 440.133 844.621 439.275 843.73 438.97C840.9 437.998 837.957 437.418 834.978 437.245C835.924 438.638 836.581 440.216 836.907 441.881C837.281 443.898 837.48 445.945 837.502 447.998C837.587 449.098 837.543 450.205 837.371 451.295C836.847 453.925 834.895 455.998 833.96 458.494C833.247 460.566 833.091 462.797 833.508 464.953C833.661 465.837 833.872 466.709 834.139 467.564C834.624 467.416 835.074 467.166 835.46 466.83L843.914 459.54C844.746 458.82 845.226 457.758 845.224 456.64Z" fill="#BBC4EF"/>
<path opacity="0.18" d="M822.849 454.703L817.491 453.275C817.076 453.272 816.741 452.946 816.741 452.544V449.916C816.744 449.514 817.082 449.19 817.497 449.19L822.855 450.618C822.982 450.622 823.096 450.696 823.146 450.809C823.196 450.922 823.174 451.053 823.089 451.144L821.16 451.742C821.047 451.861 821.047 452.044 821.16 452.163L823.072 454.183C823.157 454.272 823.181 454.4 823.133 454.512C823.085 454.624 822.974 454.698 822.849 454.703ZM841.901 450.589L847.234 449.19C847.647 449.193 847.98 449.522 847.98 449.926V452.573C847.98 452.768 847.901 452.954 847.759 453.091C847.618 453.228 847.427 453.305 847.228 453.303L841.901 454.702C841.76 454.714 841.628 454.635 841.574 454.508C841.519 454.381 841.555 454.234 841.661 454.145L843.582 452.127C843.695 452.006 843.695 451.82 843.582 451.698L841.684 451.085C841.616 450.996 841.602 450.878 841.647 450.776C841.691 450.674 841.788 450.603 841.901 450.589Z" fill="#070707"/>
<path d="M822.821 452.865H817.488C817.074 452.862 816.741 452.535 816.741 452.132V448.081C816.741 447.887 816.821 447.701 816.962 447.564C817.103 447.428 817.294 447.352 817.493 447.353H822.827C822.966 447.344 823.095 447.423 823.148 447.549C823.201 447.675 823.166 447.82 823.06 447.909L821.14 449.92C821.026 450.041 821.026 450.227 821.14 450.348L823.043 452.371C823.108 452.461 823.119 452.578 823.074 452.679C823.029 452.779 822.933 452.85 822.821 452.865ZM841.872 447.353H847.23C847.43 447.353 847.622 447.43 847.762 447.568C847.903 447.705 847.981 447.892 847.98 448.086V452.137C847.98 452.331 847.9 452.517 847.758 452.654C847.616 452.791 847.424 452.867 847.224 452.865H841.872C841.744 452.864 841.628 452.79 841.576 452.676C841.524 452.563 841.546 452.43 841.632 452.337L843.561 450.331C843.675 450.21 843.675 450.024 843.561 449.903L841.654 447.88C841.566 447.792 841.54 447.662 841.587 447.548C841.634 447.434 841.745 447.357 841.872 447.353Z" fill="#52D2BC"/>
<path d="M846.142 453.784H840.938C840.815 453.781 840.705 453.713 840.656 453.608C840.607 453.504 840.628 453.383 840.71 453.298L842.584 451.446C842.694 451.337 842.694 451.167 842.584 451.058L840.727 449.19M821.152 451.305L823.047 453.249C823.163 453.331 823.204 453.476 823.148 453.602C823.092 453.727 822.952 453.801 822.808 453.781H817.487C817.074 453.778 816.741 453.464 816.741 453.078V449.19L821.152 451.305Z" stroke="#6535FF" stroke-width="0.76" stroke-linecap="round" stroke-linejoin="round"/>
<path d="M823.173 458.377L830.523 464.808" stroke="#BBC4EF" stroke-width="0.76" stroke-linecap="round" stroke-linejoin="round"/>
<path d="M681 29.2144L681.09 17.6184C681.101 16.7181 681.873 15.995 682.818 16L692.301 16.068C692.755 16.0704 693.189 16.2448 693.508 16.5527C693.827 16.8606 694.004 17.2767 694 17.7091L693.91 29.3051C693.908 29.5835 693.733 29.8346 693.464 29.9439C693.196 30.0532 692.884 29.9999 692.672 29.8083L687.981 25.6196C687.7 25.3725 687.267 25.3725 686.986 25.6196L682.228 29.7403C682.011 29.9243 681.7 29.9696 681.435 29.8561C681.17 29.7425 681 29.4913 681 29.2144Z" fill="#5CBEFF"/>
<path opacity="0.32" fill-rule="evenodd" clip-rule="evenodd" d="M898.072 92.4321C897.486 91.2402 896.829 90.0839 896.104 88.9694C893.692 85.6255 892.628 81.513 893.121 77.4353C893.241 75.9808 893.283 74.521 893.246 73.062C893.39 69.5425 891.683 66.1994 888.733 64.2225C887.014 63.0305 885.213 61.9583 883.343 61.0138C880.419 59.5426 878.079 57.1429 876.7 54.1999C875.96 52.6389 875.108 51.1336 874.255 49.6346C872.168 45.9179 869.041 43.9233 864.704 43.8675C862.779 43.8675 860.855 43.7498 858.937 43.7932C855.833 43.855 852.79 42.9371 850.25 41.1729C848.641 40.046 846.967 39.0118 845.236 38.0757C841.839 36.3165 838.411 36.1554 834.958 37.8465C833.66 38.4464 832.404 39.1292 831.197 39.8907C827.612 42.257 823.77 43.4587 819.414 42.9198C817.856 42.7781 816.289 42.7388 814.726 42.8021C811.778 42.73 808.947 43.9391 806.979 46.1099C805.371 47.9958 804.015 50.0776 802.943 52.3044C801.353 55.4023 798.739 57.8698 795.535 59.2979C794.037 59.9855 792.589 60.7784 791.147 61.5899C787.437 63.6836 785.438 66.8118 785.4 71.0922C785.4 72.9939 785.262 74.8956 785.331 76.7973C785.395 79.8201 784.472 82.7829 782.698 85.2466C781.517 86.9097 780.437 88.641 779.464 90.4313C777.805 93.4346 777.714 97.0445 779.22 100.126C779.884 101.573 780.657 102.968 781.533 104.301C783.905 107.617 784.954 111.683 784.479 115.717C784.339 117.303 784.298 118.896 784.353 120.487C784.307 123.682 785.804 126.707 788.383 128.633C790.265 129.979 792.244 131.186 794.306 132.244C796.381 133.421 798.349 134.722 799.596 136.809C801.589 140.136 803.074 143.766 805.575 146.807C805.343 147.228 805.074 147.637 804.873 148.083C800.791 157.144 796.713 166.206 792.639 175.271C791.879 176.784 792.146 178.604 793.31 179.842C794.39 181.088 796.144 181.531 797.697 180.951C802.504 179.458 807.311 177.953 812.112 176.392C812.99 176.107 813.366 176.237 813.754 177.067C815.754 181.546 817.822 186 819.834 190.478C820.592 192.169 821.764 193.136 823.726 193.154C825.478 193.267 827.097 192.229 827.706 190.602C830.213 184.959 832.758 179.31 835.29 173.666C836.405 171.189 837.54 168.711 838.743 166.078C839.007 166.636 839.188 166.989 839.332 167.354C842.5 175.271 845.66 183.187 848.815 191.104C849.279 192.58 850.609 193.627 852.168 193.743C854.099 193.922 855.616 193.297 856.506 191.55C858.737 187.177 860.962 182.797 863.118 178.393C863.6 177.402 864.064 177.154 865.155 177.544C869.605 179.241 874.099 180.833 878.561 182.5C880.441 183.193 882.209 183.169 883.638 181.688C885.067 180.208 884.992 178.387 884.227 176.516C882.002 171.077 879.84 165.62 877.652 160.169C875.722 155.374 873.789 150.584 871.855 145.797C873.002 143.803 874.168 141.821 875.283 139.807C876.731 137.294 878.947 135.299 881.613 134.109C883.256 133.309 884.885 132.473 886.465 131.563C890.156 129.45 892.149 126.31 892.168 122.023C892.168 119.818 892.249 117.606 892.268 115.395C892.27 113.264 892.875 111.176 894.017 109.368C895.174 107.534 896.33 105.699 897.483 103.861C899.814 100.175 900.109 96.3532 898.072 92.4321ZM817.935 149.471C821.965 149.31 825.381 150.654 828.59 152.884C829.718 153.696 830.896 154.436 832.118 155.102C830.896 154.436 829.718 153.696 828.59 152.884C825.362 150.654 821.946 149.31 817.935 149.471L816.788 149.514L817.935 149.471ZM854.287 150.313C853.486 150.352 852.693 150.485 851.924 150.71C852.691 150.486 853.482 150.353 854.281 150.313H854.287ZM860.022 150.4C858.674 150.35 857.327 150.338 855.973 150.313C857.32 150.338 858.668 150.35 860.015 150.4H860.022ZM865.036 150.233C864.264 150.372 863.482 150.449 862.698 150.462C863.48 150.448 864.26 150.372 865.029 150.233H865.036ZM837.145 164.808C833.384 173.084 829.668 181.403 825.939 189.704C825.637 190.62 824.782 191.246 823.808 191.265C822.679 191.265 822.065 190.509 821.633 189.561C819.47 184.767 817.245 179.991 815.152 175.172C814.613 173.933 813.999 173.673 812.727 174.094C807.712 175.748 802.698 177.296 797.684 178.913C796.707 179.229 795.754 179.452 794.958 178.622C794.162 177.792 794.262 176.671 794.72 175.655C796.819 170.978 798.944 166.314 801.038 161.637C803.074 157.084 805.08 152.518 807.098 147.953C806.823 147.564 806.452 147.251 806.02 147.043C806.452 147.251 806.823 147.564 807.098 147.953C807.72 148.076 808.298 148.355 808.778 148.765L797.434 174.05C797.289 174.373 797.164 174.707 797.02 175.029C796.785 175.367 796.785 175.813 797.02 176.15C797.371 176.553 797.803 176.435 798.274 176.305C800.962 175.506 803.657 174.732 806.352 173.933C809.047 173.134 811.655 172.39 814.281 171.548C815.196 171.251 815.597 171.461 815.998 172.322C818.248 177.129 820.567 181.911 822.893 186.693C823.168 187.269 823.3 188.081 824.146 188.081C824.992 188.081 825.023 187.307 825.268 186.761C828.966 178.585 832.655 170.41 836.336 162.238C836.418 161.913 836.619 161.63 836.901 161.445C837.645 162.421 837.738 163.739 837.139 164.808H837.145ZM882.441 177.488C882.848 178.498 883.068 179.433 882.221 180.301C881.375 181.168 880.448 181.063 879.401 180.672C874.638 178.907 869.868 177.179 865.098 175.438C862.378 174.447 862.88 174.596 861.814 176.677C859.527 181.125 857.295 185.597 855.058 190.063C854.556 191.06 853.936 191.921 852.676 191.878C851.416 191.835 850.927 190.887 850.514 189.84C846.122 178.752 841.718 167.674 837.302 156.607C836.881 156.59 836.463 156.547 836.048 156.477C836.463 156.547 836.881 156.59 837.302 156.607C837.994 156.538 838.692 156.565 839.376 156.687C839.444 157.029 839.532 157.366 839.64 157.697C843.567 167.583 847.507 177.464 851.46 187.338C851.661 187.839 851.748 188.49 852.544 188.508C853.34 188.527 853.485 187.945 853.748 187.449C856.255 182.766 858.762 178.095 861.231 173.388C861.714 172.452 862.14 172.248 863.162 172.607C868.282 174.416 873.428 176.138 878.567 177.891C879.063 178.064 879.583 178.387 880.059 177.891C880.535 177.395 880.197 176.881 880.015 176.404C879.501 175.042 878.95 173.691 878.411 172.341C875.277 164.466 872.143 156.59 869.009 148.715C869.409 148.221 869.895 147.801 870.445 147.476C870.614 147.259 870.771 147.036 870.927 146.82C870.771 147.036 870.614 147.259 870.445 147.476C874.443 157.482 878.44 167.486 882.434 177.488H882.441Z" fill="#BBC4EF"/>
<path d="M865.301 88.3652H865.189C865.108 88.4041 865.052 88.4809 865.04 88.5698L863.543 95.6066C863.521 95.7188 863.549 95.8348 863.619 95.9251C863.689 96.0153 863.795 96.0709 863.909 96.0778L868.202 96.1336C868.31 96.1274 868.407 96.0666 868.46 95.9724C868.513 95.8783 868.514 95.7637 868.463 95.6686L865.636 88.6194C865.604 88.5403 865.547 88.4732 865.475 88.4272V88.39H865.413H865.301V88.3652ZM881.217 84.23C880.527 84.23 880.304 84.5462 880.422 85.3335C880.571 86.3131 880.633 87.2989 880.732 88.2784C880.832 89.258 880.975 90.4112 881.049 91.4837C881.093 92.1533 881.372 92.3703 881.981 92.3703C883.814 92.3703 885.659 92.3703 887.497 92.4323H887.553C888.597 92.4323 889.082 91.8123 889.001 90.7274C888.883 89.1526 888.746 87.5717 888.51 85.9907C888.494 85.5174 888.287 85.0706 887.936 84.7518C887.585 84.4331 887.12 84.2695 886.646 84.2982C884.888 84.2982 883.13 84.2982 881.372 84.23H881.242H881.217ZM845.322 83.7526C845.043 83.7526 844.788 83.9882 844.614 84.4284C843.807 86.5239 843.055 88.6442 842.309 90.7708C842.266 90.9126 842.235 91.0578 842.216 91.2048C842.216 91.4217 842.216 91.6573 842.179 91.8805C842.217 92.4096 842.354 92.9269 842.583 93.4057L842.726 93.6847C843.838 95.6376 844.962 97.5906 846.074 99.5559C846.298 99.9527 846.54 100.349 847 100.374H847.037C847.484 100.374 847.658 99.9651 847.789 99.5745C848.503 97.634 849.236 95.7058 849.944 93.7653L850.037 93.5049C850.165 93.0091 850.195 92.4931 850.124 91.9859C850.069 91.7565 850.025 91.5271 849.957 91.304C849.906 91.1525 849.844 91.0053 849.77 90.8638C848.596 88.7124 847.41 86.5673 846.161 84.447C845.9 84.0006 845.602 83.7712 845.322 83.7526ZM822.753 83.5108C822.095 83.5108 821.902 83.8332 822.001 84.5586C822.138 85.5443 822.213 86.5239 822.312 87.5097C822.411 88.4954 822.548 89.6424 822.629 90.7026C822.672 91.3226 822.846 91.6511 823.517 91.6511C825.381 91.6511 827.245 91.6883 829.152 91.7069H829.189C830.189 91.7069 830.655 91.087 830.587 90.0578C830.475 88.483 830.326 86.9021 830.108 85.3273C829.953 84.2424 829.363 83.579 828.245 83.5852C826.449 83.5852 824.654 83.5852 822.846 83.5108H822.747H822.753ZM881.068 103.666H880.993C879.931 103.666 879.502 102.91 879.403 101.85C879.086 98.6011 878.744 95.3462 878.415 92.0975C878.086 88.8488 877.794 85.6869 877.409 82.4816C877.297 81.5578 877.533 81.3037 878.272 81.2913H878.446C881.173 81.3781 883.894 81.3719 886.622 81.4153C888.999 81.5067 890.949 83.3258 891.2 85.6869C891.442 87.4787 891.622 89.2766 891.753 91.0746C891.927 93.4677 890.405 95.2408 888.175 95.2656H887.889C886.104 95.2656 884.317 95.2408 882.528 95.1912H882.41C881.788 95.1912 881.577 95.464 881.67 96.2018C881.9 98.0617 882.08 99.8845 882.236 101.72C882.31 102.681 882.236 103.642 881.093 103.654L881.068 103.666ZM861.642 103.443C861.472 103.44 861.303 103.415 861.139 103.369C860.12 103.096 859.853 102.247 859.996 101.329C860.356 99.1219 860.772 96.9334 861.164 94.7324C861.872 90.7026 862.592 86.6727 863.301 82.6366C863.412 82.0166 863.518 81.3409 864.17 81.1859C864.33 81.1428 864.495 81.1199 864.661 81.1177C865.324 81.107 865.906 81.5544 866.065 82.1964C868.475 88.6897 870.884 95.183 873.29 101.676C873.669 102.718 873.147 103.536 872.228 103.536H872.141C871.339 103.536 870.96 102.966 870.687 102.296C870.333 101.403 869.942 100.511 869.681 99.5931C869.645 99.3018 869.493 99.0372 869.259 98.8596C869.025 98.682 868.729 98.6067 868.438 98.6507H868.115C866.823 98.6507 865.518 98.6507 864.214 98.5949H864.102C863.549 98.5949 863.282 98.8367 863.201 99.4567C863.077 100.399 862.835 101.317 862.711 102.265C862.605 103.053 862.232 103.443 861.636 103.449L861.642 103.443ZM847.267 103.276C845.589 103.276 844.465 102.321 843.608 100.796C842.477 98.7437 841.315 96.7102 840.21 94.6519C839.267 93.0412 839.08 91.0985 839.7 89.3386C840.477 87.1563 841.241 84.9987 842.067 82.8288C842.395 81.9346 843.124 81.2459 844.036 80.9689H844.148H844.229H844.391H844.44H844.608H844.664H844.813H845.217H845.366H845.422L845.602 80.9999H845.645C845.704 81.0093 845.762 81.0217 845.819 81.0371H845.906L846.024 81.0681C847.023 81.3915 847.863 82.0775 848.379 82.99C849.621 85.1661 850.864 87.3733 852.106 89.5742C853.066 91.1788 853.277 93.1211 852.684 94.8936C851.994 96.9334 851.243 98.9359 850.522 100.969C850.006 102.433 849.124 103.363 847.559 103.375H847.292L847.267 103.276ZM822.604 103.053C821.949 103.053 821.367 102.636 821.157 102.017C821.05 101.691 820.993 101.35 820.989 101.007L820.02 91.5085C819.691 88.3032 819.399 85.0979 819.02 81.8926C818.914 81.0185 819.057 80.6527 819.858 80.6527H820.007C822.741 80.7519 825.462 80.7395 828.183 80.7767C830.558 80.8578 832.513 82.6664 832.774 85.0235C833.022 86.8835 833.215 88.7 833.333 90.5352C833.488 92.8601 831.96 94.6023 829.792 94.6395H829.357C827.661 94.6395 825.965 94.6395 824.263 94.5527H824.058C823.3 94.5527 823.151 94.9308 823.263 95.7926C823.511 97.6526 823.691 99.5559 823.828 101.434C823.884 102.228 823.666 102.953 822.753 103.034H822.604V103.053ZM849.708 35.8218C847.59 35.8218 845.558 36.6898 843.577 38.3824C840.943 40.6205 837.948 42.0154 834.805 42.0464C834.073 42.0558 833.343 41.9914 832.624 41.8543C831.015 41.8543 829.829 41.7799 828.723 41.7923H828.04C825.654 41.8976 823.747 42.8214 822.542 44.9914C821.627 46.6908 820.843 48.4565 820.194 50.2736C819.094 53.3867 816.882 55.9851 813.981 57.5708C812.695 58.2776 811.497 59.1021 810.254 59.8895C807.657 61.5263 806.62 64.0744 806.986 67.4471C807.229 69.6294 807.434 71.7869 807.688 73.9941C807.982 76.276 807.633 78.5943 806.682 80.6899C805.937 82.3328 805.191 83.982 804.408 85.6001C802.787 88.9542 803.029 92.3145 805.408 95.7244C805.968 96.5242 806.434 97.3798 807.03 98.1485C809.751 101.565 811.278 105.776 811.378 110.139C811.378 111.497 811.608 112.879 811.757 114.243C812.08 117.163 813.273 119.606 815.814 121.268C816.763 121.931 817.757 122.528 818.79 123.053C823.413 125.125 827.178 128.725 829.45 133.246C829.953 134.219 830.599 135.106 831.189 136.06C833.053 138.974 835.588 140.344 838.681 140.4C840.806 140.4 842.931 140.45 845.049 140.45C847.344 140.499 849.581 141.177 851.516 142.409C853.168 143.407 854.821 144.405 856.486 145.441C857.934 146.442 859.645 146.997 861.406 147.034C862.934 146.995 864.413 146.489 865.643 145.583C866.724 144.833 867.842 144.139 868.904 143.358C870.997 141.742 873.558 140.846 876.204 140.803C876.545 140.803 876.893 140.803 877.247 140.803C878.974 140.927 880.701 140.884 882.422 140.915H882.702C885.702 140.915 887.901 139.557 889.131 136.699C889.753 135.298 890.374 133.915 890.914 132.471C891.975 129.351 894.167 126.739 897.058 125.149C898.381 124.423 899.649 123.599 900.904 122.762C903.018 121.489 904.268 119.167 904.165 116.705C904.128 114.101 903.705 111.491 903.432 108.88C903.131 106.393 903.527 103.872 904.575 101.596C905.345 99.9589 906.091 98.3159 906.849 96.6792C908.265 93.6537 908.035 90.5724 906.035 87.4601C905.147 86.0837 904.258 84.7074 903.32 83.3744C901.289 80.6545 900.093 77.4043 899.879 74.0189C899.792 72.1589 899.556 70.2556 899.338 68.377C899.009 65.5127 897.841 63.1196 895.35 61.4457C893.672 60.3403 891.936 59.3242 890.15 58.4015C887.037 56.7606 884.464 54.2595 882.739 51.1974C881.826 49.6288 880.875 48.0975 879.869 46.5723C878.334 44.2102 876.322 42.6912 873.694 42.3998C872.694 42.2944 871.687 42.313 870.693 42.2882C869.96 42.2882 869.233 42.2882 868.507 42.2882C867.054 42.3473 865.599 42.281 864.158 42.0898C861.468 41.6745 859.039 40.2299 856.784 38.5374C854.299 36.6774 851.945 35.7784 849.69 35.8032" fill="white"/>
<path d="M890.896 138.583C890.433 139.043 890.064 139.588 889.809 140.189C894.563 149.835 899.326 159.482 904.097 169.129C904.581 170.103 904.886 170.989 904.233 171.857C903.952 172.265 903.488 172.511 902.991 172.514C902.564 172.5 902.144 172.409 901.749 172.248C897.282 170.58 892.809 168.949 888.342 167.288C887.75 167.018 887.123 166.83 886.479 166.73C885.957 166.73 885.963 167.263 885.522 168.503C884 172.843 882.54 177.183 881.055 181.523C880.739 182.465 880.304 183.296 879.26 183.308H879.148C878.011 183.259 877.465 182.36 876.968 181.349C871.733 170.661 866.486 159.978 861.226 149.302C858.2 149.197 855.585 147.529 853.026 145.799L852.653 145.551C849.839 143.691 846.969 142.575 843.813 142.569H843.415H843.073H842.763C842.142 142.569 841.477 142.625 840.831 142.637H840.371C838.723 142.662 837.077 142.489 835.47 142.123C835.252 142.073 835.041 142.011 834.848 141.955C832.45 150.139 830.055 158.325 827.661 166.513C827.568 166.829 827.505 167.133 827.412 167.468C827.252 167.83 827.315 168.252 827.574 168.553C827.714 168.719 827.921 168.814 828.139 168.813C828.329 168.799 828.516 168.755 828.692 168.683C831.003 167.889 833.326 167.114 835.637 166.315C837.948 165.515 840.203 164.777 842.471 163.934C842.654 163.855 842.85 163.811 843.049 163.804C843.477 163.804 843.769 164.07 844.105 164.665C846.683 169.303 849.323 173.903 851.951 178.516C852.261 179.068 852.479 179.849 853.231 179.842C853.933 179.842 853.914 179.08 854.075 178.559C856.411 170.611 858.745 162.663 861.077 154.715C861.108 154.413 861.255 154.135 861.487 153.94C862.27 154.842 862.507 156.094 862.108 157.219C859.691 165.279 857.374 173.339 855.02 181.399C854.765 182.279 854.243 182.918 853.305 182.93C852.299 182.93 851.653 182.217 851.162 181.299C848.677 176.681 846.117 172.08 843.67 167.43C843.223 166.581 842.8 166.191 842.21 166.222C841.921 166.234 841.637 166.299 841.371 166.414C837.097 168.057 832.792 169.607 828.506 171.212C828.112 171.381 827.691 171.48 827.263 171.504C826.792 171.505 826.341 171.309 826.021 170.964C825.269 170.207 825.046 169.073 825.455 168.088C826.779 163.543 828.133 159.011 829.45 154.448C830.736 150.021 831.991 145.582 833.258 141.149C832.868 140.666 832.355 140.296 831.773 140.077C831.612 140.492 831.419 140.889 831.295 141.317C828.711 150.129 826.133 158.941 823.561 167.753C823.083 169.322 823.524 171.026 824.704 172.167C825.404 172.97 826.415 173.434 827.481 173.444C827.922 173.436 828.359 173.354 828.773 173.202C832.898 171.708 837.016 170.214 841.11 168.652C841.307 168.568 841.518 168.522 841.732 168.515C842.117 168.515 842.353 168.739 842.682 169.29C844.999 173.63 847.372 177.902 849.702 182.211C850.584 183.848 851.74 184.765 853.498 184.771H853.56C855.268 184.771 856.287 183.879 856.759 182.26C858.368 176.78 859.946 171.287 861.543 165.8C862.251 163.388 862.971 160.995 863.736 158.416C864.034 158.962 864.239 159.296 864.413 159.656L875.669 182.657C876.384 184.102 877.427 185.038 878.98 185.174C879.169 185.186 879.358 185.186 879.546 185.174C880.951 185.25 882.221 184.344 882.602 182.992C884.081 178.739 885.553 174.48 886.951 170.196C887.174 169.52 887.423 169.185 887.908 169.179C888.171 169.19 888.429 169.249 888.672 169.352C892.853 170.952 897.052 172.452 901.245 174.021C901.885 174.28 902.568 174.419 903.258 174.43C904.224 174.437 905.133 173.975 905.693 173.19C906.824 171.702 906.513 169.979 905.606 168.168C902.979 162.929 900.4 157.666 897.798 152.408C895.507 147.783 893.213 143.164 890.914 138.552" fill="#FCCDD3"/>
<path d="M888.665 141.392C887.03 142.579 885.053 143.204 883.031 143.171H882.441H881.782C879.981 143.078 878.185 143.109 876.384 143.084H876.141H875.818C874.876 143.118 873.949 143.329 873.085 143.704L872.855 143.81C869.469 145.434 866.767 148.249 863.102 149.389C863.198 149.721 863.314 150.046 863.45 150.363C868.142 159.894 872.832 169.421 877.521 178.944C877.757 179.428 877.918 180.054 878.633 180.066H878.67C879.291 180.066 879.409 179.508 879.583 179.031C881.273 174.474 882.981 169.929 884.615 165.348C884.839 164.728 885.081 164.424 885.528 164.418C885.775 164.431 886.018 164.484 886.249 164.573C891.045 166.278 895.847 167.896 900.649 169.533C900.918 169.656 901.205 169.738 901.5 169.774C901.692 169.775 901.872 169.68 901.978 169.52C902.339 169.043 901.978 168.534 901.767 168.069C901.146 166.761 900.525 165.459 899.854 164.157L888.672 141.373" fill="#FCCDD3"/>
<path d="M829.164 91.6821H829.127C827.263 91.6821 825.4 91.6139 823.492 91.6263C822.821 91.6263 822.648 91.2977 822.604 90.6778C822.523 89.6176 822.393 88.545 822.287 87.4848C822.182 86.4247 822.113 85.5195 821.977 84.5337C821.877 83.8084 822.07 83.4922 822.728 83.486H822.828C824.635 83.548 826.431 83.5604 828.226 83.5604C829.338 83.5604 829.928 84.2175 830.09 85.3025C830.307 86.8773 830.456 88.4582 830.568 90.033C830.637 91.0559 830.171 91.6697 829.17 91.6821H829.164ZM819.821 80.5225C819.02 80.5225 818.877 80.8759 818.982 81.7624C819.361 84.9677 819.653 88.173 819.982 91.3783L820.952 100.876C820.956 101.22 821.012 101.561 821.119 101.887C821.33 102.506 821.912 102.922 822.567 102.922H822.716C823.629 102.842 823.846 102.116 823.791 101.323C823.654 99.4629 823.474 97.5595 823.225 95.681C823.113 94.8192 823.263 94.441 824.02 94.441H824.225C825.928 94.5278 827.624 94.5402 829.32 94.5278H829.754C831.922 94.4906 833.482 92.7485 833.295 90.4236C833.177 88.5636 832.985 86.7409 832.736 84.9119C832.475 82.5548 830.52 80.7462 828.145 80.6651C825.424 80.6279 822.703 80.6651 819.97 80.5411H819.821V80.5225ZM846.975 100.349C846.515 100.349 846.273 99.9279 846.049 99.5311C844.937 97.5657 843.813 95.6128 842.701 93.6599L842.558 93.3809C842.329 92.9021 842.192 92.3848 842.154 91.8557C842.154 91.6325 842.154 91.3969 842.191 91.1799C842.21 91.033 842.242 90.8878 842.285 90.7459C843.03 88.6194 843.782 86.4991 844.589 84.4035C844.763 83.9634 845.018 83.7402 845.297 83.7278C845.577 83.7154 845.875 83.9758 846.136 84.4221C847.379 86.5425 848.571 88.6876 849.745 90.8389C849.819 90.9805 849.881 91.1277 849.932 91.2791C850 91.5023 850.044 91.7317 850.1 91.9611C850.17 92.4683 850.14 92.9842 850.013 93.4801L849.919 93.7405C849.211 95.681 848.478 97.6091 847.764 99.5497C847.621 99.9403 847.459 100.337 847.012 100.349H846.975ZM844.993 80.7891H844.794H844.645H844.608H844.44H844.39H844.229H844.148H844.036C843.124 81.0661 842.395 81.7548 842.067 82.649C841.241 84.7941 840.477 86.9889 839.7 89.1588C839.08 90.9187 839.267 92.8614 840.21 94.472C841.315 96.5304 842.477 98.5639 843.608 100.616C844.465 102.154 845.589 103.096 847.267 103.096H847.534C849.099 103.096 849.982 102.154 850.497 100.69C851.218 98.6569 851.969 96.6544 852.659 94.6146C853.252 92.8421 853.041 90.8998 852.081 89.2952C850.839 87.0943 849.646 84.8871 848.354 82.711C847.838 81.7984 846.998 81.1125 845.999 80.7891L845.881 80.7581H845.794C845.737 80.7427 845.679 80.7303 845.621 80.7209H845.577L845.397 80.6899H845.341H845.192H844.987" fill="#6534FF"/>
<path d="M834.761 41.9469C837.905 41.9469 840.899 40.5209 843.533 38.2828C845.515 36.5903 847.546 35.7409 849.665 35.7223C851.92 35.7223 854.274 36.6151 856.759 38.4564C859.014 40.1304 861.443 41.5935 864.133 42.0089C865.574 42.2 867.029 42.2664 868.482 42.2073C869.209 42.2073 869.935 42.2073 870.668 42.2073C871.662 42.2073 872.669 42.2073 873.669 42.3189C876.297 42.6103 878.31 44.1292 879.844 46.4914C880.832 48.0165 881.801 49.5479 882.714 51.1164C884.44 54.1786 887.013 56.6797 890.125 58.3206C891.911 59.2432 893.647 60.2593 895.325 61.3647C897.81 63.0387 898.984 65.4318 899.313 68.2961C899.531 70.156 899.767 72.0656 899.854 73.9379C900.069 77.3233 901.264 80.5735 903.295 83.2934C904.233 84.6264 905.122 86.0028 906.01 87.3791C908.01 90.479 908.24 93.5789 906.824 96.5982C906.066 98.235 905.321 99.8779 904.55 101.515C903.502 103.791 903.107 106.312 903.407 108.799C903.68 111.41 904.103 114.02 904.14 116.624C904.243 119.086 902.993 121.408 900.879 122.681C899.636 123.518 898.357 124.342 897.033 125.068C894.142 126.658 891.95 129.27 890.889 132.39C890.355 133.834 889.709 135.217 889.106 136.618C887.864 139.476 885.677 140.803 882.677 140.834H882.397C880.676 140.834 878.949 140.834 877.222 140.722C876.868 140.722 876.52 140.685 876.179 140.722C873.533 140.765 870.972 141.661 868.879 143.277C867.817 144.058 866.699 144.752 865.618 145.502C864.388 146.408 862.909 146.914 861.381 146.953C859.62 146.916 857.909 146.361 856.461 145.36C854.827 144.324 853.175 143.326 851.491 142.328C849.556 141.096 847.319 140.418 845.024 140.369C842.906 140.369 840.781 140.369 838.657 140.319C835.55 140.282 833.028 138.912 831.164 135.979C830.574 135.049 829.922 134.119 829.425 133.165C827.153 128.644 823.388 125.044 818.765 122.972C817.732 122.447 816.738 121.85 815.789 121.187C813.248 119.525 812.062 117.082 811.732 114.162C811.583 112.798 811.385 111.416 811.354 110.058C811.253 105.695 809.726 101.484 807.005 98.0676C806.384 97.2988 805.943 96.4432 805.384 95.6435C803.004 92.2336 802.762 88.8733 804.383 85.5192C805.166 83.901 805.912 82.2519 806.657 80.6089C807.608 78.5134 807.957 76.195 807.663 73.9131C807.409 71.7308 807.204 69.5733 806.961 67.3661C806.595 63.9934 807.632 61.4453 810.229 59.8086C811.472 59.0212 812.714 58.1966 813.956 57.4898C816.857 55.9042 819.069 53.3057 820.169 50.1927C820.818 48.3756 821.603 46.6099 822.517 44.9104C823.722 42.7405 825.623 41.8105 828.015 41.7113H828.698C829.804 41.7113 830.991 41.7547 832.6 41.7733C833.318 41.9105 834.049 41.9749 834.78 41.9655L834.761 41.9469ZM849.379 33.2238C847.892 33.2495 846.439 33.6619 845.161 34.4203C844.077 35.0128 843.039 35.6842 842.055 36.4291C839.717 38.406 836.769 39.5184 833.705 39.5786C833.095 39.5859 832.485 39.5506 831.879 39.4732C831.085 39.3887 830.286 39.3535 829.487 39.3678C828.866 39.3678 828.276 39.3678 827.673 39.405C825.08 39.3292 822.622 40.5591 821.132 42.6785C819.902 44.56 818.934 46.5998 818.255 48.7419C817.262 51.6698 815.187 54.109 812.453 55.5617C811.211 56.2437 809.968 57.0248 808.813 57.8246C805.707 59.8892 804.321 62.9333 804.793 67.0809C804.998 68.9409 805.11 70.7574 805.415 72.5926C805.85 75.4049 805.375 78.2823 804.06 80.8073C803.194 82.4397 802.433 84.1253 801.78 85.854C800.668 88.9616 801.008 92.4029 802.706 95.2343C803.468 96.6311 804.323 97.9753 805.265 99.258C807.763 102.4 809.162 106.271 809.248 110.281C809.307 111.828 809.458 113.371 809.701 114.9C810.061 118.037 811.716 120.882 814.267 122.749C816.094 124.024 818.005 125.174 819.989 126.19C821.983 127.306 823.89 128.546 825.257 130.53C827.437 133.735 829.189 137.238 831.786 140.152C832.368 140.371 832.88 140.741 833.27 141.224C833.858 141.347 834.406 141.611 834.867 141.993C835.084 142.049 835.296 142.111 835.488 142.161C837.096 142.527 838.741 142.7 840.39 142.675H840.849C841.471 142.675 842.142 142.638 842.781 142.607H843.092H843.434H843.831C846.987 142.607 849.857 143.748 852.671 145.589L853.044 145.837C855.604 147.567 858.219 149.235 861.244 149.34H861.35H861.803C861.959 149.34 862.12 149.34 862.282 149.34C862.565 149.328 862.848 149.361 863.12 149.439C866.786 148.292 869.488 145.478 872.874 143.859L873.104 143.754C873.968 143.379 874.895 143.168 875.837 143.134H876.16H876.402C878.204 143.134 879.999 143.134 881.801 143.221H882.459H883.049C885.071 143.251 887.048 142.627 888.684 141.441C888.98 140.968 889.369 140.559 889.827 140.239C890.083 139.639 890.452 139.093 890.914 138.633C891.703 136.686 892.517 134.764 893.275 132.805C894.215 130.415 895.977 128.437 898.245 127.225C899.611 126.438 900.972 125.613 902.276 124.714C905.333 122.637 906.737 119.581 906.252 115.415C905.998 113.282 905.805 111.143 905.563 108.998C905.299 107.008 905.594 104.984 906.414 103.151C907.234 101.36 908.054 99.5804 908.862 97.7824C910.483 94.1617 910.29 90.4604 908.017 86.6909C907.349 85.5428 906.624 84.4296 905.842 83.3554C903.301 80.1817 901.883 76.2579 901.811 72.1958C901.811 70.7946 901.568 69.3687 901.413 67.9613C901.095 64.4999 899.228 61.3669 896.331 59.4366C894.668 58.3094 892.933 57.2905 891.138 56.3863C888.275 54.9179 885.917 52.6295 884.366 49.8145C883.522 48.3141 882.59 46.8572 881.652 45.4188C879.341 41.8725 876.303 39.9382 872.42 39.932C871.016 39.932 869.612 39.87 868.215 39.8886C867.892 39.8886 867.593 39.8886 867.258 39.8886H866.972C864.183 39.8747 861.464 39.0093 859.182 37.4086C857.598 36.3795 856.007 35.3441 854.343 34.4823C852.817 33.6494 851.111 33.1984 849.373 33.168" fill="#6534FF"/>
<path d="M887.553 92.4076H887.473C885.609 92.3766 883.789 92.3332 881.956 92.3456C881.335 92.3456 881.068 92.1286 881.024 91.459C880.95 90.3864 880.819 89.3201 880.708 88.2537C880.596 87.1873 880.546 86.2884 880.397 85.3088C880.279 84.5214 880.503 84.2114 881.192 84.2052H881.323C883.081 84.2672 884.839 84.2858 886.597 84.2734C887.07 84.2447 887.536 84.4083 887.887 84.7271C888.238 85.0458 888.445 85.4926 888.46 85.966C888.697 87.5469 888.833 89.1279 888.951 90.7026C889.032 91.7876 888.547 92.3952 887.504 92.4076H887.553ZM878.223 81.2479C877.483 81.2479 877.247 81.5145 877.359 82.4383C877.75 85.6436 878.036 88.8489 878.365 92.0542C878.695 95.2595 879.036 98.5578 879.353 101.806C879.453 102.867 879.881 103.598 880.944 103.623H881.018C882.155 103.623 882.261 102.65 882.161 101.689C882.006 99.8288 881.826 98.0122 881.596 96.1709C881.503 95.4331 881.689 95.1665 882.335 95.1603H882.453C884.242 95.2264 886.029 95.2512 887.814 95.2347H888.1C890.33 95.2347 891.827 93.4367 891.678 91.0436C891.548 89.2457 891.368 87.4477 891.125 85.656C890.879 83.3014 888.942 81.4819 886.572 81.3781C883.845 81.3347 881.124 81.3409 878.397 81.2541H878.223V81.2479ZM868.215 96.1275L863.922 96.0717C863.808 96.0648 863.702 96.0091 863.632 95.9189C863.562 95.8287 863.534 95.7126 863.555 95.6005L865.028 88.6009C865.04 88.512 865.096 88.4351 865.177 88.3963H865.289H865.4H865.463V88.4335C865.535 88.4794 865.591 88.5465 865.624 88.6257L868.451 95.6749C868.502 95.77 868.501 95.8845 868.448 95.9787C868.395 96.0728 868.298 96.1336 868.19 96.1399L868.215 96.1275ZM864.612 81.1177C864.446 81.1199 864.281 81.1428 864.121 81.1859C863.5 81.3409 863.363 82.0105 863.251 82.6367C862.543 86.6665 861.822 90.6964 861.114 94.7325C860.723 96.9334 860.306 99.122 859.946 101.329C859.803 102.247 860.07 103.096 861.089 103.369C861.253 103.415 861.422 103.44 861.592 103.443C862.214 103.443 862.561 103.046 862.667 102.259C862.791 101.311 863.034 100.399 863.158 99.4506C863.239 98.8306 863.506 98.595 864.059 98.5888H864.17C865.475 98.6384 866.78 98.657 868.072 98.6446H868.395C868.685 98.6005 868.982 98.6759 869.216 98.8534C869.45 99.031 869.602 99.2956 869.637 99.587C869.898 100.505 870.258 101.397 870.644 102.29C870.917 102.984 871.265 103.561 872.097 103.53H872.184C873.104 103.53 873.626 102.693 873.247 101.67C870.853 95.1727 868.444 88.6794 866.022 82.1903C865.863 81.5482 865.28 81.1008 864.618 81.1115" fill="#6534FF"/>
</svg>
