<svg xmlns="http://www.w3.org/2000/svg" width="375" height="285"><g fill="none" fill-rule="evenodd"><g transform="translate(-87 13)"><path fill="#DDE2F3" d="M188.027 245.084c-31.263-13.169-52.409-23.26-63.438-30.273-11.03-7.013-23.56-17.45-37.589-31.311v101h103.723l-2.696-39.416zm175.236 9.879 5.903-40.039c67.127-27.457 103.599-44.058 109.416-49.803 5.816-5.745 5.816 28.381 0 102.379l-115.319-12.537z"/><path fill="#BBC4EF" fill-rule="nonzero" d="M246.404 28.515c12.293-15.775 38.428-17.724 55.572-13.555 19.862 4.829 20.357 16.1 38.772 25.417 40.424 20.45 74.73-15.304 98.06 3.625 18.001 14.613 18.584 52.828 3.388 69.31-10.961 11.894-22.988 4.71-34.966 16.677-19.398 19.383-.366 50.738-16.064 64.712-18.72 16.666-60.965-14.418-73.286-.396-11.672 13.285 21.888 46.143 10.618 64.884-16.821 27.95-114.625-6.675-125.229-10.507-36.253-13.09-83.307-36.81-80.284-54.64 1.981-11.672 24.005-12.463 26.367-27.266 2.287-14.32-17.306-19.917-18.976-38.135-1.85-20.275 19.53-44.888 41.07-48.037 1.048-.154 3.389-.2 5.779-.227 12.569-.17 19.88 1.92 25.285 2.454 10.618 1.047 22.116-3.075 28.643-8.436 14.528-11.934 2.754-29.844 15.25-45.88Z" opacity=".88"/><path fill="#91A0D8" fill-rule="nonzero" d="M328.682 258.983c11.271-18.771-22.266-51.681-10.61-64.987 12.312-14.044 54.527 17.09 73.234.397 15.688-13.996-3.332-45.401 16.053-64.815 11.965-11.985 23.988-4.79 34.942-16.703a32.975 32.975 0 0 0 4.352-6.035V96.741h-3.5V90.5l-4.401 4.426v7.943h-15.803v-9.192h-8.465l-9.143 9.192h-4.29v9.986h-8.449v-5.797h-14.116v9.2h-22.01V47.608a11.297 11.297 0 0 0-.538-2.497 59.363 59.363 0 0 1-12.851-4.242c-3.08 2.477-3.43 6.863-3.43 6.863v65.135h-8.578v-35.14h-14.9v42.618h-18.06v-17.93h-9.932v-14.07h-17.608v24.738h-9.933v-21.56L250.26 101.96v17.248h-10.158v17.432h-8.918v-37.29l-5.756-5.787h-6.547V81.082h-2.257c-1.407.37-2.842.68-4.29.907v11.348h-5.192l-7.675 7.716v39.035h-20.995v-21.56h-16.028v23.15h-12.867v-24.965h-17.609v17.418c4.689 13.76 19.715 19.615 17.699 32.281-2.361 14.83-24.38 15.619-26.35 27.31-3.02 17.858 44.001 41.615 80.222 54.737 4.258 1.541 22.591 8.066 44.089 13.501h78.743a16.002 16.002 0 0 0 2.31-2.977Z" opacity=".3"/><path fill="#91A0D8" fill-rule="nonzero" d="M220.694 210.414c8.034-5.481 7.641-26.07-2.217-35.062-7.838-7.148-14.772-.679-26.443-7.155-14.328-7.952-11.82-22.137-25.061-30.774-12.365-8.064-29.469-8.532-32.113-3.517-2.76 5.233 12.371 12.423 23.635 35.488 7.91 16.17 3.962 19.785 11.502 27.652 9.318 9.723 22.458 11.63 39.277 14.073 6.852.993 9.32.726 11.42-.705Z"/><path fill="#6534FF" fill-rule="nonzero" d="M204.327 177.228c-1.087.226-1.653 1.972-1.693 3.03-.05 1.316.341 2.735.85 4.104 4.158 11.2 19.828 25.53 30.257 21.689 1.758-.649 3.78-1.864 3.157-4.367-1.16-4.661-8.509-8.924-12.097-11.224a136.045 136.045 0 0 0-13.137-7.442c-2.021-1.76-3.91-3.926-6.088-5.45a1.576 1.576 0 0 0-1.249-.34Z" opacity=".61"/><path fill="#FCCDD3" fill-rule="nonzero" d="M179.888 123.357c1.988.364 13.25 2.624 21.223 12.64 9.24 11.605 2.833 19.544 9.926 35.242 8.432 18.659 24.724 23.473 22.818 27.421-2.119 4.392-24.627 3.336-34.645-9.745-8.159-10.654-.356-19.257-7.599-34.47-9.085-19.083-30.165-24.054-28.25-29.22 1.296-3.497 11.535-2.787 16.527-1.868Z"/><path fill="#FFF" fill-rule="nonzero" d="M214.214 200.841c-12.456-3.587-21.713-8.029-28.225-13.182-5.324-4.211-8.642-8.74-10.48-13.614-.786-2.085-1.167-3.667-1.845-7.194l-.012-.063c-1.076-5.603-1.918-8.316-4.212-12.119-2.965-4.914-7.15-8.87-12.328-12.003-4.13-2.499-8.687-4.366-13.667-5.807a.855.855 0 0 0-.472 1.642c11.128 3.22 19.848 8.496 25.01 17.053 2.165 3.59 2.957 6.137 3.998 11.557l.012.063c.695 3.62 1.093 5.272 1.923 7.476 1.948 5.165 5.453 9.948 11.019 14.35 6.7 5.302 16.154 9.838 28.81 13.484a.855.855 0 0 0 .47-1.642Z"/><path fill="#FCCDD3" fill-rule="nonzero" d="M195.36 192.58c21.108 7.484 33.683 11.942 33.3 16.685-.52 6.405-24.84 15.162-40.543 6.574-9.543-5.219-9.56-13.372-25.605-25.308-8.087-6.017-13.375-7.883-12.934-9.077.937-2.535 25.512 3.94 45.782 11.126Z"/><path fill="#FFF" fill-rule="nonzero" d="M221.103 209.284c-11.558 3.115-19.827 2.286-26.138-1.148-2.416-1.314-4.256-2.822-6.648-5.277-.341-.35-.688-.713-1.163-1.214a1769.231 1769.231 0 0 1-1.208-1.274 81.91 81.91 0 0 0-2.688-2.715 53.978 53.978 0 0 0-7.425-5.977 62.39 62.39 0 0 0-15.673-7.58.855.855 0 0 0-.519 1.627 60.689 60.689 0 0 1 15.245 7.373 52.277 52.277 0 0 1 7.196 5.792 80.304 80.304 0 0 1 2.634 2.66 269.408 269.408 0 0 1 1.204 1.272c.48.506.832.873 1.18 1.23 2.5 2.567 4.465 4.177 7.054 5.585 6.704 3.648 15.421 4.522 27.39 1.296a.855.855 0 0 0-.441-1.65zm6.349-13.056c-7.796-2.282-14.246-6.047-18.746-12.221a25.434 25.434 0 0 1-3.795-7.553c-.756-2.418-1.126-4.44-1.718-8.754-.736-5.352-1.16-7.637-2.184-10.758-1.624-4.952-4.356-9.7-8.58-14.314-5.114-5.586-12.224-10.739-21.659-15.381a.428.428 0 0 0-.375.767c9.344 4.597 16.368 9.688 21.406 15.191 4.141 4.524 6.813 9.166 8.4 14.004 1.002 3.057 1.42 5.306 2.149 10.608.598 4.36.974 6.415 1.748 8.892a26.288 26.288 0 0 0 3.921 7.802c4.628 6.351 11.235 10.207 19.194 12.537a.427.427 0 0 0 .238-.82z"/><path fill="#FFF" fill-rule="nonzero" d="m183.653 135.152-3.005-6.365a.425.425 0 1 0-.77.366l3.005 6.365a.425.425 0 1 0 .77-.366zm5.393 4.458-6.676-1.674a.427.427 0 0 0-.206.829l6.676 1.674a.427.427 0 0 0 .206-.829zm3.314 2.991-2.67-10.72a.426.426 0 1 0-.826.208l2.67 10.72a.426.426 0 1 0 .826-.208zm4.092 5.74-6.342-2.68a.428.428 0 0 0-.33.787l6.342 2.68a.428.428 0 0 0 .33-.787zm3.262 5.47 1.335-11.055a.426.426 0 1 0-.845-.103l-1.335 11.055a.426.426 0 1 0 .845.103zm2.141 4.947-6.342-4.02a.425.425 0 0 0-.587.133.428.428 0 0 0 .132.59l6.343 4.02a.425.425 0 0 0 .587-.134.428.428 0 0 0-.133-.589zm1.178 8.87 2.003-6.029a.425.425 0 1 0-.808-.27l-2.002 6.03a.425.425 0 1 0 .808.27zm.508 3.2-6.676-4.69a.425.425 0 0 0-.593.106.428.428 0 0 0 .105.595l6.676 4.69a.425.425 0 0 0 .593-.105.428.428 0 0 0-.105-.595zm2.18 7.452 1.001-6.365a.426.426 0 1 0-.84-.133l-1.002 6.365a.426.426 0 1 0 .84.133zm1.765 4.238-7.01-3.35a.428.428 0 0 0-.366.771l7.01 3.35a.428.428 0 0 0 .366-.771zM358.571 71.725c-1.142 1.114-2.324 2.248-3.103 3.645-1.611 2.897-1.155 6.862 1.233 9.167 2.388 2.305 6.55 2.57 9.076.417.73-.674 1.38-1.431 1.936-2.255a6.03 6.03 0 0 0 .99-1.729c.16-.639.207-1.3.14-1.956-.08-1.48-.242-2.984-.829-4.346-1.586-3.67-6.357-5.922-9.443-2.943z"/><path fill="#E2A3AE" fill-rule="nonzero" d="M349.508 105.962s-14.118-4.949-15.599 10.146c-1.48 15.095 16.277 31.622 16.277 31.622l13.68-21.232-14.358-20.536Z"/><path fill="#62BCF9" fill-rule="nonzero" d="M234.215 141.235s-3.608-.115-4.51.802c-.903.917-6.09 1.376-6.09 6.879s-1.804 5.962 3.609 7.337c5.412 1.376 10.796 10.57 10.796 10.57l23.259-17.987s5.638-9.092 2.48-10.238c-3.157-1.147-8.242-.434-11.903.688-3.66 1.12-17.64 1.949-17.64 1.949Z"/><path fill="#2B0FD3" fill-rule="nonzero" d="M234.987 143.389s-5.44.666-5.894 2.665c-.453 2 .68 9.825 5.44 10.884 4.76 1.06 11.586 2.47 11.561 3.776-.025 1.306 6.8-13.771 12.467-16.659 5.667-2.887-6.705-2.308-6.705-2.308l-16.87 1.642Z" opacity=".46"/><path fill="#6535FF" fill-rule="nonzero" d="M243.791 94.2c-2.724-2.302-13.51-.422-16.574 1.183-1.398.733-3.001 2.66-2.951 4.637.036 1.44.929 2.078.454 3.024-.652 1.304-2.677.774-3.633 2.017-1.135 1.468 1.097 2.992.682 5.846-.434 2.987-3.213 3.67-2.725 5.431.56 2.037 4.393 1.84 4.995 4.034.39 1.416-1.106 1.887-1.362 4.03-.384 3.214 2.434 6.69 4.54 6.654 1.013-.018 1.728-.844 2.044-.604.438.328-1.106 1.777-.908 3.225.272 1.985 3.823 4.002 6.357 3.621 4.615-.679 6.38-9.356 7.265-13.708 1.364-6.684 9.451-22.954 1.816-29.39Z"/><path fill="#FFF" fill-rule="nonzero" d="m251.255 160.332-14.198 3.477-5.385-43.213h22.032z"/><path fill="#2B0FD3" fill-rule="nonzero" d="M241.265 149.74a1.344 1.344 0 0 1-.184.334c.181-.085.252-.214.184-.335Z" opacity=".46"/><path fill="#2B0FD3" fill-rule="nonzero" d="M237.323 120.93h-5.651l5.164 41.013a3.21 3.21 0 0 0 2.378-.079c-.649-2.318-1.291-4.838-.412-7.08.768-1.96 2.648-3.547 2.632-5.659.071.058.12.138.142.227.334-1.655-.766-3.362-1.803-4.782-1.127-1.546-2.254-3.525-1.45-5.257l3.697-1.507c-1.04-2.219-3.606-3.272-5.105-5.207-2.254-2.894-1.68-7.127-.165-10.469.19-.387.384-.79.573-1.2Z" opacity=".46"/><path fill="#62BCF9" fill-rule="nonzero" d="m226.962 153.42.37-1.67s-1.98 1.781-.37 1.67Z"/><path fill="#62BCF9" fill-rule="nonzero" d="M259.4 143.762c-2.37-.506 2.208 2.804-.24 2.931-11.763 1.364-13.156 16.403-17.823 12.395-5.702-4.896-10.679-4.415-12.488-6.26-1.1.455-1.81.66-2.249.682l-15.959 83.183c13.446.682 26.862 1.327 40.265 1.818 7.95-36.85 18.275-92.66 8.494-94.749Z"/><path fill="#BBC4EF" fill-rule="nonzero" d="M261.278 185.848c-.113 10.247-8.426 18.494-18.642 18.494s-18.53-8.247-18.642-18.494c0-10.328 19.793-22.709 30.09-22.709 10.295 0 7.194 12.374 7.194 22.709Z"/><path fill="#2B0FD3" fill-rule="nonzero" d="M258.06 169.272c.542-2.556 1.086-5.144.97-7.754-.118-2.61-.972-5.285-2.854-7.089-.798-.764-2.037-1.356-2.966-.764-.706.452-.899 1.383-1.047 2.213a58.943 58.943 0 0 1-7.027 19.143c-1.733 2.983-3.822 6.153-3.356 9.574.152 1.155.59 2.247.97 3.347 1.3 3.779 1.919 7.91.968 11.792-.796 3.247-2.626 6.122-4.122 9.11-1.495 2.987-2.698 6.34-2.086 9.628.299 1.623 1.025 3.132 1.45 4.726 1.255 4.693-.178 9.572-.726 14.442l4.872.201 6.006-26.34 8.948-42.23Z" opacity=".46"/><path fill="#6534FF" fill-rule="nonzero" d="M231.965 166.438c-.752-5.712-4.633-15.024-4.633-15.024l-18.36 84.777 6.172.31c1.275-8.718 3.312-21.012 5.042-24.13 2.764-4.959 12.529-40.22 11.779-45.933Z" opacity=".18"/><path fill="#2B0FD3" fill-rule="nonzero" d="m254.706 136.499-1.834 2.984s-4.19 3.816-10.718 2.115c-6.528-1.7-10.482-18.993-10.482-18.993l23.034 13.894Z" opacity=".46"/><path fill="#6535FF" fill-rule="nonzero" d="M256.09 119.33c-1.711 2.997-3.68 3.156-3.72 4.697-.052 2.012 3.256 4.552 6.28 4.248 3.213-.324 4.902-3.74 5.814-5.59 2.667-5.402 2.816-13.654-1.163-15.653-2.577-1.295-6.78.083-7.443 2.013-.532 1.554 1.556 2.524 1.628 5.59.051 2.165-.942 3.9-1.395 4.696Z"/><ellipse cx="246.36" cy="116.073" fill="#FFF" fill-rule="nonzero" rx="17.025" ry="23.617"/><path fill="#2B0FD3" fill-rule="nonzero" d="M236.857 134.351c-2.275-2.916-1.695-7.183-.166-10.551 1.033-2.282 2.473-4.792 1.551-7.104-.348-.876-1.005-1.597-1.412-2.448-1.179-2.454-.103-5.347.973-7.848l-6.568-1.214a31.468 31.468 0 0 0-1.9 10.921c0 10.85 5.213 20.008 12.352 22.913-1.19-1.864-3.45-2.898-4.83-4.669Z" opacity=".46"/><path fill="#6535FF" fill-rule="nonzero" d="M234.487 123.246c.046-1.794.184-3.584.412-5.363.356-2.782.568-2.675.45-3.651-.225-2.206-1.445-3.964-.578-5.381.04-.069.084-.135.133-.198.24-.323.718-.81 2.252-1.895 3.516-2.491 5.833-4.854 9.234-4.756 3.137.088 2.777 2.545 8.784 4.756 2.702.996 3.552.777 5.405 2.038 2.138 1.452 3.502 3.427 4.408 3.003.39-.18.495-.718.547-.964.676-3.171 1.448-11.839.162-16.565-1.286-4.727-8.903-3.588-8.903-3.588s.901-8.817-11.079-6.568c-9.684 1.812-11.711 7.7-15.213 14.699-7.582 15.154.824 28.03.824 28.03l2.72.452.442-4.05Z"/><path fill="#3E1EC4" fill-rule="nonzero" d="M275.313 160.24c-2.718 15.343-.702 23.795 1.8 28.726 2.7 5.314 3.299 7.992 4.5 13.346 1.181 5.256.875 6.921.225 8.143-2.043 3.831-8.716 5.57-13.05 4.071-12.924-4.476-18.632-42.5-4.5-52.024 3.157-2.129 7.027-2.644 11.025-2.262Z"/><path fill="#F9879A" fill-rule="nonzero" d="M295.6 165.873c23.079-8.925 50.458-16.572 50.458-16.572l8.126-48.47s-15.902-3.38-26.572 5.047c-9.513 7.51-52.095 30.513-62.64 36.184-.84.453-4.512.697-6.979.815a2.885 2.885 0 0 0-2.693 2.39l-15.95 92.328c5.087.212 10.173.406 15.257.581l20.342-.4s-2.424-62.978 20.652-71.903Z"/><path fill="#52D2BC" fill-rule="nonzero" d="M258.299 142.908c-1.313.073-2.403 1.104-2.625 2.483l-.3 1.846c.35.383.854.558 1.348.47 1.546-.235 6.182-2.819 8.39-3.054 1.245-.133 1.367-1.834 1.236-3.288l-1.236.704c-.828.46-4.409.717-6.813.84Z"/><path fill="#D3637B" fill-rule="nonzero" d="m269.659 169.684-12.95 1.83 1.067-3.53 12.953-1.83z"/><path fill="#2B0FD3" fill-rule="nonzero" d="m347.508 144.839-9.298-8.164c.025.023-3.855 4.55-4.238 5.012-2.041 2.49-4.617 4.397-7.502 5.848-3.42 1.72-7.107 2.837-10.713 4.127-5.003 1.789-9.871 3.924-14.824 5.841-3.955 1.53-8.014 2.289-11.938 3.758-6.649 2.49-12.754 7.315-13.393 14.852-1.24 14.634-4.969 21.826-6.459 23.065-1.49 1.238 1.49 8.186 1.49 9.178 0 .588-.131 21.788-.131 29.485l4.535-.453s-2.415-63.012 20.69-71.94c23.103-8.93 50.518-16.58 50.518-16.58l1.263-4.03Z" opacity=".46"/><path fill="#6535FF" fill-rule="nonzero" d="M268.943 140.131s2.502 51.794 5.968 58.14a22.166 22.166 0 0 1 1.822 4.307c1.137 3.823.488 6.12.488 6.12s-12.707-2.04-13.631-19.72c-.924-17.678-2.542-48.502-2.542-48.502s3.304-2.274 7.895-.345Z"/><path fill="#FFF" fill-rule="nonzero" d="M274.991 203.057a5.446 5.446 0 0 1-.287-.315 14.305 14.305 0 0 1-.847-1.097c-.896-1.27-1.796-2.877-2.64-4.843-2.347-5.466-3.795-12.57-3.892-21.5-.075-6.908-.186-12.825-.325-17.818-.094-3.362-.194-6.109-.294-8.285a183.451 183.451 0 0 0-.135-2.533.852.852 0 1 0-1.698.117l.009.144.027.452c.029.511.061 1.142.096 1.899.1 2.165.2 4.901.293 8.254.138 4.983.25 10.89.325 17.788.099 9.152 1.593 16.48 4.03 22.158.891 2.076 1.85 3.786 2.814 5.154.341.484.66.893.95 1.228.18.209.314.35.394.428a.85.85 0 0 0 1.204-.024.856.856 0 0 0-.024-1.207Z"/><path fill="#99485F" fill-rule="nonzero" d="m350.473 147.139 13.392-20.849-26.038 10.877a118.546 118.546 0 0 0 4.08 9.434 4.928 4.928 0 0 0 4.128 2.794 4.913 4.913 0 0 0 4.438-2.256zm-14.983-35.923a193.703 193.703 0 0 0 10.349-5.977c-3.322-.285-8.054.423-10.349 5.977z"/><path fill="#FFF" fill-rule="nonzero" d="m414.299 97.91-37.973-15.503a190.182 190.182 0 0 1-18.24 14.636 169.794 169.794 0 0 1-12.34 7.95 201.167 201.167 0 0 1-10.559 5.731 16.78 16.78 0 0 0-1.253 5.157c-.63 6.434 1.465 14.253 4.077 21.129l25.744-10.717c16.476-5.845 27.31-8.089 34.75-8.924 2.431-.274 12.466-1.292 17.006-6.446 0 0 .068-.077 4.436-5.203l-5.648-7.81Z"/><path fill="#2B0FD3" fill-rule="nonzero" d="M411.94 112.405c-2.546-1.035-2.103-16.567-4.652-17.604-7.642.096-14.111 5.683-16.457 13.425-4.084-7.489-9.526-12.677-12.589-12.188-5.114.821-5.758 17.84-15.86 20.584-1.33.36-2.488.385-4.955 1.24-5.61 1.948-8.864 5.051-10.902 6.697-3.739 3.015-7.437 4.392-10.7 5.207.678 2.463 1.517 4.91 2.408 7.244l22.378-9.282 3.506-1.45c16.566-5.848 27.459-8.094 34.938-8.93 1.016 0 11.009-.36 17.1-6.449l4.46-5.206-8.674 6.712Z" opacity=".46"/><path fill="#6534FF" fill-rule="nonzero" d="m357.545 21.89 2.259-.285 30.704-3.888 1.96-.248c3.588-.452 6.885 2.259 7.36 6.066l10.381 83.2c.474 3.807-2.052 7.259-5.642 7.715l-34.922 4.421c-3.589.452-6.885-2.259-7.359-6.068l-10.38-83.2c-.476-3.805 2.049-7.26 5.64-7.713Z" opacity=".61"/><path fill="#FFF" fill-rule="nonzero" d="M411.83 56.705c2.328-.223 4.81-.107 6.792 1.116 2.146 1.317 3.394 3.848 3.326 6.333-.069 2.484-1.364 4.863-3.31 6.473-1.44 1.19-3.23 1.998-4.423 3.428-.62.744-1.052 1.63-1.711 2.34-1.769 1.913-4.969 2.136-7.244.844-2.275-1.293-3.637-3.826-3.934-6.391-.298-2.565.356-5.161 1.363-7.545.57-1.34 1.385-4.721 2.46-5.634 1.136-.989 5.16-.817 6.682-.964Z"/><path fill="#FFF" fill-rule="nonzero" d="M411.163 41.295c2.328-.223 4.81-.107 6.794 1.116 2.146 1.317 3.391 3.849 3.323 6.333-.068 2.485-1.364 4.864-3.307 6.473-1.443 1.19-3.23 2.01-4.425 3.429-.619.743-1.053 1.63-1.71 2.34-1.768 1.912-4.97 2.136-7.246.843-2.275-1.292-3.636-3.826-3.934-6.39-.298-2.565.357-5.161 1.364-7.545.57-1.34 1.382-4.721 2.459-5.634 1.139-.985 5.16-.817 6.682-.965Z"/><path fill="#2B0FD3" fill-rule="nonzero" d="M408.597 52.258s4.508.465 6.01.232c1.501-.232 0 .695 0 .695s-1.002 1.388-6.01-.927Z" opacity=".46"/><g fill-rule="nonzero"><path fill="#52D2BC" d="M397.967 19.582a6.97 6.97 0 0 1 2.986 1.729 7.44 7.44 0 0 1 2.262 4.628l8.171 85.206c.315 3.284-1.782 5.93-4.77 6.22a5.788 5.788 0 0 1-.717.025l-36.097-1.046a6.23 6.23 0 0 1-1.99-.392 6.755 6.755 0 0 0 3.485 1.133l36.104 1.044c.252.007.503-.002.753-.025a5.504 5.504 0 0 0 1.486-.353c2.052-1.271 3.282-3.709 3.01-6.54l-8.171-85.206a8.8 8.8 0 0 0-1.16-3.582 7.982 7.982 0 0 0-1.025-1.08 6.935 6.935 0 0 0-4.327-1.763m-38.558-2.524c-3.594.35-6.107 3.519-5.734 7.447l8.174 85.208a8.922 8.922 0 0 0 2.735 5.568 8.152 8.152 0 0 0 5.243 2.354 8.118 8.118 0 0 1-3.294-1.758 8.927 8.927 0 0 1-1.836-2.22 7.37 7.37 0 0 1-1.583-3.886l-8.174-85.205c-.263-2.718 1.13-5.011 3.329-5.876a6.08 6.08 0 0 1 2.669-.907c.28-.027.56-.036.841-.027l.905.027v-.047l31.744.92v.047l3.447.1a7.205 7.205 0 0 1 2.46.516 7.815 7.815 0 0 0-3.95-1.246l-36.108-1.044a6.847 6.847 0 0 0-.866.03"/><path fill="#3E1EC4" d="M372.654 65.655c0 .036-.016.072-.023.11 0-.038.014-.074.023-.11m23.056-46.43c-.027 3.459-2.372 6.143-5.627 6.458a6.528 6.528 0 0 1-.846.03l-16.787-.487c.26.038.52.06.783.068l17.429.505c.268.008.536-.001.803-.027 3.198-.309 5.48-3.047 5.326-6.518l-1.08-.03m9.447 85.661-34.103-.988-.643-6.696 34.103.988.643 6.696m-.973-10.138-34.103-.987-.642-6.697 34.103.988.642 6.696m-5.711-59.522-34.1-.98-.322-3.349 34.103.988.319 3.348m-35.392-17.113.018.177a6.323 6.323 0 0 0-.75.025c-3.104.299-5.289 3.047-4.959 6.465l8.174 85.205c.03.32.081.639.154.952a7.856 7.856 0 0 0 3.339 4.77 6.23 6.23 0 0 0 1.988.395l36.104 1.044c.24.008.479 0 .717-.022 2.99-.29 5.087-2.945 4.772-6.221l-8.174-85.205a7.43 7.43 0 0 0-2.261-4.631 6.993 6.993 0 0 0-2.986-1.729l-1.665-.047c.195 3.851-2.325 6.92-5.905 7.27-.3.028-.603.038-.905.03l-17.415-.506a8.152 8.152 0 0 1-4.58-1.642 8.847 8.847 0 0 1-4.691-6.117l-.943-.027-.018-.177m-3.579.328c-2.193.864-3.591 3.152-3.329 5.875l8.172 85.207c.14 1.421.69 2.77 1.583 3.883a8.58 8.58 0 0 1-.954-2.397 7.91 7.91 0 0 1-.175-1.06l-8.171-85.205c-.263-2.719.904-5.068 2.868-6.303"/><path fill="#52D2BC" d="M399.205 19.333a6.993 6.993 0 0 1 2.985 1.729 7.43 7.43 0 0 1 2.262 4.63l8.174 85.206c.314 3.284-1.782 5.93-4.772 6.22-.239.023-.478.03-.717.023l-36.105-1.044a6.23 6.23 0 0 1-1.988-.394 6.755 6.755 0 0 0 3.485 1.132l36.105 1.047c.251.007.503-.002.753-.027a5.42 5.42 0 0 0 1.484-.354c2.053-1.27 3.284-3.706 3.012-6.54l-8.165-85.21a8.752 8.752 0 0 0-1.16-3.572 7.74 7.74 0 0 0-1.027-1.081 6.93 6.93 0 0 0-4.326-1.765m-38.557-2.526c-3.594.35-6.106 3.518-5.733 7.449l8.174 85.205a8.925 8.925 0 0 0 2.732 5.569 8.152 8.152 0 0 0 5.245 2.354 8.113 8.113 0 0 1-3.293-1.756 8.938 8.938 0 0 1-1.837-2.223 7.367 7.367 0 0 1-1.583-3.883l-8.172-85.207c-.262-2.719 1.131-5.011 3.33-5.874a6.1 6.1 0 0 1 2.666-.907c.28-.026.562-.034.844-.025l.905.025a.338.338 0 0 1 0-.047l31.743.922v.045l3.447.1c.842.027 1.672.2 2.454.51a7.833 7.833 0 0 0-3.949-1.24l-36.106-1.046a7.296 7.296 0 0 0-.867.03"/><path fill="#52D2BC" d="M364.043 18.316a8.847 8.847 0 0 0 4.691 6.117 12.641 12.641 0 0 1-.574-.453 9.345 9.345 0 0 1-2.963-4.905 8.456 8.456 0 0 1-.136-.727l-1.018-.03m-.12-.824a.338.338 0 0 0 0 .047l1.42.041c.106.005.206.05.281.125.08.074.13.175.14.283.033.34.089.679.166 1.012a8.43 8.43 0 0 0 2.666 4.418 7.594 7.594 0 0 0 3.845 1.812l16.787.487c.282.009.565 0 .846-.029 3.255-.315 5.6-3 5.627-6.459l-10.48-.303a.453.453 0 0 1-.417-.36v-.04a.324.324 0 0 1 .29-.375h.045l10.537.306v-.046l-31.755-.922"/><path fill="#F9879A" d="m363.788 16.85-.023-.213-.043-.385.043.385.023.213.02.177.943.027 1.018.03c.033.244.078.487.136.727a9.345 9.345 0 0 0 2.963 4.904c.185.161.377.315.574.454a8.134 8.134 0 0 0 4.58 1.642l17.416.505c.302.01.604 0 .904-.03 3.58-.348 6.107-3.397 5.906-7.27l1.664.049a6.93 6.93 0 0 1 4.325 1.764c.376.327.72.689 1.027 1.08a7.767 7.767 0 0 1 1.468 3.05c.073.313.124.631.154.952l8.174 85.205c.273 2.84-1.19 5.21-3.475 6.117a5.42 5.42 0 0 1-1.483.353c-.25.025-.502.034-.753.027l-36.105-1.046a6.748 6.748 0 0 1-3.485-1.133 7.578 7.578 0 0 1-.842-.634 7.884 7.884 0 0 1-2.488-4.133 7.063 7.063 0 0 1-.151-.951l-8.174-85.205c-.33-3.419 1.852-6.167 4.958-6.466.25-.023.5-.031.75-.025l-.02-.177m-.905-.573a6.1 6.1 0 0 0-2.666.906c-1.963 1.235-3.13 3.578-2.868 6.303l8.172 85.205c.034.357.091.711.172 1.06.192.84.508 1.645.938 2.39a8.889 8.889 0 0 0 1.837 2.223 8.086 8.086 0 0 0 3.293 1.756c.51.133 1.034.209 1.56.226l36.105 1.047c.28.008.562-.001.841-.03 3.483-.34 5.901-3.398 5.537-7.204l-8.172-85.203a7.818 7.818 0 0 0-.174-1.058 8.781 8.781 0 0 0-2.79-4.619 8.264 8.264 0 0 0-2.4-1.47 7.327 7.327 0 0 0-2.454-.51l-3.447-.1-10.54-.306h-.043a.323.323 0 0 0-.29.377v.038c.042.2.212.348.416.36l10.481.304 1.082.03c.153 3.47-2.129 6.209-5.327 6.517a6.284 6.284 0 0 1-.803.027l-17.429-.505a6.397 6.397 0 0 1-.782-.068 7.594 7.594 0 0 1-3.845-1.812 8.416 8.416 0 0 1-2.656-4.416 7.875 7.875 0 0 1-.165-1.012.453.453 0 0 0-.14-.284.425.425 0 0 0-.28-.124l-1.421-.04-.905-.026a6.501 6.501 0 0 0-.843.025"/><path fill="#F9879A" d="m369.44 87.07.642 6.699 34.103.985-.642-6.699-34.103-.985"/><path fill="#BBC4EF" d="m364.052 30.896.321 3.351 34.103.985-.321-3.348-34.103-.988"/><path fill="#52D2BC" d="m370.412 97.208.645 6.696 34.101.988-.643-6.697-34.103-.987"/></g><path fill="#FFF" fill-rule="nonzero" d="M413.988 41.585c-1.267-.237-2.557-.474-3.84-.346-2.658.265-5.068 2.314-5.493 4.852-.425 2.537 1.324 5.291 3.91 5.936.783.161 1.583.234 2.383.217a4.992 4.992 0 0 0 1.6-.139 4.573 4.573 0 0 0 1.354-.781c.942-.708 1.862-1.476 2.485-2.455 1.703-2.626.992-6.65-2.399-7.284zm-4.294 19.162c-.884.91-1.782 1.82-2.37 2.959-1.237 2.357-.888 5.578.944 7.451 1.83 1.873 5.028 2.087 6.967.34a10.199 10.199 0 0 0 1.484-1.833c.326-.421.584-.896.763-1.407.122-.52.157-1.06.105-1.593-.062-1.201-.185-2.424-.646-3.532-1.215-2.975-4.877-4.805-7.247-2.385zm.013 22.822c.226 1.355 1.015 2.71 2.292 3.216.335.133.02-.253.181.07.247.495.495 4.7.495 4.949 0 .955 3.47-.51 4.345-.904l4.612-2.033c.904-.393 1.808-.81 2.445-1.556 1.11-1.319.984-3.264.613-4.944-.386-1.757-.99-3.505-2.109-4.913-1.119-1.407-2.817-2.439-4.616-2.416-1.395.015-2.713.648-3.893 1.39-2.884 1.824-4.982 3.463-4.365 7.14z"/><path fill="#2B0FD3" fill-rule="nonzero" d="M411.268 86.474c.083.075.168.143.255.204.026.017.052.03.079.037l-.334-.241Z" opacity=".18"/><path fill="#2B0FD3" fill-rule="nonzero" d="m421.52 88.61.43-.21c-2.153.069-6.275-.095-9.68-1.973.24.535.484 5.082.484 5.35 0 1.034 3.397-.551 4.253-.976l4.514-2.19Z" opacity=".48"/><path fill="#FFF" fill-rule="nonzero" d="M414.919 90.424c2.541-.658 5.397-.294 7.509 1.254 2.111 1.55 3.322 4.341 2.695 6.881-.329 1.332-1.11 2.513-1.958 3.592-.689.87-1.753 2.16-3.08 3.705-.555-.347-1.12-.685-1.683-1.03-2.318-1.44-2.817-1.858-5.284-3.055a1.957 1.957 0 0 0-.306-.118 1.64 1.64 0 0 0-.326-.686c-.354-.425-2.277-1.466-2.675-1.848-1.04-.998-1.066-2.689-.554-4.032.906-2.364 3.194-4.025 5.662-4.663Z"/><path fill="#D3637B" fill-rule="nonzero" d="M231.375 149.469c-.025-2.828-2.345-1.357-2.345-1.357s-2.143.791-3.296 2.51c-1.153 1.72-5.7 5.834-5.7 5.836l-10.907 7.591-23.856 71.93c6.769-.226 13.524-.203 20.293.131 7.13.368 14.253.722 21.368 1.061 3.682-32.217 3.93-69.36 4.443-73.022.656-4.678.024-11.853 0-14.68Z"/><path fill="#52D2BC" fill-rule="nonzero" d="M231.24 148.945c-.025-3.065-2.415-1.471-2.415-1.471s-2.209.858-3.397 2.721c-.502.79-1.628 2.043-2.77 3.23 0 0 2.912-2.274 4.074-2.028 1.163.245 1.395.98 3.023.98a2.873 2.873 0 0 0 1.583-.561 92.122 92.122 0 0 1-.097-2.871Z"/><path fill="#6534FF" fill-rule="nonzero" d="M217.308 157.219a.552.552 0 0 0 .119-.77.548.548 0 0 0-.768-.12l-8.519 6.262a.551.551 0 0 0-.198.275l-23.194 71.79a.549.549 0 1 0 1.045.34l23.14-71.621 8.375-6.156Z"/><path fill="#6534FF" fill-rule="nonzero" d="M195.207 220.907a13.988 13.988 0 0 0 .968-17.905l-7.232 21.775a13.901 13.901 0 0 0 6.264-3.87Z" opacity=".18"/><ellipse cx="254.372" cy="192.953" fill="#D3637B" fill-rule="nonzero" rx="2.671" ry="2.68"/><ellipse cx="253.37" cy="202.667" fill="#D3637B" fill-rule="nonzero" rx="2.671" ry="2.68"/><ellipse cx="251.367" cy="213.052" fill="#D3637B" fill-rule="nonzero" rx="2.671" ry="2.68"/><ellipse cx="254.372" cy="191.948" fill="#6535FF" fill-rule="nonzero" rx="2.671" ry="2.68"/><ellipse cx="252.703" cy="201.998" fill="#6535FF" fill-rule="nonzero" rx="2.671" ry="2.68"/><ellipse cx="251.034" cy="212.047" fill="#6535FF" fill-rule="nonzero" rx="2.671" ry="2.68"/><ellipse cx="233.842" cy="122.438" fill="#FFF" fill-rule="nonzero" rx="3.839" ry="4.522"/><path fill="#2B0FD3" fill-rule="nonzero" d="M233.893 126.96a3.437 3.437 0 0 0 1.753-.488c.24-.986.578-1.947 1.01-2.868.33-.707.7-1.435 1.025-2.174-.396-2.008-1.939-3.514-3.788-3.514-2.146 0-3.89 2.024-3.89 4.52 0 .225.016.448.046.67.099.42.205.835.318 1.246.622 1.535 1.966 2.608 3.526 2.608Z" opacity=".46"/><path fill="#F9879A" fill-rule="nonzero" d="M250.868 115.227a8.771 8.771 0 0 0 .9 4.028c.1.2.206.385.32.57.158.256.868 1.255.979 1.475.109.216.15.395.133.592-.049.57-.577 1.119-1.445 1.617a.503.503 0 0 0-.185.686.5.5 0 0 0 .683.186c1.128-.648 1.86-1.407 1.945-2.403a2.044 2.044 0 0 0-.238-1.132c-.152-.3-.898-1.351-1.02-1.55a6.982 6.982 0 0 1-.278-.493 7.757 7.757 0 0 1-.793-3.559.502.502 0 1 0-1.001-.017Z"/><path fill="#6534FF" fill-rule="nonzero" d="m207.437 183.78-12.352 51.923a.55.55 0 1 0 1.068.256l12.352-51.923a.55.55 0 1 0-1.068-.256Z"/><path fill="#3E1EC4" fill-rule="nonzero" d="M342.755 104.457c-.345.038-.918.148-1.644.368a12.746 12.746 0 0 0-3.53 1.684c-4.832 3.316-6.664 9.451-3.84 18.985a.73.73 0 1 0 1.401-.418c-1.447-4.886-1.603-8.802-.692-11.853.727-2.435 2.106-4.233 3.957-5.503a11.3 11.3 0 0 1 4.15-1.746 5.13 5.13 0 0 1 .357-.059.733.733 0 0 0-.16-1.458zm-60.47 52.948a86.493 86.493 0 0 0 8.79-3.423 85.439 85.439 0 0 0 8.007-4.154 98.202 98.202 0 0 0 2.836-1.731c.547-.346 2.081-1.333 2.048-1.312 5.899-3.78 12.819-7.286 21.407-10.493a.664.664 0 0 0-.462-1.244c-8.677 3.242-15.68 6.79-21.655 10.618.03-.019-1.5.966-2.043 1.309a96.9 96.9 0 0 1-2.798 1.708 84.125 84.125 0 0 1-9.1 4.63 85.184 85.184 0 0 1-7.441 2.83.664.664 0 0 0 .41 1.262zm58.142-20.121 20.03-8.71a.664.664 0 0 0-.527-1.217l-20.029 8.71a.664.664 0 0 0 .526 1.217z"/><path fill="#6534FF" fill-rule="nonzero" d="M305.78 125.77c.003-1.894-.39-3.77-1.155-5.51-7.97 4.494-16.738 9.296-24.549 13.522 3.549 4.962 9.955 7.09 15.832 5.257 5.878-1.831 9.872-7.2 9.872-13.268Z" opacity=".18"/><path fill="#6534FF" fill-rule="nonzero" d="m244.821 204.23-7.01 33.498a.55.55 0 1 0 1.075.227l7.01-33.5a.55.55 0 1 0-1.075-.227Z"/><path fill="#3E1EC4" fill-rule="nonzero" d="M410.499 48.622c-2.113-.796-2.564-3.505-.9-5.29a.665.665 0 0 0-.03-.938.66.66 0 0 0-.935.031c-2.279 2.446-1.638 6.295 1.4 7.44a.664.664 0 0 0 .465-1.242Z"/><path fill="#4E15CC" fill-rule="nonzero" d="M412.603 70.682a3.642 3.642 0 0 1-1.782-1.117 3.716 3.716 0 0 1-.888-2.232"/><path fill="#3E1EC4" fill-rule="nonzero" d="M411.16 80.501c-.592 1.602.05 3.462 1.483 4.175a.66.66 0 0 0 .886-.3.664.664 0 0 0-.298-.888c-.803-.4-1.196-1.538-.831-2.525a.66.66 0 1 0-1.24-.461zm.597 12.542c-1.103 1.36-1.447 3.473-.883 5.304a.66.66 0 1 0 1.263-.391c-.437-1.422-.168-3.072.645-4.076a.665.665 0 0 0-.096-.933.66.66 0 0 0-.93.096z"/><path fill="#6534FF" fill-rule="nonzero" d="m277.543 210.075.012-.205a39.202 39.202 0 0 0 .027-4.042c-.05-1.018-.149-1.9-.308-2.611a.55.55 0 1 0-1.072.241c.144.64.237 1.464.284 2.424a38.144 38.144 0 0 1-.039 4.118.55.55 0 1 0 1.096.075Z"/><path fill="#2B0FD3" fill-rule="nonzero" d="M219.1 205.203c1.234-7.56 6.031-13.985 9.02-21.038a45.8 45.8 0 0 0 2.77-9.119c.203-6.035.332-10.111.486-11.204.073-.513.127-1.059.17-1.624-.027-.321-.054-.64-.09-.961l.146.097c.114-2.122.07-4.463 0-6.59a15.7 15.7 0 0 0-5.96 5.55c-2.011 3.252-2.808 7.222-5.251 10.167-3.395 4.072-9.556 5.728-11.597 10.632-.891 2.14-.806 4.55-1.33 6.807-.568 2.439-1.831 4.644-2.883 6.913-1.826 3.936-3.039 8.128-4.114 12.333a207.024 207.024 0 0 0-5.181 28.374c3.4.02 6.802.112 10.207.278l6.851.348c3.01-5.094 5.483-10.453 6.15-16.287.56-4.87-.183-9.838.607-14.676Z" opacity=".46"/><path fill="#3E1EC4" fill-rule="nonzero" d="M235.162 113.432a5.725 5.725 0 0 1 .275-3.008 5.44 5.44 0 0 1 1.288-1.942c.408-.402.752-.66 1.365-1.064.585-.384.884-.488 1.678-.662.496-.108.777-.202 1.106-.415.103-.066.203-.14.3-.225 1.273-1.107 1.622-3.288.804-6.792a.731.731 0 1 0-1.424.335c.708 3.028.445 4.668-.337 5.348a1.156 1.156 0 0 1-.133.1c-.145.094-.289.142-.627.216-.953.208-1.4.363-2.169.868-.688.454-1.095.759-1.588 1.245a6.904 6.904 0 0 0-1.63 2.466 7.202 7.202 0 0 0-.348 3.787.731.731 0 1 0 1.44-.257Z"/><path fill="#F9879A" fill-rule="nonzero" d="M359.27 62.088c5.193-1.199 9.407 3.192 9.892 2.489.69-1.007-6.806-11.457-17.313-11.312-.571 0-9.909.246-11.467 5.656-1.406 4.88 4.288 11.312 8.544 11.086 4.146-.218 4.73-6.623 10.343-7.919zm4.924-15.997c-.205.741-7.25 1.2-11.403-3.35-3.026-3.318-4.392-9.163-2.211-11.114 1.901-1.704 6.567-.49 7.226 1.574.63 1.96-2.75 3.415-2.534 6.072.346 4.186 9.16 5.961 8.922 6.818z"/><path fill="#6535FF" fill-rule="nonzero" d="M350.177 47.105c.193 1.692-12.877 8.128-22.43 2.655-.662-.378-7.486-4.402-6.91-9.706.587-5.39 8.544-9.621 13.018-7.801 4.643 1.888 3.373 9.424 9.731 12.996 3.562 2.002 6.5 1.06 6.59 1.856Z"/><path fill="#FCCDD3" fill-rule="nonzero" d="M322.642 38.922c.013.097.042.264.093.493.084.374.202.789.36 1.235a12.592 12.592 0 0 0 2.085 3.718c3.379 4.177 9.214 6.233 18.054 5.053a.502.502 0 0 0-.132-.996c-8.509 1.135-13.996-.798-17.144-4.69a11.592 11.592 0 0 1-1.92-3.422 9.797 9.797 0 0 1-.326-1.119 4.852 4.852 0 0 1-.076-.4.501.501 0 1 0-.994.128Z"/><path fill="#6535FF" fill-rule="nonzero" d="m347.529 52.094-.058-.002c-.483-.01-1.152.022-1.943.132-1.22.17-2.43.491-3.566 1.002-3.512 1.578-5.637 4.62-5.637 9.417a.502.502 0 1 0 1.002 0c0-4.386 1.88-7.078 5.045-8.5a12.138 12.138 0 0 1 3.294-.924 13.11 13.11 0 0 1 1.18-.111 8.907 8.907 0 0 1 .641-.01.501.501 0 0 0 .042-1.004Z"/><ellipse cx="308.117" cy="88.102" fill="#F9879A" fill-rule="nonzero" rx="4.673" ry="4.69"/><ellipse cx="110.495" cy="171.179" fill="#3E1EC4" fill-rule="nonzero" rx="4.673" ry="4.69"/><ellipse cx="300.606" cy="76.21" fill="#F9879A" fill-rule="nonzero" rx="2.504" ry="2.512"/><ellipse cx="417.11" cy="181.731" fill="#52D2BC" fill-rule="nonzero" rx="2.504" ry="2.512"/><ellipse cx="430.796" cy="175.031" fill="#FFF" fill-rule="nonzero" rx="2.504" ry="2.512"/><ellipse cx="433.467" cy="24.287" fill="#FFF" fill-rule="nonzero" rx="2.504" ry="2.512"/><ellipse cx="101.649" cy="149.237" fill="#3E1EC4" fill-rule="nonzero" rx="2.504" ry="2.512"/><ellipse cx="314.293" cy="73.53" fill="#62BCF9" fill-rule="nonzero" rx="7.177" ry="7.202"/><path fill="#6535FF" fill-rule="nonzero" d="M338.662 184.96c3.99 0 7.224-3.245 7.224-7.25 0-4.003-3.235-7.248-7.224-7.248-3.99 0-7.224 3.245-7.224 7.249s3.234 7.249 7.224 7.249Zm0-.094c-3.938 0-7.13-3.203-7.13-7.155 0-3.952 3.192-7.155 7.13-7.155 3.938 0 7.13 3.203 7.13 7.155 0 3.952-3.192 7.155-7.13 7.155Z"/><ellipse cx="82.287" cy="142.872" fill="#62BCF9" fill-rule="nonzero" rx="7.177" ry="7.202"/><path fill="#3E1EC4" fill-rule="nonzero" d="M427.625 159.765v-9.33c0-.856-.451-1.647-1.184-2.074l-7.982-4.666a2.346 2.346 0 0 0-2.366 0l-7.983 4.666a2.398 2.398 0 0 0-1.182 2.073v9.33a2.4 2.4 0 0 0 1.182 2.074l7.983 4.664c.731.43 1.634.43 2.366 0l7.982-4.664a2.398 2.398 0 0 0 1.184-2.073Z" opacity=".32"/><path fill="#F9879A" fill-rule="nonzero" d="M428.293 159.092v-9.326c0-.856-.459-1.647-1.203-2.076l-8.108-4.665a2.414 2.414 0 0 0-2.403 0l-8.116 4.66c-.743.43-1.2 1.22-1.2 2.077v9.33c0 .856.457 1.647 1.2 2.076l8.107 4.666c.744.427 1.66.427 2.403 0l8.108-4.666a2.396 2.396 0 0 0 1.212-2.076Z"/><path fill="#FFF" fill-rule="nonzero" d="M427.864 148.742c0-.94-.497-1.807-1.303-2.277l-7.985-4.653a2.589 2.589 0 0 0-2.605 0l-7.98 4.648a2.633 2.633 0 0 0-1.301 2.277v9.317a2.63 2.63 0 0 0 1.3 2.277.24.24 0 0 0 .24-.414 2.151 2.151 0 0 1-1.063-1.863v-9.317c0-.768.405-1.478 1.063-1.863l7.98-4.648a2.113 2.113 0 0 1 2.127 0l7.984 4.653a2.156 2.156 0 0 1 1.066 1.863.24.24 0 1 0 .477 0Z"/><path fill="#FFF" fill-rule="nonzero" d="m423.993 155.597.962-1.67-.962-1.671v-1.931l-1.666-.965-.962-1.671h-1.922l-1.664-.964-1.667.964h-1.923l-.961 1.671-1.664.965v1.931l-.964 1.671.964 1.67v1.932l1.664.965.961 1.67h1.923l1.667.965 1.664-.965h1.922l.962-1.67 1.666-.965z"/><path fill="#6535FF" fill-rule="nonzero" d="M421.21 147.258a.239.239 0 0 0-.209-.122h-1.852l-1.605-.953a.238.238 0 0 0-.243 0l-1.604.953h-1.852a.239.239 0 0 0-.207.122l-.93 1.653-1.605.953a.24.24 0 0 0-.117.206v1.909l-.927 1.652a.24.24 0 0 0 0 .235l.927 1.655v1.908a.24.24 0 0 0 .117.206l1.605.953.93 1.654a.239.239 0 0 0 .207.122h1.917a.24.24 0 0 0 0-.48h-1.777l-.892-1.587a.24.24 0 0 0-.087-.088l-1.542-.916v-1.835a.24.24 0 0 0-.031-.118l-.893-1.591.893-1.59a.24.24 0 0 0 .03-.117v-1.835l1.543-.916a.24.24 0 0 0 .087-.089l.892-1.587h1.777a.238.238 0 0 0 .122-.034l1.538-.913 1.54.913a.238.238 0 0 0 .122.034h1.778l.89 1.587a.24.24 0 0 0 .086.089l1.66.985c.113.068.26.03.327-.084a.24.24 0 0 0-.084-.328l-1.605-.953-.927-1.653Zm-2.126-.122.122.033-.057-.033h-.065Z"/><ellipse cx="417.777" cy="153.927" fill="#62BCF9" fill-rule="nonzero" rx="2.837" ry="2.847"/><path fill="#6535FF" fill-rule="nonzero" d="M416.737 156.259c-.671-.587-1-1.516-.858-2.434.14-.916.728-1.68 1.536-2.006a2.288 2.288 0 0 1 2.376.418c.099.087.25.076.336-.024a.24.24 0 0 0-.023-.338 2.764 2.764 0 0 0-2.867-.5c-.967.389-1.664 1.296-1.83 2.377-.166 1.08.22 2.172 1.017 2.868.1.087.25.076.337-.024a.24.24 0 0 0-.024-.337Z"/><path fill="#6534FF" fill-rule="nonzero" d="m427.101 147.673-7.97-4.667a2.33 2.33 0 0 0-.887-.301 4.63 4.63 0 0 0-.362 1.142c-.246 1.334.015 2.707.387 4.009.372 1.302.856 2.574 1.074 3.91a10.164 10.164 0 0 1-.608 5.43c-.9 2.235-2.603 4.112-3.236 6.44-.114.43-.19.871-.225 1.316l1.504.882a2.338 2.338 0 0 0 2.363 0l7.97-4.667a2.405 2.405 0 0 0 1.182-2.077v-9.336c0-.86-.455-1.654-1.192-2.08Z" opacity=".32"/><path fill="#FFF" fill-rule="nonzero" d="m419.074 165.016 7.344-4.69a.24.24 0 0 0 .073-.33.238.238 0 0 0-.33-.074l-7.343 4.69a.24.24 0 0 0-.074.33c.071.112.219.145.33.074Z"/><path fill="#3E1EC4" fill-rule="nonzero" d="M173.587 101.825V97.83a1.024 1.024 0 0 0-.516-.893l-3.477-1.998a1.035 1.035 0 0 0-1.03 0l-3.476 1.998c-.32.184-.517.525-.514.893v3.995c-.003.368.194.709.514.893l3.476 1.996c.32.183.712.183 1.03 0l3.477-1.996c.32-.184.518-.525.516-.893Z" opacity=".32"/><path fill="#F9879A" fill-rule="nonzero" d="M173.587 101.48v-3.989a1.02 1.02 0 0 0-.514-.892l-3.476-1.995a1.036 1.036 0 0 0-1.03 0l-3.477 1.995c-.32.184-.518.524-.516.892v3.99c-.002.367.195.708.516.891l3.477 2.007c.318.183.711.183 1.03 0l3.476-2.007a1.02 1.02 0 0 0 .514-.892Z"/><path fill="#FFF" fill-rule="nonzero" d="M173.692 96.87a1.15 1.15 0 0 0-.568-.998l-3.477-2.027a1.126 1.126 0 0 0-1.136 0l-3.476 2.032a1.149 1.149 0 0 0-.566.998v4.054c-.003.41.213.792.566.998a.106.106 0 0 0 .106-.182.937.937 0 0 1-.462-.815v-4.055a.938.938 0 0 1 .462-.816l3.476-2.032a.916.916 0 0 1 .925 0l3.476 2.027a.94.94 0 0 1 .464.816.105.105 0 1 0 .21 0Z"/><path fill="#FFF" fill-rule="nonzero" d="m171.827 100.398.425-.74-.425-.738v-.853l-.735-.426-.425-.738h-.851l-.735-.427-.736.427h-.849l-.425.738-.735.426v.853l-.427.738.427.74v.853l.735.426.425.738h.849l.736.426.735-.426h.851l.425-.738.735-.426z"/><path fill="#6535FF" fill-rule="nonzero" d="m171.224 96.897.038.039-.014-.025-.024-.014Zm-.393-.71a.105.105 0 0 0-.091-.053h-.835l-.724-.419a.105.105 0 0 0-.105 0l-.723.419h-.834a.105.105 0 0 0-.091.053l-.418.724-.722.42a.106.106 0 0 0-.053.09v.838l-.417.727a.106.106 0 0 0 0 .106l.417.725v.837c0 .038.02.073.053.091l.722.42.418.724a.105.105 0 0 0 .09.053h.863a.105.105 0 0 0 0-.211h-.802l-.4-.697-.04-.039-.693-.402v-.805l-.014-.052-.401-.697.4-.7.015-.052v-.805l.694-.402.038-.039.401-.696h.802l.053-.014.694-.403.697.403.052.014h.802l.401.696.039.039.746.433c.05.03.115.012.144-.039a.106.106 0 0 0-.038-.144l-.723-.419-.417-.724Zm-4.581 3.654-.015-.053v.029l.015.024Z"/><ellipse cx="169.581" cy="99.491" fill="#62BCF9" fill-rule="nonzero" rx="1.001" ry="1.005"/><path fill="#6535FF" fill-rule="nonzero" d="M169.029 100.418c-.258-.231-.385-.6-.332-.967.053-.364.277-.668.584-.795a.834.834 0 0 1 .897.17c.042.04.109.036.148-.006a.106.106 0 0 0-.006-.15 1.044 1.044 0 0 0-1.12-.21c-.377.157-.648.524-.711.96-.064.436.088.876.4 1.155.043.039.11.035.148-.008a.106.106 0 0 0-.008-.15Z"/><path fill="#6534FF" fill-rule="nonzero" d="m173.377 96.597-3.679-2.003a1.122 1.122 0 0 0-.41-.127 1.816 1.816 0 0 0-.167.485 3.543 3.543 0 0 0 .178 1.718c.2.55.365 1.11.497 1.679.136.785.039 1.59-.28 2.327-.421.957-1.202 1.76-1.495 2.758-.054.186-.09.375-.109.566l.696.379c.337.183.753.183 1.09 0l3.679-2.014c.34-.185.547-.526.544-.895v-3.985c0-.367-.207-.705-.544-.888Z" opacity=".32"/><path fill="#FFF" fill-rule="nonzero" d="m169.966 103.603 3.005-1.675a.106.106 0 0 0 .04-.143.105.105 0 0 0-.143-.041l-3.004 1.675a.106.106 0 0 0-.04.143c.027.051.091.07.142.041Z"/><path fill="#6534FF" fill-rule="nonzero" d="m94.482 179.688-.846-1.469-.061-1.697a2.362 2.362 0 0 0-1.25-1.997l-1.174-.623-.665-1.145a2.35 2.35 0 0 0-2.037-1.18h-1.693l-1.496-.795a2.345 2.345 0 0 0-2.348.087l-1.126.708h-1.33a2.343 2.343 0 0 0-2.035 1.18l-.847 1.47-1.435.9a2.359 2.359 0 0 0-1.099 2.085l.048 1.33-.664 1.146c-.42.73-.42 1.629 0 2.359l.845 1.468.061 1.697a2.362 2.362 0 0 0 1.25 1.998l1.179.623.664 1.145a2.343 2.343 0 0 0 2.036 1.18h1.411v3.813a.323.323 0 0 0 .528.247l1.994-1.667a.321.321 0 0 1 .416 0l1.887 1.642a.321.321 0 0 0 .532-.245v-3.781h1.233c.841 0 1.618-.45 2.038-1.18l.845-1.47 1.435-.9a2.359 2.359 0 0 0 1.098-2.085l-.048-1.33.665-1.146a2.365 2.365 0 0 0-.011-2.368Z" opacity=".32"/><path fill="#62BCF9" fill-rule="nonzero" d="m88.233 193.849-2-1.76a.337.337 0 0 0-.44 0l-2.113 1.79a.337.337 0 0 1-.362.046.347.347 0 0 1-.196-.312v-4.669c0-.19.152-.346.34-.346h4.993c.189 0 .341.155.341.346v4.669a.346.346 0 0 1-.21.294.337.337 0 0 1-.353-.058Z"/><ellipse cx="86.126" cy="187.761" fill="#6534FF" fill-rule="nonzero" opacity=".32" rx="3.004" ry="2.847"/><path fill="#BBC4EF" fill-rule="nonzero" d="m95.822 178.882-.845-1.448-.062-1.674a2.323 2.323 0 0 0-1.25-1.97l-1.174-.604-.665-1.13a2.356 2.356 0 0 0-2.038-1.163h-1.691l-1.497-.784a2.374 2.374 0 0 0-2.35.086l-1.127.698h-1.33c-.84 0-1.616.444-2.036 1.164l-.847 1.448-1.433.89a2.313 2.313 0 0 0-1.101 2.056l.048 1.313-.665 1.13a2.3 2.3 0 0 0 0 2.324l.848 1.45.061 1.675c.031.83.508 1.58 1.25 1.97l1.175.614.664 1.13a2.358 2.358 0 0 0 2.036 1.164h1.693l1.497.781a2.379 2.379 0 0 0 2.35-.083l1.127-.698h1.328a2.36 2.36 0 0 0 2.038-1.164l.845-1.45 1.435-.888a2.322 2.322 0 0 0 1.101-2.056l-.048-1.315.663-1.13a2.3 2.3 0 0 0 0-2.336Z"/><path fill="#6534FF" fill-rule="nonzero" d="M91.707 171.235a2.588 2.588 0 0 0-2.244-1.309h-1.58l-1.387-.746a2.572 2.572 0 0 0-2.593.094l-1.03.655H81.66c-.926 0-1.781.5-2.244 1.31l-.803 1.379-1.343.847a2.628 2.628 0 0 0-1.209 2.312l.044 1.23-.608 1.057a2.643 2.643 0 0 0 0 2.619l.792 1.387.058 1.6a2.62 2.62 0 0 0 1.39 2.231l1.071.574.608 1.057a2.586 2.586 0 0 0 2.244 1.311h1.58l1.398.75c.82.439 1.808.402 2.593-.097a.295.295 0 0 0 .091-.407.293.293 0 0 0-.405-.091 1.981 1.981 0 0 1-2.002.075l-1.462-.784a.293.293 0 0 0-.139-.035H81.66a2 2 0 0 1-1.735-1.015l-.65-1.131a.294.294 0 0 0-.116-.113l-1.148-.615a2.031 2.031 0 0 1-1.077-1.731l-.06-1.673a.296.296 0 0 0-.039-.136l-.828-1.45a2.051 2.051 0 0 1 0-2.032l.649-1.13a.296.296 0 0 0 .04-.157l-.048-1.315a2.038 2.038 0 0 1 .936-1.793l1.403-.885a.294.294 0 0 0 .098-.1l.84-1.444a2.002 2.002 0 0 1 1.735-1.016h1.3c.055 0 .11-.016.157-.046l1.1-.7a1.985 1.985 0 0 1 2.002-.072l1.45.781c.044.023.091.035.14.035h1.654c.715 0 1.376.386 1.735 1.013l.65 1.13a.294.294 0 0 0 .116.113l1.147.617c.634.34 1.041.995 1.067 1.721a.294.294 0 1 0 .587-.02 2.62 2.62 0 0 0-1.377-2.22l-1.073-.578-.608-1.057Zm-8.905-1.26.157-.046h-.085l-.072.046Zm-6.477 12.158-.038-.136.002.073.036.063Z"/><path fill="#6534FF" fill-rule="nonzero" d="m94.986 177.53-.061-1.665a2.31 2.31 0 0 0-1.244-1.959l-1.168-.6-.661-1.123a2.344 2.344 0 0 0-2.027-1.157h-1.682l-.348-.182c.054.696.069 1.395.043 2.094.016.854.168 1.766.757 2.388.32.288.66.555 1.014.8a3.69 3.69 0 0 1 1.318 3.245c-.13 1.08-.741 2.076-.777 3.163-.037 1.146.57 2.229.602 3.37a3.414 3.414 0 0 1-.577 1.991c-.323.481-.769.88-1.066 1.373h.716c.836 0 1.608-.441 2.027-1.157l.84-1.443 1.428-.883a2.31 2.31 0 0 0 1.096-2.044l-.048-1.308.659-1.123a2.287 2.287 0 0 0 0-2.312l-.841-1.468Z" opacity=".32"/><ellipse cx="85.625" cy="186.421" fill="#6534FF" fill-rule="nonzero" opacity=".32" rx="7.177" ry="1"/><path fill="#62BCF9" fill-rule="nonzero" d="M94.892 180.257a1.061 1.061 0 0 1-.797.364H77.498c-.305 0-.595-.132-.799-.364a1.054 1.054 0 0 0-.839-.368c-.319.013-.616.171-.808.432l-.059.08c-.199.27-.266.618-.18.945l.99 3.783a1.486 1.486 0 0 0 1.429 1.124h17.12c.67 0 1.255-.461 1.429-1.124l.991-3.783a1.117 1.117 0 0 0-.181-.945l-.058-.08a1.06 1.06 0 0 0-.806-.426 1.056 1.056 0 0 0-.835.362Z"/><path fill="#6534FF" fill-rule="nonzero" d="M76.284 180.396a1.373 1.373 0 0 0-2.13.084l-.058.077a1.402 1.402 0 0 0-.235 1.198l1.01 3.788c.21.79.922 1.34 1.734 1.34h17.416a1.8 1.8 0 0 0 1.736-1.34.294.294 0 1 0-.567-.153 1.212 1.212 0 0 1-1.17.903H76.606a1.21 1.21 0 0 1-1.166-.902l-1.01-3.787a.81.81 0 0 1 .135-.691l.058-.077a.788.788 0 0 1 1.221-.05.293.293 0 0 0 .415.026.296.296 0 0 0 .026-.416Z"/><path fill="#6534FF" fill-rule="nonzero" d="M89.798 185.79H86.46c-.163 0-.294.225-.294.503 0 .277.131.501.294.501h3.338c.162 0 .294-.224.294-.501 0-.278-.132-.502-.294-.502zm-1.796 5.153v1.34c0 .163.224.295.5.295s.5-.132.5-.295v-1.34c0-.163-.224-.295-.5-.295s-.5.132-.5.295z"/><path fill="#6534FF" fill-rule="nonzero" d="m437.055 8.255-.678-1.16-.047-1.335a1.864 1.864 0 0 0-.987-1.582l-.928-.492-.526-.904a1.854 1.854 0 0 0-1.608-.929h-1.337l-1.179-.633a1.855 1.855 0 0 0-1.856.07l-.89.559h-1.05c-.663-.001-1.276.353-1.608.928l-.677 1.157-1.129.712c-.563.353-.894.98-.87 1.643l.039 1.048-.526.904a1.856 1.856 0 0 0 0 1.858l.677 1.16.05 1.337c.02.666.398 1.27.987 1.582l.928.492.524.904c.332.575.944.929 1.608.929h1.108v3.005a.253.253 0 0 0 .416.197l1.58-1.315a.253.253 0 0 1 .328 0l1.493 1.292a.253.253 0 0 0 .42-.192v-2.983h.973c.663 0 1.276-.354 1.608-.928l.677-1.16 1.13-.711a1.86 1.86 0 0 0 .869-1.64l-.039-1.052.524-.904a1.856 1.856 0 0 0-.004-1.857Z" opacity=".32"/><path fill="#62BCF9" fill-rule="nonzero" d="m431.574 19.027-1.411-1.098a.263.263 0 0 0-.312 0l-1.497 1.116a.264.264 0 0 1-.256.029.216.216 0 0 1-.139-.196v-2.919c.001-.119.109-.215.242-.215h3.524c.133 0 .24.097.24.215v2.905a.215.215 0 0 1-.139.192.262.262 0 0 1-.252-.029Z"/><ellipse cx="430.129" cy="14.739" fill="#6534FF" fill-rule="nonzero" opacity=".32" rx="2.504" ry="2.345"/><path fill="#BBC4EF" fill-rule="nonzero" d="m438.38 7.943-.679-1.164-.05-1.34a1.865 1.865 0 0 0-.986-1.588l-.929-.494-.524-.908a1.858 1.858 0 0 0-1.608-.934h-1.324l-1.183-.628a1.85 1.85 0 0 0-1.855.068l-.89.56h-1.05a1.85 1.85 0 0 0-1.609.934l-.677 1.162-1.13.714c-.566.356-.897.99-.867 1.66l.038 1.055-.524.907a1.869 1.869 0 0 0 0 1.865l.678 1.163.047 1.34a1.87 1.87 0 0 0 .987 1.588l.929.495.526.907c.33.579.944.935 1.608.935h1.338l1.181.628a1.855 1.855 0 0 0 1.857-.068l.89-.56h1.05c.664-.001 1.277-.357 1.609-.935l.677-1.161 1.13-.715c.562-.354.894-.982.87-1.649l-.04-1.052.527-.907a1.869 1.869 0 0 0-.018-1.878Z"/><path fill="#6534FF" fill-rule="nonzero" d="M435.352 1.659A2.136 2.136 0 0 0 433.51.61h-1.306L431.05.008a2.152 2.152 0 0 0-2.126.076l-.85.526h-1.005c-.76 0-1.462.4-1.843 1.05l-.66 1.113-1.103.683a2.098 2.098 0 0 0-.996 1.86l.036.986-.501.848a2.082 2.082 0 0 0 0 2.109l.66 1.112.049 1.283a2.097 2.097 0 0 0 1.133 1.79l.887.462.5.85c.38.65 1.083 1.049 1.843 1.048h1.306l1.154.603c.671.35 1.481.321 2.125-.077a.237.237 0 0 0 .077-.325.235.235 0 0 0-.324-.077 1.683 1.683 0 0 1-1.661.06l-1.205-.63a.235.235 0 0 0-.109-.026h-1.363a1.661 1.661 0 0 1-1.437-.816l-.535-.909a.236.236 0 0 0-.094-.09l-.947-.492a1.625 1.625 0 0 1-.88-1.387l-.05-1.346a.237.237 0 0 0-.034-.112l-.69-1.162a1.607 1.607 0 0 1 0-1.628l.536-.907a.237.237 0 0 0 .033-.13l-.04-1.055a1.625 1.625 0 0 1 .774-1.44l1.152-.713a.236.236 0 0 0 .078-.08l.691-1.165a1.666 1.666 0 0 1 1.438-.818h1.071a.235.235 0 0 0 .124-.035l.907-.56a1.683 1.683 0 0 1 1.662-.06l1.204.629c.034.017.071.026.109.026h1.364c.593 0 1.14.312 1.437.817l.537.909a.236.236 0 0 0 .094.089l.947.493c.524.275.859.804.88 1.387a.236.236 0 1 0 .47-.016 2.109 2.109 0 0 0-1.133-1.79l-.887-.462-.503-.85Zm-12.659 8.763-.033-.112.002.06.031.052Z"/><path fill="#6534FF" fill-rule="nonzero" d="m437.367 6.824-.05-1.359a1.892 1.892 0 0 0-.994-1.61l-.934-.5-.528-.92a1.868 1.868 0 0 0-1.62-.948h-1.332l-.278-.147c.043.57.055 1.14.034 1.71 0 .69.134 1.445.605 1.955.256.235.527.453.81.653a3.061 3.061 0 0 1 1.044 2.66c-.105.883-.594 1.697-.623 2.587-.03.936.455 1.821.482 2.76a2.846 2.846 0 0 1-.455 1.627c-.257.394-.614.72-.853 1.122h.576c.668 0 1.285-.362 1.619-.947l.682-1.177 1.138-.724c.566-.36.9-.997.875-1.672l-.038-1.067.53-.92a1.906 1.906 0 0 0 0-1.89l-.69-1.193Z" opacity=".32"/><ellipse cx="430.129" cy="14.069" fill="#6534FF" fill-rule="nonzero" opacity=".32" rx="5.508" ry="1"/><path fill="#62BCF9" fill-rule="nonzero" d="M437.766 9.02a.836.836 0 0 1-.641.307H423.8a.832.832 0 0 1-.639-.307.828.828 0 0 0-.673-.31.838.838 0 0 0-.649.365l-.047.065a.974.974 0 0 0-.146.796l.796 3.188c.14.558.61.946 1.147.945h13.747c.537 0 1.008-.387 1.147-.945l.796-3.188a.974.974 0 0 0-.144-.796l-.047-.065a.838.838 0 0 0-.649-.365.828.828 0 0 0-.673.31Z"/><path fill="#6534FF" fill-rule="nonzero" d="M423.02 8.866a1.076 1.076 0 0 0-.87-.392 1.085 1.085 0 0 0-.836.462l-.048.07a1.202 1.202 0 0 0-.181.989l.803 3.187c.168.66.734 1.123 1.386 1.124h13.878c.652 0 1.218-.464 1.384-1.124a.235.235 0 1 0-.456-.115c-.115.454-.496.766-.928.766h-13.878c-.432 0-.814-.312-.93-.767l-.803-3.187a.73.73 0 0 1 .108-.6l.049-.069a.615.615 0 0 1 .472-.264.606.606 0 0 1 .49.224c.084.1.232.113.332.029a.237.237 0 0 0 .029-.333Z"/><path fill="#6534FF" fill-rule="nonzero" d="M423.62 9.644h5.007c.13 0 .235-.224.235-.501s-.105-.502-.235-.502h-5.008c-.13 0-.235.225-.235.502s.105.501.235.501zm9.68 4.022h-2.67c-.13 0-.236.224-.236.502 0 .277.106.501.236.501h2.67c.13 0 .235-.224.235-.501 0-.278-.105-.502-.235-.502zm-4.673 1.673h1.001c.13 0 .235-.224.235-.501 0-.278-.105-.502-.235-.502h-1.001c-.13 0-.236.224-.236.502 0 .277.106.501.236.501zm3.27 2.08v1.005c0 .13.223.236.5.236.276 0 .5-.105.5-.236V17.42c0-.13-.224-.236-.5-.236-.277 0-.5.106-.5.236zm-6.503-14.193 2.67-1.34a.237.237 0 0 0-.21-.422l-2.67 1.34a.237.237 0 0 0 .21.422z"/><path fill="#F9879A" fill-rule="nonzero" d="M268.726 47.866v-.921c.125-.312.282-.408.52-.098.237.31.524.426.848.067.197-.222.414-.162.613.029.32.308.575.339.848-.111.274-.45.459-.295.51.166v2.58a5.44 5.44 0 0 1-1.197-1.016c-.341-.361-.608-.443-.988 0a2.71 2.71 0 0 1-1.077.885c.01-.053 0-.084-.06-.086V47.9l.038-.017-.055-.016Z"/><path fill="#52D2BC" fill-rule="nonzero" d="M273.106 34.504h-5.419c-.569 0-1.094.3-1.378.785l-2.71 4.626a1.552 1.552 0 0 0 0 1.572l2.71 4.626c.284.485.81.785 1.378.785h5.419c.569 0 1.094-.3 1.378-.785l2.708-4.626a1.552 1.552 0 0 0 0-1.572l-2.708-4.626a1.596 1.596 0 0 0-1.378-.785Z"/><path fill="#52D2BC" fill-rule="nonzero" d="m275.7 36.557-4.756-2.537a1.57 1.57 0 0 0-1.584.06l-4.565 2.89a1.62 1.62 0 0 0-.742 1.414l.197 5.44c.02.572.342 1.089.842 1.356l4.759 2.538c.5.267 1.103.244 1.581-.06l4.565-2.89c.48-.305.761-.844.74-1.415l-.196-5.44a1.617 1.617 0 0 0-.84-1.356Z"/><path fill="#F9879A" fill-rule="nonzero" d="M263.032 40.343c.24-.183.547-.192.662.056.264.562.72.444 1.152.444 3.624 0 7.248-.008 10.872-.023.411 0 .854.108 1.086-.442.109-.26.373-.204.583-.046.38.321.418.693.278 1.175a43.579 43.579 0 0 0-.754 2.826c-.104.451-.328.562-.741.555-.928-.018-1.859 0-2.787 0l-6.428-.04-.747-.015c-.834-.257-1.719.106-2.545-.232-.037-.143-.07-.289-.104-.432h.05-.05c-.045-.148-.088-.296-.134-.444l.048-.026h-.054c-.048-.185-.095-.368-.14-.55l.031-.035-.045-.014-.04-.153v-.037c-.145-.513-.27-1.033-.44-1.538a.907.907 0 0 1 .247-1.029Z"/><path fill="#6534FF" fill-rule="nonzero" d="M264.72 41.761h4.006c.153 0 .277-.224.277-.501s-.124-.502-.277-.502h-4.006c-.153 0-.277.225-.277.502s.124.501.277.501zm8.346 3.017h-2.337c-.153 0-.277.224-.277.502 0 .277.124.501.277.501h2.337c.153 0 .277-.224.277-.501 0-.278-.124-.502-.277-.502zm-4.006 1.673h.668c.153 0 .277-.224.277-.501 0-.278-.124-.502-.277-.502h-.668c-.153 0-.277.224-.277.502 0 .277.124.501.277.501zm2.56 1.117v1.005c0 .154.224.278.5.278.277 0 .5-.124.5-.278v-1.005c0-.153-.223-.278-.5-.278-.276 0-.5.125-.5.278zm-5.107-11.476 2.003-1.005a.278.278 0 0 0-.248-.497l-2.002 1.005a.278.278 0 0 0 .247.497z"/><ellipse cx="186.272" cy="83.747" fill="#F9879A" fill-rule="nonzero" rx="10.015" ry="10.05"/><ellipse cx="191.78" cy="77.885" fill="#52D2BC" fill-rule="nonzero" rx="4.507" ry="4.522"/><path fill="#6535FF" fill-rule="nonzero" d="M176.902 89.212c-2.58-5.033-.652-11.235 4.304-13.852 4.952-2.615 11.056-.66 13.634 4.369a.5.5 0 1 0 .89-.46c-2.832-5.525-9.544-7.674-14.99-4.798-5.444 2.874-7.56 9.68-4.729 15.2a.5.5 0 1 0 .89-.46Z"/><path fill="#E8EDF6" fill-rule="nonzero" d="M201.795 95.806h-3.004l-1.503 2.68 1.503 2.68h3.004l1.502-2.68zM190.863 99.826h-1.502l-.752 1.34.752 1.34h1.502l.75-1.34z"/><path fill="#52D2BC" fill-rule="nonzero" d="M333.52 110.714c-4.826 9.278 8.814 37.084 8.814 37.084.389.727 1.34 2.257 2.941 2.561 1.1.205 2.065-.26 2.722-.64 12.163-7.067 15.685-22.189 15.685-22.189.087-.374.152-.677.183-.826l-4.47 2.031c-6.132 15.149-9.737 18.44-11.959 18.07-1.258-.21-2.382-2.63-4.58-7.465-2.098-4.624-4.136-9.188-5.43-15.869-.914-4.713-1.283-7.089-.556-9.334 1.184-3.655 4.583-5.846 8.222-8.19 3.232-2.083 5.272-2.604 5.14-3.159-.19-.812-4.865-1.045-8.94.702a16.375 16.375 0 0 0-7.773 7.224Z"/><path fill="#3E1EC4" fill-rule="nonzero" d="m343.508 105.287-1.669-1.005a.66.66 0 0 0-.907.228.665.665 0 0 0 .227.91l1.67 1.005a.66.66 0 0 0 .906-.228.665.665 0 0 0-.227-.91zm-6.266 5.27-2.671-.334a.663.663 0 0 0-.164 1.316l2.67.335a.663.663 0 0 0 .164-1.316zm-1.214 8.718-1.669.335a.663.663 0 0 0 .26 1.3l1.669-.334a.663.663 0 0 0-.26-1.3zm.33 7.551-1.001 1.005a.665.665 0 0 0 0 .938.66.66 0 0 0 .935 0l1.001-1.005a.665.665 0 0 0 0-.938.66.66 0 0 0-.935 0zm3.005 7.705-1.002 1.005a.665.665 0 0 0 0 .938.66.66 0 0 0 .935 0l1.002-1.005a.665.665 0 0 0 0-.938.66.66 0 0 0-.935 0zm3.854 8.61-1.001 2.68a.66.66 0 1 0 1.238.466l1-2.68a.66.66 0 1 0-1.238-.466z"/><path fill="#6534FF" fill-rule="nonzero" d="m363.865 126.29-4.465 2.046c-6.076 15.132-9.668 18.521-11.892 18.214 1.091.6 2.32.889 3.56.839 9.696-7.636 12.614-20.267 12.614-20.267.087-.377.152-.682.183-.832Z" opacity=".18"/><ellipse cx="234.009" cy="125.62" fill="#6535FF" fill-rule="nonzero" rx="1.335" ry="1.34"/><path fill="#6535FF" fill-rule="nonzero" d="M411.442 173.387a21.794 21.794 0 0 1-2.683-1.2.503.503 0 0 0-.467.889c1 .53 1.886.913 2.802 1.254a.503.503 0 0 0 .348-.942Zm-5.187-2.745a20.944 20.944 0 0 1-2.266-1.87.5.5 0 0 0-.708.02.504.504 0 0 0 .019.71 21.945 21.945 0 0 0 2.375 1.959.5.5 0 0 0 .698-.118.504.504 0 0 0-.118-.7Zm-4.242-4.046a19.779 19.779 0 0 1-1.63-2.44.5.5 0 0 0-.682-.19.503.503 0 0 0-.19.685 20.788 20.788 0 0 0 1.713 2.565.5.5 0 0 0 .704.086.504.504 0 0 0 .085-.706Zm-2.89-5.1a20.628 20.628 0 0 1-.868-2.81.5.5 0 1 0-.975.228c.233 1.003.537 1.988.91 2.948a.5.5 0 1 0 .933-.365Zm-1.328-5.728c-.02-.23-.035-.46-.047-.69a.501.501 0 1 0-1 .052c.012.242.028.483.049.724a.501.501 0 1 0 .998-.086Z"/><path fill="#FFF" fill-rule="nonzero" d="M425.45 118.391c.87-.298 1.772-.66 2.832-1.185a.503.503 0 0 0-.443-.901c-1.016.503-1.88.85-2.712 1.135a.503.503 0 0 0 .323.951zm5.493-2.712a22.485 22.485 0 0 0 2.447-1.864c.208-.183.23-.5.047-.71a.5.5 0 0 0-.707-.046c-.737.647-1.52 1.24-2.338 1.781a.504.504 0 0 0-.143.696.5.5 0 0 0 .694.143zm4.61-4.074a18.463 18.463 0 0 0 1.781-2.532.503.503 0 0 0-.179-.687.5.5 0 0 0-.685.18 17.459 17.459 0 0 1-1.685 2.393.504.504 0 0 0 .062.708.5.5 0 0 0 .705-.062zm3.103-5.327c.36-.972.637-1.97.83-2.985a.5.5 0 1 0-.984-.188c-.182.96-.445 1.903-.785 2.823a.5.5 0 1 0 .939.35zm1.15-6.07c.007-.356.004-.71-.01-1.065a.501.501 0 1 0-1 .038c.012.336.015.671.009 1.006a.502.502 0 1 0 1.001.02zM345.64 73.722c-.183.08-.47.188-.845.302-.588.18-1.234.325-1.922.414a.502.502 0 0 0 .129.997 12.805 12.805 0 0 0 2.085-.45c.414-.126.736-.247.953-.342a.503.503 0 0 0-.4-.921zm-5.633.716a9.283 9.283 0 0 1-2.735-.813.503.503 0 0 0-.43.908c.97.461 1.984.756 3.028.9a.502.502 0 0 0 .137-.996zm-5.083-2.419a9.174 9.174 0 0 1-1.744-2.26.5.5 0 0 0-.68-.197.503.503 0 0 0-.196.683c.507.92 1.147 1.764 1.934 2.507a.5.5 0 0 0 .708-.022.504.504 0 0 0-.022-.71zm-2.757-4.937a8.176 8.176 0 0 1-.182-1.131.501.501 0 1 0-.998.083c.028.343.088.758.204 1.27a.5.5 0 1 0 .976-.222zM95.08 190.989a17.15 17.15 0 0 0 3.093.089.502.502 0 0 0-.062-1.003c-.97.06-1.945.032-2.913-.084a.502.502 0 0 0-.118.998zm6.152-.38a17.201 17.201 0 0 0 2.926-1.01.503.503 0 0 0-.41-.917c-.889.4-1.81.718-2.755.952a.503.503 0 0 0 .24.975zm5.618-2.539a17.183 17.183 0 0 0 2.366-2.001.504.504 0 0 0-.003-.71.5.5 0 0 0-.709.003 16.181 16.181 0 0 1-2.228 1.884.504.504 0 0 0-.123.7.5.5 0 0 0 .697.124zm4.34-4.401c.261-.382.507-.775.736-1.178a.503.503 0 0 0-.186-.685.5.5 0 0 0-.683.186c-.216.38-.447.75-.693 1.11a.504.504 0 0 0 .13.698.5.5 0 0 0 .697-.131zm165.315-59.566a91.823 91.823 0 0 0 2.949-.66.503.503 0 0 0-.234-.977 90.829 90.829 0 0 1-2.917.652.502.502 0 0 0 .202.985zm5.874-1.416a91.2 91.2 0 0 0 2.899-.852.503.503 0 0 0-.298-.96 90.2 90.2 0 0 1-2.867.843.503.503 0 0 0 .266.97zm5.768-1.8a88.56 88.56 0 0 0 2.836-1.046.503.503 0 0 0-.361-.937c-.934.362-1.869.706-2.804 1.033a.503.503 0 0 0 .329.95zm5.637-2.19c.925-.396 1.845-.81 2.757-1.241a.503.503 0 0 0-.426-.91c-.902.426-1.81.835-2.724 1.227a.503.503 0 0 0 .393.924zm5.472-2.585a78.666 78.666 0 0 0 2.66-1.445.503.503 0 0 0 .188-.685.5.5 0 0 0-.683-.19c-.865.493-1.74.968-2.625 1.427a.503.503 0 0 0 .46.893zm5.256-2.99a73.563 73.563 0 0 0 2.538-1.652.504.504 0 0 0 .133-.698.5.5 0 0 0-.696-.134 72.562 72.562 0 0 1-2.503 1.63.504.504 0 0 0-.162.692.5.5 0 0 0 .69.162zm5.006-3.411a69.116 69.116 0 0 0 2.39-1.863.504.504 0 0 0 .073-.707.5.5 0 0 0-.705-.073c-.77.628-1.556 1.24-2.355 1.836a.504.504 0 0 0-.103.703.5.5 0 0 0 .7.104zm4.697-3.834a65.651 65.651 0 0 0 2.214-2.072.504.504 0 0 0 .008-.71.5.5 0 0 0-.708-.009 64.649 64.649 0 0 1-2.18 2.041.504.504 0 0 0-.04.71.5.5 0 0 0 .706.04zm4.336-4.252a63.39 63.39 0 0 0 2.01-2.273.504.504 0 0 0-.06-.708.5.5 0 0 0-.705.059 62.386 62.386 0 0 1-1.978 2.237.504.504 0 0 0 .025.71.5.5 0 0 0 .708-.025zm3.91-4.643a62.477 62.477 0 0 0 1.782-2.458.504.504 0 0 0-.127-.699.5.5 0 0 0-.697.128 61.473 61.473 0 0 1-1.753 2.418.504.504 0 0 0 .093.704.5.5 0 0 0 .702-.093zm3.441-4.998a63.726 63.726 0 0 0 1.535-2.62.503.503 0 0 0-.194-.683.5.5 0 0 0-.68.195 62.72 62.72 0 0 1-1.512 2.577.504.504 0 0 0 .162.692.5.5 0 0 0 .69-.161zm2.946-5.313c.448-.907.875-1.826 1.28-2.754a.5.5 0 1 0-.918-.403 62.825 62.825 0 0 1-1.26 2.711.5.5 0 1 0 .897.446zm2.427-5.568c.237-.622.464-1.249.682-1.879a.5.5 0 1 0-.946-.329c-.214.62-.438 1.237-.671 1.85a.5.5 0 1 0 .936.358zm-1.236 82.15a50.321 50.321 0 0 1 2.7-1.253.503.503 0 0 0-.393-.924c-.966.414-1.872.837-2.754 1.278a.503.503 0 0 0 .447.9zm5.47-2.342a47.417 47.417 0 0 1 2.829-.916.503.503 0 0 0-.278-.966c-.98.284-1.943.597-2.888.936a.503.503 0 0 0 .337.946zm5.71-1.649a43.23 43.23 0 0 1 2.92-.537.502.502 0 0 0-.146-.994c-1.004.149-2 .333-2.989.55a.502.502 0 0 0 .214.981zm5.876-.868a39.466 39.466 0 0 1 2.965-.112.502.502 0 0 0 0-1.005c-1.015 0-2.029.039-3.04.115a.502.502 0 0 0 .075 1.002zm5.924.002a37.27 37.27 0 0 1 2.944.347.502.502 0 0 0 .156-.993 38.268 38.268 0 0 0-3.023-.356.501.501 0 0 0-.077 1.002zm5.857.93a37.008 37.008 0 0 1 2.851.813.503.503 0 0 0 .311-.955 38.73 38.73 0 0 0-2.928-.835.503.503 0 0 0-.235.977zm5.634 1.849c.912.38 1.81.797 2.692 1.249a.503.503 0 0 0 .455-.895 39.204 39.204 0 0 0-2.762-1.282.503.503 0 0 0-.385.928z"/><path fill="#FCCDD3" fill-rule="nonzero" d="m430.963 136.28.045-5.827a.83.83 0 0 1 .842-.813l4.627.034a.841.841 0 0 1 .589.244.81.81 0 0 1 .24.581l-.044 5.827a.35.35 0 0 1-.217.32.363.363 0 0 1-.387-.067l-2.289-2.105a.363.363 0 0 0-.485 0l-2.322 2.07a.365.365 0 0 1-.386.059.353.353 0 0 1-.213-.323Z"/><path fill="#3E1EC4" fill-rule="nonzero" d="m284.416 73.638.044-5.827a.83.83 0 0 1 .843-.813l4.627.034a.841.841 0 0 1 .588.243.81.81 0 0 1 .24.581l-.044 5.827a.35.35 0 0 1-.217.321.363.363 0 0 1-.386-.068l-2.29-2.105a.363.363 0 0 0-.485 0l-2.321 2.07a.365.365 0 0 1-.387.059.353.353 0 0 1-.212-.322Z"/><path fill="#F9879A" fill-rule="nonzero" d="m93.136 164.084.044-5.827a.83.83 0 0 1 .843-.813l4.627.034a.841.841 0 0 1 .589.244.81.81 0 0 1 .24.58l-.044 5.828a.35.35 0 0 1-.218.32.363.363 0 0 1-.386-.067l-2.29-2.105a.363.363 0 0 0-.484 0l-2.322 2.07a.365.365 0 0 1-.387.059.353.353 0 0 1-.212-.323Z"/><path fill="#FFF" fill-rule="nonzero" d="m276.07 64.623.039-5.266a.735.735 0 0 1 .222-.522.749.749 0 0 1 .53-.212l4.141.03c.199.002.388.081.528.221.139.14.217.33.215.526l-.04 5.263a.317.317 0 0 1-.19.297.322.322 0 0 1-.35-.058l-2.048-1.907a.324.324 0 0 0-.435 0l-2.075 1.871a.322.322 0 0 1-.35.055.317.317 0 0 1-.187-.298Z"/><path fill="#6534FF" fill-rule="nonzero" d="M254.322 141.15a.55.55 0 0 0 .1 1.099l8.719-.792a.55.55 0 0 0 .495-.477 2.759 2.759 0 0 1 1.014-1.797c.286-.23 1.06-.334 2.116-.284.517.025 1.074.084 1.64.166a21.477 21.477 0 0 1 1.017.173c.053.016.123.033.21.049 1.05.193 2.313-.091 3.575-1.195.395-.345 3.554-2.163 10.053-5.8a4149.8 4149.8 0 0 1 4.569-2.553l5.057-2.822a3384.619 3384.619 0 0 0 12.376-6.938c13.917-7.851 23.024-13.213 27.115-16.094 3.662-2.578 7.532-4.044 11.475-4.599 2.89-.406 5.57-.294 7.898.136.452.084.852.174 1.194.263.201.052.337.092.402.113a.551.551 0 0 0 .34-1.048 8.631 8.631 0 0 0-.466-.132c-.367-.096-.792-.19-1.271-.28-2.437-.45-5.234-.567-8.25-.143-4.109.578-8.144 2.106-11.953 4.788-4.048 2.85-13.144 8.206-27.022 16.035l-1.446.815c-3.259 1.835-6.588 3.7-10.926 6.12l-5.057 2.823a4148.778 4148.778 0 0 0-4.57 2.553c-6.767 3.788-9.75 5.504-10.24 5.932-.994.87-1.917 1.078-2.654.942a.987.987 0 0 1-.097-.022l-.064-.017a22.566 22.566 0 0 0-1.108-.19 18.382 18.382 0 0 0-1.744-.176c-1.318-.063-2.287.068-2.853.523a3.857 3.857 0 0 0-1.335 2.076l-8.309.754Z"/><path fill="#6534FF" fill-rule="nonzero" d="M350.078 100.924a5.907 5.907 0 0 0-.984-.33c-2.455-.633-5.45-.415-8.755 1.24-4.054 2.032-6.47 3.944-8.121 7.204-2.211 4.365-2.233 10.382.39 18.58 2.482 7.762 5.019 13.572 7.476 17.712.866 1.458 1.663 2.605 2.373 3.476.435.533.751.86.93 1.016.23.199.577.173.775-.058a.552.552 0 0 0-.057-.777 3.57 3.57 0 0 1-.189-.185 11.214 11.214 0 0 1-.61-.694c-.674-.828-1.44-1.93-2.278-3.342-2.413-4.065-4.916-9.798-7.374-17.484-2.542-7.945-2.521-13.67-.457-17.745 1.52-3 3.77-4.781 7.633-6.716 3.056-1.531 5.78-1.73 7.99-1.16.234.06.436.123.607.186.097.036.16.062.184.074.275.13.602.011.73-.264a.552.552 0 0 0-.263-.733zm-8.06 50.63c-12.446 3.53-23.038 6.827-33.009 10.347a651.37 651.37 0 0 1-1.621.57c-4.272 1.502-6.49 2.357-8.912 3.522-3.144 1.512-5.777 3.226-8.097 5.363-5.986 5.513-9.869 13.089-11.18 21.512a.55.55 0 1 0 1.085.17c1.274-8.182 5.04-15.53 10.837-20.87 2.235-2.058 4.778-3.713 7.83-5.18 2.375-1.143 4.565-1.988 8.8-3.477a4995.514 4995.514 0 0 1 1.623-.57c9.946-3.512 20.517-6.802 32.942-10.326a.551.551 0 0 0-.298-1.06zm-111.228 3.184-.009.186-.025.54a14593.97 14593.97 0 0 0-.437 9.437 19384.657 19384.657 0 0 0-1.131 24.867c-.814 18.185-1.326 30.423-1.403 33.992a.55.55 0 1 0 1.098.024c.077-3.556.588-15.796 1.402-33.966l.095-2.118a19383.81 19383.81 0 0 1 1.473-32.184l.025-.54.009-.186a.55.55 0 1 0-1.097-.052z"/><path fill="#3E1EC4" fill-rule="nonzero" d="M225.162 102.362c.206-.767.132-1.33-.19-2.56-.154-.583-.21-.842-.237-1.14-.138-1.559 1.223-3.17 2.85-3.346.2-.021.397-.027.742-.026h.088c.57.003.829-.006 1.169-.056.987-.146 1.835-.679 2.116-1.546a.73.73 0 1 0-1.39-.454c-.08.246-.446.475-.939.548-.243.036-.454.043-.95.041h-.09a7.785 7.785 0 0 0-.9.034c-2.412.26-4.362 2.569-4.153 4.936.038.409.106.72.28 1.383.256.98.308 1.373.193 1.804a.73.73 0 1 0 1.412.382zm39.277 6.688c-.441.185-1.076.085-1.708-.257-.26-.14-.467-.276-.93-.597l-.007-.005c-.51-.354-.75-.512-1.077-.688-1.12-.593-2.171-.81-4.264-1.036a.733.733 0 0 0-.156 1.459c1.912.205 2.835.397 3.734.873.257.139.466.275.93.598l.007.005c.508.352.745.508 1.07.683.984.532 2.053.7 2.964.32a.735.735 0 0 0 .393-.96.73.73 0 0 0-.956-.395z"/><path fill="#3E1EC4" fill-rule="nonzero" d="M350.179 12.08V6.344c0-.525-.277-1.01-.726-1.273l-4.894-2.864c-.448-.263-1-.263-1.448 0l-4.894 2.864a1.473 1.473 0 0 0-.724 1.273v5.736a1.47 1.47 0 0 0 .724 1.273l4.894 2.864c.448.263 1 .263 1.448 0l4.894-2.864c.45-.262.726-.748.726-1.273Z" opacity=".32"/><path fill="#F9879A" fill-rule="nonzero" d="M350.512 11.743V6.012c.001-.527-.275-1.013-.725-1.276l-4.892-2.866a1.444 1.444 0 0 0-1.45 0l-4.892 2.866a1.48 1.48 0 0 0-.726 1.276v5.731c0 .525.277 1.01.726 1.274l4.891 2.865a1.433 1.433 0 0 0 1.451 0l4.892-2.87c.448-.261.724-.745.725-1.269Z"/><path fill="#FFF" fill-rule="nonzero" d="M350.324 5.229c0-.566-.305-1.088-.8-1.37l-4.896-2.788a1.612 1.612 0 0 0-1.596 0l-4.884 2.787a1.583 1.583 0 0 0-.8 1.37v5.59a1.58 1.58 0 0 0 .8 1.368c.07.04.158.016.198-.054a.146.146 0 0 0-.055-.2 1.289 1.289 0 0 1-.652-1.115V5.23c0-.46.249-.886.653-1.118l4.884-2.787a1.322 1.322 0 0 1 1.309 0l4.896 2.788c.403.23.652.657.652 1.117a.145.145 0 1 0 .29 0Z"/><path fill="#FFF" fill-rule="nonzero" d="m347.927 9.72.583-1.011-.583-1.01V6.532l-1.008-.583-.58-1.012h-1.164l-1.005-.582-1.008.582h-1.163l-.581 1.012-1.007.583v1.167l-.581 1.01.581 1.011v1.168l1.007.582.581 1.012h1.163l1.008.583 1.005-.583h1.164l.58-1.012 1.008-.582z"/><path fill="#6535FF" fill-rule="nonzero" d="M345.997 4.547a.145.145 0 0 0-.126-.073h-1.16l-1.005-.58a.145.145 0 0 0-.145 0l-1.003.58h-1.16c-.052 0-.1.028-.126.073l-.581 1.007-1.003.583a.146.146 0 0 0-.072.126v1.164l-.58 1.006a.146.146 0 0 0 0 .146l.58 1.009v1.164c0 .052.027.1.072.126l1.003.58.581 1.01a.145.145 0 0 0 .126.072h1.199a.145.145 0 0 0 0-.291h-1.115l-.559-.97a.145.145 0 0 0-.053-.053l-.964-.558v-1.12a.146.146 0 0 0-.02-.072l-.556-.97.557-.967a.146.146 0 0 0 .019-.073V6.347l.964-.56a.145.145 0 0 0 .053-.054l.559-.967h1.115c.025 0 .05-.007.072-.02l.964-.558.967.558c.022.013.047.02.072.02h1.115l.556.967c.013.022.031.04.054.054l1.038.602a.146.146 0 0 0 .145-.252l-1.004-.583-.58-1.007Zm-5.325 1.04.053-.053-.034.02-.02.033Zm-1.056 1.88.019-.074-.02.034v.04Zm.019 2.154-.02-.072v.039l.02.033Z"/><ellipse cx="344.337" cy="8.542" fill="#62BCF9" fill-rule="nonzero" rx="1.502" ry="1.507"/><path fill="#6535FF" fill-rule="nonzero" d="M343.761 9.942a1.441 1.441 0 0 1-.149-1.922 1.26 1.26 0 0 1 1.802-.223c.063.05.154.04.204-.022a.146.146 0 0 0-.022-.205 1.55 1.55 0 0 0-2.213.27 1.733 1.733 0 0 0 .181 2.317.146.146 0 0 0 .197-.214Z"/><path fill="#6534FF" fill-rule="nonzero" d="m350.12 4.658-4.902-2.803a1.461 1.461 0 0 0-.547-.18 2.797 2.797 0 0 0-.228.677c-.148.799.012 1.624.24 2.405.227.78.526 1.546.66 2.349a5.979 5.979 0 0 1-.373 3.26c-.559 1.34-1.595 2.469-1.992 3.866-.07.258-.118.523-.143.79l.925.53c.45.257 1.004.257 1.453 0l4.906-2.8c.45-.257.728-.732.727-1.246v-5.6c.001-.515-.276-.991-.727-1.248Z" opacity=".32"/><path fill="#FFF" fill-rule="nonzero" d="m344.906 15.203 4.34-2.345a.146.146 0 0 0 .059-.198.145.145 0 0 0-.197-.059l-4.34 2.345a.146.146 0 0 0-.058.198c.038.07.126.097.196.059Z"/><path fill="#6535FF" fill-rule="nonzero" d="M296.767 183.573h18.026v2.68h-18.026zM296.433 188.933h12.351v2.68h-12.351z"/><path fill="#6534FF" fill-rule="nonzero" d="M415.274 29.144h12.351v2.68h-12.351z"/><path fill="#6535FF" fill-rule="nonzero" d="M379.555 154.094h12.351v2.68h-12.351zM379.555 149.739h12.351v2.68h-12.351zM379.555 145.05h12.351v2.68h-12.351z"/><path fill="#6534FF" fill-rule="nonzero" d="M384.903 182.568a1.039 1.039 0 0 1-.673-.238l-3.306-2.758a1.023 1.023 0 0 1-.368-.785v-5.871a.446.446 0 0 1 .301-.415 12.83 12.83 0 0 1 8.078 0 .446.446 0 0 1 .3.415v5.878c0 .303-.134.59-.367.785l-3.306 2.757c-.186.151-.419.233-.66.232Z"/><path fill="#6535FF" fill-rule="nonzero" d="m384.24 177.188-.03.035 1.301 1.675h.037l1.369-1.63-.029-.037-1.339.683-1.31-.726Zm1.29 1.658-1.213-1.562 1.22.678h.022l1.248-.636-1.277 1.52Z"/><path fill="#6535FF" fill-rule="nonzero" d="m386.899 177.15.012.012.005-.004-.017-.03v-.006h-.003l-1.257-2.27h-.04l-1.39 2.227.013.037.005-.008.004.014h.006l1.314.777 1.348-.731v-.018Zm-2.658-.078 1.376-2.163 1.251 2.225-1.317.724-1.302-.78-.008-.006Z"/><path fill="#FCCDD3" fill-rule="nonzero" d="M389.676 172.493a12.419 12.419 0 0 0-7.896 0 .815.815 0 0 0-.556.77v5.626c0 .406.18.79.49 1.05l3.133 2.639c.51.434 1.257.434 1.767 0l3.135-2.64c.31-.26.488-.644.488-1.049v-5.626a.812.812 0 0 0-.56-.77Zm.162 6.396a.977.977 0 0 1-.35.749l-3.133 2.639a.97.97 0 0 1-1.254 0l-3.153-2.64a.975.975 0 0 1-.346-.748v-5.626c0-.18.114-.34.284-.396a12.018 12.018 0 0 1 7.647 0 .416.416 0 0 1 .287.396l.018 5.626Z"/><path fill="#BBC4EF" fill-rule="nonzero" d="M390.237 179.255v-5.666a.817.817 0 0 0-.543-.776 11.873 11.873 0 0 0-3.18-.63c.344.509.583 1.084.701 1.691.136.735.209 1.482.217 2.23.03.401.015.805-.048 1.202-.19.96-.9 1.715-1.24 2.625a4.592 4.592 0 0 0-.164 2.355c.056.322.133.64.23.952.176-.054.34-.145.48-.267l3.071-2.659c.303-.262.477-.65.476-1.057Z" opacity=".44"/><path fill="#070707" fill-rule="nonzero" d="m382.108 178.548-1.947-.52a.27.27 0 0 1-.272-.267v-.958a.27.27 0 0 1 .274-.265l1.947.521a.119.119 0 0 1 .106.07.112.112 0 0 1-.02.122l-.702.218a.11.11 0 0 0 0 .153l.695.737c.03.032.04.079.022.12a.116.116 0 0 1-.103.07zm6.922-1.5 1.937-.51a.27.27 0 0 1 .272.269v.965c0 .07-.03.139-.08.189a.274.274 0 0 1-.194.077l-1.935.51a.118.118 0 0 1-.119-.07.114.114 0 0 1 .032-.133l.698-.736a.114.114 0 0 0 0-.156l-.69-.224a.112.112 0 0 1-.013-.112.116.116 0 0 1 .092-.069z" opacity=".18"/><path fill="#52D2BC" fill-rule="nonzero" d="M382.098 177.878h-1.938a.27.27 0 0 1-.271-.267v-1.477c0-.07.029-.138.08-.188a.274.274 0 0 1 .193-.077h1.938a.118.118 0 0 1 .117.071.114.114 0 0 1-.032.131l-.698.734a.114.114 0 0 0 0 .156l.691.737a.113.113 0 0 1 .012.112.118.118 0 0 1-.092.068zm6.921-2.01h1.947c.073 0 .142.029.194.079.05.05.08.118.079.189v1.477c0 .07-.03.139-.08.188a.276.276 0 0 1-.195.077h-1.945a.119.119 0 0 1-.107-.068.113.113 0 0 1 .02-.124l.701-.732a.113.113 0 0 0 0-.156l-.693-.737a.111.111 0 0 1-.024-.121.116.116 0 0 1 .103-.072z"/><path fill="#6535FF" fill-rule="nonzero" d="M380.16 178.085c-.082 0-.144-.06-.144-.13v-1.417a.127.127 0 1 0-.254 0v1.418c0 .213.179.382.397.384h1.934a.237.237 0 0 0 .24-.141.232.232 0 0 0-.08-.285l-.671-.694a.127.127 0 0 0-.18-.002.128.128 0 0 0-.002.18l.669.688-1.91-.001zm9.207-.633a.226.226 0 0 0 0-.323l-.674-.68a.127.127 0 0 0-.179 0c-.05.049-.05.13 0 .18l.655.661-.66.656a.229.229 0 0 0-.046.257.242.242 0 0 0 .214.138h1.894a.127.127 0 0 0 0-.255h-1.843l.64-.634z"/><path fill="#BBC4EF" fill-rule="nonzero" d="m382.142 179.984 2.67 2.345a.128.128 0 0 0 .167-.192l-2.67-2.344a.127.127 0 0 0-.179.012.128.128 0 0 0 .012.18Z"/><ellipse cx="448.155" cy="30.986" fill="#62BCF9" fill-rule="nonzero" rx="7.177" ry="7.202"/><path fill="#62BCF9" fill-rule="nonzero" d="m329.148 25.064.044-5.826a.83.83 0 0 1 .843-.814l4.627.034a.841.841 0 0 1 .588.244.81.81 0 0 1 .24.581l-.044 5.827a.35.35 0 0 1-.217.32.363.363 0 0 1-.386-.067l-2.29-2.105a.363.363 0 0 0-.485 0l-2.321 2.07a.365.365 0 0 1-.387.059.353.353 0 0 1-.212-.323Z"/><path fill="#3E1EC4" fill-rule="nonzero" d="M454.498 12.06h-3.005l-1.502 2.679 1.502 2.68h3.005l1.502-2.68z"/><path fill="#BBC4EF" d="M409.438 46.463a12.096 12.096 0 0 0-.715-1.263 5.98 5.98 0 0 1-1.084-4.205c.044-.53.06-1.063.046-1.595a3.704 3.704 0 0 0-1.64-3.223 16.449 16.449 0 0 0-1.958-1.17 5.296 5.296 0 0 1-2.414-2.484 25.363 25.363 0 0 0-.888-1.664c-.758-1.356-1.894-2.083-3.47-2.103-.7 0-1.398-.043-2.095-.027a5.334 5.334 0 0 1-3.156-.956 18.636 18.636 0 0 0-1.822-1.129c-1.234-.641-2.48-.7-3.735-.083-.471.218-.927.467-1.366.745-1.303.863-2.699 1.3-4.281 1.104a12.963 12.963 0 0 0-1.704-.043 3.671 3.671 0 0 0-2.814 1.206 10.51 10.51 0 0 0-1.467 2.259 5.58 5.58 0 0 1-2.691 2.55c-.545.25-1.07.54-1.594.835-1.348.764-2.075 1.904-2.088 3.465 0 .693-.05 1.387-.026 2.08a5.1 5.1 0 0 1-.956 3.08 18.6 18.6 0 0 0-1.175 1.891 3.839 3.839 0 0 0-.089 3.535c.241.527.522 1.036.84 1.522a5.97 5.97 0 0 1 1.07 4.163c-.05.578-.065 1.159-.045 1.739a3.646 3.646 0 0 0 1.464 2.97c.684.49 1.403.93 2.152 1.316.754.43 1.47.904 1.922 1.665.724 1.213 1.264 2.536 2.173 3.645-.084.154-.182.303-.255.465-1.483 3.304-2.965 6.608-4.445 9.913a1.472 1.472 0 0 0 .243 1.667 1.44 1.44 0 0 0 1.594.404 413.03 413.03 0 0 0 5.238-1.662c.319-.104.455-.057.596.246.727 1.633 1.478 3.257 2.21 4.89.275.616.7.969 1.413.976a1.442 1.442 0 0 0 1.447-.931c.91-2.057 1.835-4.117 2.755-6.175.405-.903.817-1.807 1.255-2.767.095.204.161.332.214.466 1.15 2.886 2.299 5.773 3.445 8.659.169.538.652.92 1.218.962.702.066 1.253-.163 1.576-.8a325.36 325.36 0 0 0 2.403-4.797c.175-.36.343-.451.74-.309 1.616.619 3.25 1.2 4.87 1.807.684.253 1.326.244 1.845-.296.52-.54.492-1.204.214-1.886-.808-1.983-1.594-3.973-2.389-5.96-.701-1.748-1.403-3.495-2.106-5.24.417-.727.84-1.45 1.246-2.184a5.013 5.013 0 0 1 2.3-2.078 28.405 28.405 0 0 0 1.762-.928c1.341-.77 2.065-1.915 2.072-3.478 0-.804.03-1.61.037-2.417 0-.777.22-1.538.635-2.197l1.26-2.008c.846-1.344.953-2.738.213-4.167Zm-29.116 20.796c1.465-.058 2.706.432 3.872 1.245-1.173-.813-2.414-1.303-3.872-1.245l-.416.016.416-.016Zm13.208.308a3.69 3.69 0 0 0-.002 0h.002Zm2.084.031c-.49-.018-.98-.022-1.471-.031.49.009.979.013 1.468.031h.003Zm1.821-.06a5.28 5.28 0 0 1-.002 0h.002Zm-10.133 5.313c-1.366 3.018-2.717 6.051-4.072 9.078a.83.83 0 0 1-.774.569c-.41 0-.633-.276-.79-.621-.786-1.749-1.594-3.49-2.355-5.247-.196-.452-.419-.547-.881-.393-1.822.603-3.643 1.168-5.465 1.757-.355.115-.702.197-.99-.106-.29-.303-.254-.711-.087-1.082.763-1.705 1.535-3.406 2.295-5.11.74-1.66 1.469-3.325 2.202-4.99.226.045.436.147.61.296l-4.121 9.22c-.053.117-.098.239-.15.356a.359.359 0 0 0 0 .409c.127.147.284.104.455.056.977-.291 1.956-.573 2.935-.865.98-.291 1.927-.562 2.88-.87.333-.108.479-.03.625.283.817 1.753 1.66 3.496 2.505 5.24.1.21.148.506.455.506.307 0 .319-.283.408-.481 1.343-2.982 2.684-5.962 4.021-8.942a.49.49 0 0 1 .205-.289c.27.356.304.837.087 1.226h.002Zm16.457 4.624c.148.368.228.709-.08 1.025-.307.316-.644.278-1.024.136-1.731-.644-3.464-1.274-5.197-1.909-.988-.361-.806-.307-1.193.452-.831 1.621-1.642 3.252-2.455 4.88-.182.364-.407.678-.865.662-.458-.016-.636-.361-.786-.743a5037.287 5037.287 0 0 0-4.8-12.117 2.72 2.72 0 0 1 .754.03c.024.124.056.247.095.368 1.427 3.604 2.859 7.207 4.295 10.807.073.183.105.42.394.427.29.006.342-.206.437-.387.911-1.707 1.822-3.41 2.72-5.126.174-.341.33-.416.7-.285 1.861.66 3.73 1.287 5.598 1.927.18.063.369.18.542 0 .173-.181.05-.369-.016-.543-.187-.496-.387-.989-.583-1.481l-3.416-8.614c.145-.18.322-.333.522-.452.061-.079.118-.16.175-.24-.057.08-.114.161-.175.24l4.356 10.943h.002Z" opacity=".32"/><g fill-rule="nonzero"><path fill="#FFF" d="M397.532 44.98h-.04a.097.097 0 0 0-.055.075l-.544 2.566a.145.145 0 0 0 .133.172l1.56.02a.115.115 0 0 0 .095-.17l-1.027-2.57a.151.151 0 0 0-.059-.07v-.013h-.063m5.783-1.517c-.25 0-.332.115-.29.402.055.357.077.717.114 1.074.036.357.088.778.115 1.169.015.244.117.323.338.323.666 0 1.336 0 2.005.023h.02c.38 0 .555-.227.526-.622a23.691 23.691 0 0 0-.179-1.727.64.64 0 0 0-.677-.617c-.638 0-1.277 0-1.916-.025h-.047m-13.05-.174c-.102 0-.195.086-.258.246a80.428 80.428 0 0 0-.838 2.313.99.99 0 0 0-.033.158c0 .08 0 .165-.014.246.014.193.064.382.147.556l.052.102c.404.712.812 1.424 1.216 2.14.082.146.17.29.337.3h.013c.163 0 .226-.15.273-.292.26-.708.526-1.41.783-2.118l.034-.095c.047-.181.057-.37.032-.554-.02-.084-.036-.167-.061-.249a1.102 1.102 0 0 0-.068-.16 82.254 82.254 0 0 0-1.311-2.34c-.095-.163-.203-.246-.305-.253m-8.2-.088c-.24 0-.309.117-.273.382.05.36.077.716.113 1.076.036.36.086.777.115 1.164.016.226.079.346.323.346.677 0 1.354.013 2.047.02h.014c.363 0 .532-.226.507-.601-.04-.574-.094-1.15-.173-1.725-.057-.396-.271-.637-.678-.635-.652 0-1.304 0-1.961-.027h-.036m21.19 7.349h-.028c-.386 0-.541-.276-.577-.663-.116-1.184-.24-2.371-.36-3.556-.119-1.184-.225-2.337-.365-3.506-.04-.336.045-.429.314-.434h.063c.99.032 1.98.03 2.97.046a1.741 1.741 0 0 1 1.664 1.557c.088.653.153 1.309.2 1.964.064.873-.49 1.52-1.3 1.529h-.103c-.649 0-1.298-.01-1.948-.028h-.043c-.226 0-.302.1-.269.369.084.678.15 1.343.206 2.012.027.35 0 .7-.416.705m-7.066-.077a.717.717 0 0 1-.183-.027c-.37-.1-.467-.41-.416-.744.131-.804.283-1.602.425-2.405.257-1.47.519-2.938.776-4.41.04-.226.08-.472.316-.529a.721.721 0 0 1 .178-.025c.241-.004.453.16.51.393l2.626 7.103c.137.38-.052.678-.386.678h-.032c-.291 0-.429-.208-.528-.452-.129-.326-.271-.651-.366-.986a.396.396 0 0 0-.451-.343h-.118c-.469 0-.943 0-1.417-.02h-.04c-.202 0-.299.088-.328.314-.045.343-.133.678-.178 1.024-.039.287-.174.43-.39.431m-5.221-.063c-.61 0-1.018-.348-1.33-.904-.41-.748-.833-1.49-1.234-2.24a2.32 2.32 0 0 1-.185-1.937c.282-.796.56-1.583.86-2.374.118-.326.383-.577.715-.678H390.309l.066.011h.016a.631.631 0 0 1 .063.014h.031l.043.011c.363.118.668.368.856.7.451.794.903 1.599 1.354 2.401.349.586.425 1.294.21 1.94-.25.744-.524 1.474-.786 2.215-.187.534-.507.873-1.076.877h-.097m-8.97-.117a.555.555 0 0 1-.526-.378 1.236 1.236 0 0 1-.06-.368l-.353-3.463c-.12-1.169-.226-2.338-.363-3.506-.039-.319.013-.452.304-.452h.055c.993.036 1.981.031 2.97.045.863.03 1.573.689 1.668 1.548.09.678.16 1.34.203 2.01.056.848-.499 1.483-1.287 1.496h-.158c-.616 0-1.232 0-1.85-.031h-.075c-.275 0-.33.138-.289.452.09.678.156 1.372.206 2.057.02.29-.059.554-.39.583h-.055m9.848-24.506c-.77 0-1.508.317-2.228.934-.957.816-2.045 1.324-3.187 1.336a3.94 3.94 0 0 1-.792-.07c-.585 0-1.016-.028-1.418-.023h-.248c-.867.038-1.56.375-1.998 1.166-.332.62-.617 1.264-.853 1.926a4.883 4.883 0 0 1-2.257 2.66c-.467.259-.903.56-1.354.846-.944.597-1.32 1.526-1.187 2.756.088.795.162 1.582.255 2.387a4.527 4.527 0 0 1-.366 2.441c-.27.6-.542 1.2-.826 1.79-.59 1.223-.501 2.449.363 3.692.204.291.373.603.59.884a7.301 7.301 0 0 1 1.58 4.371c0 .496.083 1 .137 1.497.118 1.065.55 1.955 1.474 2.561.345.242.706.46 1.081.651a8.004 8.004 0 0 1 3.873 3.716c.183.355.418.678.632 1.027.677 1.062 1.598 1.562 2.722 1.582.772 0 1.544.018 2.314.018a4.545 4.545 0 0 1 2.35.714c.6.364 1.2.728 1.805 1.106a3.256 3.256 0 0 0 1.788.58 2.706 2.706 0 0 0 1.54-.528c.392-.274.798-.527 1.184-.812.76-.589 1.69-.916 2.652-.931h.38c.627.045 1.254.03 1.88.04h.101c1.09 0 1.89-.495 2.336-1.537.226-.51.452-1.015.648-1.541a4.813 4.813 0 0 1 2.232-2.67c.481-.264.941-.565 1.397-.87a2.46 2.46 0 0 0 1.185-2.209c-.013-.95-.167-1.9-.266-2.852a4.95 4.95 0 0 1 .415-2.656c.28-.597.551-1.196.826-1.793.515-1.103.431-2.227-.295-3.361a44.726 44.726 0 0 0-.987-1.49 6.39 6.39 0 0 1-1.25-3.411c-.032-.678-.117-1.372-.196-2.057-.12-1.044-.544-1.917-1.45-2.527-.61-.403-1.24-.774-1.889-1.11a6.66 6.66 0 0 1-2.692-2.627 35.31 35.31 0 0 0-1.043-1.686c-.558-.862-1.289-1.415-2.244-1.522-.363-.038-.729-.031-1.09-.04h-.794a9.148 9.148 0 0 1-1.58-.073c-.978-.151-1.86-.678-2.68-1.295-.902-.678-1.758-1.006-2.577-.997"/><path fill="#FCCDD3" d="M406.831 63.29a1.847 1.847 0 0 0-.395.586c1.728 3.517 3.458 7.035 5.191 10.552.177.355.287.678.05.995a.553.553 0 0 1-.451.24 1.307 1.307 0 0 1-.452-.098c-1.623-.608-3.248-1.203-4.87-1.808a2.588 2.588 0 0 0-.678-.204c-.19 0-.187.195-.347.647-.553 1.582-1.084 3.164-1.623 4.747-.115.343-.273.646-.652.65h-.041c-.413-.017-.612-.345-.792-.714a5587.265 5587.265 0 0 0-5.72-11.684c-1.099-.038-2.05-.647-2.979-1.277l-.135-.09c-1.023-.679-2.066-1.086-3.212-1.088h-.382c-.225 0-.467.02-.702.025h-.167a7.48 7.48 0 0 1-1.78-.188c-.08-.018-.156-.04-.226-.06-.872 2.983-1.742 5.968-2.612 8.953-.034.115-.056.226-.09.348a.376.376 0 0 0 .059.396c.05.06.126.095.205.095a.65.65 0 0 0 .201-.048c.84-.29 1.684-.572 2.523-.863.84-.292 1.66-.56 2.483-.868a.586.586 0 0 1 .21-.048c.156 0 .262.097.384.314.936 1.691 1.896 3.369 2.85 5.05.113.202.192.486.465.484.256 0 .249-.278.307-.468.85-2.898 1.697-5.796 2.544-8.694a.427.427 0 0 1 .15-.282c.284.329.37.785.225 1.196-.878 2.938-1.72 5.877-2.576 8.815-.092.321-.282.554-.622.559-.366 0-.6-.26-.78-.595-.902-1.684-1.832-3.361-2.721-5.056-.163-.31-.316-.452-.53-.441a.859.859 0 0 0-.305.07c-1.553.599-3.117 1.164-4.675 1.75a1.33 1.33 0 0 1-.451.106.613.613 0 0 1-.452-.197.966.966 0 0 1-.205-1.049c.48-1.657.973-3.31 1.451-4.973.468-1.614.923-3.232 1.384-4.849a1.269 1.269 0 0 0-.54-.39c-.058.15-.128.295-.173.451-.94 3.213-1.876 6.426-2.81 9.64a1.598 1.598 0 0 0 .415 1.609c.254.292.621.462 1.009.465.16-.003.319-.032.47-.088 1.498-.545 2.994-1.09 4.482-1.66a.627.627 0 0 1 .226-.049c.14 0 .225.082.345.283.842 1.582 1.704 3.14 2.55 4.71.32.597.74.932 1.38.934h.022c.62 0 .99-.325 1.162-.915.585-1.999 1.158-4.001 1.738-6.002.258-.88.52-1.752.797-2.692.109.199.183.32.246.452l4.09 8.386c.26.527.639.868 1.203.918.068.005.137.005.205 0 .51.028.972-.303 1.111-.796.537-1.55 1.072-3.103 1.58-4.665.081-.247.171-.369.348-.37.095.003.19.025.277.062 1.52.584 3.045 1.13 4.568 1.703.233.094.48.145.732.149.35.002.68-.166.885-.452.41-.543.297-1.171-.032-1.831-.955-1.91-1.891-3.83-2.837-5.747-.832-1.686-1.666-3.37-2.501-5.052"/><path fill="#FCCDD3" d="M406.02 64.315a3.382 3.382 0 0 1-2.046.648H403.52c-.655-.034-1.307-.022-1.961-.031h-.206c-.342.012-.679.089-.993.226l-.083.038c-1.23.592-2.212 1.619-3.544 2.035.035.12.077.239.126.355l5.113 10.42c.085.177.144.405.404.41h.013c.226 0 .269-.204.332-.378.614-1.661 1.235-3.318 1.828-4.989.082-.226.17-.337.332-.339.09.005.178.024.262.057 1.742.621 3.487 1.211 5.232 1.808.098.045.202.075.309.088.07 0 .135-.034.174-.093.13-.174 0-.359-.077-.529a48.735 48.735 0 0 0-.695-1.426l-4.063-8.307"/><path fill="#6534FF" d="M384.402 46.19h-.013c-.677 0-1.354-.025-2.047-.02-.244 0-.307-.12-.323-.346-.03-.387-.077-.778-.115-1.164-.038-.387-.063-.717-.113-1.076-.036-.265.034-.38.273-.382h.036c.657.022 1.31.027 1.962.027.404 0 .618.24.677.635.079.574.133 1.15.174 1.725.024.373-.145.596-.508.601m-3.397-4.069c-.291 0-.343.129-.305.452.138 1.169.244 2.338.364 3.506l.352 3.463c.001.126.022.25.06.369a.555.555 0 0 0 .526.377h.055c.331-.03.41-.294.39-.583a35.842 35.842 0 0 0-.205-2.057c-.04-.314.013-.452.289-.452h.074c.619.032 1.235.036 1.85.032h.159c.788-.014 1.354-.65 1.286-1.497a28.167 28.167 0 0 0-.203-2.01 1.739 1.739 0 0 0-1.668-1.548c-.988-.013-1.977 0-2.97-.045h-.054m9.866 7.222c-.167 0-.255-.154-.337-.298-.404-.717-.812-1.429-1.216-2.14l-.052-.103a1.553 1.553 0 0 1-.147-.556c0-.081 0-.167.014-.246a.99.99 0 0 1 .033-.158c.271-.776.544-1.549.838-2.313.063-.16.156-.242.257-.246.102-.005.21.09.305.253.451.773.885 1.555 1.311 2.34.027.051.05.105.068.16.025.081.04.165.06.249.026.185.016.373-.03.554l-.035.094c-.257.708-.523 1.411-.783 2.119-.052.142-.11.287-.273.291h-.013m-.72-7.132H389.806a1.104 1.104 0 0 0-.716.678c-.3.783-.577 1.583-.86 2.374a2.32 2.32 0 0 0 .186 1.937c.401.75.823 1.492 1.234 2.24.312.561.72.905 1.33.905h.097c.568 0 .889-.344 1.076-.877.262-.742.535-1.472.786-2.216a2.343 2.343 0 0 0-.21-1.94c-.452-.802-.885-1.606-1.354-2.4a1.522 1.522 0 0 0-.856-.7l-.043-.012h-.031a.631.631 0 0 0-.063-.014h-.016l-.066-.01h-.149"/><path fill="#6534FF" d="M386.436 28.056c1.142 0 2.23-.52 3.187-1.336.72-.617 1.458-.926 2.228-.933.82 0 1.675.325 2.577.997.82.61 1.702 1.144 2.68 1.295.523.07 1.052.094 1.58.072h.794c.361 0 .727 0 1.09.041.955.106 1.686.66 2.244 1.521.359.556.71 1.115 1.043 1.687a6.66 6.66 0 0 0 2.692 2.626c.65.337 1.28.707 1.89 1.11.902.61 1.329 1.483 1.449 2.527.079.679.164 1.375.196 2.058a6.39 6.39 0 0 0 1.25 3.41c.341.487.664.988.987 1.49.726 1.13.81 2.26.295 3.362-.275.596-.546 1.195-.826 1.792a4.95 4.95 0 0 0-.415 2.656c.1.952.253 1.904.266 2.853a2.46 2.46 0 0 1-1.185 2.208c-.451.306-.916.606-1.397.87a4.813 4.813 0 0 0-2.232 2.67c-.194.527-.429 1.031-.648 1.542-.451 1.042-1.246 1.526-2.336 1.537h-.102c-.625 0-1.252 0-1.88-.04-.128 0-.255-.014-.379 0a4.447 4.447 0 0 0-2.652.93c-.386.286-.792.539-1.185.812-.447.33-.984.515-1.54.53a3.256 3.256 0 0 1-1.787-.582 71.168 71.168 0 0 0-1.806-1.105 4.545 4.545 0 0 0-2.35-.714c-.769 0-1.54 0-2.313-.018-1.128-.014-2.045-.514-2.722-1.583-.214-.339-.451-.678-.632-1.026a8.004 8.004 0 0 0-3.873-3.716 9.026 9.026 0 0 1-1.081-.651c-.923-.606-1.354-1.497-1.474-2.561-.054-.498-.126-1.002-.138-1.497a7.301 7.301 0 0 0-1.58-4.372c-.225-.28-.385-.592-.589-.884-.864-1.243-.952-2.468-.363-3.69.284-.59.555-1.192.826-1.791.346-.764.472-1.61.366-2.442-.093-.795-.167-1.582-.255-2.387-.134-1.23.243-2.158 1.187-2.755.451-.287.903-.588 1.354-.846a4.883 4.883 0 0 0 2.257-2.66c.236-.663.521-1.306.853-1.926.438-.791 1.129-1.13 1.998-1.166h.248c.402 0 .833.015 1.418.022.26.05.526.074.792.07m5.304-3.187a3.1 3.1 0 0 0-1.533.436c-.393.216-.77.461-1.128.733a4.835 4.835 0 0 1-3.034 1.148 4.764 4.764 0 0 1-.663-.039 7.007 7.007 0 0 0-.87-.038c-.225 0-.44 0-.658.014a2.802 2.802 0 0 0-2.377 1.193 9.03 9.03 0 0 0-1.045 2.21 4.422 4.422 0 0 1-2.108 2.487c-.451.25-.903.534-1.323.826-1.128.752-1.632 1.862-1.46 3.374.074.679.115 1.34.226 2.01a4.887 4.887 0 0 1-.492 2.995c-.315.595-.592 1.21-.829 1.84a4.029 4.029 0 0 0 .337 3.42c.276.51.587 1 .93 1.467a6.702 6.702 0 0 1 1.446 4.02c.022.564.077 1.126.165 1.684a4.133 4.133 0 0 0 1.659 2.861c.664.465 1.358.884 2.079 1.255.724.407 1.417.859 1.914 1.582.792 1.169 1.429 2.446 2.372 3.508.211.08.398.215.54.392.213.044.412.14.58.28.078.02.155.043.225.06a7.48 7.48 0 0 0 1.781.189h.167c.226 0 .47-.014.702-.025h.381c1.147 0 2.19.416 3.212 1.087l.136.09c.93.631 1.88 1.24 2.98 1.278h.376a.953.953 0 0 1 .305.036c1.331-.418 2.313-1.445 3.543-2.035l.084-.038c.314-.137.65-.214.993-.226H401.565c.655 0 1.307 0 1.962.031H403.98a3.396 3.396 0 0 0 2.048-.648c.107-.173.248-.322.415-.439.093-.219.227-.417.395-.585.287-.71.582-1.41.858-2.125a3.94 3.94 0 0 1 1.805-2.035c.497-.287.991-.587 1.465-.915 1.11-.757 1.62-1.872 1.445-3.39-.093-.778-.163-1.558-.25-2.34a3.961 3.961 0 0 1 .308-2.132c.298-.653.596-1.302.89-1.958.589-1.32.519-2.67-.307-4.044a14.196 14.196 0 0 0-.79-1.216 6.715 6.715 0 0 1-1.465-4.069c0-.51-.088-1.03-.145-1.544a4.199 4.199 0 0 0-1.846-3.108 16.979 16.979 0 0 0-1.887-1.112 5.872 5.872 0 0 1-2.46-2.396 29.026 29.026 0 0 0-.986-1.603c-.84-1.293-1.944-1.998-3.354-2-.51 0-1.02-.023-1.528-.016H398.139a4.96 4.96 0 0 1-2.83-.904c-.576-.376-1.154-.753-1.759-1.067a3.9 3.9 0 0 0-1.805-.48"/><path fill="#6534FF" d="M405.617 46.454h-.03c-.677-.01-1.338-.027-2.004-.022-.225 0-.323-.08-.338-.323-.027-.391-.075-.78-.115-1.169-.041-.389-.06-.717-.113-1.074-.043-.287.038-.4.289-.402h.047c.639.022 1.278.03 1.916.025a.638.638 0 0 1 .677.617c.086.576.136 1.153.179 1.727.029.395-.147.617-.526.621m-3.372-4.068c-.269 0-.355.097-.314.434.142 1.168.246 2.337.366 3.506.12 1.168.243 2.37.359 3.555.036.387.191.654.577.663h.027c.413 0 .452-.355.416-.706a49.337 49.337 0 0 0-.206-2.011c-.034-.27.034-.367.269-.369h.043c.65.024 1.3.033 1.948.027h.103c.81 0 1.355-.655 1.3-1.528a31.983 31.983 0 0 0-.2-1.964 1.741 1.741 0 0 0-1.655-1.56c-.99-.016-1.98-.013-2.97-.045h-.063m-3.636 5.423-1.56-.02a.144.144 0 0 1-.133-.172l.535-2.552a.097.097 0 0 1 .054-.075H397.59v.014a.151.151 0 0 1 .058.07l1.027 2.57a.115.115 0 0 1-.094.17m-1.3-5.478c-.06.001-.12.01-.179.025-.226.057-.275.3-.316.529-.257 1.47-.519 2.939-.776 4.41-.143.803-.294 1.6-.425 2.405-.052.335.046.645.416.744.06.017.12.026.182.027.226 0 .353-.145.391-.432.045-.345.133-.678.178-1.024.03-.226.127-.312.328-.314h.04c.474.018.948.025 1.418.02h.117a.395.395 0 0 1 .451.344c.095.335.226.66.366.986.1.253.226.463.528.452h.032c.334 0 .523-.305.386-.678-.87-2.37-1.745-4.737-2.625-7.103a.517.517 0 0 0-.51-.393"/></g></g><path fill="#E9EDF5" d="M0 290v-10.802C73.992 239.733 143.258 220 207.8 220c64.543 0 120.276 8.649 167.2 25.946V290H0Z"/></g></svg>