<svg xmlns="http://www.w3.org/2000/svg" width="979" height="706" fill="none"><path fill="#F1F5FD" d="M449.345 43.207C483.181-.06 555.114-5.404 602.3 6.03c54.665 13.243 56.027 44.155 106.714 69.71 111.259 56.087 205.681-41.974 269.891 9.943 49.545 40.079 51.155 144.889 9.326 190.095-30.168 32.621-63.271 12.92-96.237 45.74-53.391 53.161-1.007 139.159-44.214 177.485-51.526 45.71-167.797-39.544-201.708-1.087-32.127 36.437 60.243 126.556 29.223 177.957-46.297 76.659-315.485-18.308-344.671-28.817-99.781-35.902-229.289-100.958-220.97-149.861 5.453-32.012 66.069-34.181 72.573-74.781 6.292-39.277-47.634-54.627-52.229-104.594-5.092-55.609 53.752-123.113 113.038-131.751 2.885-.423 9.326-.547 15.904-.621 34.596-.467 54.716 5.263 69.595 6.73 29.223 2.871 60.871-8.433 78.834-23.137 39.986-32.733 7.579-81.854 41.976-125.835Z" opacity=".88"/><path fill="#E6EDFE" d="M675.802 675.309c31.023-51.483-61.283-141.745-29.203-178.239 33.888-38.518 150.077 46.87 201.567 1.089 43.177-38.387-9.17-124.522 44.184-177.766 32.931-32.872 66.023-13.14 96.17-45.813a90.451 90.451 0 0 0 11.98-16.551V230.33h-9.631v-17.117l-12.116-124.49v21.785h-43.494V85.299h-23.3l-25.164 25.209H874.99v164.016h-23.257v-15.897h-38.852v25.234h-60.58V95.57a30.898 30.898 0 0 0-1.479-6.847 163.788 163.788 0 0 1-35.373-11.634c-8.475 6.79-9.438 18.823-9.438 18.823v178.643H682.4v-96.38h-41.008v116.89h-49.707v-49.173h-27.339V207.3h-48.464v67.847h-27.339v-59.133l-28.581 28.633v47.306h-27.96v47.811h-24.543V237.488l-15.844-15.872h-18.019v-34.235h-6.213a119.444 119.444 0 0 1-11.805 2.49v31.123h-14.291l-21.126 21.163v107.062h-57.784v-59.133h-44.115v63.49h-35.416v-68.47h-48.464v47.773c12.905 37.739 54.261 53.799 48.713 88.538-6.499 40.671-67.104 42.837-72.523 74.899-8.313 48.981 121.105 114.139 220.798 150.13 11.719 4.226 62.177 22.122 121.347 37.029h216.728a43.914 43.914 0 0 0 6.357-8.166Z"/><path fill="#9289FF" d="M378.583 542.099c22.113-15.033 21.031-71.5-6.102-96.164-21.573-19.604-40.657-1.861-72.779-19.622-39.437-21.812-32.533-60.716-68.978-84.406-34.032-22.116-81.108-23.4-88.386-9.644-7.595 14.351 34.051 34.072 65.053 97.33 21.772 44.349 10.905 54.266 31.656 75.842 25.647 26.667 61.812 31.895 108.104 38.599 18.86 2.723 25.653 1.991 31.432-1.935Z" opacity=".4"/><path fill="#6534FF" d="M333.535 451.08c-2.991.62-4.549 5.41-4.66 8.31-.136 3.612.94 7.503 2.343 11.258 11.44 30.715 54.57 70.018 83.274 59.485 4.84-1.779 10.402-5.112 8.69-11.978-3.195-12.783-23.419-24.475-33.296-30.783a375.037 375.037 0 0 0-36.158-20.411c-5.563-4.827-10.761-10.769-16.756-14.945a4.35 4.35 0 0 0-3.437-.936Z" opacity=".61"/><path fill="#FCCDD3" d="M266.272 303.331c5.47.998 36.469 7.195 58.412 34.667 25.429 31.828 7.797 53.603 27.319 96.658 23.209 51.174 68.049 64.38 62.804 75.208-5.832 12.044-67.781 9.149-95.356-26.73-22.455-29.219-.979-52.816-20.914-94.542-25.005-52.335-83.025-65.971-77.754-80.138 3.568-9.592 31.748-7.645 45.489-5.123Z" opacity=".6"/><path stroke="#fff" stroke-linecap="round" stroke-linejoin="round" stroke-width="3" d="M360.102 518.098c-74.164-21.286-99.12-51.253-108.076-74.917-6.851-18.116-4.403-32.746-16.517-52.757-17.189-28.394-47.775-41.347-70.19-47.811"/><path fill="#FCCDD3" d="M308.854 493.185c58.097 20.528 92.709 32.754 91.652 45.763-1.431 17.567-68.366 41.584-111.585 18.029-26.265-14.313-26.315-36.674-70.474-69.41-22.26-16.503-36.813-21.623-35.601-24.896 2.581-6.954 70.219 10.805 126.008 30.514Z" opacity=".6"/><path stroke="#fff" stroke-linecap="round" stroke-linejoin="round" stroke-width="3" d="M380.316 541.265c-37.817 10.155-60.286 3.9-73.664-3.353-19.834-10.753-25.028-26.609-52.846-45.25a169.636 169.636 0 0 0-42.548-20.503"/><path stroke="#fff" stroke-linecap="round" stroke-linejoin="round" stroke-width="2.55" d="M396.854 504.317c-15.497-4.521-37.368-13.655-52.211-33.951-17.986-24.605-12.477-47.601-21.353-74.556-7.591-23.07-27.177-53.567-82.63-80.759m34.914 21.131-8.269-17.456m23.888 30.319-18.376-4.594m26.645 11.944-7.35-29.4m19.295 45.938-17.457-7.35m25.726 21.132 3.675-30.32m2.756 45.02L308.65 390.39m20.214 33.994 5.512-16.538m-3.675 26.645-18.376-12.863m23.889 32.157 2.756-17.457m2.757 30.319-19.295-9.187"/><path fill="#fff" d="M758.067 161.72c-3.142 3.054-6.396 6.165-8.539 9.995-4.435 7.946-3.179 18.822 3.393 25.144 6.572 6.321 18.025 7.046 24.98 1.143a35.105 35.105 0 0 0 5.328-6.185 16.497 16.497 0 0 0 2.727-4.741c.439-1.753.569-3.569.383-5.366-.22-4.061-.666-8.184-2.28-11.919-4.367-10.064-17.498-16.242-25.992-8.071Z"/><path fill="#E2A3AE" d="M733.122 255.622s-38.857-13.573-42.932 27.827c-4.076 41.4 44.799 86.728 44.799 86.728l37.65-58.232-39.517-56.323Z"/><path fill="#5CBEFF" d="M415.798 352.362s-9.932-.314-12.415 2.201c-2.483 2.516-16.76 3.773-16.76 18.867 0 15.093-4.966 16.351 9.932 20.124 14.898 3.773 29.715 28.991 29.715 28.991l64.017-49.335s15.518-24.936 6.828-28.08c-8.69-3.144-22.688-1.189-32.763 1.887-10.074 3.075-48.554 5.345-48.554 5.345Z"/><path fill="#2B0FD3" d="M417.922 358.27s-14.973 1.828-16.221 7.311c-1.248 5.482 1.872 26.945 14.973 29.851 13.102 2.905 31.887 6.774 31.819 10.356-.069 3.582 18.716-37.771 34.314-45.69 15.597-7.92-18.455-6.33-18.455-6.33l-46.43 4.502Z" opacity=".46"/><path fill="#6535FF" d="M442.154 223.359c-7.499-6.313-37.187-1.154-45.616 3.247-3.85 2.011-8.261 7.293-8.124 12.719.1 3.947 2.556 5.698 1.25 8.293-1.793 3.575-7.367 2.123-9.998 5.53-3.125 4.029 3.018 8.207 1.875 16.034-1.194 8.194-8.843 10.069-7.499 14.898 1.543 5.587 12.091 5.047 13.747 11.061 1.075 3.886-3.043 5.177-3.749 11.056-1.056 8.814 6.699 18.349 12.498 18.25 2.787-.05 4.755-2.316 5.624-1.658 1.206.9-3.044 4.873-2.5 8.846.75 5.444 10.523 10.974 17.497 9.932 12.703-1.863 17.559-25.662 19.996-37.599 3.755-18.33 26.013-62.955 4.999-80.609Z"/><path fill="#fff" d="m462.698 404.738-39.078 9.538-14.822-118.521h60.64l-6.74 108.983Z"/><path fill="#2B0FD3" d="M435.202 375.688a3.655 3.655 0 0 1-.506.92c.498-.236.693-.59.506-.92Z" opacity=".46"/><path fill="#9289FF" d="M424.352 296.674h-15.554l14.214 112.485a8.863 8.863 0 0 0 6.545-.217c-1.787-6.358-3.555-13.269-1.135-19.416 2.115-5.377 7.289-9.73 7.246-15.523.194.159.331.377.391.621.918-4.539-2.11-9.221-4.964-13.114-3.102-4.241-6.204-9.668-3.989-14.418l10.175-4.135c-2.866-6.085-9.927-8.972-14.052-14.281-6.204-7.935-4.622-19.547-.453-28.711a165.719 165.719 0 0 0 1.576-3.291Z" opacity=".46"/><path fill="#62BCF9" d="m395.833 385.781 1.021-4.58s-5.452 4.887-1.021 4.58Z"/><path fill="#5CBEFF" d="M485.115 359.296c-6.525-1.39 6.076 7.69-.66 8.039-32.375 3.739-36.21 44.987-49.054 33.994-15.696-13.429-29.393-12.108-34.374-17.168-3.026 1.246-4.981 1.807-6.188 1.869l-43.924 228.147c37.007 1.87 73.933 3.639 110.821 4.986 21.884-101.068 50.3-254.14 23.379-259.867Z"/><path fill="#DDDBFF" d="M490.283 474.723c-.31 28.104-23.191 50.725-51.309 50.725-28.117 0-50.998-22.621-51.308-50.725 0-28.327 54.478-62.284 82.815-62.284 28.338 0 19.802 33.938 19.802 62.284Z"/><path fill="#2B0FD3" d="M481.428 429.259c1.491-7.01 2.989-14.106 2.667-21.265-.322-7.159-2.673-14.497-7.853-19.443-2.197-2.095-5.607-3.719-8.163-2.095-1.943 1.24-2.475 3.793-2.883 6.068a161.313 161.313 0 0 1-19.339 52.503c-4.771 8.181-10.52 16.877-9.239 26.261.42 3.167 1.627 6.161 2.673 9.179 3.577 10.363 5.279 21.693 2.661 32.341-2.191 8.906-7.228 16.79-11.343 24.984-4.116 8.194-7.426 17.391-5.743 26.409.823 4.451 2.822 8.591 3.991 12.96 3.453 12.874-.489 26.255-1.999 39.612l13.411.551 16.529-72.243 24.63-115.822Z" opacity=".46"/><path fill="#6534FF" d="M409.604 421.487c-2.069-15.666-12.752-41.206-12.752-41.206L346.32 612.796l16.987.852c3.51-23.91 9.116-57.631 13.879-66.18 7.606-13.602 34.482-110.314 32.418-125.981Z" opacity=".18"/><path fill="#9289FF" d="m472.195 339.373-5.047 8.185s-11.533 10.466-29.5 5.802c-17.967-4.665-28.85-52.091-28.85-52.091l63.397 38.104Z" opacity=".46"/><path fill="#6535FF" d="M476.007 292.286c-4.711 8.219-10.133 8.654-10.242 12.88-.141 5.52 8.962 12.487 17.284 11.653 8.846-.89 13.494-10.261 16.003-15.333 7.342-14.817 7.752-37.448-3.201-42.931-7.092-3.551-18.66.227-20.484 5.52-1.466 4.262 4.283 6.924 4.481 15.332.141 5.937-2.593 10.696-3.841 12.879Z"/><path fill="#fff" d="M449.225 348.125c25.879 0 46.858-29 46.858-64.773 0-35.773-20.979-64.773-46.858-64.773-25.879 0-46.858 29-46.858 64.773 0 35.773 20.979 64.773 46.858 64.773Z"/><path fill="#9289FF" d="M423.069 333.484c-6.262-7.999-4.665-19.702-.457-28.94 2.842-6.258 6.806-13.143 4.27-19.483-.958-2.403-2.768-4.381-3.889-6.715-3.243-6.728-.281-14.664 2.68-21.523l-18.077-3.33a86.03 86.03 0 0 0-5.228 29.954c0 29.759 14.345 54.875 33.994 62.842-3.275-5.114-9.493-7.949-13.293-12.805Z" opacity=".46"/><path fill="#6535FF" d="M416.546 303.025c.127-4.92.505-9.829 1.134-14.71.98-7.628 1.562-7.336 1.24-10.013-.62-6.05-3.98-10.871-1.593-14.759.111-.188.233-.368.366-.541.663-.888 1.977-2.223 6.199-5.199 9.676-6.833 16.055-13.311 25.415-13.044 8.635.242 7.644 6.982 24.176 13.044 7.439 2.733 9.776 2.131 14.878 5.591 5.882 3.982 9.639 9.398 12.131 8.237 1.072-.497 1.364-1.97 1.506-2.647 1.86-8.696 3.986-32.468.446-45.432-3.539-12.964-24.504-9.84-24.504-9.84s2.48-24.182-30.492-18.014c-26.656 4.97-32.235 21.12-41.874 40.315-20.866 41.562 2.269 76.876 2.269 76.876l7.488 1.242 1.215-11.106Z"/><path fill="#3E1EC4" d="M528.914 404.488c-7.481 42.08-1.932 65.263 4.954 78.787 7.431 14.573 9.079 21.918 12.386 36.603 3.251 14.417 2.409 18.983.619 22.333-5.623 10.509-23.991 15.28-35.918 11.167-35.572-12.277-51.283-116.562-12.386-142.686 8.689-5.838 19.34-7.253 30.345-6.204Z"/><path fill="#F9879A" d="M584.752 419.937c63.518-24.478 138.875-45.45 138.875-45.45l22.367-132.938s-43.769-9.273-73.137 13.84c-26.183 20.6-143.382 83.689-172.408 99.243-2.312 1.241-12.418 1.912-19.206 2.234-3.706.193-6.783 2.914-7.413 6.555l-43.9 253.227a5736.13 5736.13 0 0 0 41.993 1.595l55.987-1.098s-6.67-172.729 56.842-197.208Z"/><path fill="#52D2BC" d="M482.084 356.953c-3.613.2-6.614 3.028-7.225 6.81l-.827 5.064c.964 1.048 2.351 1.529 3.713 1.288 4.254-.644 17.015-7.731 23.092-8.375 3.427-.368 3.761-5.032 3.403-9.02l-3.403 1.933c-2.279 1.262-12.135 1.965-18.753 2.3Z"/><path fill="#D3637B" d="m513.352 430.389-35.644 5.019 2.938-9.681 35.651-5.019-2.945 9.681Z"/><path fill="#F87588" d="m727.619 362.247-25.591-22.391c.069.063-10.611 12.481-11.666 13.748-5.617 6.83-12.708 12.058-20.647 16.038-9.412 4.719-19.561 7.781-29.486 11.32-13.769 4.905-27.17 10.761-40.801 16.02-10.886 4.197-22.058 6.277-32.856 10.307-18.301 6.83-35.103 20.062-36.864 40.733-3.414 40.137-13.675 59.864-17.776 63.26-4.1 3.397 4.101 22.453 4.101 25.173 0 1.614-.362 59.758-.362 80.869l12.483-1.242s-6.647-172.822 56.943-197.312c63.59-24.489 139.045-45.47 139.045-45.47l3.477-11.053Z"/><path fill="#7168DE" d="M511.38 349.335s6.887 142.055 16.426 159.461a60.698 60.698 0 0 1 5.017 11.811c3.128 10.487 1.342 16.784 1.342 16.784s-34.975-5.595-37.518-54.082c-2.544-48.487-6.995-133.029-6.995-133.029s9.093-6.235 21.728-.945Z"/><path stroke="#fff" stroke-linecap="round" stroke-linejoin="round" stroke-width="5.1" d="M526.404 523.61s-21.196-20.372-21.819-77.786c-.624-57.414-2.07-78.404-2.07-78.404"/><path fill="#99485F" d="m735.779 368.556 36.86-57.18-71.665 29.831c3.638 9.566 7.633 18.458 11.228 25.875a13.561 13.561 0 0 0 11.361 7.662 13.538 13.538 0 0 0 12.216-6.188Zm-41.237-98.525c9.933-5.345 19.284-10.691 28.483-16.392-9.145-.783-22.166 1.159-28.483 16.392Z"/><path fill="#fff" d="m911.449 233.535-104.515-42.518a523.13 523.13 0 0 1-50.202 40.142c-11.615 8.166-22.68 15.234-33.961 21.805-9.386 5.467-18.928 10.593-29.063 15.718a45.878 45.878 0 0 0-3.449 14.142c-1.734 17.648 4.031 39.094 11.219 57.952l70.857-29.395c45.348-16.028 75.167-22.184 95.642-24.474 6.694-.75 34.315-3.543 46.809-17.679 0 0 .186-.211 12.21-14.272l-15.547-21.421Z"/><path fill="#9289FF" d="M904.96 273.291c-7.01-2.837-5.79-45.437-12.805-48.28-21.036.261-38.84 15.584-45.296 36.818-11.242-20.539-26.22-34.769-34.649-33.428-14.076 2.254-15.85 48.932-43.652 56.457-3.66.987-6.848 1.056-13.64 3.403-15.438 5.339-24.396 13.852-30.005 18.366-10.291 8.27-20.469 12.045-29.452 14.28 1.868 6.755 4.177 13.467 6.63 19.868l61.593-25.456 9.649-3.98c45.594-16.037 75.575-22.197 96.162-24.488 2.795 0 30.298-.987 47.063-17.689 0 0 .043-.043 12.276-14.28l-23.874 18.409Z" opacity=".46"/><path fill="#B1AFFF" d="m755.245 25.037 6.216-.781 84.508-10.664 5.395-.682c9.876-1.239 18.949 6.197 20.258 16.637l28.572 228.193c1.303 10.441-5.647 19.909-15.53 21.161l-96.118 12.126c-9.876 1.239-18.95-6.196-20.252-16.643L739.721 46.191c-1.308-10.435 5.642-19.909 15.524-21.154Z" opacity=".61"/><path fill="#fff" d="M904.657 120.523c6.406-.612 13.237-.293 18.692 3.061 5.906 3.613 9.34 10.555 9.153 17.369-.188 6.814-3.754 13.34-9.109 17.754-3.966 3.264-8.889 5.48-12.174 9.404-1.707 2.039-2.896 4.469-4.71 6.416-4.867 5.247-13.675 5.859-19.937 2.314-6.262-3.544-10.01-10.493-10.829-17.528-.82-7.034.982-14.154 3.753-20.692 1.571-3.674 3.81-12.949 6.769-15.453 3.128-2.712 14.201-2.241 18.392-2.645Z"/><path fill="#fff" d="M902.819 78.26c6.406-.613 13.238-.294 18.699 3.06 5.906 3.613 9.334 10.555 9.146 17.37-.188 6.813-3.753 13.34-9.102 17.754-3.973 3.263-8.89 5.51-12.18 9.403-1.702 2.039-2.897 4.47-4.705 6.416-4.867 5.247-13.681 5.859-19.943 2.315-6.262-3.545-10.009-10.494-10.829-17.528-.819-7.035.982-14.155 3.754-20.693 1.57-3.674 3.803-12.948 6.769-15.453 3.134-2.7 14.2-2.24 18.391-2.644Z"/><path fill="#2B0FD3" d="M895.757 108.327s12.406 1.275 16.539.637c4.133-.637 0 1.907 0 1.907s-2.755 3.806-16.539-2.544Z" opacity=".46"/><path fill="#52D2BC" d="M866.499 18.706a19.205 19.205 0 0 1 8.218 4.741 20.383 20.383 0 0 1 6.225 12.694l22.491 233.692c.865 9.009-4.905 16.267-13.129 17.062-.655.063-1.314.086-1.973.068l-99.353-2.87a17.212 17.212 0 0 1-5.478-1.075 18.627 18.627 0 0 0 9.593 3.106l99.371 2.865c.692.018 1.384-.005 2.073-.068a15.221 15.221 0 0 0 4.09-.97c5.647-3.485 9.033-10.171 8.286-17.938L884.422 36.321a24.076 24.076 0 0 0-3.194-9.823 21.869 21.869 0 0 0-2.82-2.964 19.125 19.125 0 0 0-11.909-4.834v.006Zm-106.126-6.928c-9.891.957-16.808 9.65-15.78 20.424L767.09 265.9a24.442 24.442 0 0 0 7.526 15.272 22.47 22.47 0 0 0 14.43 6.456 22.376 22.376 0 0 1-9.064-4.821 24.494 24.494 0 0 1-5.054-6.09 20.164 20.164 0 0 1-4.358-10.656L748.072 32.37c-.722-7.457 3.113-13.744 9.164-16.118a16.772 16.772 0 0 1 7.345-2.485c.77-.075 1.544-.1 2.316-.075l2.49.075v-.13l87.37 2.522v.13l9.487.274c2.324.073 4.616.552 6.773 1.416a21.558 21.558 0 0 0-10.875-3.417l-99.378-2.864a18.914 18.914 0 0 0-2.384.08"/><path fill="#3E1EC4" d="M796.828 145.069c0 .099-.044.199-.062.304 0-.105.037-.205.062-.304Zm63.459-127.343c-.075 9.487-6.53 16.85-15.488 17.714-.774.077-1.551.104-2.328.08l-46.203-1.335c.713.106 1.432.168 2.153.186l47.971 1.386a17.36 17.36 0 0 0 2.21-.075c8.803-.845 15.084-8.357 14.661-17.876l-2.976-.08Zm26.002 234.94-93.862-2.709-1.768-18.366 93.862 2.709 1.768 18.366Zm-2.676-27.805-93.863-2.709-1.768-18.366 93.863 2.709 1.768 18.366Zm-15.719-163.25-93.856-2.69-.884-9.184 93.862 2.709.878 9.183v-.018Zm-97.411-46.918.05.485c-.69-.018-1.38.005-2.067.068-8.541.82-14.554 8.357-13.645 17.733l22.497 233.692c.082.879.223 1.751.424 2.61a21.532 21.532 0 0 0 9.188 13.085 17.183 17.183 0 0 0 5.472 1.081l99.372 2.865c.658.02 1.317-.001 1.973-.062 8.23-.796 14-8.078 13.135-17.062L884.384 35.496a20.351 20.351 0 0 0-6.225-12.7 19.26 19.26 0 0 0-8.217-4.741l-4.582-.13c.536 10.562-6.399 18.981-16.253 19.938-.828.078-1.66.105-2.491.08l-47.933-1.385a22.487 22.487 0 0 1-12.606-4.504 24.277 24.277 0 0 1-12.911-16.777l-2.596-.074-.05-.485-.037-.025Zm-9.811.926c-6.038 2.367-9.885 8.643-9.163 16.111L774 265.43a20.164 20.164 0 0 0 4.358 10.649 23.465 23.465 0 0 1-2.627-6.573 21.69 21.69 0 0 1-.48-2.908L752.76 32.905c-.722-7.456 2.49-13.9 7.894-17.286"/><path fill="#52D2BC" d="M869.905 18.023c3.092.871 5.917 2.5 8.217 4.74a20.351 20.351 0 0 1 6.225 12.701l22.498 233.692c.865 9.009-4.906 16.267-13.135 17.062-.656.061-1.315.082-1.974.062l-99.372-2.864a17.238 17.238 0 0 1-5.472-1.081 18.633 18.633 0 0 0 9.593 3.106l99.372 2.871a16.3 16.3 0 0 0 2.073-.075c1.4-.129 2.775-.456 4.084-.969 5.652-3.486 9.039-10.165 8.292-17.938L887.833 35.626a23.944 23.944 0 0 0-3.193-9.799 21.273 21.273 0 0 0-2.827-2.964 19.109 19.109 0 0 0-11.908-4.84Zm-106.12-6.928c-9.892.957-16.808 9.65-15.781 20.43l22.498 233.692a24.435 24.435 0 0 0 7.52 15.272 22.47 22.47 0 0 0 14.436 6.456 22.354 22.354 0 0 1-9.064-4.816 24.5 24.5 0 0 1-5.055-6.095 20.164 20.164 0 0 1-4.358-10.65L751.49 31.686c-.722-7.456 3.113-13.744 9.163-16.111a16.835 16.835 0 0 1 7.34-2.485 17.963 17.963 0 0 1 2.322-.069l2.49.069a.947.947 0 0 1 0-.13l87.37 2.528v.124l9.487.274c2.315.075 4.6.548 6.754 1.398a21.61 21.61 0 0 0-10.869-3.4l-99.378-2.87c-.796-.02-1.592.007-2.384.081Z"/><path fill="#52D2BC" d="M773.129 15.233A24.274 24.274 0 0 0 786.04 32.01a34.193 34.193 0 0 1-1.581-1.243 25.607 25.607 0 0 1-8.155-13.452 23.154 23.154 0 0 1-.374-1.995l-2.801-.08v-.007Zm-.33-2.255a.947.947 0 0 0 0 .13l3.909.112c.291.014.566.136.772.342.218.204.355.48.386.777.091.934.243 1.862.455 2.777a23.103 23.103 0 0 0 7.339 12.116 20.93 20.93 0 0 0 10.583 4.97l46.203 1.337c.777.023 1.554-.004 2.328-.081 8.958-.864 15.413-8.227 15.488-17.714l-28.847-.833a1.245 1.245 0 0 1-1.146-.988v-.106a.888.888 0 0 1 .797-1.031h.125l29.002.839V15.5l-87.4-2.53"/><path fill="#FF9EAF" d="m772.425 11.213-.062-.584-.118-1.056.118 1.056.062.584.056.485 2.596.074 2.801.081c.092.671.216 1.336.374 1.995a25.614 25.614 0 0 0 8.155 13.451c.51.442 1.039.864 1.581 1.243a22.436 22.436 0 0 0 12.606 4.505l47.934 1.386c.83.024 1.662-.003 2.49-.081 9.854-.957 16.807-9.32 16.253-19.94l4.582.131a19.113 19.113 0 0 1 11.903 4.84 21.672 21.672 0 0 1 2.826 2.964 21.271 21.271 0 0 1 4.04 8.364c.201.859.343 1.73.423 2.61l22.498 233.691c.753 7.792-3.275 14.291-9.562 16.776-1.309.514-2.683.84-4.084.97-.688.069-1.381.093-2.073.074l-99.371-2.87a18.616 18.616 0 0 1-9.593-3.107 20.775 20.775 0 0 1-2.316-1.74 21.605 21.605 0 0 1-6.848-11.333 19.321 19.321 0 0 1-.417-2.61L756.781 29.48c-.908-9.376 5.099-16.912 13.646-17.733a17.454 17.454 0 0 1 2.067-.068l-.056-.485-.013.019Zm-2.477-1.59a16.831 16.831 0 0 0-7.34 2.485c-5.403 3.386-8.615 9.81-7.893 17.285l22.491 233.692c.095.979.253 1.95.473 2.908.53 2.301 1.4 4.511 2.584 6.555a24.4 24.4 0 0 0 5.054 6.096 22.28 22.28 0 0 0 9.064 4.815c1.404.366 2.845.574 4.296.621l99.372 2.871c.772.023 1.546-.004 2.315-.081 9.587-.932 16.242-9.32 15.239-19.758L893.112 33.426a21.413 21.413 0 0 0-.479-2.902 24.075 24.075 0 0 0-7.682-12.669 22.767 22.767 0 0 0-6.605-4.032 20.223 20.223 0 0 0-6.754-1.398l-9.487-.274-29.01-.838h-.118a.887.887 0 0 0-.797 1.031v.106c.115.55.584.954 1.146.987l28.847.833 2.976.08c.423 9.52-5.858 17.032-14.661 17.877a17.35 17.35 0 0 1-2.209.074l-47.971-1.385a17.65 17.65 0 0 1-2.154-.187 20.93 20.93 0 0 1-10.583-4.97 23.066 23.066 0 0 1-7.308-12.11 21.557 21.557 0 0 1-.455-2.778 1.241 1.241 0 0 0-.386-.776 1.17 1.17 0 0 0-.772-.342l-3.909-.112-2.49-.068a17.956 17.956 0 0 0-2.322.068"/><path fill="#5CBEFF" d="m787.982 203.804 1.768 18.372 93.863 2.703-1.769-18.373-93.862-2.702Z"/><path fill="#BBC4EF" d="m773.154 49.735.884 9.19 93.863 2.703-.884-9.183-93.863-2.71Z"/><path fill="#F9879A" d="m790.659 231.608 1.774 18.367 93.856 2.709-1.768-18.367-93.862-2.709Z"/><path fill="#fff" d="M910.595 79.053c-3.488-.649-7.038-1.298-10.569-.946-7.317.726-13.95 6.346-15.119 13.305-1.169 6.959 3.643 14.513 10.761 16.282 2.155.442 4.356.642 6.559.595 1.479.11 2.967-.019 4.402-.381a12.618 12.618 0 0 0 3.73-2.143c2.592-1.941 5.122-4.048 6.838-6.733 4.688-7.203 2.73-18.24-6.602-19.979Zm-11.82 52.556c-2.431 2.497-4.904 4.994-6.522 8.115-3.404 6.467-2.443 15.3 2.597 20.437 5.04 5.137 13.839 5.724 19.176.93a27.976 27.976 0 0 0 4.085-5.025 13.623 13.623 0 0 0 2.099-3.858c.336-1.428.434-2.906.291-4.369-.172-3.296-.51-6.648-1.779-9.688-3.344-8.159-13.424-13.177-19.947-6.542Zm.037 62.593c.622 3.717 2.793 7.434 6.309 8.822.921.365.056-.694.497.192.679 1.356 1.363 12.891 1.363 13.573 0 2.62 9.551-1.4 11.958-2.478l12.693-5.576c2.489-1.077 4.978-2.224 6.732-4.268 3.055-3.618 2.707-8.951 1.686-13.56-1.064-4.82-2.725-9.615-5.805-13.474-3.08-3.86-7.752-6.691-12.705-6.629-3.839.044-7.466 1.778-10.714 3.816-7.939 5-13.713 9.497-12.014 19.582Z"/><path fill="#2B0FD3" d="M903.108 202.171c.228.207.463.394.703.561.07.047.142.08.216.101-.316-.23-.626-.451-.919-.662Z" opacity=".18"/><path fill="#2B0FD3" d="m931.328 208.03 1.181-.577c-5.926.188-17.272-.261-26.645-5.412.664 1.467 1.334 13.94 1.334 14.677 0 2.833 9.348-1.514 11.705-2.68l12.425-6.008Z" opacity=".48"/><path fill="#fff" d="M913.156 213.006c6.995-1.805 14.855-.808 20.667 3.44 5.812 4.248 9.145 11.905 7.418 18.872-.904 3.653-3.054 6.892-5.388 9.85-1.897 2.387-4.825 5.927-8.48 10.162-1.525-.952-3.08-1.879-4.63-2.825-6.381-3.948-7.753-5.094-14.545-8.378a5.455 5.455 0 0 0-.841-.325 4.486 4.486 0 0 0-.898-1.88c-.974-1.165-6.267-4.023-7.361-5.069-2.865-2.738-2.934-7.375-1.524-11.059 2.492-6.485 8.79-11.04 15.582-12.788Z"/><path fill="#F9879A" d="M407.98 374.946c-.069-7.755-6.453-3.722-6.453-3.722s-5.899 2.171-9.073 6.886c-3.173 4.715-15.687 16-15.687 16.006l-30.02 20.82-65.661 197.281c18.631-.62 37.224-.558 55.855.36 19.624 1.009 39.228 1.979 58.811 2.91 10.135-88.361 10.818-190.234 12.228-200.278 1.807-12.83.068-32.508 0-40.263Z"/><path fill="#52D2BC" d="M407.611 373.51c-.071-8.406-6.649-4.035-6.649-4.035s-6.079 2.353-9.349 7.464c-1.383 2.165-4.48 5.602-7.622 8.856 0 0 8.012-6.233 11.212-5.561 3.199.673 3.839 2.69 8.319 2.69a7.93 7.93 0 0 0 4.358-1.54c-.141-3.167-.25-5.891-.269-7.874Z"/><path stroke="#fff" stroke-linecap="round" stroke-linejoin="round" stroke-width="3" d="m368.372 394.982-23.448 17.173-63.838 196.9"/><path fill="#6534FF" d="M308.433 570.879c12.684-13.57 13.807-34.25 2.665-49.107l-19.905 59.72a38.273 38.273 0 0 0 17.24-10.613Z" opacity=".18"/><path fill="#D3637B" d="M471.276 501.561a7.35 7.35 0 0 0 7.35-7.351 7.35 7.35 0 1 0-14.7 0 7.35 7.35 0 0 0 7.35 7.351ZM468.52 528.204a7.35 7.35 0 1 0 0-14.7 7.35 7.35 0 0 0 0 14.7ZM463.007 556.686a7.35 7.35 0 1 0 0-14.7 7.35 7.35 0 0 0 0 14.7Z"/><path fill="#6535FF" d="M471.276 498.804a7.35 7.35 0 0 0 7.35-7.35 7.35 7.35 0 0 0-7.35-7.35 7.35 7.35 0 1 0 0 14.7ZM466.682 526.366a7.35 7.35 0 0 0 7.35-7.35 7.35 7.35 0 1 0-14.7 0 7.35 7.35 0 0 0 7.35 7.35ZM462.088 553.929a7.35 7.35 0 0 0 7.35-7.35 7.35 7.35 0 0 0-7.35-7.35 7.35 7.35 0 1 0 0 14.7Z"/><path fill="#fff" d="M414.77 313.213c5.836 0 10.567-5.553 10.567-12.403 0-6.851-4.731-12.404-10.567-12.404-5.835 0-10.566 5.553-10.566 12.404 0 6.85 4.731 12.403 10.566 12.403Z"/><path fill="#9289FF" d="M414.912 313.213a9.49 9.49 0 0 0 4.825-1.34 41.756 41.756 0 0 1 2.778-7.865c.907-1.941 1.927-3.936 2.822-5.962-1.09-5.508-5.335-9.64-10.425-9.64-5.908 0-10.708 5.552-10.708 12.401a14.1 14.1 0 0 0 .126 1.836c.273 1.15.565 2.289.876 3.415 1.713 4.211 5.41 7.155 9.706 7.155Z" opacity=".46"/><path stroke="#F9879A" stroke-linecap="round" stroke-linejoin="round" stroke-width="3" d="M463.01 281.056a22.61 22.61 0 0 0 2.332 10.412c1.947 3.798 4.309 5.323 4.081 7.963-.215 2.524-2.664 4.367-4.664 5.513"/><path stroke="#3E1EC4" stroke-linecap="round" stroke-linejoin="round" stroke-width="4.38" d="M714.756 253.493s-38.237 4.203-23.1 55.126"/><path stroke="#fff" stroke-linecap="round" stroke-linejoin="round" stroke-width="3" d="M547.536 394.982a239.255 239.255 0 0 0 20.64-7.823c19.269-8.351 32.144-16.987 38.625-21.109 12.744-8.14 31.869-18.756 59.259-28.951m41.345 2.757 55.128-23.888"/><path fill="#6534FF" d="M612.77 309.95a37.352 37.352 0 0 0-3.179-15.113c-21.935 12.325-46.07 25.493-67.568 37.084 9.767 13.61 27.398 19.445 43.576 14.421 16.177-5.024 27.171-19.749 27.171-36.392Z" opacity=".18"/><path stroke="#6534FF" stroke-linecap="round" stroke-linejoin="round" stroke-width="3.29" d="m446.469 525.448-19.295 91.877"/><path stroke="#3E1EC4" stroke-linecap="round" stroke-linejoin="round" stroke-width="3.96" d="M900.351 100.059c-7.22-2.71-8.485-11.766-3.164-17.456"/><mask id="a" fill="#fff"><path d="M906.783 158.86a10.02 10.02 0 0 1-4.904-3.065 10.171 10.171 0 0 1-2.447-6.123"/></mask><path fill="#B1AFFF" d="M906.783 158.86a10.02 10.02 0 0 1-4.904-3.065 10.171 10.171 0 0 1-2.447-6.123"/><path fill="#B1AFFF" d="m901.879 155.795-.759.652.007.007.752-.659Zm5.167 2.1a9.026 9.026 0 0 1-4.415-2.759l-1.504 1.318a11.016 11.016 0 0 0 5.393 3.37l.526-1.929Zm-4.409-2.752a9.174 9.174 0 0 1-2.206-5.521l-1.997.1a11.171 11.171 0 0 0 2.686 6.725l1.517-1.304Z" mask="url(#a)"/><path fill="#B1AFFF" fill-rule="evenodd" d="M904.518 186.423c-1.318 3.551.107 7.662 3.184 9.188l-3.184-9.188Zm1.346 34.913c-2.637 3.243-3.48 8.402-2.102 12.863l2.102-12.863Z" clip-rule="evenodd"/><path stroke="#B1AFFF" stroke-linecap="round" stroke-linejoin="round" stroke-width="3.96" d="M905.864 221.336c-2.637 3.243-3.48 8.402-2.102 12.863m.756-47.776c-1.318 3.551.107 7.662 3.184 9.188l-3.184-9.188Z"/><path stroke="#6534FF" stroke-linecap="round" stroke-linejoin="round" stroke-width="3.29" d="M533.543 541.067s.797-11.685-.708-18.376"/><path fill="#F87588" d="M374.198 527.807c3.394-20.734 16.597-38.355 24.824-57.699a125.265 125.265 0 0 0 7.623-25.01c.56-16.553.915-27.733 1.339-30.73.199-1.408.349-2.903.467-4.454a97.88 97.88 0 0 0-.249-2.637l.405.267c.311-5.82.193-12.241 0-18.073a43.144 43.144 0 0 0-16.404 15.219c-5.537 8.922-7.729 19.81-14.455 27.888-9.342 11.168-26.3 15.709-31.918 29.16-2.454 5.869-2.217 12.477-3.662 18.669-1.563 6.688-5.038 12.737-7.934 18.96-5.026 10.795-8.364 22.292-11.322 33.826a566.023 566.023 0 0 0-14.262 77.82 655.83 655.83 0 0 1 28.094.763l18.858.955c8.283-13.972 15.09-28.67 16.927-44.671 1.538-13.357-.505-26.982 1.669-40.253Z"/><path stroke="#fff" stroke-linecap="round" stroke-linejoin="round" stroke-width="3.29" d="M352.995 447 319 589.409"/><path stroke="#3E1EC4" stroke-linecap="round" stroke-linejoin="round" stroke-width="4.38" d="M416.422 276.462a17.667 17.667 0 0 1 .856-9.312c2.021-5.247 6.09-7.909 8.079-9.217 4.119-2.693 6.09-1.517 8.276-3.411 2.186-1.893 3.999-6.292 1.572-16.648"/><path fill="#FCCDD3" d="M759.989 135.288c14.296-3.289 25.893 8.756 27.23 6.826 1.9-2.762-18.733-31.423-47.653-31.026-1.572 0-27.273.676-31.561 15.513-3.868 13.384 11.801 31.026 23.516 30.405 11.412-.595 13.021-18.162 28.468-21.718Zm13.556-43.875c-.565 2.032-19.957 3.293-31.387-9.188-8.328-9.1-12.089-25.132-6.085-30.483 5.234-4.673 18.074-1.343 19.889 4.318 1.734 5.376-7.57 9.366-6.973 16.654.951 11.48 25.209 16.35 24.556 18.699Z"/><path fill="#9289FF" d="M734.963 94.195c.532 4.64-35.441 22.293-61.736 7.28-1.819-1.034-20.601-12.071-19.017-26.62 1.615-14.78 23.516-26.387 35.831-21.396 12.779 5.18 9.283 25.849 26.784 35.644 9.802 5.493 17.891 2.91 18.138 5.092Z"/><path stroke="#FCCDD3" stroke-linecap="round" stroke-linejoin="round" stroke-width="3" d="M660.547 71.577s4.385 34.351 55.127 27.604"/><path stroke="#fff" stroke-linecap="round" stroke-linejoin="round" stroke-width="3" d="M727.619 109.254s-29.402-1.225-29.402 27.555"/><path fill="#FFBAC6" d="M562.5 95a7.5 7.5 0 1 0 0-15 7.5 7.5 0 0 0 0 15Z"/><path fill="#9289FF" d="M116 395c5.523 0 10-4.477 10-10s-4.477-10-10-10-10 4.477-10 10 4.477 10 10 10Z"/><path fill="#FFBAC6" d="M632.891 237.782a6.891 6.891 0 1 0 0-13.783 6.891 6.891 0 0 0 0 13.783Z"/><path fill="#52D2BC" d="M919.187 470.322a6.892 6.892 0 1 0-.002-13.784 6.892 6.892 0 0 0 .002 13.784Z"/><path fill="#fff" d="M956.857 451.947a6.891 6.891 0 1 0 0-13.783 6.891 6.891 0 0 0 0 13.783ZM964.207 38.501a6.89 6.89 0 1 0 0-13.781 6.89 6.89 0 0 0 0 13.781Z"/><path fill="#9289FF" d="M97.5 345a5.5 5.5 0 1 0 0-11 5.5 5.5 0 1 0 0 11Z"/><path fill="#62BCF9" d="M571 87c6.627 0 12-5.149 12-11.5S577.627 64 571 64s-12 5.149-12 11.5S564.373 87 571 87Z"/><path fill="#DBF8F3" d="M703.271 472.159c10.909 0 19.754-8.844 19.754-19.753 0-10.91-8.845-19.754-19.754-19.754-10.91 0-19.754 8.844-19.754 19.754 0 10.909 8.844 19.753 19.754 19.753Z"/><path fill="#6534FF" d="M951.598 404.145v-26.637a6.814 6.814 0 0 0-3.44-5.923l-23.228-13.321a6.906 6.906 0 0 0-6.868 0l-23.222 13.321a6.814 6.814 0 0 0-3.44 5.923v26.668a6.812 6.812 0 0 0 3.44 5.929l23.228 13.316a6.911 6.911 0 0 0 6.868 0l23.228-13.316a6.813 6.813 0 0 0 3.434-5.96Z" opacity=".32"/><path fill="#FCCDD3" d="M952.998 401.38v-26.633a6.817 6.817 0 0 0-3.439-5.924l-23.223-13.35a6.904 6.904 0 0 0-6.867 0l-23.223 13.325a6.817 6.817 0 0 0-3.446 5.925v26.657a6.816 6.816 0 0 0 3.446 5.924l23.223 13.325a6.904 6.904 0 0 0 6.867 0l23.223-13.325a6.817 6.817 0 0 0 3.439-5.924Z"/><path stroke="#6535FF" stroke-linecap="round" stroke-linejoin="round" stroke-width="1.51" d="M952.998 373.449a6.86 6.86 0 0 0-3.438-5.956l-23.216-13.41a6.871 6.871 0 0 0-6.865 0l-23.234 13.41a6.858 6.858 0 0 0-3.445 5.956v26.789a6.859 6.859 0 0 0 3.445 5.956"/><path fill="#fff" d="m941.785 392.908 2.814-4.856-2.814-4.857v-5.61l-4.874-2.805-2.814-4.856h-5.622l-4.872-2.805-4.874 2.805h-5.628l-2.814 4.856-4.874 2.805v5.61l-2.814 4.857 2.814 4.856v5.61l4.874 2.805 2.814 4.856h5.628l4.874 2.805 4.872-2.805h5.622l2.814-4.856 4.874-2.805v-5.61Z"/><path stroke="#6535FF" stroke-linecap="round" stroke-linejoin="round" stroke-width="1.51" d="m940.399 376.189-4.874-2.8-2.816-4.859h-5.629l-4.874-2.806-4.874 2.806h-5.629l-2.814 4.859-4.874 2.8v5.612l-2.816 4.859 2.816 4.86v5.612l4.874 2.806 2.814 4.859h5.629"/><path fill="#62BCF9" d="M922.9 395.029c4.253 0 7.7-3.436 7.7-7.675 0-4.238-3.447-7.674-7.7-7.674s-7.7 3.436-7.7 7.674c0 4.239 3.447 7.675 7.7 7.675Z"/><path stroke="#6535FF" stroke-linecap="round" stroke-linejoin="round" stroke-width="1.51" d="M919.385 395.029c-3.265-2.773-3.726-7.713-1.032-11.064 2.694-3.352 7.536-3.863 10.846-1.144"/><path fill="#6534FF" d="m949.572 368.789-23.131-13.367a6.829 6.829 0 0 0-2.58-.863 13.407 13.407 0 0 0-1.057 3.248c-.703 3.808.05 7.733 1.125 11.454 1.076 3.72 2.488 7.36 3.109 11.18a28.583 28.583 0 0 1-1.766 15.528c-2.63 6.386-7.554 11.752-9.395 18.411a21.534 21.534 0 0 0-.678 3.726l4.353 2.522a6.844 6.844 0 0 0 6.84 0l23.131-13.342a6.83 6.83 0 0 0 3.475-5.9v-26.665a6.828 6.828 0 0 0-3.426-5.932Z" opacity=".32"/><path stroke="#6535FF" stroke-linecap="round" stroke-linejoin="round" stroke-width="1.51" d="m927.799 417.358 20.999-12.56"/><path fill="#6534FF" d="m54.027 489.803-1.752-3.035-.142-3.509a4.882 4.882 0 0 0-2.59-4.129l-2.44-1.288-1.378-2.368a4.857 4.857 0 0 0-4.219-2.438h-3.49l-3.102-1.644a4.874 4.874 0 0 0-4.868.18l-2.334 1.464h-2.756a4.872 4.872 0 0 0-4.225 2.438l-1.747 3.021-2.974 1.861a4.888 4.888 0 0 0-2.287 4.295l.104 2.751-1.378 2.368a4.876 4.876 0 0 0 0 4.877l1.752 3.035.128 3.542a4.884 4.884 0 0 0 2.59 4.13l2.434 1.288 1.378 2.367a4.873 4.873 0 0 0 4.224 2.439h2.908v7.884a.667.667 0 0 0 1.094.511l4.134-3.447a.668.668 0 0 1 .862 0l3.911 3.395a.667.667 0 0 0 1.104-.506v-7.818h2.557a4.86 4.86 0 0 0 4.22-2.439l1.756-3.04 2.974-1.861a4.872 4.872 0 0 0 2.278-4.309l-.1-2.751 1.379-2.368a4.876 4.876 0 0 0-.005-4.896Z" opacity=".32"/><path fill="#62BCF9" d="m39.687 518.716-3.781-3.504a.613.613 0 0 0-.832 0l-3.992 3.558a.614.614 0 0 1-.685.094.694.694 0 0 1-.371-.622v-9.284a.717.717 0 0 1 .175-.503.626.626 0 0 1 .46-.216h9.447c.354.003.64.311.64.689v9.285a.687.687 0 0 1-.38.613.608.608 0 0 1-.68-.11Z"/><path fill="#6534FF" d="M35.922 512.514c3.258 0 5.898-2.632 5.898-5.879 0-3.246-2.64-5.878-5.898-5.878-3.257 0-5.898 2.632-5.898 5.878 0 3.247 2.64 5.879 5.898 5.879Z" opacity=".32"/><path fill="#BBC4EF" d="m56.172 487.676-1.752-3.028-.128-3.5a4.87 4.87 0 0 0-2.591-4.12l-2.435-1.284-1.378-2.362a4.877 4.877 0 0 0-4.225-2.433h-3.51l-3.098-1.696a4.895 4.895 0 0 0-4.874.18l-2.335 1.474h-2.757a4.87 4.87 0 0 0-4.22 2.432l-1.758 3.028-2.974 1.861a4.853 4.853 0 0 0-2.279 4.299l.114 2.744-1.378 2.362a4.855 4.855 0 0 0 0 4.866l1.752 3.027.1 3.52a4.86 4.86 0 0 0 2.586 4.119l2.44 1.284 1.378 2.362a4.882 4.882 0 0 0 4.22 2.433h3.51l3.103 1.634a4.876 4.876 0 0 0 4.869-.174l2.335-1.46h2.757a4.885 4.885 0 0 0 4.225-2.433l1.753-3.032 2.974-1.857a4.871 4.871 0 0 0 2.283-4.298l-.066-2.731 1.378-2.361a4.854 4.854 0 0 0-.019-4.856Z"/><path stroke="#6534FF" stroke-linecap="round" stroke-linejoin="round" stroke-width="1.76" d="M53.616 480.028a4.861 4.861 0 0 0-2.616-4.12l-2.457-1.29-1.392-2.363a4.936 4.936 0 0 0-4.265-2.429h-3.543l-3.127-1.64a4.982 4.982 0 0 0-4.92.175l-2.357 1.465h-2.783a4.932 4.932 0 0 0-4.26 2.41l-1.775 3.034-2.998 1.862a4.833 4.833 0 0 0-2.304 4.295l.1 2.75-1.391 2.363a4.81 4.81 0 0 0 0 4.863l1.769 3.052.129 3.497a4.857 4.857 0 0 0 2.61 4.121l2.463 1.285 1.392 2.363a4.924 4.924 0 0 0 4.26 2.433h3.543l3.132 1.64a4.96 4.96 0 0 0 4.944-.161"/><path fill="#6534FF" d="m54.443 484.818-.126-3.479a4.843 4.843 0 0 0-2.553-4.094l-2.399-1.277-1.358-2.347a4.797 4.797 0 0 0-4.163-2.418h-3.459l-.71-.376c.111 1.447.14 2.898.09 4.348.027 1.784.34 3.69 1.554 4.991a20.49 20.49 0 0 0 2.081 1.671 7.804 7.804 0 0 1 2.707 6.78c-.266 2.258-1.526 4.338-1.596 6.61-.075 2.395 1.172 4.658 1.237 7.043a7.224 7.224 0 0 1-1.186 4.169c-.662 1.005-1.577 1.841-2.193 2.869h1.475a4.806 4.806 0 0 0 4.163-2.418l1.727-3.014 2.93-1.845a4.854 4.854 0 0 0 2.25-4.273l-.083-2.732 1.358-2.348a4.861 4.861 0 0 0 0-4.836l-1.746-3.024Z" opacity=".32"/><path fill="#6534FF" d="M35.387 506.101c8.291 0 15.012-.957 15.012-2.138s-6.721-2.138-15.012-2.138c-8.29 0-15.012.957-15.012 2.138s6.721 2.138 15.012 2.138Z" opacity=".32"/><path fill="#62BCF9" d="M55.933 490.81a2.35 2.35 0 0 1-1.71.739H18.69a2.338 2.338 0 0 1-1.706-.739 2.321 2.321 0 0 0-1.795-.741 2.306 2.306 0 0 0-1.732.87l-.125.162a2.146 2.146 0 0 0-.388 1.904l2.123 7.625c.37 1.335 1.624 2.263 3.057 2.264h36.667c1.432-.001 2.684-.93 3.053-2.264l2.127-7.625a2.146 2.146 0 0 0-.388-1.904l-.124-.162a2.313 2.313 0 0 0-1.732-.867 2.324 2.324 0 0 0-1.795.738Z"/><path stroke="#6534FF" stroke-linecap="round" stroke-linejoin="round" stroke-width="1.76" d="M15.917 490.808a2.324 2.324 0 0 0-1.799-.739 2.31 2.31 0 0 0-1.732.873l-.125.157a2.15 2.15 0 0 0-.388 1.904l2.125 7.631c.373 1.333 1.628 2.26 3.06 2.26h36.714c1.433 0 2.688-.927 3.06-2.26m-38.603-9.498h12.868m12.868 11.758h-7.506m-5.362 2.138h2.145m7.506 8.551v3.207m-18.23-39.55 7.507-4.275"/><path fill="#FFBAC6" d="M289 222c12.15 0 22-9.85 22-22s-9.85-22-22-22-22 9.85-22 22 9.85 22 22 22Z"/><path fill="#DBF8F3" d="M301 197c5.523 0 10-4.477 10-10s-4.477-10-10-10-10 4.477-10 10 4.477 10 10 10Z"/><path stroke="#5CBEFF" stroke-linecap="round" stroke-linejoin="round" stroke-width="2" d="M267.637 213c-5.943-11.731-1.502-26.188 9.92-32.292 11.422-6.104 25.5-1.542 31.443 10.188"/><path fill="#E8EDF6" d="M326.567 227.768h-8.27l-4.134 7.35 4.134 7.35h8.27l4.134-7.35-4.134-7.35ZM296.479 238.792h-4.135l-2.07 3.675 2.07 3.675h4.135l2.064-3.675-2.064-3.675Z"/><path fill="#52D2BC" d="M689.117 268.655c-13.281 25.446 24.261 101.709 24.261 101.709 1.07 1.993 3.691 6.189 8.095 7.024 3.026.563 5.684-.712 7.492-1.757 33.475-19.382 43.17-60.855 43.17-60.855.24-1.028.418-1.857.504-2.265l-12.302 5.569c-16.879 41.548-26.801 50.576-32.916 49.562-3.463-.576-6.557-7.216-12.604-20.477-5.776-12.68-11.386-25.199-14.947-43.522-2.516-12.927-3.531-19.443-1.532-25.601 3.26-10.025 12.616-16.033 22.63-22.463 8.895-5.712 14.511-7.141 14.148-8.664-.522-2.227-13.391-2.865-24.605 1.925a45.009 45.009 0 0 0-21.394 19.815Z"/><path stroke="#3E1EC4" stroke-linecap="round" stroke-linejoin="round" stroke-width="3.96" d="m717.512 358.231-2.757 7.351m.919-110.252-4.594-2.757 4.594 2.757Zm-16.538 14.7-7.35-.919 7.35.919Zm-2.756 23.888-4.594.919 4.594-.919Zm1.837 20.213-2.756 2.756 2.756-2.756Zm8.269 21.131-2.756 2.757 2.756-2.757Z"/><path fill="#6534FF" d="m772.639 311.375-12.29 5.612c-16.722 41.5-26.61 50.796-32.73 49.954a18.816 18.816 0 0 0 9.795 2.301c26.689-20.943 34.721-55.585 34.721-55.585.24-1.035.418-1.87.504-2.282Z" opacity=".18"/><path fill="#6535FF" d="M415.23 313.211a3.675 3.675 0 1 0 0-7.35 3.675 3.675 0 0 0 0 7.35Z"/><path stroke="#8076FA" stroke-dasharray="9 9" stroke-linecap="round" stroke-linejoin="round" stroke-width="3" d="M903.108 441.84c-5.023-1.86-20.54-8.189-30.498-24.796a57.806 57.806 0 0 1-8.092-26.655"/><path stroke="#fff" stroke-dasharray="9 9" stroke-linecap="round" stroke-linejoin="round" stroke-width="3" d="M941.697 288.405c4.375-1.494 25.702-9.255 34.697-30.375a49.284 49.284 0 0 0 3.855-21.076m-257.224-68.493c-.891.389-14.424 6.072-26.966-1.821-11.225-7.08-12.423-19.211-12.542-20.644"/><path stroke="#D5DCF3" stroke-dasharray="9 9" stroke-linecap="round" stroke-linejoin="round" stroke-width="3" d="M72 452.5a46.036 46.036 0 0 0 28.138-5.662 45.95 45.95 0 0 0 16.883-16.984m414.895-125.83c24.231-4.987 92.719-22.631 132.961-84.165a173.39 173.39 0 0 0 18.64-38.031m-4.594 229.692c13.363-6.659 45.355-20.063 82.272-10.385a106.22 106.22 0 0 1 24.307 9.736"/><path fill="#FCCDD3" d="m944 330.271.083-10.768c.01-.836.723-1.508 1.595-1.503l8.754.063c.419.002.82.164 1.114.45.294.286.457.672.454 1.074l-.083 10.768a.65.65 0 0 1-.411.593.701.701 0 0 1-.732-.126l-4.33-3.89a.7.7 0 0 0-.918 0l-4.393 3.827a.701.701 0 0 1-.731.107.65.65 0 0 1-.402-.595Z"/><path fill="#8076FA" d="m541 215.214.09-11.596c.011-.9.783-1.623 1.728-1.618l9.483.068a1.75 1.75 0 0 1 1.207.485c.319.308.496.724.492 1.156l-.09 11.596a.7.7 0 0 1-.446.639.76.76 0 0 1-.792-.136l-4.691-4.188a.758.758 0 0 0-.995 0l-4.758 4.12a.766.766 0 0 1-.793.116.702.702 0 0 1-.435-.642Z"/><path fill="#FFBAC6" d="m79 370.158.097-12.424c.012-.965.843-1.739 1.86-1.734l10.214.073c.488.002.956.189 1.3.519.342.33.533.776.529 1.239l-.097 12.424a.748.748 0 0 1-.48.685.823.823 0 0 1-.853-.145l-5.052-4.488a.82.82 0 0 0-1.072 0l-5.124 4.415a.83.83 0 0 1-.853.124.753.753 0 0 1-.469-.688Z"/><path fill="#9289FF" d="m499 76.456.106-14.443a2.015 2.015 0 0 1 .613-1.431 2.067 2.067 0 0 1 1.459-.582l11.396.085c.546.004 1.068.221 1.452.605.383.383.597.902.593 1.44l-.112 14.437a.87.87 0 0 1-.521.814.89.89 0 0 1-.962-.16l-5.638-5.228a.895.895 0 0 0-1.198 0l-5.712 5.13a.888.888 0 0 1-.962.15.87.87 0 0 1-.514-.817Z"/><path stroke="#fff" stroke-linecap="round" stroke-linejoin="round" stroke-width="3" d="M744.157 237.278s-29.214-9.524-59.05 11.409-158.125 89.685-162.979 93.915c-4.855 4.23-9.051 2.818-9.051 2.818s-11.343-2.358-14.451.13a9.075 9.075 0 0 0-3.351 5.916l-23.999 2.171"/><path stroke="#fff" stroke-linecap="round" stroke-linejoin="round" stroke-width="3.29" d="M734.05 243.17s-10.568-4.966-25.488 2.483-36.056 20.485-20.515 68.904c15.542 48.419 29.218 60.213 29.218 60.213m-4.347 7.35c-30.483 8.618-60.892 17.842-90.76 28.35-18.298 6.433-36.118 12.184-50.757 25.62-16.596 15.233-26.83 35.91-30.297 58.12M407.88 389.47s-7.751 165.307-8.27 189.266" opacity=".3"/><path stroke="#3E1EC4" stroke-linecap="round" stroke-linejoin="round" stroke-width="4.38" d="M388.938 245.224c.836-3.097-.947-6.255-1.238-9.442-.476-5.381 4.073-10.763 9.637-11.361 1.801-.191 3.633.048 5.421-.215 1.789-.263 3.658-1.196 4.203-2.87m92.798 44.612c-2.05.855-4.489.256-6.431-.791-1.943-1.046-3.596-2.494-5.538-3.535-3.307-1.744-7.211-2.21-11.001-2.617"/><path fill="#9289FF" d="M637.577 468.484h-49.615v7.35h49.615v-7.35ZM621.039 483.185h-33.995v7.35h33.995v-7.35ZM948.128 44.933h-33.995v7.35h33.995v-7.35ZM849.818 387.633h-33.995v7.35h33.995v-7.35ZM849.818 375.688h-33.995v7.351h33.995v-7.351ZM849.818 362.826h-33.995v7.35h33.995v-7.35Z"/><path fill="#6534FF" d="M830.542 465.728a2.869 2.869 0 0 1-1.853-.655l-9.097-7.563a2.8 2.8 0 0 1-1.013-2.152v-16.104c.007-.514.338-.968.827-1.138a35.44 35.44 0 0 1 22.234 0c.49.17.82.624.827 1.138v16.122c0 .831-.37 1.618-1.012 2.153l-9.098 7.563a2.867 2.867 0 0 1-1.815.636Z"/><path fill="#FCCDD3" stroke="#6535FF" stroke-linecap="round" stroke-linejoin="round" stroke-width=".14" d="m832.319 453.037-3.633-2.01 3.581 4.594 3.769-4.473-3.717 1.889Z"/><path fill="#FCCDD3" stroke="#6535FF" stroke-linecap="round" stroke-linejoin="round" stroke-width=".14" d="M828.691 450.726h.018l3.649 2.14 3.654-2.01h.024-.012l.012-.012-3.525-6.247-3.825 6.111.017.012-.012.006Z"/><path fill="#FCCDD3" d="M843.68 438.094a34.293 34.293 0 0 0-21.732 0 2.234 2.234 0 0 0-1.531 2.113v15.431a3.737 3.737 0 0 0 1.349 2.878l8.623 7.238a3.757 3.757 0 0 0 4.862 0l8.63-7.238a3.755 3.755 0 0 0 1.343-2.878v-15.431a2.23 2.23 0 0 0-1.544-2.113Zm.444 17.544a2.678 2.678 0 0 1-.96 2.052l-8.624 7.239a2.677 2.677 0 0 1-3.452 0l-8.678-7.239a2.67 2.67 0 0 1-.954-2.052v-15.431a1.141 1.141 0 0 1 .784-1.087 33.189 33.189 0 0 1 21.045 0c.472.153.791.592.79 1.087l.049 15.431Z"/><path fill="#BBC4EF" d="M845.224 456.64v-15.541c-.001-.966-.603-1.824-1.494-2.129a32.788 32.788 0 0 0-8.752-1.725 12.543 12.543 0 0 1 1.929 4.636 35.65 35.65 0 0 1 .595 6.117c.085 1.1.041 2.207-.131 3.297-.524 2.63-2.476 4.703-3.411 7.199a12.545 12.545 0 0 0-.452 6.459c.153.884.364 1.756.631 2.611a3.624 3.624 0 0 0 1.321-.734l8.454-7.29a3.827 3.827 0 0 0 1.31-2.9Z" opacity=".44"/><path fill="#070707" d="m822.849 454.703-5.358-1.428a.743.743 0 0 1-.75-.731v-2.628a.744.744 0 0 1 .756-.726l5.358 1.428a.328.328 0 0 1 .291.191.307.307 0 0 1-.057.335l-1.929.598a.304.304 0 0 0 0 .421l1.912 2.02a.302.302 0 0 1 .061.329.321.321 0 0 1-.284.191Zm19.052-4.114 5.333-1.399a.744.744 0 0 1 .746.736v2.647a.718.718 0 0 1-.221.518.752.752 0 0 1-.531.212l-5.327 1.399a.325.325 0 0 1-.327-.194.312.312 0 0 1 .087-.363l1.921-2.018a.314.314 0 0 0 0-.429l-1.898-.613a.305.305 0 0 1-.037-.309.318.318 0 0 1 .254-.187Z" opacity=".18"/><path fill="#52D2BC" d="M822.821 452.865h-5.333a.742.742 0 0 1-.747-.733v-4.051c0-.194.08-.38.221-.517a.76.76 0 0 1 .531-.211h5.334a.325.325 0 0 1 .321.196.311.311 0 0 1-.088.36l-1.92 2.011a.31.31 0 0 0 0 .428l1.903 2.023a.31.31 0 0 1 .031.308.324.324 0 0 1-.253.186Zm19.051-5.512h5.358c.2 0 .392.077.532.215a.717.717 0 0 1 .218.518v4.051c0 .194-.08.38-.222.517a.758.758 0 0 1-.534.211h-5.352a.327.327 0 0 1-.296-.189.308.308 0 0 1 .056-.339l1.929-2.006a.31.31 0 0 0 0-.428l-1.907-2.023a.304.304 0 0 1-.067-.332.318.318 0 0 1 .285-.195Z"/><path stroke="#6535FF" stroke-linecap="round" stroke-linejoin="round" stroke-width=".76" d="M846.142 453.784h-5.204a.316.316 0 0 1-.282-.176.274.274 0 0 1 .054-.31l1.874-1.852a.27.27 0 0 0 0-.388l-1.857-1.868m-19.575 2.115 1.895 1.944a.286.286 0 0 1 .101.353.322.322 0 0 1-.34.179h-5.321c-.413-.003-.746-.317-.746-.703v-3.888l4.411 2.115Z"/><path stroke="#BBC4EF" stroke-linecap="round" stroke-linejoin="round" stroke-width=".76" d="m823.173 458.377 7.35 6.431"/><path fill="#5CBEFF" d="m681 29.214.09-11.596c.011-.9.783-1.623 1.728-1.618l9.483.068c.454.002.888.177 1.207.485.319.308.496.724.492 1.156l-.09 11.596a.7.7 0 0 1-.446.639.76.76 0 0 1-.792-.136l-4.691-4.188a.76.76 0 0 0-.995 0l-4.758 4.12a.767.767 0 0 1-.793.116.702.702 0 0 1-.435-.642Z"/><path fill="#BBC4EF" fill-rule="evenodd" d="M898.072 92.432a33.267 33.267 0 0 0-1.968-3.463 16.352 16.352 0 0 1-2.983-11.534c.12-1.454.162-2.914.125-4.373a10.146 10.146 0 0 0-4.513-8.84 45.296 45.296 0 0 0-5.39-3.208A14.547 14.547 0 0 1 876.7 54.2c-.74-1.561-1.592-3.066-2.445-4.565-2.087-3.717-5.214-5.712-9.551-5.767-1.925 0-3.849-.118-5.767-.075a14.718 14.718 0 0 1-8.687-2.62 51.17 51.17 0 0 0-5.014-3.097c-3.397-1.76-6.825-1.92-10.278-.23a32.972 32.972 0 0 0-3.761 2.045c-3.585 2.366-7.427 3.568-11.783 3.029a35.786 35.786 0 0 0-4.688-.118 10.123 10.123 0 0 0-7.747 3.308 28.804 28.804 0 0 0-4.036 6.194 15.333 15.333 0 0 1-7.408 6.994c-1.498.688-2.946 1.48-4.388 2.292-3.71 2.094-5.709 5.222-5.747 9.502 0 1.902-.138 3.804-.069 5.705a13.95 13.95 0 0 1-2.633 8.45 51.098 51.098 0 0 0-3.234 5.184 10.495 10.495 0 0 0-.244 9.695 31.594 31.594 0 0 0 2.313 4.175 16.332 16.332 0 0 1 2.946 11.416 38.945 38.945 0 0 0-.126 4.77 9.99 9.99 0 0 0 4.03 8.146 47.297 47.297 0 0 0 5.923 3.611c2.075 1.177 4.043 2.478 5.29 4.565 1.993 3.327 3.478 6.957 5.979 9.998-.232.421-.501.83-.702 1.276-4.082 9.061-8.16 18.123-12.234 27.188a4.025 4.025 0 0 0 .671 4.571 3.972 3.972 0 0 0 4.387 1.109c4.807-1.493 9.614-2.998 14.415-4.559.878-.285 1.254-.155 1.642.675 2 4.479 4.068 8.933 6.08 13.411.758 1.691 1.93 2.658 3.892 2.676a3.97 3.97 0 0 0 3.98-2.552c2.507-5.643 5.052-11.292 7.584-16.936 1.115-2.477 2.25-4.955 3.453-7.588.264.558.445.911.589 1.276a18056.28 18056.28 0 0 1 9.483 23.75 3.803 3.803 0 0 0 3.353 2.639c1.931.179 3.448-.446 4.338-2.193 2.231-4.373 4.456-8.753 6.612-13.157.482-.991.946-1.239 2.037-.849 4.45 1.697 8.944 3.289 13.406 4.956 1.88.693 3.648.669 5.077-.812 1.429-1.48 1.354-3.301.589-5.172-2.225-5.439-4.387-10.896-6.575-16.347-1.93-4.795-3.863-9.585-5.797-14.372 1.147-1.994 2.313-3.976 3.428-5.99a13.783 13.783 0 0 1 6.33-5.698 79.028 79.028 0 0 0 4.852-2.546c3.691-2.113 5.684-5.253 5.703-9.54 0-2.205.081-4.417.1-6.628a11.302 11.302 0 0 1 1.749-6.027c1.157-1.834 2.313-3.669 3.466-5.507 2.331-3.686 2.626-7.508.589-11.429Zm-80.137 57.039c4.03-.161 7.446 1.183 10.655 3.413-3.228-2.23-6.644-3.574-10.655-3.413l-1.147.043 1.147-.043Zm36.352.842a10.176 10.176 0 0 0-.006 0h.006Zm5.735.087c-1.348-.05-2.695-.062-4.049-.087 1.347.025 2.695.037 4.042.087h.007Zm5.014-.167a14.558 14.558 0 0 1-.007 0h.007Zm-27.891 14.575c-3.761 8.276-7.477 16.595-11.206 24.896a2.286 2.286 0 0 1-2.131 1.561c-1.129 0-1.743-.756-2.175-1.704-2.163-4.794-4.388-9.57-6.481-14.389-.539-1.239-1.153-1.499-2.425-1.078-5.015 1.654-10.029 3.202-15.043 4.819-.977.316-1.93.539-2.726-.291-.796-.83-.696-1.951-.238-2.967 2.099-4.677 4.224-9.341 6.318-14.018 2.036-4.553 4.042-9.119 6.06-13.684.622.123 1.2.402 1.68.812l-11.344 25.285c-.145.323-.27.657-.414.979a.98.98 0 0 0 0 1.121c.351.403.783.285 1.254.155 2.688-.799 5.383-1.573 8.078-2.372 2.695-.799 5.303-1.543 7.929-2.385.915-.297 1.316-.087 1.717.774 2.25 4.807 4.569 9.589 6.895 14.371.275.576.407 1.388 1.253 1.388.846 0 .877-.774 1.122-1.32a17422.56 17422.56 0 0 0 11.068-24.523 1.34 1.34 0 0 1 .565-.793c.744.976.837 2.294.238 3.363h.006Zm45.296 12.68c.407 1.01.627 1.945-.22 2.813-.846.867-1.773.762-2.82.371-4.763-1.765-9.533-3.493-14.303-5.234-2.72-.991-2.218-.842-3.284 1.239-2.287 4.448-4.519 8.92-6.756 13.386-.502.997-1.122 1.858-2.382 1.815-1.26-.043-1.749-.991-2.162-2.038a14182.506 14182.506 0 0 0-13.212-33.233 7.547 7.547 0 0 1 2.074.08c.068.342.156.679.264 1.01a11870.19 11870.19 0 0 0 11.82 29.641c.201.501.288 1.152 1.084 1.17.796.019.941-.563 1.204-1.059 2.507-4.683 5.014-9.354 7.483-14.061.483-.936.909-1.14 1.931-.781 5.12 1.809 10.266 3.531 15.405 5.284.496.173 1.016.496 1.492 0s.138-1.01-.044-1.487c-.514-1.362-1.065-2.713-1.604-4.063l-9.402-23.626a5.35 5.35 0 0 1 1.436-1.239c.169-.217.326-.44.482-.656-.156.216-.313.439-.482.656 3.998 10.006 7.995 20.01 11.989 30.012h.007Z" clip-rule="evenodd" opacity=".32"/><path fill="#fff" d="M865.301 88.365h-.112a.267.267 0 0 0-.149.205l-1.497 7.037a.396.396 0 0 0 .366.47l4.293.057a.317.317 0 0 0 .261-.465l-2.827-7.05a.413.413 0 0 0-.161-.192v-.037h-.174v-.025Zm15.916-4.135c-.69 0-.913.316-.795 1.103.149.98.211 1.966.31 2.945.1.98.243 2.133.317 3.206.044.67.323.886.932.886 1.833 0 3.678 0 5.516.062h.056c1.044 0 1.529-.62 1.448-1.705-.118-1.574-.255-3.155-.491-4.736a1.754 1.754 0 0 0-1.864-1.693c-1.758 0-3.516 0-5.274-.068h-.155Zm-35.895-.477c-.279 0-.534.235-.708.675a223.394 223.394 0 0 0-2.305 6.343 2.679 2.679 0 0 0-.093.434c0 .217 0 .452-.037.675.038.53.175 1.047.404 1.526l.143.279c1.112 1.953 2.236 3.906 3.348 5.87.224.398.466.794.926.819h.037c.447 0 .621-.409.752-.8.714-1.94 1.447-3.868 2.155-5.809l.093-.26a3.909 3.909 0 0 0 .087-1.52c-.055-.228-.099-.458-.167-.681a3.045 3.045 0 0 0-.187-.44 224.124 224.124 0 0 0-3.609-6.417c-.261-.446-.559-.676-.839-.694Zm-22.569-.242c-.658 0-.851.322-.752 1.048.137.985.212 1.965.311 2.95.099.986.236 2.133.317 3.194.043.62.217.948.888.948 1.864 0 3.728.037 5.635.056h.037c1 0 1.466-.62 1.398-1.65a71.475 71.475 0 0 0-.479-4.73c-.155-1.085-.745-1.748-1.863-1.742-1.796 0-3.591 0-5.399-.074h-.099.006Zm58.315 20.155h-.075c-1.062 0-1.491-.756-1.59-1.816-.317-3.249-.659-6.504-.988-9.752-.329-3.25-.621-6.411-1.006-9.616-.112-.924.124-1.178.863-1.19h.174c2.727.086 5.448.08 8.176.123a4.785 4.785 0 0 1 4.578 4.272c.242 1.792.422 3.59.553 5.388.174 2.393-1.348 4.166-3.578 4.19h-.286c-1.785 0-3.572-.024-5.361-.074h-.118c-.622 0-.833.273-.74 1.01.23 1.86.41 3.684.566 5.519.074.961 0 1.922-1.143 1.934l-.025.012Zm-19.426-.223a1.993 1.993 0 0 1-.503-.074c-1.019-.273-1.286-1.122-1.143-2.04.36-2.207.776-4.396 1.168-6.597.708-4.03 1.428-8.06 2.137-12.095.111-.62.217-1.296.869-1.451a1.99 1.99 0 0 1 .491-.068 1.422 1.422 0 0 1 1.404 1.078c2.41 6.494 4.819 12.987 7.225 19.48.379 1.042-.143 1.86-1.062 1.86h-.087c-.802 0-1.181-.57-1.454-1.24-.354-.893-.745-1.785-1.006-2.703a1.088 1.088 0 0 0-1.243-.942h-.323c-1.292 0-2.597 0-3.901-.056h-.112c-.553 0-.82.242-.901.862-.124.942-.366 1.86-.49 2.808-.106.788-.479 1.178-1.075 1.184l.006-.006Zm-14.375-.167c-1.678 0-2.802-.955-3.659-2.48-1.131-2.052-2.293-4.086-3.398-6.144a6.343 6.343 0 0 1-.51-5.313c.777-2.183 1.541-4.34 2.367-6.51a3.037 3.037 0 0 1 1.969-1.86H845.422l.18.03h.043c.059.01.117.023.174.038h.087l.118.031a4.186 4.186 0 0 1 2.355 1.922c1.242 2.176 2.485 4.383 3.727 6.584a6.402 6.402 0 0 1 .578 5.32c-.69 2.04-1.441 4.042-2.162 6.075-.516 1.464-1.398 2.394-2.963 2.406h-.267l-.025-.099Zm-24.663-.223a1.528 1.528 0 0 1-1.447-1.036 3.367 3.367 0 0 1-.168-1.01l-.969-9.499c-.329-3.205-.621-6.41-1-9.615-.106-.874.037-1.24.838-1.24h.149c2.734.099 5.455.087 8.176.124a4.78 4.78 0 0 1 4.591 4.246c.248 1.86.441 3.677.559 5.512.155 2.325-1.373 4.067-3.541 4.105h-.435c-1.696 0-3.392 0-5.094-.087h-.205c-.758 0-.907.378-.795 1.24.248 1.86.428 3.763.565 5.641.056.794-.162 1.519-1.075 1.6h-.149v.019Zm27.104-67.231c-2.118 0-4.15.868-6.131 2.56-2.634 2.239-5.629 3.633-8.772 3.664-.732.01-1.462-.055-2.181-.192-1.609 0-2.795-.074-3.901-.062h-.683c-2.386.106-4.293 1.03-5.498 3.2a38.347 38.347 0 0 0-2.348 5.282 13.408 13.408 0 0 1-6.213 7.297c-1.286.707-2.484 1.531-3.727 2.319-2.597 1.636-3.634 4.184-3.268 7.557.243 2.182.448 4.34.702 6.547.294 2.282-.055 4.6-1.006 6.696-.745 1.643-1.491 3.292-2.274 4.91-1.621 3.354-1.379 6.715 1 10.124.56.8 1.026 1.656 1.622 2.424a19.982 19.982 0 0 1 4.348 11.991c0 1.358.23 2.74.379 4.104.323 2.92 1.516 5.363 4.057 7.025.949.663 1.943 1.26 2.976 1.785a21.996 21.996 0 0 1 10.66 10.193c.503.973 1.149 1.86 1.739 2.814 1.864 2.914 4.399 4.284 7.492 4.34 2.125 0 4.25.05 6.368.05a12.54 12.54 0 0 1 6.467 1.959c1.652.998 3.305 1.996 4.97 3.032a8.986 8.986 0 0 0 4.92 1.593 7.465 7.465 0 0 0 4.237-1.451c1.081-.75 2.199-1.444 3.261-2.225a12.271 12.271 0 0 1 7.3-2.555h1.043c1.727.124 3.454.081 5.175.112h.28c3 0 5.199-1.358 6.429-4.216.622-1.401 1.243-2.784 1.783-4.228a13.214 13.214 0 0 1 6.144-7.322c1.323-.726 2.591-1.55 3.846-2.387a6.742 6.742 0 0 0 3.261-6.057c-.037-2.604-.46-5.214-.733-7.825a13.528 13.528 0 0 1 1.143-7.284c.77-1.637 1.516-3.28 2.274-4.917 1.416-3.025 1.186-6.107-.814-9.219-.888-1.376-1.777-2.753-2.715-4.086a17.48 17.48 0 0 1-3.441-9.355c-.087-1.86-.323-3.763-.541-5.642-.329-2.864-1.497-5.257-3.988-6.931a57.064 57.064 0 0 0-5.2-3.044 18.297 18.297 0 0 1-7.411-7.205 96.934 96.934 0 0 0-2.87-4.625c-1.535-2.362-3.547-3.88-6.175-4.172-1-.106-2.007-.087-3.001-.112h-2.186a25.259 25.259 0 0 1-4.349-.198c-2.69-.416-5.119-1.86-7.374-3.553-2.485-1.86-4.839-2.759-7.094-2.734"/><path fill="#FCCDD3" d="M890.896 138.583a5.036 5.036 0 0 0-1.087 1.606c4.754 9.646 9.517 19.293 14.288 28.94.484.974.789 1.86.136 2.728a1.52 1.52 0 0 1-1.242.657 3.603 3.603 0 0 1-1.242-.266c-4.467-1.668-8.94-3.299-13.407-4.96a7.125 7.125 0 0 0-1.863-.558c-.522 0-.516.533-.957 1.773-1.522 4.34-2.982 8.68-4.467 13.02-.316.942-.751 1.773-1.795 1.785h-.112c-1.137-.049-1.683-.948-2.18-1.959a15324.374 15324.374 0 0 0-15.742-32.047c-3.026-.105-5.641-1.773-8.2-3.503l-.373-.248c-2.814-1.86-5.684-2.976-8.84-2.982h-1.05c-.621 0-1.286.056-1.932.068h-.46a20.663 20.663 0 0 1-4.901-.514c-.218-.05-.429-.112-.622-.168a43979.98 43979.98 0 0 0-7.187 24.558c-.093.316-.156.62-.249.955-.16.362-.097.784.162 1.085.14.166.347.261.565.26.19-.014.377-.058.553-.13 2.311-.794 4.634-1.569 6.945-2.368 2.311-.8 4.566-1.538 6.834-2.381a1.6 1.6 0 0 1 .578-.13c.428 0 .72.266 1.056.861 2.578 4.638 5.218 9.238 7.846 13.851.31.552.528 1.333 1.28 1.326.702 0 .683-.762.844-1.283 2.336-7.948 4.67-15.896 7.002-23.844.031-.302.178-.58.41-.775a3.312 3.312 0 0 1 .621 3.279c-2.417 8.06-4.734 16.12-7.088 24.18-.255.88-.777 1.519-1.715 1.531-1.006 0-1.652-.713-2.143-1.631-2.485-4.618-5.045-9.219-7.492-13.869-.447-.849-.87-1.239-1.46-1.208a2.36 2.36 0 0 0-.839.192c-4.274 1.643-8.579 3.193-12.865 4.798a3.677 3.677 0 0 1-1.243.292 1.69 1.69 0 0 1-1.242-.54 2.642 2.642 0 0 1-.566-2.876c1.324-4.545 2.678-9.077 3.995-13.64 1.286-4.427 2.541-8.866 3.808-13.299a3.487 3.487 0 0 0-1.485-1.072c-.161.415-.354.812-.478 1.24a21957.71 21957.71 0 0 0-7.734 26.436 4.368 4.368 0 0 0 1.143 4.414 3.73 3.73 0 0 0 2.777 1.277c.441-.008.878-.09 1.292-.242 4.125-1.494 8.243-2.988 12.337-4.55a1.73 1.73 0 0 1 .622-.137c.385 0 .621.224.95.775 2.317 4.34 4.69 8.612 7.02 12.921.882 1.637 2.038 2.554 3.796 2.56h.062c1.708 0 2.727-.892 3.199-2.511 1.609-5.48 3.187-10.973 4.784-16.46.708-2.412 1.428-4.805 2.193-7.384.298.546.503.88.677 1.24l11.256 23.001c.715 1.445 1.758 2.381 3.311 2.517.189.012.378.012.566 0a3.004 3.004 0 0 0 3.056-2.182c1.479-4.253 2.951-8.512 4.349-12.796.223-.676.472-1.011.957-1.017.263.011.521.07.764.173 4.181 1.6 8.38 3.1 12.573 4.669.64.259 1.323.398 2.013.409a2.963 2.963 0 0 0 2.435-1.24c1.131-1.488.82-3.211-.087-5.022-2.627-5.239-5.206-10.502-7.808-15.76a6162.232 6162.232 0 0 0-6.884-13.856"/><path fill="#FCCDD3" d="M888.665 141.392a9.33 9.33 0 0 1-5.634 1.779h-1.249c-1.801-.093-3.597-.062-5.398-.087H875.818a7.55 7.55 0 0 0-2.733.62l-.23.106c-3.386 1.624-6.088 4.439-9.753 5.579.096.332.212.657.348.974l14.071 28.581c.236.484.397 1.11 1.112 1.122h.037c.621 0 .739-.558.913-1.035 1.69-4.557 3.398-9.102 5.032-13.683.224-.62.466-.924.913-.93.247.013.49.066.721.155 4.796 1.705 9.598 3.323 14.4 4.96.269.123.556.205.851.241a.57.57 0 0 0 .478-.254c.361-.477 0-.986-.211-1.451a132.936 132.936 0 0 0-1.913-3.912l-11.182-22.784"/><path fill="#6534FF" d="M829.164 91.682h-.037c-1.864 0-3.727-.068-5.635-.056-.671 0-.844-.328-.888-.948-.081-1.06-.211-2.133-.317-3.193-.105-1.06-.174-1.966-.31-2.951-.1-.726.093-1.042.751-1.048h.1c1.807.062 3.603.074 5.398.074 1.112 0 1.702.657 1.864 1.742a72.15 72.15 0 0 1 .478 4.731c.069 1.023-.397 1.637-1.398 1.65h-.006Zm-9.343-11.16c-.801 0-.944.354-.839 1.24.379 3.206.671 6.411 1 9.616l.97 9.498c.004.344.06.685.167 1.011a1.529 1.529 0 0 0 1.448 1.035h.149c.913-.08 1.13-.806 1.075-1.599a97.803 97.803 0 0 0-.566-5.642c-.112-.862.038-1.24.795-1.24h.205c1.703.087 3.399.1 5.095.087h.434c2.168-.037 3.728-1.78 3.541-4.104a76.68 76.68 0 0 0-.559-5.512 4.78 4.78 0 0 0-4.591-4.247c-2.721-.037-5.442 0-8.175-.124h-.149v-.019Zm27.154 19.827c-.46 0-.702-.421-.926-.818-1.112-1.965-2.236-3.918-3.348-5.871l-.143-.28a4.238 4.238 0 0 1-.404-1.524c0-.224 0-.46.037-.676.019-.147.051-.292.094-.434a220.547 220.547 0 0 1 2.304-6.343c.174-.44.429-.663.708-.675.28-.013.578.248.839.694a239.982 239.982 0 0 1 3.609 6.417c.074.142.136.289.187.44.068.223.112.453.168.682.07.507.04 1.023-.087 1.52l-.094.26c-.708 1.94-1.441 3.868-2.155 5.809-.143.39-.305.787-.752.799h-.037Zm-1.982-19.56h-.957a3.037 3.037 0 0 0-1.969 1.86c-.826 2.145-1.59 4.34-2.367 6.51a6.343 6.343 0 0 0 .51 5.313c1.105 2.058 2.267 4.092 3.398 6.144.857 1.538 1.981 2.48 3.659 2.48h.267c1.565 0 2.448-.942 2.963-2.406.721-2.033 1.472-4.036 2.162-6.075a6.402 6.402 0 0 0-.578-5.32c-1.242-2.2-2.435-4.408-3.727-6.584a4.185 4.185 0 0 0-2.355-1.922l-.118-.03h-.087a1.719 1.719 0 0 0-.173-.038h-.044l-.18-.031h-.41"/><path fill="#6534FF" d="M834.761 41.947c3.144 0 6.138-1.426 8.772-3.664 1.982-1.693 4.013-2.542 6.132-2.56 2.255 0 4.609.892 7.094 2.733 2.255 1.674 4.684 3.137 7.374 3.553 1.441.191 2.896.257 4.349.198h2.186c.994 0 2.001 0 3.001.112 2.628.291 4.641 1.81 6.175 4.172a114.042 114.042 0 0 1 2.87 4.625 18.309 18.309 0 0 0 7.411 7.205 57.04 57.04 0 0 1 5.2 3.044c2.485 1.674 3.659 4.067 3.988 6.931.218 1.86.454 3.77.541 5.642a17.488 17.488 0 0 0 3.441 9.355c.938 1.333 1.827 2.71 2.715 4.086 2 3.1 2.23 6.2.814 9.22-.758 1.636-1.503 3.279-2.274 4.916a13.537 13.537 0 0 0-1.143 7.284c.273 2.611.696 5.221.733 7.825a6.742 6.742 0 0 1-3.261 6.057c-1.243.837-2.522 1.661-3.846 2.387a13.214 13.214 0 0 0-6.144 7.322c-.534 1.444-1.18 2.827-1.783 4.228-1.242 2.858-3.429 4.185-6.429 4.216h-.28c-1.721 0-3.448 0-5.175-.112-.354 0-.702-.037-1.043 0a12.271 12.271 0 0 0-7.3 2.555c-1.062.781-2.18 1.475-3.261 2.225a7.465 7.465 0 0 1-4.237 1.451 8.986 8.986 0 0 1-4.92-1.593 193.204 193.204 0 0 0-4.97-3.032 12.54 12.54 0 0 0-6.467-1.959c-2.118 0-4.243 0-6.367-.05-3.107-.037-5.629-1.407-7.493-4.34-.59-.93-1.242-1.86-1.739-2.814a21.996 21.996 0 0 0-10.66-10.193 24.879 24.879 0 0 1-2.976-1.785c-2.541-1.662-3.727-4.105-4.057-7.025-.149-1.364-.347-2.746-.378-4.104a19.988 19.988 0 0 0-4.349-11.99c-.621-.77-1.062-1.625-1.621-2.424-2.38-3.41-2.622-6.77-1.001-10.125.783-1.618 1.529-3.267 2.274-4.91a12.375 12.375 0 0 0 1.006-6.696c-.254-2.182-.459-4.34-.702-6.547-.366-3.373.671-5.92 3.268-7.557 1.243-.788 2.485-1.612 3.727-2.32a13.408 13.408 0 0 0 6.213-7.296 38.474 38.474 0 0 1 2.348-5.283c1.205-2.17 3.106-3.1 5.498-3.199h.683c1.106 0 2.293.044 3.902.062.718.137 1.449.202 2.18.192l-.019-.018Zm14.618-8.723a8.553 8.553 0 0 0-4.218 1.196 25.056 25.056 0 0 0-3.106 2.01 13.337 13.337 0 0 1-8.35 3.149c-.61.007-1.22-.028-1.826-.106a19.336 19.336 0 0 0-2.392-.105c-.621 0-1.211 0-1.814.037a7.72 7.72 0 0 0-6.541 3.273 24.747 24.747 0 0 0-2.877 6.064 12.14 12.14 0 0 1-5.802 6.82 41.975 41.975 0 0 0-3.64 2.263c-3.106 2.064-4.492 5.108-4.02 9.256.205 1.86.317 3.676.622 5.512.435 2.812-.04 5.69-1.355 8.214a43.775 43.775 0 0 0-2.28 5.047 11.018 11.018 0 0 0 .926 9.38 35.605 35.605 0 0 0 2.559 4.024 18.344 18.344 0 0 1 3.983 11.023c.059 1.547.21 3.09.453 4.619a11.328 11.328 0 0 0 4.566 7.849 49.123 49.123 0 0 0 5.722 3.441c1.994 1.116 3.901 2.356 5.268 4.34 2.18 3.205 3.932 6.708 6.529 9.622a3.483 3.483 0 0 1 1.484 1.072 3.685 3.685 0 0 1 1.597.769c.217.056.429.118.621.168 1.608.366 3.253.539 4.902.514h.459c.622 0 1.293-.037 1.932-.068h1.05c3.156 0 6.026 1.141 8.84 2.982l.373.248c2.56 1.73 5.175 3.398 8.2 3.503h1.038c.283-.012.566.021.838.099 3.666-1.147 6.368-3.961 9.754-5.58l.23-.105a7.55 7.55 0 0 1 2.733-.62h.565c1.802 0 3.597 0 5.399.087h1.248a9.363 9.363 0 0 0 5.635-1.78 4.157 4.157 0 0 1 1.143-1.202 5.08 5.08 0 0 1 1.087-1.606c.789-1.947 1.603-3.869 2.361-5.828a10.818 10.818 0 0 1 4.97-5.58c1.366-.787 2.727-1.612 4.031-2.511 3.057-2.077 4.461-5.133 3.976-9.299-.254-2.133-.447-4.272-.689-6.417a10.83 10.83 0 0 1 .851-5.847c.82-1.791 1.64-3.57 2.448-5.369 1.621-3.62 1.428-7.322-.845-11.091a38.93 38.93 0 0 0-2.175-3.336 18.377 18.377 0 0 1-4.031-11.16c0-1.4-.243-2.826-.398-4.234a11.51 11.51 0 0 0-5.082-8.524 46.705 46.705 0 0 0-5.193-3.05 16.14 16.14 0 0 1-6.772-6.572c-.844-1.5-1.776-2.958-2.714-4.396-2.311-3.546-5.349-5.48-9.232-5.487-1.404 0-2.808-.062-4.205-.043H866.972a13.686 13.686 0 0 1-7.79-2.48c-1.584-1.03-3.175-2.065-4.839-2.927a10.769 10.769 0 0 0-4.97-1.314"/><path fill="#6534FF" d="M887.553 92.408h-.08c-1.864-.031-3.684-.075-5.517-.062-.621 0-.888-.217-.932-.887-.074-1.073-.205-2.139-.316-3.205-.112-1.067-.162-1.966-.311-2.945-.118-.788.106-1.098.795-1.104h.131c1.758.062 3.516.08 5.274.068.473-.028.939.135 1.29.454.351.319.558.766.573 1.239.237 1.58.373 3.162.491 4.737.081 1.085-.404 1.692-1.447 1.705h.049Zm-9.33-11.16c-.74 0-.976.266-.864 1.19.391 3.206.677 6.41 1.006 9.616.33 3.206.671 6.504.988 9.752.1 1.061.528 1.792 1.591 1.817h.074c1.137 0 1.243-.973 1.143-1.934a134.02 134.02 0 0 0-.565-5.518c-.093-.738.093-1.005.739-1.01h.118c1.789.065 3.576.09 5.361.074h.286c2.23 0 3.727-1.798 3.578-4.191a86.514 86.514 0 0 0-.553-5.388 4.784 4.784 0 0 0-4.553-4.278c-2.727-.043-5.448-.037-8.175-.124h-.174v-.006Zm-10.008 14.88-4.293-.056a.398.398 0 0 1-.367-.472l1.473-7a.266.266 0 0 1 .149-.204H865.463v.037a.418.418 0 0 1 .161.193l2.827 7.049a.315.315 0 0 1-.261.465l.025-.013Zm-3.603-15.01a1.99 1.99 0 0 0-.491.068c-.621.155-.758.824-.87 1.45-.708 4.03-1.429 8.06-2.137 12.097-.391 2.2-.808 4.389-1.168 6.596-.143.918.124 1.767 1.143 2.04.164.046.333.071.503.074.622 0 .969-.397 1.075-1.184.124-.948.367-1.86.491-2.808.081-.62.348-.856.901-.862h.111c1.305.05 2.61.068 3.902.056h.323a1.09 1.09 0 0 1 1.242.942c.261.918.621 1.81 1.007 2.703.273.694.621 1.271 1.453 1.24h.087c.92 0 1.442-.837 1.063-1.86a4943.878 4943.878 0 0 0-7.225-19.48 1.423 1.423 0 0 0-1.404-1.078"/></svg>