<svg xmlns="http://www.w3.org/2000/svg" width="300" height="300" viewBox="0 0 300 300">
  <g fill="none" fill-rule="evenodd" transform="translate(4 8)">
    <circle cx="142.9" cy="143.38" r="125.36" fill="#F9879A" fill-rule="nonzero"/>
    <path fill="#52D2BC" fill-rule="nonzero" d="M284.64,50.09 C286.366278,52.1244768 287.622768,54.5145388 288.32,57.09 C289.602555,60.496772 289.767171,64.2234092 288.79,67.73 C285.24,79 267.66,84 254.91,81.44 C241.91,78.86 240.82,69.87 229.1,69.34 C217.86,68.83 215.71,76.95 204.1,76.6 C195.27,76.33 183.92,71.25 179.1,60.47 C174.28,49.69 176.32,35.52 181.52,33.85 C186.72,32.18 190.22,45.15 202.52,47.56 C213.84,49.79 217.06,39.89 229.94,41.11 C243.18,42.36 247.62,53.54 257.37,50.79 C260.58,49.88 262.59,47.45 265.37,45.79 C268.77,43.73 273,44 276.69,45.14 C277.14,45.28 277.58,45.44 278.02,45.61 C280.461267,46.6077475 282.668085,48.1027987 284.5,50 C284.549263,50.0257556 284.596117,50.0558762 284.64,50.09 L284.64,50.09 Z" opacity=".24"/>
    <path stroke="#FFF" stroke-linecap="round" stroke-linejoin="round" stroke-width="1.42" d="M89.86 127.57L78.27 139.17M72.47 110.18L71.02 111.63M67.39 114.53L50.36 131.56"/>
    <path stroke="#6535FF" stroke-linecap="round" stroke-linejoin="round" stroke-width="1.42" d="M220.34,137 C225.34,135.33 228.25,132.07 234.11,131.92 C237.698885,131.911793 241.217169,132.917017 244.26,134.82"/>
    <path fill="#3E1EC4" fill-rule="nonzero" d="M290.23,119.17 C290.23,118.49635 289.962394,117.850291 289.486051,117.373949 C289.009709,116.897606 288.36365,116.63 287.69,116.63 L287.55,116.63 L287.68,116.63 C288.983392,116.105329 289.61467,114.623392 289.09,113.32 C288.565329,112.016608 287.083392,111.38533 285.78,111.91 C286.32051,111.322875 286.554985,110.516567 286.41361,109.73115 C286.272235,108.945733 285.771316,108.271796 285.06,107.91 C284.953575,107.858089 284.843236,107.814621 284.73,107.78 C283.816891,107.486148 282.816124,107.729578 282.14,108.41 L282.06,108.5 C282.072499,108.461578 282.089271,108.424681 282.11,108.39 C282.662285,107.100415 282.064585,105.607285 280.775,105.055 C279.485415,104.502715 277.992285,105.100415 277.44,106.39 C277.42067,104.987197 276.267803,103.86567 274.865,103.885 C273.462197,103.90433 272.34067,105.057197 272.36,106.46 L272.36,106.59 C272.36,106.59 272.36,106.51 272.36,106.47 C272.041748,105.723852 271.387478,105.173636 270.597805,104.988063 C269.808132,104.80249 268.977277,105.003701 268.36,105.53 C268.271824,105.608346 268.188346,105.691824 268.11,105.78 C267.49952,106.493404 267.330482,107.484581 267.67,108.36 C266.99148,107.711807 266.009932,107.492402 265.12,107.79 C265.006168,107.822893 264.895682,107.866418 264.79,107.92 C264.058724,108.287412 263.548226,108.983483 263.417539,109.791367 C263.286852,110.599251 263.551858,111.42077 264.13,112 L264.23,112.09 L264,112 C262.732099,111.552214 261.33437,112.165903 260.805962,113.402377 C260.277555,114.638851 260.800072,116.073158 262,116.68 C260.597197,116.69933 259.47567,117.852197 259.495,119.255 C259.51433,120.657803 260.667197,121.77933 262.07,121.76 L262.2,121.76 L262.08,121.76 C260.950699,122.222841 260.310227,123.42344 260.554751,124.619161 C260.799275,125.814883 261.85966,126.667658 263.08,126.65 C263.392004,126.648252 263.700826,126.587166 263.99,126.47 C263.450221,127.058502 263.217299,127.865882 263.360668,128.651466 C263.504037,129.437049 264.007138,130.110105 264.72,130.47 C264.822953,130.52944 264.934168,130.573252 265.05,130.6 C265.958266,130.892291 266.953721,130.653073 267.63,129.98 L267.72,129.88 L267.66,130 C267.322414,130.828658 267.443856,131.773629 267.98,132.49 C268.087336,132.637287 268.211511,132.77153 268.35,132.89 L265.26,139.42 C265.180369,139.57715 265.202151,139.766649 265.315363,139.901631 C265.428574,140.036614 265.611386,140.091056 265.78,140.04 L269.12,139.11 C269.328442,139.055142 269.546513,139.15579 269.64,139.35 L271.15,142.62 C271.225189,142.775246 271.382505,142.87385 271.555,142.87385 C271.727495,142.87385 271.884811,142.775246 271.96,142.62 L274.88,136.47 L277.79,142.62 C277.865189,142.775246 278.022505,142.87385 278.195,142.87385 C278.367495,142.87385 278.524811,142.775246 278.6,142.62 L280.11,139.35 C280.207216,139.154248 280.428751,139.05393 280.64,139.11 L283.98,140.04 C284.148614,140.091056 284.331426,140.036614 284.444637,139.901631 C284.557849,139.766649 284.579631,139.57715 284.5,139.42 L281.41,132.91 L281.49,132.85 C281.579907,132.776778 281.660507,132.692819 281.73,132.6 C282.34048,131.886596 282.509518,130.895419 282.17,130.02 C282.852816,130.667392 283.834833,130.88988 284.73,130.6 C284.840886,130.563643 284.948041,130.516763 285.05,130.46 C285.779326,130.091315 286.288802,129.396582 286.421229,128.590165 C286.553655,127.783748 286.293115,126.962567 285.72,126.38 L285.62,126.29 L285.74,126.35 C286.056776,126.481241 286.397164,126.545914 286.74,126.54 C287.083983,126.547663 287.425424,126.479375 287.74,126.34 C288.363515,126.084465 288.859937,125.59164 289.12,124.97 L289.12,124.97 C289.643274,123.694123 289.052929,122.233795 287.79,121.68 C289.139852,121.621864 290.210058,120.520956 290.23,119.17 L290.23,119.17 Z" opacity=".32"/>
    <path fill="#F9879A" fill-rule="nonzero" d="M285.38,139.48 L282.04,138.55 C281.828418,138.48968 281.604242,138.591194 281.51,138.79 L280,142.06 C279.924811,142.215246 279.767495,142.31385 279.595,142.31385 C279.422505,142.31385 279.265189,142.215246 279.19,142.06 L275,133.25 C274.948823,133.14403 274.942229,133.021977 274.98169,132.91111 C275.021151,132.800243 275.103378,132.709804 275.21,132.66 L281.12,129.86 C281.343692,129.752602 281.612106,129.846547 281.72,130.07 L285.88,138.86 C285.954637,139.013347 285.933935,139.196014 285.826874,139.328769 C285.719813,139.461525 285.545679,139.520455 285.38,139.48 Z"/>
    <path fill="#F9879A" fill-rule="nonzero" d="M267.18,139.48 L270.52,138.55 C270.728802,138.490806 270.949578,138.592703 271.04,138.79 L272.56,142.06 C272.631677,142.216412 272.787946,142.316697 272.96,142.316697 C273.132054,142.316697 273.288323,142.216412 273.36,142.06 L277.54,133.25 C277.640775,133.028891 277.547813,132.767713 277.33,132.66 L271.42,129.86 C271.196308,129.752602 270.927894,129.846547 270.82,130.07 L266.66,138.86 C266.580369,139.01715 266.602151,139.206649 266.715363,139.341631 C266.828574,139.476614 267.011386,139.531056 267.18,139.48 L267.18,139.48 Z"/>
    <path fill="#6534FF" fill-rule="nonzero" d="M277.33 132.66L276.33 132.19C276.404773 133.191654 276.009304 134.171087 275.26 134.84 274.67 135.36 273.93 135.65 273.31 136.14 272.783865 136.5984 272.322923 137.126632 271.94 137.71 271.715589 138.002846 271.527548 138.321845 271.38 138.66 271.316063 138.854459 271.275773 139.055908 271.26 139.26L272.56 142.06C272.631677 142.216412 272.787946 142.316697 272.96 142.316697 273.132054 142.316697 273.288323 142.216412 273.36 142.06L277.54 133.25C277.640775 133.028891 277.547813 132.767713 277.33 132.66zM281.74 130.07C281.654711 129.892997 281.464444 129.791791 281.27 129.82 281.250007 130.119667 281.250007 130.420333 281.27 130.72 281.319855 131.926303 281.259605 133.134639 281.09 134.33 280.975213 134.887486 280.975213 135.462514 281.09 136.02 281.4 137.11 282.55 137.67 283.46 138.35 283.790973 138.605867 284.101881 138.886687 284.39 139.19L285.39 139.48C285.558614 139.531056 285.741426 139.476614 285.854637 139.341631 285.967849 139.206649 285.989631 139.01715 285.91 138.86L281.74 130.07z" opacity=".32"/>
    <path fill="#6534FF" fill-rule="nonzero" d="M280.09,126.47 C279.158626,126.475882 278.274244,126.879859 277.66,127.58 C277.206394,127.3427 276.701927,127.219157 276.19,127.22 C275.77135,127.217337 275.356446,127.298957 274.97,127.46 C274.36691,126.828004 273.533547,126.46724 272.66,126.46 C270.710435,126.46 269.13,128.040435 269.13,129.99 C269.13,131.939565 270.710435,133.52 272.66,133.52 C273.075031,133.518727 273.485903,133.437232 273.87,133.28 C274.495103,133.93399 275.367154,134.293838 276.271551,134.27099 C277.175949,134.248142 278.028717,133.84472 278.62,133.16 C279.073606,133.3973 279.578073,133.520843 280.09,133.52 C282.039565,133.52 283.62,131.939565 283.62,129.99 C283.62,128.040435 282.039565,126.46 280.09,126.46 L280.09,126.47 Z" opacity=".32"/>
    <path fill="#FFF" fill-rule="nonzero" d="M291.61,118.58 C291.610011,117.17557 290.474419,116.035508 289.07,116.03 L288.93,116.03 L289.06,115.98 C290.329315,115.435447 290.930847,113.97642 290.414135,112.695519 C289.897424,111.414618 288.451876,110.781376 287.16,111.27 C287.70051,110.682875 287.934985,109.876567 287.79361,109.09115 C287.652235,108.305733 287.151316,107.631796 286.44,107.27 C286.333575,107.218089 286.223236,107.174621 286.11,107.14 C285.196891,106.846148 284.196124,107.089578 283.52,107.77 L283.44,107.86 L283.49,107.74 C284.042285,106.450415 283.444585,104.957285 282.155,104.405 C280.865415,103.852715 279.372285,104.450415 278.82,105.74 C278.80067,104.337197 277.647803,103.21567 276.245,103.235 C274.842197,103.25433 273.72067,104.407197 273.74,105.81 L273.74,105.94 C273.743032,105.89672 273.743032,105.85328 273.74,105.81 C273.419687,105.065471 272.764507,104.517556 271.975055,104.334009 C271.185604,104.150461 270.35591,104.353143 269.74,104.88 C269.650093,104.953222 269.569493,105.037181 269.5,105.13 C268.881084,105.839425 268.711204,106.835539 269.06,107.71 C268.377258,107.062102 267.393134,106.84298 266.5,107.14 C266.386764,107.174621 266.276425,107.218089 266.17,107.27 C265.438724,107.637412 264.928226,108.333483 264.797539,109.141367 C264.666852,109.949251 264.931858,110.77077 265.51,111.35 L265.61,111.44 L265.49,111.38 C264.197654,110.827715 262.702285,111.427654 262.15,112.72 C261.597715,114.012346 262.197654,115.507715 263.49,116.06 C262.582545,116.070718 261.749741,116.564743 261.305295,117.355981 C260.86085,118.147218 260.872286,119.115461 261.335295,119.895981 C261.798305,120.676501 262.642545,121.150718 263.55,121.14 L263.68,121.14 L263.56,121.14 C262.265055,121.67864 261.651752,123.164892 262.19,124.46 L262.19,124.46 C262.590389,125.403569 263.514999,126.017353 264.54,126.02 C264.854718,126.022707 265.167032,125.964997 265.46,125.85 C264.91949,126.437125 264.685015,127.243433 264.82639,128.02885 C264.967765,128.814267 265.468684,129.488204 266.18,129.85 C266.286425,129.901911 266.396764,129.945379 266.51,129.98 C267.419948,130.274549 268.418215,130.030786 269.09,129.35 C269.122464,129.322569 269.152569,129.292464 269.18,129.26 C269.157348,129.297235 269.140489,129.337697 269.13,129.38 C268.787529,130.206663 268.90529,131.152544 269.44,131.87 C269.580726,132.060732 269.749268,132.229274 269.94,132.37 C270.560549,132.836023 271.359544,132.994097 272.110796,132.799473 C272.862048,132.604848 273.483786,132.078708 273.8,131.37 C273.81933,132.772803 274.972197,133.89433 276.375,133.875 C277.777803,133.85567 278.89933,132.702803 278.88,131.3 C278.884958,131.256808 278.884958,131.213192 278.88,131.17 C278.88,131.17 278.88,131.25 278.93,131.3 C279.328253,132.24534 280.254196,132.860009 281.28,132.86 C281.896854,132.855132 282.492046,132.631935 282.96,132.23 C283.048176,132.151654 283.131654,132.068176 283.21,131.98 C283.812969,131.262704 283.977739,130.27408 283.64,129.4 C284.322742,130.047898 285.306866,130.26702 286.2,129.97 C286.310608,129.937083 286.417773,129.893547 286.52,129.84 C287.252781,129.474513 287.765459,128.77935 287.898154,127.971302 C288.030848,127.163255 287.767412,126.340641 287.19,125.76 L287.09,125.67 L287.21,125.73 C287.526776,125.861241 287.867164,125.925914 288.21,125.92 C288.553268,125.92 288.893138,125.852026 289.21,125.72 C289.83164,125.459937 290.324465,124.963515 290.58,124.34 L290.58,124.34 C291.097591,123.064114 290.508848,121.607751 289.25,121.05 C290.555547,120.957661 291.577192,119.888397 291.61,118.58 L291.61,118.58 Z"/>
    <path fill="#62BCF9" fill-rule="nonzero" d="M265.52,130 L265.44,130 C265.307623,129.961398 265.18012,129.907712 265.06,129.84 C264.251177,129.436012 263.683031,128.671057 263.53,127.78 C263.42541,127.172017 263.523805,126.546511 263.81,126 C262.579224,126.097126 261.428365,125.382361 260.969846,124.236062 C260.511326,123.089762 260.851765,121.778478 261.81,121 C260.605701,120.66236 259.767687,119.571812 259.751505,118.321182 C259.735323,117.070552 260.54484,115.958687 261.74,115.59 C260.734849,114.807983 260.381296,113.447747 260.878433,112.275255 C261.375569,111.102764 262.599083,110.411204 263.86,110.59 C263.547755,110.041609 263.431378,109.403301 263.53,108.78 C263.675796,107.876008 264.244199,107.095846 265.06,106.68 C265.178934,106.619768 265.302699,106.569593 265.43,106.53 C266.157605,106.290901 266.950937,106.35581 267.63,106.71 C267.554076,105.949251 267.792528,105.190539 268.29,104.61 C268.375596,104.506151 268.469218,104.409186 268.57,104.32 C269.268135,103.725496 270.207646,103.498974 271.1,103.71 C271.711144,103.860755 272.253664,104.21304 272.64,104.71 C272.97764,103.505701 274.068188,102.667687 275.318818,102.651505 C276.569448,102.635323 277.681313,103.44484 278.05,104.64 C278.840361,103.696417 280.148583,103.369361 281.29,103.83 C282.426316,104.30975 283.118993,105.472314 283,106.7 C283.6869,106.318586 284.500135,106.235455 285.25,106.47 C285.380547,106.509549 285.507638,106.559717 285.63,106.62 C286.435665,107.027746 287.002459,107.790881 287.16,108.68 C287.266902,109.292304 287.16476,109.92277 286.87,110.47 C288.100776,110.372874 289.251635,111.087639 289.710154,112.233938 C290.168674,113.380238 289.828235,114.691522 288.87,115.47 C290.122937,115.782488 291.001617,116.908684 291,118.2 C291,118.35464 290.87464,118.48 290.72,118.48 C290.56536,118.48 290.44,118.35464 290.44,118.2 C290.44,116.951836 289.428164,115.94 288.18,115.94 L288,115.94 C287.866726,115.937377 287.753778,115.841162 287.73,115.71 C287.707515,115.571402 287.787551,115.436605 287.92,115.39 L288.02,115.39 C288.770258,115.088111 289.302468,114.408896 289.416153,113.608209 C289.529838,112.807522 289.207726,112.007006 288.571153,111.508209 C287.934581,111.009411 287.080258,110.888111 286.33,111.19 C286.209988,111.23052 286.07772,111.185423 286.007457,111.080029 C285.937194,110.974634 285.946439,110.835196 286.03,110.74 C286.526701,110.215674 286.744251,109.486276 286.615922,108.775528 C286.487592,108.064781 286.028701,107.457518 285.38,107.14 C285.290469,107.091653 285.196755,107.051489 285.1,107.02 C284.285996,106.7564 283.392926,106.972902 282.79,107.58 L282.74,107.64 C282.647899,107.747728 282.491425,107.773102 282.37,107.7 C282.248918,107.633814 282.200633,107.484567 282.26,107.36 L282.26,107.26 C282.751533,106.111248 282.218752,104.781533 281.07,104.29 C279.921248,103.798467 278.591533,104.331248 278.1,105.48 C278.05309,105.60503 277.919089,105.674191 277.79,105.64 C277.664359,105.61635 277.572529,105.507822 277.57,105.38 C277.553431,104.131836 276.528164,103.133431 275.28,103.15 C274.031836,103.166569 273.033431,104.191836 273.05,105.44 L273.05,105.56 C273.061705,105.700186 272.95979,105.824256 272.82,105.84 C272.686768,105.862677 272.556351,105.786951 272.51,105.66 C272.515635,105.62355 272.515635,105.58645 272.51,105.55 C272.227882,104.876525 271.639021,104.379875 270.92761,104.215399 C270.216199,104.050922 269.469099,104.238701 268.92,104.72 C268.85,104.79 268.77,104.86 268.71,104.93 C268.162021,105.568255 268.011936,106.457218 268.32,107.24 C268.369653,107.363949 268.324876,107.505713 268.213035,107.578653 C268.101193,107.651593 267.953409,107.635413 267.86,107.54 C267.254735,106.957818 266.375621,106.761174 265.58,107.03 C265.485055,107.057789 265.39425,107.098147 265.31,107.15 C264.654385,107.471558 264.194537,108.090078 264.075454,108.81053 C263.956371,109.530981 264.192729,110.264576 264.71,110.78 L264.76,110.78 C264.865804,110.876695 264.894404,111.031951 264.83,111.16 C264.760614,111.27715 264.614857,111.324306 264.49,111.27 L264.38,111.27 C263.231248,110.781228 261.903772,111.316248 261.415,112.465 C260.926228,113.613752 261.461248,114.941228 262.61,115.43 C262.731891,115.480383 262.799542,115.611457 262.77,115.74 C262.742106,115.867195 262.630208,115.958372 262.5,115.96 C261.307266,116.053578 260.391905,117.056815 260.40775,118.253109 C260.423595,119.449404 261.365206,120.428045 262.56,120.49 L262.67,120.49 C262.812628,120.47175 262.944535,120.568482 262.97,120.71 C262.998065,120.846609 262.92132,120.983045 262.79,121.03 L262.68,121.03 C261.929742,121.331889 261.397532,122.011104 261.283847,122.811791 C261.170162,123.612478 261.492274,124.412994 262.128847,124.911791 C262.765419,125.410589 263.619742,125.531889 264.37,125.23 C264.489733,125.179606 264.62838,125.22162 264.7,125.33 C264.778338,125.433516 264.778338,125.576484 264.7,125.68 C264.209387,126.198013 263.990864,126.916547 264.11,127.62 C264.23657,128.338721 264.696718,128.954726 265.35,129.28 C265.438978,129.326908 265.532886,129.363801 265.63,129.39 C265.766368,129.427326 265.853514,129.560458 265.833163,129.700369 C265.812812,129.840281 265.691351,129.943069 265.55,129.94 L265.52,130 Z"/>
    <circle cx="276.19" cy="118.67" r="11.89" fill="#BBC4EF" fill-rule="nonzero" opacity=".32"/>
    <path fill="#BBC4EF" fill-rule="nonzero" d="M265.22,115.27 L265.13,115.27 C265.057634,115.247204 264.997617,115.196018 264.963687,115.128157 C264.929756,115.060295 264.924817,114.98157 264.95,114.91 C266.101589,111.38229 268.867528,108.615928 272.395061,107.463798 C275.922595,106.311668 279.788166,106.912108 282.8,109.08 C282.909749,109.1756 282.927953,109.339342 282.841882,109.456713 C282.75581,109.574084 282.594167,109.605939 282.47,109.53 C279.602548,107.458264 275.917079,106.8832 272.554774,107.982871 C269.19247,109.082543 266.559074,111.724248 265.47,115.09 C265.428058,115.19296 265.330947,115.26288 265.22,115.27 Z"/>
    <path fill="#6534FF" fill-rule="nonzero" d="M291.61,118.58 C291.610011,117.17557 290.474419,116.035508 289.07,116.03 L288.93,116.03 L289.06,115.98 C290.329315,115.435447 290.930847,113.97642 290.414135,112.695519 C289.897424,111.414618 288.451876,110.781376 287.16,111.27 C287.70051,110.682875 287.934985,109.876567 287.79361,109.09115 C287.652235,108.305733 287.151316,107.631796 286.44,107.27 C286.333575,107.218089 286.223236,107.174621 286.11,107.14 C285.196891,106.846148 284.196124,107.089578 283.52,107.77 L283.44,107.86 L283.49,107.74 C283.66606,107.323709 283.721503,106.866298 283.65,106.42 C283.166454,106.969215 282.802109,107.612776 282.58,108.31 C282.411608,109.030383 282.297951,109.762471 282.24,110.5 C282.025987,112.007958 281.472035,113.447551 280.62,114.71 C279.24,116.71 277.09,118.32 276.21,120.63 C275.47,122.54 275.73,124.63 275.76,126.71 C275.789462,129.018258 275.52057,131.32065 274.96,133.56 C275.355828,133.806428 275.813756,133.934786 276.28,133.93 C277.682803,133.93 278.82,132.792803 278.82,131.39 C278.824958,131.346808 278.824958,131.303192 278.82,131.26 C278.82,131.26 278.82,131.34 278.87,131.39 C279.268253,132.33534 280.194196,132.950009 281.22,132.95 C281.836854,132.945132 282.432046,132.721935 282.9,132.32 C282.988176,132.241654 283.071654,132.158176 283.15,132.07 C283.752969,131.352704 283.917739,130.36408 283.58,129.49 C284.262742,130.137898 285.246866,130.35702 286.14,130.06 C286.250608,130.027083 286.357773,129.983547 286.46,129.93 C287.192781,129.564513 287.705459,128.86935 287.838154,128.061302 C287.970848,127.253255 287.707412,126.430641 287.13,125.85 L287.03,125.76 L287.15,125.82 C287.466776,125.951241 287.807164,126.015914 288.15,126.01 C288.493268,126.01 288.833138,125.942026 289.15,125.81 C289.77164,125.549937 290.264465,125.053515 290.52,124.43 L290.52,124.43 C291.037591,123.154114 290.448848,121.697751 289.19,121.14 C290.553506,121.075566 291.62227,119.944973 291.61,118.58 L291.61,118.58 Z" opacity=".32"/>
    <path fill="#3E1EC4" fill-rule="nonzero" d="M62.58,248.55 L62.58,242.01 C62.5880791,241.408953 62.2706004,240.850496 61.75,240.55 L56.09,237.26 C55.5686005,236.965951 54.9313995,236.965951 54.41,237.26 L48.74,240.52 C48.2163637,240.815141 47.8917361,241.368917 47.89,241.97 L47.89,248.51 C47.890181,249.108892 48.2054762,249.663508 48.72,249.97 L54.38,253.26 C54.9013995,253.554049 55.5386005,253.554049 56.06,253.26 L61.74,250 C62.2613131,249.703832 62.5824066,249.149564 62.58,248.55 L62.58,248.55 Z" opacity=".32"/>
    <path fill="#52D2BC" fill-rule="nonzero" d="M62.94,247.93 L62.94,241.39 C62.9438842,240.79004 62.6275208,240.233545 62.11,239.93 L56.45,236.64 C55.931336,236.335709 55.288664,236.335709 54.77,236.64 L49.1,239.89 C48.5778754,240.186676 48.253814,240.739487 48.25,241.34 L48.25,247.89 C48.2455471,248.487485 48.5625385,249.041266 49.08,249.34 L54.74,252.64 C55.2597938,252.940103 55.9002062,252.940103 56.42,252.64 L62.1,249.39 C62.6228997,249.090524 62.9439122,248.532573 62.94,247.93 L62.94,247.93 Z"/>
    <path fill="#FFF" fill-rule="nonzero" d="M48.78,249 L48.72,249 C48.1681535,248.679012 47.8290332,248.08841 47.83,247.45 L47.83,240.9 C47.8331492,240.260084 48.1758057,239.669954 48.73,239.35 L54.41,236.1 C54.9657938,235.774278 55.6542062,235.774278 56.21,236.1 L61.86,239.39 C62.4149518,239.712773 62.7545499,240.308024 62.75,240.95 C62.75,241.010751 62.7007513,241.06 62.64,241.06 L62.64,241.06 C62.6091361,241.062818 62.5785155,241.052485 62.5556693,241.031543 C62.5328232,241.0106 62.5198716,240.980992 62.52,240.95 C62.5273874,240.390975 62.2331546,239.871291 61.75,239.59 L56.09,236.3 C55.6078935,236.019254 55.0121065,236.019254 54.53,236.3 L48.85,239.55 C48.3637924,239.825937 48.0624126,240.340953 48.06,240.9 L48.06,247.45 C48.0608848,248.009456 48.3575576,248.526732 48.84,248.81 C48.8793768,248.852247 48.8793768,248.917753 48.84,248.96 C48.8250627,248.979696 48.8039264,248.993787 48.78,249 L48.78,249 Z"/>
    <polygon fill="#FFF" fill-rule="nonzero" points="60.05 245.81 60.74 244.64 60.06 243.46 60.06 242.09 58.89 241.41 58.21 240.23 56.85 240.22 55.67 239.54 54.49 240.22 53.13 240.21 52.45 241.39 51.27 242.06 51.26 243.43 50.58 244.6 51.25 245.78 51.25 247.15 52.42 247.83 53.1 249.01 54.46 249.02 55.64 249.7 56.82 249.02 58.18 249.03 58.87 247.85 60.05 247.18"/>
    <path fill="#6535FF" fill-rule="nonzero" d="M54.23,248.9 L52.87,248.9 C52.8290626,248.896912 52.7919895,248.874668 52.77,248.84 L52.11,247.68 L51,247 C50.9640586,246.979279 50.9413693,246.941464 50.94,246.9 L50.94,245.57 L50.28,244.42 C50.2604342,244.382393 50.2604342,244.337607 50.28,244.3 L50.95,243.15 L50.95,241.82 C50.9492308,241.777935 50.9725222,241.739116 51.01,241.72 L52.16,241.06 L52.83,239.91 C52.8617455,239.895449 52.8982545,239.895449 52.93,239.91 L54.26,239.91 L55.42,239.25 C55.4540341,239.23035 55.4959659,239.23035 55.53,239.25 L56.68,239.92 L58,239.92 C58.0409374,239.923088 58.0780105,239.945332 58.1,239.98 L58.76,241.14 L59.91,241.81 C59.9493768,241.852247 59.9493768,241.917753 59.91,241.96 C59.8892183,241.982021 59.8602786,241.994502 59.83,241.994502 C59.7997214,241.994502 59.7707817,241.982021 59.75,241.96 L58.57,241.28 C58.57,241.28 58.57,241.28 58.57,241.28 L57.93,240.15 L56.63,240.15 L56.57,240.15 L55.45,239.5 L54.33,240.15 L53,240.15 L52.35,241.27 L52.35,241.27 L51.22,241.91 L51.22,243.21 C51.2253421,243.226239 51.2253421,243.243761 51.22,243.26 L50.57,244.38 L51.21,245.51 C51.2153421,245.526239 51.2153421,245.543761 51.21,245.56 L51.21,246.86 L52.33,247.51 L52.33,247.51 L52.97,248.64 L54.26,248.64 C54.3262742,248.64 54.38,248.693726 54.38,248.76 C54.3969303,248.802165 54.3861934,248.850401 54.3529763,248.881403 C54.3197593,248.912406 54.2708987,248.919795 54.23,248.9 L54.23,248.9 Z"/>
    <circle cx="55.61" cy="244.4" r="1.91" fill="#FCCDD3" fill-rule="nonzero"/>
    <path fill="#6535FF" fill-rule="nonzero" d="M54.69,246.3 C54.6672892,246.307622 54.6427108,246.307622 54.62,246.3 C54.2005337,245.961674 53.9353507,245.468388 53.8845243,244.931887 C53.833698,244.395387 54.0015298,243.861078 54.35,243.45 C54.6897539,243.032136 55.183673,242.768953 55.72,242.72 C56.2537214,242.665422 56.7869922,242.827565 57.2,243.17 C57.2421846,243.218816 57.2421846,243.291184 57.2,243.34 C57.1792183,243.362021 57.1502786,243.374502 57.12,243.374502 C57.0897214,243.374502 57.0607817,243.362021 57.04,243.34 C56.6705639,243.036691 56.1956573,242.892779 55.72,242.94 C55.2435902,242.97982 54.8035479,243.210662 54.5,243.58 C53.8706335,244.351345 53.9823278,245.486159 54.75,246.12 C54.7720208,246.140782 54.7845017,246.169721 54.7845017,246.2 C54.7845017,246.230279 54.7720208,246.259218 54.75,246.28 C54.7326904,246.292982 54.711637,246.3 54.69,246.3 Z"/>
    <path fill="#6534FF" fill-rule="nonzero" d="M62.13,239.93 L56.47,236.64 C56.2780576,236.522651 56.0632678,236.447645 55.84,236.42 C55.7205524,236.674876 55.6332175,236.943599 55.58,237.22 C55.4497928,238.164909 55.5422523,239.127172 55.85,240.03 C56.153504,240.927839 56.4039364,241.842752 56.6,242.77 C56.8061439,244.056305 56.6539067,245.374541 56.16,246.58 C55.51,248.14 54.3,249.45 53.84,251.08 C53.7583505,251.38152 53.7014943,251.689212 53.67,252 L54.74,252.63 C55.2597938,252.930103 55.9002062,252.930103 56.42,252.63 L62.1,249.38 C62.6197831,249.082292 62.9403093,248.529003 62.94,247.93 L62.94,241.39 C62.9480602,240.794115 62.6398392,240.238557 62.13,239.93 L62.13,239.93 Z" opacity=".32"/>
    <path fill="#FFF" fill-rule="nonzero" d="M56.47,252 C56.4285361,251.998631 56.3907207,251.975941 56.37,251.94 C56.3404791,251.881936 56.3626704,251.810923 56.42,251.78 L61.63,248.78 C61.6770173,248.743293 61.7429827,248.743293 61.79,248.78 C61.830743,248.825552 61.830743,248.894448 61.79,248.94 L56.58,251.94 L56.47,252 Z"/>
    <path fill="#F9879A" fill-rule="nonzero" d="M77.23,45.72 C77.4950383,45.8807133 77.620384,46.1984365 77.5364642,46.4968181 C77.4525444,46.7951996 77.1799565,47.001004 76.87,47 C74.8378439,46.7673069 72.795255,46.637142 70.75,46.61 C70.3689235,46.61 70.06,46.3010765 70.06,45.92 C70.06,45.5389235 70.3689235,45.23 70.75,45.23 C72.8421458,45.2558858 74.9315743,45.3893956 77.01,45.63 L77.23,45.72 Z M64.85,45.53 C65.1474705,45.6502296 65.3204269,45.9620286 65.2649434,46.2780435 C65.2094598,46.5940584 64.940635,46.8282927 64.62,46.84 C62.62,47 60.55,47.25 58.54,47.59 C58.1672078,47.6535127 57.8135128,47.4027922 57.7500001,47.03 C57.6864873,46.6572078 57.9372078,46.3035128 58.31,46.24 C60.31,45.89 62.44,45.63 64.52,45.47 C64.6334455,45.4587711 64.7477676,45.4795569 64.85,45.53 L64.85,45.53 Z M52.66,47.62 C52.9216162,47.7426982 53.0790682,48.0154158 53.0545173,48.3033309 C53.0299664,48.5912461 52.8286133,48.8333679 52.55,48.91 C50.5796651,49.4385508 48.6372041,50.0660125 46.73,50.79 C46.3739706,50.9194668 45.9795503,50.7421992 45.84,50.39 C45.7721946,50.2191338 45.7764567,50.0280946 45.851815,49.8604225 C45.9271733,49.6927503 46.0672067,49.5627319 46.24,49.5 C48.18,48.77 50.18,48.12 52.24,47.58 C52.3806057,47.547022 52.5281471,47.5610736 52.66,47.62 L52.66,47.62 Z M41.08,52 C41.2301355,52.0591829 41.3518349,52.1737235 41.42,52.32 C41.5872125,52.6626908 41.4493845,53.0761749 41.11,53.25 C39.29,54.14 37.49,55.15 35.76,56.25 C35.4368672,56.4513064 35.0117474,56.3528576 34.81,56.03 C34.6800549,55.8746645 34.6261096,55.6694923 34.6628481,55.4703312 C34.6995865,55.2711701 34.823185,55.0987487 35,55 C36.7721387,53.9093636 38.597756,52.908111 40.47,52 C40.6622932,51.9052407 40.8877068,51.9052407 41.08,52 Z M30.59,58.52 C30.6953944,58.5629727 30.7858157,58.6360053 30.85,58.73 C30.9756787,58.8748974 31.0343178,59.0661338 31.0114648,59.2565758 C30.9886117,59.4470177 30.8863922,59.6189511 30.73,59.73 C29.1101147,60.9837836 27.5547879,62.318828 26.07,63.73 C25.9383377,63.8643772 25.7581281,63.9401021 25.57,63.9401021 C25.3818719,63.9401021 25.2016623,63.8643772 25.07,63.73 C24.9330356,63.5997469 24.8554997,63.4190108 24.8554997,63.23 C24.8554997,63.0409892 24.9330356,62.8602531 25.07,62.73 C26.59,61.3 28.19,59.94 29.84,58.67 C30.0355235,58.4708162 30.3329076,58.4113394 30.59,58.52 Z M21.59,66.99 L21.76,67.1 C21.9091313,67.218673 22.0016155,67.3944835 22.014924,67.5846053 C22.0282326,67.7747271 21.9611438,67.9617078 21.83,68.1 C20.5,69.63 19.22,71.25 18.03,72.91 C17.7990056,73.1883014 17.392316,73.2410097 17.0980076,73.0307894 C16.8036991,72.8205691 16.721659,72.4187681 16.91,72.11 C18.13,70.41 19.43,68.76 20.79,67.2 C20.9797993,66.9654502 21.3014584,66.8840175 21.58,67 L21.59,66.99 Z M14.39,77.05 L14.46,77.05 C14.7875635,77.2413364 14.899234,77.6612175 14.71,77.99 C13.71,79.74 12.71,81.57 11.87,83.42 C11.7115028,83.7582793 11.312575,83.9089854 10.97,83.76 L10.97,83.76 C10.6248532,83.5972649 10.4736318,83.1880776 10.63,82.84 C11.52,80.95 12.49,79.08 13.53,77.3 C13.7153457,77.0217394 14.0735173,76.9163948 14.38,77.05 L14.39,77.05 Z M9.15,88.27 C9.47869494,88.4163511 9.63975656,88.7907105 9.52,89.13 C8.81,91.07 8.2,93 7.69,95 C7.64542778,95.1775008 7.53118952,95.3295423 7.373108,95.4217566 C7.21502647,95.5139708 7.0264482,95.5385723 6.85,95.49 C6.48357982,95.3922352 6.26473873,95.017079 6.36,94.65 C6.88,92.65 7.5,90.65 8.22,88.65 C8.35132331,88.2951887 8.74386934,88.1122979 9.1,88.24 L9.15,88.27 Z"/>
    <path fill="#52D2BC" fill-rule="nonzero" d="M224.16,99.36 L224.29,80.82 C224.295272,80.1286811 224.575655,79.4679269 225.069174,78.9837901 C225.562694,78.4996534 226.228707,78.2320029 226.92,78.24 L241.37,78.34 C242.074428,78.3344722 242.751178,78.613929 243.246466,79.1148667 C243.741754,79.6158044 244.013517,80.2956804 244,81 L243.86,99.54 C243.860201,99.98525 243.594325,100.387532 243.184626,100.561872 C242.774927,100.736212 242.3007,100.648867 241.98,100.34 L234.83,93.65 C234.402802,93.2486823 233.737198,93.2486823 233.31,93.65 L226,100.2 C225.66906,100.477836 225.207811,100.540514 224.814731,100.361065 C224.421651,100.181615 224.166862,99.7920497 224.16,99.36 L224.16,99.36 Z"/>
    <path fill="#F9879A" fill-rule="nonzero" d="M257.49,78.16 L257.57,68.64 C257.56999,68.2855226 257.711486,67.9457076 257.963077,67.6959947 C258.214667,67.4462819 258.555533,67.3073348 258.91,67.31 L266.33,67.37 C266.686231,67.3699597 267.027588,67.5128264 267.277594,67.7665923 C267.527601,68.0203581 267.665357,68.3638096 267.66,68.72 L267.59,78.24 C267.606001,78.4844089 267.464073,78.7117161 267.237449,78.8046319 C267.010825,78.8975477 266.750178,78.8352966 266.59,78.65 L263,75.21 C262.77882,75.009069 262.44118,75.009069 262.22,75.21 L258.5,78.59 C258.334264,78.7745801 258.069488,78.833322 257.841244,78.7361486 C257.612999,78.6389752 257.471823,78.4074022 257.49,78.16 L257.49,78.16 Z"/>
    <path fill="#6535FF" fill-rule="nonzero" d="M116.49,157.94 L113.35,75.48 C113.121975,69.3331783 107.999435,64.509082 101.85,64.65 L42.44,66 C36.8724743,66.1226012 32.2308333,70.2966777 31.52,75.82 L20.28,163.32 L116.49,157.94 Z"/>
    <path fill="#4020C6" fill-rule="nonzero" d="M107.75,150 L104.92,75.8 C104.866128,74.2817433 103.619212,73.0790445 102.1,73.08 L42.62,74.41 C41.2239192,74.4346016 40.0593337,75.4840084 39.89,76.87 L29.94,168.8 L107.75,150 Z" opacity=".54"/>
    <path stroke="#FFF" stroke-linecap="round" stroke-linejoin="round" stroke-width="1.42" d="M34.05,132.65 L29.94,168.8 L107.75,150 L104.92,75.8 C104.866128,74.2817433 103.619212,73.0790445 102.1,73.08"/>
    <path stroke="#6534FF" stroke-linecap="round" stroke-linejoin="round" stroke-width="1.45" d="M228.55,220.35 L249.57,220.35"/>
    <path fill="#BBC4EF" fill-rule="nonzero" d="M0.94,184.65 L0.94,184.65 L5,181 L9.33,181 L5.88,168.05 L3.29,162.88 L80.44,153.75 L108.03,144.35 L133.89,146.5 L128.89,149.73 L158.63,149.73 L162.94,144.56 C162.94,144.56 191.38,151.89 200.43,155.34 C209.48,158.79 217.67,161.8 217.67,161.8 C221.509222,161.58861 225.358471,161.952637 229.09,162.88 C229.09,162.88 253.23,168.48 261.85,172.79 C269.79,176.79 283.23,186.59 285.29,188.11 L285.77,188.11 L283.18,192.2 L280.81,196.08 L281.46,201.47 L282.32,206.64 L282.09,206.74 L282.09,206.86 L274.76,209.86 L245.89,209.86 L245.62,210.26 L245.77,209.86 L245.58,209.86 C241.825086,215.511618 235.49029,218.908311 228.705,218.908311 C221.91971,218.908311 215.584914,215.511618 211.83,209.86 L68.83,209.86 L68.55,210.26 L68.55,210.26 C64.6387968,215.844301 58.1800826,219.085619 51.3652933,218.884177 C44.550504,218.682735 38.2945234,215.065576 34.72,209.26 L11.48,199.08 L3.29,194.77 L3.29,191.32 L0.71,184.86 L0.94,184.65 Z"/>
    <path fill="#6535FF" fill-rule="nonzero" d="M229.13,162.88 C229.13,162.88 253.27,168.48 261.89,172.79 C270.51,177.1 285.59,188.31 285.59,188.31 L280.85,196.06 L282.15,206.84 L274.82,209.84 L36.05,209.84 L11.48,199.08 L3.29,194.77 L3.29,191.32 L0.71,184.86 L5,181 L9.33,181 L5.88,168.05 L3.29,162.88 L80.44,153.75 L108.03,144.35 L133.88,146.5 L128.93,149.73 L158.67,149.73 L162.98,144.56 C162.98,144.56 191.42,151.89 200.47,155.34 C209.52,158.79 217.71,161.8 217.71,161.8 C221.549222,161.58861 225.398471,161.952637 229.13,162.88 L229.13,162.88 Z"/>
    <polygon fill="#4020C6" fill-rule="nonzero" points="238.4 184.64 274.17 188.95 261.51 209.86 237.21 209.64" opacity=".54"/>
    <path stroke="#FFF" stroke-linecap="round" stroke-linejoin="round" stroke-width="1.42" d="M158.67 149.73L162.98 144.56C162.98 144.56 191.42 151.89 200.47 155.34 209.52 158.79 217.71 161.8 217.71 161.8 221.549222 161.58861 225.398471 161.952637 229.13 162.88 229.13 162.88 253.27 168.48 261.89 172.79 270.51 177.1 285.59 188.31 285.59 188.31M5.88 168.05L3.29 162.88"/>
    <path fill="#4020C6" fill-rule="nonzero" d="M212.11,168.7 C212.11,168.7 196.59,160.08 186.68,157.06 C176.77,154.04 158.68,149.73 158.68,149.73 L116.43,149.73 L80.23,159.21 L127.23,161.8 L196.62,171.71 L212.11,168.7 Z" opacity=".54"/>
    <polygon fill="#4020C6" fill-rule="nonzero" points="197.03 202.75 203.06 179.04 197.03 171.71 127.2 161.8 121.58 161.8 116 167.84 120.31 171.71 128.93 196.28 127.2 200.59" opacity=".54"/>
    <polygon fill="#4020C6" fill-rule="nonzero" points="206.94 203.61 226.76 202.75 227.44 209.86 36.05 209.86 11.48 199.08 3.29 194.77 3.29 191.32 .71 184.86 .94 184.65 9.11 186.8 16.44 183.35 32.82 192.4 64.28 181.19 90.57 173.01 106.09 194.99 127.2 200.59 197.03 202.75" opacity=".54"/>
    <polyline stroke="#FFF" stroke-linecap="round" stroke-linejoin="round" stroke-width="1.42" points="36.05 209.86 11.48 199.08 3.29 194.77 3.29 191.32 .71 184.86"/>
    <polyline stroke="#FFF" stroke-linecap="round" stroke-linejoin="round" stroke-width="1.42" points="127.2 200.59 196.59 202.75 206.94 203.61 211.32 203.61"/>
    <polyline stroke="#FFF" stroke-linecap="round" stroke-linejoin="round" stroke-width="1.42" points="94.02 171.71 100.91 170.85 110.4 189.38 127.2 200.59 106.09 194.99"/>
    <polygon fill="#4020C6" fill-rule="nonzero" points="285.81 188.09 274.17 188.95 265.98 202.75 275.04 209.64 282.36 206.62 280.64 196.28" opacity=".54"/>
    <circle cx="228.7" cy="198.65" r="20.26" fill="#FFF" fill-rule="nonzero"/>
    <circle cx="52" cy="198.65" r="20.26" fill="#FFF" fill-rule="nonzero"/>
    <path fill="#6534FF" fill-rule="nonzero" d="M70 202.81C70.0010825 193.967622 64.2647038 186.146983 55.8303475 183.491935 47.3959913 180.836886 38.2141809 183.961433 33.15 191.21 35.9864615 183.920079 42.7679355 178.915755 50.5701148 178.354993 58.3722942 177.79423 65.7997169 181.777325 69.6495296 188.586686 73.4993424 195.396047 73.0829853 203.813784 68.58 210.21 69.5162794 207.855105 69.9981027 205.344195 70 202.81L70 202.81zM247 202.81C246.99347 193.969115 241.254994 186.153313 232.821854 183.499368 224.388713 180.845422 215.20844 183.96623 210.14 191.21 212.964635 183.899658 219.752099 178.874051 227.568518 178.305491 235.384937 177.736932 242.828223 181.727407 246.681023 188.552038 250.533824 195.376669 250.105035 203.811272 245.58 210.21 246.511444 207.853697 246.99309 205.343714 247 202.81L247 202.81z" opacity=".18"/>
    <circle cx="228.7" cy="198.65" r="9.91" fill="#BBC4EF" fill-rule="nonzero"/>
    <circle cx="52" cy="198.65" r="9.91" fill="#BBC4EF" fill-rule="nonzero"/>
    <path stroke="#FFF" stroke-linecap="round" stroke-linejoin="round" stroke-width="1.42" d="M196.81,171.93 L126.99,162.02"/>
    <polyline stroke="#FFF" stroke-linecap="round" stroke-linejoin="round" stroke-width="1.42" points="3.98 185.45 9.33 187.01 16.66 183.57 29.34 190.48"/>
    <polyline stroke="#FFF" stroke-linecap="round" stroke-linejoin="round" stroke-width="1.42" points="285.81 188.09 274.17 188.52 265.98 202.75"/>
    <path stroke="#FFF" stroke-linecap="round" stroke-linejoin="round" stroke-width="1.42" d="M178.71 159.43L173.75 164.39M172.89 156.2L165.78 163.31M183.23 163.09L181.73 164.6M179.79 166.54L179.14 167.19M96.6 160.08L18.59 159.65M203.06 170.85L228.92 162.66M81.17 103.65L53.26 131.56"/>
    <path stroke="#6535FF" stroke-linecap="round" stroke-linejoin="round" stroke-width="1.42" d="M243.53,168.89 L243.53,138.45"/>
    <path fill="#FFF" fill-rule="nonzero" d="M200.77,124 C209.91,128 216.18,127.54 220.34,126.17 C225.34,124.51 228.25,121.24 234.11,121.1 C237.698885,121.091793 241.217169,122.097017 244.26,124 L244.26,147.19 C240.691528,146.394776 237.022144,146.151949 233.38,146.47 C228.03,146.95 224.94,148.47 221.79,149.37 C217.35,150.59 210.56,151.09 200.79,147.19 L200.77,124 Z"/>
    <path stroke="#6535FF" stroke-linecap="round" stroke-linejoin="round" stroke-width="1.42" d="M221.79,149.32 C217.35,150.54 210.56,151.04 200.79,147.14"/>
    <path fill="#2B0FD3" fill-rule="nonzero" d="M221.79,149.32 C217.63,150.46 211.42,150.97 202.61,147.84 C208.42,144.67 216.72,146.03 221.61,141.33 C224.41,138.61 225.31,134.52 227.18,131.09 C229.813161,126.460403 234.211982,123.097235 239.37,121.77 C241.097697,122.288547 242.753852,123.020884 244.3,123.95 L244.3,147.14 C240.731528,146.344776 237.062144,146.101949 233.42,146.42 C228,146.9 224.94,148.45 221.79,149.32 Z" opacity=".46"/>
    <path stroke="#6534FF" stroke-linecap="round" stroke-linejoin="round" stroke-width="1.45" d="M71.98 226.88L93.73 226.88M219.12 226.88L237.25 226.88"/>
    <circle cx="238.21" cy="51.14" r="9.14" fill="#6535FF" fill-rule="nonzero"/>
    <circle cx="206.09" cy="74.22" r="4.57" fill="#6535FF" fill-rule="nonzero"/>
    <circle cx="93.23" cy="258.11" r="13.55" fill="#62BCF9" fill-rule="nonzero"/>
    <path fill="#FFF" fill-rule="nonzero" d="M133.65,41.09 C132.731075,41.0886158 131.842153,40.7627955 131.14,40.17 L118.56,29.6 C117.670994,28.8575129 117.158019,27.7582808 117.16,26.6 L117.16,4.09 C117.156065,3.36690581 117.615264,2.72241587 118.3,2.49 C128.264071,-0.829910282 139.035929,-0.829910282 149,2.49 C149.688688,2.71895198 150.152501,3.36425608 150.15,4.09 L150.15,26.6 C150.151981,27.7582808 149.639006,28.8575129 148.75,29.6 L136.17,40.17 C135.463909,40.7627478 134.571907,41.0883994 133.65,41.09 L133.65,41.09 Z"/>
    <polygon fill="#52D2BC" fill-rule="nonzero" points="136.03 24.41 130.72 21.14 135.95 28.63 141.46 21.34"/>
    <path fill="#6535FF" fill-rule="nonzero" d="M136,28.7 L136,28.7 L136,28.7 L130.77,21.2 C130.759042,21.1770555 130.763736,21.1496953 130.781716,21.1317157 C130.799695,21.1137361 130.827055,21.1090419 130.85,21.12 L136,24.35 L141.4,21.28 C141.424752,21.2657094 141.455248,21.2657094 141.48,21.28 C141.48,21.28 141.48,21.34 141.48,21.36 L136,28.67 C136,28.67 136,28.7 136,28.7 Z M131,21.34 L136,28.53 L141.29,21.53 L136.1,24.47 C136.081436,24.480718 136.058564,24.480718 136.04,24.47 L131,21.34 Z"/>
    <polygon fill="#52D2BC" fill-rule="nonzero" points="130.75 19.76 130.78 19.76 136.05 22.86 141.34 19.95 141.37 19.95 141.35 19.95 141.38 19.93 136.27 10.9 130.75 19.74 130.77 19.75"/>
    <path fill="#6535FF" fill-rule="nonzero" d="M136.05,22.92 L136.05,22.92 L130.78,19.83 C130.750405,19.8304135 130.72493,19.8091842 130.72,19.78 L130.72,19.78 L130.72,19.78 C130.72,19.78 130.72,19.78 130.72,19.78 L136.25,10.94 C136.26547,10.9310684 136.28453,10.9310684 136.3,10.94 L136.3,10.94 C136.3,10.94 136.3,10.94 136.35,10.94 L141.45,19.94 L141.45,19.94 C141.431014,19.9490059 141.408986,19.9490059 141.39,19.94 L141.39,19.94 L136.11,22.84 L136.05,22.92 Z M130.83,19.72 L136.05,22.79 L141.29,19.91 L136.29,11.02 L130.83,19.72 Z"/>
    <path fill="#6535FF" fill-rule="nonzero" d="M150.89,3.41 L150.89,3.41 C140.982526,0.0997230272 130.267474,0.0997230272 120.36,3.41 L120.36,3.41 C119.067256,3.83612786 118.198112,5.04888592 118.21,6.41 L118.21,28.11 C118.210788,29.6729122 118.902654,31.1554819 120.1,32.16 L132.22,42.34 C134.189692,43.9913017 137.060308,43.9913017 139.03,42.34 L151.15,32.16 C152.34051,31.141123 153.018049,29.6468754 153,28.08 L153,6.38 C153.004646,5.04049383 152.156395,3.84651096 150.89,3.41 L150.89,3.41 Z M151.52,28.08 C151.528706,29.2061112 151.033534,30.2771502 150.17,31 L138.05,41.14 C136.650898,42.3261364 134.599102,42.3261364 133.2,41.14 L121.08,31 C120.224558,30.2838668 119.730225,29.2256291 119.73,28.11 L119.73,6.38 C119.733277,5.684625 120.179973,5.06890906 120.84,4.85 C130.436934,1.64993648 140.813066,1.64993648 150.41,4.85 C151.070027,5.06890906 151.516723,5.684625 151.52,6.38 L151.52,28.08 Z"/>
    <path fill="#BBC4EF" fill-rule="nonzero" d="M153,28.08 L153,6.38 C153.011888,5.01888592 152.142744,3.80612786 150.85,3.38 L150.85,3.38 C146.80454,2.03331162 142.597355,1.23290379 138.34,1 C139.699666,2.94622922 140.642699,5.15231228 141.11,7.48 C141.661598,10.2875593 141.959465,13.1390551 142,16 C142.122205,17.5387175 142.058411,19.0865574 141.81,20.61 C141.06,24.27 138.27,27.17 136.93,30.66 C135.903227,33.5457604 135.675193,36.6553238 136.27,39.66 C136.492989,40.8953003 136.796979,42.1145981 137.18,43.31 C137.873885,43.107206 138.519988,42.7671519 139.08,42.31 L151.2,32.13 C152.363856,31.1085273 153.021697,29.6283851 153,28.08 Z" opacity=".44"/>
    <path fill="#070707" fill-rule="nonzero" d="M124.05 25.87L116.05 23.66C115.752958 23.66 115.468081 23.5420003 115.25804 23.3319596 115.048 23.1219189 114.93 22.8370425 114.93 22.54L114.93 18.48C114.935488 17.859827 115.439803 17.3599757 116.06 17.36L124.06 19.57C124.252014 19.5694265 124.425895 19.6833404 124.502058 19.8596044 124.578222 20.0358684 124.542011 20.2405623 124.41 20.38L121.54 21.29C121.369621 21.4770123 121.369621 21.7629877 121.54 21.95L124.39 25.06C124.520813 25.1981144 124.55772 25.4004491 124.484093 25.5758539 124.410466 25.7512587 124.240201 25.8666324 124.05 25.87zM147.14 19.66L155.14 17.52C155.758559 17.52 156.26 18.0214411 156.26 18.64L156.26 22.7C156.26 23.3185589 155.758559 23.82 155.14 23.82L147.14 25.96C146.947986 25.9605735 146.774105 25.8466596 146.697942 25.6703956 146.621778 25.4941316 146.657989 25.2894377 146.79 25.15L149.66 22.06C149.82902 21.8762961 149.82902 21.5937039 149.66 21.41L146.81 20.47C146.688682 20.330547 146.656161 20.1346921 146.7259 19.9635148 146.795639 19.7923375 146.955769 19.6749701 147.14 19.66z" opacity=".18"/>
    <path fill="#FCCDD3" fill-rule="nonzero" d="M124.05 23.7L116.05 23.7C115.752958 23.7 115.468081 23.5820003 115.25804 23.3719596 115.048 23.1619189 114.93 22.8770425 114.93 22.58L114.93 16.35C114.935488 15.729827 115.439803 15.2299757 116.06 15.23L124.06 15.23C124.252014 15.2294265 124.425895 15.3433404 124.502058 15.5196044 124.578222 15.6958684 124.542011 15.9005623 124.41 16.04L121.54 19.13C121.369621 19.3170123 121.369621 19.6029877 121.54 19.79L124.39 22.9C124.514257 23.0386748 124.547104 23.2367003 124.474273 23.4080661 124.401443 23.5794319 124.236077 23.693217 124.05 23.7zM147.14 15.31L155.14 15.31C155.760173 15.3154885 156.260024 15.8198027 156.26 16.44L156.26 22.67C156.26 22.9670425 156.142 23.2519189 155.93196 23.4619596 155.721919 23.6720003 155.437042 23.79 155.14 23.79L147.14 23.79C146.947986 23.7905735 146.774105 23.6766596 146.697942 23.5003956 146.621778 23.3241316 146.657989 23.1194377 146.79 22.98L149.66 19.89C149.830379 19.7029877 149.830379 19.4170123 149.66 19.23L146.81 16.12C146.688682 15.980547 146.656161 15.7846921 146.7259 15.6135148 146.795639 15.4423375 146.955769 15.3249701 147.14 15.31z"/>
    <path fill="#6535FF" fill-rule="nonzero" d="M123.4 24.89L123.4 24.89 115.4 24.89C115.024145 24.8789042 114.666606 24.7251622 114.4 24.46 114.135908 24.1935503 113.985365 23.8351147 113.98 23.46L113.98 17.24C113.977293 17.1534117 114.009808 17.0694255 114.070116 17.0072333 114.130423 16.9450411 114.213369 16.9099577 114.3 16.91L114.3 16.91C114.482254 16.91 114.63 17.057746 114.63 17.24L114.63 23.47C114.633006 23.6810154 114.719269 23.8822956 114.87 24.03 115.016411 24.1826097 115.218516 24.2692259 115.43 24.27L123.43 24.27 123.43 24.27C123.489825 24.2685421 123.543836 24.2338207 123.57 24.18 123.602594 24.1280203 123.602594 24.0619797 123.57 24.01L120.72 20.9C120.628248 20.8164182 120.591152 20.6884234 120.623991 20.5687323 120.65683 20.4490412 120.75405 20.3578978 120.875609 20.332841 120.997167 20.3077842 121.122505 20.3530519 121.2 20.45L124 23.54C124.219972 23.7736646 124.279024 24.1161637 124.15 24.41 124.018255 24.7053894 123.723411 24.8940895 123.4 24.89zM154.44 25L154.44 25 146.44 25C146.120777 24.9942758 145.834696 24.8015644 145.709449 24.5078819 145.584202 24.2141995 145.643157 23.8743405 145.86 23.64L148.73 20.55C148.760135 20.5234234 148.777399 20.4851801 148.777399 20.445 148.777399 20.4048199 148.760135 20.3665766 148.73 20.34L145.88 17.23C145.777003 17.1492467 145.731462 17.0152558 145.76392 16.8884646 145.796377 16.7616734 145.900698 16.6660458 146.029828 16.6447152 146.158958 16.6233847 146.288491 16.6803827 146.36 16.79L149.21 19.9C149.50207 20.2085042 149.50207 20.6914958 149.21 21L146.33 24.09C146.297406 24.1419797 146.297406 24.2080203 146.33 24.26 146.359545 24.3153968 146.417217 24.35 146.48 24.35L154.48 24.35C154.567521 24.35 154.651458 24.3847678 154.713345 24.4466548 154.775232 24.5085418 154.81 24.5924786 154.81 24.68 154.811159 24.7742878 154.770674 24.8642872 154.699353 24.9259704 154.628032 24.9876537 154.533136 25.0147407 154.44 25L154.44 25z"/>
    <path fill="#BBC4EF" fill-rule="nonzero" d="M133.2,39.71 C133.122956,39.7079059 133.048909,39.6796977 132.99,39.63 L122.13,30.51 C122.067676,30.4497118 122.032486,30.366712 122.032486,30.28 C122.032486,30.193288 122.067676,30.1102882 122.13,30.05 C122.260063,29.9305329 122.459937,29.9305329 122.59,30.05 L133.45,39.18 C133.511767,39.2385407 133.546751,39.3198993 133.546751,39.405 C133.546751,39.4901007 133.511767,39.5714593 133.45,39.63 C133.383373,39.6936428 133.291197,39.7231393 133.2,39.71 Z"/>
    <polygon fill="#52D2BC" fill-rule="nonzero" points="183.86 218.18 174.65 218.18 170.05 226.15 174.65 234.13 183.86 234.13 188.46 226.15"/>
    <polygon fill="#FCCDD3" fill-rule="nonzero" points="199.43 233.4 194.82 233.4 192.52 237.39 194.82 241.37 199.43 241.37 201.73 237.39"/>
    <rect width="57.9" height="8.74" x="150.25" y="258.48" fill="#4A23E8" fill-rule="nonzero"/>
    <rect width="39.14" height="8.74" x="150.25" y="275.77" fill="#4A23E8" fill-rule="nonzero"/>
  </g>
</svg>
