<svg xmlns="http://www.w3.org/2000/svg" width="300" height="300"><g fill="none" fill-rule="evenodd" transform="translate(4 8)"><circle cx="142.9" cy="143.38" r="125.36" fill="#F9879A" fill-rule="nonzero"/><path fill="#52D2BC" fill-rule="nonzero" d="M284.64 50.09a18.15 18.15 0 0 1 3.68 7 17.14 17.14 0 0 1 .47 10.64C285.24 79 267.66 84 254.91 81.44c-13-2.58-14.09-11.57-25.81-12.1-11.24-.51-13.39 7.61-25 7.26-8.83-.27-20.18-5.35-25-16.13s-2.78-24.95 2.42-26.62c5.2-1.67 8.7 11.3 21 13.71 11.32 2.23 14.54-7.67 27.42-6.45 13.24 1.25 17.68 12.43 27.43 9.68 3.21-.91 5.22-3.34 8-5 3.4-2.06 7.63-1.79 11.32-.65.45.14.89.3 1.33.47A19 19 0 0 1 284.5 50a.93.93 0 0 1 .14.09Z" opacity=".24"/><path stroke="#FFF" stroke-linecap="round" stroke-linejoin="round" stroke-width="1.42" d="m89.86 127.57-11.59 11.6m-5.8-28.99-1.45 1.45m-3.63 2.9-17.03 17.03"/><path stroke="#6535FF" stroke-linecap="round" stroke-linejoin="round" stroke-width="1.42" d="M220.34 137c5-1.67 7.91-4.93 13.77-5.08a19.06 19.06 0 0 1 10.15 2.9"/><path fill="#3E1EC4" fill-rule="nonzero" d="M290.23 119.17a2.54 2.54 0 0 0-2.54-2.54h-.14.13a2.544 2.544 0 0 0-1.9-4.72 2.55 2.55 0 0 0-.72-4 2.55 2.55 0 0 0-2.92.5l-.08.09a.54.54 0 0 1 .05-.11 2.54 2.54 0 1 0-4.67-2 2.54 2.54 0 0 0-5.08.07v.13-.12a2.55 2.55 0 0 0-4-.94 3 3 0 0 0-.25.25 2.55 2.55 0 0 0-.44 2.58 2.53 2.53 0 0 0-2.55-.57 1.89 1.89 0 0 0-.33.13 2.55 2.55 0 0 0-.66 4.08l.1.09-.23-.09a2.55 2.55 0 0 0-2 4.68 2.54 2.54 0 0 0 .07 5.08h.13-.12a2.54 2.54 0 0 0 1 4.89 2.46 2.46 0 0 0 .91-.18 2.55 2.55 0 0 0 .73 4 1.2 1.2 0 0 0 .33.13 2.55 2.55 0 0 0 2.58-.62l.09-.1-.06.12a2.55 2.55 0 0 0 .69 2.89l-3.09 6.53a.44.44 0 0 0 .52.62l3.34-.93a.45.45 0 0 1 .52.24l1.51 3.27a.45.45 0 0 0 .81 0l2.92-6.15 2.91 6.15a.45.45 0 0 0 .81 0l1.51-3.27a.46.46 0 0 1 .53-.24l3.34.93a.44.44 0 0 0 .52-.62l-3.09-6.51.08-.06c.09-.073.17-.157.24-.25a2.55 2.55 0 0 0 .44-2.58 2.57 2.57 0 0 0 2.56.58 1.83 1.83 0 0 0 .32-.14 2.56 2.56 0 0 0 .67-4.08l-.1-.09.12.06a2.5 2.5 0 0 0 1 .19 2.34 2.34 0 0 0 1-.2 2.54 2.54 0 0 0 1.38-1.37 2.54 2.54 0 0 0-1.33-3.29 2.55 2.55 0 0 0 2.44-2.51Z" opacity=".32"/><path fill="#F9879A" fill-rule="nonzero" d="m285.38 139.48-3.34-.93a.45.45 0 0 0-.53.24l-1.51 3.27a.45.45 0 0 1-.81 0l-4.19-8.81a.44.44 0 0 1 .21-.59l5.91-2.8a.45.45 0 0 1 .6.21l4.16 8.79a.44.44 0 0 1-.5.62Z"/><path fill="#F9879A" fill-rule="nonzero" d="m267.18 139.48 3.34-.93a.44.44 0 0 1 .52.24l1.52 3.27a.44.44 0 0 0 .8 0l4.18-8.81a.45.45 0 0 0-.21-.59l-5.91-2.8a.45.45 0 0 0-.6.21l-4.16 8.79a.44.44 0 0 0 .52.62Z"/><path fill="#6534FF" fill-rule="nonzero" d="m277.33 132.66-1-.47a3.23 3.23 0 0 1-1.07 2.65c-.59.52-1.33.81-1.95 1.3a7.65 7.65 0 0 0-1.37 1.57 4.56 4.56 0 0 0-.56.95 2.55 2.55 0 0 0-.12.6l1.3 2.8a.44.44 0 0 0 .8 0l4.18-8.81a.45.45 0 0 0-.21-.59zm4.41-2.59a.45.45 0 0 0-.47-.25c-.02.3-.02.6 0 .9a19.86 19.86 0 0 1-.18 3.61 4.19 4.19 0 0 0 0 1.69c.31 1.09 1.46 1.65 2.37 2.33a8.2 8.2 0 0 1 .93.84l1 .29a.44.44 0 0 0 .52-.62l-4.17-8.79z" opacity=".32"/><path fill="#6534FF" fill-rule="nonzero" d="M280.09 126.47a3.26 3.26 0 0 0-2.43 1.11 3.16 3.16 0 0 0-1.47-.36 3.12 3.12 0 0 0-1.22.24 3.23 3.23 0 0 0-2.31-1 3.53 3.53 0 0 0 0 7.06 3.22 3.22 0 0 0 1.21-.24 3.21 3.21 0 0 0 4.75-.12c.454.237.958.36 1.47.36a3.53 3.53 0 0 0 0-7.06v.01Z" opacity=".32"/><path fill="#FFF" fill-rule="nonzero" d="M291.61 118.58a2.55 2.55 0 0 0-2.54-2.55h-.14l.13-.05a2.54 2.54 0 0 0-1.9-4.71 2.55 2.55 0 0 0-.72-4 2.55 2.55 0 0 0-2.92.5l-.08.09.05-.12a2.54 2.54 0 1 0-4.67-2 2.54 2.54 0 0 0-5.08.07v.13a.93.93 0 0 0 0-.13 2.55 2.55 0 0 0-4-.93 1.42 1.42 0 0 0-.24.25 2.51 2.51 0 0 0-.44 2.58 2.55 2.55 0 0 0-2.56-.57 2.26 2.26 0 0 0-.33.13 2.55 2.55 0 0 0-.66 4.08l.1.09-.12-.06a2.545 2.545 0 0 0-2 4.68 2.54 2.54 0 0 0 .06 5.08h.13-.12a2.54 2.54 0 0 0-1.37 3.32 2.56 2.56 0 0 0 3.27 1.39 2.55 2.55 0 0 0 .72 4c.106.052.217.095.33.13a2.53 2.53 0 0 0 2.58-.63.76.76 0 0 0 .09-.09.43.43 0 0 0-.05.12 2.54 2.54 0 0 0 .31 2.49 2.55 2.55 0 0 0 4.36-.5 2.54 2.54 0 0 0 5.08-.07.57.57 0 0 0 0-.13s0 .08.05.13a2.55 2.55 0 0 0 2.35 1.56 2.61 2.61 0 0 0 1.68-.63 3 3 0 0 0 .25-.25 2.57 2.57 0 0 0 .43-2.58 2.55 2.55 0 0 0 2.56.57 1.79 1.79 0 0 0 .32-.13 2.55 2.55 0 0 0 .67-4.08l-.1-.09.12.06a2.5 2.5 0 0 0 1 .19 2.6 2.6 0 0 0 1-.2 2.54 2.54 0 0 0 1.37-1.38 2.55 2.55 0 0 0-1.33-3.29 2.54 2.54 0 0 0 2.36-2.47Z"/><path fill="#62BCF9" fill-rule="nonzero" d="M265.52 130h-.08a1.8 1.8 0 0 1-.38-.16 2.84 2.84 0 0 1-1.53-2.06 2.81 2.81 0 0 1 .28-1.78 2.82 2.82 0 0 1-2-5 2.82 2.82 0 0 1-.07-5.41 2.81 2.81 0 0 1 2.12-5 2.78 2.78 0 0 1-.33-1.81 2.87 2.87 0 0 1 1.53-2.1 2.84 2.84 0 0 1 2.57.03 2.8 2.8 0 0 1 .66-2.1c.086-.104.18-.2.28-.29a2.88 2.88 0 0 1 2.53-.61 2.8 2.8 0 0 1 1.54 1 2.82 2.82 0 0 1 5.41-.07 2.84 2.84 0 0 1 3.24-.81 2.82 2.82 0 0 1 1.71 2.87 2.87 2.87 0 0 1 2.63-.08 2.87 2.87 0 0 1 1.53 2.06 2.77 2.77 0 0 1-.29 1.79 2.82 2.82 0 0 1 2 5 2.81 2.81 0 0 1 2.13 2.73.28.28 0 1 1-.56 0 2.26 2.26 0 0 0-2.26-2.26H288a.28.28 0 0 1-.27-.23.29.29 0 0 1 .19-.32h.1a2.264 2.264 0 1 0-1.69-4.2.28.28 0 0 1-.3-.45 2.27 2.27 0 0 0-.65-3.6 1.69 1.69 0 0 0-.28-.12 2.27 2.27 0 0 0-2.31.56l-.05.06a.29.29 0 0 1-.37.06.26.26 0 0 1-.11-.34v-.1a2.262 2.262 0 0 0-4.16-1.78.26.26 0 0 1-.31.16.27.27 0 0 1-.22-.26 2.26 2.26 0 1 0-4.52.06v.12a.26.26 0 0 1-.23.28.28.28 0 0 1-.31-.18.36.36 0 0 0 0-.11 2.27 2.27 0 0 0-3.59-.83c-.07.07-.15.14-.21.21a2.27 2.27 0 0 0-.39 2.31.28.28 0 0 1-.46.3 2.25 2.25 0 0 0-2.28-.51 1.11 1.11 0 0 0-.27.12 2.26 2.26 0 0 0-.6 3.63h.05a.32.32 0 0 1 .07.38.27.27 0 0 1-.34.11h-.11a2.26 2.26 0 0 0-1.77 4.16.27.27 0 0 1 .16.31.28.28 0 0 1-.27.22 2.27 2.27 0 0 0 .06 4.53h.11a.27.27 0 0 1 .3.22.28.28 0 0 1-.18.32h-.11a2.264 2.264 0 1 0 1.69 4.2.27.27 0 0 1 .33.1.29.29 0 0 1 0 .35 2.27 2.27 0 0 0-.59 1.94 2.3 2.3 0 0 0 1.24 1.66c.089.047.183.084.28.11a.28.28 0 0 1-.08.55l-.03.06Z"/><circle cx="276.19" cy="118.67" r="11.89" fill="#BBC4EF" fill-rule="nonzero" opacity=".32"/><path fill="#BBC4EF" fill-rule="nonzero" d="M265.22 115.27h-.09a.28.28 0 0 1-.18-.36 11.63 11.63 0 0 1 17.85-5.83.28.28 0 0 1-.33.45 11.06 11.06 0 0 0-17 5.56.29.29 0 0 1-.25.18Z"/><path fill="#6534FF" fill-rule="nonzero" d="M291.61 118.58a2.55 2.55 0 0 0-2.54-2.55h-.14l.13-.05a2.54 2.54 0 0 0-1.9-4.71 2.55 2.55 0 0 0-.72-4 2.55 2.55 0 0 0-2.92.5l-.08.09.05-.12a2.41 2.41 0 0 0 .16-1.32 5.29 5.29 0 0 0-1.07 1.89 14.67 14.67 0 0 0-.34 2.19 10.05 10.05 0 0 1-1.62 4.21c-1.38 2-3.53 3.61-4.41 5.92-.74 1.91-.48 4-.45 6.08a26.8 26.8 0 0 1-.8 6.85 2.45 2.45 0 0 0 1.32.37 2.54 2.54 0 0 0 2.54-2.54.57.57 0 0 0 0-.13s0 .08.05.13a2.55 2.55 0 0 0 2.35 1.56 2.61 2.61 0 0 0 1.68-.63 3 3 0 0 0 .25-.25 2.57 2.57 0 0 0 .43-2.58 2.55 2.55 0 0 0 2.56.57 1.79 1.79 0 0 0 .32-.13 2.55 2.55 0 0 0 .67-4.08l-.1-.09.12.06a2.5 2.5 0 0 0 1 .19 2.6 2.6 0 0 0 1-.2 2.54 2.54 0 0 0 1.37-1.38 2.55 2.55 0 0 0-1.33-3.29 2.54 2.54 0 0 0 2.42-2.56Z" opacity=".32"/><path fill="#3E1EC4" fill-rule="nonzero" d="M62.58 248.55v-6.54a1.66 1.66 0 0 0-.83-1.46l-5.66-3.29a1.71 1.71 0 0 0-1.68 0l-5.67 3.26a1.67 1.67 0 0 0-.85 1.45v6.54a1.7 1.7 0 0 0 .83 1.46l5.66 3.29a1.71 1.71 0 0 0 1.68 0l5.68-3.26a1.66 1.66 0 0 0 .84-1.45Z" opacity=".32"/><path fill="#52D2BC" fill-rule="nonzero" d="M62.94 247.93v-6.54a1.68 1.68 0 0 0-.83-1.46l-5.66-3.29a1.66 1.66 0 0 0-1.68 0l-5.67 3.25a1.68 1.68 0 0 0-.85 1.45v6.55a1.66 1.66 0 0 0 .83 1.45l5.66 3.3c.52.3 1.16.3 1.68 0l5.68-3.25c.523-.3.844-.857.84-1.46Z"/><path fill="#FFF" fill-rule="nonzero" d="M48.78 249h-.06a1.79 1.79 0 0 1-.89-1.55v-6.55a1.8 1.8 0 0 1 .9-1.55l5.68-3.25a1.78 1.78 0 0 1 1.8 0l5.65 3.29c.555.323.895.918.89 1.56 0 .06-.05.11-.11.11a.11.11 0 0 1-.12-.11 1.55 1.55 0 0 0-.77-1.36l-5.66-3.29a1.55 1.55 0 0 0-1.56 0l-5.68 3.25a1.56 1.56 0 0 0-.79 1.35v6.55c0 .56.298 1.077.78 1.36a.11.11 0 0 1 0 .15.11.11 0 0 1-.06.04Z"/><path fill="#FFF" fill-rule="nonzero" d="m60.05 245.81.69-1.17-.68-1.18v-1.37l-1.17-.68-.68-1.18-1.36-.01-1.18-.68-1.18.68-1.36-.01-.68 1.18-1.18.67-.01 1.37-.68 1.17.67 1.18v1.37l1.17.68.68 1.18 1.36.01 1.18.68 1.18-.68 1.36.01.69-1.18 1.18-.67z"/><path fill="#6535FF" fill-rule="nonzero" d="M54.23 248.9h-1.36a.13.13 0 0 1-.1-.06l-.66-1.16L51 247a.12.12 0 0 1-.06-.1v-1.33l-.66-1.15a.13.13 0 0 1 0-.12l.67-1.15v-1.33a.11.11 0 0 1 .06-.1l1.15-.66.67-1.15a.12.12 0 0 1 .1 0h1.33l1.16-.66a.11.11 0 0 1 .11 0l1.15.67H58a.13.13 0 0 1 .1.06l.66 1.16 1.15.67a.11.11 0 0 1-.08.185.11.11 0 0 1-.08-.035l-1.18-.68-.64-1.13h-1.36l-1.12-.65-1.12.65H53l-.65 1.12-1.13.64v1.3a.08.08 0 0 1 0 .05l-.65 1.12.64 1.13a.08.08 0 0 1 0 .05v1.3l1.12.65.64 1.13h1.29a.12.12 0 0 1 .12.12.11.11 0 0 1-.15.14Z"/><circle cx="55.61" cy="244.4" r="1.91" fill="#FCCDD3" fill-rule="nonzero"/><path fill="#6535FF" fill-rule="nonzero" d="M54.69 246.3a.11.11 0 0 1-.07 0 2 2 0 0 1-.27-2.85 2 2 0 0 1 1.37-.73 2 2 0 0 1 1.48.45.13.13 0 0 1 0 .17.11.11 0 0 1-.16 0 1.8 1.8 0 0 0-1.32-.4 1.77 1.77 0 0 0-1.22.64 1.81 1.81 0 0 0 .25 2.54.11.11 0 0 1 0 .16.1.1 0 0 1-.06.02Z"/><path fill="#6534FF" fill-rule="nonzero" d="m62.13 239.93-5.66-3.29a1.58 1.58 0 0 0-.63-.22 3.4 3.4 0 0 0-.26.8 6.12 6.12 0 0 0 .27 2.81c.304.898.554 1.813.75 2.74a7.09 7.09 0 0 1-.44 3.81c-.65 1.56-1.86 2.87-2.32 4.5a5.73 5.73 0 0 0-.17.92l1.07.63c.52.3 1.16.3 1.68 0l5.68-3.25c.52-.298.84-.851.84-1.45v-6.54a1.68 1.68 0 0 0-.81-1.46Z" opacity=".32"/><path fill="#FFF" fill-rule="nonzero" d="M56.47 252a.12.12 0 0 1-.1-.06.12.12 0 0 1 .05-.16l5.21-3a.13.13 0 0 1 .16 0 .12.12 0 0 1 0 .16l-5.21 3-.11.06Z"/><path fill="#F9879A" fill-rule="nonzero" d="M77.23 45.72a.69.69 0 0 1-.36 1.28 60.9 60.9 0 0 0-6.12-.39.69.69 0 1 1 0-1.38 61 61 0 0 1 6.26.4l.22.09Zm-12.38-.19a.68.68 0 0 1-.23 1.31c-2 .16-4.07.41-6.08.75a.685.685 0 0 1-.23-1.35c2-.35 4.13-.61 6.21-.77a.61.61 0 0 1 .33.06Zm-12.19 2.09a.69.69 0 0 1-.11 1.29 60.75 60.75 0 0 0-5.82 1.88.7.7 0 0 1-.89-.4.68.68 0 0 1 .4-.89 60.85 60.85 0 0 1 6-1.92.66.66 0 0 1 .42.04ZM41.08 52a.63.63 0 0 1 .34.32.7.7 0 0 1-.31.93c-1.82.89-3.62 1.9-5.35 3a.69.69 0 0 1-.95-.22A.68.68 0 0 1 35 55a62.36 62.36 0 0 1 5.47-3 .69.69 0 0 1 .61 0Zm-10.49 6.52a.58.58 0 0 1 .26.21.68.68 0 0 1-.12 1 60.65 60.65 0 0 0-4.66 4 .7.7 0 0 1-1 0 .69.69 0 0 1 0-1c1.52-1.43 3.12-2.79 4.77-4.06a.68.68 0 0 1 .75-.15Zm-9 8.47.17.11a.68.68 0 0 1 .07 1 65.805 65.805 0 0 0-3.8 4.81.69.69 0 0 1-1.12-.8c1.22-1.7 2.52-3.35 3.88-4.91a.68.68 0 0 1 .79-.2l.01-.01Zm-7.2 10.06h.07a.69.69 0 0 1 .25.94c-1 1.75-2 3.58-2.84 5.43a.69.69 0 0 1-.9.34.7.7 0 0 1-.34-.92c.89-1.89 1.86-3.76 2.9-5.54a.69.69 0 0 1 .85-.25h.01ZM9.15 88.27a.69.69 0 0 1 .37.86C8.81 91.07 8.2 93 7.69 95a.68.68 0 0 1-.84.49.69.69 0 0 1-.49-.84c.52-2 1.14-4 1.86-6a.69.69 0 0 1 .88-.41l.05.03Z"/><path fill="#52D2BC" fill-rule="nonzero" d="m224.16 99.36.13-18.54a2.6 2.6 0 0 1 2.63-2.58l14.45.1A2.61 2.61 0 0 1 244 81l-.14 18.54a1.11 1.11 0 0 1-1.88.8l-7.15-6.69a1.11 1.11 0 0 0-1.52 0L226 100.2a1.12 1.12 0 0 1-1.84-.84Z"/><path fill="#F9879A" fill-rule="nonzero" d="m257.49 78.16.08-9.52a1.33 1.33 0 0 1 1.34-1.33l7.42.06a1.33 1.33 0 0 1 1.33 1.35l-.07 9.52a.57.57 0 0 1-1 .41L263 75.21a.58.58 0 0 0-.78 0l-3.72 3.38a.58.58 0 0 1-1.01-.43Z"/><path fill="#6535FF" fill-rule="nonzero" d="m116.49 157.94-3.14-82.46c-.228-6.147-5.35-10.97-11.5-10.83L42.44 66a11.26 11.26 0 0 0-10.92 9.82l-11.24 87.5 96.21-5.38Z"/><path fill="#4020C6" fill-rule="nonzero" d="m107.75 150-2.83-74.2a2.82 2.82 0 0 0-2.82-2.72l-59.48 1.33a2.8 2.8 0 0 0-2.73 2.46l-9.95 91.93 77.81-18.8Z" opacity=".54"/><path stroke="#FFF" stroke-linecap="round" stroke-linejoin="round" stroke-width="1.42" d="m34.05 132.65-4.11 36.15 77.81-18.8-2.83-74.2a2.82 2.82 0 0 0-2.82-2.72"/><path stroke="#6534FF" stroke-linecap="round" stroke-linejoin="round" stroke-width="1.45" d="M228.55 220.35h21.02"/><path fill="#BBC4EF" fill-rule="nonzero" d="M.94 184.65 5 181h4.33l-3.45-12.95-2.59-5.17 77.15-9.13 27.59-9.4 25.86 2.15-5 3.23h29.74l4.31-5.17s28.44 7.33 37.49 10.78c9.05 3.45 17.24 6.46 17.24 6.46a38.56 38.56 0 0 1 11.42 1.08s24.14 5.6 32.76 9.91c7.94 4 21.38 13.8 23.44 15.32h.48l-2.59 4.09-2.37 3.88.65 5.39.86 5.17-.23.1v.12l-7.33 3h-28.87l-.27.4.15-.4h-.19a20.26 20.26 0 0 1-33.75 0h-143l-.28.4a20.25 20.25 0 0 1-33.83-1l-23.24-10.18-8.19-4.31v-3.45l-2.58-6.46.23-.21Z"/><path fill="#6535FF" fill-rule="nonzero" d="M229.13 162.88s24.14 5.6 32.76 9.91c8.62 4.31 23.7 15.52 23.7 15.52l-4.74 7.75 1.3 10.78-7.33 3H36.05l-24.57-10.76-8.19-4.31v-3.45l-2.58-6.46L5 181h4.33l-3.45-12.95-2.59-5.17 77.15-9.13 27.59-9.4 25.85 2.15-4.95 3.23h29.74l4.31-5.17s28.44 7.33 37.49 10.78c9.05 3.45 17.24 6.46 17.24 6.46a38.56 38.56 0 0 1 11.42 1.08Z"/><path fill="#4020C6" fill-rule="nonzero" d="m238.4 184.64 35.77 4.31-12.66 20.91-24.3-.22z" opacity=".54"/><path stroke="#FFF" stroke-linecap="round" stroke-linejoin="round" stroke-width="1.42" d="m158.67 149.73 4.31-5.17s28.44 7.33 37.49 10.78c9.05 3.45 17.24 6.46 17.24 6.46a38.56 38.56 0 0 1 11.42 1.08s24.14 5.6 32.76 9.91c8.62 4.31 23.7 15.52 23.7 15.52M5.88 168.05l-2.59-5.17"/><path fill="#4020C6" fill-rule="nonzero" d="M212.11 168.7s-15.52-8.62-25.43-11.64c-9.91-3.02-28-7.33-28-7.33h-42.25l-36.2 9.48 47 2.59 69.39 9.91 15.49-3.01Z" opacity=".54"/><path fill="#4020C6" fill-rule="nonzero" d="m197.03 202.75 6.03-23.71-6.03-7.33-69.83-9.91h-5.62l-5.58 6.04 4.31 3.87 8.62 24.57-1.73 4.31z" opacity=".54"/><path fill="#4020C6" fill-rule="nonzero" d="m206.94 203.61 19.82-.86.68 7.11H36.05l-24.57-10.78-8.19-4.31v-3.45l-2.58-6.46.23-.21 8.17 2.15 7.33-3.45 16.38 9.05 31.46-11.21 26.29-8.18 15.52 21.98 21.11 5.6 69.83 2.16z" opacity=".54"/><path stroke="#FFF" stroke-linecap="round" stroke-linejoin="round" stroke-width="1.42" d="m36.05 209.86-24.57-10.78-8.19-4.31v-3.45l-2.58-6.46M127.2 200.59l69.39 2.16 10.35.86h4.38M94.02 171.71l6.89-.86 9.49 18.53 16.8 11.21-21.11-5.6"/><path fill="#4020C6" fill-rule="nonzero" d="m285.81 188.09-11.64.86-8.19 13.8 9.06 6.89 7.32-3.02-1.72-10.34z" opacity=".54"/><circle cx="228.7" cy="198.65" r="20.26" fill="#FFF" fill-rule="nonzero"/><circle cx="52" cy="198.65" r="20.26" fill="#FFF" fill-rule="nonzero"/><path fill="#6534FF" fill-rule="nonzero" d="M70 202.81a20.25 20.25 0 0 0-36.85-11.6 20.25 20.25 0 1 1 35.43 19 20.07 20.07 0 0 0 1.42-7.4zm177 0a20.26 20.26 0 0 0-36.86-11.6 20.26 20.26 0 1 1 35.44 19 20.28 20.28 0 0 0 1.42-7.4z" opacity=".18"/><circle cx="228.7" cy="198.65" r="9.91" fill="#BBC4EF" fill-rule="nonzero"/><circle cx="52" cy="198.65" r="9.91" fill="#BBC4EF" fill-rule="nonzero"/><path stroke="#FFF" stroke-linecap="round" stroke-linejoin="round" stroke-width="1.42" d="m196.81 171.93-69.82-9.91M3.98 185.45l5.35 1.56 7.33-3.44 12.68 6.91M285.81 188.09l-11.64.43-8.19 14.23M178.71 159.43l-4.96 4.96m-.86-8.19-7.11 7.11m17.45-.22-1.5 1.51m-1.94 1.94-.65.65m-82.54-7.11-78.01-.43m184.47 11.2 25.86-8.19M81.17 103.65l-27.91 27.91"/><path stroke="#6535FF" stroke-linecap="round" stroke-linejoin="round" stroke-width="1.42" d="M243.53 168.89v-30.44"/><path fill="#FFF" fill-rule="nonzero" d="M200.77 124c9.14 4 15.41 3.54 19.57 2.17 5-1.66 7.91-4.93 13.77-5.07a19.06 19.06 0 0 1 10.15 2.9v23.19a35.73 35.73 0 0 0-10.88-.72c-5.35.48-8.44 2-11.59 2.9-4.44 1.22-11.23 1.72-21-2.18l-.02-23.19Z"/><path stroke="#6535FF" stroke-linecap="round" stroke-linejoin="round" stroke-width="1.42" d="M221.79 149.32c-4.44 1.22-11.23 1.72-21-2.18"/><path fill="#2B0FD3" fill-rule="nonzero" d="M221.79 149.32c-4.16 1.14-10.37 1.65-19.18-1.48 5.81-3.17 14.11-1.81 19-6.51 2.8-2.72 3.7-6.81 5.57-10.24a19.66 19.66 0 0 1 12.19-9.32 21.66 21.66 0 0 1 4.93 2.18v23.19a35.73 35.73 0 0 0-10.88-.72c-5.42.48-8.48 2.03-11.63 2.9Z" opacity=".46"/><path stroke="#6534FF" stroke-linecap="round" stroke-linejoin="round" stroke-width="1.45" d="M71.98 226.88h21.75m125.39 0h18.13"/><circle cx="238.21" cy="51.14" r="9.14" fill="#6535FF" fill-rule="nonzero"/><circle cx="206.09" cy="74.22" r="4.57" fill="#6535FF" fill-rule="nonzero"/><circle cx="93.23" cy="258.11" r="13.55" fill="#62BCF9" fill-rule="nonzero"/><path fill="#FFF" fill-rule="nonzero" d="M133.65 41.09a3.9 3.9 0 0 1-2.51-.92L118.56 29.6a3.9 3.9 0 0 1-1.4-3V4.09a1.68 1.68 0 0 1 1.14-1.6 48.56 48.56 0 0 1 30.7 0 1.68 1.68 0 0 1 1.15 1.6V26.6a3.9 3.9 0 0 1-1.4 3l-12.58 10.57a3.93 3.93 0 0 1-2.52.92Z"/><path fill="#52D2BC" fill-rule="nonzero" d="m136.03 24.41-5.31-3.27 5.23 7.49 5.51-7.29z"/><path fill="#6535FF" fill-rule="nonzero" d="m136 28.7-5.23-7.5a.06.06 0 0 1 .08-.08l5.15 3.23 5.4-3.07a.08.08 0 0 1 .08 0v.08L136 28.67v.03Zm-5-7.36 5 7.19 5.29-7-5.19 2.94a.06.06 0 0 1-.06 0L131 21.34Z"/><path fill="#52D2BC" fill-rule="nonzero" d="M130.75 19.76h.03l5.27 3.1 5.29-2.91h.03-.02l.03-.02-5.11-9.03-5.52 8.84.02.01z"/><path fill="#6535FF" fill-rule="nonzero" d="m136.05 22.92-5.27-3.09a.06.06 0 0 1-.06-.05l5.53-8.84a.05.05 0 0 1 .05 0h.05l5.1 9a.07.07 0 0 1-.06 0l-5.28 2.9-.06.08Zm-5.22-3.2 5.22 3.07 5.24-2.88-5-8.89-5.46 8.7Z"/><path fill="#6535FF" fill-rule="nonzero" d="M150.89 3.41a48.17 48.17 0 0 0-30.53 0 3.13 3.13 0 0 0-2.15 3v21.7a5.29 5.29 0 0 0 1.89 4.05l12.12 10.18a5.3 5.3 0 0 0 6.81 0l12.12-10.18a5.29 5.29 0 0 0 1.85-4.08V6.38a3.13 3.13 0 0 0-2.11-2.97Zm.63 24.67a3.77 3.77 0 0 1-1.35 2.92l-12.12 10.14a3.75 3.75 0 0 1-4.85 0L121.08 31a3.77 3.77 0 0 1-1.35-2.89V6.38a1.62 1.62 0 0 1 1.11-1.53 46.74 46.74 0 0 1 29.57 0 1.62 1.62 0 0 1 1.11 1.53v21.7Z"/><path fill="#BBC4EF" fill-rule="nonzero" d="M153 28.08V6.38a3.13 3.13 0 0 0-2.15-3A47.89 47.89 0 0 0 138.34 1a17.24 17.24 0 0 1 2.77 6.48A47.7 47.7 0 0 1 142 16a19.2 19.2 0 0 1-.19 4.61c-.75 3.66-3.54 6.56-4.88 10.05a17 17 0 0 0-.66 9 28.63 28.63 0 0 0 .91 3.65 5.4 5.4 0 0 0 1.9-1l12.12-10.18a5.29 5.29 0 0 0 1.8-4.05Z" opacity=".44"/><path fill="#070707" fill-rule="nonzero" d="m124.05 25.87-8-2.21a1.12 1.12 0 0 1-1.12-1.12v-4.06a1.13 1.13 0 0 1 1.13-1.12l8 2.21a.48.48 0 0 1 .35.81l-2.87.91a.49.49 0 0 0 0 .66l2.85 3.11a.48.48 0 0 1-.34.81zm23.09-6.21 8-2.14c.619 0 1.12.501 1.12 1.12v4.06a1.12 1.12 0 0 1-1.12 1.12l-8 2.14a.48.48 0 0 1-.35-.81l2.87-3.09a.48.48 0 0 0 0-.65l-2.85-.94a.49.49 0 0 1 .33-.81z" opacity=".18"/><path fill="#FCCDD3" fill-rule="nonzero" d="M124.05 23.7h-8a1.12 1.12 0 0 1-1.12-1.12v-6.23a1.13 1.13 0 0 1 1.13-1.12h8a.48.48 0 0 1 .35.81l-2.87 3.09a.49.49 0 0 0 0 .66l2.85 3.11a.48.48 0 0 1-.34.8zm23.09-8.39h8c.62.005 1.12.51 1.12 1.13v6.23a1.12 1.12 0 0 1-1.12 1.12h-8a.48.48 0 0 1-.35-.81l2.87-3.09a.49.49 0 0 0 0-.66l-2.85-3.11a.49.49 0 0 1 .33-.81z"/><path fill="#6535FF" fill-rule="nonzero" d="M123.4 24.89h-8a1.45 1.45 0 0 1-1.42-1.43v-6.22a.32.32 0 0 1 .32-.33.33.33 0 0 1 .33.33v6.23a.8.8 0 0 0 .24.56.78.78 0 0 0 .56.24h8a.16.16 0 0 0 .14-.09.16.16 0 0 0 0-.17l-2.85-3.11a.33.33 0 1 1 .48-.45l2.8 3.09a.8.8 0 0 1-.6 1.35zm31.04.11h-8a.81.81 0 0 1-.58-1.36l2.87-3.09a.14.14 0 0 0 0-.21l-2.85-3.11a.33.33 0 1 1 .48-.44l2.85 3.11a.8.8 0 0 1 0 1.1l-2.88 3.09a.16.16 0 0 0 0 .17.17.17 0 0 0 .15.09h8a.33.33 0 0 1 .22.576.32.32 0 0 1-.26.074z"/><path fill="#BBC4EF" fill-rule="nonzero" d="M133.2 39.71a.34.34 0 0 1-.21-.08l-10.86-9.12a.32.32 0 0 1 0-.46.34.34 0 0 1 .46 0l10.86 9.13a.31.31 0 0 1 0 .45.3.3 0 0 1-.25.08Z"/><path fill="#52D2BC" fill-rule="nonzero" d="M183.86 218.18h-9.21l-4.6 7.97 4.6 7.98h9.21l4.6-7.98z"/><path fill="#FCCDD3" fill-rule="nonzero" d="M199.43 233.4h-4.61l-2.3 3.99 2.3 3.98h4.61l2.3-3.98z"/><path fill="#4A23E8" fill-rule="nonzero" d="M150.25 258.48h57.9v8.74h-57.9zM150.25 275.77h39.14v8.74h-39.14z"/></g></svg>