<svg xmlns="http://www.w3.org/2000/svg" width="300" height="300" viewBox="0 0 300 300">
  <g fill="none" fill-rule="evenodd" transform="translate(1 17)">
    <circle cx="141.64" cy="129.12" r="125.36" fill="#52D2BC" fill-rule="nonzero"/>
    <path fill="#4A23E8" fill-rule="nonzero" d="M96.94,175.79 C96.94,175.79 126.65,170 140.43,170 C154.21,170 180.29,175.79 180.29,175.79 L177.39,211.31 L102.73,225.81 L96.94,178"/>
    <path fill="#2B0FD3" fill-rule="nonzero" d="M96.94,175.79 C96.94,175.79 126.65,170 140.43,170 C154.21,170 180.29,175.79 180.29,175.79 L177.39,211.31 L102.73,225.81 L96.94,178" opacity=".46"/>
    <path fill="#6535FF" fill-rule="nonzero" d="M151.28,46.13 C156.62,48.49 165.4,47.22 171.28,48.75 C176.93,50.22 183.63,52.64 186.59,58.1 C193.17,70.26 207.86,81.91 202.8,95.59 C197.74,109.27 196.21,111.81 196.21,117.38 C196.21,122.95 200.77,139.17 192.16,144.74 C183.55,150.31 180,150.82 176,154.87 C172,158.92 163.33,159.43 161.3,158.87 C159.27,158.31 107.06,155.87 106.59,155.87 C88.44,154.99 70.59,138.26 64.51,122.11 C63.8687692,120.690972 63.6002977,119.131772 63.73,117.58 C64.21,114.58 67.21,112.72 69.5,110.68 C74.07,106.58 76.34,100.58 78.5,94.82 C79.0115411,93.6108714 79.2799808,92.3128465 79.29,91 C79.07,86.15 72.29,83.51 72.29,78.66 C72.29,73.81 78.41,72 80.79,67.94 C83.33,63.63 81.11,58.19 81.28,53.19 C81.47,47.19 85.38,42.33 90.35,39.35 C97.24,35.22 105.19,32.57 113.29,33.06 C120.38,33.48 125.91,38.99 132.88,39.13 C135.15,39.13 137.41,38.51 139.66,38.76 C143.27,39.16 146.17,41.76 148.81,44.29 C149.471799,44.9803678 150.241943,45.5579756 151.09,46 L151.28,46.13 Z"/>
    <polygon fill="#FFF" fill-rule="nonzero" points="167.96 148.12 168.96 192.32 164.35 227.57 110.36 211.02 110.18 144.51"/>
    <polygon fill="#F9879A" fill-rule="nonzero" points="100.39 242.19 111.92 184.23 166.44 184.23 180.18 238.45"/>
    <path fill="#4A23E8" fill-rule="nonzero" d="M180.6,186 C180.6,186 164.32,216 139,216 C113.68,216 91.82,191 91.82,191 C74.878015,194.435582 58.2229731,199.159303 42,205.13 C64.093468,234.112377 97.7078569,252.0429 134.084102,254.249325 C170.460347,256.45575 205.995503,242.719538 231.43,216.62 C206.36,201.3 180.6,186 180.6,186 Z"/>
    <path fill="#F9879A" fill-rule="nonzero" d="M114.18,193.57 C114.18,193.57 109.75,205.29 111.93,209.4 C114.11,213.51 125.33,216.01 127.82,218.5 C130.31,220.99 141.53,223.5 142.82,222.24 C144.11,220.98 151.55,219.75 152.82,217.24 C154.09,214.73 162.68,207 162.68,207 L160,195.37 L114.18,193.57 Z"/>
    <path fill="#2B0FD3" fill-rule="nonzero" d="M111.93,209.4 C113.6,212.57 120.63,214.77 124.93,216.76 C124.840195,215.464434 124.653,214.177465 124.37,212.91 C123.53,209.16 122.14,205.5 121.99,201.67 C121.89,199.11 122.28,196.36 121.99,193.87 L114.22,193.57 C114.22,193.57 109.75,205.29 111.93,209.4 Z" opacity=".46"/>
    <rect width="36.97" height="8.93" x="120.13" y="201.89" fill="#FCCDD3" fill-rule="nonzero"/>
    <rect width="23.92" height="18.12" x="126.65" y="195.37" fill="#2B0FD3" fill-rule="nonzero" opacity=".46"/>
    <path fill="#2B0FD3" fill-rule="nonzero" d="M110.18,144.51 L168,148.12 L167.76,163.65 C159.84,176.21 149.58,180.65 135.5,180.65 C123.83,180.65 118.2,176.49 110.4,167.42 L110.18,144.51 Z" opacity=".46"/>
    <polygon fill="#FCCDD3" fill-rule="nonzero" points="102.88 189.53 107.87 166.14 129.3 183.65 130.31 200.44"/>
    <path fill="#2B0FD3" fill-rule="nonzero" d="M120.5,190 C118.93,187.88 116.18,186.91 114.5,184.84 C112.05,181.75 110.67,172.84 106.2,173.72 L102.83,189.53 L122.02,197.16 C122.14,194.56 122,192 120.5,190 Z" opacity=".46"/>
    <polygon fill="#FCCDD3" fill-rule="nonzero" points="175.2 189.53 170.21 166.14 148.78 183.65 147.77 200.44"/>
    <ellipse cx="174.93" cy="108.4" fill="#FFF" fill-rule="nonzero" rx="10.83" ry="14.44"/>
    <path fill="#FFF" fill-rule="nonzero" d="M97.11,121.2 C101.11,149.75 111.56,173.4 135.54,173.4 C159.52,173.4 175.22,150.03 175.22,121.2 C175.22,58.2 159.52,61.59 135.54,61.76 C104.15,62 86.06,43.15 97.11,121.2 Z"/>
    <path fill="#2B0FD3" fill-rule="nonzero" d="M120.24,158.23 C114.71,149.96 106.3,143.59 102.4,134.44 C99.4,127.44 99.4,119.56 101.13,112.2 C102.41,106.71 104.62,101.36 104.7,95.72 C104.79,89.81 97.48,79.65 94.76,74.32 C92.76,82.18 94.04,98.24 97.11,121.04 C100.49,146.04 108.11,167.29 126.74,172.27 C125.249731,167.305578 123.061162,162.578268 120.24,158.23 L120.24,158.23 Z" opacity=".46"/>
    <path fill="#6535FF" fill-rule="nonzero" d="M84.51,52.7 C84.78,53.1 110.75,44.53 112.84,43.83 C118.376911,41.8367964 124.197241,40.7429526 130.08,40.59 C136.108359,40.6580427 142.059555,41.9544438 147.57,44.4 C151.021409,45.9475433 154.33932,47.7770766 157.49,49.87 C159.33,51.05 161.49,51.79 160.49,53.25 C159.42,54.92 155.71,56.71 153.62,57.91 C143.235582,63.6864282 131.499993,66.5927125 119.62,66.33 C93.57,65.8 84.53,52.74 84.51,52.7 Z"/>
    <path fill="#2B0FD3" fill-rule="nonzero" d="M149.45,57.17 C146.25,57.07 143.06,57.61 139.86,57.46 C134.54,57.21 129.68,55.05 124.36,55.32 C121.853297,55.5450506 119.382456,56.0687615 117,56.88 C110,59 102.51,61 94.82,60.71 C100.37,63.55 108.44,66.1 119.68,66.33 C131.505051,66.5995959 143.189703,63.7250196 153.54,58 C152.24162,57.4665243 150.853626,57.1848531 149.45,57.17 L149.45,57.17 Z" opacity=".46"/>
    <polygon fill="#4A23E8" fill-rule="nonzero" points="79.41 218.96 96.65 175.88 115.35 194.58 107.87 234.51"/>
    <path fill="#4A23E8" fill-rule="nonzero" d="M180.6,186 C180.6,186 164.32,216 139,216 C113.68,216 91.82,191 91.82,191 C74.878015,194.435582 58.2229731,199.159303 42,205.13 C64.093468,234.112377 97.7078569,252.0429 134.084102,254.249325 C170.460347,256.45575 205.995503,242.719538 231.43,216.62 C206.36,201.3 180.6,186 180.6,186 Z"/>
    <polygon fill="#4A23E8" fill-rule="nonzero" points="79.41 218.96 96.65 175.88 115.35 194.58 107.87 234.51"/>
    <path fill="#2B0FD3" fill-rule="nonzero" d="M96.07,240.42 C94.78,236.14 96.28,231.42 98.64,227.66 C101,223.9 104.18,220.66 106.72,216.94 C108,215.08 109.15,212.94 108.79,210.67 C108.43,208.4 106.66,206.75 105.26,204.97 C103.86,203.19 102.78,200.68 103.92,198.72 C104.28,198.11 104.83,197.61 105.13,196.97 C106.13,194.76 103.82,192.61 102.71,190.46 C101.85,188.8 101.71,186.88 101.32,185.05 C100.581169,181.652147 98.9640283,178.507515 96.63,175.93 L90.48,191.3 C73.9996315,194.702346 57.7949816,199.325083 42,205.13 C56.8577585,224.601716 77.0841051,239.304834 100.19,247.43 C98.54,245.21 96.84,243 96.07,240.42 Z" opacity=".46"/>
    <polygon fill="#4A23E8" fill-rule="nonzero" points="157.74 192.09 163.14 246.75 195.14 227.04 180.18 175.88"/>
    <path fill="#6535FF" fill-rule="nonzero" d="M170.54,78.1 C170.498828,79.987067 170.649603,81.8734314 170.99,83.73 C172.978129,90.1685568 175.445009,96.4494069 178.37,102.52 C180.02,105.77 180.32,109.61 182.24,112.71 C184.492654,116.294856 188.549229,118.332775 192.77,118 C193.97,114.25 192.94,110.16 191.52,106.49 C190.1,102.82 188.3,99.21 187.9,95.3 C187.5,91.39 188.45,80.3 186.83,76.82 C185.21,73.34 181.7,71.62 178.37,70 C176.37,69 170.32,64.59 168.52,67.33 C167.71,68.53 170.46,76.14 170.54,78.1 Z"/>
    <polyline stroke="#6534FF" stroke-linecap="round" stroke-linejoin="round" stroke-width="1.45" points="120.05 176.09 129.55 183.04 130.28 200.44"/>
    <path fill="#6535FF" fill-rule="nonzero" d="M120.58,142.1 L120.12,140.38 C119.983778,139.875828 120.056583,139.338028 120.32195,138.888222 C120.587317,138.438415 121.022831,138.114598 121.53,137.99 C128.410833,136.392002 135.519048,136.016282 142.53,136.88 C143.049169,136.951246 143.517433,137.229493 143.828226,137.651418 C144.139019,138.073343 144.265902,138.603054 144.18,139.12 L143.9,140.87 C143.735561,141.913447 142.766524,142.633557 141.72,142.49 C138.611999,142.110352 135.477008,141.999942 132.35,142.16 C129.181309,142.329595 126.033056,142.77122 122.94,143.48 C121.912652,143.713375 120.880418,143.109781 120.58,142.1 Z"/>
    <path fill="#6535FF" fill-rule="nonzero" d="M126.57,140 L129.43,135.89 C129.994517,135.324775 130.761154,135.008043 131.56,135.01 L131.56,135.01 C132.358846,135.008043 133.125483,135.324775 133.69,135.89 L136.55,140 L126.57,140 Z"/>
    <path stroke="#3817C6" stroke-linecap="round" stroke-width="2.49" d="M130.31,147.44 L131.56,147.44"/>
    <path stroke="#3817C6" stroke-linecap="round" stroke-width="2.49" d="M136.75 119.13C138.360655 125.626317 143.170256 130.854308 149.51 133M123.94 122.1C123.278044 123.855456 122.256155 125.453009 120.94 126.79 118.452393 129.18972 115.18174 130.610199 111.73 130.79" opacity=".1"/>
    <path stroke="#3817C6" stroke-linecap="round" stroke-width="3.62" d="M98 105.85C99.0948563 104.946858 100.318322 104.212104 101.63 103.67 102.518766 103.305464 103.444054 103.037265 104.39 102.87 106.98 102.38 112.91 101.21 120.84 99.69M165.07 105.85C163.97899 104.946606 162.758777 104.211782 161.45 103.67 160.560784 103.306755 159.635636 103.038596 158.69 102.87 156.1 102.38 150.17 101.21 142.24 99.69"/>
    <path fill="#3E1EC4" fill-rule="nonzero" d="M54.35,171.73 L54.35,161.8 C54.3536888,160.888869 53.8690731,160.045562 53.08,159.59 L44.47,154.59 C43.679404,154.140585 42.710596,154.140585 41.92,154.59 L33.32,159.59 C32.5131739,160.034223 32.0085972,160.879007 32,161.8 L32,171.73 C32.0025049,172.642089 32.4901027,173.483957 33.28,173.94 L41.88,178.94 C42.670596,179.389415 43.639404,179.389415 44.43,178.94 L53.04,173.94 C53.8429667,173.493179 54.3434264,172.648892 54.35,171.73 Z" opacity=".32"/>
    <path fill="#F9879A" fill-rule="nonzero" d="M54.89,170.78 L54.89,160.85 C54.8936888,159.938869 54.4090731,159.095562 53.62,158.64 L45.02,153.64 C44.229404,153.190585 43.260596,153.190585 42.47,153.64 L33.86,158.64 C33.0709269,159.095562 32.5863112,159.938869 32.59,160.85 L32.59,170.78 C32.5827078,171.694697 33.0678072,172.542666 33.86,173 L42.47,178 C43.2554519,178.441875 44.2145481,178.441875 45,178 L53.6,173 C54.3998975,172.547808 54.8932053,171.69886 54.89,170.78 L54.89,170.78 Z"/>
    <path fill="#FFF" fill-rule="nonzero" d="M33.4,172.47 C33.370618,172.478611 33.339382,172.478611 33.31,172.47 C32.4785023,171.96863 31.978774,171.060726 32,170.09 L32,160.15 C32.0004831,159.177213 32.5185725,158.278175 33.36,157.79 L41.96,152.79 C42.8068181,152.310436 43.8431819,152.310436 44.69,152.79 L53.29,157.79 C54.1314275,158.278175 54.6495169,159.177213 54.65,160.15 C54.65,160.243888 54.5738884,160.32 54.48,160.32 C54.3861116,160.32 54.31,160.243888 54.31,160.15 C54.3055173,159.301214 53.853034,158.517924 53.12,158.09 L44.51,153.09 C43.7784166,152.660353 42.8715834,152.660353 42.14,153.09 L33.53,158.09 C32.799325,158.51896 32.3503786,159.302714 32.35,160.15 L32.35,170.09 C32.3674106,170.916894 32.814634,171.6749 33.53,172.09 C33.572534,172.111121 33.6042944,172.149071 33.6175915,172.194661 C33.6308886,172.240251 33.6245099,172.289324 33.6,172.33 C33.5956674,172.376823 33.5709572,172.419369 33.5324346,172.446335 C33.493912,172.473301 33.4454776,172.481956 33.4,172.47 L33.4,172.47 Z"/>
    <polygon fill="#FFF" fill-rule="nonzero" points="50.5 167.59 51.53 165.8 50.5 164.01 50.5 161.94 48.71 160.91 47.67 159.12 45.61 159.12 43.82 158.08 42.03 159.12 39.96 159.12 38.93 160.91 37.14 161.94 37.14 164.01 36.1 165.8 37.14 167.59 37.14 169.66 38.93 170.69 39.96 172.48 42.03 172.48 43.82 173.51 45.61 172.48 47.67 172.48 48.71 170.69 50.5 169.66"/>
    <path fill="#6535FF" fill-rule="nonzero" d="M41.68,172.3 L39.61,172.3 C39.5497638,172.300112 39.4934645,172.270085 39.46,172.22 L38.46,170.47 L36.71,169.47 C36.6599147,169.436536 36.6298884,169.380236 36.63,169.32 L36.63,167.32 L35.63,165.57 C35.599776,165.513806 35.599776,165.446194 35.63,165.39 L36.63,163.64 L36.63,161.64 C36.6298884,161.579764 36.6599147,161.523464 36.71,161.49 L38.46,160.49 L39.46,158.74 C39.4934645,158.689915 39.5497638,158.659888 39.61,158.66 L41.61,158.66 L43.36,157.66 C43.4161938,157.629776 43.4838062,157.629776 43.54,157.66 L45.29,158.66 L47.29,158.66 C47.3502362,158.659888 47.4065355,158.689915 47.44,158.74 L48.44,160.49 L50.19,161.49 C50.2705156,161.541405 50.2968526,161.646753 50.25,161.73 C50.198595,161.810516 50.0932471,161.836853 50.01,161.79 L48.22,160.79 L48.16,160.73 L47.16,159.02 L45.16,159.02 C45.1307072,159.029212 45.0992928,159.029212 45.07,159.02 L43.37,158.02 L41.67,159.02 C41.6407072,159.029212 41.6092928,159.029212 41.58,159.02 L39.58,159.02 L38.58,160.73 L38.52,160.79 L36.81,161.79 L36.81,163.79 C36.8192122,163.819293 36.8192122,163.850707 36.81,163.88 L35.81,165.58 L36.81,167.28 C36.8192122,167.309293 36.8192122,167.340707 36.81,167.37 L36.81,169.37 L38.52,170.37 L38.58,170.43 L39.58,172.14 L41.58,172.14 C41.6738884,172.14 41.75,172.216112 41.75,172.31 C41.75,172.403888 41.6738884,172.48 41.58,172.48 L41.68,172.3 Z"/>
    <circle cx="43.74" cy="165.47" r="2.9" fill="#62BCF9" fill-rule="nonzero"/>
    <path fill="#6535FF" fill-rule="nonzero" d="M42.36,168.35 C42.3241354,168.360846 42.2858646,168.360846 42.25,168.35 C41.3997079,167.651546 40.9866265,166.552522 41.1663595,165.46692 C41.3460926,164.381319 42.0913344,163.474068 43.1213595,163.08692 C44.1513847,162.699773 45.3097079,162.891546 46.16,163.59 C46.2273089,163.659742 46.2273089,163.770258 46.16,163.84 C46.0936588,163.906112 45.9863412,163.906112 45.92,163.84 C45.2044737,163.039005 44.0857727,162.731988 43.0616233,163.055543 C42.0374739,163.379099 41.2982055,164.273098 41.1727294,165.339787 C41.0472532,166.406476 41.558888,167.447621 42.48,168 C42.5425455,168.071598 42.5425455,168.178402 42.48,168.25 C42.457301,168.299857 42.413133,168.336664 42.36,168.35 Z"/>
    <path fill="#6534FF" fill-rule="nonzero" d="M53.62,158.64 L45.02,153.64 C44.71201,153.466179 44.3716848,153.357275 44.02,153.32 C43.8333949,153.702845 43.7020849,154.110243 43.63,154.53 C43.4313118,155.96582 43.5717296,157.42822 44.04,158.8 C44.5254492,160.174163 44.9262008,161.576794 45.24,163 C45.5675888,164.949556 45.342412,166.951897 44.59,168.78 C43.59,171.15 41.78,173.15 41.09,175.63 C40.9671944,176.08875 40.8835607,176.557099 40.84,177.03 L42.47,177.97 C43.2502026,178.421224 44.2093173,178.432597 45,178 L53.6,173 C54.3890731,172.544438 54.8736888,171.701131 54.87,170.79 L54.87,160.86 C54.8814177,159.949428 54.4044991,159.102421 53.62,158.64 L53.62,158.64 Z" opacity=".32"/>
    <path fill="#FFF" fill-rule="nonzero" d="M45.1 177C45.0365747 177.002408 44.9777229 176.967096 44.95 176.91 44.9250869 176.872145 44.9173948 176.825502 44.9288338 176.781652 44.9402728 176.737803 44.9697699 176.700861 45.01 176.68L52.91 172.03C52.9928427 171.980294 53.1002944 172.007157 53.15 172.09 53.1997056 172.172843 53.1728427 172.280294 53.09 172.33L45.18 177 45.1 177zM252.82 96.66C252.20925 96.6575311 251.618552 96.4417671 251.15 96.05L242.8 89.05C242.208573 88.5543698 241.867854 87.8216415 241.87 87.05L241.87 72.11C241.871684 71.6277386 242.181888 71.2007047 242.64 71.05 249.251801 68.8500278 256.398199 68.8500278 263.01 71.05 263.464162 71.2041612 263.769758 71.6303871 263.77 72.11L263.77 87.05C263.772146 87.8216415 263.431427 88.5543698 262.84 89.05L254.49 96.05C254.02231 96.4432579 253.431053 96.6592262 252.82 96.66L252.82 96.66z"/>
    <polygon fill="#52D2BC" fill-rule="nonzero" points="254.4 85.6 250.87 83.42 254.34 88.4 258 83.55"/>
    <path fill="#6535FF" fill-rule="nonzero" d="M254.34,88.44 L254.34,88.44 L254.34,88.44 L250.87,83.44 L254.37,85.6 L257.95,83.6 C257.95,83.6 257.95,83.6 257.95,83.6 L254.29,88.44 C254.29,88.44 254.36,88.44 254.34,88.44 Z M251,83.56 L254.32,88.33 L257.83,83.68 L254.39,85.63 C254.39,85.63 254.39,85.63 254.39,85.63 L251,83.56 Z"/>
    <polygon fill="#52D2BC" fill-rule="nonzero" points="250.9 82.51 250.91 82.51 254.41 84.56 257.92 82.64 257.94 82.64 257.93 82.63 257.95 82.62 254.56 76.63 250.89 82.49 250.91 82.5"/>
    <path fill="#6535FF" fill-rule="nonzero" d="M254.41,84.6 L254.41,84.6 L250.92,82.6 L250.92,82.6 L254.59,76.74 C254.59,76.74 254.59,76.74 254.59,76.74 L254.59,76.74 C254.59,76.74 254.59,76.74 254.59,76.74 L257.98,82.74 L257.98,82.74 L257.98,82.74 L254.48,84.66 L254.41,84.6 Z M251,82.48 L254.46,84.48 L257.94,82.57 L254.61,76.67 L251,82.48 Z"/>
    <path fill="#6535FF" fill-rule="nonzero" d="M264.26,71.66 L264.26,71.66 C257.68585,69.4599251 250.57415,69.4599251 244,71.66 L244,71.66 C243.136163,71.9407249 242.556246,72.7517976 242.57,73.66 L242.57,88 C242.57256,89.0386471 243.033699,90.0231425 243.83,90.69 L251.83,97.44 C253.136189,98.5391869 255.043811,98.5391869 256.35,97.44 L264.35,90.69 C265.170252,90.0348863 265.657444,89.0495135 265.68,88 L265.68,73.63 C265.682031,72.7354976 265.109261,71.9408808 264.26,71.66 Z M264.67,88 C264.674829,88.7379304 264.348129,89.4390501 263.78,89.91 L255.78,96.67 C254.84662,97.4451553 253.49338,97.4451553 252.56,96.67 L244.56,89.91 C243.989285,89.4400994 243.659052,88.7392707 243.66,88 L243.66,73.63 C243.67064,73.1738085 243.966846,72.7735308 244.4,72.63 C250.76822,70.5101493 257.65178,70.5101493 264.02,72.63 C264.449211,72.776928 264.740847,73.1764296 264.75,73.63 L264.67,88 Z"/>
    <path fill="#BBC4EF" fill-rule="nonzero" d="M265.68,88 L265.68,73.63 C265.69514,72.7244821 265.119879,71.9142546 264.26,71.63 L264.26,71.63 C261.56721,70.7271932 258.765643,70.189077 255.93,70.03 C256.83091,71.3224374 257.457148,72.7859287 257.77,74.33 C258.122172,76.1966104 258.30956,78.0905681 258.33,79.99 C258.412061,81.0114764 258.368401,82.0391641 258.2,83.05 C257.7,85.48 255.85,87.4 254.96,89.72 C254.27471,91.6438939 254.126063,93.7180448 254.53,95.72 C254.675619,96.5391847 254.87607,97.3476693 255.13,98.14 C255.591293,97.9999827 256.019766,97.7687434 256.39,97.46 L264.39,90.71 C265.200614,90.0426736 265.67317,89.0499396 265.68,88 L265.68,88 Z" opacity=".44"/>
    <path fill="#070707" fill-rule="nonzero" d="M246.45 86.56L241.15 85.1C240.735786 85.1 240.4 84.7642136 240.4 84.35L240.4 81.66C240.405471 81.2496969 240.73966 80.9199635 241.15 80.92L246.45 82.38C246.577404 82.3809439 246.692111 82.457377 246.742037 82.5745954 246.791963 82.6918137 246.767596 82.8274816 246.68 82.92L244.77 83.53C244.65935 83.6519786 244.65935 83.8380214 244.77 83.96L246.68 86C246.782784 86.090161 246.816931 86.2356646 246.764987 86.3621374 246.713043 86.4886102 246.586484 86.5681097 246.45 86.56L246.45 86.56zM261.77 82.44L267.07 81.02C267.268005 81.0199819 267.457759 81.0993172 267.596827 81.2402645 267.735895 81.3812118 267.812676 81.5720129 267.81 81.77L267.81 84.46C267.804529 84.8703031 267.47034 85.2000365 267.06 85.2L261.76 86.62C261.632596 86.6190561 261.517889 86.542623 261.467963 86.4254046 261.418037 86.3081863 261.442404 86.1725184 261.53 86.08L263.43 84.08C263.545564 83.9599603 263.545564 83.7700397 263.43 83.65L261.53 83.03C261.411547 82.9396846 261.368282 82.7812116 261.424408 82.6432339 261.480535 82.5052561 261.622137 82.4219834 261.77 82.44z" opacity=".18"/>
    <path fill="#FCCDD3" fill-rule="nonzero" d="M246.45 85.12L241.15 85.12C240.735786 85.12 240.4 84.7842136 240.4 84.37L240.4 80.24C240.399982 80.0419948 240.479317 79.8522415 240.620264 79.7131735 240.761212 79.5741055 240.952013 79.4973243 241.15 79.5L246.45 79.5C246.577711 79.4951253 246.695323 79.5691256 246.746201 79.6863655 246.797079 79.8036055 246.770792 79.9400527 246.68 80.03L244.77 82.03C244.657957 82.1552683 244.657957 82.3447317 244.77 82.47L246.66 84.53C246.789033 84.6090302 246.845076 84.7676363 246.794337 84.9101877 246.743598 85.0527391 246.599948 85.1402683 246.45 85.12L246.45 85.12zM261.77 79.56L267.07 79.56C267.268853 79.5572005 267.46024 79.6356511 267.599917 79.7772156 267.739594 79.9187801 267.815468 80.111203 267.81 80.31L267.81 84.44C267.804529 84.8503031 267.47034 85.1800365 267.06 85.18L261.76 85.18C261.632596 85.1790561 261.517889 85.102623 261.467963 84.9854046 261.418037 84.8681863 261.442404 84.7325184 261.53 84.64L263.43 82.64C263.545564 82.5199603 263.545564 82.3300397 263.43 82.21L261.53 80.14C261.403047 80.0552261 261.353651 79.8925817 261.412019 79.7515253 261.470388 79.6104689 261.620265 79.5302821 261.77 79.56z"/>
    <path fill="#6535FF" fill-rule="nonzero" d="M246 85.91L246 85.91 240.7 85.91C240.445997 85.9064241 240.202875 85.8063151 240.02 85.63 239.843685 85.4471249 239.743576 85.204003 239.74 84.95L239.74 80.82C239.74 80.6984974 239.838497 80.6 239.96 80.6L239.96 80.6C240.017472 80.5999348 240.07246 80.6234271 240.112143 80.665 240.151826 80.7065728 240.172737 80.762593 240.17 80.82L240.17 84.95C240.167641 85.0885929 240.221796 85.2221756 240.32 85.32 240.416803 85.4209135 240.55017 85.4785858 240.69 85.48L245.99 85.48 245.99 85.48C246.03184 85.4837743 246.071578 85.4609956 246.089466 85.4229841 246.107354 85.3849726 246.099577 85.3398337 246.07 85.31L244.18 83.24C244.094833 83.1542151 244.094833 83.0157849 244.18 82.93 244.267811 82.8499019 244.402189 82.8499019 244.49 82.93L246.41 85C246.556672 85.1563062 246.592406 85.3865954 246.5 85.58 246.42231 85.7866132 246.220519 85.9197953 246 85.91L246 85.91zM266.62 86L266.62 86 261.31 86C261.099248 86.0027673 260.908504 85.875605 260.83 85.68 260.740188 85.4845892 260.779935 85.2540527 260.93 85.1L262.83 83.1C262.868114 83.0611156 262.868114 82.9988844 262.83 82.96L260.94 80.89C260.885561 80.799912 260.902562 80.6838846 260.980557 80.6132012 261.058553 80.5425178 261.175688 80.5369842 261.26 80.6L263.15 82.67C263.338036 82.8731692 263.338036 83.1868308 263.15 83.39L261.24 85.45C261.218022 85.4833732 261.218022 85.5266268 261.24 85.56 261.259116 85.5974778 261.297935 85.6207692 261.34 85.62L266.64 85.62C266.697472 85.6199348 266.75246 85.6434271 266.792143 85.685 266.831826 85.7265728 266.852737 85.782593 266.85 85.84 266.825316 85.944157 266.72624 86.0130795 266.62 86L266.62 86z"/>
    <path fill="#BBC4EF" fill-rule="nonzero" d="M252.52,95.75 C252.47437,95.7639136 252.42563,95.7639136 252.38,95.75 L245.17,89.69 C245.129687,89.6505013 245.106969,89.5964384 245.106969,89.54 C245.106969,89.4835616 245.129687,89.4294987 245.17,89.39 C245.254495,89.3112464 245.385505,89.3112464 245.47,89.39 L252.68,95.45 C252.758754,95.5344947 252.758754,95.6655053 252.68,95.75 C252.628385,95.7691486 252.571615,95.7691486 252.52,95.75 L252.52,95.75 Z"/>
    <path fill="#3E1EC4" fill-rule="nonzero" d="M245.6,158.69 C245.6,157.287197 244.462803,156.15 243.06,156.15 L242.92,156.15 L243.05,156.15 C244.319315,155.605447 244.920847,154.14642 244.404135,152.865519 C243.887424,151.584618 242.441876,150.951376 241.15,151.44 C241.69051,150.852875 241.924985,150.046567 241.78361,149.26115 C241.642235,148.475733 241.141316,147.801796 240.43,147.44 C240.323758,147.384928 240.213432,147.338123 240.1,147.3 C239.1865,147.017821 238.191832,147.259767 237.51,147.93 L237.43,148.03 C237.426056,147.990097 237.426056,147.949903 237.43,147.91 C237.982285,146.620415 237.384585,145.127285 236.095,144.575 C234.805415,144.022715 233.312285,144.620415 232.76,145.91 C232.743431,144.507197 231.592803,143.383432 230.19,143.4 C228.787197,143.416569 227.663431,144.567197 227.68,145.97 L227.68,146 C227.68,146 227.68,145.91 227.68,145.87 C227.358435,145.127008 226.704368,144.579913 225.916245,144.394704 C225.128122,144.209495 224.298837,144.408003 223.68,144.93 L223.43,145.18 C222.819818,145.897483 222.65099,146.891265 222.99,147.77 C222.313569,147.118296 221.331763,146.894983 220.44,147.19 C220.326568,147.228123 220.216242,147.274928 220.11,147.33 C219.378724,147.697412 218.868226,148.393483 218.737539,149.201367 C218.606852,150.009251 218.871858,150.83077 219.45,151.41 L219.55,151.5 L219.43,151.44 C218.140415,150.887715 216.647285,151.485415 216.095,152.775 C215.542715,154.064585 216.140415,155.557715 217.43,156.11 C216.522545,156.122504 215.690694,156.61818 215.247795,157.410311 C214.804897,158.202442 214.818239,159.170684 215.282795,159.950311 C215.747352,160.729937 216.592545,161.202504 217.5,161.19 L217.63,161.19 L217.51,161.19 C216.380699,161.652841 215.740227,162.85344 215.984751,164.049161 C216.229275,165.244883 217.28966,166.097658 218.51,166.08 C218.822004,166.078252 219.130826,166.017166 219.42,165.9 C218.880221,166.488502 218.647299,167.295882 218.790668,168.081466 C218.934037,168.867049 219.437138,169.540105 220.15,169.9 C220.254554,169.958584 220.365215,170.005531 220.48,170.04 C221.390198,170.327396 222.384697,170.084554 223.06,169.41 L223.15,169.31 C223.129106,169.348105 223.112345,169.388333 223.1,169.43 C222.753697,170.259482 222.871589,171.210223 223.41,171.93 C223.519987,172.075086 223.643911,172.209058 223.78,172.33 L220.65,179 C220.570369,179.15715 220.592151,179.346649 220.705363,179.481631 C220.818574,179.616614 221.001386,179.671056 221.17,179.62 L224.51,178.69 C224.718802,178.630806 224.939578,178.732703 225.03,178.93 L226.55,182.2 C226.621677,182.356412 226.777946,182.456697 226.95,182.456697 C227.122054,182.456697 227.278323,182.356412 227.35,182.2 L230.27,176.05 L233.18,182.2 C233.255189,182.355246 233.412505,182.45385 233.585,182.45385 C233.757495,182.45385 233.914811,182.355246 233.99,182.2 L235.5,178.93 C235.594242,178.731194 235.818418,178.62968 236.03,178.69 L239.37,179.62 C239.537029,179.661732 239.71323,179.604506 239.823864,179.472596 C239.934498,179.340685 239.960174,179.157213 239.89,179 L236.8,172.48 L236.88,172.42 C236.969708,172.350336 237.050336,172.269708 237.12,172.18 C237.730182,171.462517 237.89901,170.468735 237.56,169.59 C238.241747,170.23939 239.224937,170.462144 240.12,170.17 C240.230608,170.137083 240.337773,170.093547 240.44,170.04 C241.172781,169.674513 241.685459,168.97935 241.818154,168.171302 C241.950848,167.363255 241.687412,166.540641 241.11,165.96 C241.07922,165.927279 241.045771,165.897175 241.01,165.87 L241.13,165.92 C241.753198,166.177902 242.453382,166.177357 243.076177,165.918484 C243.698973,165.659611 244.193238,165.163669 244.45,164.54 L244.45,164.54 C244.973274,163.264123 244.382929,161.803795 243.12,161.25 C244.504809,161.211984 245.605954,160.075318 245.6,158.69 L245.6,158.69 Z" opacity=".32"/>
    <path fill="#F9879A" fill-rule="nonzero" d="M240.75,179 L237.41,178.07 C237.196242,178.015465 236.973864,178.12036 236.88,178.32 L235.37,181.58 C235.294811,181.735246 235.137495,181.83385 234.965,181.83385 C234.792505,181.83385 234.635189,181.735246 234.56,181.58 L230.39,172.77 C230.282602,172.546308 230.376547,172.277894 230.6,172.17 L236.51,169.37 C236.733979,169.268321 236.998316,169.360839 237.11,169.58 L241.27,178.37 C241.356172,178.527842 241.337617,178.722236 241.223142,178.860927 C241.108668,178.999618 240.921315,179.054687 240.75,179 L240.75,179 Z"/>
    <path fill="#F9879A" fill-rule="nonzero" d="M222.55,179 L225.89,178.07 C226.101406,178.012196 226.32312,178.11879 226.41,178.32 L227.93,181.58 C228.001677,181.736412 228.157946,181.836697 228.33,181.836697 C228.502054,181.836697 228.658323,181.736412 228.73,181.58 L232.91,172.77 C233.017398,172.546308 232.923453,172.277894 232.7,172.17 L226.79,169.37 C226.566021,169.268321 226.301684,169.360839 226.19,169.58 L222,178.38 C221.910453,178.543007 221.933068,178.744711 222.056489,178.883841 C222.17991,179.02297 222.377479,179.069473 222.55,179 L222.55,179 Z"/>
    <path fill="#6534FF" fill-rule="nonzero" d="M232.7 172.18L231.7 171.71C231.763263 172.714771 231.365796 173.693719 230.62 174.37 230.04 174.89 229.29 175.18 228.68 175.66 228.15274 176.120149 227.688709 176.648067 227.3 177.23 227.070339 177.537366 226.882061 177.873577 226.74 178.23 226.678953 178.425209 226.63873 178.626328 226.62 178.83L227.92 181.62C227.991677 181.776412 228.147946 181.876697 228.32 181.876697 228.492054 181.876697 228.648323 181.776412 228.72 181.62L232.9 172.81C232.962081 172.700922 232.975789 172.570874 232.937813 172.45125 232.899837 172.331626 232.813629 172.233297 232.7 172.18L232.7 172.18zM237.11 169.59C237.024018 169.4145 236.832581 169.316744 236.64 169.35 236.620005 169.64633 236.620005 169.94367 236.64 170.24 236.690078 171.446304 236.629827 172.654661 236.46 173.85 236.345213 174.407486 236.345213 174.982514 236.46 175.54 236.77 176.63 237.92 177.2 238.83 177.88 239.163349 178.133013 239.474479 178.414034 239.76 178.72L240.76 179C240.928614 179.051056 241.111426 178.996614 241.224637 178.861631 241.337849 178.726649 241.359631 178.53715 241.28 178.38L237.11 169.59z" opacity=".32"/>
    <path fill="#6534FF" fill-rule="nonzero" d="M235.46,166 C234.529916,166.002066 233.645285,166.402516 233.03,167.1 C232.576394,166.8627 232.071927,166.739157 231.56,166.74 C231.141824,166.742215 230.727855,166.823651 230.34,166.98 C229.737581,166.347043 228.903789,165.986094 228.03,165.98 C226.080435,165.98 224.5,167.560435 224.5,169.51 C224.5,171.459565 226.080435,173.04 228.03,173.04 C228.446311,173.041526 228.858382,172.956387 229.24,172.79 C229.865103,173.44399 230.737154,173.803838 231.641551,173.78099 C232.545949,173.758142 233.398717,173.35472 233.99,172.67 C234.442868,172.910398 234.947288,173.037361 235.46,173.04 C237.409565,173.04 238.99,171.459565 238.99,169.51 C238.99,167.560435 237.409565,165.98 235.46,165.98 L235.46,166 Z" opacity=".32"/>
    <path fill="#FFF" fill-rule="nonzero" d="M247,158.1 C247,156.697197 245.862803,155.56 244.46,155.56 L244.32,155.56 L244.45,155.56 C245.719315,155.015447 246.320847,153.55642 245.804135,152.275519 C245.287424,150.994618 243.841876,150.361376 242.55,150.85 C243.09051,150.262875 243.324985,149.456567 243.18361,148.67115 C243.042235,147.885733 242.541316,147.211796 241.83,146.85 C241.723758,146.794928 241.613432,146.748123 241.5,146.71 C240.586724,146.420888 239.588449,146.663712 238.91,147.34 L238.83,147.43 C238.852582,147.396321 238.869473,147.359159 238.88,147.32 C239.432285,146.030415 238.834585,144.537285 237.545,143.985 C236.255415,143.432715 234.762285,144.030415 234.21,145.32 C234.193431,143.917197 233.042803,142.793432 231.64,142.81 C230.237197,142.826569 229.113431,143.977197 229.13,145.38 L229.13,145.51 C229.134298,145.470115 229.134298,145.429885 229.13,145.39 C228.808435,144.647008 228.154368,144.099913 227.366245,143.914704 C226.578122,143.729495 225.748837,143.928003 225.13,144.45 C225.042474,144.525766 224.962132,144.609455 224.89,144.7 C224.275343,145.41144 224.10589,146.405049 224.45,147.28 C223.764081,146.638097 222.783468,146.419757 221.89,146.71 C221.776764,146.744621 221.666425,146.788089 221.56,146.84 C220.828724,147.207412 220.318226,147.903483 220.187539,148.711367 C220.056852,149.519251 220.321858,150.34077 220.9,150.92 C220.93078,150.952721 220.964229,150.982825 221,151.01 L220.88,150.96 C219.590415,150.407715 218.097285,151.005415 217.545,152.295 C216.992715,153.584585 217.590415,155.077715 218.88,155.63 C217.477197,155.646569 216.353432,156.797197 216.37,158.2 C216.386569,159.602803 217.537197,160.726569 218.94,160.71 L219,160.71 L218.88,160.76 C217.624445,161.294055 217.015118,162.724648 217.5,164 L217.5,164 C217.89516,164.949261 218.821776,165.568319 219.85,165.57 C220.165345,165.569279 220.477635,165.508178 220.77,165.39 C220.22949,165.977125 219.995015,166.783433 220.13639,167.56885 C220.277765,168.354267 220.778684,169.028204 221.49,169.39 C221.596242,169.445072 221.706568,169.491877 221.82,169.53 C222.730274,169.815061 223.723553,169.572516 224.4,168.9 C224.432721,168.86922 224.462825,168.835771 224.49,168.8 C224.49,168.8 224.49,168.88 224.44,168.92 C224.0978,169.750039 224.215431,170.698681 224.75,171.42 C224.890726,171.610732 225.059268,171.779274 225.25,171.92 C225.692398,172.249129 226.228605,172.427864 226.78,172.43 C227.788985,172.428922 228.702449,171.833014 229.11,170.91 C229.126569,172.312803 230.277197,173.436568 231.68,173.42 C233.082803,173.403431 234.206569,172.252803 234.19,170.85 C234.194963,170.803465 234.194963,170.756535 234.19,170.71 C234.19,170.71 234.19,170.8 234.19,170.84 C234.588253,171.78534 235.514196,172.400009 236.54,172.4 C237.156854,172.395132 237.752046,172.171935 238.22,171.77 C238.31055,171.69421 238.39421,171.61055 238.47,171.52 C239.077066,170.804599 239.24223,169.813617 238.9,168.94 C239.581747,169.58939 240.564937,169.812144 241.46,169.52 C241.573432,169.481877 241.683758,169.435072 241.79,169.38 C242.521276,169.012588 243.031774,168.316517 243.162461,167.508633 C243.293148,166.700749 243.028142,165.87923 242.45,165.3 L242.35,165.21 L242.47,165.27 C242.786776,165.401241 243.127164,165.465914 243.47,165.46 C244.501531,165.469297 245.433716,164.846519 245.82,163.89 L245.82,163.89 C246.343274,162.614123 245.752929,161.153795 244.49,160.6 C245.863446,160.578714 246.973231,159.47335 247,158.1 Z"/>
    <path fill="#62BCF9" fill-rule="nonzero" d="M220.89,169.47 L220.81,169.47 C220.679453,169.430451 220.552362,169.380283 220.43,169.32 C219.624335,168.912254 219.057541,168.149119 218.9,167.26 C218.794658,166.648771 218.893035,166.019862 219.18,165.47 C217.949224,165.567126 216.798365,164.852361 216.339846,163.706062 C215.881326,162.559762 216.221765,161.248478 217.18,160.47 C215.972148,160.139 215.129141,159.048621 215.112908,157.796342 C215.096675,156.544062 215.911134,155.432198 217.11,155.07 C216.166737,154.275395 215.836617,152.96699 216.29,151.82 C216.770578,150.64878 217.972774,149.941366 219.23,150.09 C218.916993,149.541886 218.800568,148.90331 218.9,148.28 C219.045681,147.378434 219.614595,146.601289 220.43,146.19 C220.546677,146.122431 220.670853,146.068733 220.8,146.03 C221.528939,145.793973 222.322321,145.862492 223,146.22 C222.922457,145.456031 223.160939,144.693609 223.66,144.11 C223.745689,144.009324 223.839324,143.915689 223.94,143.83 C224.63481,143.228988 225.576036,142.998332 226.47,143.21 C227.080519,143.362195 227.622603,143.714197 228.01,144.21 C228.34764,143.005701 229.438188,142.167687 230.688818,142.151505 C231.939448,142.135323 233.051313,142.94484 233.42,144.14 C234.045253,143.375358 235.026057,142.995143 236.003325,143.138557 C236.980592,143.281972 237.810801,143.927954 238.19,144.84 C238.377053,145.284975 238.449265,145.769828 238.4,146.25 C239.084861,145.873636 239.892946,145.790663 240.64,146.02 C240.772377,146.058602 240.89988,146.112288 241.02,146.18 C241.700642,146.520274 242.216257,147.119464 242.451247,147.843232 C242.686236,148.567 242.620941,149.354796 242.27,150.03 C243.507253,149.917843 244.671318,150.631446 245.132707,151.784917 C245.594095,152.938388 245.243292,154.257939 244.27,155.03 C245.487485,155.374245 246.328554,156.484784 246.33,157.75 C246.33,157.90464 246.20464,158.03 246.05,158.03 C245.89536,158.03 245.77,157.90464 245.77,157.75 C245.770012,156.500209 244.759779,155.485506 243.51,155.48 L243.38,155.48 C243.242953,155.4822 243.124458,155.384865 243.1,155.25 C243.078503,155.114007 243.159064,154.982566 243.29,154.94 L243.39,154.94 C244.140258,154.638111 244.672468,153.958896 244.786153,153.158209 C244.899838,152.357522 244.577726,151.557006 243.941153,151.058209 C243.304581,150.559411 242.450258,150.438111 241.7,150.74 C241.580267,150.790394 241.44162,150.74838 241.37,150.64 C241.291662,150.536484 241.291662,150.393516 241.37,150.29 C241.860613,149.771987 242.079136,149.053453 241.96,148.35 C241.83343,147.631279 241.373282,147.015274 240.72,146.69 C240.630281,146.644728 240.536543,146.607903 240.44,146.58 C239.627858,146.313869 238.735072,146.526437 238.13,147.13 L238.13,147.19 C238.040217,147.301778 237.880505,147.327677 237.76,147.25 C237.640272,147.187722 237.591585,147.041659 237.65,146.92 L237.7,146.81 C237.925141,146.255308 237.925141,145.634692 237.7,145.08 C237.471175,144.524185 237.027664,144.08428 236.47,143.86 C235.337719,143.398742 234.043917,143.92158 233.55,145.04 C233.493884,145.156472 233.367446,145.22173 233.24,145.2 C233.110817,145.172838 233.016279,145.061858 233.01,144.93 C232.993431,143.681836 231.968164,142.683431 230.72,142.7 C229.471836,142.716569 228.473431,143.741836 228.49,144.99 L228.49,145.11 C228.497267,145.250782 228.398738,145.375014 228.26,145.4 C228.125686,145.413633 227.998811,145.335871 227.95,145.21 C227.952657,145.173381 227.952657,145.136619 227.95,145.1 C227.66998,144.436605 227.090593,143.946354 226.39,143.78 C225.683354,143.617488 224.941495,143.799244 224.39,144.27 C224.314964,144.338355 224.244793,144.411867 224.18,144.49 C223.63167,145.124143 223.481367,146.010546 223.79,146.79 C223.834394,146.912198 223.788834,147.048878 223.68,147.12 C223.580897,147.200318 223.439103,147.200318 223.34,147.12 C222.729329,146.540686 221.850977,146.341235 221.05,146.6 C220.955055,146.627789 220.86425,146.668147 220.78,146.72 C220.117975,147.049998 219.656123,147.679458 219.54,148.41 C219.430557,149.121826 219.668479,149.843028 220.18,150.35 L220.18,150.4 C220.289075,150.494855 220.318116,150.652505 220.25,150.78 C220.180614,150.89715 220.034857,150.944306 219.91,150.89 L219.8,150.89 C218.651248,150.401228 217.323772,150.936248 216.835,152.085 C216.346228,153.233752 216.881248,154.561228 218.03,155.05 C218.149054,155.103425 218.215419,155.232008 218.19,155.36 C218.159809,155.487357 218.050537,155.580441 217.92,155.59 C217.11258,155.600718 216.372211,156.041375 215.977783,156.745981 C215.583355,157.450586 215.59479,158.312093 216.007783,159.005981 C216.420775,159.699868 217.17258,160.120718 217.98,160.11 L218,160.11 C218.142628,160.09175 218.274535,160.188482 218.3,160.33 C218.328065,160.466609 218.25132,160.603045 218.12,160.65 L218.01,160.65 C216.850202,161.116681 216.288319,162.435202 216.755,163.595 C217.221681,164.754798 218.540202,165.316681 219.7,164.85 C219.822198,164.805606 219.958878,164.851166 220.03,164.96 C220.110318,165.059103 220.110318,165.200897 220.03,165.3 C219.533299,165.824326 219.315749,166.553724 219.444078,167.264472 C219.572408,167.975219 220.031299,168.582482 220.68,168.9 C220.768655,168.950138 220.862552,168.990379 220.96,169.02 C221.031117,169.038581 221.091584,169.085354 221.12744,169.149519 C221.163297,169.213683 221.171444,169.289694 221.15,169.36 C221.088235,169.439224 220.989869,169.48084 220.89,169.47 L220.89,169.47 Z"/>
    <circle cx="231.56" cy="158.19" r="11.89" fill="#BBC4EF" fill-rule="nonzero" opacity=".32"/>
    <path fill="#BBC4EF" fill-rule="nonzero" d="M220.59,154.79 L220.5,154.79 C220.354296,154.742289 220.274058,154.586271 220.32,154.44 C220.691836,153.286235 221.245469,152.199225 221.96,151.22 C225.71561,146.024835 232.968996,144.85248 238.17,148.6 C238.231781,148.642155 238.273308,148.708049 238.284681,148.781972 C238.296053,148.855895 238.276253,148.931224 238.23,148.99 C238.13857,149.113764 237.964403,149.140559 237.84,149.05 C232.887798,145.483583 225.982736,146.602355 222.41,151.55 C221.735761,152.483725 221.209575,153.515859 220.85,154.61 C220.808752,154.717881 220.705496,154.789367 220.59,154.79 L220.59,154.79 Z"/>
    <path fill="#6534FF" fill-rule="nonzero" d="M247 158.1C247 156.697197 245.862803 155.56 244.46 155.56L244.32 155.56 244.45 155.56C245.719315 155.015447 246.320847 153.55642 245.804135 152.275519 245.287424 150.994618 243.841876 150.361376 242.55 150.85 243.09051 150.262875 243.324985 149.456567 243.18361 148.67115 243.042235 147.885733 242.541316 147.211796 241.83 146.85 241.723758 146.794928 241.613432 146.748123 241.5 146.71 240.586724 146.420888 239.588449 146.663712 238.91 147.34L238.83 147.43C238.852582 147.396321 238.869473 147.359159 238.88 147.32 239.055018 146.903433 239.110426 146.446318 239.04 146 238.575035 146.523395 238.221217 147.135773 238 147.8 237.836467 148.521318 237.722864 149.253053 237.66 149.99 237.433927 151.501285 236.866202 152.941118 236 154.2 234.62 156.25 232.47 157.81 231.59 160.12 230.86 162.03 231.11 164.12 231.14 166.21 231.169495 168.514963 230.900596 170.814053 230.34 173.05 230.735445 173.298423 231.192998 173.430143 231.66 173.43 233.062803 173.43 234.2 172.292803 234.2 170.89 234.204963 170.843465 234.204963 170.796535 234.2 170.75 234.2 170.75 234.2 170.84 234.2 170.88 234.598253 171.82534 235.524196 172.440009 236.55 172.44 237.166854 172.435132 237.762046 172.211935 238.23 171.81 238.32055 171.73421 238.40421 171.65055 238.48 171.56 239.087066 170.844599 239.25223 169.853617 238.91 168.98 239.591747 169.62939 240.574937 169.852144 241.47 169.56 241.583432 169.521877 241.693758 169.475072 241.8 169.42 242.531276 169.052588 243.041774 168.356517 243.172461 167.548633 243.303148 166.740749 243.038142 165.91923 242.46 165.34L242.36 165.25 242.48 165.31C242.796776 165.441241 243.137164 165.505914 243.48 165.5 244.511531 165.509297 245.443716 164.886519 245.83 163.93L245.83 163.93C246.353274 162.654123 245.762929 161.193795 244.5 160.64 245.884881 160.61285 246.994834 159.485138 247 158.1zM46.57 63.29L44.64 59.94 44.5 56.08C44.4292855 54.1661893 43.342847 52.4355117 41.65 51.54L39 50.12 37.48 47.49C36.5152522 45.8189747 34.7295099 44.7925544 32.8 44.8L28.94 44.8 25.52 43C23.8283137 42.0985242 21.7836099 42.1710044 20.16 43.19L17.59 44.8 14.59 44.8C12.6736694 44.8027381 10.9045891 45.8283472 9.95 47.49L8 50.83 4.7 52.89C3.07769093 53.9091284 2.12121711 55.7153778 2.19 57.63L2.3 60.63.78 63.29C-.179258109 64.9514838-.179258109 66.9985162.78 68.66L2.71 72 2.86 75.86C2.92719462 77.7774362 4.01413181 79.5127219 5.71 80.41L8.39 81.83 9.91 84.46C10.86562 86.1193151 12.6351803 87.1413887 14.55 87.14L17.76 87.14 17.76 95.83C17.7594428 96.1141402 17.9238087 96.3727863 18.1812922 96.4929453 18.4387758 96.6131043 18.7425862 96.5729405 18.96 96.39L23.51 92.6C23.7833515 92.3657652 24.1866485 92.3657652 24.46 92.6L28.77 96.33C28.9860957 96.5210473 29.2935064 96.5691228 29.5576128 96.4531737 29.8217193 96.3372245 29.994386 96.0783833 30 95.79L30 87.14 32.8 87.14C34.7172867 87.1408332 36.4895716 86.1193873 37.45 84.46L39.38 81.11 42.65 79.11C44.2761354 78.0933373 45.2366627 76.2866312 45.17 74.37L45.06 71.37 46.57 68.74C47.5603575 67.0583069 47.5603575 64.9716931 46.57 63.29z" opacity=".32"/>
    <path fill="#62BCF9" fill-rule="nonzero" d="M31.83,94.81 L27.52,91.08 C27.2466485,90.8457652 26.8433515,90.8457652 26.57,91.08 L22,94.86 C21.780512,95.0405396 21.4770207,95.079428 21.2191038,94.9600615 C20.9611868,94.8406949 20.7944179,94.5841655 20.79,94.3 L20.79,84.37 C20.7954705,83.9652199 21.1251829,83.639963 21.53,83.64 L32.31,83.64 C32.7131679,83.64 33.04,83.9668321 33.04,84.37 L33.04,94.26 C33.04,94.5462647 32.872682,94.8061103 32.6120761,94.9245675 C32.3514703,95.0430247 32.0456789,94.9982289 31.83,94.81 L31.83,94.81 Z"/>
    <ellipse cx="26.93" cy="82.57" fill="#6534FF" fill-rule="nonzero" opacity=".32" rx="6.73" ry="6.27"/>
    <path fill="#BBC4EF" fill-rule="nonzero" d="M49.63,61.76 L47.7,58.42 L47.56,54.56 C47.4922356,52.6401919 46.4059757,50.9021761 44.71,50 L42,48.59 L40.51,46 C39.5495716,44.3406127 37.7772867,43.3191668 35.86,43.32 L32,43.32 L28.59,41.51 C26.8968775,40.6147624 24.8554842,40.6871253 23.23,41.7 L20.66,43.32 L17.66,43.32 C15.7391426,43.3155911 13.9622147,44.3375152 13,46 L11,49.31 L7.73,51.31 C6.10164206,52.3440938 5.15452692,54.1734008 5.25,56.1 L5.36,59.1 L3.84,61.76 C2.88074189,63.4214838 2.88074189,65.4685162 3.84,67.13 L5.77,70.48 L5.91,74.34 C5.9807145,76.2538107 7.06715304,77.9844883 8.76,78.88 L11.45,80.3 L13,82.93 C13.9593962,84.5917295 15.7312047,85.6167112 17.65,85.62 L21.51,85.62 L24.93,87.42 C26.6216863,88.3214758 28.6663901,88.2489956 30.29,87.23 L32.86,85.62 L35.86,85.62 C37.7787953,85.6167112 39.5506038,84.5917295 40.51,82.93 L42.44,79.59 L45.71,77.53 C47.3354423,76.5137846 48.2929532,74.7055767 48.22,72.79 L48.11,69.79 L49.63,67.16 C50.6008482,65.4909092 50.6008482,63.4290908 49.63,61.76 L49.63,61.76 Z"/>
    <path fill="#6534FF" fill-rule="nonzero" d="M26.48,87.28 C25.5323065,87.281452 24.5985946,87.0514568 23.76,86.61 L20.44,84.85 L16.69,84.85 C14.625669,84.8336606 12.7239037,83.7268332 11.69,81.94 L10.2,79.42 L7.63,78.07 C5.79341996,77.0914796 4.6162887,75.2095933 4.54,73.13 L4.4,69.38 L2.53,66.14 C1.49062909,64.3356408 1.49062909,62.1143592 2.53,60.31 L4,57.8 L3.89,54.9 C3.8086218,52.8225131 4.84164231,50.8593929 6.6,49.75 L9.77,47.75 L11.65,44.5 C12.6828633,42.7107949 14.5841723,41.6004305 16.65,41.58 L19.6,41.58 L22.06,40.04 C23.8248313,38.9407043 26.0405307,38.8607564 27.88,39.83 L31.19,41.58 L34.94,41.58 C37.0288022,41.5832622 38.9573855,42.700011 40,44.51 L41.44,47 L44,48.38 C45.8374366,49.3541357 47.0181928,51.2319189 47.1,53.31 C47.1054212,53.4320299 47.0620841,53.5512053 46.9795442,53.6412488 C46.8970042,53.7312924 46.7820399,53.7848095 46.66,53.79 L46.66,53.79 C46.5406442,53.7926818 46.4251145,53.7478246 46.3388412,53.6653024 C46.2525679,53.5827801 46.2026229,53.4693571 46.2,53.35 C46.1357752,51.5965985 45.1407914,50.0107239 43.59,49.19 L40.91,47.77 C40.8339263,47.7285748 40.7714252,47.6660737 40.73,47.59 L39.19,45 C38.3145745,43.4795918 36.6944252,42.5418113 34.94,42.54 L31.08,42.54 C31.0074436,42.5550965 30.9325564,42.5550965 30.86,42.54 L27.45,40.73 C25.8983681,39.9099978 24.0274252,39.9785863 22.54,40.91 L20,42.44 C19.9289601,42.4871539 19.8452508,42.5115691 19.76,42.51 L16.76,42.51 C14.9754661,42.4969385 13.3231934,43.4492901 12.44,45 L10.51,48.34 C10.4736313,48.404647 10.4221687,48.4595405 10.36,48.5 L7.08,50.53 C5.59669556,51.4594338 4.72332406,53.1108306 4.79,54.86 L4.9,57.86 C4.90167768,57.9470898 4.88102133,58.033158 4.84,58.11 L3.32,60.77 C2.44905434,62.2907991 2.44905434,64.1592009 3.32,65.68 L5.25,69 C5.28943474,69.0665972 5.31016368,69.1426033 5.31,69.22 L5.46,73.08 C5.52626622,74.8300404 6.51596802,76.4135632 8.06,77.24 L10.74,78.66 C10.8187225,78.6966741 10.8848316,78.7558243 10.93,78.83 L12.44,81.46 C13.3224424,82.9720667 14.9392813,83.9041268 16.69,83.91 L20.56,83.91 C20.6342858,83.9095915 20.707143,83.9304079 20.77,83.97 L24.19,85.78 C25.7403032,86.5952009 27.6074764,86.5228003 29.09,85.59 C29.3094741,85.4631642 29.5897409,85.5288517 29.73,85.74 C29.8613363,85.955584 29.794396,86.2367332 29.58,86.37 C28.6528014,86.9588154 27.5783476,87.2742196 26.48,87.28 Z"/>
    <path fill="#6534FF" fill-rule="nonzero" d="M47.7,58.42 L47.56,54.56 C47.4922356,52.6401919 46.4059757,50.9021761 44.71,50 L42,48.59 L40.51,46 C39.5495716,44.3406127 37.7772867,43.3191668 35.86,43.32 L32,43.32 L31.21,42.9 C31.3335836,44.513545 31.3669689,46.1327322 31.31,47.75 C31.183449,49.7311976 31.7843857,51.6904646 33,53.26 C33.7351337,53.9231055 34.5098958,54.5409115 35.32,55.11 C37.5098608,56.9650245 38.6342776,59.7873108 38.32,62.64 C38.02,65.15 36.61,67.46 36.53,69.99 C36.45,72.52 37.84,75.16 37.92,77.81 C37.9608312,79.4499381 37.4965265,81.0627861 36.59,82.43 C35.85,83.55 34.83,84.43 34.14,85.62 L35.79,85.62 C37.7087953,85.6167112 39.4806038,84.5917295 40.44,82.93 L42.37,79.59 L45.64,77.53 C47.2654423,76.5137846 48.2229532,74.7055767 48.15,72.79 L48.04,69.79 L49.56,67.16 C50.5192581,65.4985162 50.5192581,63.4514838 49.56,61.79 L47.7,58.42 Z" opacity=".32"/>
    <ellipse cx="26.01" cy="78.75" fill="#6534FF" fill-rule="nonzero" opacity=".32" rx="16.51" ry="2.14"/>
    <path fill="#62BCF9" fill-rule="nonzero" d="M48.24,64.35 L48.24,64.35 C47.7666829,64.8791865 47.0899762,65.1811578 46.38,65.18 L7.72,65.18 C7.01002382,65.1811578 6.33331714,64.8791865 5.86,64.35 L5.86,64.35 C5.36688411,63.7841998 4.64406714,63.4721483 3.89410461,63.5012919 C3.14414207,63.5304355 2.44772102,63.8976388 2,64.5 L1.86,64.68 C1.39704298,65.2902006 1.24201938,66.0800827 1.44,66.82 L3.75,75.43 C4.15089076,76.9497394 5.52828761,78.0064289 7.1,78 L47,78 C48.5583962,78.0056971 49.9235736,76.9571421 50.32,75.45 L52.64,66.84 C52.831894,66.0998886 52.6773953,65.3126808 52.22,64.7 L52.08,64.52 C51.6350207,63.9222409 50.944832,63.5562616 50.2003616,63.5233033 C49.4558911,63.4903449 48.7360615,63.7939016 48.24,64.35 Z"/>
    <path fill="#6534FF" fill-rule="nonzero" d="M46.08,79.05 L6.18,79.05 C4.41628191,79.044481 2.87341956,77.8617562 2.41,76.16 L0.1,67.55 C-0.129209927,66.6681746 0.0547515984,65.7299708 0.6,65 L0.74,64.82 C1.27496143,64.1078027 2.10936318,63.6832178 3,63.67 C3.88402218,63.6236992 4.7387813,63.9937248 5.31,64.67 C5.44330819,64.7870988 5.49738259,64.9704284 5.44896295,65.1411291 C5.4005433,65.3118298 5.25826354,65.4394631 5.08332574,65.4691272 C4.90838793,65.4987912 4.7319861,65.4251965 4.63,65.28 C4.22552541,64.8052878 3.62275546,64.5464296 3,64.58 C2.39746255,64.6097716 1.83825686,64.9021668 1.47,65.38 L1.33,65.56 C0.956044156,66.0650721 0.834414431,66.7137639 1,67.32 L3.31,75.92 C3.66479312,77.2198208 4.84264259,78.1236567 6.19,78.13 L46.09,78.13 C47.4484999,78.1371883 48.6422757,77.2305751 49,75.92 C49.0662742,75.6742333 49.3192333,75.5287258 49.565,75.595 C49.8107667,75.6612742 49.9562742,75.9142333 49.89,76.16 C49.4227046,77.8761298 47.8585692,79.0625738 46.08,79.05 L46.08,79.05 Z"/>
    <path fill="#6534FF" fill-rule="nonzero" d="M22 65.33L8.34 65.33C8.21889959 65.3300299 8.10289837 65.2812491 8.01821356 65.1946824 7.93352875 65.1081157 7.88730888 64.9910705 7.89 64.87 7.88994087 64.6198036 8.08986269 64.415439 8.34 64.41L22 64.41C22.2518216 64.4153033 22.4546967 64.6181784 22.46 64.87 22.46 65.124051 22.254051 65.33 22 65.33L22 65.33zM36.14 79L27.59 79C27.335949 79 27.13 78.794051 27.13 78.54 27.13 78.285949 27.335949 78.08 27.59 78.08L36.14 78.08C36.394051 78.08 36.6 78.285949 36.6 78.54 36.6 78.794051 36.394051 79 36.14 79zM24.6 81.16L22 81.16C21.7481784 81.1546967 21.5453033 80.9518216 21.54 80.7 21.54 80.445949 21.745949 80.24 22 80.24L24.6 80.24C24.7211004 80.2399701 24.8371016 80.2887509 24.9217864 80.3753176 25.0064712 80.4618843 25.0526911 80.5789295 25.05 80.7 25.0500591 80.9501964 24.8501373 81.154561 24.6 81.16L24.6 81.16zM31.87 93.25C31.7489295 93.2526911 31.6318843 93.2064712 31.5453176 93.1217864 31.4587509 93.0371016 31.4099701 92.9211004 31.41 92.8L31.41 89.37C31.4099701 89.2488996 31.4587509 89.1328984 31.5453176 89.0482136 31.6318843 88.9635288 31.7489295 88.9173089 31.87 88.92 32.1201964 88.9199409 32.324561 89.1198627 32.33 89.37L32.33 92.8C32.324561 93.0501373 32.1201964 93.2500591 31.87 93.25L31.87 93.25zM12.19 49.94C11.9806609 49.9413013 11.7968448 49.8010909 11.7427585 49.5988553 11.6886722 49.3966197 11.7779584 49.1833703 11.96 49.08L20.09 44.37C20.2329062 44.2878289 20.4087948 44.2881393 20.5514102 44.3708141 20.6940255 44.453489 20.781701 44.6059682 20.7814102 44.7708142 20.7811193 44.9356601 20.6929062 45.0878289 20.55 45.17L12.42 49.87C12.3526176 49.9169714 12.2721252 49.9414691 12.19 49.94z"/>
    <path fill="#3E1EC4" fill-rule="nonzero" d="M297.62,154.77 L297.62,146.02 C297.639699,145.198879 297.210396,144.432268 296.5,144.02 L288.94,139.62 C288.245323,139.225949 287.394677,139.225949 286.7,139.62 L279.14,144 C278.420291,144.405464 277.982152,145.174129 278,146 L278,154.75 C277.973875,155.570108 278.400229,156.338314 279.11,156.75 L286.67,161.15 C287.366701,161.549872 288.223299,161.549872 288.92,161.15 L296.51,156.8 C297.227868,156.381579 297.655144,155.600166 297.62,154.77 Z" opacity=".32"/>
    <path fill="#52D2BC" fill-rule="nonzero" d="M298.1,153.93 L298.1,145.19 C298.105719,144.385565 297.677729,143.640404 296.98,143.24 L289.42,138.84 C288.728065,138.435691 287.871935,138.435691 287.18,138.84 L279.59,143.19 C278.893059,143.587607 278.46202,144.32762 278.46,145.13 L278.46,153.88 C278.454316,154.68182 278.877654,155.425521 279.57,155.83 L287.13,160.23 C287.826701,160.629872 288.683299,160.629872 289.38,160.23 L296.97,155.89 C297.673168,155.488859 298.105182,154.739526 298.1,153.93 Z"/>
    <path fill="#FFF" fill-rule="nonzero" d="M279.17,155.35 C279.144278,155.360041 279.115722,155.360041 279.09,155.35 C278.347758,154.921502 277.893224,154.127022 277.9,153.27 L277.9,144.52 C277.900959,143.665031 278.358545,142.875695 279.1,142.45 L286.69,138.1 C287.433651,137.675364 288.346349,137.675364 289.09,138.1 L296.65,142.5 C297.390043,142.931982 297.846463,143.723111 297.85,144.58 C297.85,144.668366 297.778366,144.74 297.69,144.74 L297.69,144.74 C297.605562,144.734712 297.539835,144.664603 297.54,144.58 C297.547399,143.842984 297.167871,143.156038 296.54,142.77 L288.98,138.37 C288.333909,137.994582 287.536091,137.994582 286.89,138.37 L279.3,142.72 C278.650566,143.092541 278.247184,143.781334 278.24,144.53 L278.24,153.27 C278.233043,154.009568 278.612017,154.699301 279.24,155.09 C279.276728,155.108985 279.303992,155.142288 279.31535,155.182043 C279.326709,155.221797 279.321155,155.264477 279.3,155.3 C279.267501,155.336995 279.218914,155.355682 279.17,155.35 Z"/>
    <polygon fill="#FFF" fill-rule="nonzero" points="294.24 151.11 295.15 149.54 294.25 147.96 294.26 146.14 292.68 145.22 291.78 143.64 289.96 143.63 288.39 142.72 286.81 143.62 284.99 143.62 284.07 145.19 282.49 146.1 282.49 147.92 281.57 149.49 282.47 151.07 282.47 152.89 284.04 153.8 284.95 155.38 286.77 155.39 288.34 156.31 289.92 155.4 291.74 155.41 292.65 153.83 294.23 152.93"/>
    <path fill="#6535FF" fill-rule="nonzero" d="M286.46,155.24 L284.64,155.24 C284.583924,155.244259 284.531468,155.211978 284.51,155.16 L283.62,153.62 L282.09,152.72 C282.039978,152.696293 282.008621,152.645338 282.01,152.59 L282.01,150.8 L281.12,149.26 C281.089181,149.211119 281.089181,149.148881 281.12,149.1 L282.02,147.57 L282.02,145.79 C282.019484,145.732325 282.050049,145.678836 282.1,145.65 L283.64,144.77 L284.54,143.23 C284.569333,143.186872 284.617847,143.160749 284.67,143.16 L286.45,143.16 L287.99,142.28 C288.038881,142.249181 288.101119,142.249181 288.15,142.28 L289.68,143.17 L291.46,143.17 C291.517675,143.169484 291.571164,143.200049 291.6,143.25 L292.48,144.79 L294.02,145.69 C294.055043,145.710715 294.080161,145.744783 294.08959,145.784383 C294.099019,145.823984 294.091948,145.865716 294.07,145.9 C294.02348,145.968491 293.932393,145.990178 293.86,145.95 L292.29,145.04 L292.24,144.98 L291.37,143.48 L289.64,143.48 L289.57,143.48 L288.07,142.61 L286.57,143.47 L286.49,143.47 L284.76,143.47 L283.89,144.97 L283.83,145.03 L282.33,145.89 L282.33,147.62 C282.339151,147.645882 282.339151,147.674118 282.33,147.7 L281.46,149.19 L282.32,150.69 C282.329151,150.715882 282.329151,150.744118 282.32,150.77 L282.32,152.5 L283.81,153.37 L283.87,153.43 L284.73,154.93 L286.46,154.93 C286.542843,154.93 286.61,154.997157 286.61,155.08 C286.610165,155.164603 286.544438,155.234712 286.46,155.24 Z"/>
    <circle cx="288.3" cy="149.22" r="2.56" fill="#FCCDD3" fill-rule="nonzero"/>
    <path fill="#6535FF" fill-rule="nonzero" d="M287.08,151.76 C287.048,151.773333 287.012,151.773333 286.98,151.76 C286.225332,151.146141 285.857585,150.174881 286.016442,149.215135 C286.175299,148.25539 286.836385,147.454422 287.748598,147.116465 C288.660811,146.778508 289.684182,146.955419 290.43,147.58 C290.488261,147.610073 290.522279,147.672647 290.515838,147.737894 C290.509397,147.803142 290.463801,147.857857 290.400785,147.875958 C290.337769,147.894059 290.270086,147.871883 290.23,147.82 C289.739425,147.414037 289.107628,147.21967 288.473698,147.279687 C287.839768,147.339704 287.255673,147.649185 286.85,148.14 C286.003528,149.164883 286.1467,150.681614 287.17,151.53 C287.221652,151.568739 287.24272,151.636183 287.222302,151.697434 C287.201885,151.758685 287.144565,151.8 287.08,151.8 L287.08,151.76 Z"/>
    <path fill="#6534FF" fill-rule="nonzero" d="M297,143.24 L289.44,138.84 C289.181094,138.690566 288.895953,138.592124 288.6,138.55 C288.438706,138.890491 288.321107,139.250008 288.25,139.62 C288.080265,140.881056 288.203454,142.164266 288.61,143.37 C289.011939,144.573598 289.345801,145.79887 289.61,147.04 C289.88375,148.759522 289.676079,150.521263 289.01,152.13 C288.14,154.22 286.52,155.97 285.91,158.13 C285.802896,158.533237 285.729312,158.944638 285.69,159.36 L287.11,160.2 C287.806701,160.599872 288.663299,160.599872 289.36,160.2 L296.95,155.86 C297.650045,155.460621 298.081569,154.715955 298.08,153.91 L298.08,145.17 C298.086847,144.380891 297.67613,143.646925 297,143.24 Z" opacity=".32"/>
    <path fill="#FFF" fill-rule="nonzero" d="M289.45,159.39 C289.39592,159.387055 289.347,159.356951 289.32,159.31 C289.298845,159.274477 289.293291,159.231797 289.30465,159.192043 C289.316008,159.152288 289.343272,159.118985 289.38,159.1 L296.38,155.03 C296.454889,154.991686 296.546656,155.017906 296.59,155.09 C296.611155,155.125523 296.616709,155.168203 296.60535,155.207957 C296.593992,155.247712 296.566728,155.281015 296.53,155.3 L289.53,159.37 L289.45,159.39 Z"/>
    <path fill="#3E1EC4" fill-rule="nonzero" d="M27.37,209.07 L27.37,202.52 C27.3703093,201.920997 27.0497831,201.367708 26.53,201.07 L20.88,197.78 C20.361336,197.475709 19.718664,197.475709 19.2,197.78 L13.55,201 C13.0302169,201.297708 12.7096907,201.850997 12.71,202.45 L12.71,209 C12.7096907,209.599003 13.0302169,210.152292 13.55,210.45 L19.2,213.74 C19.718664,214.044291 20.361336,214.044291 20.88,213.74 L26.56,210.49 C27.0590553,210.19021 27.3659695,209.652163 27.37,209.07 L27.37,209.07 Z" opacity=".32"/>
    <path fill="#52D2BC" fill-rule="nonzero" d="M27.73,208.44 L27.73,201.9 C27.7297563,201.29853 27.409857,200.742515 26.89,200.44 L21.24,197.15 C20.7202062,196.849897 20.0797938,196.849897 19.56,197.15 L13.88,200.4 C13.3608384,200.699669 13.0378731,201.25061 13.03,201.85 L13.03,208.39 C13.0302437,208.99147 13.350143,209.547485 13.87,209.85 L19.52,213.14 C20.0413995,213.434049 20.6786005,213.434049 21.2,213.14 L26.88,209.88 C27.4020548,209.588173 27.726765,209.038075 27.73,208.44 L27.73,208.44 Z"/>
    <path fill="#FFF" fill-rule="nonzero" d="M13.57,209.5 L13.51,209.5 C12.9580685,209.174241 12.6195573,208.580896 12.62,207.94 L12.62,201.4 C12.6190121,200.758967 12.9627841,200.166915 13.52,199.85 L19.2,196.6 C19.7538279,196.280247 20.4361721,196.280247 20.99,196.6 L26.64,199.89 C27.1972792,200.211745 27.5404126,200.80651 27.54,201.45 C27.5401284,201.480992 27.5271768,201.5106 27.5043307,201.531543 C27.4814845,201.552485 27.4508639,201.562818 27.42,201.56 L27.42,201.56 C27.3592487,201.56 27.31,201.510751 27.31,201.45 C27.3091152,200.890544 27.0124424,200.373268 26.53,200.09 L20.87,196.8 C20.3878935,196.519254 19.7921065,196.519254 19.31,196.8 L13.66,200 C13.1761248,200.276967 12.8782799,200.792467 12.88,201.35 L12.88,207.89 C12.8808848,208.449456 13.1775576,208.966732 13.66,209.25 C13.6820208,209.270782 13.6945017,209.299721 13.6945017,209.33 C13.6945017,209.360279 13.6820208,209.389218 13.66,209.41 C13.6496917,209.454749 13.6147493,209.489692 13.57,209.5 Z"/>
    <polygon fill="#FFF" fill-rule="nonzero" points="24.85 206.33 25.53 205.15 24.85 203.97 24.86 202.61 23.68 201.93 23.01 200.74 21.64 200.74 20.47 200.06 19.29 200.73 17.93 200.73 17.24 201.9 16.06 202.58 16.05 203.94 15.37 205.12 16.05 206.3 16.04 207.66 17.22 208.34 17.89 209.53 19.26 209.53 20.43 210.22 21.61 209.54 22.98 209.54 23.66 208.37 24.84 207.69"/>
    <path fill="#6535FF" fill-rule="nonzero" d="M19,209.42 L17.67,209.42 C17.6272479,209.423518 17.5870141,209.399378 17.57,209.36 L16.91,208.21 L15.76,207.54 C15.7225222,207.520884 15.6992308,207.482065 15.7,207.44 L15.7,206.1 L15,204.94 C14.9803504,204.905966 14.9803504,204.864034 15,204.83 L15.67,203.68 L15.67,202.35 C15.6554495,202.318255 15.6554495,202.281745 15.67,202.25 L16.83,201.59 L17.5,200.44 C17.5191164,200.402522 17.5579354,200.379231 17.6,200.38 L19,200.38 L20.15,199.71 C20.1864778,199.686261 20.2335222,199.686261 20.27,199.71 L21.42,200.37 L22.75,200.37 C22.7920646,200.369231 22.8308836,200.392522 22.85,200.43 L23.51,201.58 L24.66,202.25 C24.7074907,202.26482 24.7409124,202.307406 24.7440193,202.357058 C24.7471263,202.40671 24.7192741,202.45313 24.6740013,202.473755 C24.6287286,202.494379 24.5754247,202.48493 24.54,202.45 L23.37,201.76 L22.73,200.64 L21.36,200.64 L20.24,200 L19.11,200.64 L19.06,200.64 L17.76,200.64 L17.11,201.76 L15.99,202.41 L15.99,203.7 C15.9990059,203.718986 15.9990059,203.741014 15.99,203.76 L15.34,204.88 L15.99,206 C15.9946785,206.019726 15.9946785,206.040274 15.99,206.06 L15.99,207.35 L17.11,208.01 C17.11,208.01 17.11,208.01 17.11,208.01 L17.75,209.13 L19,209.13 C19.0607513,209.13 19.11,209.179249 19.11,209.24 C19.1320627,209.278079 19.1315111,209.325181 19.1085625,209.362733 C19.085614,209.400285 19.0439509,209.422262 19,209.42 Z"/>
    <circle cx="20.4" cy="204.92" r="1.91" fill="#FCCDD3" fill-rule="nonzero"/>
    <path fill="#6535FF" fill-rule="nonzero" d="M19.49,206.81 C19.4641183,206.819151 19.4358817,206.819151 19.41,206.81 C18.7499021,206.30089 18.4748118,205.435741 18.7196547,204.638888 C18.9644977,203.842036 19.6779185,203.280619 20.51,203.23 C21.0470542,203.172657 21.5844699,203.334964 22,203.68 C22.040743,203.725552 22.040743,203.794448 22,203.84 C21.9792183,203.862021 21.9502786,203.874502 21.92,203.874502 C21.8897214,203.874502 21.8607817,203.862021 21.84,203.84 C21.4745268,203.531902 21.0004932,203.383747 20.524618,203.428889 C20.0487428,203.474032 19.6110222,203.708677 19.31,204.08 C18.6849642,204.847152 18.7918643,205.974057 19.55,206.61 C19.5720208,206.630782 19.5845017,206.659721 19.5845017,206.69 C19.5845017,206.720279 19.5720208,206.749218 19.55,206.77 C19.5345739,206.789169 19.5136279,206.803133 19.49,206.81 Z"/>
    <path fill="#6534FF" fill-rule="nonzero" d="M26.92,200.44 L21.27,197.15 C21.0742107,197.042974 20.860847,196.971853 20.64,196.94 C20.5159935,197.190457 20.425226,197.456036 20.37,197.73 C20.2445216,198.675 20.3368772,199.636182 20.64,200.54 C20.9421635,201.442467 21.1958589,202.360444 21.4,203.29 C21.6026749,204.57394 21.4469547,205.888911 20.95,207.09 C20.3,208.65 19.09,209.97 18.63,211.6 C18.5483505,211.90152 18.4914943,212.209212 18.46,212.52 L19.53,213.14 C20.0513995,213.434049 20.6886005,213.434049 21.21,213.14 L26.89,209.88 C27.4113131,209.583832 27.7324066,209.029564 27.73,208.43 L27.73,201.89 C27.7325147,201.29818 27.4252644,200.748164 26.92,200.44 L26.92,200.44 Z" opacity=".32"/>
    <path fill="#FFF" fill-rule="nonzero" d="M21.27,212.52 C21.2304644,212.520828 21.1930588,212.502125 21.17,212.47 C21.1479792,212.449218 21.1354983,212.420279 21.1354983,212.39 C21.1354983,212.359721 21.1479792,212.330782 21.17,212.31 L26.38,209.31 C26.4324671,209.276863 26.5018629,209.292533 26.535,209.345 C26.5681371,209.397467 26.5524671,209.466863 26.5,209.5 L21.28,212.5 L21.27,212.52 Z"/>
    <circle cx="203.92" cy="3.44" r="3.44" fill="#52D2BC" fill-rule="nonzero"/>
    <circle cx="226.4" cy="23.66" r="5.1" fill="#62BCF9" fill-rule="nonzero"/>
    <path fill="#6535FF" fill-rule="nonzero" d="M209.31,239 C208.978119,238.990064 208.700375,238.745166 208.648968,238.417139 C208.597561,238.089113 208.787069,237.770988 209.1,237.66 C211.03,237.05 212.91,236.34 214.84,235.52 C215.069106,235.395332 215.348928,235.410508 215.563208,235.559221 C215.777487,235.707935 215.889596,235.964767 215.852956,236.223009 C215.816316,236.481251 215.63719,236.696761 215.39,236.78 C213.39,237.63 211.49,238.34 209.52,238.97 C209.451747,238.989768 209.381058,238.999866 209.31,239 L209.31,239 Z M220.69,234.13 C220.378763,234.125222 220.109261,233.912649 220.032117,233.611086 C219.954973,233.309523 220.08929,232.993648 220.36,232.84 C222.15,231.84 223.92,230.84 225.61,229.67 C225.760763,229.567858 225.946197,229.530455 226.124766,229.566169 C226.303336,229.601883 226.460119,229.707729 226.56,229.86 C226.676781,230.013788 226.723775,230.209474 226.689567,230.399522 C226.655358,230.58957 226.543077,230.756587 226.38,230.86 C224.65,232.01 222.85,233.1 221.02,234.09 C220.918694,234.144561 220.805045,234.172112 220.69,234.17 L220.69,234.13 Z M231,227.29 C230.795275,227.288183 230.601606,227.19683 230.47,227.04 C230.345097,226.896464 230.285008,226.707722 230.303941,226.518394 C230.322874,226.329067 230.419147,226.15596 230.57,226.04 C232.15,224.75 233.69,223.37 235.12,221.95 C235.250253,221.813036 235.430989,221.7355 235.62,221.7355 C235.809011,221.7355 235.989747,221.813036 236.12,221.95 C236.259675,222.078744 236.339131,222.260042 236.339131,222.45 C236.339131,222.639958 236.259675,222.821256 236.12,222.95 C234.65,224.41 233.12,225.82 231.47,227.14 C231.3363,227.244574 231.16956,227.297789 231,227.29 L231,227.29 Z M239.79,218.59 C239.629604,218.587173 239.474747,218.530861 239.35,218.43 C239.20061,218.312549 239.106272,218.138686 239.089238,217.949419 C239.072204,217.760151 239.133982,217.572238 239.26,217.43 C240.55,215.87 241.79,214.22 242.93,212.53 C243.029881,212.377729 243.186664,212.271883 243.365234,212.236169 C243.543803,212.200455 243.729237,212.237858 243.88,212.34 C244.044666,212.441758 244.159016,212.608003 244.195148,212.798172 C244.23128,212.98834 244.185871,213.18494 244.07,213.34 C242.91,215.06 241.64,216.75 240.32,218.34 C240.181713,218.505019 239.97518,218.597222 239.76,218.59 L239.79,218.59 Z M246.71,208.34 C246.594002,208.339521 246.48018,208.308478 246.38,208.25 C246.218191,208.165152 246.097333,208.01876 246.04466,207.843812 C245.991988,207.668864 246.011932,207.480079 246.1,207.32 C247.1,205.53 247.95,203.67 248.74,201.8 C248.891209,201.45422 249.28931,201.290556 249.64,201.43 C249.809867,201.498518 249.944909,201.632665 250.014554,201.802072 C250.084199,201.97148 250.082557,202.161819 250.01,202.33 C249.205418,204.257464 248.304277,206.143186 247.31,207.98 C247.186919,208.211377 246.941827,208.351429 246.68,208.34 L246.71,208.34 Z M251.47,196.92 C251.404042,196.93375 251.335958,196.93375 251.27,196.92 C251.095279,196.867105 250.949163,196.746181 250.864527,196.584433 C250.779892,196.422686 250.763846,196.233701 250.82,196.06 C251.41,194.13 251.91,192.13 252.32,190.13 C252.353714,189.949861 252.458712,189.790956 252.611199,189.689298 C252.763686,189.58764 252.950751,189.551836 253.13,189.59 C253.502251,189.665365 253.743605,190.027397 253.67,190.4 C253.25,192.4 252.74,194.49 252.13,196.47 C252.024594,196.755902 251.744132,196.938812 251.44,196.92 L251.47,196.92 Z M253.94,184.8 L253.87,184.8 C253.491945,184.758105 253.219098,184.418164 253.26,184.04 C253.47,182.04 253.6,179.97 253.63,177.92 C253.64068,177.545082 253.944966,177.245206 254.32,177.24 L254.32,177.24 C254.698767,177.250826 255.000155,177.561078 255,177.94 C255,180.03 254.83,182.13 254.61,184.19 C254.573397,184.545782 254.267445,184.812397 253.91,184.8 L253.94,184.8 Z M254.15,172.43 C253.789511,172.426175 253.490881,172.149184 253.46,171.79 C253.31,169.73 253.07,167.68 252.74,165.71 C252.690209,165.463261 252.778729,165.208986 252.970979,165.046509 C253.16323,164.884032 253.428703,164.839135 253.66369,164.929359 C253.898676,165.019583 254.065887,165.23061 254.1,165.48 C254.43,167.48 254.68,169.59 254.83,171.69 C254.858798,172.067803 254.577558,172.398148 254.2,172.43 L254.15,172.43 Z"/>
    <rect width="39.14" height="8.74" x="166.5" y="258.03" fill="#62BCF9" fill-rule="nonzero"/>
    <rect width="39.14" height="8.74" x="166.5" y="243.53" fill="#62BCF9" fill-rule="nonzero"/>
    <rect width="39.14" height="8.74" x="166.5" y="229.04" fill="#62BCF9" fill-rule="nonzero"/>
  </g>
</svg>
