<svg xmlns="http://www.w3.org/2000/svg" width="300" height="300"><g fill="none" fill-rule="evenodd" transform="translate(1 17)"><circle cx="141.64" cy="129.12" r="125.36" fill="#52D2BC" fill-rule="nonzero"/><path fill="#4A23E8" fill-rule="nonzero" d="M96.94 175.79s29.71-5.79 43.49-5.79c13.78 0 39.86 5.79 39.86 5.79l-2.9 35.52-74.66 14.5L96.94 178"/><path fill="#2B0FD3" fill-rule="nonzero" d="M96.94 175.79s29.71-5.79 43.49-5.79c13.78 0 39.86 5.79 39.86 5.79l-2.9 35.52-74.66 14.5L96.94 178" opacity=".46"/><path fill="#6535FF" fill-rule="nonzero" d="M151.28 46.13c5.34 2.36 14.12 1.09 20 2.62 5.65 1.47 12.35 3.89 15.31 9.35 6.58 12.16 21.27 23.81 16.21 37.49-5.06 13.68-6.59 16.22-6.59 21.79s4.56 21.79-4.05 27.36S180 150.82 176 154.87c-4 4.05-12.67 4.56-14.7 4-2.03-.56-54.24-3-54.71-3-18.15-.88-36-17.61-42.08-33.76a9.15 9.15 0 0 1-.78-4.53c.48-3 3.48-4.86 5.77-6.9 4.57-4.1 6.84-10.1 9-15.86a10 10 0 0 0 .79-3.82c-.22-4.85-7-7.49-7-12.34s6.12-6.66 8.5-10.72c2.54-4.31.32-9.75.49-14.75.19-6 4.1-10.86 9.07-13.84 6.89-4.13 14.84-6.78 22.94-6.29 7.09.42 12.62 5.93 19.59 6.07 2.27 0 4.53-.62 6.78-.37 3.61.4 6.51 3 9.15 5.53a8.78 8.78 0 0 0 2.28 1.71l.19.13Z"/><path fill="#FFF" fill-rule="nonzero" d="m167.96 148.12 1 44.2-4.61 35.25-53.99-16.55-.18-66.51z"/><path fill="#F9879A" fill-rule="nonzero" d="m100.39 242.19 11.53-57.96h54.52l13.74 54.22z"/><path fill="#4A23E8" fill-rule="nonzero" d="M180.6 186s-16.28 30-41.6 30-47.18-25-47.18-25A339.72 339.72 0 0 0 42 205.13a125.33 125.33 0 0 0 189.43 11.49C206.36 201.3 180.6 186 180.6 186Z"/><path fill="#F9879A" fill-rule="nonzero" d="M114.18 193.57s-4.43 11.72-2.25 15.83c2.18 4.11 13.4 6.61 15.89 9.1 2.49 2.49 13.71 5 15 3.74 1.29-1.26 8.73-2.49 10-5 1.27-2.51 9.86-10.24 9.86-10.24L160 195.37l-45.82-1.8Z"/><path fill="#2B0FD3" fill-rule="nonzero" d="M111.93 209.4c1.67 3.17 8.7 5.37 13 7.36a25.88 25.88 0 0 0-.56-3.85c-.84-3.75-2.23-7.41-2.38-11.24-.1-2.56.29-5.31 0-7.8l-7.77-.3s-4.47 11.72-2.29 15.83Z" opacity=".46"/><path fill="#FCCDD3" fill-rule="nonzero" d="M120.13 201.89h36.97v8.93h-36.97z"/><path fill="#2B0FD3" fill-rule="nonzero" d="M126.65 195.37h23.92v18.12h-23.92zM110.18 144.51l57.82 3.61-.24 15.53c-7.92 12.56-18.18 17-32.26 17-11.67 0-17.3-4.16-25.1-13.23l-.22-22.91Z" opacity=".46"/><path fill="#FCCDD3" fill-rule="nonzero" d="m102.88 189.53 4.99-23.39 21.43 17.51 1.01 16.79z"/><path fill="#2B0FD3" fill-rule="nonzero" d="M120.5 190c-1.57-2.12-4.32-3.09-6-5.16-2.45-3.09-3.83-12-8.3-11.12l-3.37 15.81 19.19 7.63c.12-2.6-.02-5.16-1.52-7.16Z" opacity=".46"/><path fill="#FCCDD3" fill-rule="nonzero" d="m175.2 189.53-4.99-23.39-21.43 17.51-1.01 16.79z"/><ellipse cx="174.93" cy="108.4" fill="#FFF" fill-rule="nonzero" rx="10.83" ry="14.44"/><path fill="#FFF" fill-rule="nonzero" d="M97.11 121.2c4 28.55 14.45 52.2 38.43 52.2s39.68-23.37 39.68-52.2c0-63-15.7-59.61-39.68-59.44-31.39.24-49.48-18.61-38.43 59.44Z"/><path fill="#2B0FD3" fill-rule="nonzero" d="M120.24 158.23c-5.53-8.27-13.94-14.64-17.84-23.79-3-7-3-14.88-1.27-22.24 1.28-5.49 3.49-10.84 3.57-16.48.09-5.91-7.22-16.07-9.94-21.4-2 7.86-.72 23.92 2.35 46.72 3.38 25 11 46.25 29.63 51.23a54.68 54.68 0 0 0-6.5-14.04Z" opacity=".46"/><path fill="#6535FF" fill-rule="nonzero" d="M84.51 52.7c.27.4 26.24-8.17 28.33-8.87a55.13 55.13 0 0 1 17.24-3.24 44.35 44.35 0 0 1 17.49 3.81 68.8 68.8 0 0 1 9.92 5.47c1.84 1.18 4 1.92 3 3.38-1.07 1.67-4.78 3.46-6.87 4.66a66.9 66.9 0 0 1-34 8.42C93.57 65.8 84.53 52.74 84.51 52.7Z"/><path fill="#2B0FD3" fill-rule="nonzero" d="M149.45 57.17c-3.2-.1-6.39.44-9.59.29-5.32-.25-10.18-2.41-15.5-2.14a31.6 31.6 0 0 0-7.36 1.56C110 59 102.51 61 94.82 60.71c5.55 2.84 13.62 5.39 24.86 5.62A66.81 66.81 0 0 0 153.54 58a11.07 11.07 0 0 0-4.09-.83Z" opacity=".46"/><path fill="#4A23E8" fill-rule="nonzero" d="m79.41 218.96 17.24-43.08 18.7 18.7-7.48 39.93z"/><path fill="#4A23E8" fill-rule="nonzero" d="M180.6 186s-16.28 30-41.6 30-47.18-25-47.18-25A339.72 339.72 0 0 0 42 205.13a125.33 125.33 0 0 0 189.43 11.49C206.36 201.3 180.6 186 180.6 186Z"/><path fill="#4A23E8" fill-rule="nonzero" d="m79.41 218.96 17.24-43.08 18.7 18.7-7.48 39.93z"/><path fill="#2B0FD3" fill-rule="nonzero" d="M96.07 240.42c-1.29-4.28.21-9 2.57-12.76s5.54-7 8.08-10.72c1.28-1.86 2.43-4 2.07-6.27-.36-2.27-2.13-3.92-3.53-5.7-1.4-1.78-2.48-4.29-1.34-6.25.36-.61.91-1.11 1.21-1.75 1-2.21-1.31-4.36-2.42-6.51-.86-1.66-1-3.58-1.39-5.41a19.88 19.88 0 0 0-4.69-9.12l-6.15 15.37A339.56 339.56 0 0 0 42 205.13a125.61 125.61 0 0 0 58.19 42.3c-1.65-2.22-3.35-4.43-4.12-7.01Z" opacity=".46"/><path fill="#4A23E8" fill-rule="nonzero" d="m157.74 192.09 5.4 54.66 32-19.71-14.96-51.16z"/><path fill="#6535FF" fill-rule="nonzero" d="M170.54 78.1a27.85 27.85 0 0 0 .45 5.63 135.15 135.15 0 0 0 7.38 18.79c1.65 3.25 1.95 7.09 3.87 10.19a11.38 11.38 0 0 0 10.53 5.29c1.2-3.75.17-7.84-1.25-11.51s-3.22-7.28-3.62-11.19c-.4-3.91.55-15-1.07-18.48-1.62-3.48-5.13-5.2-8.46-6.82-2-1-8.05-5.41-9.85-2.67-.81 1.2 1.94 8.81 2.02 10.77Z"/><path stroke="#6534FF" stroke-linecap="round" stroke-linejoin="round" stroke-width="1.45" d="m120.05 176.09 9.5 6.95.73 17.4"/><path fill="#6535FF" fill-rule="nonzero" d="m120.58 142.1-.46-1.72a1.94 1.94 0 0 1 1.41-2.39 60.26 60.26 0 0 1 21-1.11 1.94 1.94 0 0 1 1.65 2.24l-.28 1.75a1.94 1.94 0 0 1-2.18 1.62 54.36 54.36 0 0 0-9.37-.33 55.38 55.38 0 0 0-9.41 1.32 2 2 0 0 1-2.36-1.38Z"/><path fill="#6535FF" fill-rule="nonzero" d="m126.57 140 2.86-4.11a3 3 0 0 1 2.13-.88 3 3 0 0 1 2.13.88l2.86 4.11h-9.98Z"/><path stroke="#3817C6" stroke-linecap="round" stroke-width="2.49" d="M130.31 147.44h1.25"/><path stroke="#3817C6" stroke-linecap="round" stroke-width="2.49" d="M136.75 119.13A19.63 19.63 0 0 0 149.51 133m-25.57-10.9a13.45 13.45 0 0 1-3 4.69 14.34 14.34 0 0 1-9.21 4" opacity=".1"/><path stroke="#3817C6" stroke-linecap="round" stroke-width="3.62" d="M98 105.85a14.27 14.27 0 0 1 3.63-2.18 13.44 13.44 0 0 1 2.76-.8c2.59-.49 8.52-1.66 16.45-3.18m44.23 6.16a14.18 14.18 0 0 0-3.62-2.18 13.62 13.62 0 0 0-2.76-.8c-2.59-.49-8.52-1.66-16.45-3.18"/><path fill="#3E1EC4" fill-rule="nonzero" d="M54.35 171.73v-9.93a2.54 2.54 0 0 0-1.27-2.21l-8.61-5a2.58 2.58 0 0 0-2.55 0l-8.6 5A2.55 2.55 0 0 0 32 161.8v9.93a2.56 2.56 0 0 0 1.28 2.21l8.6 5c.79.45 1.76.45 2.55 0l8.61-5a2.55 2.55 0 0 0 1.31-2.21Z" opacity=".32"/><path fill="#F9879A" fill-rule="nonzero" d="M54.89 170.78v-9.93a2.54 2.54 0 0 0-1.27-2.21l-8.6-5a2.58 2.58 0 0 0-2.55 0l-8.61 5a2.54 2.54 0 0 0-1.27 2.21v9.93a2.54 2.54 0 0 0 1.27 2.22l8.61 5a2.58 2.58 0 0 0 2.53 0l8.6-5a2.54 2.54 0 0 0 1.29-2.22Z"/><path fill="#FFF" fill-rule="nonzero" d="M33.4 172.47a.16.16 0 0 1-.09 0 2.71 2.71 0 0 1-1.31-2.38v-9.94a2.73 2.73 0 0 1 1.36-2.36l8.6-5a2.77 2.77 0 0 1 2.73 0l8.6 5a2.73 2.73 0 0 1 1.36 2.36.17.17 0 0 1-.34 0 2.4 2.4 0 0 0-1.19-2.06l-8.61-5a2.34 2.34 0 0 0-2.37 0l-8.61 5a2.39 2.39 0 0 0-1.18 2.06v9.94a2.37 2.37 0 0 0 1.18 2 .17.17 0 0 1 .07.24.16.16 0 0 1-.2.14Z"/><path fill="#FFF" fill-rule="nonzero" d="m50.5 167.59 1.03-1.79-1.03-1.79v-2.07l-1.79-1.03-1.04-1.79h-2.06l-1.79-1.04-1.79 1.04h-2.07l-1.03 1.79-1.79 1.03v2.07l-1.04 1.79 1.04 1.79v2.07l1.79 1.03 1.03 1.79h2.07l1.79 1.03 1.79-1.03h2.06l1.04-1.79 1.79-1.03z"/><path fill="#6535FF" fill-rule="nonzero" d="M41.68 172.3h-2.07a.18.18 0 0 1-.15-.08l-1-1.75-1.75-1a.18.18 0 0 1-.08-.15v-2l-1-1.75a.19.19 0 0 1 0-.18l1-1.75v-2c0-.06.03-.117.08-.15l1.75-1 1-1.75a.18.18 0 0 1 .15-.08h2l1.75-1a.19.19 0 0 1 .18 0l1.75 1h2c.06 0 .117.03.15.08l1 1.75 1.75 1a.18.18 0 0 1 .06.24.18.18 0 0 1-.24.06l-1.79-1-.06-.06-1-1.71h-2a.15.15 0 0 1-.09 0l-1.7-1-1.7 1a.15.15 0 0 1-.09 0h-2l-1 1.71-.06.06-1.71 1v2c.01.03.01.06 0 .09l-1 1.7 1 1.7c.01.03.01.06 0 .09v2l1.71 1 .06.06 1 1.71h2a.17.17 0 0 1 0 .34l.1-.18Z"/><circle cx="43.74" cy="165.47" r="2.9" fill="#62BCF9" fill-rule="nonzero"/><path fill="#6535FF" fill-rule="nonzero" d="M42.36 168.35a.19.19 0 0 1-.11 0 3.08 3.08 0 0 1 3.91-4.76.18.18 0 0 1 0 .25.17.17 0 0 1-.24 0 2.73 2.73 0 1 0-3.44 4.16.19.19 0 0 1 0 .25.18.18 0 0 1-.12.1Z"/><path fill="#6534FF" fill-rule="nonzero" d="m53.62 158.64-8.6-5a2.59 2.59 0 0 0-1-.32 4.5 4.5 0 0 0-.39 1.21 9.28 9.28 0 0 0 .41 4.27 35.66 35.66 0 0 1 1.2 4.2 10.58 10.58 0 0 1-.65 5.78c-1 2.37-2.81 4.37-3.5 6.85a8.39 8.39 0 0 0-.25 1.4l1.63.94A2.58 2.58 0 0 0 45 178l8.6-5a2.54 2.54 0 0 0 1.27-2.21v-9.93a2.54 2.54 0 0 0-1.25-2.22Z" opacity=".32"/><path fill="#FFF" fill-rule="nonzero" d="M45.1 177a.16.16 0 0 1-.15-.09.16.16 0 0 1 .06-.23l7.9-4.65a.175.175 0 1 1 .18.3L45.18 177h-.08zm207.72-80.34a2.62 2.62 0 0 1-1.67-.61l-8.35-7a2.6 2.6 0 0 1-.93-2V72.11a1.12 1.12 0 0 1 .77-1.06 32.26 32.26 0 0 1 20.37 0c.454.154.76.58.76 1.06v14.94a2.6 2.6 0 0 1-.93 2l-8.35 7a2.6 2.6 0 0 1-1.67.61z"/><path fill="#52D2BC" fill-rule="nonzero" d="m254.4 85.6-3.53-2.18 3.47 4.98 3.66-4.85z"/><path fill="#6535FF" fill-rule="nonzero" d="m254.34 88.44-3.47-5 3.5 2.16 3.58-2-3.66 4.84h.05ZM251 83.56l3.32 4.77 3.51-4.65-3.44 1.95-3.39-2.07Z"/><path fill="#52D2BC" fill-rule="nonzero" d="M250.9 82.51h.01l3.5 2.05 3.51-1.92h.02l-.01-.01.02-.01-3.39-5.99-3.67 5.86.02.01z"/><path fill="#6535FF" fill-rule="nonzero" d="m254.41 84.6-3.49-2 3.67-5.86 3.39 6-3.5 1.92-.07-.06ZM251 82.48l3.46 2 3.48-1.91-3.33-5.9-3.61 5.81Z"/><path fill="#6535FF" fill-rule="nonzero" d="M264.26 71.66a31.92 31.92 0 0 0-20.26 0 2.07 2.07 0 0 0-1.43 2V88a3.52 3.52 0 0 0 1.26 2.69l8 6.75a3.51 3.51 0 0 0 4.52 0l8-6.75a3.54 3.54 0 0 0 1.33-2.69V73.63a2.07 2.07 0 0 0-1.42-1.97Zm.41 16.34a2.46 2.46 0 0 1-.89 1.91l-8 6.76a2.52 2.52 0 0 1-3.22 0l-8-6.76a2.47 2.47 0 0 1-.9-1.91V73.63a1.08 1.08 0 0 1 .74-1 31.06 31.06 0 0 1 19.62 0c.43.147.72.546.73 1L264.67 88Z"/><path fill="#BBC4EF" fill-rule="nonzero" d="M265.68 88V73.63a2.07 2.07 0 0 0-1.42-2 31.81 31.81 0 0 0-8.33-1.6 11.52 11.52 0 0 1 1.84 4.3c.352 1.867.54 3.76.56 5.66a12.52 12.52 0 0 1-.13 3.06c-.5 2.43-2.35 4.35-3.24 6.67a11.25 11.25 0 0 0-.43 6c.146.82.346 1.628.6 2.42a3.6 3.6 0 0 0 1.26-.68l8-6.75a3.54 3.54 0 0 0 1.29-2.71Z" opacity=".44"/><path fill="#070707" fill-rule="nonzero" d="m246.45 86.56-5.3-1.46a.75.75 0 0 1-.75-.75v-2.69a.75.75 0 0 1 .75-.74l5.3 1.46a.32.32 0 0 1 .23.54l-1.91.61a.32.32 0 0 0 0 .43l1.91 2.04a.32.32 0 0 1-.23.56zm15.32-4.12 5.3-1.42a.74.74 0 0 1 .74.75v2.69a.75.75 0 0 1-.75.74l-5.3 1.42a.32.32 0 0 1-.23-.54l1.9-2a.31.31 0 0 0 0-.43l-1.9-.62a.33.33 0 0 1 .24-.59z" opacity=".18"/><path fill="#FCCDD3" fill-rule="nonzero" d="M246.45 85.12h-5.3a.75.75 0 0 1-.75-.75v-4.13a.74.74 0 0 1 .75-.74h5.3a.31.31 0 0 1 .23.53l-1.91 2a.33.33 0 0 0 0 .44l1.89 2.06a.32.32 0 0 1-.21.59zm15.32-5.56h5.3a.73.73 0 0 1 .74.75v4.13a.75.75 0 0 1-.75.74h-5.3a.32.32 0 0 1-.23-.54l1.9-2a.31.31 0 0 0 0-.43l-1.9-2.07a.32.32 0 0 1 .24-.58z"/><path fill="#6535FF" fill-rule="nonzero" d="M246 85.91h-5.3a1 1 0 0 1-.68-.28 1 1 0 0 1-.28-.68v-4.13a.22.22 0 0 1 .22-.22.21.21 0 0 1 .21.22v4.13a.51.51 0 0 0 .15.37c.097.1.23.159.37.16h5.3a.1.1 0 0 0 .08-.17l-1.89-2.07a.22.22 0 0 1 0-.31.23.23 0 0 1 .31 0l1.92 2.07a.52.52 0 0 1 .09.58.51.51 0 0 1-.5.33zm20.62.09h-5.31a.51.51 0 0 1-.48-.32.52.52 0 0 1 .1-.58l1.9-2a.1.1 0 0 0 0-.14l-1.89-2.07a.22.22 0 0 1 .32-.29l1.89 2.07a.53.53 0 0 1 0 .72l-1.91 2.06a.1.1 0 0 0 0 .11.11.11 0 0 0 .1.06h5.3a.21.21 0 0 1 .21.22.21.21 0 0 1-.23.16z"/><path fill="#BBC4EF" fill-rule="nonzero" d="M252.52 95.75a.24.24 0 0 1-.14 0l-7.21-6.06a.21.21 0 0 1 0-.3.22.22 0 0 1 .3 0l7.21 6.06a.22.22 0 0 1 0 .3.23.23 0 0 1-.16 0Z"/><path fill="#3E1EC4" fill-rule="nonzero" d="M245.6 158.69a2.54 2.54 0 0 0-2.54-2.54h-.14.13a2.54 2.54 0 0 0-1.9-4.71 2.55 2.55 0 0 0-1.05-4.14 2.6 2.6 0 0 0-2.59.63l-.08.1a.61.61 0 0 1 0-.12 2.54 2.54 0 1 0-4.67-2 2.54 2.54 0 0 0-5.08.06v.03-.13a2.56 2.56 0 0 0-4-.94l-.25.25a2.57 2.57 0 0 0-.44 2.59 2.53 2.53 0 0 0-2.55-.58 2.55 2.55 0 0 0-.99 4.22l.1.09-.12-.06a2.54 2.54 0 1 0-2 4.67 2.54 2.54 0 1 0 .07 5.08h.13-.12a2.54 2.54 0 0 0 1 4.89 2.46 2.46 0 0 0 .91-.18 2.55 2.55 0 0 0 .73 4c.105.059.215.106.33.14a2.56 2.56 0 0 0 2.58-.63l.09-.1a.61.61 0 0 0-.05.12 2.54 2.54 0 0 0 .68 2.9l-3.13 6.67a.44.44 0 0 0 .52.62l3.34-.93a.44.44 0 0 1 .52.24l1.52 3.27a.44.44 0 0 0 .8 0l2.92-6.15 2.91 6.15a.45.45 0 0 0 .81 0l1.51-3.27a.45.45 0 0 1 .53-.24l3.34.93a.45.45 0 0 0 .52-.62l-3.09-6.52.08-.06c.09-.07.17-.15.24-.24a2.57 2.57 0 0 0 .44-2.59 2.56 2.56 0 0 0 2.88.45 2.55 2.55 0 0 0 .67-4.08.81.81 0 0 0-.1-.09l.12.05a2.54 2.54 0 0 0 3.32-1.38 2.54 2.54 0 0 0-1.33-3.29 2.55 2.55 0 0 0 2.48-2.56Z" opacity=".32"/><path fill="#F9879A" fill-rule="nonzero" d="m240.75 179-3.34-.93a.46.46 0 0 0-.53.25l-1.51 3.26a.45.45 0 0 1-.81 0l-4.17-8.81a.45.45 0 0 1 .21-.6l5.91-2.8a.46.46 0 0 1 .6.21l4.16 8.79a.44.44 0 0 1-.52.63Z"/><path fill="#F9879A" fill-rule="nonzero" d="m222.55 179 3.34-.93a.44.44 0 0 1 .52.25l1.52 3.26a.44.44 0 0 0 .8 0l4.18-8.81a.45.45 0 0 0-.21-.6l-5.91-2.8a.46.46 0 0 0-.6.21l-4.19 8.8a.44.44 0 0 0 .55.62Z"/><path fill="#6534FF" fill-rule="nonzero" d="m232.7 172.18-1-.47a3.31 3.31 0 0 1-1.08 2.66c-.58.52-1.33.81-1.94 1.29a7.93 7.93 0 0 0-1.38 1.57 4.38 4.38 0 0 0-.56 1 2.9 2.9 0 0 0-.12.6l1.3 2.79a.44.44 0 0 0 .8 0l4.18-8.81a.45.45 0 0 0-.2-.63zm4.41-2.59a.44.44 0 0 0-.47-.24 6.61 6.61 0 0 0 0 .89 19.82 19.82 0 0 1-.18 3.61 4.19 4.19 0 0 0 0 1.69c.31 1.09 1.46 1.66 2.37 2.34.333.253.644.534.93.84l1 .28a.44.44 0 0 0 .52-.62l-4.17-8.79z" opacity=".32"/><path fill="#6534FF" fill-rule="nonzero" d="M235.46 166a3.25 3.25 0 0 0-2.43 1.1 3.16 3.16 0 0 0-1.47-.36 3.31 3.31 0 0 0-1.22.24 3.22 3.22 0 0 0-2.31-1 3.53 3.53 0 0 0 0 7.06 3 3 0 0 0 1.21-.25 3.21 3.21 0 0 0 4.75-.12c.453.24.957.367 1.47.37a3.53 3.53 0 0 0 0-7.06v.02Z" opacity=".32"/><path fill="#FFF" fill-rule="nonzero" d="M247 158.1a2.54 2.54 0 0 0-2.54-2.54h-.14.13a2.54 2.54 0 0 0-1.9-4.71 2.55 2.55 0 0 0-1.05-4.14 2.57 2.57 0 0 0-2.59.63l-.08.09a.37.37 0 0 0 .05-.11 2.54 2.54 0 1 0-4.67-2 2.54 2.54 0 0 0-5.08.06v.13a.56.56 0 0 0 0-.12 2.56 2.56 0 0 0-4-.94 1.88 1.88 0 0 0-.24.25 2.53 2.53 0 0 0-.44 2.58 2.58 2.58 0 0 0-2.56-.57 2.26 2.26 0 0 0-.33.13 2.55 2.55 0 0 0-.66 4.08.81.81 0 0 0 .1.09l-.12-.05a2.54 2.54 0 1 0-2 4.67 2.54 2.54 0 0 0 .06 5.08h.06l-.12.05a2.54 2.54 0 0 0-1.38 3.24 2.55 2.55 0 0 0 2.35 1.57c.315 0 .628-.062.92-.18a2.55 2.55 0 0 0 1.05 4.14 2.57 2.57 0 0 0 2.58-.63.81.81 0 0 0 .09-.1s0 .08-.05.12a2.56 2.56 0 0 0 .31 2.5c.14.19.31.36.5.5a2.55 2.55 0 0 0 3.86-1.01 2.54 2.54 0 0 0 5.08-.06.66.66 0 0 0 0-.14v.13a2.55 2.55 0 0 0 2.35 1.56 2.61 2.61 0 0 0 1.68-.63 2 2 0 0 0 .25-.25 2.55 2.55 0 0 0 .43-2.58 2.56 2.56 0 0 0 2.56.58 2.55 2.55 0 0 0 .99-4.22l-.1-.09.12.06a2.5 2.5 0 0 0 1 .19 2.51 2.51 0 0 0 2.35-1.57 2.54 2.54 0 0 0-1.33-3.29 2.55 2.55 0 0 0 2.51-2.5Z"/><path fill="#62BCF9" fill-rule="nonzero" d="M220.89 169.47h-.08a2.5 2.5 0 0 1-.38-.15 2.87 2.87 0 0 1-1.53-2.06 2.83 2.83 0 0 1 .28-1.79 2.82 2.82 0 0 1-2-5 2.81 2.81 0 0 1-.07-5.4 2.87 2.87 0 0 1-.82-3.25 2.82 2.82 0 0 1 2.94-1.73 2.77 2.77 0 0 1-.33-1.81 2.85 2.85 0 0 1 1.53-2.09 1.73 1.73 0 0 1 .37-.16 2.84 2.84 0 0 1 2.2.19 2.81 2.81 0 0 1 .66-2.11 2.86 2.86 0 0 1 2.81-.9 2.82 2.82 0 0 1 1.54 1 2.82 2.82 0 0 1 5.41-.07 2.81 2.81 0 0 1 4.77.7c.187.445.26.93.21 1.41a2.89 2.89 0 0 1 2.24-.23 1.8 1.8 0 0 1 .38.16 2.84 2.84 0 0 1 1.25 3.85 2.81 2.81 0 0 1 2 5 2.83 2.83 0 0 1 2.06 2.72.28.28 0 1 1-.56 0 2.27 2.27 0 0 0-2.26-2.27h-.13a.28.28 0 0 1-.28-.23.28.28 0 0 1 .19-.31h.1a2.264 2.264 0 1 0-1.69-4.2.27.27 0 0 1-.33-.1.29.29 0 0 1 0-.35 2.27 2.27 0 0 0 .59-1.94 2.3 2.3 0 0 0-1.24-1.66 1.62 1.62 0 0 0-.28-.11 2.27 2.27 0 0 0-2.31.55v.06a.28.28 0 0 1-.37.06.25.25 0 0 1-.11-.33l.05-.11a2.3 2.3 0 0 0 0-1.73 2.26 2.26 0 0 0-4.15-.04.29.29 0 0 1-.31.16.29.29 0 0 1-.23-.27 2.26 2.26 0 1 0-4.52.06v.12a.28.28 0 0 1-.23.29.3.3 0 0 1-.31-.19.76.76 0 0 0 0-.11 2.26 2.26 0 0 0-1.56-1.32 2.29 2.29 0 0 0-2 .49 2.18 2.18 0 0 0-.21.22 2.25 2.25 0 0 0-.39 2.3.28.28 0 0 1-.11.33.27.27 0 0 1-.34 0 2.3 2.3 0 0 0-2.29-.52 1.11 1.11 0 0 0-.27.12 2.29 2.29 0 0 0-1.24 1.69 2.25 2.25 0 0 0 .64 1.94v.05a.31.31 0 0 1 .07.38.27.27 0 0 1-.34.11h-.11a2.26 2.26 0 0 0-1.77 4.16.28.28 0 0 1 .16.31.3.3 0 0 1-.27.23 2.26 2.26 0 1 0 .06 4.52h.02a.27.27 0 0 1 .3.22.28.28 0 0 1-.18.32h-.11a2.264 2.264 0 1 0 1.69 4.2.28.28 0 0 1 .33.11c.08.1.08.24 0 .34a2.27 2.27 0 0 0 .65 3.6c.089.05.183.09.28.12a.27.27 0 0 1 .19.34.29.29 0 0 1-.26.11Z"/><circle cx="231.56" cy="158.19" r="11.89" fill="#BBC4EF" fill-rule="nonzero" opacity=".32"/><path fill="#BBC4EF" fill-rule="nonzero" d="M220.59 154.79h-.09a.28.28 0 0 1-.18-.35 11.39 11.39 0 0 1 1.64-3.22c3.756-5.195 11.009-6.368 16.21-2.62a.27.27 0 0 1 .06.39.28.28 0 0 1-.39.06c-4.952-3.566-11.857-2.448-15.43 2.5a11.2 11.2 0 0 0-1.56 3.06.28.28 0 0 1-.26.18Z"/><path fill="#6534FF" fill-rule="nonzero" d="M247 158.1a2.54 2.54 0 0 0-2.54-2.54h-.14.13a2.54 2.54 0 0 0-1.9-4.71 2.55 2.55 0 0 0-1.05-4.14 2.57 2.57 0 0 0-2.59.63l-.08.09a.37.37 0 0 0 .05-.11 2.43 2.43 0 0 0 .16-1.32 5.17 5.17 0 0 0-1.04 1.8 16.09 16.09 0 0 0-.34 2.19 10.05 10.05 0 0 1-1.66 4.21c-1.38 2.05-3.53 3.61-4.41 5.92-.73 1.91-.48 4-.45 6.09a26.72 26.72 0 0 1-.8 6.84c.395.248.853.38 1.32.38a2.54 2.54 0 0 0 2.54-2.54.66.66 0 0 0 0-.14v.13a2.55 2.55 0 0 0 2.35 1.56 2.61 2.61 0 0 0 1.68-.63 2 2 0 0 0 .25-.25 2.55 2.55 0 0 0 .43-2.58 2.56 2.56 0 0 0 2.56.58 2.55 2.55 0 0 0 .99-4.22l-.1-.09.12.06a2.5 2.5 0 0 0 1 .19 2.51 2.51 0 0 0 2.35-1.57 2.54 2.54 0 0 0-1.33-3.29 2.55 2.55 0 0 0 2.5-2.54zM46.57 63.29l-1.93-3.35-.14-3.86a5.36 5.36 0 0 0-2.85-4.54L39 50.12l-1.52-2.63a5.38 5.38 0 0 0-4.68-2.69h-3.86L25.52 43a5.35 5.35 0 0 0-5.36.19l-2.57 1.61h-3a5.36 5.36 0 0 0-4.64 2.69L8 50.83l-3.3 2.06a5.37 5.37 0 0 0-2.51 4.74l.11 3-1.52 2.66a5.37 5.37 0 0 0 0 5.37L2.71 72l.15 3.86a5.36 5.36 0 0 0 2.85 4.55l2.68 1.42 1.52 2.63a5.35 5.35 0 0 0 4.64 2.68h3.21v8.69a.73.73 0 0 0 1.2.56l4.55-3.79a.73.73 0 0 1 .95 0l4.31 3.73a.74.74 0 0 0 1.23-.54v-8.65h2.8a5.37 5.37 0 0 0 4.65-2.68l1.93-3.35 3.27-2a5.37 5.37 0 0 0 2.52-4.74l-.11-3 1.51-2.63a5.37 5.37 0 0 0 0-5.45z" opacity=".32"/><path fill="#62BCF9" fill-rule="nonzero" d="m31.83 94.81-4.31-3.73a.73.73 0 0 0-.95 0L22 94.86a.74.74 0 0 1-1.21-.56v-9.93a.74.74 0 0 1 .74-.73h10.78a.73.73 0 0 1 .73.73v9.89a.73.73 0 0 1-1.21.55Z"/><ellipse cx="26.93" cy="82.57" fill="#6534FF" fill-rule="nonzero" opacity=".32" rx="6.73" ry="6.27"/><path fill="#BBC4EF" fill-rule="nonzero" d="m49.63 61.76-1.93-3.34-.14-3.86A5.38 5.38 0 0 0 44.71 50L42 48.59 40.51 46a5.37 5.37 0 0 0-4.65-2.68H32l-3.41-1.81a5.38 5.38 0 0 0-5.36.19l-2.57 1.62h-3A5.37 5.37 0 0 0 13 46l-2 3.31-3.27 2a5.36 5.36 0 0 0-2.48 4.79l.11 3-1.52 2.66a5.37 5.37 0 0 0 0 5.37l1.93 3.35.14 3.86a5.36 5.36 0 0 0 2.85 4.54l2.69 1.42L13 82.93a5.38 5.38 0 0 0 4.65 2.69h3.86l3.42 1.8a5.35 5.35 0 0 0 5.36-.19l2.57-1.61h3a5.38 5.38 0 0 0 4.65-2.69l1.93-3.34 3.27-2.06a5.35 5.35 0 0 0 2.51-4.74l-.11-3 1.52-2.63a5.37 5.37 0 0 0 0-5.4Z"/><path fill="#6534FF" fill-rule="nonzero" d="M26.48 87.28a5.82 5.82 0 0 1-2.72-.67l-3.32-1.76h-3.75a5.83 5.83 0 0 1-5-2.91l-1.49-2.52-2.57-1.35a5.84 5.84 0 0 1-3.09-4.94l-.14-3.75-1.87-3.24a5.84 5.84 0 0 1 0-5.83L4 57.8l-.11-2.9a5.82 5.82 0 0 1 2.71-5.15l3.17-2 1.88-3.25a5.84 5.84 0 0 1 5-2.92h2.95l2.46-1.54a5.85 5.85 0 0 1 5.82-.21l3.31 1.75h3.75A5.85 5.85 0 0 1 40 44.51L41.44 47 44 48.38a5.84 5.84 0 0 1 3.1 4.93.46.46 0 0 1-.44.48.45.45 0 0 1-.46-.44 4.91 4.91 0 0 0-2.61-4.16l-2.68-1.42a.45.45 0 0 1-.18-.18L39.19 45a4.91 4.91 0 0 0-4.25-2.46h-3.86a.54.54 0 0 1-.22 0l-3.41-1.81a4.92 4.92 0 0 0-4.91.18L20 42.44a.42.42 0 0 1-.24.07h-3A4.93 4.93 0 0 0 12.44 45l-1.93 3.34a.46.46 0 0 1-.15.16l-3.28 2.03a4.89 4.89 0 0 0-2.29 4.33l.11 3a.51.51 0 0 1-.06.25l-1.52 2.66a4.94 4.94 0 0 0 0 4.91L5.25 69a.43.43 0 0 1 .06.22l.15 3.86a4.93 4.93 0 0 0 2.6 4.16l2.68 1.42a.44.44 0 0 1 .19.17l1.51 2.63a4.94 4.94 0 0 0 4.25 2.45h3.87a.39.39 0 0 1 .21.06l3.42 1.81a4.91 4.91 0 0 0 4.9-.19.48.48 0 0 1 .64.15.46.46 0 0 1-.15.63 5.84 5.84 0 0 1-3.1.91Z"/><path fill="#6534FF" fill-rule="nonzero" d="m47.7 58.42-.14-3.86A5.38 5.38 0 0 0 44.71 50L42 48.59 40.51 46a5.37 5.37 0 0 0-4.65-2.68H32l-.79-.42a43.47 43.47 0 0 1 .1 4.85A8.15 8.15 0 0 0 33 53.26a24.43 24.43 0 0 0 2.32 1.85 8.63 8.63 0 0 1 3 7.53c-.3 2.51-1.71 4.82-1.79 7.35-.08 2.53 1.31 5.17 1.39 7.82a8 8 0 0 1-1.33 4.62c-.74 1.12-1.76 2-2.45 3.19h1.65a5.38 5.38 0 0 0 4.65-2.69l1.93-3.34 3.27-2.06a5.35 5.35 0 0 0 2.51-4.74l-.11-3 1.52-2.63a5.37 5.37 0 0 0 0-5.37l-1.86-3.37Z" opacity=".32"/><ellipse cx="26.01" cy="78.75" fill="#6534FF" fill-rule="nonzero" opacity=".32" rx="16.51" ry="2.14"/><path fill="#62BCF9" fill-rule="nonzero" d="M48.24 64.35a2.49 2.49 0 0 1-1.86.83H7.72a2.49 2.49 0 0 1-1.86-.83A2.48 2.48 0 0 0 2 64.5l-.14.18a2.48 2.48 0 0 0-.42 2.14l2.31 8.61A3.45 3.45 0 0 0 7.1 78H47a3.42 3.42 0 0 0 3.32-2.55l2.32-8.61a2.52 2.52 0 0 0-.42-2.14l-.14-.18a2.48 2.48 0 0 0-3.84-.17Z"/><path fill="#6534FF" fill-rule="nonzero" d="M46.08 79.05H6.18a3.92 3.92 0 0 1-3.77-2.89L.1 67.55A3 3 0 0 1 .6 65l.14-.18A2.88 2.88 0 0 1 3 63.67a2.83 2.83 0 0 1 2.31 1 .46.46 0 1 1-.68.61 2 2 0 0 0-1.63-.7 2.06 2.06 0 0 0-1.53.8l-.14.18A2.05 2.05 0 0 0 1 67.32l2.31 8.6a3 3 0 0 0 2.88 2.21h39.9A3 3 0 0 0 49 75.92a.46.46 0 0 1 .89.24 3.92 3.92 0 0 1-3.81 2.89Z"/><path fill="#6534FF" fill-rule="nonzero" d="M22 65.33H8.34a.45.45 0 0 1-.45-.46c0-.25.2-.455.45-.46H22a.47.47 0 0 1 .46.46.46.46 0 0 1-.46.46zM36.14 79h-8.55a.46.46 0 1 1 0-.92h8.55a.46.46 0 1 1 0 .92zM24.6 81.16H22a.47.47 0 0 1-.46-.46.46.46 0 0 1 .46-.46h2.6a.45.45 0 0 1 .45.46c0 .25-.2.455-.45.46zm7.27 12.09a.45.45 0 0 1-.46-.45v-3.43a.45.45 0 0 1 .46-.45c.25 0 .455.2.46.45v3.43a.46.46 0 0 1-.46.45zM12.19 49.94a.46.46 0 0 1-.23-.86l8.13-4.71a.461.461 0 0 1 .46.8l-8.13 4.7a.39.39 0 0 1-.23.07z"/><path fill="#3E1EC4" fill-rule="nonzero" d="M297.62 154.77v-8.75a2.25 2.25 0 0 0-1.12-2l-7.56-4.4a2.27 2.27 0 0 0-2.24 0l-7.56 4.38a2.24 2.24 0 0 0-1.14 2v8.75a2.23 2.23 0 0 0 1.11 2l7.56 4.4c.697.4 1.553.4 2.25 0l7.59-4.35a2.24 2.24 0 0 0 1.11-2.03Z" opacity=".32"/><path fill="#52D2BC" fill-rule="nonzero" d="M298.1 153.93v-8.74a2.23 2.23 0 0 0-1.12-1.95l-7.56-4.4a2.22 2.22 0 0 0-2.24 0l-7.59 4.35a2.24 2.24 0 0 0-1.13 1.94v8.75a2.24 2.24 0 0 0 1.11 1.95l7.56 4.4c.697.4 1.553.4 2.25 0l7.59-4.34a2.24 2.24 0 0 0 1.13-1.96Z"/><path fill="#FFF" fill-rule="nonzero" d="M279.17 155.35a.11.11 0 0 1-.08 0 2.38 2.38 0 0 1-1.19-2.08v-8.75a2.39 2.39 0 0 1 1.2-2.07l7.59-4.35a2.42 2.42 0 0 1 2.4 0l7.56 4.4a2.42 2.42 0 0 1 1.2 2.08.16.16 0 0 1-.16.16.16.16 0 0 1-.15-.16 2.1 2.1 0 0 0-1-1.81l-7.56-4.4a2.08 2.08 0 0 0-2.09 0l-7.59 4.35a2.11 2.11 0 0 0-1.06 1.81v8.74a2.12 2.12 0 0 0 1 1.82.15.15 0 0 1 .06.21.15.15 0 0 1-.13.05Z"/><path fill="#FFF" fill-rule="nonzero" d="m294.24 151.11.91-1.57-.9-1.58.01-1.82-1.58-.92-.9-1.58-1.82-.01-1.57-.91-1.58.9h-1.82l-.92 1.57-1.58.91v1.82l-.92 1.57.9 1.58v1.82l1.57.91.91 1.58 1.82.01 1.57.92 1.58-.91 1.82.01.91-1.58 1.58-.9z"/><path fill="#6535FF" fill-rule="nonzero" d="M286.46 155.24h-1.82a.13.13 0 0 1-.13-.08l-.89-1.54-1.53-.9a.14.14 0 0 1-.08-.13v-1.79l-.89-1.54a.15.15 0 0 1 0-.16l.9-1.53v-1.78a.16.16 0 0 1 .08-.14l1.54-.88.9-1.54a.16.16 0 0 1 .13-.07h1.78l1.54-.88a.15.15 0 0 1 .16 0l1.53.89h1.78a.16.16 0 0 1 .14.08l.88 1.54 1.54.9a.15.15 0 0 1 .05.21.16.16 0 0 1-.21.05l-1.57-.91-.05-.06-.87-1.5h-1.8l-1.5-.87-1.5.86h-1.81l-.87 1.5-.06.06-1.5.86v1.73a.12.12 0 0 1 0 .08l-.87 1.49.86 1.5a.12.12 0 0 1 0 .08v1.73l1.49.87.06.06.86 1.5h1.73a.15.15 0 0 1 .15.15.16.16 0 0 1-.15.16Z"/><circle cx="288.3" cy="149.22" r="2.56" fill="#FCCDD3" fill-rule="nonzero"/><path fill="#6535FF" fill-rule="nonzero" d="M287.08 151.76a.13.13 0 0 1-.1 0 2.71 2.71 0 1 1 3.45-4.18.16.16 0 1 1-.2.24 2.4 2.4 0 0 0-3.38.32 2.41 2.41 0 0 0 .32 3.39.15.15 0 0 1-.09.27v-.04Z"/><path fill="#6534FF" fill-rule="nonzero" d="m297 143.24-7.56-4.4a2.34 2.34 0 0 0-.84-.29c-.161.34-.279.7-.35 1.07a8.28 8.28 0 0 0 .36 3.75 33.81 33.81 0 0 1 1 3.67 9.43 9.43 0 0 1-.6 5.09c-.87 2.09-2.49 3.84-3.1 6a7.57 7.57 0 0 0-.22 1.23l1.42.84c.697.4 1.553.4 2.25 0l7.59-4.34a2.24 2.24 0 0 0 1.13-1.95v-8.74a2.23 2.23 0 0 0-1.08-1.93Z" opacity=".32"/><path fill="#FFF" fill-rule="nonzero" d="M289.45 159.39a.16.16 0 0 1-.13-.08.15.15 0 0 1 .06-.21l7-4.07a.16.16 0 0 1 .21.06.15.15 0 0 1-.06.21l-7 4.07-.08.02Z"/><path fill="#3E1EC4" fill-rule="nonzero" d="M27.37 209.07v-6.55a1.67 1.67 0 0 0-.84-1.45l-5.65-3.29a1.66 1.66 0 0 0-1.68 0L13.55 201a1.67 1.67 0 0 0-.84 1.45V209c0 .599.32 1.152.84 1.45l5.65 3.29a1.66 1.66 0 0 0 1.68 0l5.68-3.25c.5-.3.806-.838.81-1.42Z" opacity=".32"/><path fill="#52D2BC" fill-rule="nonzero" d="M27.73 208.44v-6.54a1.69 1.69 0 0 0-.84-1.46l-5.65-3.29c-.52-.3-1.16-.3-1.68 0l-5.68 3.25a1.7 1.7 0 0 0-.85 1.45v6.54c0 .601.32 1.157.84 1.46l5.65 3.29a1.71 1.71 0 0 0 1.68 0l5.68-3.26a1.66 1.66 0 0 0 .85-1.44Z"/><path fill="#FFF" fill-rule="nonzero" d="M13.57 209.5h-.06a1.81 1.81 0 0 1-.89-1.56v-6.54a1.78 1.78 0 0 1 .9-1.55l5.68-3.25a1.79 1.79 0 0 1 1.79 0l5.65 3.29c.557.322.9.917.9 1.56a.11.11 0 0 1-.12.11.11.11 0 0 1-.11-.11 1.58 1.58 0 0 0-.78-1.36l-5.66-3.29a1.55 1.55 0 0 0-1.56 0l-5.65 3.2a1.55 1.55 0 0 0-.78 1.35v6.54c0 .56.298 1.077.78 1.36a.11.11 0 0 1 0 .16.12.12 0 0 1-.09.09Z"/><path fill="#FFF" fill-rule="nonzero" d="m24.85 206.33.68-1.18-.68-1.18.01-1.36-1.18-.68-.67-1.19h-1.37l-1.17-.68-1.18.67h-1.36l-.69 1.17-1.18.68-.01 1.36-.68 1.18.68 1.18-.01 1.36 1.18.68.67 1.19h1.37l1.17.69 1.18-.68h1.37l.68-1.17 1.18-.68z"/><path fill="#6535FF" fill-rule="nonzero" d="M19 209.42h-1.33a.1.1 0 0 1-.1-.06l-.66-1.15-1.15-.67a.11.11 0 0 1-.06-.1v-1.34l-.7-1.16a.11.11 0 0 1 0-.11l.67-1.15v-1.33a.12.12 0 0 1 0-.1l1.16-.66.67-1.15a.11.11 0 0 1 .1-.06H19l1.15-.67a.11.11 0 0 1 .12 0l1.15.66h1.33a.11.11 0 0 1 .1.06l.66 1.15 1.15.67a.12.12 0 1 1-.12.2l-1.17-.69-.64-1.12h-1.37l-1.12-.64-1.13.64h-1.35l-.65 1.12-1.12.65v1.29a.07.07 0 0 1 0 .06l-.65 1.12.65 1.12a.13.13 0 0 1 0 .06v1.29l1.12.66.64 1.12H19c.06 0 .11.05.11.11a.12.12 0 0 1-.11.18Z"/><circle cx="20.4" cy="204.92" r="1.91" fill="#FCCDD3" fill-rule="nonzero"/><path fill="#6535FF" fill-rule="nonzero" d="M19.49 206.81a.12.12 0 0 1-.08 0 2 2 0 0 1 1.1-3.58 2 2 0 0 1 1.49.45.12.12 0 0 1 0 .16.11.11 0 0 1-.16 0 1.78 1.78 0 0 0-2.53.24 1.81 1.81 0 0 0 .24 2.53.11.11 0 0 1 0 .16.12.12 0 0 1-.06.04Z"/><path fill="#6534FF" fill-rule="nonzero" d="m26.92 200.44-5.65-3.29a1.87 1.87 0 0 0-.63-.21 3.21 3.21 0 0 0-.27.79 6.25 6.25 0 0 0 .27 2.81 26.7 26.7 0 0 1 .76 2.75 7.06 7.06 0 0 1-.45 3.8c-.65 1.56-1.86 2.88-2.32 4.51a5.73 5.73 0 0 0-.17.92l1.07.62a1.71 1.71 0 0 0 1.68 0l5.68-3.26a1.66 1.66 0 0 0 .84-1.45v-6.54a1.69 1.69 0 0 0-.81-1.45Z" opacity=".32"/><path fill="#FFF" fill-rule="nonzero" d="M21.27 212.52a.12.12 0 0 1-.1-.05.11.11 0 0 1 0-.16l5.21-3a.112.112 0 0 1 .12.19l-5.22 3-.01.02Z"/><circle cx="203.92" cy="3.44" r="3.44" fill="#52D2BC" fill-rule="nonzero"/><circle cx="226.4" cy="23.66" r="5.1" fill="#62BCF9" fill-rule="nonzero"/><path fill="#6535FF" fill-rule="nonzero" d="M209.31 239a.69.69 0 0 1-.21-1.34c1.93-.61 3.81-1.32 5.74-2.14a.69.69 0 1 1 .55 1.26c-2 .85-3.9 1.56-5.87 2.19a.76.76 0 0 1-.21.03Zm11.38-4.87a.69.69 0 0 1-.33-1.29c1.79-1 3.56-2 5.25-3.17a.68.68 0 0 1 .95.19.69.69 0 0 1-.18 1 69.231 69.231 0 0 1-5.36 3.23.67.67 0 0 1-.33.08v-.04Zm10.31-6.84a.7.7 0 0 1-.53-.25.69.69 0 0 1 .1-1c1.58-1.29 3.12-2.67 4.55-4.09a.69.69 0 0 1 1 0 .68.68 0 0 1 0 1c-1.47 1.46-3 2.87-4.65 4.19a.71.71 0 0 1-.47.15Zm8.79-8.7a.72.72 0 0 1-.7-.64.69.69 0 0 1 .17-.52c1.29-1.56 2.53-3.21 3.67-4.9a.68.68 0 0 1 .95-.19.69.69 0 0 1 .19 1 63.246 63.246 0 0 1-3.75 5 .7.7 0 0 1-.56.25h.03Zm6.92-10.25a.66.66 0 0 1-.33-.09.68.68 0 0 1-.28-.93c1-1.79 1.85-3.65 2.64-5.52a.7.7 0 0 1 .9-.37.68.68 0 0 1 .37.9 62.21 62.21 0 0 1-2.7 5.65.68.68 0 0 1-.63.36h.03Zm4.76-11.42a.49.49 0 0 1-.2 0 .68.68 0 0 1-.45-.86c.59-1.93 1.09-3.93 1.5-5.93a.68.68 0 0 1 .81-.54.69.69 0 0 1 .54.81c-.42 2-.93 4.09-1.54 6.07a.69.69 0 0 1-.69.45h.03Zm2.47-12.12h-.07a.69.69 0 0 1-.61-.76c.21-2 .34-4.07.37-6.12a.7.7 0 0 1 .69-.68.7.7 0 0 1 .68.7c0 2.09-.17 4.19-.39 6.25a.68.68 0 0 1-.7.61h.03Zm.21-12.37a.7.7 0 0 1-.69-.64c-.15-2.06-.39-4.11-.72-6.08a.69.69 0 1 1 1.36-.23c.33 2 .58 4.11.73 6.21a.69.69 0 0 1-.63.74h-.05Z"/><path fill="#62BCF9" fill-rule="nonzero" d="M166.5 258.03h39.14v8.74H166.5zM166.5 243.53h39.14v8.74H166.5zM166.5 229.04h39.14v8.74H166.5z"/></g></svg>