<svg xmlns="http://www.w3.org/2000/svg" width="98" height="98" fill="none"><path fill="#6534FF" fill-rule="evenodd" d="M49 98c27.062 0 49-21.938 49-49S76.062 0 49 0 0 21.938 0 49s21.938 49 49 49Zm-5.576-34.47v.39h7.775v-.39c.043-2.695.324-4.943.842-6.747.518-1.803 1.35-3.356 2.494-4.66 1.145-1.325 2.668-2.585 4.568-3.78 1.9-1.173 3.52-2.52 4.86-4.04a15.995 15.995 0 0 0 3.11-5.182c.734-1.934 1.1-4.095 1.1-6.485 0-3.39-.777-6.41-2.332-9.06-1.533-2.65-3.714-4.736-6.543-6.256-2.808-1.521-6.112-2.282-9.913-2.282-3.5 0-6.685.696-9.557 2.086-2.851 1.39-5.151 3.4-6.9 6.029-1.728 2.629-2.678 5.79-2.851 9.483h8.163c.173-2.564.81-4.639 1.912-6.225 1.101-1.585 2.473-2.748 4.114-3.486a12.341 12.341 0 0 1 5.119-1.108c2.03 0 3.876.423 5.54 1.27a10.027 10.027 0 0 1 3.984 3.618c.993 1.564 1.49 3.41 1.49 5.54 0 1.716-.302 3.28-.907 4.692a12.329 12.329 0 0 1-2.397 3.748 17.032 17.032 0 0 1-3.434 2.77c-2.117 1.282-3.931 2.683-5.443 4.204-1.512 1.52-2.678 3.508-3.499 5.964-.82 2.454-1.252 5.757-1.295 9.906Zm.032 17.955c1.145 1.152 2.516 1.727 4.114 1.727 1.08 0 2.052-.26 2.916-.782a6.07 6.07 0 0 0 2.106-2.15c.54-.891.81-1.869.81-2.933 0-1.608-.573-2.988-1.717-4.14-1.145-1.15-2.517-1.726-4.115-1.726-1.598 0-2.97.575-4.114 1.727-1.145 1.151-1.717 2.53-1.717 4.139 0 1.607.573 2.987 1.717 4.138Z" clip-rule="evenodd"/></svg>