<svg xmlns="http://www.w3.org/2000/svg" width="48" height="49" fill="none"><path fill="#fff" d="M22.984 46a4.199 4.199 0 0 1-2.746-1.024L6.52 33.146A4.42 4.42 0 0 1 5 29.79V4.577A1.876 1.876 0 0 1 6.25 2.79a51.68 51.68 0 0 1 33.5 0c.746.259 1.25.978 1.25 1.787V29.79a4.403 4.403 0 0 1-1.528 3.356l-13.719 11.83A4.198 4.198 0 0 1 22.983 46Z"/><path fill="#52D2BC" stroke="#6535FF" stroke-linecap="round" stroke-linejoin="round" stroke-width=".16" d="M25.933 26.938 20 23l5.841 9L32 23.243l-6.067 3.695Z"/><path fill="#52D2BC" stroke="#6535FF" stroke-linecap="round" stroke-linejoin="round" stroke-width=".16" d="m20.008 23.366.034.009L25.987 27l5.971-3.397h.034l-.026-.017.034-.009L26.241 13 20 23.349l.025.017h-.017Z"/><path fill="#6535FF" d="M41.662 4.73a52.19 52.19 0 0 0-33.316 0A3.464 3.464 0 0 0 6 8.03v23.934a5.866 5.866 0 0 0 2.06 4.457l13.228 11.216a5.739 5.739 0 0 0 7.424 0L41.94 36.422A5.866 5.866 0 0 0 44 31.965V8.015c0-1.489-.941-2.81-2.338-3.285Zm.678 27.177a4.143 4.143 0 0 1-1.471 3.178l-13.22 11.208a4.059 4.059 0 0 1-5.298 0L9.131 35.085a4.142 4.142 0 0 1-1.471-3.178V8.015a1.78 1.78 0 0 1 1.21-1.651 50.431 50.431 0 0 1 32.26 0c.71.235 1.195.897 1.21 1.65v23.893Z"/><path fill="#BBC4EF" d="M45 32.109V7.997a3.497 3.497 0 0 0-2.376-3.332A53.419 53.419 0 0 0 28.698 2a19.073 19.073 0 0 1 3.074 7.196c.592 3.126.906 6.297.94 9.478a21.1 21.1 0 0 1-.217 5.123c-.83 4.073-3.93 7.296-5.417 11.169a19.117 19.117 0 0 0-.723 9.995c.244 1.367.58 2.717 1.005 4.039a5.737 5.737 0 0 0 2.102-1.124l13.444-11.32A5.903 5.903 0 0 0 45 32.11Z" opacity=".44"/><path fill="#070707" d="M12.437 29 3.28 26.41a1.273 1.273 0 0 1-.909-.394A1.34 1.34 0 0 1 2 25.08v-4.766c.002-.35.14-.686.383-.932.244-.246.572-.383.914-.381l9.149 2.59a.55.55 0 0 1 .508.34.575.575 0 0 1-.105.612l-3.29 1.075a.593.593 0 0 0 0 .775l3.273 3.657c.143.165.18.4.096.603a.559.559 0 0 1-.49.348Zm25.158-7.462L46.724 19c.34.002.667.145.906.396.24.251.372.59.37.944v4.8c0 .354-.137.693-.38.941a1.253 1.253 0 0 1-.913.381L37.544 29a.548.548 0 0 1-.5-.345.583.583 0 0 1 .106-.613l3.28-3.656a.602.602 0 0 0 0-.78l-3.263-1.11a.593.593 0 0 1-.088-.624.555.555 0 0 1 .516-.334Z" opacity=".18"/><path fill="#FCCDD3" d="M12.437 27H3.28a1.27 1.27 0 0 1-.909-.395 1.347 1.347 0 0 1-.371-.94v-7.348c.002-.351.14-.688.383-.935A1.27 1.27 0 0 1 3.297 17h9.149a.55.55 0 0 1 .508.34.578.578 0 0 1-.105.615l-3.29 3.652a.587.587 0 0 0 0 .769l3.273 3.67c.143.165.18.401.096.605a.56.56 0 0 1-.49.349Zm25.158-10h9.129c.34.002.667.144.906.395.24.25.372.588.37.94v7.348c0 .352-.137.69-.38.937a1.255 1.255 0 0 1-.913.38l-9.163-.018a.548.548 0 0 1-.5-.344.58.58 0 0 1 .106-.61l3.28-3.643a.598.598 0 0 0 0-.779l-3.263-3.669a.59.59 0 0 1-.071-.608.556.556 0 0 1 .5-.329Z"/><path stroke="#6535FF" stroke-linecap="round" stroke-linejoin="round" stroke-width=".87" d="M46 28h-9.438a.561.561 0 0 1-.407-.951l3.391-3.646a.579.579 0 0 0 0-.775L36.182 19M8.55 22.723l3.31 3.397c.145.155.18.376.092.566a.56.56 0 0 1-.505.314H2.281a1.326 1.326 0 0 1-.91-.364A1.19 1.19 0 0 1 1 25.77V19l7.55 3.723Z"/><path stroke="#BBC4EF" stroke-linecap="round" stroke-linejoin="round" stroke-width=".87" d="m10 34 12 10"/></svg>