<svg xmlns="http://www.w3.org/2000/svg" width="300" height="300"><g fill="none" fill-rule="evenodd" transform="translate(0 19)"><circle cx="153.76" cy="135.94" r="125.36" fill="#6535FF" fill-rule="nonzero"/><path fill="#3E1EC4" fill-rule="nonzero" d="m298.3 47.58.06-17.49a4.49 4.49 0 0 0-2.23-3.9L281 17.4a4.48 4.48 0 0 0-4.49 0l-15.18 8.69a4.52 4.52 0 0 0-2.25 3.91L259 47.45a4.53 4.53 0 0 0 2.23 3.9l15.12 8.8c1.39.8 3.1.8 4.49 0L296 51.47a4.47 4.47 0 0 0 2.3-3.89Z" opacity=".32"/><path fill="#52D2BC" fill-rule="nonzero" d="m299.26 45.92.06-17.5a4.46 4.46 0 0 0-2.23-3.89L282 15.73a4.48 4.48 0 0 0-4.49 0l-15.18 8.7a4.49 4.49 0 0 0-2.33 3.86v17.49a4.52 4.52 0 0 0 2.23 3.9l15.12 8.8c1.39.8 3.1.8 4.49 0L297 49.8a4.47 4.47 0 0 0 2.26-3.88Z"/><path fill="#FFF" fill-rule="nonzero" d="M261.4 48.75a.32.32 0 0 1-.16 0 4.81 4.81 0 0 1-2.38-4.16l.06-17.49a4.83 4.83 0 0 1 2.41-4.15l15.18-8.69a4.81 4.81 0 0 1 4.8 0L296.43 23a4.83 4.83 0 0 1 2.39 4.16.31.31 0 0 1-.62 0 4.18 4.18 0 0 0-2.08-3.63L281 14.76a4.21 4.21 0 0 0-4.18 0l-15.18 8.69a4.22 4.22 0 0 0-2.11 3.62l-.06 17.49a4.22 4.22 0 0 0 2.08 3.63.3.3 0 0 1 .11.42.29.29 0 0 1-.26.14Z"/><path fill="#FFF" fill-rule="nonzero" d="m291.54 40.27 1.83-3.15-1.81-3.16.02-3.64-3.15-1.83-1.81-3.16-3.64-.01-3.15-1.83-3.15 1.81-3.64-.01-1.83 3.14-3.16 1.81-.01 3.64-1.84 3.15 1.81 3.15-.01 3.64 3.15 1.84 1.81 3.15 3.64.02 3.14 1.83 3.16-1.81 3.64.01 1.83-3.15 3.16-1.8z"/><path fill="#6535FF" fill-rule="nonzero" d="M276 48.52h-3.64a.3.3 0 0 1-.26-.15l-1.77-3.09-3.07-1.79a.29.29 0 0 1-.16-.26v-3.56l-1.77-3.09a.27.27 0 0 1 0-.3l1.79-3.08v-3.58a.3.3 0 0 1 .15-.26l3.09-1.77 1.79-3.08a.32.32 0 0 1 .27-.15H276l3.08-1.76a.29.29 0 0 1 .31 0l3.07 1.79H286a.33.33 0 0 1 .27.15l1.73 3.11 3.08 1.79a.3.3 0 0 1 .11.42.32.32 0 0 1-.42.11l-3.15-1.83a.57.57 0 0 1-.11-.11l-1.72-3h-3.46a.24.24 0 0 1-.15 0l-3-1.74-3 1.72a.42.42 0 0 1-.15 0h-3.43l-1.74 3a.38.38 0 0 1-.11.11l-3 1.72v3.47a.28.28 0 0 1 0 .15l-1.74 3 1.72 3a.26.26 0 0 1 0 .15V43l3 1.74a.32.32 0 0 1 .11.12l1.72 3H276a.3.3 0 0 1 .3.31.31.31 0 0 1-.3.35Z"/><circle cx="279.65" cy="36.49" r="5.11" fill="#FCCDD3" fill-rule="nonzero"/><path fill="#6535FF" fill-rule="nonzero" d="M277.22 41.56a.31.31 0 0 1-.2-.07 5.42 5.42 0 1 1 6.9-8.36.31.31 0 0 1-.39.47 4.87 4.87 0 0 0-3.53-1.08 4.81 4.81 0 0 0-2.6 8.5.3.3 0 0 1 0 .43.31.31 0 0 1-.18.11Z"/><path fill="#6534FF" fill-rule="nonzero" d="M297.09 24.53 282 15.73a4.53 4.53 0 0 0-1.69-.58 8.56 8.56 0 0 0-.69 2.13 16.48 16.48 0 0 0 .71 7.52 65.26 65.26 0 0 1 2 7.33 18.9 18.9 0 0 1-1.19 10.17c-1.74 4.18-5 7.69-6.2 12.05a13.82 13.82 0 0 0-.45 2.46l2.85 1.67c1.39.8 3.1.8 4.49 0L297 49.8a4.47 4.47 0 0 0 2.26-3.88l.06-17.5a4.46 4.46 0 0 0-2.23-3.89Z" opacity=".32"/><path fill="#FFF" fill-rule="nonzero" d="M282 56.82a.29.29 0 0 1-.26-.15.3.3 0 0 1 .11-.42l13.94-8.13a.3.3 0 0 1 .42.11.31.31 0 0 1-.11.41l-13.94 8.14a.29.29 0 0 1-.16.04Z"/><circle cx="56.58" cy="15.19" r="3.44" fill="#52D2BC" fill-rule="nonzero"/><circle cx="43.54" cy="39.04" r="5.1" fill="#F9879A" fill-rule="nonzero"/><path fill="#FCCDD3" fill-rule="nonzero" d="M254.82 116.49a.69.69 0 0 1-.76.29.67.67 0 0 1-.48-.84 60 60 0 0 0 1.32-6 .7.7 0 0 1 .8-.56.68.68 0 0 1 .56.79 62 62 0 0 1-1.36 6.12.84.84 0 0 1-.08.2zm2.11-12.2a.69.69 0 0 1-1.27-.42c.16-2 .23-4.1.2-6.13a.69.69 0 0 1 1.38 0c0 2.08 0 4.18-.2 6.25a.68.68 0 0 1-.11.3zm-.18-12.37a.68.68 0 0 1-.51.31.68.68 0 0 1-.75-.61c-.22-2-.55-4.07-1-6.05a.69.69 0 0 1 1.35-.28c.42 2 .75 4.11 1 6.18a.69.69 0 0 1-.09.45zm-2.52-12.11a.74.74 0 0 1-.38.29.69.69 0 0 1-.86-.45c-.6-1.94-1.32-3.87-2.11-5.75a.69.69 0 0 1 1.26-.54c.82 1.92 1.55 3.89 2.17 5.87a.72.72 0 0 1-.08.58zm-4.84-11.38a.56.56 0 0 1-.25.23.69.69 0 0 1-.93-.27c-1-1.78-2.05-3.54-3.2-5.22a.69.69 0 1 1 1.14-.78c1.17 1.72 2.27 3.52 3.27 5.34a.7.7 0 0 1-.03.7zm-7-10.21a1 1 0 0 1-.13.16.69.69 0 0 1-1-.09 65.37 65.37 0 0 0-4.17-4.49.707.707 0 1 1 1-1c1.49 1.46 2.92 3 4.25 4.59a.68.68 0 0 1 .07.83h-.02zm-8.83-8.66v.06a.69.69 0 0 1-1 .1 66.092 66.092 0 0 0-4.93-3.65.68.68 0 0 1-.19-.94.69.69 0 0 1 1-.19c1.73 1.17 3.42 2.42 5 3.72a.69.69 0 0 1 .14.9h-.02zm-10.26-6.91a.69.69 0 0 1-.91.23c-1.81-1-3.66-1.91-5.5-2.71a.68.68 0 0 1-.36-.9.7.7 0 0 1 .91-.36c1.87.82 3.76 1.75 5.61 2.77a.69.69 0 0 1 .27.93l-.02.04zm-2.63 102.15.2.13c8.39 5 18.51.75 22.6-9.58s.62-22.8-7.77-27.85l-.21-.11-14.82 37.41z"/><path fill="#F9879A" fill-rule="nonzero" d="m209.17 118.7 26.37-11.42-15.04 37.71z"/><path fill="#FCCDD3" fill-rule="nonzero" d="m87.23 144.8-.2.13c-8.39 5-18.51.75-22.61-9.58-4.1-10.33-.61-22.8 7.78-27.85l.21-.11 14.82 37.41Z"/><path fill="#F9879A" fill-rule="nonzero" d="m98.72 118.7-26.36-11.42 15.04 37.71z"/><path fill="#2B0FD3" fill-rule="nonzero" d="m86.68 143.41-12.34-31.14a4.6 4.6 0 0 0-1 1.45c-1.52 3.4-3.37 9-1.5 12.53.7 1.32 1.86 2.34 2.65 3.61 2 3.18 1.49 7.71 4.28 10.19 1.52 1.35 3.65 1.72 5.58 2.38.8.27 1.578.598 2.33.98zm10.1-24.79c-.33-.39-.65-.79-1-1.18l-13.38-5.8c.037.182.094.36.17.53.27.62.76 1.13 1 1.76 1.13 2.8-2.88 5.43-2.47 8.43.27 2 2.41 3.21 3.47 5s1 4.1 1.53 6.15a8.94 8.94 0 0 0 4 5.14l7.95-18.46c-.4-.55-.84-1.07-1.27-1.57z" opacity=".46"/><path fill="#F9879A" fill-rule="nonzero" d="M72.18 231.11c48.438 41.515 120.333 40.017 167-3.48-8.9-19.53-30.77-43-84.5-43-56.91.02-76.12 26.37-82.5 46.48Z"/><path fill="#2B0FD3" fill-rule="nonzero" d="M184 198a28.72 28.72 0 0 0 8.72-8.46c-10.45-3.07-23-4.9-38-4.9-57 0-76.17 26.36-82.55 46.46a125 125 0 0 0 50.76 26.36 148.55 148.55 0 0 1 7.37-14.85c9.43-16.47 23-31.15 40.43-38.69 4.46-1.92 9.15-3.37 13.27-5.92Z" opacity=".46"/><ellipse cx="154.54" cy="128.52" fill="#F9879A" fill-rule="nonzero" rx="69.14" ry="65.55"/><path fill="#2B0FD3" fill-rule="nonzero" d="M146.42 63.19c-36.42 4.81-61 31-61 65.33A63.81 63.81 0 0 0 106.89 176c.08-7.66-3.87-15.74-2.87-23.57 1.4-10.95 12-18.68 14.64-29.4 1.37-5.57.47-11.47 1.57-17.1a24.62 24.62 0 0 1 12.36-16.69c3-1.59 6.54-2.79 8.09-5.79 1.9-3.69-.22-8.1-2.31-11.7a23.15 23.15 0 0 1 8.05-8.56Z" opacity=".46"/><ellipse cx="154.54" cy="136.2" fill="#FCCDD3" fill-rule="nonzero" rx="51.02" ry="48.65"/><path stroke="#6534FF" stroke-linecap="round" stroke-linejoin="round" stroke-width="1.45" d="M154.54 184.85c-28.17 0-51-21.78-51-48.65"/><path fill="#2B0FD3" fill-rule="nonzero" d="M103.53 136.2a46.78 46.78 0 0 0 7.39 25.24c.45-3.56.13-7.21.37-10.8.29-4.26 1.65-8.84 5.21-11.2 2.38-1.58 5.37-1.92 7.91-3.22 4.34-2.22 6.82-7 8-11.69 1.18-4.69 1.27-9.66 2.3-14.41a37.79 37.79 0 0 1 13.76-21.69l-.22-.5c-25.25 2.97-44.72 23.44-44.72 48.27Z" opacity=".46"/><path fill="#F9879A" fill-rule="nonzero" d="M172.21 21c.036-10.458-7.99-19.177-18.416-20.006C143.37.166 134.067 7.508 132.45 17.84c-1.616 10.332 5 20.165 15.18 22.56V84h9.22V40.4A20 20 0 0 0 172.21 21Zm-20 10.76c-5.939-.017-10.741-4.841-10.73-10.78.011-5.939 4.831-10.745 10.77-10.74C158.189 10.246 163 15.061 163 21c-.022 5.929-4.831 10.725-10.76 10.73l-.03.03Z"/><path stroke="#3817C6" stroke-linecap="round" stroke-width="2.49" d="M135.62 147.38a20 20 0 0 0-9.91-3.93 19.7 19.7 0 0 0-8.74 1.08m54.6 2.47a13.42 13.42 0 0 1 5-2.56 14.3 14.3 0 0 1 10 1.1" opacity=".1"/><path fill="#2B0FD3" fill-rule="nonzero" d="M147.63 40.4v24.09c.364.172.752.29 1.15.35a2 2 0 0 0 2-.69 2.77 2.77 0 0 0 .31-1.4l.45-12.59c.18-5.15 0-11.14-4.07-14.3-1.8-1.39-4.11-2-5.95-3.33-2.13-1.54-3.45-3.92-5.14-5.93a10.26 10.26 0 0 0-3.89-3 20 20 0 0 0 15.14 16.8Z" opacity=".46"/><path stroke="#6534FF" stroke-linecap="round" stroke-linejoin="round" stroke-width="1.45" d="m72.1 107.09 8.7 22.47m69.27-96.38c-5.938-.011-10.749-4.822-10.76-10.76"/><path fill="#6534FF" fill-rule="nonzero" d="m90.28 230.49-1.41-2.44-.1-2.81a3.92 3.92 0 0 0-2.08-3.31l-2-1-1.06-1.93a3.92 3.92 0 0 0-3.39-2h-2.81l-2.49-1.31a3.91 3.91 0 0 0-3.91.14L69.16 217H67a3.92 3.92 0 0 0-3.39 2l-1.4 2.44-2.39 1.49a3.93 3.93 0 0 0-1.83 3.46l.08 2.21-1.1 1.91a3.9 3.9 0 0 0 0 3.91l1.4 2.44.11 2.81a3.91 3.91 0 0 0 2.03 3.33l2 1 1.1 1.92a3.91 3.91 0 0 0 3.39 2h2.33v6.33a.54.54 0 0 0 .88.41l3.32-2.77a.54.54 0 0 1 .69 0l3.14 2.72a.53.53 0 0 0 .88-.4v-6.3h2a3.91 3.91 0 0 0 3.39-2l1.37-2.43 2.38-1.5a3.89 3.89 0 0 0 1.83-3.45l-.08-2.21 1.11-1.92a3.9 3.9 0 0 0 .04-3.91Z" opacity=".32"/><path fill="#62BCF9" fill-rule="nonzero" d="m79.54 253.46-3.14-2.72a.53.53 0 0 0-.7 0l-3.31 2.76a.53.53 0 0 1-.88-.41v-7.23a.54.54 0 0 1 .54-.53h7.84a.53.53 0 0 1 .53.53v7.2a.53.53 0 0 1-.88.4Z"/><ellipse cx="75.97" cy="244.54" fill="#6534FF" fill-rule="nonzero" opacity=".32" rx="4.9" ry="4.57"/><path fill="#BBC4EF" fill-rule="nonzero" d="m92.51 229.38-1.41-2.44-.1-2.81a3.9 3.9 0 0 0-2.07-3.31l-2-1-1.1-1.91a3.92 3.92 0 0 0-3.39-2h-2.78l-2.49-1.32a3.91 3.91 0 0 0-3.91.15l-1.87 1.17h-2.21a3.92 3.92 0 0 0-3.39 2l-1.41 2.43L62 221.8a3.92 3.92 0 0 0-1.83 3.45l.08 2.21-1.11 1.92a4 4 0 0 0 0 3.91l1.41 2.44.1 2.81a3.93 3.93 0 0 0 2.08 3.31l2 1 1.1 1.91a3.92 3.92 0 0 0 3.39 2H72l2.49 1.31a3.91 3.91 0 0 0 3.91-.14l1.87-1.17h2.21a3.92 3.92 0 0 0 3.39-2l1.41-2.44 2.38-1.49a3.92 3.92 0 0 0 1.83-3.46l-.08-2.21 1.11-1.91a4 4 0 0 0-.01-3.87Z"/><path fill="#6534FF" fill-rule="nonzero" d="M75.64 248a4.21 4.21 0 0 1-2-.49l-2.42-1.28h-2.71a4.27 4.27 0 0 1-3.68-2.12l-1-1.83-1.87-1a4.27 4.27 0 0 1-2.26-3.6l-.1-2.73-1.36-2.36a4.25 4.25 0 0 1 0-4.25l1.05-1.83-.07-2.11a4.24 4.24 0 0 1 2-3.75l2.32-1.46 1.36-2.36a4.27 4.27 0 0 1 3.68-2.12h2.11l1.8-1.13a4.25 4.25 0 0 1 4.24-.15l2.41 1.28h2.66a4.25 4.25 0 0 1 3.68 2.12l1.06 1.83 1.87 1a4.27 4.27 0 0 1 2.25 3.59.34.34 0 0 1-.32.35.34.34 0 0 1-.34-.32 3.57 3.57 0 0 0-1.9-3l-2-1a.25.25 0 0 1-.13-.12l-1.11-1.92a3.59 3.59 0 0 0-3.1-1.79H79a.29.29 0 0 1-.16 0L76.35 214a3.58 3.58 0 0 0-3.58.13l-1.87 1.17a.31.31 0 0 1-.18 0h-2.21a3.61 3.61 0 0 0-3.1 1.79L64 219.58a.34.34 0 0 1-.12.12l-2.38 1.49a3.61 3.61 0 0 0-1.68 3.16l.09 2.21a.37.37 0 0 1-.05.18l-1.1 1.92a3.56 3.56 0 0 0 0 3.57l1.4 2.44a.3.3 0 0 1 0 .15l.1 2.82a3.61 3.61 0 0 0 1.9 3l2 1a.29.29 0 0 1 .14.13l1.1 1.91a3.59 3.59 0 0 0 3.1 1.79h2.81a.42.42 0 0 1 .16 0l2.53 1.42a3.59 3.59 0 0 0 3.57-.13.333.333 0 1 1 .36.56 4.26 4.26 0 0 1-2.29.68Z"/><path fill="#6534FF" fill-rule="nonzero" d="m91.1 226.94-.1-2.81a3.9 3.9 0 0 0-2.07-3.31l-2-1-1.1-1.91a3.92 3.92 0 0 0-3.39-2h-2.78l-.58-.31a32.13 32.13 0 0 1 .07 3.54 5.91 5.91 0 0 0 1.27 4 16 16 0 0 0 1.69 1.36 6.26 6.26 0 0 1 2.2 5.48c-.21 1.83-1.24 3.51-1.3 5.35-.06 1.84 1 3.77 1 5.7a5.91 5.91 0 0 1-1 3.37c-.54.81-1.29 1.49-1.79 2.32h1.2a3.92 3.92 0 0 0 3.39-2l1.41-2.44 2.38-1.49a3.92 3.92 0 0 0 1.83-3.46l-.08-2.21 1.11-1.91a4 4 0 0 0 0-3.91l-1.36-2.36Z" opacity=".32"/><ellipse cx="75.3" cy="241.75" fill="#6534FF" fill-rule="nonzero" opacity=".32" rx="12.03" ry="1.56"/><path fill="#62BCF9" fill-rule="nonzero" d="M91.49 231.26a1.78 1.78 0 0 1-1.35.61H62a1.82 1.82 0 0 1-1.36-.61 1.81 1.81 0 0 0-2.79.11l-.1.13a1.83 1.83 0 0 0-.31 1.57l1.69 6.27a2.51 2.51 0 0 0 2.42 1.86h29.04a2.51 2.51 0 0 0 2.41-1.86l1.68-6.27a1.8 1.8 0 0 0-.3-1.57l-.1-.13a1.82 1.82 0 0 0-2.79-.11Z"/><path fill="#6534FF" fill-rule="nonzero" d="M89.92 242H60.85a2.84 2.84 0 0 1-2.74-2.1l-1.69-6.27a2.17 2.17 0 0 1 .36-1.86l.1-.13a2.14 2.14 0 0 1 1.63-.84 2.08 2.08 0 0 1 1.69.71.35.35 0 0 1 0 .48.33.33 0 0 1-.47 0 1.48 1.48 0 0 0-1.16-.5 1.44 1.44 0 0 0-1.12.59l-.1.13c-.278.36-.37.83-.25 1.27l1.68 6.28a2.19 2.19 0 0 0 2.1 1.61h29.04A2.18 2.18 0 0 0 92 239.7a.33.33 0 0 1 .41-.24.34.34 0 0 1 .24.41 2.86 2.86 0 0 1-2.73 2.13Z"/><path fill="#6534FF" fill-rule="nonzero" d="M72.4 232h-10a.34.34 0 1 1 0-.67h10a.34.34 0 0 1 0 .67zm10.28 10h-6.23a.34.34 0 1 1 0-.67h6.23a.34.34 0 0 1 0 .67zm-8.41 1.51H72.4a.34.34 0 1 1 0-.67h1.87a.34.34 0 0 1 0 .67zm5.29 8.81a.33.33 0 0 1-.33-.33v-2.49a.34.34 0 1 1 .67 0v2.5a.34.34 0 0 1-.34.32zm-14.33-31.56a.35.35 0 0 1-.29-.16.34.34 0 0 1 .12-.46l5.94-3.43a.34.34 0 1 1 .34.58l-5.92 3.43a.33.33 0 0 1-.19.04z"/><path fill="#F9879A" fill-rule="nonzero" d="m14.07 206.45.14-18.54a2.6 2.6 0 0 1 2.62-2.59l14.45.11a2.61 2.61 0 0 1 2.59 2.63l-.13 18.53a1.12 1.12 0 0 1-1.89.81l-7.15-6.69a1.1 1.1 0 0 0-1.51 0l-7.25 6.58a1.12 1.12 0 0 1-1.87-.84Z"/><path fill="#52D2BC" fill-rule="nonzero" d="m53.93 196.12.07-9.52a1.35 1.35 0 0 1 1.35-1.33l7.42.06a1.33 1.33 0 0 1 1.33 1.35l-.1 9.52a.57.57 0 0 1-1 .41l-3.67-3.44a.58.58 0 0 0-.78 0l-3.72 3.38a.57.57 0 0 1-.9-.43Z"/><path fill="#62BCF9" fill-rule="nonzero" d="M272.83 193.82c7.28.64 10.93 8.11 11.86 7.4 1.32-1-4.07-17.72-17.84-22-.75-.23-13-3.87-17.33 2.49-3.88 5.73.85 16.47 6.5 18 5.49 1.48 8.98-6.58 16.81-5.89Z"/><path fill="#FCCDD3" fill-rule="nonzero" d="M55.84 100.14c-.69 3.44-30.84 7.62-46.42-9.28C8.34 89.69-2.71 77.4 1.8 67.37 6.39 57.17 25 54 32.72 60.47c8.06 6.7.75 20.67 11.15 31.77 5.84 6.23 12.29 6.28 11.97 7.9Z"/><path stroke="#6534FF" stroke-linecap="round" stroke-linejoin="round" stroke-width="1.45" d="M55.84 106.66c-.69 3.44-30.84 7.63-46.42-9.28C8.34 96.22-2.71 83.92 1.8 73.89"/></g></svg>