<svg xmlns="http://www.w3.org/2000/svg" width="300" height="300" viewBox="0 0 300 300">
  <g fill="none" fill-rule="evenodd" transform="translate(0 19)">
    <circle cx="153.76" cy="135.94" r="125.36" fill="#6535FF" fill-rule="nonzero"/>
    <path fill="#3E1EC4" fill-rule="nonzero" d="M298.3,47.58 L298.36,30.09 C298.367228,28.4848465 297.517017,26.9979311 296.13,26.19 L281,17.4 C279.611344,16.5958703 277.898656,16.5958703 276.51,17.4 L261.33,26.09 C259.936727,26.899163 259.079517,28.3888031 259.08,30 L259,47.45 C259.000948,49.0529896 259.848995,50.5361202 261.23,51.35 L276.35,60.15 C277.739761,60.9500043 279.450239,60.9500043 280.84,60.15 L296,51.47 C297.41393,50.6848907 298.293502,49.1972667 298.3,47.58 L298.3,47.58 Z" opacity=".32"/>
    <path fill="#52D2BC" fill-rule="nonzero" d="M299.26,45.92 L299.32,28.42 C299.329878,26.8167699 298.478482,25.3315998 297.09,24.53 L282,15.73 C280.611344,14.9258703 278.898656,14.9258703 277.51,15.73 L262.33,24.43 C260.91679,25.2051764 260.027522,26.6783845 260,28.29 L260,45.78 C259.998922,47.3835279 260.847503,48.8675933 262.23,49.68 L277.35,58.48 C278.739761,59.2800043 280.450239,59.2800043 281.84,58.48 L297,49.8 C298.395398,49.0063173 299.258038,47.5253232 299.26,45.92 Z"/>
    <path fill="#FFF" fill-rule="nonzero" d="M261.4,48.75 C261.347527,48.7635484 261.292473,48.7635484 261.24,48.75 C259.763124,47.8854494 258.856817,46.3013151 258.86,44.59 L258.92,27.1 C258.930662,25.3872005 259.847649,23.8081563 261.33,22.95 L276.51,14.26 C277.995676,13.4046199 279.824324,13.4046199 281.31,14.26 L296.43,23 C297.907727,23.8650001 298.817032,25.4477227 298.82,27.16 C298.82,27.3312083 298.681208,27.47 298.51,27.47 L298.51,27.47 C298.338792,27.47 298.2,27.3312083 298.2,27.16 C298.205646,25.665116 297.412552,24.2810129 296.12,23.53 L281,14.76 C279.705067,14.0194482 278.114933,14.0194482 276.82,14.76 L261.64,23.45 C260.344981,24.1976123 259.542299,25.5747248 259.53,27.07 L259.47,44.56 C259.472527,46.0527126 260.263455,47.433033 261.55,48.19 C261.62176,48.2297285 261.674123,48.2971064 261.694905,48.3764535 C261.715686,48.4558006 261.703073,48.5401963 261.66,48.61 C261.605361,48.7006011 261.505716,48.7542557 261.4,48.75 Z"/>
    <polygon fill="#FFF" fill-rule="nonzero" points="291.54 40.27 293.37 37.12 291.56 33.96 291.58 30.32 288.43 28.49 286.62 25.33 282.98 25.32 279.83 23.49 276.68 25.3 273.04 25.29 271.21 28.43 268.05 30.24 268.04 33.88 266.2 37.03 268.01 40.18 268 43.82 271.15 45.66 272.96 48.81 276.6 48.83 279.74 50.66 282.9 48.85 286.54 48.86 288.37 45.71 291.53 43.91"/>
    <path fill="#6535FF" fill-rule="nonzero" d="M276,48.52 L276,48.52 L272.36,48.52 C272.252752,48.5200688 272.153624,48.4628799 272.1,48.37 L270.33,45.28 L267.26,43.49 C267.161674,43.4406911 267.099708,43.3399972 267.1,43.23 L267.1,39.67 L265.33,36.58 C265.269333,36.4892013 265.269333,36.3707987 265.33,36.28 L267.12,33.2 L267.12,29.62 C267.119931,29.5127516 267.17712,29.4136242 267.27,29.36 L270.36,27.59 L272.15,24.51 C272.208315,24.4169999 272.31023,24.3603808 272.42,24.36 L276,24.36 L279.08,22.6 C279.174663,22.540136 279.295337,22.540136 279.39,22.6 L282.46,24.39 L286,24.39 C286.109289,24.392196 286.210398,24.448368 286.27,24.54 L288,27.65 L291.08,29.44 C291.15176,29.4797285 291.204123,29.5471064 291.224905,29.6264535 C291.245686,29.7058006 291.233073,29.7901963 291.19,29.86 C291.100089,30.0005575 290.917268,30.0484392 290.77,29.97 L287.62,28.14 C287.578479,28.1085327 287.541467,28.0715214 287.51,28.03 L285.79,25.03 L282.33,25.03 C282.281284,25.0460263 282.228716,25.0460263 282.18,25.03 L279.18,23.29 L276.18,25.01 C276.130405,25.0190009 276.079595,25.0190009 276.03,25.01 L272.6,25.01 L270.86,28.01 C270.831311,28.0538599 270.79386,28.0913112 270.75,28.12 L267.75,29.84 L267.75,33.31 C267.763642,33.3590695 267.763642,33.4109305 267.75,33.46 L266.01,36.46 L267.73,39.46 C267.744736,39.5089142 267.744736,39.5610858 267.73,39.61 L267.73,43 L270.73,44.74 C270.776398,44.7698489 270.814291,44.8111864 270.84,44.86 L272.56,47.86 L276,47.86 C276.081328,47.8599548 276.15919,47.8929309 276.215747,47.9513735 C276.272305,48.0098162 276.302711,48.0887169 276.3,48.17 C276.311369,48.2571777 276.285187,48.3450828 276.227973,48.4118336 C276.170758,48.4785843 276.087891,48.5179022 276,48.52 Z"/>
    <circle cx="279.65" cy="36.49" r="5.11" fill="#FCCDD3" fill-rule="nonzero"/>
    <path fill="#6535FF" fill-rule="nonzero" d="M277.22,41.56 C277.147181,41.5608828 277.076375,41.5361008 277.02,41.49 C275.510664,40.2622824 274.77517,38.319761 275.092884,36.4002703 C275.410598,34.4807796 276.732771,32.8788431 278.557196,32.2029299 C280.381622,31.5270167 282.428363,31.8808377 283.92,33.13 C284.017611,33.2446998 284.018657,33.4129619 283.922481,33.528867 C283.826304,33.6447721 283.660736,33.6747796 283.53,33.6 C282.540656,32.7907055 281.272802,32.4028067 280,32.52 C278.062924,32.7056978 276.428576,34.0402549 275.859376,35.9011031 C275.290175,37.7619514 275.898276,39.782434 277.4,41.02 C277.458036,41.0764775 277.490775,41.1540189 277.490775,41.235 C277.490775,41.3159811 277.458036,41.3935225 277.4,41.45 C277.354704,41.5065815 277.291014,41.545503 277.22,41.56 Z"/>
    <path fill="#6534FF" fill-rule="nonzero" d="M297.09,24.53 L282,15.73 C281.480759,15.4263851 280.906253,15.2292172 280.31,15.15 C279.987737,15.8267285 279.755753,16.5428528 279.62,17.28 C279.271275,19.8078295 279.514325,22.3821072 280.33,24.8 C281.138455,27.2024183 281.806253,29.6498986 282.33,32.13 C282.876677,35.5649177 282.464898,39.0840768 281.14,42.3 C279.4,46.48 276.14,49.99 274.94,54.35 C274.715964,55.1547153 274.565347,55.9780855 274.49,56.81 L277.34,58.48 C278.729761,59.2800043 280.440239,59.2800043 281.83,58.48 L297,49.8 C298.395398,49.0063173 299.258038,47.5253232 299.26,45.92 L299.32,28.42 C299.329878,26.8167699 298.478482,25.3315998 297.09,24.53 Z" opacity=".32"/>
    <path fill="#FFF" fill-rule="nonzero" d="M282,56.82 C281.892185,56.8222301 281.792037,56.7644521 281.74,56.67 C281.696927,56.6001963 281.684314,56.5158006 281.705095,56.4364535 C281.725877,56.3571064 281.77824,56.2897285 281.85,56.25 L295.79,48.12 C295.859804,48.0769272 295.944199,48.0643138 296.023547,48.0850951 C296.102894,48.1058765 296.170272,48.1582402 296.21,48.23 C296.287333,48.3742741 296.239164,48.5538105 296.1,48.64 L282.16,56.78 C282.111662,56.8085374 282.056081,56.8224327 282,56.82 L282,56.82 Z"/>
    <circle cx="56.58" cy="15.19" r="3.44" fill="#52D2BC" fill-rule="nonzero"/>
    <circle cx="43.54" cy="39.04" r="5.1" fill="#F9879A" fill-rule="nonzero"/>
    <path fill="#FCCDD3" fill-rule="nonzero" d="M254.82 116.49C254.656639 116.741594 254.349439 116.858816 254.06 116.78 253.882812 116.735704 253.731387 116.620993 253.640771 116.462416 253.550156 116.30384 253.528205 116.115143 253.58 115.94 254.12217 113.963853 254.562747 111.961229 254.9 109.94 254.970934 109.567438 255.325662 109.319128 255.7 109.38 255.879615 109.409313 256.039984 109.509402 256.145231 109.657875 256.250477 109.806347 256.291816 109.990811 256.26 110.17 255.910163 112.231629 255.456249 114.27424 254.9 116.29 254.882027 116.359824 254.855139 116.427043 254.82 116.49L254.82 116.49zM256.93 104.29C256.760207 104.556201 256.431387 104.67319 256.131613 104.574052 255.831839 104.474914 255.637602 104.184946 255.66 103.87 255.82 101.87 255.89 99.77 255.86 97.74 255.86 97.3589235 256.168924 97.05 256.55 97.05 256.931076 97.05 257.24 97.3589235 257.24 97.74 257.24 99.82 257.24 101.92 257.04 103.99 257.027682 104.097318 256.989975 104.200157 256.93 104.29zM256.75 91.92C256.636852 92.0964015 256.448687 92.2107765 256.24 92.23 256.05946 92.2495523 255.878599 92.1960791 255.737717 92.0814953 255.596835 91.9669115 255.507638 91.8007375 255.49 91.62 255.27 89.62 254.94 87.55 254.49 85.57 254.430528 85.2052448 254.669008 84.8583974 255.030879 84.7833428 255.392749 84.7082883 255.749501 84.93168 255.84 85.29 256.26 87.29 256.59 89.4 256.84 91.47 256.862221 91.6258751 256.830464 91.784662 256.75 91.92L256.75 91.92zM254.23 79.81C254.138903 79.9460427 254.00526 80.048033 253.85 80.1 253.48845 80.2110549 253.104884 80.0103514 252.99 79.65 252.39 77.71 251.67 75.78 250.88 73.9 250.779944 73.5642215 250.947422 73.2067619 251.269462 73.0687448 251.591502 72.9307277 251.965854 73.0559744 252.14 73.36 252.96 75.28 253.69 77.25 254.31 79.23 254.366694 79.4259372 254.337619 79.6367266 254.23 79.81L254.23 79.81zM249.39 68.43C249.332491 68.5307027 249.245138 68.6110681 249.14 68.66 248.808295 68.8391839 248.39418 68.7189568 248.21 68.39 247.21 66.61 246.16 64.85 245.01 63.17 244.870666 62.9663586 244.850558 62.7038526 244.95725 62.4813654 245.063942 62.2588783 245.281225 62.1102111 245.52725 62.0913654 245.773275 62.0725197 246.010666 62.1863586 246.15 62.39 247.32 64.11 248.42 65.91 249.42 67.73 249.535895 67.9519099 249.524456 68.2188195 249.39 68.43L249.39 68.43zM242.39 58.22C242.352295 58.2776695 242.30873 58.3312877 242.26 58.38 242.117762 58.5060185 241.929849 58.5677964 241.740581 58.5507623 241.551314 58.5337283 241.377451 58.4393904 241.26 58.29 239.95 56.74 238.55 55.23 237.09 53.8 236.911367 53.6213672 236.841603 53.3610042 236.906987 53.1169873 236.972371 52.8729704 237.16297 52.6823714 237.406987 52.6169873 237.651004 52.5516032 237.911367 52.6213672 238.09 52.8 239.58 54.26 241.01 55.8 242.34 57.39 242.549877 57.6183322 242.578671 57.9597421 242.41 58.22L242.39 58.22zM233.56 49.56L233.56 49.62C233.44404 49.7708529 233.270933 49.867126 233.081606 49.8860588 232.892278 49.9049915 232.703536 49.8449033 232.56 49.72 230.99 48.44 229.33 47.21 227.63 46.07 227.318886 45.8622705 227.233989 45.4422546 227.44 45.13L227.44 45.13C227.541758 44.9653339 227.708003 44.8509835 227.898172 44.8148515 228.08834 44.7787195 228.28494 44.8241292 228.44 44.94 230.17 46.11 231.86 47.36 233.44 48.66 233.706168 48.8822119 233.766092 49.2674365 233.58 49.56L233.56 49.56zM223.3 42.65C223.103564 42.9529496 222.70679 43.0532332 222.39 42.88 220.58 41.88 218.73 40.97 216.89 40.17 216.721932 40.0995573 216.589171 39.9646032 216.521491 39.7954036 216.453811 39.626204 216.456877 39.4369193 216.53 39.27 216.685132 38.9226776 217.089238 38.7628117 217.44 38.91 219.31 39.73 221.2 40.66 223.05 41.68 223.378957 41.8641798 223.499184 42.2782955 223.32 42.61L223.3 42.65zM220.67 144.8L220.87 144.93C229.26 149.93 239.38 145.68 243.47 135.35 247.56 125.02 244.09 112.55 235.7 107.5L235.49 107.39 220.67 144.8z"/>
    <polygon fill="#F9879A" fill-rule="nonzero" points="209.17 118.7 235.54 107.28 220.5 144.99"/>
    <path fill="#FCCDD3" fill-rule="nonzero" d="M87.23,144.8 L87.03,144.93 C78.64,149.93 68.52,145.68 64.42,135.35 C60.32,125.02 63.81,112.55 72.2,107.5 L72.41,107.39 L87.23,144.8 Z"/>
    <polygon fill="#F9879A" fill-rule="nonzero" points="98.72 118.7 72.36 107.28 87.4 144.99"/>
    <path fill="#2B0FD3" fill-rule="nonzero" d="M86.68 143.41L74.34 112.27C73.9163778 112.684407 73.5768207 113.176765 73.34 113.72 71.82 117.12 69.97 122.72 71.84 126.25 72.54 127.57 73.7 128.59 74.49 129.86 76.49 133.04 75.98 137.57 78.77 140.05 80.29 141.4 82.42 141.77 84.35 142.43 85.1491633 142.700368 85.9278399 143.02788 86.68 143.41L86.68 143.41zM96.78 118.62C96.45 118.23 96.13 117.83 95.78 117.44L82.4 111.64C82.4369226 111.822402 82.493937 112.000153 82.57 112.17 82.84 112.79 83.33 113.3 83.57 113.93 84.7 116.73 80.69 119.36 81.1 122.36 81.37 124.36 83.51 125.57 84.57 127.36 85.63 129.15 85.57 131.46 86.1 133.51 86.7395943 135.665346 88.1677919 137.50058 90.1 138.65L98.05 120.19C97.65 119.64 97.21 119.12 96.78 118.62z" opacity=".46"/>
    <path fill="#F9879A" fill-rule="nonzero" d="M72.18,231.11 C120.618206,272.62515 192.513304,271.126977 239.18,227.63 C230.28,208.1 208.41,184.63 154.68,184.63 C97.77,184.65 78.56,211 72.18,231.11 Z"/>
    <path fill="#2B0FD3" fill-rule="nonzero" d="M184,198 C187.476708,195.834109 190.449892,192.949575 192.72,189.54 C182.27,186.47 169.72,184.64 154.72,184.64 C97.72,184.64 78.55,211 72.17,231.1 C86.8253183,243.691654 104.200122,252.714502 122.93,257.46 C125.108324,252.376669 127.568822,247.418951 130.3,242.61 C139.73,226.14 153.3,211.46 170.73,203.92 C175.19,202 179.88,200.55 184,198 Z" opacity=".46"/>
    <ellipse cx="154.54" cy="128.52" fill="#F9879A" fill-rule="nonzero" rx="69.14" ry="65.55"/>
    <path fill="#2B0FD3" fill-rule="nonzero" d="M146.42,63.19 C110,68 85.42,94.19 85.42,128.52 C85.4939321,146.680828 93.3027741,163.949753 106.89,176 C106.97,168.34 103.02,160.26 104.02,152.43 C105.42,141.48 116.02,133.75 118.66,123.03 C120.03,117.46 119.13,111.56 120.23,105.93 C121.687077,98.8161382 126.210288,92.7083397 132.59,89.24 C135.59,87.65 139.13,86.45 140.68,83.45 C142.58,79.76 140.46,75.35 138.37,71.75 C140.272469,68.2518118 143.04512,65.3035019 146.42,63.19 Z" opacity=".46"/>
    <ellipse cx="154.54" cy="136.2" fill="#FCCDD3" fill-rule="nonzero" rx="51.02" ry="48.65"/>
    <path stroke="#6534FF" stroke-linecap="round" stroke-linejoin="round" stroke-width="1.45" d="M154.54,184.85 C126.37,184.85 103.54,163.07 103.54,136.2"/>
    <path fill="#2B0FD3" fill-rule="nonzero" d="M103.53,136.2 C103.52901,145.146913 106.093712,153.906462 110.92,161.44 C111.37,157.88 111.05,154.23 111.29,150.64 C111.58,146.38 112.94,141.8 116.5,139.44 C118.88,137.86 121.87,137.52 124.41,136.22 C128.75,134 131.23,129.22 132.41,124.53 C133.59,119.84 133.68,114.87 134.71,110.12 C136.623429,101.505146 141.491483,93.8315933 148.47,88.43 L148.25,87.93 C123,90.9 103.53,111.37 103.53,136.2 Z" opacity=".46"/>
    <path fill="#F9879A" fill-rule="nonzero" d="M172.21,21 C172.245818,10.5424529 164.219241,1.82279611 153.794498,0.994354472 C143.369755,0.165912832 134.066739,7.50840785 132.45044,17.840356 C130.834142,28.1723042 137.450302,38.0051463 147.63,40.4 L147.63,84 L156.85,84 L156.85,40.4 C165.835989,38.2568103 172.184903,30.2379994 172.21,21 L172.21,21 Z M152.21,31.76 C146.271349,31.7434424 141.468988,26.9187191 141.480019,20.9800557 C141.491049,15.0413924 146.311301,10.2345426 152.249972,10.2400464 C158.188643,10.2455503 162.999977,15.0613264 163,21 C162.977983,26.9285798 158.168618,31.7245361 152.24,31.73 L152.21,31.76 Z"/>
    <path stroke="#3817C6" stroke-linecap="round" stroke-width="2.49" d="M135.62 147.38C132.733081 145.197507 129.308063 143.83925 125.71 143.45 122.752495 143.145873 119.764512 143.515097 116.97 144.53M171.57 147C173.037414 145.803504 174.741404 144.931062 176.57 144.44 179.926537 143.583327 183.479935 143.974201 186.57 145.54" opacity=".1"/>
    <path fill="#2B0FD3" fill-rule="nonzero" d="M147.63,40.4 L147.63,64.49 C147.994264,64.6619937 148.38168,64.7799029 148.78,64.84 C149.523704,65.0103047 150.299515,64.7426501 150.78,64.15 C151.004423,63.7186316 151.111338,63.2357868 151.09,62.75 L151.54,50.16 C151.72,45.01 151.54,39.02 147.47,35.86 C145.67,34.47 143.36,33.86 141.52,32.53 C139.39,30.99 138.07,28.61 136.38,26.6 C135.345394,25.2997547 134.010466,24.2702473 132.49,23.6 C133.58211,31.7896512 139.597686,38.4647949 147.63,40.4 Z" opacity=".46"/>
    <path stroke="#6534FF" stroke-linecap="round" stroke-linejoin="round" stroke-width="1.45" d="M72.1 107.09L80.8 129.56M150.07 33.18C144.131981 33.1689934 139.321007 28.3580189 139.31 22.42"/>
    <path fill="#6534FF" fill-rule="nonzero" d="M90.28,230.49 L88.87,228.05 L88.77,225.24 C88.7155416,223.844999 87.9232772,222.584232 86.69,221.93 L84.69,220.93 L83.63,219 C82.9408488,217.773228 81.6470535,217.009927 80.24,217 L77.43,217 L74.94,215.69 C73.7053532,215.03434 72.2145926,215.087718 71.03,215.83 L69.16,217 L67,217 C65.5929465,217.009927 64.2991512,217.773228 63.61,219 L62.21,221.44 L59.82,222.93 C58.6381969,223.675921 57.9414184,224.993327 57.99,226.39 L58.07,228.6 L56.97,230.51 C56.2694765,231.719203 56.2694765,233.210797 56.97,234.42 L58.37,236.86 L58.48,239.67 C58.5152842,241.062328 59.2885416,242.330775 60.51,243 L62.51,244 L63.61,245.92 C64.2976036,247.148286 65.5923698,247.912159 67,247.92 L69.33,247.92 L69.33,254.25 C69.3336164,254.456477 69.4546744,254.642811 69.6418636,254.730024 C69.8290528,254.817238 70.0495899,254.790056 70.21,254.66 L73.53,251.89 C73.73001,251.723895 74.01999,251.723895 74.22,251.89 L77.36,254.61 C77.5166162,254.747732 77.73945,254.780807 77.9293194,254.694503 C78.1191887,254.608198 78.2407903,254.418562 78.24,254.21 L78.24,247.91 L80.24,247.91 C81.6476302,247.902159 82.9423964,247.138286 83.63,245.91 L85,243.48 L87.38,241.98 C88.5648903,241.241703 89.2632807,239.925066 89.21,238.53 L89.13,236.32 L90.24,234.4 C90.9529361,233.197975 90.9681956,231.706358 90.28,230.49 L90.28,230.49 Z" opacity=".32"/>
    <path fill="#62BCF9" fill-rule="nonzero" d="M79.54,253.46 L76.4,250.74 C76.1998578,250.563993 75.9001422,250.563993 75.7,250.74 L72.39,253.5 C72.2320286,253.639019 72.0067753,253.671413 71.8160309,253.582544 C71.6252864,253.493674 71.5051851,253.300376 71.51,253.09 L71.51,245.86 C71.5154513,245.565679 71.7556282,245.32995 72.05,245.33 L79.89,245.33 C80.1827109,245.33 80.42,245.567289 80.42,245.86 L80.42,253.06 C80.4207903,253.268562 80.2991887,253.458198 80.1093194,253.544503 C79.91945,253.630807 79.6966162,253.597732 79.54,253.46 L79.54,253.46 Z"/>
    <ellipse cx="75.97" cy="244.54" fill="#6534FF" fill-rule="nonzero" opacity=".32" rx="4.9" ry="4.57"/>
    <path fill="#BBC4EF" fill-rule="nonzero" d="M92.51,229.38 L91.1,226.94 L91,224.13 C90.9516265,222.735864 90.1623137,221.473726 88.93,220.82 L86.93,219.82 L85.83,217.91 C85.1408488,216.683228 83.8470535,215.919927 82.44,215.91 L79.66,215.91 L77.17,214.59 C75.9335832,213.937356 74.4427815,213.994548 73.26,214.74 L71.39,215.91 L69.18,215.91 C67.7729465,215.919927 66.4791512,216.683228 65.79,217.91 L64.38,220.34 L62,221.8 C60.8198003,222.542662 60.1229643,223.856369 60.17,225.25 L60.25,227.46 L59.14,229.38 C58.4595941,230.594532 58.4595941,232.075468 59.14,233.29 L60.55,235.73 L60.65,238.54 C60.7064774,239.934375 61.4981622,241.19422 62.73,241.85 L64.73,242.85 L65.83,244.76 C66.5191512,245.986772 67.8129465,246.750073 69.22,246.76 L72,246.76 L74.49,248.07 C75.7246468,248.72566 77.2154074,248.672282 78.4,247.93 L80.27,246.76 L82.48,246.76 C83.8870535,246.750073 85.1808488,245.986772 85.87,244.76 L87.28,242.32 L89.66,240.83 C90.8433581,240.085521 91.5406482,238.767147 91.49,237.37 L91.41,235.16 L92.52,233.25 C93.1824578,232.04413 93.1786808,230.582431 92.51,229.38 Z"/>
    <path fill="#6534FF" fill-rule="nonzero" d="M75.64,248 C74.9430512,248.004735 74.2558294,247.836365 73.64,247.51 L71.22,246.23 L68.51,246.23 C66.9939655,246.226722 65.5933412,245.41984 64.83,244.11 L63.83,242.28 L61.96,241.28 C60.6204801,240.56685 59.7601037,239.196339 59.7,237.68 L59.6,234.95 L58.24,232.59 C57.4808106,231.275045 57.4808106,229.654955 58.24,228.34 L59.29,226.51 L59.22,224.4 C59.1668426,222.881997 59.9297607,221.451525 61.22,220.65 L63.54,219.19 L64.9,216.83 C65.6633412,215.52016 67.0639655,214.713278 68.58,214.71 L70.69,214.71 L72.49,213.58 C73.7755237,212.777684 75.3909934,212.720533 76.73,213.43 L79.14,214.71 L81.8,214.71 C83.317131,214.709185 84.7196497,215.517158 85.48,216.83 L86.54,218.66 L88.41,219.66 C89.7426604,220.373958 90.5984349,221.739394 90.66,223.25 C90.6657304,223.434079 90.5238547,223.589256 90.34,223.6 L90.34,223.6 C90.1597643,223.600312 90.0106018,223.459924 90,223.28 C89.9442022,222.013595 89.2210359,220.871754 88.1,220.28 L86.1,219.28 C86.0434886,219.257183 85.9972582,219.214508 85.97,219.16 L84.86,217.24 C84.2190572,216.133964 83.0383267,215.452187 81.76,215.45 L79,215.45 C78.9477219,215.465004 78.8922781,215.465004 78.84,215.45 L76.35,214 C75.2192347,213.400225 73.8542854,213.44979 72.77,214.13 L70.9,215.3 C70.8413206,215.317803 70.7786794,215.317803 70.72,215.3 L68.51,215.3 C67.2327696,215.306251 66.0539147,215.986945 65.41,217.09 L64,219.58 C63.9707862,219.6295 63.9295001,219.670786 63.88,219.7 L61.5,221.19 C60.4205471,221.872088 59.7817271,223.073678 59.82,224.35 L59.91,226.56 C59.9090043,226.623289 59.8917888,226.685265 59.86,226.74 L58.76,228.66 C58.120211,229.764006 58.120211,231.125994 58.76,232.23 L60.16,234.67 C60.1727017,234.719193 60.1727017,234.770807 60.16,234.82 L60.26,237.64 C60.3237194,238.903903 61.0446117,240.042154 62.16,240.64 L64.16,241.64 C64.2200107,241.666276 64.2693565,241.712097 64.3,241.77 L65.4,243.68 C66.0409428,244.786036 67.2216733,245.467813 68.5,245.47 L71.31,245.47 C71.3628406,245.459747 71.4171594,245.459747 71.47,245.47 L74,246.89 C75.1286178,247.483849 76.4875636,247.434364 77.57,246.76 C77.6700344,246.695692 77.7967778,246.689637 77.9024871,246.744115 C78.0081965,246.798594 78.0768122,246.905329 78.0824872,247.024115 C78.0881622,247.142902 78.0300344,247.255692 77.93,247.32 C77.247142,247.76043 76.4525643,247.996375 75.64,248 Z"/>
    <path fill="#6534FF" fill-rule="nonzero" d="M91.1,226.94 L91,224.13 C90.9516265,222.735864 90.1623137,221.473726 88.93,220.82 L86.93,219.82 L85.83,217.91 C85.1408488,216.683228 83.8470535,215.919927 82.44,215.91 L79.66,215.91 L79.08,215.6 C79.1683824,216.777816 79.1917512,217.95961 79.15,219.14 C79.0697266,220.583803 79.5215712,222.006935 80.42,223.14 C80.951918,223.631043 81.5165487,224.085421 82.11,224.5 C83.7129443,225.844304 84.538416,227.900479 84.31,229.98 C84.1,231.81 83.07,233.49 83.01,235.33 C82.95,237.17 84.01,239.1 84.01,241.03 C84.0261916,242.228759 83.677427,243.404095 83.01,244.4 C82.47,245.21 81.72,245.89 81.22,246.72 L82.42,246.72 C83.8270535,246.710073 85.1208488,245.946772 85.81,244.72 L87.22,242.28 L89.6,240.79 C90.7833581,240.045521 91.4806482,238.727147 91.43,237.33 L91.35,235.12 L92.46,233.21 C93.1404059,231.995468 93.1404059,230.514532 92.46,229.3 L91.1,226.94 Z" opacity=".32"/>
    <ellipse cx="75.3" cy="241.75" fill="#6534FF" fill-rule="nonzero" opacity=".32" rx="12.03" ry="1.56"/>
    <path fill="#62BCF9" fill-rule="nonzero" d="M91.49,231.26 L91.49,231.26 C91.1500076,231.649828 90.6572565,231.872478 90.14,231.87 L62,231.87 C61.4803728,231.870136 60.9854664,231.648156 60.64,231.26 L60.64,231.26 C60.2800122,230.85717 59.7589005,230.636204 59.2190766,230.657487 C58.6792526,230.678771 58.1771554,230.940079 57.85,231.37 L57.75,231.5 C57.4111919,231.948023 57.2969061,232.526825 57.44,233.07 L59.13,239.34 C59.4237347,240.435582 60.4157271,241.198022 61.55,241.2 L90.59,241.2 C91.7205517,241.19352 92.7072414,240.432008 93,239.34 L94.68,233.07 C94.8305867,232.52853 94.7196192,231.9478 94.38,231.5 L94.28,231.37 C93.9507573,230.943239 93.449287,230.684367 92.9107009,230.663132 C92.3721148,230.641898 91.8518199,230.860485 91.49,231.26 L91.49,231.26 Z"/>
    <path fill="#6534FF" fill-rule="nonzero" d="M89.92,242 L60.85,242 C59.5672117,241.999143 58.4442474,241.138477 58.11,239.9 L56.42,233.63 C56.2487276,232.987588 56.3814001,232.302114 56.78,231.77 L56.88,231.64 C57.2697705,231.129607 57.8681507,230.82124 58.51,230.8 C59.1528686,230.762292 59.7769493,231.02448 60.2,231.51 C60.3269936,231.644801 60.3269936,231.855199 60.2,231.99 C60.1379834,232.052906 60.0533356,232.088321 59.965,232.088321 C59.8766644,232.088321 59.7920166,232.052906 59.73,231.99 C59.437446,231.658408 59.011946,231.475003 58.57,231.49 C58.1256049,231.503225 57.7122359,231.720982 57.45,232.08 L57.35,232.21 C57.0718581,232.570587 56.9792775,233.040896 57.1,233.48 L58.78,239.76 C59.039995,240.706707 59.8982553,241.364706 60.88,241.37 L89.92,241.37 C90.9127394,241.351968 91.7678791,240.665389 92,239.7 C92.0210946,239.612921 92.0766903,239.538162 92.1540144,239.4929 C92.2313385,239.447637 92.3237434,239.435761 92.41,239.46 C92.5880494,239.508837 92.6945874,239.690839 92.65,239.87 C92.322021,241.112794 91.205245,241.984125 89.92,242 Z"/>
    <path fill="#6534FF" fill-rule="nonzero" d="M72.4 232L62.4 232C62.2665058 232.02315 62.1320083 231.964833 62.0576637 231.851566 61.9833191 231.738298 61.9833191 231.591702 62.0576637 231.478434 62.1320083 231.365167 62.2665058 231.30685 62.4 231.33L72.4 231.33C72.5629305 231.358255 72.6819052 231.499638 72.6819052 231.665 72.6819052 231.830362 72.5629305 231.971745 72.4 232L72.4 232zM82.68 242L76.45 242C76.3165058 242.02315 76.1820083 241.964833 76.1076637 241.851566 76.0333191 241.738298 76.0333191 241.591702 76.1076637 241.478434 76.1820083 241.365167 76.3165058 241.30685 76.45 241.33L82.68 241.33C82.8429305 241.358255 82.9619052 241.499638 82.9619052 241.665 82.9619052 241.830362 82.8429305 241.971745 82.68 242zM74.27 243.51L72.4 243.51C72.2665058 243.53315 72.1320083 243.474833 72.0576637 243.361566 71.9833191 243.248298 71.9833191 243.101702 72.0576637 242.988434 72.1320083 242.875167 72.2665058 242.81685 72.4 242.84L74.27 242.84C74.4329305 242.868255 74.5519052 243.009638 74.5519052 243.175 74.5519052 243.340362 74.4329305 243.481745 74.27 243.51L74.27 243.51zM79.56 252.32C79.377746 252.32 79.23 252.172254 79.23 251.99L79.23 249.5C79.2068498 249.366506 79.2651669 249.232008 79.3784344 249.157664 79.4917019 249.083319 79.6382981 249.083319 79.7515656 249.157664 79.8648331 249.232008 79.9231502 249.366506 79.9 249.5L79.9 252C79.8893982 252.179924 79.7402357 252.320312 79.56 252.32zM65.23 220.76C65.1126182 220.758674 65.0037181 220.698591 64.94 220.6 64.8483434 220.439535 64.901637 220.235243 65.06 220.14L71 216.71C71.1039338 216.625823 71.2475634 216.610399 71.3670003 216.670589 71.4864372 216.730779 71.5594911 216.855401 71.5536666 216.98902 71.5478421 217.122639 71.4642213 217.240431 71.34 217.29L65.42 220.72C65.362111 220.752085 65.2959116 220.766022 65.23 220.76z"/>
    <path fill="#F9879A" fill-rule="nonzero" d="M14.07,206.45 L14.21,187.91 C14.2126384,187.218693 14.4904817,186.556899 14.98212,186.07089 C15.4737582,185.584881 16.1387082,185.314677 16.83,185.32 L31.28,185.43 C31.9722214,185.435284 32.6339899,185.715346 33.1197135,186.208571 C33.605437,186.701796 33.8753247,187.367779 33.87,188.06 L33.74,206.59 C33.7386747,207.036823 33.4718913,207.440108 33.0611945,207.616121 C32.6504977,207.792134 32.1744753,207.707194 31.85,207.4 L24.7,200.71 C24.2761451,200.309979 23.6138549,200.309979 23.19,200.71 L15.94,207.29 C15.6102714,207.587323 15.136043,207.661806 14.731043,207.47988 C14.326043,207.297955 14.0667407,206.893972 14.07,206.45 Z"/>
    <path fill="#52D2BC" fill-rule="nonzero" d="M53.93,196.12 L54,186.6 C54.010931,185.862238 54.6121567,185.269919 55.35,185.27 L62.77,185.33 C63.1262307,185.32996 63.467588,185.472826 63.7175943,185.726592 C63.9676007,185.980358 64.1053569,186.32381 64.1,186.68 L64,196.2 C64.0160015,196.444409 63.874073,196.671716 63.6474491,196.764632 C63.4208251,196.857548 63.1601778,196.795297 63,196.61 L59.33,193.17 C59.1088204,192.969069 58.7711796,192.969069 58.55,193.17 L54.83,196.55 C54.6612053,196.670409 54.4403396,196.689664 54.2532556,196.600279 C54.0661716,196.510894 53.9423801,196.32697 53.93,196.12 L53.93,196.12 Z"/>
    <path fill="#62BCF9" fill-rule="nonzero" d="M272.83,193.82 C280.11,194.46 283.76,201.93 284.69,201.22 C286.01,200.22 280.62,183.5 266.85,179.22 C266.1,178.99 253.85,175.35 249.52,181.71 C245.64,187.44 250.37,198.18 256.02,199.71 C261.51,201.19 265,193.13 272.83,193.82 Z"/>
    <path fill="#FCCDD3" fill-rule="nonzero" d="M55.84,100.14 C55.15,103.58 25,107.76 9.42,90.86 C8.34,89.69 -2.71,77.4 1.8,67.37 C6.39,57.17 25,54 32.72,60.47 C40.78,67.17 33.47,81.14 43.87,92.24 C49.71,98.47 56.16,98.52 55.84,100.14 Z"/>
    <path stroke="#6534FF" stroke-linecap="round" stroke-linejoin="round" stroke-width="1.45" d="M55.84,106.66 C55.15,110.1 25,114.29 9.42,97.38 C8.34,96.22 -2.71,83.92 1.8,73.89"/>
  </g>
</svg>
