<svg xmlns="http://www.w3.org/2000/svg" width="1280" height="764" fill="none"><g clip-path="url(#a)"><path fill="#fff" d="M0 0h1280v764H0z"/><path fill="#F1F5FD" d="M752.345 92.207C786.181 48.94 858.114 43.596 905.3 55.03c54.665 13.243 56.027 44.155 106.71 69.71 111.26 56.087 205.68-41.974 269.89 9.943 49.55 40.079 51.16 144.889 9.33 190.095-30.17 32.621-63.27 12.92-96.24 45.74-53.39 53.161-1 139.159-44.21 177.485-51.53 45.71-167.797-39.544-201.708-1.087-32.127 36.437 60.248 126.556 29.223 177.957-46.297 76.659-315.485-18.308-344.671-28.817-99.781-35.902-229.289-100.958-220.97-149.861 5.453-32.012 66.069-34.181 72.573-74.781 6.292-39.277-47.634-54.627-52.229-104.594-5.092-55.609 53.752-123.113 113.038-131.751 2.885-.423 9.326-.547 15.904-.621 34.596-.467 54.716 5.263 69.595 6.73 29.223 2.871 60.871-8.433 78.834-23.137 39.986-32.733 7.579-81.854 41.976-125.835Z" opacity=".88"/><path fill="#E6EDFE" d="M978.802 724.309c31.028-51.483-61.283-141.745-29.203-178.239 33.888-38.518 150.081 46.87 201.571 1.089 43.17-38.387-9.17-124.522 44.18-177.766 32.93-32.872 66.02-13.14 96.17-45.813a90.83 90.83 0 0 0 11.98-16.551V279.33h-9.63v-17.117l-12.12-124.491v21.786h-43.49v-25.209h-23.3l-25.17 25.209h-11.8v164.016h-23.26v-15.897h-38.85v25.234h-60.58V144.569a30.85 30.85 0 0 0-1.48-6.847 163.808 163.808 0 0 1-35.37-11.633c-8.48 6.791-9.44 18.823-9.44 18.823v178.643H985.4v-96.38h-41.008v116.89h-49.707v-49.173h-27.339V256.3h-48.464v67.847h-27.339v-59.133l-28.581 28.633v47.306h-27.96v47.811h-24.543V286.488l-15.844-15.872h-18.019v-34.235h-6.213a119.444 119.444 0 0 1-11.805 2.49v31.123h-14.291l-21.126 21.163v107.062h-57.784v-59.133h-44.115v63.49h-35.416v-68.47h-48.464v47.773c12.905 37.739 54.261 53.799 48.713 88.538-6.499 40.671-67.104 42.837-72.523 74.899-8.313 48.981 121.105 114.139 220.798 150.13 11.719 4.226 62.177 22.122 121.347 37.029h216.728a43.914 43.914 0 0 0 6.357-8.166Z"/><path fill="#9289FF" d="M681.583 591.099c22.113-15.033 21.031-71.5-6.103-96.164-21.572-19.604-40.656-1.861-72.778-19.622-39.437-21.812-32.533-60.716-68.978-84.406-34.032-22.116-81.108-23.4-88.386-9.644-7.595 14.351 34.051 34.072 65.053 97.33 21.772 44.349 10.905 54.266 31.656 75.842 25.647 26.667 61.812 31.895 108.104 38.599 18.86 2.723 25.653 1.991 31.432-1.935Z" opacity=".4"/><path fill="#6534FF" d="M636.535 500.08c-2.991.62-4.549 5.41-4.66 8.31-.136 3.612.94 7.503 2.343 11.258 11.44 30.715 54.57 70.018 83.274 59.485 4.84-1.779 10.402-5.112 8.69-11.978-3.195-12.783-23.419-24.475-33.296-30.783a375.037 375.037 0 0 0-36.158-20.411c-5.563-4.827-10.761-10.769-16.756-14.945a4.35 4.35 0 0 0-3.437-.936Z" opacity=".61"/><path fill="#FCCDD3" d="M569.272 352.331c5.47.998 36.469 7.195 58.412 34.667 25.429 31.828 7.797 53.603 27.319 96.658 23.209 51.174 68.049 64.38 62.804 75.208-5.832 12.044-67.781 9.149-95.356-26.73-22.455-29.219-.979-52.816-20.914-94.542-25.005-52.335-83.025-65.971-77.754-80.138 3.568-9.592 31.748-7.645 45.489-5.123Z" opacity=".6"/><path stroke="#fff" stroke-linecap="round" stroke-linejoin="round" stroke-width="3" d="M663.102 567.098c-74.164-21.286-99.12-51.253-108.076-74.917-6.851-18.116-4.403-32.746-16.517-52.757-17.189-28.394-47.775-41.347-70.19-47.811"/><path fill="#FCCDD3" d="M611.854 542.185c58.097 20.528 92.709 32.754 91.652 45.763-1.431 17.567-68.366 41.584-111.585 18.029-26.265-14.313-26.315-36.674-70.474-69.41-22.26-16.503-36.813-21.623-35.601-24.896 2.581-6.954 70.219 10.805 126.008 30.514Z" opacity=".6"/><path stroke="#fff" stroke-linecap="round" stroke-linejoin="round" stroke-width="3" d="M683.316 590.265c-37.817 10.155-60.286 3.9-73.664-3.353-19.834-10.753-25.028-26.609-52.846-45.25a169.636 169.636 0 0 0-42.548-20.503"/><path stroke="#fff" stroke-linecap="round" stroke-linejoin="round" stroke-width="2.55" d="M699.854 553.317c-15.497-4.521-37.368-13.655-52.211-33.951-17.986-24.605-12.477-47.601-21.353-74.556-7.591-23.07-27.177-53.567-82.63-80.759m34.914 21.131-8.269-17.456m23.888 30.319-18.376-4.594m26.645 11.944-7.35-29.4m19.295 45.938-17.457-7.35m25.726 21.132 3.675-30.32m2.756 45.02L611.65 439.39m20.214 33.994 5.512-16.538m-3.675 26.645-18.376-12.863m23.889 32.157 2.756-17.457m2.757 30.319-19.295-9.187"/><path fill="#fff" d="M1061.07 210.72c-3.14 3.054-6.4 6.165-8.54 9.995-4.44 7.946-3.18 18.822 3.39 25.144 6.57 6.321 18.03 7.046 24.98 1.143a35.283 35.283 0 0 0 5.33-6.185 16.483 16.483 0 0 0 2.73-4.741c.43-1.753.56-3.569.38-5.366-.22-4.061-.67-8.184-2.28-11.919-4.37-10.064-17.5-16.242-25.99-8.071Z"/><path fill="#E2A3AE" d="M1036.12 304.622s-38.855-13.573-42.93 27.827c-4.076 41.4 44.8 86.728 44.8 86.728l37.65-58.232-39.52-56.323Z"/><path fill="#5CBEFF" d="M718.798 401.362s-9.932-.314-12.415 2.201c-2.483 2.516-16.76 3.773-16.76 18.867 0 15.093-4.966 16.351 9.932 20.124 14.898 3.773 29.715 28.991 29.715 28.991l64.017-49.335s15.518-24.936 6.828-28.08c-8.69-3.144-22.688-1.189-32.763 1.887-10.074 3.075-48.554 5.345-48.554 5.345Z"/><path fill="#2B0FD3" d="M720.922 407.27s-14.973 1.828-16.221 7.311c-1.248 5.482 1.872 26.945 14.973 29.851 13.102 2.905 31.887 6.774 31.819 10.356-.069 3.582 18.716-37.771 34.314-45.69 15.597-7.92-18.455-6.33-18.455-6.33l-46.43 4.502Z" opacity=".46"/><path fill="#6535FF" d="M745.154 272.359c-7.499-6.313-37.187-1.154-45.616 3.247-3.85 2.011-8.261 7.293-8.124 12.719.1 3.947 2.556 5.698 1.25 8.293-1.793 3.575-7.367 2.123-9.998 5.53-3.125 4.029 3.018 8.207 1.875 16.034-1.194 8.194-8.843 10.069-7.499 14.898 1.543 5.587 12.091 5.047 13.747 11.061 1.075 3.886-3.043 5.177-3.749 11.056-1.056 8.814 6.699 18.349 12.498 18.25 2.787-.05 4.755-2.316 5.624-1.658 1.206.9-3.044 4.873-2.5 8.846.75 5.444 10.523 10.974 17.497 9.932 12.703-1.863 17.559-25.662 19.996-37.599 3.755-18.33 26.013-62.955 4.999-80.609Z"/><path fill="#fff" d="m765.698 453.738-39.078 9.538-14.822-118.521h60.641l-6.741 108.983Z"/><path fill="#2B0FD3" d="M738.202 424.688a3.655 3.655 0 0 1-.506.92c.498-.236.693-.59.506-.92Z" opacity=".46"/><path fill="#9289FF" d="M727.352 345.674h-15.554l14.214 112.485a8.863 8.863 0 0 0 6.545-.217c-1.787-6.358-3.555-13.269-1.135-19.416 2.115-5.377 7.289-9.73 7.246-15.523.194.159.331.377.391.621.918-4.539-2.11-9.221-4.963-13.114-3.102-4.241-6.205-9.668-3.99-14.418l10.175-4.135c-2.866-6.085-9.927-8.972-14.052-14.281-6.204-7.935-4.622-19.547-.453-28.711a165.719 165.719 0 0 0 1.576-3.291Z" opacity=".46"/><path fill="#62BCF9" d="m698.833 434.781 1.021-4.58s-5.452 4.887-1.021 4.58Z"/><path fill="#5CBEFF" d="M788.115 408.296c-6.525-1.39 6.076 7.69-.66 8.039-32.375 3.739-36.21 44.987-49.054 33.994-15.696-13.429-29.393-12.108-34.374-17.168-3.026 1.246-4.981 1.807-6.188 1.869l-43.924 228.147c37.007 1.87 73.933 3.639 110.821 4.986 21.884-101.068 50.3-254.14 23.379-259.867Z"/><path fill="#DDDBFF" d="M793.283 523.723c-.31 28.104-23.191 50.725-51.309 50.725-28.117 0-50.998-22.621-51.308-50.725 0-28.327 54.477-62.284 82.815-62.284s19.802 33.938 19.802 62.284Z"/><path fill="#2B0FD3" d="M784.428 478.259c1.491-7.01 2.989-14.106 2.667-21.265-.322-7.159-2.673-14.497-7.853-19.443-2.197-2.095-5.607-3.719-8.163-2.095-1.943 1.24-2.475 3.793-2.883 6.068a161.313 161.313 0 0 1-19.339 52.503c-4.771 8.181-10.52 16.877-9.239 26.261.42 3.167 1.627 6.161 2.673 9.179 3.577 10.363 5.279 21.693 2.661 32.341-2.191 8.906-7.228 16.79-11.343 24.984-4.116 8.194-7.426 17.391-5.743 26.409.823 4.451 2.822 8.591 3.991 12.96 3.453 12.874-.489 26.255-1.999 39.612l13.411.551 16.529-72.243 24.63-115.822Z" opacity=".46"/><path fill="#6534FF" d="M712.605 470.487c-2.07-15.666-12.753-41.206-12.753-41.206l-50.531 232.515 16.986.852c3.511-23.91 9.116-57.631 13.879-66.18 7.606-13.602 34.482-110.314 32.419-125.981Z" opacity=".18"/><path fill="#9289FF" d="m775.195 388.373-5.047 8.185s-11.532 10.466-29.5 5.802c-17.967-4.665-28.85-52.091-28.85-52.091l63.397 38.104Z" opacity=".46"/><path fill="#6535FF" d="M779.007 341.286c-4.711 8.219-10.133 8.654-10.242 12.88-.141 5.52 8.962 12.487 17.284 11.653 8.846-.89 13.494-10.261 16.003-15.333 7.342-14.817 7.752-37.448-3.201-42.931-7.092-3.551-18.66.227-20.484 5.52-1.466 4.262 4.283 6.924 4.481 15.332.141 5.937-2.593 10.696-3.841 12.879Z"/><path fill="#fff" d="M752.225 397.125c25.879 0 46.858-29 46.858-64.773 0-35.773-20.979-64.773-46.858-64.773-25.879 0-46.858 29-46.858 64.773 0 35.773 20.979 64.773 46.858 64.773Z"/><path fill="#9289FF" d="M726.069 382.484c-6.262-7.999-4.665-19.702-.458-28.94 2.843-6.258 6.807-13.143 4.271-19.483-.958-2.403-2.768-4.381-3.889-6.715-3.243-6.728-.281-14.664 2.68-21.523l-18.077-3.33a86.03 86.03 0 0 0-5.228 29.954c0 29.759 14.345 54.875 33.994 62.842-3.275-5.114-9.493-7.949-13.293-12.805Z" opacity=".46"/><path fill="#6535FF" d="M719.546 352.025c.127-4.92.505-9.829 1.134-14.71.98-7.628 1.562-7.336 1.24-10.013-.62-6.05-3.98-10.871-1.593-14.759.111-.188.233-.368.366-.541.663-.888 1.977-2.223 6.199-5.199 9.676-6.833 16.055-13.311 25.415-13.044 8.635.242 7.644 6.982 24.176 13.044 7.439 2.733 9.776 2.131 14.878 5.591 5.882 3.982 9.639 9.398 12.131 8.237 1.072-.497 1.364-1.97 1.506-2.647 1.86-8.696 3.986-32.468.446-45.432-3.539-12.964-24.504-9.84-24.504-9.84s2.48-24.182-30.492-18.014c-26.656 4.97-32.235 21.12-41.874 40.315-20.866 41.562 2.269 76.876 2.269 76.876l7.488 1.242 1.215-11.106Z"/><path fill="#3E1EC4" d="M831.914 453.488c-7.481 42.08-1.932 65.263 4.954 78.787 7.431 14.573 9.079 21.918 12.386 36.603 3.251 14.417 2.409 18.983.619 22.333-5.623 10.509-23.991 15.28-35.918 11.167-35.572-12.277-51.283-116.562-12.386-142.686 8.689-5.838 19.34-7.253 30.345-6.204Z"/><path fill="#F9879A" d="M887.752 468.937c63.518-24.478 138.878-45.45 138.878-45.45l22.36-132.938s-43.76-9.273-73.133 13.84c-26.183 20.6-143.382 83.689-172.408 99.243-2.312 1.241-12.418 1.912-19.207 2.234-3.705.193-6.782 2.914-7.412 6.555l-43.9 253.227a5736.13 5736.13 0 0 0 41.993 1.595l55.987-1.098s-6.67-172.729 56.842-197.208Z"/><path fill="#52D2BC" d="M785.084 405.953c-3.613.2-6.614 3.028-7.225 6.81l-.827 5.064c.964 1.048 2.351 1.529 3.713 1.288 4.254-.644 17.015-7.731 23.092-8.375 3.427-.368 3.761-5.032 3.403-9.02l-3.403 1.933c-2.279 1.262-12.135 1.965-18.753 2.3Z"/><path fill="#D3637B" d="m816.352 479.389-35.644 5.019 2.938-9.681 35.651-5.019-2.945 9.681Z"/><path fill="#F87588" d="m1030.62 411.247-25.59-22.391c.07.063-10.613 12.481-11.668 13.748-5.617 6.83-12.708 12.058-20.647 16.038-9.412 4.719-19.561 7.781-29.486 11.32-13.769 4.905-27.17 10.761-40.801 16.02-10.886 4.197-22.058 6.277-32.856 10.307-18.301 6.83-35.103 20.062-36.864 40.733-3.414 40.137-13.675 59.864-17.776 63.26-4.1 3.397 4.101 22.453 4.101 25.173 0 1.614-.362 59.758-.362 80.869l12.483-1.242s-6.647-172.822 56.943-197.312c63.59-24.489 139.043-45.47 139.043-45.47l3.48-11.053Z"/><path fill="#7168DE" d="M814.38 398.335s6.887 142.055 16.426 159.461a60.698 60.698 0 0 1 5.017 11.811c3.128 10.487 1.342 16.784 1.342 16.784s-34.975-5.595-37.518-54.082c-2.544-48.487-6.995-133.029-6.995-133.029s9.093-6.235 21.728-.945Z"/><path stroke="#fff" stroke-linecap="round" stroke-linejoin="round" stroke-width="5.1" d="M829.404 572.61s-21.196-20.372-21.819-77.786c-.624-57.414-2.07-78.404-2.07-78.404"/><path fill="#99485F" d="m1038.78 417.556 36.86-57.18-71.67 29.831c3.64 9.566 7.64 18.458 11.23 25.875 2.14 4.429 6.48 7.357 11.36 7.662 4.89.305 9.55-2.059 12.22-6.188Zm-41.238-98.525c9.938-5.345 19.288-10.691 28.478-16.392-9.14-.783-22.16 1.159-28.478 16.392Z"/><path fill="#fff" d="m1214.45 282.535-104.52-42.518a522.116 522.116 0 0 1-50.2 40.142c-11.61 8.166-22.68 15.234-33.96 21.805-9.39 5.467-18.93 10.593-29.062 15.718a45.878 45.878 0 0 0-3.449 14.142c-1.734 17.648 4.031 39.094 11.221 57.952l70.86-29.395c45.34-16.028 75.16-22.184 95.64-24.474 6.69-.75 34.31-3.543 46.81-17.679l12.21-14.272-15.55-21.421Z"/><path fill="#9289FF" d="M1207.96 322.291c-7.01-2.837-5.79-45.437-12.81-48.28-21.03.261-38.83 15.584-45.29 36.818-11.24-20.539-26.22-34.769-34.65-33.428-14.08 2.254-15.85 48.932-43.65 56.457-3.66.987-6.85 1.056-13.64 3.403-15.44 5.339-24.4 13.852-30.01 18.366-10.29 8.27-20.47 12.045-29.449 14.28 1.869 6.755 4.179 13.467 6.629 19.868l61.59-25.456 9.65-3.98c45.6-16.037 75.58-22.197 96.16-24.488 2.8 0 30.3-.987 47.07-17.689 0 0 .04-.043 12.27-14.28l-23.87 18.409Z" opacity=".46"/><path fill="#B1AFFF" d="m1058.25 74.037 6.21-.781 84.51-10.664 5.39-.682c9.88-1.239 18.95 6.197 20.26 16.638l28.57 228.192c1.31 10.441-5.64 19.909-15.53 21.161l-96.11 12.126c-9.88 1.239-18.95-6.196-20.26-16.643l-28.57-228.193c-1.31-10.435 5.64-19.909 15.53-21.154Z" opacity=".61"/><path fill="#fff" d="M1207.66 169.523c6.4-.612 13.23-.293 18.69 3.061 5.9 3.613 9.34 10.555 9.15 17.369-.19 6.814-3.75 13.34-9.11 17.754-3.96 3.264-8.89 5.48-12.17 9.404-1.71 2.039-2.9 4.469-4.71 6.416-4.87 5.247-13.68 5.859-19.94 2.314-6.26-3.544-10.01-10.493-10.83-17.528-.82-7.034.99-14.154 3.76-20.692 1.57-3.674 3.81-12.949 6.77-15.453 3.12-2.712 14.2-2.241 18.39-2.645Z"/><path fill="#fff" d="M1205.82 127.26c6.41-.613 13.24-.294 18.7 3.061 5.9 3.612 9.33 10.554 9.14 17.368-.18 6.814-3.75 13.341-9.1 17.755-3.97 3.263-8.89 5.51-12.18 9.403-1.7 2.039-2.89 4.47-4.7 6.416-4.87 5.247-13.68 5.859-19.95 2.315-6.26-3.545-10.01-10.494-10.82-17.528-.82-7.035.98-14.155 3.75-20.693 1.57-3.673 3.8-12.949 6.77-15.453 3.13-2.699 14.2-2.24 18.39-2.644Z"/><path fill="#2B0FD3" d="M1198.76 157.327s12.4 1.275 16.54.637c4.13-.637 0 1.907 0 1.907s-2.76 3.806-16.54-2.544Z" opacity=".46"/><path fill="#52D2BC" d="M1169.5 67.706a19.24 19.24 0 0 1 8.22 4.741 20.381 20.381 0 0 1 6.22 12.694l22.49 233.692c.87 9.009-4.9 16.267-13.13 17.062-.65.063-1.31.086-1.97.068l-99.35-2.87a17.213 17.213 0 0 1-5.48-1.075 18.628 18.628 0 0 0 9.59 3.106l99.37 2.865c.7.018 1.39-.005 2.08-.068a15.23 15.23 0 0 0 4.09-.97c5.64-3.485 9.03-10.171 8.28-17.938l-22.49-233.692a24.1 24.1 0 0 0-3.19-9.823 22.245 22.245 0 0 0-2.82-2.964 19.125 19.125 0 0 0-11.91-4.834v.006Zm-106.13-6.928c-9.89.957-16.8 9.65-15.78 20.424l22.5 233.698a24.462 24.462 0 0 0 7.53 15.272 22.443 22.443 0 0 0 14.43 6.456 22.393 22.393 0 0 1-9.07-4.821 24.5 24.5 0 0 1-5.05-6.09 20.182 20.182 0 0 1-4.36-10.656l-22.5-233.691c-.72-7.457 3.11-13.745 9.17-16.118a16.748 16.748 0 0 1 7.34-2.485c.77-.076 1.54-.1 2.32-.075l2.49.075v-.13l87.37 2.522v.13l9.48.274c2.33.073 4.62.552 6.78 1.416a21.563 21.563 0 0 0-10.88-3.417l-99.38-2.864c-.79-.024-1.59.003-2.38.08"/><path fill="#3E1EC4" d="M1099.83 194.069c0 .099-.05.199-.06.304 0-.105.03-.205.06-.304Zm63.46-127.343c-.08 9.487-6.53 16.85-15.49 17.714-.77.077-1.55.104-2.33.08l-46.2-1.335c.71.106 1.43.168 2.15.186l47.97 1.386c.74.022 1.48-.003 2.21-.075 8.8-.845 15.09-8.357 14.66-17.876l-2.97-.08Zm26 234.94-93.86-2.709-1.77-18.366 93.86 2.709 1.77 18.366Zm-2.68-27.805-93.86-2.709-1.77-18.366 93.86 2.709 1.77 18.366Zm-15.72-163.25-93.85-2.691-.89-9.183 93.87 2.709.87 9.183v-.018Zm-97.41-46.918.05.485c-.69-.018-1.38.005-2.06.068-8.54.82-14.56 8.357-13.65 17.733l22.5 233.692c.08.879.22 1.751.42 2.61a21.541 21.541 0 0 0 9.19 13.085 17.16 17.16 0 0 0 5.47 1.081l99.37 2.865c.66.02 1.32-.001 1.98-.062 8.23-.796 14-8.078 13.13-17.062l-22.5-233.692a20.29 20.29 0 0 0-6.22-12.7c-2.3-2.24-5.13-3.87-8.22-4.741l-4.58-.13c.54 10.562-6.4 18.981-16.25 19.938-.83.078-1.66.105-2.49.08l-47.94-1.385a22.463 22.463 0 0 1-12.6-4.504 24.25 24.25 0 0 1-12.91-16.777l-2.6-.074-.05-.485-.04-.025Zm-9.81.926c-6.04 2.368-9.88 8.643-9.16 16.112L1077 314.428c.39 3.896 1.9 7.596 4.36 10.649a23.323 23.323 0 0 1-2.63-6.573c-.22-.958-.39-1.929-.48-2.908l-22.49-233.692c-.72-7.456 2.49-13.9 7.89-17.286"/><path fill="#52D2BC" d="M1172.9 67.023c3.1.871 5.92 2.5 8.22 4.74a20.353 20.353 0 0 1 6.23 12.701l22.49 233.692c.87 9.009-4.9 16.267-13.13 17.062-.66.061-1.32.082-1.97.062l-99.38-2.864a17.27 17.27 0 0 1-5.47-1.081 18.633 18.633 0 0 0 9.6 3.106l99.37 2.871c.69.019 1.38-.006 2.07-.075a14.85 14.85 0 0 0 4.08-.969c5.66-3.486 9.04-10.165 8.3-17.938l-22.48-233.704a23.984 23.984 0 0 0-3.19-9.799 20.783 20.783 0 0 0-2.83-2.964 19.096 19.096 0 0 0-11.91-4.84Zm-106.12-6.928c-9.89.957-16.8 9.65-15.78 20.43l22.5 233.692a24.455 24.455 0 0 0 7.52 15.272 22.48 22.48 0 0 0 14.44 6.456 22.37 22.37 0 0 1-9.07-4.816c-2-1.745-3.71-3.803-5.05-6.095a20.166 20.166 0 0 1-4.36-10.65l-22.49-233.698c-.72-7.456 3.11-13.744 9.16-16.111a16.865 16.865 0 0 1 7.34-2.485c.77-.073 1.55-.096 2.32-.069l2.49.069v-.13l87.37 2.528v.124l9.49.274c2.32.075 4.6.548 6.76 1.398a21.644 21.644 0 0 0-10.87-3.4l-99.38-2.87c-.8-.02-1.59.007-2.39.081Z"/><path fill="#52D2BC" d="M1076.13 64.233a24.276 24.276 0 0 0 12.91 16.776 35.27 35.27 0 0 1-1.58-1.242 25.653 25.653 0 0 1-8.16-13.452c-.15-.659-.27-1.324-.37-1.995l-2.8-.08v-.007Zm-.33-2.255v.13l3.91.112c.29.014.56.136.77.342.22.204.36.48.39.777.09.934.24 1.862.45 2.777a23.105 23.105 0 0 0 7.34 12.116 20.913 20.913 0 0 0 10.58 4.97l46.21 1.337c.77.023 1.55-.004 2.32-.081 8.96-.864 15.42-8.227 15.49-17.714l-28.85-.833a1.236 1.236 0 0 1-1.14-.988v-.106a.894.894 0 0 1 .17-.689c.15-.196.38-.32.63-.342h.12l29 .839V64.5l-87.4-2.53"/><path fill="#FF9EAF" d="m1075.43 60.213-.07-.584-.12-1.056.12 1.056.07.584.05.485 2.6.074 2.8.081c.09.671.21 1.336.37 1.994a25.59 25.59 0 0 0 8.16 13.452c.51.442 1.04.864 1.58 1.243a22.418 22.418 0 0 0 12.6 4.505l47.94 1.386c.83.024 1.66-.003 2.49-.081 9.85-.957 16.81-9.32 16.25-19.94l4.58.131c4.41.192 8.62 1.903 11.91 4.84 1.03.897 1.98 1.89 2.82 2.964a21.176 21.176 0 0 1 4.04 8.364c.2.859.34 1.73.43 2.61l22.49 233.691c.76 7.792-3.27 14.291-9.56 16.776-1.31.514-2.68.84-4.08.97-.69.069-1.38.093-2.08.074l-99.37-2.87a18.62 18.62 0 0 1-9.59-3.107 21.008 21.008 0 0 1-2.32-1.74 21.624 21.624 0 0 1-6.84-11.333c-.2-.859-.34-1.731-.42-2.61l-22.5-233.692c-.91-9.376 5.1-16.912 13.65-17.733.68-.063 1.37-.086 2.06-.068l-.05-.485-.01.019Zm-2.48-1.59a16.823 16.823 0 0 0-7.34 2.485c-5.41 3.386-8.62 9.81-7.9 17.285l22.5 233.692c.09.979.25 1.95.47 2.908.53 2.301 1.4 4.511 2.58 6.555a24.316 24.316 0 0 0 5.06 6.096 22.27 22.27 0 0 0 9.06 4.815c1.41.366 2.85.574 4.3.621l99.37 2.871c.77.023 1.54-.004 2.31-.081 9.59-.932 16.25-9.32 15.24-19.758l-22.49-233.686c-.09-.977-.25-1.947-.48-2.902a24.046 24.046 0 0 0-7.68-12.669 22.755 22.755 0 0 0-6.6-4.032 20.263 20.263 0 0 0-6.76-1.398l-9.49-.274-29-.839h-.12a.894.894 0 0 0-.63.343.894.894 0 0 0-.17.689v.105c.11.55.58.955 1.15.988l28.84.833 2.98.08c.42 9.52-5.86 17.032-14.66 17.877-.74.072-1.47.096-2.21.074l-47.97-1.385c-.72-.018-1.44-.08-2.16-.187a20.914 20.914 0 0 1-10.58-4.97 23.126 23.126 0 0 1-7.31-12.11 21.72 21.72 0 0 1-.45-2.778 1.231 1.231 0 0 0-.39-.776c-.2-.206-.48-.328-.77-.342l-3.91-.112-2.49-.068c-.77-.028-1.55-.005-2.32.068"/><path fill="#5CBEFF" d="m1090.98 252.804 1.77 18.372 93.86 2.703-1.77-18.373-93.86-2.702Z"/><path fill="#BBC4EF" d="m1076.15 98.735.89 9.19 93.86 2.703-.88-9.183-93.87-2.71Z"/><path fill="#F9879A" d="m1093.66 280.608 1.77 18.367 93.86 2.709-1.77-18.367-93.86-2.709Z"/><path fill="#fff" d="M1213.6 128.053c-3.49-.649-7.04-1.298-10.57-.946-7.32.726-13.95 6.346-15.12 13.305s3.64 14.513 10.76 16.282c2.15.442 4.35.642 6.56.595 1.48.11 2.96-.019 4.4-.381a12.63 12.63 0 0 0 3.73-2.143c2.59-1.941 5.12-4.048 6.84-6.733 4.68-7.203 2.73-18.241-6.6-19.979Zm-11.82 52.556c-2.44 2.497-4.91 4.994-6.53 8.115-3.4 6.467-2.44 15.3 2.6 20.437 5.04 5.137 13.84 5.724 19.18.93a28.079 28.079 0 0 0 4.08-5.025c.9-1.154 1.61-2.458 2.1-3.858.34-1.428.43-2.906.29-4.369-.17-3.296-.51-6.648-1.78-9.688-3.34-8.159-13.42-13.177-19.94-6.542Zm.03 62.593c.62 3.717 2.8 7.434 6.31 8.822.92.365.06-.694.5.192.68 1.356 1.36 12.891 1.36 13.573 0 2.62 9.55-1.4 11.96-2.478l12.69-5.576c2.49-1.077 4.98-2.224 6.73-4.268 3.06-3.618 2.71-8.951 1.69-13.56-1.06-4.82-2.72-9.615-5.8-13.474-3.08-3.86-7.76-6.691-12.71-6.629-3.84.044-7.47 1.778-10.71 3.816-7.94 5-13.72 9.497-12.02 19.582Z"/><path fill="#2B0FD3" d="M1206.11 251.171c.23.207.46.394.7.561.07.047.14.08.22.101-.32-.23-.63-.451-.92-.662Z" opacity=".18"/><path fill="#2B0FD3" d="m1234.33 257.03 1.18-.577c-5.93.188-17.27-.261-26.65-5.412.67 1.467 1.34 13.94 1.34 14.677 0 2.833 9.35-1.514 11.7-2.68l12.43-6.008Z" opacity=".48"/><path fill="#fff" d="M1216.16 262.006c6.99-1.805 14.85-.808 20.66 3.44 5.81 4.248 9.15 11.905 7.42 18.872-.9 3.653-3.05 6.892-5.39 9.85-1.89 2.387-4.82 5.927-8.48 10.162-1.52-.952-3.08-1.879-4.63-2.825-6.38-3.948-7.75-5.094-14.54-8.378-.27-.131-.55-.24-.84-.325a4.563 4.563 0 0 0-.9-1.88c-.97-1.165-6.27-4.023-7.36-5.069-2.87-2.738-2.94-7.375-1.53-11.059 2.5-6.485 8.79-11.04 15.59-12.788Z"/><path fill="#F9879A" d="M710.98 423.946c-.069-7.755-6.453-3.722-6.453-3.722s-5.899 2.171-9.073 6.886c-3.173 4.715-15.687 16-15.687 16.006l-30.02 20.82-65.661 197.281c18.631-.62 37.224-.558 55.855.36 19.624 1.009 39.228 1.979 58.811 2.91 10.135-88.361 10.818-190.234 12.228-200.278 1.807-12.83.068-32.508 0-40.263Z"/><path fill="#52D2BC" d="M710.611 422.51c-.071-8.406-6.649-4.035-6.649-4.035s-6.079 2.353-9.349 7.464c-1.383 2.165-4.48 5.602-7.622 8.856 0 0 8.012-6.233 11.212-5.561 3.199.673 3.839 2.69 8.319 2.69a7.93 7.93 0 0 0 4.358-1.54c-.141-3.167-.25-5.891-.269-7.874Z"/><path stroke="#fff" stroke-linecap="round" stroke-linejoin="round" stroke-width="3" d="m671.372 443.982-23.448 17.173-63.838 196.9"/><path fill="#6534FF" d="M611.433 619.879c12.684-13.57 13.807-34.25 2.665-49.107l-19.905 59.72a38.273 38.273 0 0 0 17.24-10.613Z" opacity=".18"/><path fill="#D3637B" d="M774.276 550.561a7.35 7.35 0 0 0 7.35-7.351 7.35 7.35 0 1 0-14.7 0 7.35 7.35 0 0 0 7.35 7.351ZM771.52 577.204a7.35 7.35 0 1 0 0-14.7 7.35 7.35 0 0 0 0 14.7ZM766.007 605.686a7.35 7.35 0 1 0 0-14.7 7.35 7.35 0 0 0 0 14.7Z"/><path fill="#6535FF" d="M774.276 547.804a7.35 7.35 0 0 0 7.35-7.35 7.35 7.35 0 0 0-7.35-7.35 7.35 7.35 0 1 0 0 14.7ZM769.682 575.366a7.35 7.35 0 0 0 7.35-7.35 7.35 7.35 0 1 0-14.7 0 7.35 7.35 0 0 0 7.35 7.35ZM765.088 602.929a7.35 7.35 0 0 0 7.35-7.35 7.35 7.35 0 0 0-7.35-7.35 7.35 7.35 0 1 0 0 14.7Z"/><path fill="#fff" d="M717.77 362.213c5.836 0 10.567-5.553 10.567-12.403 0-6.851-4.731-12.404-10.567-12.404-5.835 0-10.566 5.553-10.566 12.404 0 6.85 4.731 12.403 10.566 12.403Z"/><path fill="#9289FF" d="M717.912 362.213a9.49 9.49 0 0 0 4.825-1.34 41.756 41.756 0 0 1 2.778-7.865c.907-1.941 1.927-3.936 2.822-5.962-1.09-5.508-5.335-9.64-10.425-9.64-5.908 0-10.708 5.552-10.708 12.401a14.1 14.1 0 0 0 .126 1.836c.273 1.15.565 2.289.876 3.415 1.713 4.211 5.41 7.155 9.706 7.155Z" opacity=".46"/><path stroke="#F9879A" stroke-linecap="round" stroke-linejoin="round" stroke-width="3" d="M766.01 330.056a22.61 22.61 0 0 0 2.332 10.412c1.947 3.798 4.309 5.323 4.081 7.963-.215 2.524-2.664 4.367-4.664 5.513"/><path stroke="#3E1EC4" stroke-linecap="round" stroke-linejoin="round" stroke-width="4.38" d="M1017.76 302.493s-38.241 4.203-23.104 55.126"/><path stroke="#fff" stroke-linecap="round" stroke-linejoin="round" stroke-width="3" d="M850.536 443.982a239.255 239.255 0 0 0 20.64-7.823c19.269-8.351 32.144-16.987 38.625-21.109 12.744-8.14 31.869-18.756 59.259-28.951m41.35 2.757 55.12-23.888"/><path fill="#6534FF" d="M915.77 358.95a37.352 37.352 0 0 0-3.179-15.113c-21.935 12.325-46.07 25.493-67.568 37.084 9.767 13.61 27.398 19.445 43.576 14.421 16.177-5.024 27.171-19.749 27.171-36.392Z" opacity=".18"/><path stroke="#6534FF" stroke-linecap="round" stroke-linejoin="round" stroke-width="3.29" d="m749.469 574.448-19.295 91.877"/><path stroke="#3E1EC4" stroke-linecap="round" stroke-linejoin="round" stroke-width="3.96" d="M1203.35 149.059c-7.22-2.71-8.48-11.766-3.16-17.456"/><mask id="b" fill="#fff"><path d="M1209.78 207.86c-1.9-.518-3.6-1.584-4.9-3.065a10.236 10.236 0 0 1-2.45-6.123"/></mask><path fill="#B1AFFF" d="M1209.78 207.86c-1.9-.518-3.6-1.584-4.9-3.065a10.236 10.236 0 0 1-2.45-6.123"/><path fill="#B1AFFF" d="m1204.88 204.795-.76.652.01.007.75-.659Zm5.17 2.1a9.014 9.014 0 0 1-4.42-2.759l-1.5 1.318a10.977 10.977 0 0 0 5.39 3.37l.53-1.929Zm-4.41-2.752a9.154 9.154 0 0 1-2.21-5.521l-2 .1a11.2 11.2 0 0 0 2.69 6.725l1.52-1.304Z" mask="url(#b)"/><path fill="#B1AFFF" fill-rule="evenodd" d="M1207.52 235.423c-1.32 3.551.1 7.662 3.18 9.188l-3.18-9.188Zm1.34 34.913c-2.63 3.243-3.48 8.402-2.1 12.863l2.1-12.863Z" clip-rule="evenodd"/><path stroke="#B1AFFF" stroke-linecap="round" stroke-linejoin="round" stroke-width="3.96" d="M1208.86 270.336c-2.63 3.243-3.48 8.402-2.1 12.863m.76-47.776c-1.32 3.551.1 7.662 3.18 9.188l-3.18-9.188Z"/><path stroke="#6534FF" stroke-linecap="round" stroke-linejoin="round" stroke-width="3.29" d="M836.543 590.067s.797-11.685-.708-18.376"/><path fill="#F87588" d="M677.198 576.807c3.394-20.734 16.597-38.355 24.824-57.699a125.265 125.265 0 0 0 7.623-25.01c.56-16.553.915-27.733 1.339-30.73.199-1.408.349-2.903.467-4.454-.075-.881-.149-1.756-.249-2.637l.405.267c.311-5.82.193-12.241 0-18.073a43.144 43.144 0 0 0-16.404 15.219c-5.537 8.922-7.729 19.81-14.455 27.888-9.342 11.168-26.3 15.709-31.918 29.16-2.454 5.869-2.217 12.477-3.662 18.669-1.563 6.688-5.038 12.737-7.934 18.96-5.026 10.795-8.364 22.292-11.322 33.826a566.023 566.023 0 0 0-14.262 77.82 655.83 655.83 0 0 1 28.094.763l18.858.955c8.283-13.972 15.09-28.67 16.927-44.671 1.538-13.357-.505-26.982 1.669-40.253Z"/><path stroke="#fff" stroke-linecap="round" stroke-linejoin="round" stroke-width="3.29" d="M655.995 496 622 638.409"/><path stroke="#3E1EC4" stroke-linecap="round" stroke-linejoin="round" stroke-width="4.38" d="M719.423 325.462a17.657 17.657 0 0 1 .855-9.312c2.021-5.247 6.09-7.909 8.079-9.217 4.119-2.693 6.09-1.517 8.276-3.411 2.186-1.893 3.999-6.292 1.572-16.648"/><path fill="#FCCDD3" d="M1062.99 184.288c14.29-3.289 25.89 8.756 27.23 6.826 1.9-2.762-18.73-31.423-47.65-31.026-1.58 0-27.28.676-31.57 15.513-3.86 13.384 11.81 31.026 23.52 30.405 11.41-.595 13.02-18.162 28.47-21.718Zm13.56-43.875c-.57 2.032-19.96 3.292-31.39-9.188-8.33-9.1-12.09-25.133-6.09-30.483 5.24-4.673 18.08-1.343 19.89 4.318 1.74 5.376-7.57 9.366-6.97 16.654.95 11.48 25.21 16.35 24.56 18.699Z"/><path fill="#9289FF" d="M1037.96 143.195c.54 4.64-35.44 22.293-61.733 7.28-1.819-1.034-20.601-12.071-19.017-26.619 1.615-14.781 23.516-26.388 35.831-21.397 12.779 5.18 9.279 25.849 26.779 35.644 9.81 5.493 17.9 2.91 18.14 5.092Z"/><path stroke="#FCCDD3" stroke-linecap="round" stroke-linejoin="round" stroke-width="3" d="M963.547 120.577s4.385 34.351 55.123 27.604"/><path stroke="#fff" stroke-linecap="round" stroke-linejoin="round" stroke-width="3" d="M1030.62 158.254s-29.4-1.225-29.4 27.555"/><path fill="#FFBAC6" d="M865.5 144a7.5 7.5 0 1 0 0-15 7.5 7.5 0 0 0 0 15Z"/><path fill="#9289FF" d="M419 444c5.523 0 10-4.477 10-10s-4.477-10-10-10-10 4.477-10 10 4.477 10 10 10Z"/><path fill="#FFBAC6" d="M935.891 286.782a6.891 6.891 0 1 0 0-13.783 6.891 6.891 0 0 0 0 13.783Z"/><path fill="#52D2BC" d="M1222.19 519.322c3.8 0 6.89-3.086 6.89-6.891a6.894 6.894 0 0 0-6.89-6.891 6.887 6.887 0 0 0-6.89 6.891 6.888 6.888 0 0 0 6.89 6.891Z"/><path fill="#fff" d="M1259.86 500.947c3.8 0 6.89-3.086 6.89-6.891a6.894 6.894 0 0 0-6.89-6.891 6.887 6.887 0 0 0-6.89 6.891 6.888 6.888 0 0 0 6.89 6.891ZM1267.21 87.501c3.8 0 6.89-3.085 6.89-6.89 0-3.806-3.09-6.891-6.89-6.891a6.887 6.887 0 0 0-6.89 6.89c0 3.806 3.08 6.891 6.89 6.891Z"/><path fill="#9289FF" d="M400.5 394a5.5 5.5 0 1 0 0-11 5.5 5.5 0 1 0 0 11Z"/><path fill="#62BCF9" d="M874 136c6.627 0 12-5.149 12-11.5s-5.373-11.5-12-11.5-12 5.149-12 11.5 5.373 11.5 12 11.5Z"/><path fill="#DBF8F3" d="M1006.27 521.159c10.91 0 19.75-8.844 19.75-19.753 0-10.91-8.84-19.754-19.75-19.754-10.909 0-19.753 8.844-19.753 19.754 0 10.909 8.844 19.753 19.753 19.753Z"/><path fill="#6534FF" d="M1254.6 453.145v-26.637a6.826 6.826 0 0 0-3.44-5.923l-23.23-13.321a6.91 6.91 0 0 0-6.87 0l-23.22 13.321a6.826 6.826 0 0 0-3.44 5.923v26.668a6.814 6.814 0 0 0 3.44 5.929l23.23 13.316a6.915 6.915 0 0 0 6.87 0l23.22-13.316a6.799 6.799 0 0 0 3.44-5.96Z" opacity=".32"/><path fill="#FCCDD3" d="M1256 450.38v-26.633a6.828 6.828 0 0 0-3.44-5.924l-23.22-13.35a6.91 6.91 0 0 0-6.87 0l-23.22 13.325a6.815 6.815 0 0 0-3.45 5.925v26.657a6.813 6.813 0 0 0 3.45 5.924l23.22 13.325a6.91 6.91 0 0 0 6.87 0l23.22-13.325a6.828 6.828 0 0 0 3.44-5.924Z"/><path stroke="#6535FF" stroke-linecap="round" stroke-linejoin="round" stroke-width="1.51" d="M1256 422.449a6.872 6.872 0 0 0-3.44-5.956l-23.22-13.41a6.862 6.862 0 0 0-6.86 0l-23.24 13.41a6.868 6.868 0 0 0-3.44 5.956v26.789a6.869 6.869 0 0 0 3.44 5.956"/><path fill="#fff" d="m1244.78 441.908 2.82-4.856-2.82-4.857v-5.61l-4.87-2.805-2.81-4.856h-5.62l-4.88-2.805-4.87 2.805h-5.63l-2.81 4.856-4.88 2.805v5.61l-2.81 4.857 2.81 4.856v5.61l4.88 2.805 2.81 4.856h5.63l4.87 2.805 4.88-2.805h5.62l2.81-4.856 4.87-2.805v-5.61Z"/><path stroke="#6535FF" stroke-linecap="round" stroke-linejoin="round" stroke-width="1.51" d="m1243.4 425.189-4.87-2.8-2.82-4.859h-5.63l-4.87-2.806-4.88 2.806h-5.63l-2.81 4.859-4.88 2.8v5.612l-2.81 4.859 2.81 4.86v5.612l4.88 2.806 2.81 4.859h5.63"/><path fill="#62BCF9" d="M1225.9 444.029c4.25 0 7.7-3.436 7.7-7.675 0-4.238-3.45-7.674-7.7-7.674s-7.7 3.436-7.7 7.674c0 4.239 3.45 7.675 7.7 7.675Z"/><path stroke="#6535FF" stroke-linecap="round" stroke-linejoin="round" stroke-width="1.51" d="M1222.39 444.029c-3.27-2.773-3.73-7.713-1.04-11.064 2.7-3.352 7.54-3.863 10.85-1.144"/><path fill="#6534FF" d="m1252.57 417.789-23.13-13.367a6.806 6.806 0 0 0-2.58-.863 13.725 13.725 0 0 0-1.06 3.248c-.7 3.808.05 7.733 1.13 11.454 1.08 3.72 2.49 7.36 3.11 11.18.86 5.24.25 10.616-1.77 15.528-2.63 6.386-7.55 11.752-9.39 18.411-.34 1.22-.57 2.467-.68 3.726l4.35 2.522a6.844 6.844 0 0 0 6.84 0l23.13-13.342a6.825 6.825 0 0 0 3.48-5.9v-26.665c0-2.448-1.3-4.711-3.43-5.932Z" opacity=".32"/><path stroke="#6535FF" stroke-linecap="round" stroke-linejoin="round" stroke-width="1.51" d="m1230.8 466.358 21-12.56"/><path fill="#6534FF" d="m357.027 538.803-1.752-3.035-.142-3.509a4.883 4.883 0 0 0-2.591-4.129l-2.438-1.288-1.378-2.368a4.859 4.859 0 0 0-4.22-2.438h-3.49l-3.102-1.644a4.874 4.874 0 0 0-4.868.18l-2.334 1.464h-2.756a4.874 4.874 0 0 0-4.225 2.438l-1.747 3.021-2.974 1.861a4.888 4.888 0 0 0-2.287 4.295l.104 2.751-1.378 2.368a4.878 4.878 0 0 0 0 4.877l1.752 3.035.128 3.542a4.883 4.883 0 0 0 2.59 4.13l2.434 1.288 1.378 2.367a4.874 4.874 0 0 0 4.225 2.439h2.907v7.884a.667.667 0 0 0 1.094.511l4.134-3.447a.668.668 0 0 1 .862 0l3.912 3.395a.666.666 0 0 0 1.103-.506v-7.818h2.557a4.862 4.862 0 0 0 4.22-2.439l1.756-3.04 2.974-1.861a4.873 4.873 0 0 0 2.278-4.309l-.099-2.751 1.378-2.368a4.877 4.877 0 0 0-.005-4.896Z" opacity=".32"/><path fill="#62BCF9" d="m342.687 567.716-3.781-3.504a.613.613 0 0 0-.832 0l-3.992 3.558a.614.614 0 0 1-.685.094.693.693 0 0 1-.371-.622v-9.284a.717.717 0 0 1 .175-.503.627.627 0 0 1 .46-.216h9.447c.354.003.64.311.64.689v9.285a.687.687 0 0 1-.38.613.609.609 0 0 1-.681-.11Z"/><path fill="#6534FF" d="M338.922 561.514c3.258 0 5.898-2.632 5.898-5.879 0-3.246-2.64-5.878-5.898-5.878-3.257 0-5.898 2.632-5.898 5.878 0 3.247 2.641 5.879 5.898 5.879Z" opacity=".32"/><path fill="#BBC4EF" d="m359.173 536.676-1.753-3.028-.128-3.5a4.87 4.87 0 0 0-2.591-4.12l-2.435-1.284-1.378-2.362a4.877 4.877 0 0 0-4.225-2.433h-3.51l-3.098-1.696a4.895 4.895 0 0 0-4.874.18l-2.335 1.474h-2.757a4.87 4.87 0 0 0-4.22 2.432l-1.757 3.028-2.975 1.861a4.851 4.851 0 0 0-2.278 4.299l.113 2.744-1.378 2.362a4.853 4.853 0 0 0 0 4.866l1.752 3.027.1 3.52a4.858 4.858 0 0 0 2.586 4.119l2.439 1.284 1.379 2.362a4.882 4.882 0 0 0 4.22 2.433h3.51l3.103 1.634a4.876 4.876 0 0 0 4.869-.174l2.335-1.46h2.757a4.885 4.885 0 0 0 4.225-2.433l1.753-3.032 2.974-1.857a4.869 4.869 0 0 0 2.283-4.298l-.066-2.731 1.378-2.361a4.856 4.856 0 0 0-.018-4.856Z"/><path stroke="#6534FF" stroke-linecap="round" stroke-linejoin="round" stroke-width="1.76" d="M356.616 529.028a4.86 4.86 0 0 0-2.616-4.12l-2.457-1.29-1.392-2.363a4.936 4.936 0 0 0-4.265-2.429h-3.543l-3.127-1.64a4.981 4.981 0 0 0-4.92.175l-2.357 1.465h-2.783a4.934 4.934 0 0 0-4.261 2.41l-1.774 3.034-2.998 1.862a4.834 4.834 0 0 0-2.304 4.295l.1 2.75-1.391 2.363a4.809 4.809 0 0 0 0 4.863l1.769 3.052.129 3.497a4.856 4.856 0 0 0 2.611 4.121l2.462 1.285 1.392 2.363a4.923 4.923 0 0 0 4.26 2.433h3.543l3.132 1.64a4.96 4.96 0 0 0 4.944-.161"/><path fill="#6534FF" d="m357.443 533.818-.126-3.479a4.842 4.842 0 0 0-2.553-4.094l-2.399-1.277-1.358-2.347a4.798 4.798 0 0 0-4.163-2.418h-3.459l-.709-.376c.11 1.447.14 2.898.088 4.348.028 1.784.341 3.69 1.555 4.991.657.602 1.352 1.16 2.081 1.671a7.801 7.801 0 0 1 2.707 6.78c-.266 2.258-1.526 4.338-1.596 6.61-.075 2.395 1.172 4.658 1.237 7.043a7.215 7.215 0 0 1-1.186 4.169c-.662 1.005-1.577 1.841-2.193 2.869h1.475a4.805 4.805 0 0 0 4.163-2.418l1.727-3.014 2.931-1.845a4.856 4.856 0 0 0 2.25-4.273l-.084-2.732 1.358-2.348a4.86 4.86 0 0 0 0-4.836l-1.746-3.024Z" opacity=".32"/><path fill="#6534FF" d="M338.387 555.101c8.291 0 15.012-.957 15.012-2.138s-6.721-2.138-15.012-2.138-15.012.957-15.012 2.138 6.721 2.138 15.012 2.138Z" opacity=".32"/><path fill="#62BCF9" d="M358.933 539.81a2.35 2.35 0 0 1-1.711.739h-35.531a2.337 2.337 0 0 1-1.706-.739 2.321 2.321 0 0 0-1.795-.741 2.306 2.306 0 0 0-1.732.87l-.125.162a2.147 2.147 0 0 0-.388 1.904l2.123 7.625c.371 1.335 1.624 2.263 3.057 2.264h36.667c1.432-.001 2.684-.93 3.053-2.264l2.127-7.625a2.144 2.144 0 0 0-.388-1.904l-.124-.162a2.313 2.313 0 0 0-1.732-.867 2.324 2.324 0 0 0-1.795.738Z"/><path stroke="#6534FF" stroke-linecap="round" stroke-linejoin="round" stroke-width="1.76" d="M318.917 539.808a2.323 2.323 0 0 0-1.798-.739 2.308 2.308 0 0 0-1.733.873l-.125.157a2.147 2.147 0 0 0-.388 1.904l2.125 7.631c.373 1.333 1.628 2.26 3.061 2.26h36.713c1.433 0 2.688-.927 3.061-2.26m-38.604-9.498h12.868m12.868 11.758h-7.506m-5.362 2.138h2.145m7.506 8.551v3.207m-18.229-39.55 7.506-4.275"/><path fill="#FFBAC6" d="M592 271c12.15 0 22-9.85 22-22s-9.85-22-22-22-22 9.85-22 22 9.85 22 22 22Z"/><path fill="#DBF8F3" d="M604 246c5.523 0 10-4.477 10-10s-4.477-10-10-10-10 4.477-10 10 4.477 10 10 10Z"/><path stroke="#5CBEFF" stroke-linecap="round" stroke-linejoin="round" stroke-width="2" d="M570.637 262c-5.943-11.731-1.502-26.188 9.92-32.292 11.422-6.104 25.5-1.542 31.443 10.188"/><path fill="#E8EDF6" d="M629.567 276.768h-8.27l-4.134 7.35 4.134 7.35h8.27l4.134-7.35-4.134-7.35ZM599.479 287.792h-4.135l-2.07 3.675 2.07 3.675h4.135l2.064-3.675-2.064-3.675Z"/><path fill="#52D2BC" d="M992.117 317.655c-13.281 25.446 24.263 101.709 24.263 101.709 1.07 1.993 3.69 6.189 8.09 7.024 3.03.563 5.69-.712 7.5-1.757 33.47-19.382 43.16-60.855 43.16-60.855.24-1.028.42-1.857.51-2.265l-12.3 5.569c-16.88 41.548-26.8 50.576-32.92 49.562-3.46-.576-6.56-7.216-12.6-20.477-5.78-12.68-11.39-25.199-14.95-43.522-2.52-12.927-3.531-19.443-1.53-25.601 3.26-10.025 12.61-16.033 22.63-22.463 8.89-5.712 14.51-7.141 14.15-8.664-.53-2.227-13.39-2.865-24.61 1.925a44.998 44.998 0 0 0-21.393 19.815Z"/><path stroke="#3E1EC4" stroke-linecap="round" stroke-linejoin="round" stroke-width="3.96" d="m1020.51 407.231-2.75 7.351m.91-110.252-4.59-2.757 4.59 2.757Zm-16.53 14.7-7.354-.919 7.354.919Zm-2.76 23.888-4.594.919 4.594-.919Zm1.84 20.213-2.759 2.756 2.759-2.756Zm8.27 21.131-2.76 2.757 2.76-2.757Z"/><path fill="#6534FF" d="m1075.64 360.375-12.29 5.612c-16.72 41.5-26.61 50.796-32.73 49.954a18.79 18.79 0 0 0 9.79 2.301c26.69-20.943 34.73-55.585 34.73-55.585.24-1.035.41-1.87.5-2.282Z" opacity=".18"/><path fill="#6535FF" d="M718.23 362.211a3.675 3.675 0 1 0 0-7.35 3.675 3.675 0 0 0 0 7.35Z"/><path stroke="#8076FA" stroke-dasharray="9 9" stroke-linecap="round" stroke-linejoin="round" stroke-width="3" d="M1206.11 490.84c-5.03-1.86-20.54-8.189-30.5-24.796a57.792 57.792 0 0 1-8.09-26.655"/><path stroke="#fff" stroke-dasharray="9 9" stroke-linecap="round" stroke-linejoin="round" stroke-width="3" d="M1244.7 337.405c4.37-1.494 25.7-9.255 34.69-30.375a49.258 49.258 0 0 0 3.86-21.076m-257.23-68.493c-.89.389-14.42 6.072-26.961-1.821-11.225-7.08-12.423-19.211-12.542-20.644"/><path stroke="#D5DCF3" stroke-dasharray="9 9" stroke-linecap="round" stroke-linejoin="round" stroke-width="3" d="M375 501.5a46.035 46.035 0 0 0 28.138-5.662 45.95 45.95 0 0 0 16.883-16.984m414.895-125.83c24.231-4.987 92.719-22.631 132.961-84.165a173.39 173.39 0 0 0 18.64-38.031m-4.594 229.692c13.363-6.659 45.357-20.063 82.267-10.385 8.45 2.22 16.61 5.489 24.31 9.736"/><path fill="#FCCDD3" d="m1247 379.271.08-10.768c.01-.836.73-1.508 1.6-1.503l8.75.063c.42.002.82.164 1.12.45.29.286.45.672.45 1.074l-.08 10.768a.66.66 0 0 1-.41.593.716.716 0 0 1-.74-.126l-4.33-3.89a.689.689 0 0 0-.91 0l-4.4 3.827a.698.698 0 0 1-.73.107.657.657 0 0 1-.4-.595Z"/><path fill="#8076FA" d="m844 264.214.09-11.596c.011-.9.783-1.623 1.728-1.618l9.483.068a1.75 1.75 0 0 1 1.207.485c.319.308.496.724.492 1.156l-.09 11.596a.7.7 0 0 1-.446.639.76.76 0 0 1-.792-.136l-4.691-4.188a.758.758 0 0 0-.995 0l-4.758 4.12a.766.766 0 0 1-.793.116.702.702 0 0 1-.435-.642Z"/><path fill="#FFBAC6" d="m382 419.158.097-12.424c.012-.965.843-1.739 1.861-1.734l10.213.073c.488.002.956.189 1.299.519a1.7 1.7 0 0 1 .53 1.239l-.097 12.424a.749.749 0 0 1-.48.685.823.823 0 0 1-.853-.145l-5.052-4.488a.82.82 0 0 0-1.071 0l-5.125 4.415a.83.83 0 0 1-.853.124.753.753 0 0 1-.469-.688Z"/><path fill="#9289FF" d="m802 125.456.106-14.443a2.016 2.016 0 0 1 .613-1.431 2.066 2.066 0 0 1 1.459-.582l11.396.085a2.074 2.074 0 0 1 1.452.605c.383.383.597.902.593 1.441l-.112 14.436a.87.87 0 0 1-.521.814.889.889 0 0 1-.962-.16l-5.638-5.228a.894.894 0 0 0-1.198 0l-5.712 5.13a.89.89 0 0 1-.962.151.87.87 0 0 1-.514-.818Z"/><path stroke="#fff" stroke-linecap="round" stroke-linejoin="round" stroke-width="3" d="M1047.16 286.278s-29.22-9.524-59.053 11.409c-29.836 20.933-158.125 89.685-162.979 93.915-4.855 4.23-9.051 2.818-9.051 2.818s-11.343-2.358-14.451.13a9.075 9.075 0 0 0-3.351 5.916l-23.999 2.171"/><path stroke="#fff" stroke-linecap="round" stroke-linejoin="round" stroke-width="3.29" d="M1037.05 292.17s-10.57-4.966-25.49 2.483c-14.918 7.449-36.054 20.485-20.513 68.904 15.543 48.419 29.223 60.213 29.223 60.213m-4.35 7.35c-30.485 8.618-60.894 17.842-90.762 28.35-18.298 6.433-36.118 12.184-50.757 25.62-16.596 15.233-26.83 35.91-30.297 58.12M710.879 438.47s-7.75 165.307-8.269 189.266" opacity=".3"/><path stroke="#3E1EC4" stroke-linecap="round" stroke-linejoin="round" stroke-width="4.38" d="M691.938 294.224c.836-3.097-.947-6.255-1.238-9.442-.476-5.381 4.073-10.763 9.637-11.361 1.801-.191 3.633.048 5.421-.215 1.789-.263 3.658-1.196 4.203-2.87m92.797 44.612c-2.049.855-4.488.256-6.43-.791-1.943-1.046-3.596-2.494-5.538-3.535-3.307-1.744-7.211-2.21-11.001-2.617"/><path fill="#9289FF" d="M940.577 517.484h-49.615v7.35h49.615v-7.35ZM924.039 532.185h-33.995v7.35h33.995v-7.35ZM1251.13 93.933h-34v7.35h34v-7.35ZM1152.82 436.633h-34v7.35h34v-7.35ZM1152.82 424.688h-34v7.351h34v-7.351ZM1152.82 411.826h-34v7.35h34v-7.35Z"/><path fill="#6534FF" d="M1133.54 514.728a2.876 2.876 0 0 1-1.85-.655l-9.1-7.563a2.804 2.804 0 0 1-1.01-2.152v-16.104c.01-.514.34-.968.83-1.138a35.428 35.428 0 0 1 22.23 0c.49.17.82.624.83 1.138v16.122c0 .831-.37 1.618-1.02 2.153l-9.09 7.563c-.51.414-1.16.639-1.82.636Z"/><path fill="#FCCDD3" stroke="#6535FF" stroke-linecap="round" stroke-linejoin="round" stroke-width=".14" d="m1135.32 502.037-3.63-2.01 3.58 4.594 3.77-4.473-3.72 1.889Z"/><path fill="#FCCDD3" stroke="#6535FF" stroke-linecap="round" stroke-linejoin="round" stroke-width=".14" d="M1131.69 499.726h.02l3.65 2.14 3.65-2.01h.03-.02l.02-.012-3.53-6.247-3.82 6.111.01.012-.01.006Z"/><path fill="#FCCDD3" d="M1146.68 487.094a34.287 34.287 0 0 0-21.73 0 2.232 2.232 0 0 0-1.53 2.113v15.431c0 1.112.49 2.167 1.35 2.878l8.62 7.238a3.754 3.754 0 0 0 4.86 0l8.63-7.238a3.758 3.758 0 0 0 1.34-2.878v-15.431a2.22 2.22 0 0 0-1.54-2.113Zm.44 17.544c0 .792-.35 1.544-.96 2.052l-8.62 7.239c-1 .841-2.46.841-3.45 0l-8.68-7.239a2.63 2.63 0 0 1-.95-2.052v-15.431c-.01-.493.31-.932.78-1.087a33.204 33.204 0 0 1 21.05 0c.47.153.79.592.79 1.087l.04 15.431Z"/><path fill="#BBC4EF" d="M1148.22 505.64v-15.541c0-.966-.6-1.824-1.49-2.129a32.766 32.766 0 0 0-8.75-1.725c.94 1.393 1.6 2.971 1.93 4.636.37 2.017.57 4.064.59 6.117.09 1.1.04 2.207-.13 3.297-.52 2.63-2.48 4.703-3.41 7.199a12.545 12.545 0 0 0-.45 6.459c.15.884.36 1.756.63 2.611.48-.148.93-.398 1.32-.734l8.45-7.29a3.773 3.773 0 0 0 1.31-2.9Z" opacity=".44"/><path fill="#070707" d="m1125.85 503.703-5.36-1.428c-.41-.003-.75-.329-.75-.731v-2.628c0-.402.34-.726.76-.726l5.35 1.428c.13.004.25.078.3.191.05.113.02.244-.06.335l-1.93.598a.31.31 0 0 0 0 .421l1.91 2.02a.29.29 0 0 1 .06.329c-.04.112-.16.186-.28.191Zm19.05-4.114 5.33-1.399c.42.003.75.332.75.736v2.647c0 .195-.08.381-.22.518a.746.746 0 0 1-.53.212l-5.33 1.399a.335.335 0 0 1-.33-.194.314.314 0 0 1 .09-.363l1.92-2.018a.3.3 0 0 0 0-.429l-1.9-.613a.31.31 0 0 1-.03-.309.31.31 0 0 1 .25-.187Z" opacity=".18"/><path fill="#52D2BC" d="M1125.82 501.865h-5.33a.741.741 0 0 1-.75-.733v-4.051c0-.194.08-.38.22-.517a.754.754 0 0 1 .53-.211h5.34a.32.32 0 0 1 .32.196.31.31 0 0 1-.09.36l-1.92 2.011a.319.319 0 0 0 0 .428l1.9 2.023c.07.09.08.207.03.308-.04.1-.14.171-.25.186Zm19.05-5.512h5.36c.2 0 .39.077.53.215.14.137.22.324.22.518v4.051c0 .194-.08.38-.22.517a.769.769 0 0 1-.54.211h-5.35a.315.315 0 0 1-.29-.189.303.303 0 0 1 .05-.339l1.93-2.006a.319.319 0 0 0 0-.428l-1.91-2.023a.311.311 0 0 1-.06-.332.31.31 0 0 1 .28-.195Z"/><path stroke="#6535FF" stroke-linecap="round" stroke-linejoin="round" stroke-width=".76" d="M1149.14 502.784h-5.2c-.13-.003-.24-.071-.28-.176a.275.275 0 0 1 .05-.31l1.87-1.852a.27.27 0 0 0 0-.388l-1.85-1.868m-19.58 2.115 1.9 1.944c.11.082.15.227.1.353a.328.328 0 0 1-.34.179h-5.32c-.42-.003-.75-.317-.75-.703v-3.888l4.41 2.115Z"/><path stroke="#BBC4EF" stroke-linecap="round" stroke-linejoin="round" stroke-width=".76" d="m1126.17 507.377 7.35 6.431"/><path fill="#5CBEFF" d="m984 78.214.09-11.596c.011-.9.783-1.623 1.728-1.618l9.483.068c.454.002.888.177 1.207.485.319.308.496.724.492 1.156l-.09 11.596a.7.7 0 0 1-.446.639.76.76 0 0 1-.792-.136l-4.691-4.188a.76.76 0 0 0-.995 0l-4.758 4.12a.767.767 0 0 1-.793.116.702.702 0 0 1-.435-.642Z"/><path fill="#BBC4EF" fill-rule="evenodd" d="M1201.07 141.432a31.441 31.441 0 0 0-1.97-3.463 16.373 16.373 0 0 1-2.98-11.534c.12-1.454.16-2.914.13-4.373.14-3.52-1.57-6.863-4.52-8.839a45.177 45.177 0 0 0-5.39-3.209 14.564 14.564 0 0 1-6.64-6.814c-.74-1.561-1.59-3.066-2.44-4.565-2.09-3.717-5.22-5.712-9.56-5.767-1.92 0-3.84-.118-5.76-.075-3.11.062-6.15-.856-8.69-2.62a51.35 51.35 0 0 0-5.01-3.097c-3.4-1.76-6.83-1.92-10.28-.23-1.3.6-2.56 1.283-3.76 2.045-3.59 2.366-7.43 3.568-11.79 3.029a35.642 35.642 0 0 0-4.68-.118 10.129 10.129 0 0 0-7.75 3.308 28.678 28.678 0 0 0-4.04 6.194 15.312 15.312 0 0 1-7.41 6.994c-1.49.688-2.94 1.48-4.38 2.292-3.71 2.094-5.71 5.222-5.75 9.502 0 1.902-.14 3.804-.07 5.705.06 3.023-.86 5.986-2.63 8.45a52.626 52.626 0 0 0-3.24 5.184 10.51 10.51 0 0 0-.24 9.695 31.806 31.806 0 0 0 2.31 4.175 16.37 16.37 0 0 1 2.95 11.416 39.969 39.969 0 0 0-.13 4.77 10.004 10.004 0 0 0 4.03 8.146 46.666 46.666 0 0 0 5.93 3.611c2.07 1.177 4.04 2.478 5.29 4.565 1.99 3.327 3.47 6.957 5.98 9.998-.24.421-.51.83-.71 1.276-4.08 9.061-8.16 18.123-12.23 27.188a4.032 4.032 0 0 0 .67 4.571 3.974 3.974 0 0 0 4.39 1.109c4.8-1.493 9.61-2.998 14.41-4.559.88-.285 1.26-.155 1.64.675 2 4.479 4.07 8.933 6.08 13.411.76 1.691 1.93 2.658 3.9 2.676a3.972 3.972 0 0 0 3.98-2.552c2.5-5.643 5.05-11.292 7.58-16.936 1.12-2.477 2.25-4.955 3.45-7.588.27.558.45.911.59 1.276 3.17 7.917 6.33 15.833 9.49 23.75a3.794 3.794 0 0 0 3.35 2.639c1.93.179 3.45-.446 4.34-2.193 2.23-4.373 4.45-8.753 6.61-13.157.48-.991.94-1.239 2.03-.849 4.45 1.697 8.95 3.289 13.41 4.956 1.88.693 3.65.669 5.08-.812 1.43-1.48 1.35-3.301.59-5.172-2.23-5.439-4.39-10.896-6.58-16.347-1.93-4.795-3.86-9.585-5.8-14.372 1.15-1.994 2.32-3.976 3.43-5.99a13.822 13.822 0 0 1 6.33-5.698c1.65-.8 3.28-1.636 4.85-2.546 3.7-2.113 5.69-5.253 5.71-9.54 0-2.205.08-4.417.1-6.628 0-2.131.61-4.219 1.75-6.027 1.15-1.834 2.31-3.669 3.46-5.507 2.33-3.686 2.63-7.508.59-11.429Zm-80.14 57.039c4.03-.161 7.45 1.183 10.66 3.413-3.23-2.23-6.64-3.574-10.66-3.413l-1.14.043 1.14-.043Zm36.36.842a10.252 10.252 0 0 0-.01 0h.01Zm5.73.087c-1.35-.05-2.69-.062-4.05-.087 1.35.025 2.7.037 4.05.087Zm5.02-.167a14.718 14.718 0 0 1-.01 0h.01Zm-27.89 14.575c-3.77 8.276-7.48 16.595-11.21 24.896a2.286 2.286 0 0 1-2.13 1.561c-1.13 0-1.74-.756-2.18-1.704-2.16-4.794-4.38-9.57-6.48-14.389-.54-1.239-1.15-1.499-2.42-1.078-5.02 1.654-10.03 3.202-15.05 4.819-.97.316-1.93.539-2.72-.291-.8-.83-.7-1.951-.24-2.967 2.1-4.677 4.22-9.341 6.32-14.018 2.03-4.553 4.04-9.119 6.06-13.684.62.123 1.2.402 1.68.812l-11.35 25.285c-.14.323-.27.657-.41.979a.997.997 0 0 0 0 1.121c.35.403.78.285 1.25.155 2.69-.799 5.39-1.573 8.08-2.372 2.7-.799 5.3-1.543 7.93-2.385.92-.297 1.32-.087 1.72.774 2.25 4.807 4.57 9.589 6.89 14.371.28.576.41 1.388 1.26 1.388.84 0 .87-.774 1.12-1.32 3.7-8.176 7.39-16.351 11.07-24.523.08-.325.28-.608.56-.793.74.976.84 2.294.24 3.363h.01Zm45.29 12.68c.41 1.01.63 1.945-.22 2.813-.84.867-1.77.762-2.82.371-4.76-1.765-9.53-3.493-14.3-5.234-2.72-.991-2.22-.842-3.29 1.239-2.28 4.448-4.51 8.92-6.75 13.386-.5.997-1.12 1.858-2.38 1.815-1.26-.043-1.75-.991-2.17-2.038a11963.18 11963.18 0 0 0-13.21-33.233 7.603 7.603 0 0 1 2.08.08c.06.342.15.679.26 1.01 3.93 9.886 7.87 19.767 11.82 29.641.2.501.29 1.152 1.08 1.17.8.019.94-.563 1.21-1.059 2.5-4.683 5.01-9.354 7.48-14.061.48-.936.91-1.14 1.93-.781 5.12 1.809 10.27 3.531 15.41 5.284.49.173 1.01.496 1.49 0s.14-1.01-.04-1.487c-.52-1.362-1.07-2.713-1.61-4.063-3.13-7.875-6.27-15.751-9.4-23.626.4-.494.89-.914 1.43-1.239.17-.217.33-.44.49-.656-.16.216-.32.439-.49.656 4 10.006 8 20.01 11.99 30.012h.01Z" clip-rule="evenodd" opacity=".32"/><path fill="#fff" d="M1168.3 137.365h-.11a.266.266 0 0 0-.15.205l-1.5 7.037a.404.404 0 0 0 .37.471l4.29.056a.314.314 0 0 0 .26-.465l-2.82-7.05a.433.433 0 0 0-.17-.192v-.037H1168.3v-.025Zm15.92-4.135c-.69 0-.92.316-.8 1.104.15.979.21 1.965.31 2.944.1.98.24 2.133.32 3.206.04.669.32.886.93.886 1.83 0 3.68 0 5.52.062h.05c1.05 0 1.53-.62 1.45-1.705-.12-1.574-.25-3.155-.49-4.736-.02-.474-.22-.92-.57-1.239a1.763 1.763 0 0 0-1.29-.454c-1.76 0-3.52 0-5.28-.068h-.15Zm-35.9-.477c-.28 0-.53.235-.71.675-.8 2.096-1.56 4.216-2.3 6.343-.04.142-.07.287-.09.434 0 .217 0 .452-.04.676.04.529.17 1.046.4 1.525l.15.279c1.11 1.953 2.23 3.906 3.34 5.871.23.397.47.793.93.818h.04c.44 0 .62-.409.75-.8.71-1.94 1.45-3.868 2.15-5.809l.1-.26c.13-.496.15-1.012.08-1.519-.05-.229-.09-.459-.16-.682a3.434 3.434 0 0 0-.19-.44 211.574 211.574 0 0 0-3.61-6.417c-.26-.446-.56-.676-.84-.694Zm-22.57-.242c-.66 0-.85.322-.75 1.048.14.985.21 1.965.31 2.951.1.985.24 2.132.32 3.193.04.62.22.948.89.948 1.86 0 3.72.037 5.63.056h.04c1 0 1.47-.62 1.4-1.649a68.896 68.896 0 0 0-.48-4.731c-.16-1.085-.75-1.748-1.87-1.742-1.79 0-3.59 0-5.39-.074h-.1Zm58.32 20.155h-.08c-1.06 0-1.49-.756-1.59-1.816-.31-3.249-.66-6.504-.98-9.752-.33-3.249-.63-6.411-1.01-9.616-.11-.924.12-1.178.86-1.191h.18c2.72.087 5.44.081 8.17.124a4.785 4.785 0 0 1 4.58 4.272c.24 1.792.42 3.59.55 5.388.18 2.393-1.35 4.166-3.58 4.191h-.28c-1.79 0-3.57-.025-5.36-.075h-.12c-.62 0-.83.273-.74 1.011.23 1.86.41 3.682.57 5.518.07.961 0 1.922-1.15 1.934l-.02.012Zm-19.43-.223a1.944 1.944 0 0 1-.5-.074c-1.02-.273-1.29-1.122-1.14-2.04.36-2.207.77-4.396 1.16-6.597.71-4.029 1.43-8.059 2.14-12.095.11-.62.22-1.296.87-1.451.16-.043.33-.066.49-.068.66-.011 1.25.436 1.41 1.078 2.41 6.494 4.81 12.987 7.22 19.48.38 1.042-.14 1.86-1.06 1.86h-.09c-.8 0-1.18-.57-1.45-1.24-.36-.893-.75-1.785-1.01-2.703a1.077 1.077 0 0 0-.42-.733 1.081 1.081 0 0 0-.82-.209h-.32c-1.3 0-2.6 0-3.91-.056h-.11c-.55 0-.82.242-.9.862-.12.942-.37 1.86-.49 2.808-.11.788-.48 1.178-1.07 1.184v-.006Zm-14.37-.167c-1.68 0-2.8-.955-3.66-2.48-1.13-2.052-2.29-4.086-3.4-6.144a6.354 6.354 0 0 1-.51-5.313c.78-2.183 1.54-4.34 2.37-6.51a3.005 3.005 0 0 1 1.97-1.86h1.38l.18.031h.05c.05.009.11.022.17.037h.09l.11.031c1 .323 1.84 1.009 2.36 1.922 1.24 2.176 2.48 4.383 3.73 6.584a6.376 6.376 0 0 1 .57 5.32c-.69 2.039-1.44 4.042-2.16 6.075-.51 1.464-1.4 2.394-2.96 2.406h-.27l-.02-.099Zm-24.67-.223c-.65 0-1.23-.417-1.44-1.036a3.163 3.163 0 0 1-.17-1.01l-.97-9.498c-.33-3.206-.62-6.411-1-9.616-.11-.875.04-1.24.84-1.24h.15c2.73.099 5.45.086 8.17.124a4.773 4.773 0 0 1 4.59 4.247c.25 1.859.44 3.676.56 5.511.16 2.325-1.37 4.067-3.54 4.104h-.43c-1.7 0-3.4 0-5.1-.086h-.2c-.76 0-.91.378-.8 1.24.25 1.86.43 3.763.57 5.641.05.794-.16 1.519-1.08 1.6h-.15v.019Zm27.11-67.231c-2.12 0-4.15.868-6.13 2.56-2.64 2.239-5.63 3.633-8.78 3.664-.73.01-1.46-.055-2.18-.192-1.6 0-2.79-.074-3.9-.062h-.68c-2.39.106-4.29 1.03-5.5 3.2-.91 1.699-1.7 3.465-2.35 5.282a13.407 13.407 0 0 1-6.21 7.297c-1.28.707-2.48 1.531-3.73 2.319-2.59 1.636-3.63 4.184-3.26 7.557.24 2.182.44 4.34.7 6.547.29 2.282-.06 4.6-1.01 6.696-.74 1.643-1.49 3.292-2.27 4.91-1.62 3.354-1.38 6.715 1 10.124.56.8 1.02 1.656 1.62 2.425a19.987 19.987 0 0 1 4.35 11.99c0 1.358.23 2.74.38 4.104.32 2.92 1.51 5.363 4.05 7.025.95.663 1.95 1.26 2.98 1.785a22 22 0 0 1 10.66 10.193c.5.973 1.15 1.86 1.74 2.814 1.86 2.914 4.4 4.284 7.49 4.34 2.13 0 4.25.05 6.37.05 2.29.049 4.53.727 6.47 1.959 1.65.998 3.3 1.996 4.97 3.032a8.941 8.941 0 0 0 4.92 1.593c1.52-.039 3-.545 4.23-1.451 1.08-.75 2.2-1.444 3.26-2.225a12.301 12.301 0 0 1 7.3-2.555h1.05c1.72.124 3.45.081 5.17.112h.28c3 0 5.2-1.358 6.43-4.216.62-1.401 1.24-2.784 1.78-4.228a13.264 13.264 0 0 1 6.15-7.322c1.32-.726 2.59-1.55 3.84-2.387a6.744 6.744 0 0 0 3.27-6.057c-.04-2.604-.46-5.214-.74-7.825-.3-2.487.1-5.008 1.15-7.284.77-1.637 1.51-3.28 2.27-4.917 1.42-3.025 1.19-6.107-.82-9.219-.88-1.376-1.77-2.753-2.71-4.086a17.454 17.454 0 0 1-3.44-9.355c-.09-1.86-.32-3.763-.54-5.642-.33-2.864-1.5-5.257-3.99-6.931a56.495 56.495 0 0 0-5.2-3.044 18.28 18.28 0 0 1-7.41-7.205c-.91-1.568-1.86-3.1-2.87-4.625-1.54-2.362-3.55-3.88-6.18-4.172-1-.106-2-.087-3-.112h-2.18c-1.46.06-2.91-.007-4.35-.198-2.69-.416-5.12-1.86-7.38-3.553-2.48-1.86-4.84-2.759-7.09-2.734"/><path fill="#FCCDD3" d="M1193.9 187.583c-.47.46-.84 1.005-1.09 1.606 4.75 9.646 9.52 19.293 14.29 28.94.48.974.79 1.86.13 2.728a1.51 1.51 0 0 1-1.24.657 3.553 3.553 0 0 1-1.24-.266c-4.47-1.668-8.94-3.299-13.41-4.96a7.127 7.127 0 0 0-1.86-.558c-.52 0-.52.533-.96 1.773-1.52 4.34-2.98 8.68-4.46 13.02-.32.942-.76 1.773-1.8 1.785h-.11c-1.14-.049-1.69-.948-2.18-1.959-5.24-10.688-10.48-21.371-15.74-32.047-3.03-.105-5.64-1.773-8.2-3.503l-.38-.248c-2.81-1.86-5.68-2.976-8.84-2.982h-1.05c-.62 0-1.28.056-1.93.068h-.46a20.66 20.66 0 0 1-4.9-.514c-.22-.05-.43-.112-.62-.168-2.4 8.184-4.8 16.37-7.19 24.558-.09.316-.15.62-.25.955-.16.362-.09.784.16 1.085.14.166.35.261.57.26.19-.014.38-.058.55-.13 2.31-.794 4.64-1.569 6.95-2.368 2.31-.8 4.56-1.538 6.83-2.381.18-.079.38-.123.58-.13.43 0 .72.266 1.05.861 2.58 4.638 5.22 9.238 7.85 13.851.31.552.53 1.333 1.28 1.326.7 0 .68-.762.85-1.283 2.33-7.948 4.66-15.896 7-23.844.03-.302.17-.58.41-.775.78.902 1.02 2.154.62 3.279-2.42 8.06-4.74 16.12-7.09 24.18-.26.88-.78 1.519-1.71 1.531-1.01 0-1.66-.713-2.15-1.631-2.48-4.618-5.04-9.219-7.49-13.869-.45-.849-.87-1.239-1.46-1.208a2.38 2.38 0 0 0-.84.192c-4.27 1.643-8.58 3.193-12.86 4.798-.4.169-.82.268-1.25.292-.47.001-.92-.195-1.24-.54a2.642 2.642 0 0 1-.56-2.876c1.32-4.545 2.67-9.077 3.99-13.64 1.29-4.427 2.54-8.866 3.81-13.299-.39-.483-.9-.853-1.49-1.072-.16.415-.35.812-.48 1.24-2.58 8.812-5.16 17.624-7.73 26.436a4.363 4.363 0 0 0 1.14 4.414 3.73 3.73 0 0 0 2.78 1.277c.44-.008.88-.09 1.29-.242 4.13-1.494 8.25-2.988 12.34-4.55.2-.084.41-.13.62-.137.39 0 .62.224.95.775 2.32 4.34 4.69 8.612 7.02 12.921.88 1.637 2.04 2.554 3.8 2.56h.06c1.71 0 2.73-.892 3.2-2.511 1.61-5.48 3.19-10.973 4.78-16.46.71-2.412 1.43-4.805 2.2-7.384.29.546.5.88.67 1.24l11.26 23.001c.71 1.445 1.76 2.381 3.31 2.517.19.012.38.012.57 0a3 3 0 0 0 3.05-2.182c1.48-4.253 2.95-8.512 4.35-12.796.22-.676.47-1.011.96-1.017.26.011.52.07.76.173 4.18 1.6 8.38 3.1 12.58 4.669.64.259 1.32.398 2.01.409.96.007 1.87-.455 2.43-1.24 1.13-1.488.82-3.211-.08-5.022-2.63-5.239-5.21-10.502-7.81-15.76-2.29-4.625-4.59-9.244-6.89-13.856"/><path fill="#FCCDD3" d="M1191.67 190.392a9.363 9.363 0 0 1-5.64 1.779h-1.25c-1.8-.093-3.59-.062-5.4-.087h-.56c-.94.034-1.87.245-2.73.62l-.23.106c-3.39 1.624-6.09 4.439-9.76 5.579.1.332.21.657.35.974 4.69 9.531 9.38 19.058 14.07 28.581.24.484.4 1.11 1.11 1.122h.04c.62 0 .74-.558.91-1.035 1.69-4.557 3.4-9.102 5.03-13.683.23-.62.47-.924.92-.93.25.013.49.066.72.155 4.79 1.705 9.6 3.323 14.4 4.96.27.123.56.205.85.241a.58.58 0 0 0 .48-.254c.36-.477 0-.986-.21-1.451a133.19 133.19 0 0 0-1.92-3.912l-11.18-22.784"/><path fill="#6534FF" d="M1132.16 140.682h-.03c-1.87 0-3.73-.068-5.64-.056-.67 0-.84-.328-.89-.948-.08-1.06-.21-2.133-.31-3.193-.11-1.06-.18-1.965-.31-2.951-.1-.726.09-1.042.75-1.048h.1c1.81.062 3.6.074 5.4.074 1.11 0 1.7.658 1.86 1.743.22 1.574.37 3.155.48 4.73.07 1.023-.4 1.637-1.4 1.649h-.01Zm-9.34-11.16c-.8 0-.94.354-.84 1.24.38 3.206.67 6.411 1 9.616l.97 9.498c.01.344.06.685.17 1.011.21.619.79 1.035 1.45 1.035h.15c.91-.08 1.13-.806 1.07-1.599-.14-1.86-.32-3.763-.56-5.642-.12-.862.03-1.24.79-1.24h.21c1.7.087 3.39.099 5.09.087h.43c2.17-.037 3.73-1.78 3.55-4.104-.12-1.86-.32-3.683-.56-5.512a4.782 4.782 0 0 0-4.59-4.247c-2.73-.037-5.45 0-8.18-.124h-.15v-.019Zm27.15 19.827c-.45 0-.7-.421-.92-.818-1.11-1.965-2.24-3.918-3.35-5.871l-.14-.279a4.268 4.268 0 0 1-.41-1.525 3.802 3.802 0 0 1 .13-1.11c.75-2.127 1.5-4.247 2.31-6.342.17-.441.43-.664.71-.676.28-.013.58.248.84.694 1.24 2.12 2.43 4.266 3.61 6.417.07.142.13.289.18.44.07.223.11.453.17.682a3.89 3.89 0 0 1-.09 1.519l-.09.26c-.71 1.941-1.44 3.869-2.16 5.81-.14.39-.3.787-.75.799h-.04Zm-1.98-19.56H1147.04c-.92.277-1.65.966-1.97 1.86-.83 2.145-1.59 4.34-2.37 6.51a6.353 6.353 0 0 0 .51 5.313c1.11 2.058 2.27 4.092 3.4 6.144.86 1.538 1.98 2.48 3.66 2.48h.26c1.57 0 2.45-.942 2.97-2.406.72-2.033 1.47-4.036 2.16-6.075a6.415 6.415 0 0 0-.58-5.32c-1.24-2.201-2.43-4.408-3.73-6.584a4.15 4.15 0 0 0-2.35-1.922l-.12-.031h-.09a1.263 1.263 0 0 0-.17-.037h-.04l-.18-.031H1147.99"/><path fill="#6534FF" d="M1137.76 90.947c3.14 0 6.14-1.426 8.77-3.664 1.98-1.693 4.02-2.542 6.13-2.56 2.26 0 4.61.892 7.1 2.733 2.25 1.674 4.68 3.138 7.37 3.553 1.44.191 2.9.257 4.35.198h2.19c.99 0 2 0 3 .112 2.63.291 4.64 1.81 6.17 4.172a108.95 108.95 0 0 1 2.87 4.625 18.304 18.304 0 0 0 7.42 7.205c1.78.922 3.52 1.938 5.19 3.044 2.49 1.674 3.66 4.067 3.99 6.931.22 1.86.46 3.77.54 5.642a17.463 17.463 0 0 0 3.45 9.355c.93 1.333 1.82 2.71 2.71 4.086 2 3.1 2.23 6.2.81 9.219-.75 1.637-1.5 3.28-2.27 4.917a13.517 13.517 0 0 0-1.14 7.284c.27 2.611.69 5.221.73 7.825a6.755 6.755 0 0 1-3.26 6.057c-1.24.837-2.52 1.661-3.85 2.387a13.207 13.207 0 0 0-6.14 7.322c-.53 1.444-1.18 2.827-1.78 4.228-1.25 2.858-3.43 4.185-6.43 4.216h-.28c-1.72 0-3.45 0-5.18-.112-.35 0-.7-.037-1.04 0-2.65.043-5.21.939-7.3 2.555-1.06.781-2.18 1.475-3.26 2.225a7.469 7.469 0 0 1-4.24 1.451 8.993 8.993 0 0 1-4.92-1.593 193.204 193.204 0 0 0-4.97-3.032 12.522 12.522 0 0 0-6.47-1.959c-2.11 0-4.24 0-6.36-.05-3.11-.037-5.63-1.407-7.5-4.34-.59-.93-1.24-1.86-1.73-2.814a22.021 22.021 0 0 0-10.67-10.193 25.124 25.124 0 0 1-2.97-1.785c-2.54-1.662-3.73-4.105-4.06-7.025-.15-1.364-.35-2.746-.38-4.104a19.924 19.924 0 0 0-4.35-11.99c-.62-.769-1.06-1.625-1.62-2.425-2.38-3.409-2.62-6.77-1-10.124.79-1.618 1.53-3.267 2.28-4.91.95-2.096 1.3-4.414 1-6.696-.25-2.182-.46-4.34-.7-6.547-.37-3.373.67-5.921 3.27-7.557 1.24-.788 2.48-1.612 3.73-2.319a13.407 13.407 0 0 0 6.21-7.297 37.89 37.89 0 0 1 2.35-5.283c1.2-2.17 3.1-3.1 5.49-3.199h.69c1.1 0 2.29.044 3.9.062.72.138 1.45.202 2.18.193l-.02-.02Zm14.62-8.723a8.557 8.557 0 0 0-4.22 1.196 25.87 25.87 0 0 0-3.11 2.01 13.301 13.301 0 0 1-8.34 3.149c-.62.007-1.23-.028-1.83-.106-.8-.084-1.59-.12-2.39-.105-.62 0-1.21 0-1.82.037a7.722 7.722 0 0 0-6.54 3.273 24.402 24.402 0 0 0-2.87 6.064c-1 2.928-3.07 5.367-5.81 6.82a43.014 43.014 0 0 0-3.64 2.263c-3.1 2.064-4.49 5.108-4.02 9.256.21 1.86.32 3.676.62 5.512.44 2.812-.03 5.689-1.35 8.214a42.64 42.64 0 0 0-2.28 5.047 11.018 11.018 0 0 0 .93 9.38 34.272 34.272 0 0 0 2.56 4.024 18.417 18.417 0 0 1 3.98 11.023c.06 1.547.21 3.09.45 4.619a11.336 11.336 0 0 0 4.57 7.849 48.849 48.849 0 0 0 5.72 3.441c1.99 1.116 3.9 2.356 5.27 4.34 2.18 3.205 3.93 6.708 6.53 9.622.58.219 1.09.589 1.48 1.072a3.68 3.68 0 0 1 1.6.769c.21.056.43.118.62.168 1.61.366 3.25.539 4.9.514h.46c.62 0 1.29-.037 1.93-.068h1.05c3.16 0 6.03 1.141 8.84 2.982l.37.248c2.56 1.73 5.18 3.398 8.2 3.503h1.04c.28-.012.57.021.84.099 3.67-1.147 6.37-3.961 9.75-5.58l.23-.105c.87-.375 1.8-.586 2.74-.62h.56c1.8 0 3.6 0 5.4.087h1.25c2.02.03 4-.594 5.63-1.78.3-.473.69-.882 1.15-1.202.25-.6.62-1.146 1.08-1.606.79-1.947 1.61-3.869 2.36-5.828.95-2.39 2.71-4.368 4.97-5.58a59.507 59.507 0 0 0 4.04-2.511c3.05-2.077 4.46-5.133 3.97-9.299-.25-2.133-.44-4.272-.69-6.417-.26-1.99.03-4.014.85-5.847.82-1.791 1.64-3.571 2.45-5.369 1.62-3.62 1.43-7.322-.84-11.091a40.124 40.124 0 0 0-2.18-3.336 18.366 18.366 0 0 1-4.03-11.159c0-1.401-.24-2.827-.4-4.235a11.473 11.473 0 0 0-5.08-8.524 46.854 46.854 0 0 0-5.19-3.051 16.147 16.147 0 0 1-6.77-6.572c-.85-1.5-1.78-2.957-2.72-4.395-2.31-3.546-5.35-5.48-9.23-5.487-1.4 0-2.81-.062-4.21-.043h-1.24c-2.79-.014-5.51-.88-7.79-2.48-1.58-1.03-3.17-2.065-4.84-2.927a10.743 10.743 0 0 0-4.97-1.314"/><path fill="#6534FF" d="M1190.55 141.408h-.08c-1.86-.031-3.68-.075-5.51-.062-.63 0-.89-.217-.94-.887-.07-1.073-.2-2.139-.31-3.205-.11-1.067-.16-1.966-.31-2.945-.12-.788.1-1.098.79-1.104h.13c1.76.062 3.52.081 5.28.068.47-.028.94.135 1.29.454.35.319.55.766.57 1.239.24 1.581.37 3.162.49 4.737.08 1.085-.4 1.692-1.45 1.705h.05Zm-9.33-11.16c-.74 0-.97.267-.86 1.19.39 3.206.68 6.411 1.01 9.616.32 3.205.67 6.504.98 9.752.1 1.061.53 1.792 1.59 1.817h.08c1.13 0 1.24-.973 1.14-1.934-.15-1.86-.33-3.677-.56-5.518-.1-.738.09-1.005.74-1.011h.11c1.79.066 3.58.091 5.36.075h.29c2.23 0 3.73-1.798 3.58-4.191a88.876 88.876 0 0 0-.55-5.388 4.794 4.794 0 0 0-4.56-4.278c-2.73-.043-5.45-.037-8.17-.124h-.18v-.006Zm-10.01 14.879-4.29-.055a.406.406 0 0 1-.29-.153c-.07-.09-.1-.206-.07-.319l1.47-6.999a.266.266 0 0 1 .15-.205h.28v.037c.08.046.13.114.16.193l2.83 7.049c.05.095.05.21 0 .304a.313.313 0 0 1-.26.161l.02-.013Zm-3.6-15.009c-.16.002-.33.025-.49.068-.62.155-.76.824-.87 1.451-.71 4.03-1.43 8.059-2.14 12.096-.39 2.2-.8 4.389-1.16 6.596-.15.918.12 1.767 1.14 2.04.16.046.33.071.5.074.62 0 .97-.397 1.08-1.184.12-.948.36-1.86.49-2.808.08-.62.35-.856.9-.862h.11c1.31.049 2.61.068 3.9.056h.32c.3-.044.59.031.83.208.23.178.38.443.42.734.26.918.62 1.81 1 2.703.28.694.62 1.271 1.46 1.24h.08c.92 0 1.45-.837 1.07-1.86-2.4-6.497-4.81-12.991-7.23-19.48a1.42 1.42 0 0 0-1.4-1.078"/><path fill="#6534FF" d="m1256.77 53.711-1.58-2.74-.13-3.168a4.398 4.398 0 0 0-2.33-3.727l-2.21-1.163-1.24-2.138a4.387 4.387 0 0 0-3.81-2.201h-3.15l-2.8-1.484a4.39 4.39 0 0 0-4.39.163l-2.11 1.32h-2.49a4.39 4.39 0 0 0-3.81 2.202l-1.58 2.728-2.69 1.68a4.404 4.404 0 0 0-2.06 3.877l.09 2.484-1.24 2.137a4.386 4.386 0 0 0 0 4.403l1.58 2.74.12 3.198c.05 1.57.95 2.991 2.33 3.728l2.2 1.162 1.25 2.138a4.39 4.39 0 0 0 3.81 2.201h2.62v7.118c.01.233.14.445.35.544.21.099.46.067.64-.082l3.73-3.112c.23-.19.56-.19.78 0l3.53 3.065c.18.154.43.19.65.09a.61.61 0 0 0 .35-.548V73.27h2.31a4.399 4.399 0 0 0 3.81-2.202l1.58-2.744 2.69-1.68a4.394 4.394 0 0 0 2.05-3.89l-.09-2.484 1.25-2.138a4.394 4.394 0 0 0-.01-4.42Z" opacity=".32"/><path fill="#62BCF9" d="m1243.83 79.813-3.42-3.163a.552.552 0 0 0-.75 0l-3.6 3.211a.553.553 0 0 1-.62.085.627.627 0 0 1-.33-.561v-8.382a.663.663 0 0 1 .15-.454.574.574 0 0 1 .42-.195h8.53c.32.003.58.28.58.623v8.381a.629.629 0 0 1-.35.554.544.544 0 0 1-.61-.1Z"/><path fill="#6534FF" d="M1240.43 74.214c2.94 0 5.32-2.376 5.32-5.307a5.312 5.312 0 0 0-5.32-5.307 5.312 5.312 0 0 0-5.32 5.307 5.312 5.312 0 0 0 5.32 5.307Z" opacity=".32"/><path fill="#BBC4EF" d="m1258.71 51.79-1.58-2.734-.12-3.16a4.396 4.396 0 0 0-2.34-3.718l-2.19-1.16-1.25-2.133a4.392 4.392 0 0 0-3.81-2.196h-3.17l-2.8-1.53a4.42 4.42 0 0 0-4.4.162l-2.11 1.33h-2.48c-1.58 0-3.03.837-3.81 2.196l-1.59 2.734-2.69 1.68a4.38 4.38 0 0 0-2.05 3.88l.1 2.478-1.25 2.132a4.415 4.415 0 0 0 0 4.393l1.59 2.733.09 3.177a4.366 4.366 0 0 0 2.33 3.719l2.2 1.16 1.25 2.132a4.402 4.402 0 0 0 3.81 2.196h3.17l2.8 1.476a4.39 4.39 0 0 0 4.39-.158l2.11-1.318h2.49c1.57 0 3.03-.838 3.82-2.196l1.58-2.738 2.68-1.676a4.39 4.39 0 0 0 2.06-3.88l-.06-2.465 1.25-2.133c.78-1.36.77-3.03-.02-4.383Z"/><path stroke="#6534FF" stroke-linecap="round" stroke-linejoin="round" stroke-width="1.4" d="M1256.4 44.886a4.396 4.396 0 0 0-2.36-3.72l-2.22-1.164-1.25-2.133a4.47 4.47 0 0 0-3.85-2.193h-3.2l-2.83-1.48a4.493 4.493 0 0 0-4.44.158l-2.12 1.322h-2.52a4.436 4.436 0 0 0-3.84 2.176l-1.6 2.739-2.71 1.68a4.355 4.355 0 0 0-2.08 3.878l.09 2.483-1.26 2.133a4.362 4.362 0 0 0 0 4.39l1.6 2.756.12 3.157a4.367 4.367 0 0 0 2.35 3.72l2.23 1.16 1.25 2.133a4.448 4.448 0 0 0 3.85 2.197h3.2l2.82 1.48a4.49 4.49 0 0 0 4.47-.145"/><path fill="#6534FF" d="m1257.15 49.211-.11-3.14a4.378 4.378 0 0 0-2.31-3.697l-2.16-1.153-1.23-2.119a4.34 4.34 0 0 0-3.76-2.183h-3.12l-.64-.339c.1 1.306.12 2.616.08 3.925.02 1.61.31 3.332 1.4 4.506.59.543 1.22 1.047 1.88 1.509a7.023 7.023 0 0 1 2.44 6.12c-.24 2.039-1.37 3.917-1.44 5.968-.06 2.162 1.06 4.205 1.12 6.358a6.52 6.52 0 0 1-1.07 3.764c-.6.907-1.42 1.661-1.98 2.59h1.33c1.55-.001 2.98-.833 3.76-2.183l1.56-2.721 2.64-1.666c1.32-.83 2.09-2.3 2.04-3.857l-.08-2.467 1.23-2.12c.77-1.35.77-3.014 0-4.365l-1.58-2.73Z" opacity=".32"/><path fill="#6534FF" d="M1239.95 68.424c7.48 0 13.55-.865 13.55-1.93 0-1.066-6.07-1.93-13.55-1.93-7.49 0-13.56.864-13.56 1.93 0 1.065 6.07 1.93 13.56 1.93Z" opacity=".32"/><path fill="#62BCF9" d="M1258.49 54.62c-.39.422-.95.665-1.54.667h-32.08a2.138 2.138 0 0 1-1.54-.668 2.09 2.09 0 0 0-1.62-.668c-.61.022-1.19.31-1.56.785l-.11.146c-.39.49-.52 1.125-.35 1.72l1.91 6.883c.34 1.205 1.47 2.043 2.76 2.044h33.11c1.29-.001 2.42-.84 2.75-2.044l1.92-6.884c.17-.594.04-1.229-.35-1.719l-.11-.146c-.37-.473-.95-.76-1.56-.783a2.115 2.115 0 0 0-1.63.666Z"/><path stroke="#6534FF" stroke-linecap="round" stroke-linejoin="round" d="M1222.37 54.618a2.103 2.103 0 0 0-1.62-.667 2.09 2.09 0 0 0-1.57.788l-.11.142c-.39.49-.52 1.124-.35 1.719l1.92 6.889c.33 1.204 1.47 2.04 2.76 2.04h33.14c1.3 0 2.43-.836 2.77-2.04m-34.85-8.574h11.61m11.62 10.614h-6.78m-4.84 1.93h1.94m6.78 7.72v2.895m-16.46-35.704 6.78-3.86"/><path fill="#6534FF" d="M534.04 292.429v-12.185a3.118 3.118 0 0 0-1.574-2.709l-10.626-6.094a3.158 3.158 0 0 0-3.142 0l-10.622 6.094a3.114 3.114 0 0 0-1.574 2.709v12.199a3.116 3.116 0 0 0 1.574 2.712l10.625 6.091c.972.558 2.17.558 3.142 0l10.626-6.091a3.118 3.118 0 0 0 1.571-2.726Z" opacity=".32"/><path fill="#FCCDD3" d="M534.68 291.164v-12.183a3.117 3.117 0 0 0-1.573-2.71l-10.624-6.107a3.161 3.161 0 0 0-3.141 0l-10.623 6.096a3.117 3.117 0 0 0-1.577 2.71v12.194a3.117 3.117 0 0 0 1.577 2.71l10.623 6.096a3.156 3.156 0 0 0 3.141 0l10.624-6.096a3.117 3.117 0 0 0 1.573-2.71Z"/><path stroke="#6535FF" stroke-linecap="round" stroke-linejoin="round" d="M534.68 278.387a3.138 3.138 0 0 0-1.573-2.725l-10.62-6.134a3.14 3.14 0 0 0-3.14 0l-10.629 6.134a3.138 3.138 0 0 0-1.576 2.725v12.254a3.14 3.14 0 0 0 1.576 2.725"/><path fill="#fff" d="m529.55 287.288 1.288-2.221-1.288-2.222v-2.566l-2.229-1.283-1.287-2.222h-2.572l-2.229-1.283-2.229 1.283h-2.575l-1.287 2.222-2.23 1.283v2.566l-1.287 2.222 1.287 2.221v2.567l2.23 1.283 1.287 2.221h2.575l2.229 1.283 2.229-1.283h2.572l1.287-2.221 2.229-1.283v-2.567Z"/><path stroke="#6535FF" stroke-linecap="round" stroke-linejoin="round" d="m528.916 279.641-2.229-1.281-1.288-2.223h-2.575l-2.23-1.283-2.229 1.283h-2.576l-1.287 2.223-2.229 1.281v2.567l-1.288 2.223 1.288 2.223v2.567l2.229 1.284 1.287 2.223h2.576"/><path fill="#62BCF9" d="M520.912 288.258a3.517 3.517 0 0 0 3.522-3.511 3.517 3.517 0 0 0-3.522-3.511 3.517 3.517 0 0 0-3.523 3.511 3.517 3.517 0 0 0 3.523 3.511Z"/><path stroke="#6535FF" stroke-linecap="round" stroke-linejoin="round" d="M519.304 288.259c-1.494-1.269-1.705-3.529-.472-5.062a3.495 3.495 0 0 1 4.961-.523"/><path fill="#6534FF" d="m533.113 276.256-10.581-6.115a3.133 3.133 0 0 0-1.181-.395 6.123 6.123 0 0 0-.483 1.486c-.322 1.742.022 3.538.515 5.24.492 1.702 1.137 3.367 1.422 5.114a13.081 13.081 0 0 1-.808 7.103c-1.203 2.921-3.456 5.376-4.298 8.422a9.871 9.871 0 0 0-.31 1.705l1.991 1.153a3.129 3.129 0 0 0 3.129 0l10.581-6.103a3.124 3.124 0 0 0 1.59-2.699v-12.198a3.123 3.123 0 0 0-1.567-2.713Z" opacity=".32"/><path stroke="#6535FF" stroke-linecap="round" stroke-linejoin="round" d="m523.153 298.473 9.606-5.745"/><path fill="#6534FF" d="M1040.08 39.008v-16.72c0-1.534-.82-2.952-2.16-3.717l-14.58-8.362a4.335 4.335 0 0 0-4.31 0l-14.58 8.362a4.279 4.279 0 0 0-2.16 3.717v16.739c0 1.535.82 2.955 2.16 3.721l14.58 8.358c1.34.765 2.98.765 4.31 0l14.58-8.358c1.35-.77 2.17-2.2 2.16-3.74Z" opacity=".32"/><path fill="#FCCDD3" d="M1040.96 37.271V20.555a4.28 4.28 0 0 0-2.16-3.718l-14.58-8.38a4.333 4.333 0 0 0-4.31 0l-14.57 8.364a4.287 4.287 0 0 0-2.17 3.719v16.731c0 1.536.83 2.954 2.17 3.719l14.57 8.364c1.33.765 2.98.765 4.31 0l14.58-8.364a4.28 4.28 0 0 0 2.16-3.719Z"/><path stroke="#6535FF" stroke-linecap="round" stroke-linejoin="round" d="M1040.96 19.74c0-1.542-.82-2.969-2.16-3.738l-14.57-8.417a4.313 4.313 0 0 0-4.31 0L1005.33 16a4.326 4.326 0 0 0-2.16 3.739v16.814c0 1.543.83 2.97 2.16 3.738"/><path fill="#fff" d="m1033.92 31.953 1.76-3.047-1.76-3.05v-3.52l-3.06-1.761-1.77-3.048h-3.53l-3.05-1.76-3.06 1.76h-3.54l-1.76 3.048-3.06 1.76v3.522l-1.77 3.049 1.77 3.047v3.521l3.06 1.761 1.76 3.048h3.54l3.06 1.76 3.05-1.76h3.53l1.77-3.048 3.06-1.76v-3.522Z"/><path stroke="#6535FF" stroke-linecap="round" stroke-linejoin="round" d="m1033.05 21.46-3.06-1.757-1.77-3.05h-3.53l-3.06-1.761-3.06 1.761h-3.53l-1.77 3.05-3.06 1.758v3.522l-1.77 3.05 1.77 3.05v3.522l3.06 1.762 1.77 3.05h3.53"/><path fill="#62BCF9" d="M1022.06 33.285c2.67 0 4.84-2.157 4.84-4.817s-2.17-4.818-4.84-4.818c-2.66 0-4.83 2.157-4.83 4.818 0 2.66 2.17 4.817 4.83 4.817Z"/><path stroke="#6535FF" stroke-linecap="round" stroke-linejoin="round" d="M1019.86 33.285c-2.05-1.74-2.34-4.84-.65-6.944a4.8 4.8 0 0 1 6.81-.718"/><path fill="#6534FF" d="m1038.81 16.816-14.52-8.39a4.314 4.314 0 0 0-1.62-.542 8.606 8.606 0 0 0-.67 2.039c-.44 2.39.04 4.854.71 7.189.68 2.335 1.56 4.62 1.95 7.017.55 3.289.16 6.663-1.11 9.747-1.65 4.007-4.74 7.376-5.89 11.555-.21.766-.36 1.549-.43 2.34l2.73 1.582a4.31 4.31 0 0 0 4.3 0l14.51-8.374a4.29 4.29 0 0 0 2.19-3.704V20.54c0-1.537-.82-2.957-2.15-3.724Z" opacity=".32"/><path stroke="#6535FF" stroke-linecap="round" stroke-linejoin="round" d="m1025.14 47.3 13.18-7.883"/><path fill="#fff" d="M896.769 247.02a6.701 6.701 0 0 1-4.254-1.536l-21.241-17.661a6.458 6.458 0 0 1-2.354-4.997l.132-37.487a2.801 2.801 0 0 1 1.952-2.634 83.444 83.444 0 0 1 51.983.173 2.798 2.798 0 0 1 1.932 2.659l-.132 37.481a6.465 6.465 0 0 1-2.384 4.984l-21.335 17.513a6.727 6.727 0 0 1-4.299 1.505Z"/><path fill="#52D2BC" stroke="#6535FF" stroke-linecap="round" stroke-linejoin="round" stroke-width=".32" d="m900.287 220.429-8.967-5.505 8.817 12.558 9.382-12.169-9.232 5.116Z"/><path fill="#52D2BC" stroke="#6535FF" stroke-linecap="round" stroke-linejoin="round" stroke-width=".32" d="M891.333 212.62h.051l9.01 5.094 9.068-4.718.045.006-.025-.013.037-.024-8.68-14.787-9.519 14.411.044.019-.031.012Z"/><path fill="#6535FF" d="M925.493 185.657a81.91 81.91 0 0 0-51.416-.174 5.253 5.253 0 0 0-3.632 4.95l-.125 36.212a8.81 8.81 0 0 0 3.189 6.805l20.351 17.064a8.972 8.972 0 0 0 11.464.037l20.469-16.921a8.792 8.792 0 0 0 3.201-6.756l.125-36.212a5.237 5.237 0 0 0-3.626-5.005Zm.911 41.192a6.248 6.248 0 0 1-2.284 4.813l-20.469 16.921a6.402 6.402 0 0 1-8.169 0l-20.35-17.088a6.266 6.266 0 0 1-2.247-4.85l.125-36.212a2.695 2.695 0 0 1 1.872-2.555 79.386 79.386 0 0 1 49.8.167 2.699 2.699 0 0 1 1.872 2.567l-.15 36.237Z"/><path fill="#BBC4EF" d="m928.993 225.662.126-36.493c.012-2.274-1.457-4.299-3.643-5.025a83.356 83.356 0 0 0-21.402-4.109 28.835 28.835 0 0 1 4.687 10.905c1.037 4.707 1.214 9.546 1.391 14.34a31.84 31.84 0 0 1-.354 7.757c-1.303 6.153-6.09 11.01-8.399 16.878-1.897 4.782-2.036 10.1-1.163 15.163a47.571 47.571 0 0 0 1.517 6.129 9.091 9.091 0 0 0 3.251-1.702l20.744-17.053a8.841 8.841 0 0 0 3.245-6.79Z" opacity=".44"/><path fill="#070707" d="m880.612 221.9-13.948-3.65c-1.073 0-1.943-.817-1.943-1.825l.064-6.655c0-1.008.87-1.825 1.944-1.825l13.954 3.65c.335.002.637.19.769.479a.755.755 0 0 1-.16.853l-4.995 1.454a.752.752 0 0 0 0 1.071l4.962 5.128a.754.754 0 0 1 .14.861.848.848 0 0 1-.787.459Zm38.215-10.449 13.951-3.506c.521 0 1.019.199 1.384.552.365.352.565.83.557 1.324l-.065 6.729c0 1.019-.869 1.845-1.94 1.845l-13.959 3.506a.84.84 0 0 1-.767-.485.768.768 0 0 1 .159-.862l5.039-5.111a.766.766 0 0 0 0-1.083l-4.967-1.574a.768.768 0 0 1-.147-.853.84.84 0 0 1 .755-.482Z" opacity=".18"/><path fill="#FCCDD3" d="m880.6 219.109-13.939-.097c-1.072 0-1.94-.816-1.94-1.823l.077-10.211c0-1.007.869-1.824 1.941-1.824l13.945.098a.841.841 0 0 1 .768.478.755.755 0 0 1-.16.853l-5.013 5.014a.75.75 0 0 0 0 1.07l4.955 5.124a.755.755 0 0 1 .142.854.847.847 0 0 1-.776.464Zm38.239-13.955 13.939.091c.522 0 1.021.197 1.386.546.365.349.565.821.555 1.31l-.078 10.189c0 1.005-.869 1.82-1.94 1.82l-13.946-.098a.842.842 0 0 1-.767-.477.752.752 0 0 1 .159-.851l5.039-5.04a.747.747 0 0 0 0-1.067l-4.974-5.119a.75.75 0 0 1-.13-.84.845.845 0 0 1 .757-.464Z"/><path stroke="#6535FF" stroke-linecap="round" stroke-linejoin="round" stroke-width="1.76" d="m875.359 213.851 4.554 5.291a.846.846 0 0 1 .137.892.764.764 0 0 1-.731.47l-12.814-.1c-.479 0-.937-.203-1.272-.563a1.937 1.937 0 0 1-.512-1.352l.071-10.544m67.127 12.56-13.208-.096a.797.797 0 0 1-.727-.475.773.773 0 0 1 .151-.845l4.781-5.005a.78.78 0 0 0 0-1.067l-4.695-5.072"/><path stroke="#BBC4EF" stroke-linecap="round" stroke-linejoin="round" stroke-width="1.76" d="m877.32 230.273 18.2 15.351"/><path fill="#F1F5FD" d="M716.278 609.147C312.13 508.235-44 738.352-44 738.352V764h1365V537s-200.57 173.059-604.722 72.147Z"/><path stroke="#fff" stroke-width="3" d="M1321 536.999s-200.57 173.06-604.722 72.148C312.13 508.235-44 738.352-44 738.352"/></g><defs><clipPath id="a"><path fill="#fff" d="M0 0h1280v764H0z"/></clipPath></defs></svg>